<?xml version="1.0" standalone="no"?>
<!DOCTYPE svg PUBLIC "-//W3C//DTD SVG 20010904//EN"
 "http://www.w3.org/TR/2001/REC-SVG-20010904/DTD/svg10.dtd">
<svg version="1.0" xmlns="http://www.w3.org/2000/svg"
 width="1404.000000pt" height="1404.000000pt" viewBox="0 0 1404.000000 1404.000000"
 preserveAspectRatio="xMidYMid meet">
<metadata>
Created by potrace 1.11, written by Peter Selinger 2001-2013
</metadata>
<g transform="translate(0.000000,1404.000000) scale(0.100000,-0.100000)"
fill="#000000" stroke="none">
<path d="M7007 14021 c-60 -24 -92 -49 -242 -183 -466 -417 -852 -618 -1490
-777 -497 -124 -845 -164 -1219 -142 -611 35 -1117 151 -2001 455 -186 64
-262 86 -300 86 -140 0 -238 -87 -280 -247 -24 -90 -19 -130 39 -315 180 -570
200 -667 255 -1218 39 -387 44 -483 38 -838 -9 -631 -89 -1282 -277 -2262
-179 -935 -313 -1856 -382 -2620 -18 -204 -22 -317 -22 -670 -1 -452 7 -582
50 -858 72 -463 220 -833 452 -1132 124 -160 354 -379 810 -773 345 -298 1228
-728 2602 -1267 258 -101 562 -265 845 -455 280 -188 616 -454 837 -662 134
-127 179 -147 308 -141 108 6 165 32 234 107 202 221 391 384 621 538 386 257
975 558 1500 766 953 377 1041 415 1395 591 743 372 1178 682 1483 1061 470
584 684 1388 664 2498 -10 582 -96 1296 -386 3212 -167 1101 -182 1227 -202
1615 -13 258 -7 896 11 1115 38 486 79 699 240 1245 45 151 88 306 96 343 22
107 3 185 -63 258 -63 69 -102 84 -223 84 l-105 0 -140 -67 c-563 -267 -1245
-435 -1900 -468 -470 -24 -1099 60 -1535 203 -470 155 -848 380 -1320 785
-125 108 -193 144 -279 149 -49 2 -79 -2 -114 -16z m189 -106 c27 -14 108 -75
179 -136 319 -272 555 -434 854 -583 458 -230 1004 -360 1657 -396 708 -38
1613 147 2289 468 139 66 141 67 226 67 78 0 89 -2 122 -28 20 -15 43 -40 51
-55 35 -71 29 -108 -79 -467 -212 -702 -260 -1065 -260 -1945 0 -702 1 -706
210 -2100 307 -2051 385 -2713 385 -3285 0 -1308 -326 -2150 -1060 -2734 -249
-199 -698 -467 -1133 -675 -316 -153 -467 -216 -1257 -526 -258 -101 -462
-193 -770 -347 -657 -328 -1092 -625 -1363 -932 -104 -119 -147 -145 -237
-143 -82 1 -123 24 -239 135 -359 346 -925 750 -1350 966 -148 75 -234 111
-632 270 -734 292 -1407 598 -1829 833 -195 108 -399 249 -517 356 -59 53
-180 160 -268 237 -184 159 -343 317 -431 425 -307 377 -467 854 -514 1535
-13 182 -13 635 0 845 44 720 185 1728 406 2900 101 538 170 977 214 1360 48
428 54 532 55 970 0 447 -7 565 -65 1035 -44 350 -62 429 -210 901 -39 122
-70 234 -70 249 0 52 32 142 63 180 34 42 80 65 130 65 19 0 173 -48 343 -106
821 -280 1338 -397 1929 -435 366 -23 652 5 1113 107 767 171 1181 377 1712
853 182 163 244 187 346 136z"/>
<path d="M7008 13651 c-57 -23 -81 -39 -233 -161 -409 -326 -881 -587 -1269
-700 -395 -115 -922 -180 -1458 -180 -229 0 -358 13 -592 61 -328 67 -934 230
-1389 374 -99 31 -191 55 -205 53 -24 -3 -27 -7 -30 -50 -3 -39 9 -76 63 -213
138 -348 212 -703 245 -1175 13 -189 13 -689 0 -916 -33 -569 -80 -931 -265
-2044 -310 -1868 -405 -2627 -405 -3255 0 -708 108 -1236 346 -1695 197 -379
418 -618 909 -985 327 -244 649 -441 1030 -630 286 -142 456 -214 827 -351
1000 -369 1772 -799 2257 -1259 88 -83 135 -115 168 -115 43 1 107 45 224 155
287 271 607 479 1164 755 405 200 750 352 1470 645 654 266 810 337 1061 480
155 89 426 273 574 392 153 121 412 376 514 503 343 430 517 931 588 1695 8
86 13 277 12 495 0 527 -29 820 -148 1530 -160 950 -392 2725 -451 3455 -17
214 -20 659 -5 875 42 607 168 1287 292 1574 34 78 32 112 -8 122 -54 14 -108
-6 -310 -114 -171 -91 -712 -236 -1204 -321 -345 -60 -493 -75 -770 -75 -262
-1 -311 3 -595 50 -446 74 -1056 238 -1270 342 -248 120 -559 339 -797 560
-53 49 -118 100 -144 113 -64 30 -136 34 -196 10z m493 -957 c14 -39 1 -313
-17 -341 -17 -27 -50 -30 -77 -5 -15 14 -38 17 -116 17 l-96 0 -109 -55 c-59
-30 -110 -59 -112 -65 -2 -5 -3 -162 -2 -347 l3 -336 128 49 c70 27 159 56
198 64 137 29 341 135 435 227 61 59 79 51 78 -33 -1 -87 -51 -195 -126 -275
-106 -112 -183 -146 -373 -162 -163 -15 -218 -28 -267 -65 -89 -68 -83 -31
-86 -531 -3 -503 -6 -482 70 -448 69 30 236 162 333 263 112 116 172 199 234
326 27 54 59 107 71 118 22 20 22 20 37 0 27 -35 1 -408 -33 -480 -9 -19 -39
-51 -67 -73 -55 -40 -919 -564 -950 -575 -27 -10 -57 10 -57 37 0 13 8 38 18
57 16 31 17 99 20 909 2 481 0 898 -3 927 -8 67 -39 112 -89 130 -72 24 -98
71 -58 105 9 8 172 108 362 223 190 115 403 244 474 287 71 43 137 78 147 78
12 0 24 -11 30 -26z m4000 -762 c83 -53 128 -177 132 -369 1 -59 -2 -342 -6
-628 -5 -286 -4 -839 0 -1230 6 -434 5 -715 0 -722 -5 -7 -24 -13 -42 -13 -62
0 -82 37 -354 657 -139 318 -262 587 -272 598 -42 44 -44 30 -51 -613 -4 -361
-3 -621 2 -642 5 -20 30 -60 55 -89 39 -46 46 -59 43 -90 -3 -33 -10 -41 -103
-103 -55 -37 -132 -84 -171 -104 -62 -31 -75 -34 -94 -24 -20 11 -22 17 -17
68 3 32 17 111 32 177 l27 120 9 880 c6 484 8 914 6 955 -8 121 -22 156 -85
202 -63 47 -70 60 -48 93 42 64 236 185 296 185 63 0 96 -55 295 -500 48 -107
98 -216 111 -242 25 -49 49 -62 58 -30 2 9 6 271 8 582 l3 565 -24 45 c-13 25
-43 76 -67 113 -48 74 -54 105 -25 131 33 30 113 55 177 56 49 0 68 -5 105
-28z m-5356 -53 c3 -10 0 -35 -6 -56 -18 -52 -26 -1879 -9 -1936 6 -20 24 -52
40 -70 38 -43 47 -80 27 -111 -9 -13 -83 -64 -164 -114 -188 -114 -190 -115
-219 -108 -20 5 -24 12 -24 44 1 20 8 64 17 97 13 50 17 137 20 518 3 253 1
457 -4 457 -5 0 -108 -60 -228 -133 l-220 -134 -5 -439 c-3 -241 -2 -452 2
-468 4 -15 28 -50 52 -76 38 -41 44 -53 37 -72 -8 -22 -283 -219 -375 -269
l-40 -21 -18 22 c-22 28 -22 30 3 110 32 103 38 270 39 1079 0 740 0 755 -20
797 -12 23 -39 62 -60 87 -44 49 -48 71 -23 106 16 24 295 211 371 250 75 38
88 8 50 -114 -20 -65 -22 -95 -26 -398 l-3 -328 23 12 c50 26 404 242 415 253
8 8 12 90 15 276 3 297 -1 323 -68 420 -43 63 -44 90 -1 122 40 31 337 213
357 220 22 7 38 -1 45 -23z m-1476 -563 c9 -10 11 -111 9 -370 -3 -320 -5
-357 -20 -372 -16 -17 -18 -17 -37 0 -11 10 -29 43 -42 74 -42 107 -88 189
-119 216 -38 31 -77 43 -93 27 -9 -9 -12 -254 -12 -994 0 -1121 -7 -1031 91
-1139 30 -32 54 -61 54 -66 0 -25 -52 -63 -242 -179 -227 -138 -264 -156 -291
-141 -25 14 -21 51 15 131 l33 72 9 1007 c9 1063 8 1074 -35 1101 -71 44 -132
-90 -239 -528 -50 -206 -74 -267 -107 -279 -39 -15 -42 7 -54 365 -13 379 -9
447 24 483 20 21 940 585 977 599 28 10 68 7 79 -7z m5497 -581 c100 -49 211
-196 264 -351 23 -65 43 -199 64 -409 63 -641 -5 -1163 -204 -1583 -120 -252
-299 -330 -518 -225 -78 38 -200 159 -241 241 -106 211 -171 634 -158 1032 18
536 142 949 347 1160 73 75 134 114 230 148 79 28 140 24 216 -13z m-882 -471
c3 -8 -1 -54 -9 -102 -12 -72 -15 -270 -17 -1172 l-3 -1085 28 -57 c30 -63 34
-103 13 -134 -8 -11 -72 -54 -143 -94 -70 -40 -163 -95 -206 -122 -43 -26 -87
-48 -97 -48 -33 0 -41 61 -13 113 48 94 47 65 51 1142 2 703 0 1023 -8 1054
-6 24 -29 81 -51 127 -25 52 -38 91 -34 103 6 20 131 107 285 198 164 98 192
108 204 77z m-621 -382 c21 -23 24 -51 38 -355 l12 -258 -26 -26 c-14 -14 -32
-23 -40 -20 -7 3 -37 52 -65 110 -28 58 -63 115 -78 126 -39 31 -96 28 -134
-6 l-30 -28 8 -980 c8 -952 9 -982 29 -1042 12 -35 36 -86 54 -114 30 -48 32
-53 18 -77 -14 -24 -207 -148 -336 -215 -100 -51 -114 -28 -79 123 24 101 31
612 21 1464 -7 587 -9 638 -25 659 -15 19 -21 20 -44 9 -57 -26 -162 -223
-206 -388 -25 -89 -50 -125 -77 -108 -29 18 -34 77 -31 326 l3 238 25 24 c24
23 321 208 714 443 104 62 199 113 211 113 12 0 29 -8 38 -18z m-1346 -642 c6
-14 41 -162 78 -330 106 -491 323 -1461 365 -1637 40 -165 78 -266 124 -326
44 -58 37 -69 -104 -159 -179 -114 -271 -162 -288 -151 -24 15 -26 37 -12 130
11 67 11 99 1 168 -25 167 -60 265 -94 265 -21 0 -330 -195 -344 -217 -10 -16
-25 -93 -40 -211 -27 -215 -25 -235 37 -307 22 -26 40 -51 40 -56 0 -24 -23
-49 -67 -74 -27 -16 -125 -77 -219 -137 -95 -59 -181 -108 -193 -108 -13 0
-26 10 -33 25 -10 22 -4 40 50 153 33 70 67 154 76 187 16 67 138 687 371
1900 86 446 160 823 166 840 25 75 62 95 86 45z m-477 -458 l23 -18 -21 -65
c-63 -190 -96 -353 -432 -2137 -72 -382 -137 -706 -145 -722 -19 -37 -41 -44
-64 -19 -14 15 -89 300 -266 1012 -136 546 -253 1006 -260 1023 -7 17 -33 54
-59 83 -62 70 -62 99 -1 143 70 51 326 204 363 216 48 17 65 6 59 -37 -2 -20
-10 -81 -17 -136 l-13 -100 47 -205 c98 -435 173 -732 189 -747 14 -14 17 -13
32 17 20 40 37 134 126 725 42 282 69 486 66 509 -3 22 -22 72 -41 110 -45 88
-45 108 -3 142 30 23 337 204 370 218 20 8 24 7 47 -12z m4358 -766 c30 -16
90 -77 114 -116 58 -96 69 -265 25 -405 -13 -44 -111 -293 -216 -553 -105
-259 -209 -525 -230 -590 -55 -161 -63 -257 -59 -732 l3 -385 39 -72 c63 -118
62 -120 -228 -302 -130 -82 -176 -97 -204 -69 -19 19 -15 44 28 152 l41 101
-3 520 -3 520 -37 105 c-40 118 -305 663 -344 709 -13 16 -54 48 -89 70 -72
46 -81 67 -41 104 34 31 383 239 410 244 38 8 50 -19 38 -82 -12 -60 -3 -172
23 -280 8 -33 57 -143 107 -245 107 -213 118 -223 163 -146 53 90 307 811 335
950 22 110 -6 216 -80 301 -28 31 -50 64 -50 73 0 20 88 103 132 125 41 20 91
21 126 3z m-5830 -153 c7 -13 0 -48 -24 -120 -22 -66 -37 -137 -43 -200 -11
-116 -26 -1961 -16 -1992 10 -31 55 -27 100 9 128 102 256 342 320 601 26 107
48 157 72 166 8 3 19 0 24 -8 11 -17 11 -572 0 -647 -4 -29 -17 -65 -28 -80
-11 -15 -69 -58 -129 -97 -207 -132 -665 -405 -679 -405 -8 0 -22 11 -31 25
-16 24 -16 106 -6 1138 10 1090 10 1113 -9 1156 -11 25 -36 64 -55 88 -37 46
-46 82 -24 107 15 19 361 228 421 256 55 25 95 26 107 3z m-1163 -365 c8 -18
33 -114 55 -213 134 -591 473 -1961 524 -2117 53 -165 47 -176 -178 -307 -139
-80 -171 -92 -194 -69 -16 16 -15 81 3 148 24 91 19 147 -25 271 -41 118 -54
139 -86 141 -25 2 -321 -178 -334 -202 -9 -17 -60 -367 -60 -412 0 -23 44 -73
107 -119 58 -43 66 -68 31 -94 -48 -35 -513 -315 -523 -315 -40 0 -46 69 -11
138 29 59 63 156 81 236 18 80 113 601 335 1841 99 556 185 1024 192 1040 14
38 37 65 55 65 7 0 20 -15 28 -32z m5552 -624 c3 -9 -2 -100 -11 -202 -15
-164 -17 -309 -14 -1187 l3 -1000 28 -47 c15 -26 27 -55 27 -65 0 -23 -42 -64
-90 -88 -19 -10 -94 -53 -167 -97 -72 -43 -140 -78 -150 -78 -52 0 -57 66 -10
159 l32 66 2 680 c1 575 0 675 -12 650 -7 -16 -54 -183 -105 -370 -50 -187
-100 -370 -110 -406 -21 -69 -49 -105 -74 -96 -8 3 -78 117 -155 253 -86 152
-143 242 -146 233 -3 -9 -4 -303 -3 -655 3 -698 -1 -654 64 -727 42 -46 44
-80 5 -115 -27 -26 -265 -168 -379 -227 -45 -23 -57 -26 -78 -17 -32 15 -30
36 11 124 68 142 66 107 58 1165 -7 1059 -5 1028 -71 1068 -147 89 -150 108
-32 186 96 64 260 159 273 159 24 0 78 -80 232 -338 93 -156 176 -287 186
-293 22 -11 45 -3 54 19 4 9 67 248 141 530 73 282 138 521 144 532 16 31 113
99 214 152 98 51 123 57 133 32z m-6882 -150 c115 -43 191 -56 290 -51 76 3
100 9 152 36 105 52 114 41 79 -92 -45 -165 -69 -316 -70 -432 -1 -102 2 -118
37 -222 37 -114 42 -138 31 -167 -10 -25 -28 -19 -80 27 -27 23 -83 69 -124
101 -132 103 -156 143 -119 203 18 29 21 44 16 97 -14 154 -96 245 -237 264
-159 22 -298 -37 -368 -157 -25 -42 -27 -55 -27 -151 1 -127 17 -173 105 -307
79 -120 203 -243 331 -328 273 -182 448 -452 504 -779 73 -424 -148 -869 -498
-1001 -231 -86 -559 -25 -732 137 -113 105 -163 242 -153 421 7 121 35 195
101 264 67 71 140 105 239 111 74 4 80 3 163 -38 141 -68 206 -149 173 -217
-16 -33 -57 -42 -90 -19 -30 21 -74 20 -124 -3 -53 -24 -74 -55 -74 -109 0
-83 68 -169 175 -219 50 -23 73 -28 140 -28 72 0 86 3 142 34 217 117 281 371
159 623 -71 145 -189 278 -485 548 -208 189 -323 373 -387 620 -75 287 -26
510 150 685 125 124 243 173 421 174 73 0 103 -4 160 -25z m5013 -1109 c193
-46 345 -196 398 -395 23 -87 24 -335 1 -435 -42 -189 -110 -306 -275 -477
-60 -62 -116 -124 -125 -138 -37 -55 -22 -97 158 -439 141 -269 228 -415 283
-473 92 -99 233 -133 364 -87 179 62 169 -70 -17 -218 -114 -91 -238 -129
-331 -103 -119 34 -311 201 -395 346 -26 43 -88 171 -139 284 -224 498 -225
500 -256 500 -31 0 -34 -42 -34 -436 l0 -396 35 -48 c19 -26 35 -54 35 -62 0
-32 -114 -116 -281 -207 -82 -44 -109 -50 -130 -25 -10 12 -10 27 -1 73 19 90
17 2200 -2 2245 -11 26 -25 38 -70 56 -66 26 -84 51 -63 83 15 22 456 295 525
324 99 43 214 53 320 28z m-1534 -277 c8 -13 24 -64 35 -113 11 -50 59 -253
106 -450 121 -505 274 -1156 340 -1447 76 -334 123 -464 195 -540 40 -42 38
-70 -9 -121 -41 -44 -333 -227 -363 -227 -9 0 -20 6 -25 13 -4 6 -9 84 -9 172
-2 130 -7 182 -27 277 -25 112 -46 170 -67 183 -13 8 -448 -262 -464 -289 -8
-12 -30 -126 -51 -253 -43 -268 -45 -253 50 -323 63 -46 78 -81 49 -110 -11
-11 -131 -90 -269 -176 -330 -207 -301 -191 -322 -178 -35 21 -26 59 45 202
48 96 76 165 90 228 24 101 196 973 432 2184 88 454 165 848 170 875 12 59 43
115 65 115 8 0 21 -10 29 -22z"/>
<path d="M9964 10496 c-84 -37 -184 -209 -229 -396 -45 -188 -82 -699 -65
-900 38 -436 125 -757 216 -799 147 -67 257 195 331 789 26 209 26 755 0 920
-26 163 -45 236 -81 304 -45 88 -99 113 -172 82z"/>
<path d="M7230 8005 c0 -2 -23 -127 -50 -277 -50 -272 -62 -379 -47 -395 12
-11 133 55 179 98 30 28 38 43 38 70 0 39 -84 481 -94 498 -7 11 -26 16 -26 6z"/>
<path d="M4131 6233 c-14 -54 -101 -604 -101 -640 0 -16 6 -37 13 -48 19 -25
48 -16 139 44 113 73 112 64 43 383 -31 145 -58 271 -61 281 -9 28 -23 20 -33
-20z"/>
<path d="M7605 5331 c-50 -13 -95 -41 -107 -65 -7 -17 -8 -165 -2 -499 8 -446
10 -476 28 -496 41 -46 110 -17 216 89 126 125 197 298 219 533 21 221 -37
370 -166 423 -42 18 -147 26 -188 15z"/>
<path d="M6301 4099 c-14 -36 -151 -816 -154 -879 -2 -53 -1 -55 22 -52 31 3
224 117 267 157 61 57 60 64 -28 441 -44 186 -84 343 -88 348 -5 5 -13 -1 -19
-15z"/>
</g>
</svg>
