<?xml version="1.0" encoding="utf-8"?>
<!-- Generator: Adobe Illustrator 19.1.0, SVG Export Plug-In . SVG Version: 6.00 Build 0)  -->
<!DOCTYPE svg PUBLIC "-//W3C//DTD SVG 1.1//EN" "http://www.w3.org/Graphics/SVG/1.1/DTD/svg11.dtd">
<svg version="1.1" id="Layer_1" xmlns="http://www.w3.org/2000/svg" xmlns:xlink="http://www.w3.org/1999/xlink" x="0px" y="0px"
	 viewBox="-64 -14 119.1 68" style="enable-background:new -64 -14 119.1 68;" xml:space="preserve">
<style type="text/css">
	.st0{fill:#FFFFFF;}
	.st1{fill:#EF3E42;}
	.st2{fill:#828385;}
</style>
<path class="st0" d="M8.2,22.1c-2.1,1.3-3.9,2-5.4,2.6c-0.6,0.2-1.1,0.4-1.6,0.7c-2.6,1.2-4.4,2.3-5.3,3.4c-0.2,0.2-0.4,0.3-0.5,0.3
	c-0.2,0-0.4-0.1-0.5-0.2c-0.2-0.3-2.6-2.5-5.1-3.4c-1-0.4-6.2-2.4-7.6-3.7c-0.2-0.2-0.5-0.4-0.7-0.6c-1.6-1.3-3-2.6-2.9-7.7
	c0.1-2.6,0.8-6.8,1.2-8.9c0.5-2.3,1-5.6,0.8-7.9c-0.1-0.9-0.2-2.5-0.4-3.1s-0.3-1.1-0.4-1.4c-0.1-0.2-0.1-0.3-0.1-0.4
	c0-0.1,0-0.5,0.1-0.7c0.1-0.1,0.2-0.2,0.4-0.2c0.1,0,0.1,0,0.2,0c0.1,0,0.3,0.1,0.5,0.2c1.2,0.4,3.9,1.4,6.5,1.4
	c0.6,0,1.2-0.1,1.7-0.2C-7.7-8.3-6.5-9-5-10.5c0.3-0.2,0.4-0.3,0.6-0.3s0.4,0.1,0.6,0.3c1.9,1.7,3.7,2.7,7.3,3c0.2,0,0.5,0,0.7,0
	c2.4,0,4.9-0.8,6.2-1.5c0.2-0.1,0.3-0.1,0.5-0.1s0.3,0.1,0.4,0.2c0.1,0.1,0.1,0.3,0.1,0.5c-0.1,0.3-0.1,0.5-0.2,0.9
	s-0.3,0.9-0.4,1.6c-0.4,1.9-0.4,5-0.3,6.6c0.1,0.7,0.3,2,0.5,3.5c0.5,3.2,1.1,7.5,1.1,9.5C12.1,17.9,11,20.4,8.2,22.1z M11.1,9.2
	C10.7,7.2,10,1.4,9.8-1c-0.3-3.2,0.6-6.6,0.8-7c0.2-0.4,0-0.6-0.8-0.1C9.3-7.8,5.7-6.8,3.7-6.9C2.1-7-0.2-7.6-1-7.9
	s-2.1-1.2-2.7-1.8c-0.6-0.6-0.9-0.5-1.5,0c-0.3,0.2-1,0.9-2.7,1.7c-1.7,0.9-4.3,1-5.9,1c-1.4,0-5.2-1.2-5.5-1.3s-0.7-0.3-0.3,0.6
	c1.4,3.1,0.6,8.2,0.2,10.5c-0.3,2-1.3,7.3-1.4,9.9c-0.2,3.9,0.8,6.4,2.6,7.9c2.4,2,4.6,3,6.4,3.6c2.2,0.8,5,2.2,6.5,3.6
	c0.4,0.4,0.5,0.5,1.2-0.2c1.9-1.9,7.5-3.9,9.3-4.7c1.9-0.8,3.8-2.2,4.8-3.8C11.5,17,11.9,13.4,11.1,9.2z"/>
<path class="st1" d="M11.3,4L11.3,4c-0.2-1.5-0.4-2.8-0.5-3.5C10.6-1.1,10.6-4.1,11-6c0.1-0.6,0.3-1.1,0.4-1.5
	c0.1-0.3,0.2-0.6,0.2-0.9c0.1-0.3,0-0.5-0.1-0.7c-0.2-0.2-0.4-0.3-0.7-0.3c-0.2,0-0.4,0.1-0.6,0.2C8.9-8.5,6.4-7.8,4.1-7.8
	c-0.2,0-0.5,0-0.7,0C0-8-1.9-9.1-3.7-10.7C-4-11-4.2-11.1-4.5-11.1s-0.6,0.2-0.8,0.4C-6.8-9.3-8-8.6-11.1-8
	c-0.5,0.1-1.1,0.1-1.6,0.1c-2.6,0-5.2-1-6.4-1.4c-0.2-0.1-0.4-0.1-0.5-0.2c-0.1,0-0.2,0-0.3,0c-0.3,0-0.5,0.1-0.6,0.3
	c-0.2,0.3-0.3,0.7-0.2,0.9c0,0.1,0.1,0.2,0.1,0.4l0,0c0.1,0.3,0.3,0.8,0.4,1.4c0.1,0.4,0.3,1.5,0.4,3c0.2,2.3-0.3,5.5-0.8,7.9
	c-0.4,2.1-1.1,6.3-1.2,9c-0.2,5.2,1.3,6.5,3,7.9c0.2,0.2,0.5,0.4,0.7,0.6c1.4,1.3,6.2,3.2,7.6,3.8c2.4,0.9,4.8,3.1,5,3.4
	c0.2,0.2,0.4,0.3,0.7,0.3S-4.2,29.3-4,29c0.8-1.1,2.6-2.2,5.2-3.4c0.5-0.2,1.1-0.4,1.6-0.7c1.5-0.6,3.3-1.3,5.4-2.6
	c2.9-1.8,4.1-4.4,4.1-8.8C12.4,11.5,11.8,7.2,11.3,4z M8.2,22.1c-2.1,1.3-3.9,2-5.4,2.6c-0.6,0.2-1.1,0.4-1.6,0.7
	c-2.6,1.2-4.4,2.3-5.3,3.4c-0.2,0.2-0.4,0.3-0.5,0.3c-0.2,0-0.4-0.1-0.5-0.2c-0.2-0.3-2.6-2.5-5.1-3.4c-1-0.4-6.2-2.4-7.6-3.7
	c-0.2-0.2-0.5-0.4-0.7-0.6c-1.6-1.3-3-2.6-2.9-7.7c0.1-2.6,0.8-6.8,1.2-8.9c0.5-2.3,1-5.6,0.8-7.9c-0.1-0.9-0.2-2.5-0.4-3.1
	s-0.3-1.1-0.4-1.4c-0.1-0.2-0.1-0.3-0.1-0.4c0-0.1,0-0.5,0.1-0.7c0.1-0.1,0.2-0.2,0.4-0.2c0.1,0,0.1,0,0.2,0c0.1,0,0.3,0.1,0.5,0.2
	c1.2,0.4,3.9,1.4,6.5,1.4c0.6,0,1.2-0.1,1.7-0.2C-7.7-8.3-6.5-9-5-10.5c0.3-0.2,0.4-0.3,0.6-0.3s0.4,0.1,0.6,0.3
	c1.9,1.7,3.7,2.7,7.3,3c0.2,0,0.5,0,0.7,0c2.4,0,4.9-0.8,6.2-1.5c0.2-0.1,0.3-0.1,0.5-0.1s0.3,0.1,0.4,0.2c0.1,0.1,0.1,0.3,0.1,0.5
	c-0.1,0.3-0.1,0.5-0.2,0.9s-0.3,0.9-0.4,1.6c-0.4,1.9-0.4,5-0.3,6.6c0.1,0.7,0.3,2,0.5,3.5c0.5,3.2,1.1,7.5,1.1,9.5
	C12.1,17.9,11,20.4,8.2,22.1z M11.1,9.2C10.7,7.2,10,1.4,9.8-1c-0.3-3.2,0.6-6.6,0.8-7c0.2-0.4,0-0.6-0.8-0.1
	C9.3-7.8,5.7-6.8,3.7-6.9C2.1-7-0.2-7.6-1-7.9s-2.1-1.2-2.7-1.8c-0.6-0.6-0.9-0.5-1.5,0c-0.3,0.2-1,0.9-2.7,1.7
	c-1.7,0.9-4.3,1-5.9,1c-1.4,0-5.2-1.2-5.5-1.3s-0.7-0.3-0.3,0.6c1.4,3.1,0.6,8.2,0.2,10.5c-0.3,2-1.3,7.3-1.4,9.9
	c-0.2,3.9,0.8,6.4,2.6,7.9c2.4,2,4.6,3,6.4,3.6c2.2,0.8,5,2.2,6.5,3.6c0.4,0.4,0.5,0.5,1.2-0.2c1.9-1.9,7.5-3.9,9.3-4.7
	c1.9-0.8,3.8-2.2,4.8-3.8C11.5,17,11.9,13.4,11.1,9.2z"/>
<g>
	<g>
		<path class="st0" d="M-14.4-1.7l2.6-1.6c0,0,0.3-0.2,0.3,0.1s0,1.9,0,1.9s-0.1,0.4-0.2,0c-0.2-0.4-0.2-0.7-0.5-0.8
			c-0.2-0.1-0.3,0-0.3,0.2s0,5,0,5.2s0,0.5,0.2,0.7c0.1,0.2,0.4,0.3,0.1,0.4c-0.3,0.2-1.1,0.7-1.1,0.7s-0.4,0.2-0.3-0.1
			c0.1-0.2,0.2-0.3,0.2-0.6c0-0.3,0-5.3,0-5.5c0-0.3-0.1-0.5-0.3-0.3c-0.2,0.1-0.4,1-0.6,2c-0.1,0.2-0.3,0.5-0.3,0.1
			c0-0.3,0-1.4,0-1.8C-14.6-1.6-14.5-1.6-14.4-1.7z"/>
		<path class="st0" d="M-10.5-3c0,0,0.8-0.5,1-0.6s0.2-0.1,0.2,0.2c-0.1,0.2-0.1,0.5-0.1,0.6c0,0.2,0,1.7,0,1.7l1.3-0.8
			c0,0,0-1.2,0-1.4s-0.1-0.5-0.2-0.6C-8.4-4-8.4-4.1-8.2-4.2C-8-4.3-7.5-4.6-7.3-4.8C-7.2-5-7.1-5-7.2-4.7c-0.1,0.2,0,0.5-0.1,0.7
			c0,0.2,0,4.5,0,4.6c0,0.2,0,0.3,0.2,0.5C-7,1.2-6.9,1.4-7.2,1.5C-7.4,1.6-7.8,1.9-8,2c-0.1,0.1-0.3,0.1-0.2-0.2s0.1-0.6,0.1-0.9
			c0-0.4,0-1.6,0-1.8c0-0.3,0.1-0.3-0.2-0.2c-0.1,0.1-0.8,0.5-1,0.6c-0.1,0.1-0.1,0.1-0.1,0.2c0,0.2,0,2.3,0,2.4
			c0,0.2,0.1,0.3,0.2,0.3C-9.1,2.5-9,2.6-9.3,2.7c-0.2,0.1-0.8,0.5-0.9,0.6c-0.1,0.1-0.2-0.1-0.2-0.2c0.1-0.2,0.1-0.3,0.1-0.7
			c0-0.4,0-4.4,0-4.6s-0.2-0.4-0.3-0.5C-10.6-2.8-10.7-2.8-10.5-3z"/>
		<path class="st0" d="M-6.2-5.7C-5.6-6-3.9-7-3.6-7.3c0.2-0.1,0.3-0.2,0.3,0.1c0,0.3,0,0.7,0,0.8c0,0.1-0.2,0.2-0.2,0.1
			c-0.1-0.1-0.4-0.1-0.6-0.1c-0.2,0.1-0.6,0.3-0.7,0.3c0,0.2,0,1.9,0,2c0.3-0.1,0.6-0.3,1-0.3C-3.4-4.5-2.7-4.9-2.6-5
			c0.1-0.2,0.3-0.2,0.2,0.2s-0.4,1.1-1.3,1.1c-0.8,0-0.9,0.1-1,0.3c-0.1,0.1-0.2,0.2-0.2,0.3s0,2.3,0,2.4c0,0.1,0.1,0.1,0.2,0
			C-4.6-0.8-3.5-1.5-3-2.5c0.2-0.4,0.3-0.3,0.3-0.1s-0.1,0.9-0.1,1c0,0.2-0.1,0.3-0.5,0.6c-0.3,0.2-2.2,1.3-2.4,1.4
			c-0.2,0.1-0.3,0-0.2-0.2S-5.8,0-5.8-0.1c0-0.2,0-4.7,0-4.9c0-0.2-0.1-0.4-0.3-0.5C-6.2-5.4-6.3-5.6-6.2-5.7z"/>
		<path class="st0" d="M-18.8,11.4c0-0.7,0.6-1.4,1.4-1.6c0.6-0.1,0.8,0.1,1.1,0.2s0.7,0.1,0.9,0s0.4-0.3,0.3,0.1
			c-0.1,0.4-0.3,1.3-0.2,1.7c0.1,0.4,0.2,0.5,0.2,0.7s-0.2,0-0.3-0.1s-0.3-0.3-0.5-0.4c-0.1,0-0.3-0.2-0.1-0.3c0.1-0.1,0-0.8-0.3-1
			c-0.5-0.3-1.4-0.1-1.5,0.7c-0.1,0.8,1,1.8,1.2,1.9c1,0.5,1.7,1.8,1.5,3.2c-0.1,1-0.9,2.1-2.1,2.1c-1.2,0-1.9-0.6-1.9-1.7
			c0.1-1.1,1-1.1,1.2-1.1c0.2,0.1,0.9,0.4,0.7,0.8c-0.1,0.2-0.3-0.1-0.3-0.1s-0.6,0-0.5,0.5s0.6,0.6,0.8,0.7
			c0.5,0.1,1.2-0.5,1.1-1.4c-0.1-0.9-1-1.6-1.7-2.2C-18.3,13.5-18.9,12.5-18.8,11.4z"/>
		<path class="st0" d="M-14.8,16.9c0.1-0.1,0.2-0.4,0.3-0.7c0.1-0.3,1.4-7.8,1.5-8.2c0.1-0.4,0.2-0.5,0.3-0.1s1.5,6.5,1.7,6.7
			c0.1,0.2,0,0.4-0.1,0.5c-0.2,0.1-0.5,0.3-0.8,0.5s-0.2-0.3-0.2-0.4S-12,15-12,14.8c0-0.1-0.1-0.5-0.2-0.7
			c-0.1-0.2-0.2-0.2-0.2-0.2s-0.7,0.4-0.8,0.5s-0.1,0.1-0.2,0.2c0,0.1-0.1,0.9-0.1,1.1c0,0.1,0.2,0.3,0.4,0.4c0.1,0.1,0.2,0.2,0,0.3
			c-0.1,0.1-1.2,0.7-1.4,0.8C-14.8,17.3-14.9,17-14.8,16.9z M-13.1,13.4c0.1,0,0.3-0.2,0.5-0.3c0.1-0.1,0.1-0.3,0.1-0.3
			s-0.3-1.2-0.3-1.4c-0.1-0.3-0.2-0.1-0.2,0.1s-0.2,1.5-0.3,1.6C-13.3,13.3-13.2,13.4-13.1,13.4z"/>
		<path class="st0" d="M-10.8,7.3c0.2-0.1,1-0.6,1.2-0.7s0.4-0.1,0.2,0.2c-0.1,0.3-0.2,0.7-0.2,0.8c0,0.2-0.1,5.5-0.1,5.5
			s0,0.4,0.3,0.1c0.6-0.5,0.9-1.5,0.9-1.8c0.1-0.3,0.3-0.6,0.3-0.2s0,1.6,0,1.8c0,0.1-0.1,0.2-0.2,0.3c-0.5,0.3-1.5,0.9-2.1,1.3
			c-0.1,0.1-0.2,0-0.2-0.2s0.1-6.1,0.1-6.3s-0.2-0.4-0.2-0.5C-10.9,7.6-11.1,7.5-10.8,7.3z"/>
		<path class="st0" d="M-8.7,6c0.1-0.1,0.8-0.5,1-0.6c0.1-0.1,0.3-0.1,0.2,0.2c-0.1,0.3-0.1,0.6-0.1,0.7C-7.6,6.5-7,8.7-7,8.9
			C-6.9,9-6.9,9-6.8,8.8c0.1-0.2,0.5-3.1,0.5-3.3c0-0.2-0.1-0.5-0.1-0.6c-0.1-0.1-0.2-0.2,0-0.3c0.2-0.1,0.9-0.5,1-0.6
			s0.3,0,0.2,0.2s-0.3,1-0.3,1.2c-0.1,0.2-1.3,6.7-1.3,6.9c-0.1,0.2-0.2,0.4-0.3,0S-8.4,7-8.5,6.7c-0.1-0.3-0.2-0.3-0.3-0.4
			C-8.8,6.3-8.9,6.2-8.7,6z"/>
		<path class="st0" d="M-4.3,7.8c0-0.2,0.2-1.3,0.3-1.4c0-0.2,0.1-0.3,0.2-0.1c0,0.2,0.2,1.3,0.2,1.3s0,0.2-0.1,0.3
			C-3.8,8-4.1,8.1-4.2,8.2C-4.4,8.2-4.4,8.1-4.3,7.8z M-5.7,11.7c0.2-0.1,1-0.7,1.2-0.7c0.1,0,0.1-0.2,0-0.3
			c-0.1-0.1-0.2-0.3-0.2-0.4s0.1-0.8,0.1-1c0-0.1,0.1-0.2,0.2-0.3c0.1-0.1,0.8-0.5,0.8-0.5s0.1-0.1,0.2,0.1c0.1,0.2,0.1,0.6,0.2,0.7
			c0,0.1,0,0.3,0,0.4s-0.1,0.6,0.1,0.4c0.3-0.2,0.8-0.5,0.9-0.6c0.1-0.1,0.2-0.1,0-0.3c-0.1-0.1-0.2-0.3-0.2-0.5
			c-0.1-0.2-1.3-5.6-1.3-5.9C-3.8,2.4-3.9,2.5-4,2.9s-1.4,7.4-1.5,7.8c-0.1,0.3-0.3,0.7-0.4,0.8C-6,11.6-5.9,11.8-5.7,11.7z"/>
		<path class="st0" d="M-7.2,19.8c0-0.2,0.4-2,0.4-2.2s0.1-0.3,0.2,0c0,0.2,0.4,1.8,0.4,1.8s0,0.2-0.2,0.3c-0.1,0.1-0.6,0.4-0.7,0.4
			C-7.2,20.3-7.2,20.1-7.2,19.8z M-8.8,24.2c0.2-0.1,1.3-0.8,1.5-0.9c0.2-0.1,0.1-0.2,0-0.3s-0.3-0.2-0.3-0.4s0.2-1.1,0.2-1.2
			c0-0.1,0.1-0.1,0.2-0.2c0.1-0.1,1.2-0.7,1.2-0.7s0.1,0,0.2,0.2c0.1,0.3,0.1,0.5,0.1,0.7c0,0.1,0,0.4,0,0.5s-0.1,0.6,0.2,0.4
			c0.3-0.2,0.7-0.4,0.8-0.5s0.3-0.3,0.1-0.4c-0.1-0.1-0.3-0.5-0.5-1.1c-0.4-2-1.4-5.8-1.4-6.1c-0.1-0.4-0.3-0.3-0.3,0.1
			c-0.1,0.4-1.7,8.6-1.8,8.9C-8.7,23.5-9,24-9,24.1C-9.1,24.1-9,24.4-8.8,24.2z"/>
		<path class="st0" d="M-2.5,2.3c0.2-0.1,2.2-1.4,2.4-1.5c0.2-0.1,0.3,0,0.3,0.2s0.1,1.4,0.1,1.5S0.1,2.8,0.1,2.6
			C0,2.4-0.1,2.1-0.2,2s-0.3-0.1-0.4,0c-0.1,0.1-0.1,0.1-0.1,0.2c0,0.2,0,5,0,5.2c0,0.3,0.1,0.6,0.2,0.7c0.1,0.1,0.2,0.2,0,0.4
			C-0.7,8.7-1.3,9-1.4,9c-0.1,0.1-0.2,0.1-0.2-0.2c0.1-0.2,0.1-0.4,0.1-0.7c0-0.2,0-5.2,0-5.4s-0.1-0.4-0.2-0.3
			c-0.2,0.1-0.5,0.7-0.6,1.2c0,0.2-0.2,0.3-0.2,0.1c0-0.3,0-1,0-1.3C-2.7,2.4-2.7,2.4-2.5,2.3z"/>
		<path class="st0" d="M0.7,0.3c0.1-0.1,0.8-0.5,1-0.6s0.2-0.1,0.2,0.2C1.8,0.1,1.8,0.4,1.8,0.5s0,5.6,0,5.8c0,0.2,0.1,0.4,0.1,0.5
			s0.1,0.3,0,0.4s-1,0.6-1.1,0.7s-0.2,0-0.1-0.2S0.9,7.2,0.9,7s0-5.2,0-5.5S0.7,0.9,0.6,0.7C0.4,0.5,0.6,0.4,0.7,0.3z"/>
		<path class="st0" d="M2.2,2.6c0-0.6,0-3.8,1.7-4.3c0.8-0.2,1.3,0.9,1.4,1.4C5.5,1,5.7,3.4,4.7,5.3C4.1,6.4,2.8,5.8,2.5,4.8
			C2.2,3.9,2.2,3.4,2.2,2.6z M3.4,4.8c0.2,0.5,0.5,0.4,0.8,0c0.1-0.2,0.3-0.9,0.5-2c0.2-1.7,0-3-0.2-3.4C4.3-1.2,3.8-1,3.6-0.6
			c-0.5,0.8-0.5,1.7-0.5,3C3,2.7,3.1,4.1,3.4,4.8z"/>
		<path class="st0" d="M5.7-2.7C5.9-2.8,6-2.9,6.2-3s0.3-0.2,0.6,0.3C7-2.2,7.5-1.1,7.6-0.9c0.1,0.3,0.2,0.2,0.2,0
			c0-0.5,0-2.6,0-2.9c0-0.3-0.1-0.5-0.2-0.6C7.5-4.6,7.3-4.7,7.5-4.9C7.7-5,8.8-5.5,8.6-3.4c-0.1,0.8,0,6.5,0,6.6
			c0,0.2,0.1,0.3-0.1,0.3S8.2,3.4,8.1,3.2C8,3,6.7-0.1,6.7-0.1S6.5-0.4,6.5,0.1s0,2.9,0,3.2c0,0.3,0.1,0.4,0.2,0.5s0.2,0.3,0,0.4
			S6.1,4.6,5.9,4.7c-0.2,0.1-0.3,0-0.2-0.3c0.1-0.3,0.2-0.6,0.2-0.9s0-4.7,0-5S5.8-2.1,5.7-2.1C5.5-2.4,5.5-2.5,5.7-2.7z"/>
		<path class="st0" d="M-4.4,14c0.4-0.2,0.9-0.6,1.2-0.7c0.9-0.6,2.2,0,2.3,1.2c0.1,1.6-0.6,2.1-1,2.5c-0.2,0.2-0.3,0.4-0.2,0.5
			c0.1,0.2,1,2,1.3,2.4c0.3,0.3,0.8,0.4,1.1,0.2c0.3-0.1,0.5,0,0.3,0.3s-0.9,0.9-1.5,0.6c-0.6-0.4-0.9-0.8-1.1-1.2
			c-0.2-0.5-0.7-1.6-0.8-1.8s-0.3-0.4-0.3,0c0,0.4,0,1.9,0,2.1c0,0.2,0,0.1,0.1,0.2c0.1,0.1,0.2,0.2-0.1,0.4s-0.6,0.4-0.8,0.5
			s-0.3,0-0.2-0.2s0-0.4,0-0.6c0-0.3,0-5.4,0-5.6s0-0.4-0.1-0.4C-4.4,14.4-4.8,14.3-4.4,14z M-2.8,17c0.6-0.4,0.9-1.1,0.9-1.8
			c0.2-1.5-0.9-1.3-1.1-1.3C-3.2,14-3.3,14-3.3,14.2c0,0.3,0,2.5,0,2.5C-3.3,17.1-3,17.1-2.8,17z"/>
		<path class="st0" d="M-0.9,11.9c0.2-0.1,0.7-0.4,0.8-0.5c0.2-0.1,0.2,0,0.3,0.1c0.1,0.2,0.9,1.5,0.9,1.6c0.1,0.1,0.2,0.2,0.3-0.1
			c0.1-0.3,0.7-2.8,0.8-2.9c0.1-0.2,0.2-0.2,0.3-0.3C2.6,9.7,2.9,9.6,3,9.5c0.2-0.1,0.2,0,0.2,0.1c0,0.2-0.1,0.7-0.1,0.9
			c0,0.2,0,5.5,0,5.7c0,0.2,0.1,0.4,0.1,0.4c0.1,0.1,0.1,0.2-0.1,0.3c-0.2,0.1-0.7,0.4-0.9,0.5c-0.2,0.1-0.3,0-0.2-0.3
			c0.1-0.2,0.1-0.2,0.2-0.5c0-0.3,0-3.4,0-3.6s0-0.4-0.1,0s-0.6,2.2-0.6,2.3c-0.1,0.1-0.1,0.2-0.2,0S0.6,14.1,0.6,14
			c0-0.1-0.1,0-0.1,0.1s0,3.3,0,3.4c0,0.2,0.1,0.4,0.1,0.4c0.1,0.1,0.3,0.2,0,0.4s-1,0.6-1.1,0.6c-0.2,0.1-0.3,0-0.2-0.2
			c0.2-0.3,0.2-0.5,0.2-0.8c0-0.7,0-4.4,0-5.2c0-0.3-0.1-0.5-0.2-0.5C-0.8,12.2-1.1,12.1-0.9,11.9z"/>
		<path class="st0" d="M4,8.9c0.2-0.1,0.9-0.5,1-0.6c0.2-0.1,0.2,0,0.2,0.2c-0.1,0.2,0,0.7,0.1,0.9c0.1,0.2,0.4,0.9,0.5,1
			s0.1,0.3,0.3,0C6.3,10.1,7,8,7,7.7C7.1,7.4,7,7,6.8,6.9C6.7,6.8,6.5,6.6,6.7,6.4C7,6.2,7.1,6.1,7.4,6.3C7.9,6.7,7.9,7.4,7.6,8
			c-0.2,0.5-1.1,2.8-1.2,3.2c-0.1,0.4-0.1,0.5-0.1,0.8s0,1.5,0,1.9s0.1,0.5,0.2,0.6c0.1,0.2,0.1,0.3,0,0.4c-0.2,0.2-0.8,0.5-0.9,0.6
			c-0.2,0.1-0.4,0.1-0.2-0.3c0.2-0.4,0.2-0.4,0.2-0.7c0-0.3,0-2.2,0-2.5s-0.2-0.9-0.4-1.2c-0.1-0.3-0.5-1.1-0.6-1.3
			C4.5,9.3,4.3,9.2,4.2,9.1C3.8,9.1,3.8,9,4,8.9z"/>
	</g>
</g>
<path class="st0" d="M-14.4-1.7l2.6-1.6c0,0,0.3-0.2,0.3,0.1s0,1.9,0,1.9s-0.1,0.4-0.2,0c-0.2-0.4-0.2-0.7-0.5-0.8
	c-0.2-0.1-0.3,0-0.3,0.2s0,5,0,5.2s0,0.5,0.2,0.7c0.1,0.2,0.4,0.3,0.1,0.4c-0.3,0.2-1.1,0.7-1.1,0.7s-0.4,0.2-0.3-0.1
	c0.1-0.2,0.2-0.3,0.2-0.6c0-0.3,0-5.3,0-5.5c0-0.3-0.1-0.5-0.3-0.3c-0.2,0.1-0.4,1-0.6,2c-0.1,0.2-0.3,0.5-0.3,0.1
	c0-0.3,0-1.4,0-1.8C-14.6-1.6-14.5-1.6-14.4-1.7z"/>
<path class="st0" d="M-10.5-3c0,0,0.8-0.5,1-0.6s0.2-0.1,0.2,0.2c-0.1,0.2-0.1,0.5-0.1,0.6c0,0.2,0,1.7,0,1.7l1.3-0.8
	c0,0,0-1.2,0-1.4s-0.1-0.5-0.2-0.6C-8.4-4-8.4-4.1-8.2-4.2C-8-4.3-7.5-4.6-7.3-4.8C-7.2-5-7.1-5-7.2-4.7c-0.1,0.2,0,0.5-0.1,0.7
	c0,0.2,0,4.5,0,4.6c0,0.2,0,0.3,0.2,0.5C-7,1.2-6.9,1.4-7.2,1.5C-7.4,1.6-7.8,1.9-8,2c-0.1,0.1-0.3,0.1-0.2-0.2s0.1-0.6,0.1-0.9
	c0-0.4,0-1.6,0-1.8c0-0.3,0.1-0.3-0.2-0.2c-0.1,0.1-0.8,0.5-1,0.6c-0.1,0.1-0.1,0.1-0.1,0.2c0,0.2,0,2.3,0,2.4
	c0,0.2,0.1,0.3,0.2,0.3C-9.1,2.5-9,2.6-9.3,2.7c-0.2,0.1-0.8,0.5-0.9,0.6c-0.1,0.1-0.2-0.1-0.2-0.2c0.1-0.2,0.1-0.3,0.1-0.7
	c0-0.4,0-4.4,0-4.6s-0.2-0.4-0.3-0.5C-10.6-2.8-10.7-2.8-10.5-3z"/>
<path class="st0" d="M-6.2-5.7C-5.6-6-3.9-7-3.6-7.3c0.2-0.1,0.3-0.2,0.3,0.1c0,0.3,0,0.7,0,0.8c0,0.1-0.2,0.2-0.2,0.1
	c-0.1-0.1-0.4-0.1-0.6-0.1c-0.2,0.1-0.6,0.3-0.7,0.3c0,0.2,0,1.9,0,2c0.3-0.1,0.6-0.3,1-0.3C-3.4-4.5-2.7-4.9-2.6-5
	c0.1-0.2,0.3-0.2,0.2,0.2s-0.4,1.1-1.3,1.1c-0.8,0-0.9,0.1-1,0.3c-0.1,0.1-0.2,0.2-0.2,0.3s0,2.3,0,2.4c0,0.1,0.1,0.1,0.2,0
	C-4.6-0.8-3.5-1.5-3-2.5c0.2-0.4,0.3-0.3,0.3-0.1s-0.1,0.9-0.1,1c0,0.2-0.1,0.3-0.5,0.6c-0.3,0.2-2.2,1.3-2.4,1.4
	c-0.2,0.1-0.3,0-0.2-0.2S-5.8,0-5.8-0.1c0-0.2,0-4.7,0-4.9c0-0.2-0.1-0.4-0.3-0.5C-6.2-5.4-6.3-5.6-6.2-5.7z"/>
<path class="st0" d="M-18.8,11.4c0-0.7,0.6-1.4,1.4-1.6c0.6-0.1,0.8,0.1,1.1,0.2s0.7,0.1,0.9,0s0.4-0.3,0.3,0.1
	c-0.1,0.4-0.3,1.3-0.2,1.7c0.1,0.4,0.2,0.5,0.2,0.7s-0.2,0-0.3-0.1s-0.3-0.3-0.5-0.4c-0.1,0-0.3-0.2-0.1-0.3c0.1-0.1,0-0.8-0.3-1
	c-0.5-0.3-1.4-0.1-1.5,0.7c-0.1,0.8,1,1.8,1.2,1.9c1,0.5,1.7,1.8,1.5,3.2c-0.1,1-0.9,2.1-2.1,2.1c-1.2,0-1.9-0.6-1.9-1.7
	c0.1-1.1,1-1.1,1.2-1.1c0.2,0.1,0.9,0.4,0.7,0.8c-0.1,0.2-0.3-0.1-0.3-0.1s-0.6,0-0.5,0.5s0.6,0.6,0.8,0.7c0.5,0.1,1.2-0.5,1.1-1.4
	c-0.1-0.9-1-1.6-1.7-2.2C-18.3,13.5-18.9,12.5-18.8,11.4z"/>
<path class="st0" d="M-14.8,16.9c0.1-0.1,0.2-0.4,0.3-0.7c0.1-0.3,1.4-7.8,1.5-8.2c0.1-0.4,0.2-0.5,0.3-0.1s1.5,6.5,1.7,6.7
	c0.1,0.2,0,0.4-0.1,0.5c-0.2,0.1-0.5,0.3-0.8,0.5s-0.2-0.3-0.2-0.4S-12,15-12,14.8c0-0.1-0.1-0.5-0.2-0.7c-0.1-0.2-0.2-0.2-0.2-0.2
	s-0.7,0.4-0.8,0.5s-0.1,0.1-0.2,0.2c0,0.1-0.1,0.9-0.1,1.1c0,0.1,0.2,0.3,0.4,0.4c0.1,0.1,0.2,0.2,0,0.3c-0.1,0.1-1.2,0.7-1.4,0.8
	C-14.8,17.3-14.9,17-14.8,16.9z M-13.1,13.4c0.1,0,0.3-0.2,0.5-0.3c0.1-0.1,0.1-0.3,0.1-0.3s-0.3-1.2-0.3-1.4
	c-0.1-0.3-0.2-0.1-0.2,0.1s-0.2,1.5-0.3,1.6C-13.3,13.3-13.2,13.4-13.1,13.4z"/>
<path class="st0" d="M-10.8,7.3c0.2-0.1,1-0.6,1.2-0.7s0.4-0.1,0.2,0.2c-0.1,0.3-0.2,0.7-0.2,0.8c0,0.2-0.1,5.5-0.1,5.5
	s0,0.4,0.3,0.1c0.6-0.5,0.9-1.5,0.9-1.8c0.1-0.3,0.3-0.6,0.3-0.2s0,1.6,0,1.8c0,0.1-0.1,0.2-0.2,0.3c-0.5,0.3-1.5,0.9-2.1,1.3
	c-0.1,0.1-0.2,0-0.2-0.2s0.1-6.1,0.1-6.3s-0.2-0.4-0.2-0.5C-10.9,7.6-11.1,7.5-10.8,7.3z"/>
<path class="st0" d="M-8.7,6c0.1-0.1,0.8-0.5,1-0.6c0.1-0.1,0.3-0.1,0.2,0.2c-0.1,0.3-0.1,0.6-0.1,0.7C-7.6,6.5-7,8.7-7,8.9
	C-6.9,9-6.9,9-6.8,8.8c0.1-0.2,0.5-3.1,0.5-3.3c0-0.2-0.1-0.5-0.1-0.6c-0.1-0.1-0.2-0.2,0-0.3c0.2-0.1,0.9-0.5,1-0.6s0.3,0,0.2,0.2
	s-0.3,1-0.3,1.2c-0.1,0.2-1.3,6.7-1.3,6.9c-0.1,0.2-0.2,0.4-0.3,0S-8.4,7-8.5,6.7c-0.1-0.3-0.2-0.3-0.3-0.4C-8.8,6.3-8.9,6.2-8.7,6z
	"/>
<path class="st0" d="M-4.3,7.8c0-0.2,0.2-1.3,0.3-1.4c0-0.2,0.1-0.3,0.2-0.1c0,0.2,0.2,1.3,0.2,1.3s0,0.2-0.1,0.3
	C-3.8,8-4.1,8.1-4.2,8.2C-4.4,8.2-4.4,8.1-4.3,7.8z M-5.7,11.7c0.2-0.1,1-0.7,1.2-0.7c0.1,0,0.1-0.2,0-0.3c-0.1-0.1-0.2-0.3-0.2-0.4
	s0.1-0.8,0.1-1c0-0.1,0.1-0.2,0.2-0.3c0.1-0.1,0.8-0.5,0.8-0.5s0.1-0.1,0.2,0.1c0.1,0.2,0.1,0.6,0.2,0.7c0,0.1,0,0.3,0,0.4
	s-0.1,0.6,0.1,0.4c0.3-0.2,0.8-0.5,0.9-0.6c0.1-0.1,0.2-0.1,0-0.3c-0.1-0.1-0.2-0.3-0.2-0.5c-0.1-0.2-1.3-5.6-1.3-5.9
	C-3.8,2.4-3.9,2.5-4,2.9s-1.4,7.4-1.5,7.8c-0.1,0.3-0.3,0.7-0.4,0.8C-6,11.6-5.9,11.8-5.7,11.7z"/>
<path class="st0" d="M-7.2,19.8c0-0.2,0.4-2,0.4-2.2s0.1-0.3,0.2,0c0,0.2,0.4,1.8,0.4,1.8s0,0.2-0.2,0.3c-0.1,0.1-0.6,0.4-0.7,0.4
	C-7.2,20.3-7.2,20.1-7.2,19.8z M-8.8,24.2c0.2-0.1,1.3-0.8,1.5-0.9c0.2-0.1,0.1-0.2,0-0.3s-0.3-0.2-0.3-0.4s0.2-1.1,0.2-1.2
	c0-0.1,0.1-0.1,0.2-0.2c0.1-0.1,1.2-0.7,1.2-0.7s0.1,0,0.2,0.2c0.1,0.3,0.1,0.5,0.1,0.7c0,0.1,0,0.4,0,0.5s-0.1,0.6,0.2,0.4
	c0.3-0.2,0.7-0.4,0.8-0.5s0.3-0.3,0.1-0.4c-0.1-0.1-0.3-0.5-0.5-1.1c-0.4-2-1.4-5.8-1.4-6.1c-0.1-0.4-0.3-0.3-0.3,0.1
	c-0.1,0.4-1.7,8.6-1.8,8.9C-8.7,23.5-9,24-9,24.1C-9.1,24.1-9,24.4-8.8,24.2z"/>
<path class="st0" d="M-2.5,2.3c0.2-0.1,2.2-1.4,2.4-1.5c0.2-0.1,0.3,0,0.3,0.2s0.1,1.4,0.1,1.5S0.1,2.8,0.1,2.6C0,2.4-0.1,2.1-0.2,2
	s-0.3-0.1-0.4,0c-0.1,0.1-0.1,0.1-0.1,0.2c0,0.2,0,5,0,5.2c0,0.3,0.1,0.6,0.2,0.7c0.1,0.1,0.2,0.2,0,0.4C-0.7,8.7-1.3,9-1.4,9
	c-0.1,0.1-0.2,0.1-0.2-0.2c0.1-0.2,0.1-0.4,0.1-0.7c0-0.2,0-5.2,0-5.4s-0.1-0.4-0.2-0.3c-0.2,0.1-0.5,0.7-0.6,1.2
	c0,0.2-0.2,0.3-0.2,0.1c0-0.3,0-1,0-1.3C-2.7,2.4-2.7,2.4-2.5,2.3z"/>
<path class="st0" d="M0.7,0.3c0.1-0.1,0.8-0.5,1-0.6s0.2-0.1,0.2,0.2C1.8,0.1,1.8,0.4,1.8,0.5s0,5.6,0,5.8c0,0.2,0.1,0.4,0.1,0.5
	s0.1,0.3,0,0.4s-1,0.6-1.1,0.7s-0.2,0-0.1-0.2S0.9,7.2,0.9,7s0-5.2,0-5.5S0.7,0.9,0.6,0.7C0.4,0.5,0.6,0.4,0.7,0.3z"/>
<path class="st0" d="M2.2,2.6c0-0.6,0-3.8,1.7-4.3c0.8-0.2,1.3,0.9,1.4,1.4C5.5,1,5.7,3.4,4.7,5.3C4.1,6.4,2.8,5.8,2.5,4.8
	C2.2,3.9,2.2,3.4,2.2,2.6z M3.4,4.8c0.2,0.5,0.5,0.4,0.8,0c0.1-0.2,0.3-0.9,0.5-2c0.2-1.7,0-3-0.2-3.4C4.3-1.2,3.8-1,3.6-0.6
	c-0.5,0.8-0.5,1.7-0.5,3C3,2.7,3.1,4.1,3.4,4.8z"/>
<path class="st0" d="M5.7-2.7C5.9-2.8,6-2.9,6.2-3s0.3-0.2,0.6,0.3C7-2.2,7.5-1.1,7.6-0.9c0.1,0.3,0.2,0.2,0.2,0c0-0.5,0-2.6,0-2.9
	c0-0.3-0.1-0.5-0.2-0.6C7.5-4.6,7.3-4.7,7.5-4.9C7.7-5,8.8-5.5,8.6-3.4c-0.1,0.8,0,6.5,0,6.6c0,0.2,0.1,0.3-0.1,0.3S8.2,3.4,8.1,3.2
	C8,3,6.7-0.1,6.7-0.1S6.5-0.4,6.5,0.1s0,2.9,0,3.2c0,0.3,0.1,0.4,0.2,0.5s0.2,0.3,0,0.4S6.1,4.6,5.9,4.7c-0.2,0.1-0.3,0-0.2-0.3
	c0.1-0.3,0.2-0.6,0.2-0.9s0-4.7,0-5S5.8-2.1,5.7-2.1C5.5-2.4,5.5-2.5,5.7-2.7z"/>
<path class="st0" d="M-4.4,14c0.4-0.2,0.9-0.6,1.2-0.7c0.9-0.6,2.2,0,2.3,1.2c0.1,1.6-0.6,2.1-1,2.5c-0.2,0.2-0.3,0.4-0.2,0.5
	c0.1,0.2,1,2,1.3,2.4c0.3,0.3,0.8,0.4,1.1,0.2c0.3-0.1,0.5,0,0.3,0.3s-0.9,0.9-1.5,0.6c-0.6-0.4-0.9-0.8-1.1-1.2
	c-0.2-0.5-0.7-1.6-0.8-1.8s-0.3-0.4-0.3,0c0,0.4,0,1.9,0,2.1c0,0.2,0,0.1,0.1,0.2c0.1,0.1,0.2,0.2-0.1,0.4s-0.6,0.4-0.8,0.5
	s-0.3,0-0.2-0.2s0-0.4,0-0.6c0-0.3,0-5.4,0-5.6s0-0.4-0.1-0.4C-4.4,14.4-4.8,14.3-4.4,14z M-2.8,17c0.6-0.4,0.9-1.1,0.9-1.8
	c0.2-1.5-0.9-1.3-1.1-1.3C-3.2,14-3.3,14-3.3,14.2c0,0.3,0,2.5,0,2.5C-3.3,17.1-3,17.1-2.8,17z"/>
<path class="st0" d="M-0.9,11.9c0.2-0.1,0.7-0.4,0.8-0.5c0.2-0.1,0.2,0,0.3,0.1c0.1,0.2,0.9,1.5,0.9,1.6c0.1,0.1,0.2,0.2,0.3-0.1
	c0.1-0.3,0.7-2.8,0.8-2.9c0.1-0.2,0.2-0.2,0.3-0.3C2.6,9.7,2.9,9.6,3,9.5c0.2-0.1,0.2,0,0.2,0.1c0,0.2-0.1,0.7-0.1,0.9
	c0,0.2,0,5.5,0,5.7c0,0.2,0.1,0.4,0.1,0.4c0.1,0.1,0.1,0.2-0.1,0.3c-0.2,0.1-0.7,0.4-0.9,0.5c-0.2,0.1-0.3,0-0.2-0.3
	c0.1-0.2,0.1-0.2,0.2-0.5c0-0.3,0-3.4,0-3.6s0-0.4-0.1,0s-0.6,2.2-0.6,2.3c-0.1,0.1-0.1,0.2-0.2,0S0.6,14.1,0.6,14
	c0-0.1-0.1,0-0.1,0.1s0,3.3,0,3.4c0,0.2,0.1,0.4,0.1,0.4c0.1,0.1,0.3,0.2,0,0.4s-1,0.6-1.1,0.6c-0.2,0.1-0.3,0-0.2-0.2
	c0.2-0.3,0.2-0.5,0.2-0.8c0-0.7,0-4.4,0-5.2c0-0.3-0.1-0.5-0.2-0.5C-0.8,12.2-1.1,12.1-0.9,11.9z"/>
<path class="st0" d="M4,8.9c0.2-0.1,0.9-0.5,1-0.6c0.2-0.1,0.2,0,0.2,0.2c-0.1,0.2,0,0.7,0.1,0.9c0.1,0.2,0.4,0.9,0.5,1
	s0.1,0.3,0.3,0C6.3,10.1,7,8,7,7.7C7.1,7.4,7,7,6.8,6.9C6.7,6.8,6.5,6.6,6.7,6.4C7,6.2,7.1,6.1,7.4,6.3C7.9,6.7,7.9,7.4,7.6,8
	c-0.2,0.5-1.1,2.8-1.2,3.2c-0.1,0.4-0.1,0.5-0.1,0.8s0,1.5,0,1.9s0.1,0.5,0.2,0.6c0.1,0.2,0.1,0.3,0,0.4c-0.2,0.2-0.8,0.5-0.9,0.6
	c-0.2,0.1-0.4,0.1-0.2-0.3c0.2-0.4,0.2-0.4,0.2-0.7c0-0.3,0-2.2,0-2.5s-0.2-0.9-0.4-1.2c-0.1-0.3-0.5-1.1-0.6-1.3
	C4.5,9.3,4.3,9.2,4.2,9.1C3.8,9.1,3.8,9,4,8.9z"/>
<g>
	<path class="st2" d="M-57.1,36.4h1.7l4.5,11.4h-1.7l-1.3-3.4h-4.8l-1.3,3.4h-1.6L-57.1,36.4z M-58.2,43.1h3.9l-1.9-5.3l0,0
		L-58.2,43.1z"/>
	<path class="st2" d="M-43.1,47.1c0,2.7-1.2,4.1-3.8,4.1c-1.6,0-3.4-0.6-3.4-2.4h1.3c0.1,1,1.2,1.3,2.1,1.3c1.8,0,2.5-1.3,2.5-3.1
		v-0.5l0,0c-0.4,1-1.5,1.5-2.6,1.5c-2.5,0-3.7-1.9-3.7-4.2c0-2,1-4.4,3.8-4.4c1,0,2,0.5,2.5,1.4l0,0v-1.2h1.3V47.1z M-44.5,43.5
		c0-1.5-0.6-3-2.4-3c-1.7,0-2.5,1.4-2.5,3c0,1.5,0.5,3.2,2.3,3.2C-45.2,46.7-44.5,45.1-44.5,43.5z"/>
	<path class="st2" d="M-34.5,45.2c-0.4,1.8-1.7,2.8-3.6,2.8c-2.6,0-3.9-1.8-4-4.4c0-2.5,1.6-4.3,3.9-4.3c2.9,0,3.8,2.7,3.8,4.7h-6.2
		c0,1.4,0.8,2.7,2.6,2.7c1.1,0,1.9-0.5,2.2-1.6L-34.5,45.2L-34.5,45.2z M-35.8,42.9c-0.1-1.3-1-2.3-2.4-2.3c-1.4,0-2.3,1.1-2.4,2.3
		H-35.8z"/>
	<path class="st2" d="M-25.6,47.8H-27v-1.1l0,0c-0.5,0.9-1.5,1.3-2.6,1.3c-2.5,0-3.8-2-3.8-4.4c0-2.3,1.2-4.3,3.8-4.3
		c0.8,0,2.1,0.3,2.7,1.3l0,0v-4.3h1.4v11.5H-25.6z M-29.5,46.8c1.8,0,2.5-1.6,2.5-3.1c0-1.6-0.7-3.1-2.6-3.1c-1.9,0-2.5,1.6-2.5,3.2
		C-32,45.3-31.2,46.8-29.5,46.8z"/>
	<path class="st2" d="M-10.8,39.9c-0.3-1.6-1.6-2.4-3.2-2.4c-2.7,0-3.9,2.2-3.9,4.6c0,2.6,1.2,4.8,3.9,4.8c2,0,3.2-1.4,3.3-3.3h1.5
		c-0.3,2.9-2.1,4.6-5,4.6c-3.6,0-5.3-2.6-5.3-6c0-3.3,1.9-6,5.4-6c2.4,0,4.4,1.3,4.7,3.7C-9.4,39.9-10.8,39.9-10.8,39.9z"/>
	<path class="st2" d="M-0.6,47.8c-0.2,0.1-0.5,0.2-1,0.2c-0.7,0-1.2-0.4-1.2-1.3C-3.6,47.6-4.6,48-5.7,48c-1.5,0-2.7-0.7-2.7-2.3
		c0-1.9,1.4-2.3,2.8-2.5c1.5-0.3,2.8-0.2,2.8-1.2c0-1.2-1-1.4-1.8-1.4c-1.2,0-2,0.4-2.1,1.6h-1.4c0.1-2.1,1.7-2.8,3.5-2.8
		c1.5,0,3.1,0.3,3.1,2.3V46c0,0.6,0,0.9,0.4,0.9c0.1,0,0.2,0,0.4-0.1v1H-0.6z M-2.8,43.6C-3.3,44-4.4,44-5.3,44.2
		C-6.2,44.4-7,44.7-7,45.7c0,0.9,0.8,1.2,1.6,1.2c1.8,0,2.5-1.1,2.5-1.9v-1.4H-2.8z"/>
	<path class="st2" d="M0.4,39.6h1.3v1.7l0,0c0.7-1.3,1.6-2,3-1.9v1.4c-2.2,0-3,1.3-3,3.4v3.7H0.3L0.4,39.6L0.4,39.6z"/>
	<path class="st2" d="M12.7,45.2C12.3,47,11,48,9.1,48c-2.6,0-3.9-1.8-4-4.4c0-2.5,1.6-4.3,3.9-4.3c2.9,0,3.8,2.7,3.8,4.7H6.6
		c0,1.4,0.8,2.7,2.6,2.7c1.1,0,1.9-0.5,2.1-1.6L12.7,45.2L12.7,45.2z M11.3,42.9c-0.1-1.3-1-2.3-2.4-2.3s-2.3,1.1-2.4,2.3H11.3z"/>
</g>
<g>
	<path class="st1" d="M22.2,45.1c0,0.4,0,0.7,0,1s0,0.6,0,0.8c0,0.1,0.1,0.2,0.2,0.3l1.3,0.4V48c-0.9,0-1.7,0-2.4,0
		c-0.7,0-1.5,0-2.3,0v-0.4l1.1-0.3c0.2,0,0.2-0.1,0.3-0.3c0-0.2,0-0.5,0-0.8s0-0.6,0-1v-7.5c0-0.3,0-0.6,0-0.9c0-0.3,0-0.5,0-0.7
		s-0.1-0.3-0.2-0.3L19,35.3v-0.4c0.8,0,1.6,0,2.3,0c0.5,0,1,0,1.5,0s0.9,0,1.3,0c1.5,0,2.6,0.3,3.3,0.9c0.8,0.6,1.1,1.4,1.1,2.6
		c0,1.3-0.4,2.4-1.3,3.1c-0.9,0.7-2.1,1.1-3.7,1.1c-0.4,0-0.9,0-1.4-0.1L22.2,45.1L22.2,45.1z M22.2,41.7c0.4,0.1,0.9,0.1,1.3,0.1
		c1,0,1.7-0.3,2.3-0.8c0.5-0.5,0.8-1.3,0.8-2.3s-0.2-1.8-0.7-2.3s-1.3-0.7-2.3-0.7c-0.4,0-0.8,0-1.3,0.1v5.9H22.2z"/>
	<path class="st1" d="M29.6,34.9v-0.3c1.1-0.2,2.1-0.4,3-0.7l0.1,0.1c0,1-0.1,2.4-0.1,4.2v6c0,1.1,0,2,0,2.7c0,0.2,0.1,0.3,0.3,0.3
		l1,0.3v0.4c-0.8,0-1.6,0-2.2,0s-1.3,0-2.2,0v-0.4l1-0.3c0.2,0,0.2-0.1,0.2-0.3c0-0.7,0-1.5,0-2.3v-3.8c0-2.3,0-4.1,0-5.5L29.6,34.9
		z"/>
	<path class="st1" d="M41.8,47.1c-1,0.7-1.9,1.1-2.9,1.1s-1.7-0.2-2.2-0.7S36,46.3,36,45.4v-2c0-1.3,0-2.3,0-3l-1.2-0.3v-0.3
		c1.1-0.2,2.1-0.4,3-0.6l0.1,0.1c0,0.7-0.1,1.7-0.1,2.8V45c0,0.7,0.2,1.3,0.5,1.6c0.4,0.3,0.8,0.5,1.5,0.5c0.6,0,1.3-0.2,2-0.5v-3.9
		c0-0.9,0-1.6,0-2.2l-1.2-0.3v-0.3c1.1-0.2,2.1-0.4,3-0.6l0.1,0.1c0,0.7-0.1,1.7-0.1,2.8c0,2.2,0,3.6,0,4.1c0,0.3,0,0.5,0.1,0.6
		c0,0.2,0.1,0.3,0.2,0.4c0.1,0.1,0.2,0.1,0.4,0.2c0.2,0,0.4,0.1,0.7,0.1V48c-0.3,0.1-0.6,0.2-1,0.3s-0.6,0.2-0.8,0.2
		C42.4,48.2,42,47.8,41.8,47.1z"/>
	<path class="st1" d="M50.5,40c-0.4-0.1-0.7-0.1-1.2-0.1c-0.6,0-1,0.1-1.4,0.3s-0.5,0.5-0.5,0.9s0.1,0.7,0.3,0.9
		c0.2,0.2,0.7,0.4,1.3,0.6l0.8,0.3c0.9,0.3,1.5,0.6,1.9,1s0.6,0.9,0.6,1.5c0,0.9-0.3,1.5-1,2s-1.5,0.7-2.5,0.7
		c-0.9,0-1.9-0.2-2.9-0.6c0.2-0.8,0.4-1.6,0.5-2.4l0.4-0.1l0.7,2c0.4,0.1,0.8,0.2,1.3,0.2c0.6,0,1-0.1,1.4-0.4
		c0.3-0.2,0.5-0.6,0.5-1s-0.1-0.7-0.3-0.9c-0.2-0.2-0.6-0.4-1.1-0.6l-1-0.3c-0.8-0.3-1.4-0.6-1.7-1c-0.3-0.4-0.5-0.9-0.5-1.5
		c0-0.8,0.3-1.4,0.9-1.9s1.4-0.7,2.4-0.7c0.9,0,1.8,0.1,2.6,0.4c-0.2,0.7-0.3,1.4-0.5,2.2l-0.4,0.1L50.5,40z"/>
</g>
</svg>
