<?xml version="1.0" encoding="utf-8"?>
<!-- Generator: Adobe Illustrator 19.1.0, SVG Export Plug-In . SVG Version: 6.00 Build 0)  -->
<!DOCTYPE svg PUBLIC "-//W3C//DTD SVG 1.1//EN" "http://www.w3.org/Graphics/SVG/1.1/DTD/svg11.dtd">
<svg version="1.1" id="Layer_1" xmlns="http://www.w3.org/2000/svg" xmlns:xlink="http://www.w3.org/1999/xlink" x="0px" y="0px"
	 viewBox="0 0 246.6 110.6" style="enable-background:new 0 0 246.6 110.6;" xml:space="preserve">
<style type="text/css">
	.st0{fill:#6D6E71;}
	.st1{fill:#6CB33F;}
</style>
<g>
	<g>
		<path class="st0" d="M10.4,87.2c1.6,0,2.9,0.4,3.8,1.2c0.9,0.8,1.4,1.9,1.4,3.2c0,1-0.2,1.9-0.7,2.7c-0.5,0.8-1.2,1.3-2.2,1.6v0
			c0.5,0.1,0.9,0.3,1.2,0.5c0.3,0.2,0.6,0.5,0.7,0.8c0.2,0.3,0.3,0.6,0.4,1c0.1,0.4,0.2,0.8,0.2,1.2c0,0.4,0.1,0.8,0.1,1.3
			c0,0.4,0.1,0.8,0.1,1.3c0.1,0.4,0.2,0.8,0.3,1.2c0.1,0.4,0.3,0.7,0.5,1h-2.5c-0.2-0.2-0.3-0.4-0.3-0.7c-0.1-0.3-0.1-0.6-0.1-1
			c0-0.4,0-0.8,0-1.2c0-0.4-0.1-0.8-0.1-1.3c-0.1-0.4-0.1-0.8-0.2-1.2c-0.1-0.4-0.2-0.7-0.5-1c-0.2-0.3-0.5-0.5-0.8-0.7
			c-0.3-0.2-0.8-0.2-1.3-0.2H4.7v7.2H2.5V87.2H10.4z M10.9,94.9c0.5-0.1,0.9-0.2,1.2-0.5c0.4-0.2,0.6-0.5,0.9-0.9
			c0.2-0.4,0.3-0.9,0.3-1.5c0-0.8-0.2-1.5-0.7-2.1c-0.5-0.5-1.2-0.8-2.3-0.8H4.7V95h4.7C9.9,95,10.4,95,10.9,94.9z"/>
		<path class="st0" d="M27.4,103.3c-0.9,0.7-2.1,1-3.5,1c-1,0-1.8-0.2-2.6-0.5c-0.7-0.3-1.3-0.8-1.8-1.3c-0.5-0.6-0.9-1.2-1.1-2
			c-0.2-0.8-0.4-1.6-0.4-2.6c0-0.9,0.1-1.8,0.4-2.6c0.3-0.8,0.7-1.4,1.2-2c0.5-0.6,1.1-1,1.8-1.3c0.7-0.3,1.5-0.5,2.3-0.5
			c1.1,0,2,0.2,2.7,0.7c0.7,0.4,1.3,1,1.7,1.7c0.4,0.7,0.7,1.4,0.9,2.3c0.2,0.8,0.2,1.6,0.2,2.3h-9.2c0,0.5,0,1,0.2,1.5
			c0.1,0.5,0.4,0.9,0.7,1.3c0.3,0.4,0.7,0.7,1.2,0.9c0.5,0.2,1.1,0.3,1.7,0.3c0.9,0,1.6-0.2,2.1-0.6c0.5-0.4,0.9-1,1.1-1.8h2
			C28.9,101.6,28.3,102.6,27.4,103.3z M26.9,95.5c-0.2-0.4-0.4-0.8-0.7-1.1c-0.3-0.3-0.7-0.6-1.1-0.7c-0.4-0.2-0.9-0.3-1.4-0.3
			c-0.5,0-1,0.1-1.4,0.3c-0.4,0.2-0.8,0.4-1.1,0.7c-0.3,0.3-0.5,0.7-0.7,1.1c-0.2,0.4-0.3,0.9-0.3,1.3h7
			C27.2,96.3,27.1,95.9,26.9,95.5z"/>
		<path class="st0" d="M33.4,101.4c0.2,0.3,0.4,0.5,0.7,0.7c0.3,0.2,0.7,0.3,1,0.4c0.4,0.1,0.8,0.1,1.2,0.1c0.3,0,0.6,0,1-0.1
			c0.3,0,0.7-0.1,1-0.3c0.3-0.1,0.5-0.3,0.7-0.6c0.2-0.2,0.3-0.6,0.3-0.9c0-0.5-0.2-0.9-0.6-1.2c-0.4-0.3-0.9-0.5-1.5-0.6
			c-0.6-0.2-1.2-0.3-1.9-0.4c-0.7-0.1-1.3-0.3-1.9-0.6c-0.6-0.2-1.1-0.6-1.5-1c-0.4-0.4-0.6-1.1-0.6-1.8c0-0.6,0.1-1.1,0.4-1.6
			c0.3-0.4,0.6-0.8,1.1-1.1c0.4-0.3,0.9-0.5,1.5-0.6c0.5-0.1,1.1-0.2,1.6-0.2c0.7,0,1.3,0.1,1.9,0.2c0.6,0.1,1.1,0.3,1.6,0.6
			c0.5,0.3,0.8,0.7,1.1,1.2c0.3,0.5,0.4,1.1,0.5,1.9h-2c0-0.4-0.1-0.7-0.3-1c-0.2-0.3-0.4-0.5-0.7-0.6c-0.3-0.2-0.6-0.3-0.9-0.3
			c-0.3-0.1-0.7-0.1-1-0.1c-0.3,0-0.6,0-0.9,0.1c-0.3,0-0.6,0.1-0.8,0.2c-0.3,0.1-0.5,0.3-0.6,0.5c-0.2,0.2-0.2,0.5-0.2,0.8
			c0,0.3,0.1,0.6,0.4,0.9c0.2,0.2,0.6,0.4,0.9,0.6c0.4,0.1,0.8,0.3,1.3,0.4c0.5,0.1,0.9,0.2,1.4,0.3c0.5,0.1,1,0.2,1.5,0.4
			c0.5,0.2,0.9,0.4,1.3,0.6c0.4,0.3,0.7,0.6,0.9,1c0.2,0.4,0.3,0.9,0.3,1.5c0,0.7-0.2,1.4-0.5,1.8c-0.3,0.5-0.7,0.9-1.2,1.2
			c-0.5,0.3-1.1,0.5-1.7,0.6c-0.6,0.1-1.2,0.2-1.9,0.2c-0.7,0-1.3-0.1-1.9-0.2c-0.6-0.1-1.2-0.4-1.6-0.7c-0.5-0.3-0.9-0.7-1.1-1.3
			c-0.3-0.5-0.4-1.2-0.5-1.9h2C33.1,100.7,33.2,101.1,33.4,101.4z"/>
		<path class="st0" d="M44.2,89.7v-2.5h2v2.5H44.2z M46.2,91.9v12.2h-2V91.9H46.2z"/>
		<path class="st0" d="M58.6,104.1v-1.7h0c-0.3,0.7-0.9,1.2-1.6,1.5c-0.7,0.3-1.5,0.5-2.3,0.5c-0.9,0-1.8-0.2-2.5-0.5
			c-0.7-0.3-1.3-0.8-1.8-1.4c-0.5-0.6-0.8-1.3-1.1-2C49.1,99.6,49,98.8,49,98c0-0.9,0.1-1.7,0.3-2.5c0.2-0.8,0.6-1.4,1-2
			c0.5-0.6,1.1-1,1.8-1.4c0.7-0.3,1.5-0.5,2.5-0.5c0.3,0,0.7,0,1,0.1c0.4,0.1,0.7,0.2,1.1,0.3c0.4,0.1,0.7,0.3,1,0.6
			c0.3,0.2,0.6,0.5,0.8,0.9h0v-6.3h2v16.9H58.6z M51.4,99.8c0.2,0.5,0.4,1,0.7,1.5c0.3,0.4,0.7,0.8,1.2,1c0.5,0.3,1,0.4,1.7,0.4
			c0.7,0,1.3-0.1,1.7-0.4c0.5-0.3,0.9-0.6,1.2-1.1c0.3-0.4,0.5-0.9,0.7-1.5c0.1-0.5,0.2-1.1,0.2-1.7c0-0.6-0.1-1.2-0.2-1.7
			c-0.1-0.6-0.4-1-0.7-1.5c-0.3-0.4-0.7-0.8-1.2-1c-0.5-0.3-1.1-0.4-1.8-0.4c-0.7,0-1.3,0.1-1.7,0.4c-0.5,0.3-0.9,0.6-1.1,1.1
			c-0.3,0.4-0.5,0.9-0.6,1.5c-0.1,0.6-0.2,1.1-0.2,1.7C51.1,98.7,51.2,99.2,51.4,99.8z"/>
		<path class="st0" d="M72.8,103.3c-0.9,0.7-2.1,1-3.5,1c-1,0-1.8-0.2-2.5-0.5c-0.7-0.3-1.3-0.8-1.8-1.3c-0.5-0.6-0.9-1.2-1.1-2
			c-0.2-0.8-0.4-1.6-0.4-2.6c0-0.9,0.1-1.8,0.4-2.6c0.3-0.8,0.7-1.4,1.2-2c0.5-0.6,1.1-1,1.8-1.3c0.7-0.3,1.5-0.5,2.3-0.5
			c1.1,0,2,0.2,2.7,0.7c0.7,0.4,1.3,1,1.7,1.7c0.4,0.7,0.7,1.4,0.9,2.3c0.2,0.8,0.2,1.6,0.2,2.3h-9.2c0,0.5,0,1,0.2,1.5
			c0.1,0.5,0.4,0.9,0.7,1.3c0.3,0.4,0.7,0.7,1.2,0.9c0.5,0.2,1.1,0.3,1.7,0.3c0.9,0,1.6-0.2,2.1-0.6c0.5-0.4,0.9-1,1.1-1.8h2
			C74.3,101.6,73.7,102.6,72.8,103.3z M72.3,95.5c-0.2-0.4-0.4-0.8-0.7-1.1c-0.3-0.3-0.7-0.6-1.1-0.7c-0.4-0.2-0.9-0.3-1.4-0.3
			c-0.5,0-1,0.1-1.4,0.3c-0.4,0.2-0.8,0.4-1.1,0.7c-0.3,0.3-0.5,0.7-0.7,1.1c-0.2,0.4-0.3,0.9-0.3,1.3h7
			C72.6,96.3,72.5,95.9,72.3,95.5z"/>
		<path class="st0" d="M79.1,91.9v1.9h0c0.8-1.5,2.2-2.2,4-2.2c0.8,0,1.5,0.1,2,0.3c0.5,0.2,1,0.5,1.3,0.9c0.3,0.4,0.6,0.9,0.7,1.4
			c0.1,0.5,0.2,1.1,0.2,1.8v8h-2v-8.3c0-0.8-0.2-1.4-0.7-1.8c-0.4-0.4-1.1-0.7-1.8-0.7c-0.6,0-1.1,0.1-1.6,0.3
			c-0.5,0.2-0.8,0.5-1.1,0.8c-0.3,0.3-0.5,0.8-0.7,1.2c-0.2,0.5-0.2,1-0.2,1.5v6.9h-2V91.9H79.1z"/>
		<path class="st0" d="M96,91.9v1.8h-2.4v7.6c0,0.2,0,0.4,0.1,0.6c0,0.1,0.1,0.3,0.2,0.3c0.1,0.1,0.3,0.1,0.5,0.2c0.2,0,0.5,0,0.8,0
			H96v1.8h-1.5c-0.5,0-1,0-1.3-0.1c-0.4-0.1-0.7-0.2-0.9-0.4c-0.2-0.2-0.4-0.5-0.5-0.8c-0.1-0.3-0.2-0.8-0.2-1.4v-7.8h-2.1v-1.8h2.1
			v-3.7h2v3.7H96z"/>
		<path class="st0" d="M98.7,89.7v-2.5h2v2.5H98.7z M100.7,91.9v12.2h-2V91.9H100.7z"/>
		<path class="st0" d="M113.6,104.4c-0.5,0-0.9-0.1-1.2-0.4c-0.3-0.3-0.5-0.8-0.5-1.4c-0.6,0.7-1.2,1.1-1.9,1.4
			c-0.7,0.3-1.5,0.4-2.4,0.4c-0.6,0-1.1-0.1-1.6-0.2c-0.5-0.1-0.9-0.3-1.3-0.6c-0.4-0.3-0.7-0.6-0.9-1.1c-0.2-0.4-0.3-1-0.3-1.6
			c0-0.7,0.1-1.3,0.4-1.7c0.2-0.4,0.5-0.8,0.9-1.1c0.4-0.3,0.8-0.5,1.3-0.6c0.5-0.1,1-0.3,1.5-0.4c0.6-0.1,1.1-0.2,1.6-0.2
			c0.5-0.1,0.9-0.1,1.3-0.2c0.4-0.1,0.7-0.3,0.9-0.4c0.2-0.2,0.3-0.5,0.3-0.9c0-0.4-0.1-0.8-0.2-1.1c-0.2-0.3-0.4-0.5-0.6-0.6
			c-0.3-0.1-0.6-0.2-0.9-0.3c-0.3,0-0.6-0.1-1-0.1c-0.9,0-1.6,0.2-2.1,0.5c-0.6,0.3-0.9,0.9-0.9,1.8h-2c0-0.8,0.2-1.4,0.5-1.9
			c0.3-0.5,0.7-0.9,1.1-1.3c0.5-0.3,1-0.6,1.6-0.7c0.6-0.1,1.3-0.2,1.9-0.2c0.6,0,1.1,0,1.6,0.1c0.5,0.1,1,0.2,1.5,0.5
			c0.4,0.2,0.8,0.6,1.1,1c0.3,0.4,0.4,1,0.4,1.7v6.3c0,0.5,0,0.8,0.1,1c0.1,0.2,0.2,0.3,0.6,0.3c0.2,0,0.4,0,0.6-0.1v1.6
			C114.7,104.3,114.2,104.4,113.6,104.4z M110.8,98.2c-0.4,0.1-0.8,0.2-1.3,0.2c-0.5,0.1-0.9,0.1-1.4,0.2c-0.5,0.1-0.9,0.2-1.2,0.3
			c-0.4,0.2-0.7,0.4-0.9,0.7c-0.2,0.3-0.3,0.7-0.3,1.2c0,0.3,0.1,0.6,0.2,0.8c0.1,0.2,0.3,0.4,0.5,0.6c0.2,0.1,0.5,0.2,0.8,0.3
			c0.3,0.1,0.6,0.1,0.9,0.1c0.7,0,1.2-0.1,1.7-0.3c0.5-0.2,0.9-0.4,1.2-0.7c0.3-0.3,0.5-0.6,0.7-0.9c0.1-0.3,0.2-0.6,0.2-0.9v-2.1
			C111.5,98,111.2,98.1,110.8,98.2z"/>
		<path class="st0" d="M119.4,87.2v16.9h-2V87.2H119.4z"/>
		<path class="st0" d="M137.3,87.2l6.6,16.9h-2.5l-1.9-5.1h-7.2l-1.9,5.1h-2.3l6.6-16.9H137.3z M138.8,97.1l-2.8-7.9h0l-2.9,7.9
			H138.8z"/>
		<path class="st0" d="M154.8,107.5c-0.9,1-2.4,1.5-4.3,1.5c-0.6,0-1.2-0.1-1.7-0.2c-0.6-0.1-1.1-0.3-1.6-0.6
			c-0.5-0.3-0.9-0.7-1.2-1.1c-0.3-0.5-0.5-1-0.5-1.7h2c0,0.4,0.1,0.7,0.3,0.9c0.2,0.2,0.5,0.5,0.8,0.6c0.3,0.2,0.6,0.3,1,0.3
			c0.4,0.1,0.7,0.1,1,0.1c0.7,0,1.2-0.1,1.7-0.3c0.5-0.2,0.8-0.5,1.1-0.9c0.3-0.4,0.5-0.9,0.7-1.5s0.2-1.2,0.2-1.9V102h0
			c-0.3,0.8-0.9,1.3-1.6,1.7c-0.7,0.4-1.5,0.5-2.2,0.5c-0.9,0-1.7-0.2-2.4-0.5c-0.7-0.3-1.2-0.8-1.7-1.3c-0.5-0.6-0.8-1.2-1-2
			c-0.2-0.7-0.3-1.5-0.3-2.4c0-0.7,0.1-1.5,0.3-2.2c0.2-0.8,0.5-1.5,0.9-2.1c0.4-0.6,1-1.1,1.8-1.5c0.7-0.4,1.6-0.6,2.7-0.6
			c0.8,0,1.5,0.2,2.1,0.5c0.6,0.3,1.2,0.8,1.5,1.5h0v-1.7h1.9v11.2C156.1,105.1,155.7,106.6,154.8,107.5z M152.2,102.1
			c0.5-0.3,0.8-0.6,1.1-1.1c0.3-0.5,0.5-1,0.6-1.5c0.1-0.6,0.2-1.1,0.2-1.7c0-0.5-0.1-1.1-0.2-1.6c-0.1-0.5-0.3-1-0.6-1.4
			c-0.3-0.4-0.6-0.8-1.1-1c-0.4-0.3-1-0.4-1.6-0.4c-0.6,0-1.2,0.1-1.7,0.4c-0.5,0.2-0.8,0.6-1.1,1c-0.3,0.4-0.5,0.9-0.6,1.4
			c-0.1,0.5-0.2,1.1-0.2,1.7c0,0.6,0.1,1.1,0.2,1.7c0.1,0.5,0.3,1,0.6,1.5c0.3,0.4,0.6,0.8,1.1,1.1c0.4,0.3,1,0.4,1.7,0.4
			C151.2,102.5,151.7,102.3,152.2,102.1z"/>
		<path class="st0" d="M168.2,103.3c-0.9,0.7-2.1,1-3.5,1c-1,0-1.8-0.2-2.5-0.5c-0.7-0.3-1.3-0.8-1.8-1.3c-0.5-0.6-0.9-1.2-1.1-2
			c-0.2-0.8-0.4-1.6-0.4-2.6c0-0.9,0.1-1.8,0.4-2.6c0.3-0.8,0.7-1.4,1.2-2c0.5-0.6,1.1-1,1.8-1.3c0.7-0.3,1.5-0.5,2.3-0.5
			c1.1,0,2,0.2,2.7,0.7c0.7,0.4,1.3,1,1.7,1.7c0.4,0.7,0.7,1.4,0.9,2.3c0.2,0.8,0.2,1.6,0.2,2.3H161c0,0.5,0,1,0.2,1.5
			c0.1,0.5,0.4,0.9,0.7,1.3c0.3,0.4,0.7,0.7,1.2,0.9c0.5,0.2,1.1,0.3,1.7,0.3c0.9,0,1.6-0.2,2.1-0.6c0.5-0.4,0.9-1,1.1-1.8h2
			C169.7,101.6,169.1,102.6,168.2,103.3z M167.7,95.5c-0.2-0.4-0.4-0.8-0.7-1.1c-0.3-0.3-0.7-0.6-1.1-0.7c-0.4-0.2-0.9-0.3-1.4-0.3
			c-0.5,0-1,0.1-1.4,0.3c-0.4,0.2-0.8,0.4-1.1,0.7c-0.3,0.3-0.5,0.7-0.7,1.1c-0.2,0.4-0.3,0.9-0.3,1.3h7
			C168,96.3,167.9,95.9,167.7,95.5z"/>
		<path class="st0" d="M181.6,104.1v-1.7h0c-0.3,0.7-0.9,1.2-1.6,1.5c-0.7,0.3-1.5,0.5-2.3,0.5c-0.9,0-1.8-0.2-2.5-0.5
			c-0.7-0.3-1.3-0.8-1.8-1.4c-0.5-0.6-0.8-1.3-1.1-2c-0.2-0.8-0.4-1.6-0.4-2.5c0-0.9,0.1-1.7,0.3-2.5c0.2-0.8,0.6-1.4,1-2
			c0.5-0.6,1.1-1,1.8-1.4c0.7-0.3,1.5-0.5,2.5-0.5c0.3,0,0.7,0,1,0.1c0.4,0.1,0.7,0.2,1.1,0.3c0.4,0.1,0.7,0.3,1,0.6
			c0.3,0.2,0.6,0.5,0.8,0.9h0v-6.3h2v16.9H181.6z M174.3,99.8c0.2,0.5,0.4,1,0.7,1.5c0.3,0.4,0.7,0.8,1.2,1c0.5,0.3,1,0.4,1.7,0.4
			c0.7,0,1.3-0.1,1.7-0.4c0.5-0.3,0.9-0.6,1.2-1.1c0.3-0.4,0.5-0.9,0.7-1.5c0.1-0.5,0.2-1.1,0.2-1.7c0-0.6-0.1-1.2-0.2-1.7
			c-0.1-0.6-0.4-1-0.7-1.5c-0.3-0.4-0.7-0.8-1.2-1c-0.5-0.3-1.1-0.4-1.8-0.4c-0.7,0-1.3,0.1-1.7,0.4c-0.5,0.3-0.9,0.6-1.1,1.1
			c-0.3,0.4-0.5,0.9-0.6,1.5c-0.1,0.6-0.2,1.1-0.2,1.7C174.1,98.7,174.2,99.2,174.3,99.8z"/>
		<path class="st0" d="M204.6,89.6c-0.9-0.6-1.9-0.9-3.1-0.9c-1,0-1.9,0.2-2.6,0.6c-0.7,0.4-1.3,0.9-1.8,1.5c-0.5,0.6-0.8,1.4-1,2.2
			c-0.2,0.8-0.3,1.7-0.3,2.5c0,1,0.1,1.9,0.3,2.7c0.2,0.9,0.6,1.6,1,2.2c0.5,0.6,1.1,1.1,1.8,1.5c0.7,0.4,1.6,0.6,2.6,0.6
			c0.7,0,1.4-0.1,2-0.4c0.6-0.2,1.1-0.6,1.5-1c0.4-0.4,0.7-0.9,1-1.5c0.2-0.6,0.4-1.2,0.4-1.9h2.3c-0.2,2.1-1,3.8-2.2,5
			c-1.2,1.2-3,1.8-5.1,1.8c-1.3,0-2.5-0.2-3.4-0.7c-1-0.4-1.8-1.1-2.4-1.9c-0.6-0.8-1.1-1.7-1.5-2.8c-0.3-1.1-0.5-2.2-0.5-3.4
			c0-1.2,0.2-2.4,0.5-3.5c0.3-1.1,0.9-2,1.5-2.8c0.7-0.8,1.5-1.4,2.5-1.9c1-0.5,2.2-0.7,3.5-0.7c0.9,0,1.7,0.1,2.5,0.4
			c0.8,0.2,1.5,0.6,2.1,1c0.6,0.5,1.1,1,1.5,1.7c0.4,0.7,0.7,1.5,0.8,2.4h-2.3C206,91.1,205.4,90.2,204.6,89.6z"/>
		<path class="st0" d="M220.9,104.4c-0.5,0-0.9-0.1-1.2-0.4c-0.3-0.3-0.5-0.8-0.5-1.4c-0.6,0.7-1.2,1.1-1.9,1.4
			c-0.7,0.3-1.5,0.4-2.4,0.4c-0.6,0-1.1-0.1-1.6-0.2c-0.5-0.1-0.9-0.3-1.3-0.6c-0.4-0.3-0.7-0.6-0.9-1.1c-0.2-0.4-0.3-1-0.3-1.6
			c0-0.7,0.1-1.3,0.4-1.7c0.2-0.4,0.5-0.8,0.9-1.1c0.4-0.3,0.8-0.5,1.3-0.6c0.5-0.1,1-0.3,1.5-0.4c0.6-0.1,1.1-0.2,1.6-0.2
			c0.5-0.1,0.9-0.1,1.3-0.2c0.4-0.1,0.7-0.3,0.9-0.4c0.2-0.2,0.3-0.5,0.3-0.9c0-0.4-0.1-0.8-0.2-1.1c-0.2-0.3-0.4-0.5-0.6-0.6
			c-0.3-0.1-0.6-0.2-0.9-0.3c-0.3,0-0.6-0.1-1-0.1c-0.9,0-1.6,0.2-2.1,0.5c-0.6,0.3-0.9,0.9-0.9,1.8h-2c0-0.8,0.2-1.4,0.5-1.9
			c0.3-0.5,0.7-0.9,1.1-1.3c0.5-0.3,1-0.6,1.6-0.7c0.6-0.1,1.3-0.2,1.9-0.2c0.6,0,1.1,0,1.6,0.1c0.5,0.1,1,0.2,1.5,0.5
			c0.4,0.2,0.8,0.6,1.1,1c0.3,0.4,0.4,1,0.4,1.7v6.3c0,0.5,0,0.8,0.1,1c0.1,0.2,0.2,0.3,0.6,0.3c0.2,0,0.4,0,0.6-0.1v1.6
			C222,104.3,221.5,104.4,220.9,104.4z M218.1,98.2c-0.4,0.1-0.8,0.2-1.3,0.2c-0.5,0.1-0.9,0.1-1.4,0.2c-0.5,0.1-0.9,0.2-1.2,0.3
			c-0.4,0.2-0.7,0.4-0.9,0.7c-0.2,0.3-0.3,0.7-0.3,1.2c0,0.3,0.1,0.6,0.2,0.8c0.1,0.2,0.3,0.4,0.5,0.6c0.2,0.1,0.5,0.2,0.8,0.3
			c0.3,0.1,0.6,0.1,0.9,0.1c0.7,0,1.2-0.1,1.7-0.3c0.5-0.2,0.9-0.4,1.2-0.7c0.3-0.3,0.5-0.6,0.7-0.9c0.1-0.3,0.2-0.6,0.2-0.9v-2.1
			C218.8,98,218.5,98.1,218.1,98.2z"/>
		<path class="st0" d="M226.4,91.9v2.6h0c0.5-1,1.1-1.7,1.8-2.2c0.7-0.5,1.6-0.7,2.7-0.7v2.1c-0.8,0-1.5,0.1-2.1,0.3
			c-0.6,0.2-1,0.5-1.4,1c-0.3,0.4-0.6,0.9-0.8,1.5c-0.2,0.6-0.2,1.3-0.2,2.1v5.4h-2V91.9H226.4z"/>
		<path class="st0" d="M241.1,103.3c-0.9,0.7-2.1,1-3.5,1c-1,0-1.8-0.2-2.6-0.5c-0.7-0.3-1.3-0.8-1.8-1.3c-0.5-0.6-0.9-1.2-1.1-2
			c-0.2-0.8-0.4-1.6-0.4-2.6c0-0.9,0.1-1.8,0.4-2.6c0.3-0.8,0.7-1.4,1.2-2c0.5-0.6,1.1-1,1.8-1.3c0.7-0.3,1.5-0.5,2.3-0.5
			c1.1,0,2,0.2,2.7,0.7c0.7,0.4,1.3,1,1.7,1.7c0.4,0.7,0.7,1.4,0.9,2.3c0.2,0.8,0.2,1.6,0.2,2.3h-9.2c0,0.5,0,1,0.2,1.5
			c0.1,0.5,0.4,0.9,0.7,1.3c0.3,0.4,0.7,0.7,1.2,0.9c0.5,0.2,1.1,0.3,1.7,0.3c0.9,0,1.6-0.2,2.1-0.6c0.5-0.4,0.9-1,1.1-1.8h2
			C242.6,101.6,242,102.6,241.1,103.3z M240.6,95.5c-0.2-0.4-0.4-0.8-0.7-1.1c-0.3-0.3-0.7-0.6-1.1-0.7c-0.4-0.2-0.9-0.3-1.4-0.3
			c-0.5,0-1,0.1-1.4,0.3c-0.4,0.2-0.8,0.4-1.1,0.7c-0.3,0.3-0.5,0.7-0.7,1.1c-0.2,0.4-0.3,0.9-0.3,1.3h7
			C240.9,96.3,240.8,95.9,240.6,95.5z"/>
	</g>
	<g>
		<path d="M13.4,56.5c2.1,0,3.7,0.5,4.9,1.5c1.2,1,1.8,2.4,1.8,4.2c0,1.3-0.3,2.5-0.9,3.5c-0.6,1-1.6,1.7-2.9,2.1v0.1
			c0.6,0.1,1.2,0.3,1.6,0.6c0.4,0.3,0.7,0.6,1,1c0.2,0.4,0.4,0.8,0.5,1.3c0.1,0.5,0.2,1,0.3,1.5c0,0.5,0.1,1.1,0.1,1.6
			c0,0.6,0.1,1.1,0.2,1.6c0.1,0.5,0.2,1,0.4,1.5c0.2,0.5,0.4,0.9,0.7,1.3h-3.3c-0.2-0.2-0.3-0.5-0.4-0.9c-0.1-0.4-0.1-0.8-0.1-1.3
			c0-0.5,0-1-0.1-1.5c0-0.6-0.1-1.1-0.2-1.6c-0.1-0.5-0.2-1-0.3-1.5c-0.1-0.5-0.3-0.9-0.6-1.3c-0.3-0.4-0.6-0.6-1-0.9
			c-0.4-0.2-1-0.3-1.7-0.3H5.9v9.4H3V56.5H13.4z M14,66.5c0.6-0.1,1.2-0.3,1.6-0.6c0.5-0.3,0.8-0.7,1.1-1.2c0.3-0.5,0.4-1.2,0.4-1.9
			c0-1.1-0.3-2-0.9-2.7c-0.6-0.7-1.6-1-3-1H5.9v7.6H12C12.7,66.6,13.4,66.6,14,66.5z"/>
		<path d="M24,63.2c0.4-1.4,1.1-2.6,2-3.7c0.9-1.1,2-1.9,3.3-2.5c1.3-0.6,2.8-0.9,4.6-0.9c1.7,0,3.3,0.3,4.6,0.9
			c1.3,0.6,2.4,1.5,3.3,2.5c0.9,1.1,1.5,2.3,2,3.7c0.4,1.4,0.7,2.8,0.7,4.3c0,1.5-0.2,2.9-0.7,4.3c-0.4,1.4-1.1,2.6-2,3.7
			c-0.9,1.1-2,1.9-3.3,2.5c-1.3,0.6-2.8,0.9-4.6,0.9c-1.7,0-3.3-0.3-4.6-0.9c-1.3-0.6-2.4-1.5-3.3-2.5c-0.9-1.1-1.5-2.3-2-3.7
			c-0.4-1.4-0.7-2.8-0.7-4.3C23.3,66,23.6,64.6,24,63.2z M26.7,70.8c0.3,1.1,0.7,2,1.4,2.9c0.6,0.9,1.4,1.5,2.4,2.1
			c1,0.5,2.1,0.8,3.5,0.8c1.3,0,2.5-0.3,3.5-0.8c1-0.5,1.8-1.2,2.4-2.1c0.6-0.9,1.1-1.8,1.4-2.9c0.3-1.1,0.4-2.2,0.4-3.3
			c0-1.1-0.1-2.2-0.4-3.3c-0.3-1.1-0.7-2-1.4-2.9c-0.6-0.9-1.4-1.5-2.4-2.1c-1-0.5-2.1-0.8-3.5-0.8c-1.3,0-2.5,0.3-3.5,0.8
			c-1,0.5-1.8,1.2-2.4,2.1c-0.6,0.9-1.1,1.8-1.4,2.9c-0.3,1.1-0.4,2.2-0.4,3.3C26.3,68.6,26.4,69.7,26.7,70.8z"/>
		<path d="M61.8,59.6c-1.1-0.8-2.5-1.2-4-1.2c-1.3,0-2.4,0.2-3.4,0.7c-0.9,0.5-1.7,1.1-2.3,2C51.5,62,51,63,50.7,64
			c-0.3,1.1-0.4,2.2-0.4,3.3c0,1.2,0.1,2.4,0.4,3.5c0.3,1.1,0.7,2.1,1.3,2.9c0.6,0.8,1.4,1.5,2.3,2c0.9,0.5,2.1,0.7,3.4,0.7
			c1,0,1.8-0.2,2.6-0.5c0.8-0.3,1.4-0.8,1.9-1.3c0.5-0.6,1-1.2,1.3-2c0.3-0.8,0.5-1.6,0.6-2.5h2.9c-0.3,2.8-1.2,4.9-2.9,6.4
			c-1.6,1.5-3.8,2.3-6.7,2.3c-1.7,0-3.2-0.3-4.5-0.9c-1.3-0.6-2.3-1.4-3.2-2.4S48.4,73.4,48,72c-0.4-1.4-0.6-2.9-0.6-4.5
			c0-1.6,0.2-3.1,0.7-4.5c0.5-1.4,1.1-2.6,2-3.7c0.9-1,2-1.9,3.3-2.5c1.3-0.6,2.8-0.9,4.5-0.9c1.2,0,2.2,0.2,3.3,0.5
			c1,0.3,1.9,0.8,2.7,1.3c0.8,0.6,1.5,1.3,2,2.2c0.5,0.9,0.9,1.9,1,3.1h-2.9C63.6,61.6,62.9,60.4,61.8,59.6z"/>
		<path d="M74.1,56.5v10.9l11.2-10.9H89l-9.3,8.8l9.6,13.1h-3.7l-8-11.1l-3.7,3.4v7.7h-2.9V56.5H74.1z"/>
		<path d="M95.1,56.5V66h11.6v-9.4h2.9v21.9h-2.9v-10H95.1v10h-2.9V56.5H95.1z"/>
		<path d="M124.1,56.5l8.6,21.9h-3.2l-2.4-6.6h-9.3l-2.5,6.6h-3l8.6-21.9H124.1z M126.2,69.4l-3.7-10.2h-0.1l-3.7,10.2H126.2z"/>
		<path d="M139.4,56.5l6.9,18.4l7-18.4h4v21.9h-2.8V60.2h-0.1l-6.9,18.2h-2.5l-6.9-18.2h-0.1v18.2h-2.8V56.5H139.4z"/>
		<path d="M172.3,56.5c2.2,0,3.9,0.6,5,1.7c1.1,1.1,1.7,2.7,1.7,4.8c0,2-0.6,3.6-1.7,4.8c-1.1,1.1-2.8,1.7-5,1.7h-6.7v9h-2.9V56.5
			H172.3z M171.3,67c1.7,0,2.9-0.3,3.7-1c0.8-0.7,1.2-1.7,1.2-3c0-1.3-0.4-2.3-1.2-3c-0.8-0.7-2-1-3.7-1h-5.7v8H171.3z"/>
		<path d="M180.7,59v-2.5h17.6V59H191v19.5h-2.9V59H180.7z"/>
		<path d="M200.7,63.2c0.4-1.4,1.1-2.6,2-3.7c0.9-1.1,2-1.9,3.3-2.5c1.3-0.6,2.8-0.9,4.6-0.9c1.7,0,3.3,0.3,4.6,0.9
			c1.3,0.6,2.4,1.5,3.3,2.5c0.9,1.1,1.5,2.3,2,3.7c0.4,1.4,0.7,2.8,0.7,4.3c0,1.5-0.2,2.9-0.7,4.3c-0.4,1.4-1.1,2.6-2,3.7
			c-0.9,1.1-2,1.9-3.3,2.5c-1.3,0.6-2.8,0.9-4.6,0.9c-1.7,0-3.3-0.3-4.6-0.9c-1.3-0.6-2.4-1.5-3.3-2.5c-0.9-1.1-1.5-2.3-2-3.7
			c-0.4-1.4-0.7-2.8-0.7-4.3C200,66,200.2,64.6,200.7,63.2z M203.3,70.8c0.3,1.1,0.7,2,1.4,2.9c0.6,0.9,1.4,1.5,2.4,2.1
			c1,0.5,2.1,0.8,3.5,0.8c1.3,0,2.5-0.3,3.5-0.8c1-0.5,1.8-1.2,2.4-2.1c0.6-0.9,1.1-1.8,1.4-2.9c0.3-1.1,0.4-2.2,0.4-3.3
			c0-1.1-0.1-2.2-0.4-3.3c-0.3-1.1-0.7-2-1.4-2.9c-0.6-0.9-1.4-1.5-2.4-2.1c-1-0.5-2.1-0.8-3.5-0.8c-1.3,0-2.5,0.3-3.5,0.8
			c-1,0.5-1.8,1.2-2.4,2.1c-0.6,0.9-1.1,1.8-1.4,2.9c-0.3,1.1-0.4,2.2-0.4,3.3C202.9,68.6,203.1,69.7,203.3,70.8z"/>
		<path d="M228.2,56.5l11.6,17.8h0.1V56.5h2.8v21.9h-3.2l-11.5-17.6h-0.1v17.6h-2.8V56.5H228.2z"/>
	</g>
	<rect x="1.7" y="46.7" class="st0" width="242.2" height="1"/>
	<g>
		<path class="st1" d="M2.6,35.1h3.7c1.7,0,2.8-1,2.8-2.8V7.5c0-1.8-0.7-2.8-2.5-2.8h-4V1.8h21.7c7,0,12.4,2.9,12.4,8.9
			c0,5.3-4.2,7.5-8.9,8.2v0.1c5.6,0.7,10.2,3,10.2,9.3c0,6-4.8,9.6-16.7,9.6H2.6V35.1z M14.4,17.7h7.2c6,0,9.7-2.2,9.7-6.5
			c0-4.1-2.3-6.6-9.7-6.6h-7.2V17.7z M14.4,35.1h7.8c5.6,0,9.9-1.3,9.9-7.2c0-5.9-4.4-7.3-9.9-7.3h-7.8V35.1z"/>
		<path class="st1" d="M47.4,25.5c0,5.6,1.2,10.7,7.6,10.7c4.4,0,7-2.3,8.2-6.5h3.2c-1.2,5.9-5,9.1-11.4,9.1
			c-8.1,0-12.7-4.6-12.7-13.6s4.7-13.6,12.7-13.6c8.8,0,11.6,6.2,12.1,13.9H47.4z M61.9,23c0-4.7-2.1-8.8-7.1-8.8
			c-5.1,0-7.4,4-7.4,8.8H61.9z"/>
		<path class="st1" d="M69.6,12.5c5.1-0.7,6.1-6.2,6.4-10.6h2.8v10.6h7.7V15h-7.7v18c0,2.2,0.9,3.2,2.7,3.2c2.3,0,3.8-2.2,3.8-5.3
			v-3.2H88V30c0,5.3-1.6,8.7-7.4,8.7c-4.8,0-6.3-3.2-6.3-6.2V15h-4.6V12.5z"/>
		<path class="st1" d="M100.8,16.8h0.1c2.1-3.2,5.4-5.2,9.6-5.2c5.7,0,8.8,3.8,8.8,9.4v11.8c0,1.7,0.4,2.5,2.2,2.5h3.3v2.6h-15.2
			v-2.6h3c1.8,0,2.2-0.8,2.2-2.5V20.7c0-3.8-1.4-6-5.6-6c-5.2,0-8.2,4.1-8.2,8.5v9.7c0,1.7,0.4,2.5,2.2,2.5h3.3v2.6H90.4v-2.6H94
			c1.8,0,2.2-0.8,2.2-2.5v-26c0-1.7-0.4-2.5-2.2-2.5h-3.5V1.8h10.3V16.8z"/>
		<path class="st1" d="M132.1,25.5c0,5.6,1.2,10.7,7.6,10.7c4.4,0,7-2.3,8.2-6.5h3.2c-1.2,5.9-5,9.1-11.4,9.1
			c-8.1,0-12.7-4.6-12.7-13.6s4.7-13.6,12.7-13.6c8.8,0,11.6,6.2,12.1,13.9H132.1z M146.6,23c0-4.7-2.1-8.8-7.1-8.8
			c-5.1,0-7.4,4-7.4,8.8H146.6z"/>
		<path class="st1" d="M157.7,27.7c0.8,5.2,5,8.5,10.1,8.5c3.3,0,5.7-1.6,5.7-4.2c0-7-18.3-1.6-18.3-12.8c0-5.4,5-7.5,9.7-7.5
			c3,0,6.2,1.1,8.4,3.1l1-2.6h2.4v10h-2.6c-0.6-4.8-4.7-8-9.2-8c-2.4,0-5.2,0.8-5.2,4.4c0,6.5,18.3,1.6,18.3,12.3
			c0,5.7-5.1,7.9-10.1,7.9c-3.4,0-6.8-1-9.3-3.4l-1,2.8h-2.8V27.7H157.7z"/>
		<path class="st1" d="M202.7,33h-0.1c-2,3.6-4.2,5.7-9,5.7c-8.2,0-11.8-6.9-11.8-13.6s3.6-13.6,11.8-13.6c3.5,0,7.2,2,9,5.4h0.1
			V7.5c0-1.8-0.7-3.1-2.5-3.1h-2.8V1.8h10v31.6c0,1.3,0.8,2,2,2h3.2v2.6h-9.8V33z M186.9,25.2c0,6.2,2.2,10.5,7.2,10.5
			c6.2,0,8.4-5.1,8.4-10.5c0-5.4-2.2-10.5-7.8-10.5C189.2,14.7,186.9,19.8,186.9,25.2z"/>
		<path class="st1" d="M236.6,33.3c0,1.6,0.4,2.9,1.4,2.9c2.3,0,2.6-3,2.6-4.6v-2.3h2.6v1.6c0,5.8-2,7.9-6.1,7.9
			c-2.7,0-4.4-1.6-4.8-4.2c-2.7,2.9-5.7,4.2-9.6,4.2c-4.4,0-8-2-8-6.8c0-7.1,9.8-7,15.3-9.6c1.7-0.8,2.1-1.9,2.1-3.5
			c0-3.1-1.4-4.7-6.1-4.7c-2.1,0-4.8,0.3-6.4,2.1c1.6,0.3,2.5,1.1,2.5,2.8c0,2.1-1.7,2.9-3.3,2.9c-1.9,0-2.8-1.7-2.8-3.9
			c0-4.6,6.2-6.5,10.3-6.5c6.3,0,10.3,1.9,10.3,8.9V33.3z M232,24.1c-2.3,1.4-4.8,1.9-8.1,3.3c-2.9,1.3-4.1,2.4-4.1,4.4
			c0,2.8,1.5,4.5,4.3,4.5c3.6,0,7.9-3.4,7.9-7.1V24.1z"/>
	</g>
</g>
<g>
</g>
<g>
</g>
<g>
</g>
<g>
</g>
<g>
</g>
<g>
</g>
</svg>
