<?xml version="1.0" encoding="utf-8"?>
<!-- Generator: Adobe Illustrator 19.1.0, SVG Export Plug-In . SVG Version: 6.00 Build 0)  -->
<!DOCTYPE svg PUBLIC "-//W3C//DTD SVG 1.1//EN" "http://www.w3.org/Graphics/SVG/1.1/DTD/svg11.dtd">
<svg version="1.1" id="Layer_1" xmlns="http://www.w3.org/2000/svg" xmlns:xlink="http://www.w3.org/1999/xlink" x="0px" y="0px"
	 viewBox="0 0 246.6 110.6" style="enable-background:new 0 0 246.6 110.6;" xml:space="preserve">
<style type="text/css">
	.st0{fill:#6D6E71;}
	.st1{fill:#6CB33F;}
</style>
<g>
	<g>
		<path class="st0" d="M10.6,87.1c1.6,0,2.9,0.4,3.8,1.2c0.9,0.8,1.4,1.9,1.4,3.2c0,1-0.2,1.9-0.7,2.7c-0.5,0.8-1.2,1.3-2.2,1.6v0
			c0.5,0.1,0.9,0.3,1.2,0.5c0.3,0.2,0.6,0.5,0.7,0.8c0.2,0.3,0.3,0.6,0.4,1c0.1,0.4,0.2,0.8,0.2,1.2c0,0.4,0.1,0.8,0.1,1.3
			c0,0.4,0.1,0.8,0.1,1.3c0.1,0.4,0.2,0.8,0.3,1.2c0.1,0.4,0.3,0.7,0.5,1h-2.5c-0.2-0.2-0.3-0.4-0.3-0.7c-0.1-0.3-0.1-0.6-0.1-1
			c0-0.4,0-0.8,0-1.2c0-0.4-0.1-0.8-0.1-1.3c-0.1-0.4-0.1-0.8-0.2-1.2c-0.1-0.4-0.2-0.7-0.5-1c-0.2-0.3-0.5-0.5-0.8-0.7
			c-0.3-0.2-0.8-0.2-1.3-0.2H4.9v7.2H2.7V87.1H10.6z M11.1,94.7c0.5-0.1,0.9-0.2,1.2-0.5c0.4-0.2,0.6-0.5,0.9-0.9
			c0.2-0.4,0.3-0.9,0.3-1.5c0-0.9-0.2-1.5-0.7-2.1c-0.5-0.5-1.2-0.8-2.3-0.8H4.9v5.9h4.7C10.1,94.9,10.6,94.8,11.1,94.7z"/>
		<path class="st0" d="M27.6,103.2c-0.9,0.7-2.1,1-3.5,1c-1,0-1.8-0.2-2.6-0.5c-0.7-0.3-1.3-0.8-1.8-1.3c-0.5-0.6-0.9-1.2-1.1-2
			c-0.2-0.8-0.4-1.6-0.4-2.6c0-0.9,0.1-1.8,0.4-2.6c0.3-0.8,0.7-1.4,1.2-2c0.5-0.6,1.1-1,1.8-1.3c0.7-0.3,1.5-0.5,2.3-0.5
			c1.1,0,2,0.2,2.7,0.7c0.7,0.4,1.3,1,1.7,1.7c0.4,0.7,0.7,1.5,0.9,2.3c0.2,0.8,0.2,1.6,0.2,2.3h-9.2c0,0.5,0,1,0.2,1.5
			c0.1,0.5,0.4,0.9,0.7,1.3c0.3,0.4,0.7,0.7,1.2,0.9c0.5,0.2,1.1,0.3,1.7,0.3c0.9,0,1.6-0.2,2.1-0.6c0.5-0.4,0.9-1,1.1-1.8h2
			C29.2,101.5,28.6,102.5,27.6,103.2z M27.2,95.3c-0.2-0.4-0.4-0.8-0.7-1.1c-0.3-0.3-0.7-0.5-1.1-0.7c-0.4-0.2-0.9-0.3-1.4-0.3
			c-0.5,0-1,0.1-1.4,0.3c-0.4,0.2-0.8,0.4-1.1,0.7c-0.3,0.3-0.5,0.7-0.7,1.1c-0.2,0.4-0.3,0.9-0.3,1.3h7.1
			C27.4,96.2,27.3,95.8,27.2,95.3z"/>
		<path class="st0" d="M33.6,101.2c0.2,0.3,0.4,0.6,0.7,0.7c0.3,0.2,0.7,0.3,1,0.4c0.4,0.1,0.8,0.1,1.2,0.1c0.3,0,0.6,0,1-0.1
			c0.3,0,0.7-0.1,1-0.3c0.3-0.1,0.5-0.3,0.7-0.6c0.2-0.2,0.3-0.6,0.3-0.9c0-0.5-0.2-0.9-0.6-1.2c-0.4-0.3-0.9-0.5-1.5-0.7
			c-0.6-0.2-1.2-0.3-1.9-0.4c-0.7-0.1-1.3-0.3-1.9-0.6c-0.6-0.2-1.1-0.6-1.5-1c-0.4-0.4-0.6-1.1-0.6-1.8c0-0.6,0.1-1.1,0.4-1.6
			c0.3-0.4,0.6-0.8,1.1-1.1c0.4-0.3,0.9-0.5,1.5-0.6c0.5-0.1,1.1-0.2,1.6-0.2c0.7,0,1.3,0.1,1.9,0.2c0.6,0.1,1.1,0.3,1.6,0.6
			c0.5,0.3,0.8,0.7,1.1,1.2c0.3,0.5,0.4,1.1,0.5,1.9h-2c0-0.4-0.1-0.7-0.3-1c-0.2-0.3-0.4-0.5-0.7-0.6c-0.3-0.2-0.6-0.3-0.9-0.3
			c-0.3-0.1-0.7-0.1-1-0.1c-0.3,0-0.6,0-0.9,0.1c-0.3,0-0.6,0.1-0.8,0.2c-0.3,0.1-0.5,0.3-0.6,0.5c-0.2,0.2-0.2,0.5-0.2,0.8
			c0,0.3,0.1,0.6,0.4,0.9c0.2,0.2,0.6,0.4,0.9,0.6c0.4,0.1,0.8,0.3,1.3,0.4c0.5,0.1,1,0.2,1.4,0.3c0.5,0.1,1,0.2,1.5,0.4
			c0.5,0.2,0.9,0.4,1.3,0.6c0.4,0.3,0.7,0.6,0.9,1c0.2,0.4,0.3,0.9,0.3,1.5c0,0.7-0.2,1.4-0.5,1.8c-0.3,0.5-0.7,0.9-1.2,1.2
			c-0.5,0.3-1.1,0.5-1.7,0.6c-0.6,0.1-1.2,0.2-1.9,0.2c-0.7,0-1.3-0.1-1.9-0.2c-0.6-0.1-1.2-0.4-1.6-0.7c-0.5-0.3-0.9-0.7-1.1-1.3
			c-0.3-0.5-0.4-1.2-0.5-1.9h2C33.3,100.6,33.4,100.9,33.6,101.2z"/>
		<path class="st0" d="M44.4,89.5v-2.5h2v2.5H44.4z M46.4,91.7V104h-2V91.7H46.4z"/>
		<path class="st0" d="M58.9,104v-1.7h0c-0.3,0.7-0.9,1.2-1.6,1.5c-0.7,0.3-1.5,0.4-2.4,0.4c-1,0-1.8-0.2-2.5-0.5
			c-0.7-0.3-1.3-0.8-1.8-1.4c-0.5-0.6-0.8-1.3-1.1-2c-0.2-0.8-0.4-1.6-0.4-2.5c0-0.9,0.1-1.7,0.3-2.5c0.2-0.8,0.6-1.4,1-2
			c0.5-0.6,1.1-1,1.8-1.4c0.7-0.3,1.5-0.5,2.5-0.5c0.3,0,0.7,0,1,0.1c0.4,0.1,0.7,0.2,1.1,0.3c0.4,0.2,0.7,0.3,1,0.6
			c0.3,0.2,0.6,0.5,0.8,0.9h0v-6.3h2V104H58.9z M51.6,99.6c0.2,0.5,0.4,1,0.7,1.5c0.3,0.4,0.7,0.8,1.2,1c0.5,0.3,1,0.4,1.7,0.4
			c0.7,0,1.3-0.1,1.7-0.4c0.5-0.3,0.9-0.6,1.2-1.1c0.3-0.4,0.5-0.9,0.7-1.5c0.1-0.6,0.2-1.1,0.2-1.7c0-0.6-0.1-1.2-0.2-1.7
			c-0.1-0.6-0.4-1.1-0.7-1.5c-0.3-0.4-0.7-0.8-1.2-1c-0.5-0.3-1.1-0.4-1.8-0.4c-0.7,0-1.3,0.1-1.7,0.4c-0.5,0.3-0.9,0.6-1.1,1.1
			c-0.3,0.4-0.5,0.9-0.6,1.5c-0.1,0.6-0.2,1.2-0.2,1.7C51.4,98.5,51.5,99.1,51.6,99.6z"/>
		<path class="st0" d="M73.1,103.2c-0.9,0.7-2.1,1-3.5,1c-1,0-1.8-0.2-2.6-0.5c-0.7-0.3-1.3-0.8-1.8-1.3c-0.5-0.6-0.9-1.2-1.1-2
			c-0.2-0.8-0.4-1.6-0.4-2.6c0-0.9,0.1-1.8,0.4-2.6c0.3-0.8,0.7-1.4,1.2-2c0.5-0.6,1.1-1,1.8-1.3c0.7-0.3,1.5-0.5,2.3-0.5
			c1.1,0,2,0.2,2.7,0.7c0.7,0.4,1.3,1,1.7,1.7c0.4,0.7,0.7,1.5,0.9,2.3c0.2,0.8,0.2,1.6,0.2,2.3h-9.2c0,0.5,0,1,0.2,1.5
			c0.1,0.5,0.4,0.9,0.7,1.3c0.3,0.4,0.7,0.7,1.2,0.9c0.5,0.2,1.1,0.3,1.7,0.3c0.9,0,1.6-0.2,2.1-0.6c0.5-0.4,0.9-1,1.1-1.8h2
			C74.6,101.5,74,102.5,73.1,103.2z M72.6,95.3c-0.2-0.4-0.4-0.8-0.7-1.1c-0.3-0.3-0.7-0.5-1.1-0.7c-0.4-0.2-0.9-0.3-1.4-0.3
			c-0.5,0-1,0.1-1.4,0.3c-0.4,0.2-0.8,0.4-1.1,0.7c-0.3,0.3-0.5,0.7-0.7,1.1c-0.2,0.4-0.3,0.9-0.3,1.3h7.1
			C72.9,96.2,72.8,95.8,72.6,95.3z"/>
		<path class="st0" d="M79.4,91.7v1.9h0c0.8-1.5,2.2-2.2,4-2.2c0.8,0,1.5,0.1,2,0.3c0.5,0.2,1,0.5,1.3,0.9c0.3,0.4,0.6,0.9,0.7,1.4
			c0.1,0.5,0.2,1.1,0.2,1.8v8h-2v-8.3c0-0.8-0.2-1.4-0.7-1.8c-0.4-0.4-1.1-0.7-1.8-0.7c-0.6,0-1.2,0.1-1.6,0.3
			c-0.5,0.2-0.8,0.5-1.1,0.8c-0.3,0.3-0.5,0.8-0.7,1.2c-0.2,0.5-0.2,1-0.2,1.5v6.9h-2V91.7H79.4z"/>
		<path class="st0" d="M96.3,91.7v1.8h-2.4v7.6c0,0.2,0,0.4,0.1,0.6c0,0.1,0.1,0.3,0.2,0.3c0.1,0.1,0.3,0.1,0.5,0.2
			c0.2,0,0.5,0,0.8,0h0.9v1.8h-1.5c-0.5,0-1,0-1.3-0.1c-0.4-0.1-0.7-0.2-0.9-0.4c-0.2-0.2-0.4-0.5-0.5-0.8c-0.1-0.3-0.2-0.8-0.2-1.4
			v-7.8h-2.1v-1.8h2.1v-3.7h2v3.7H96.3z"/>
		<path class="st0" d="M99,89.5v-2.5h2v2.5H99z M101,91.7V104h-2V91.7H101z"/>
		<path class="st0" d="M113.9,104.2c-0.5,0-0.9-0.1-1.2-0.4c-0.3-0.3-0.5-0.8-0.5-1.4c-0.6,0.7-1.2,1.1-1.9,1.4
			c-0.7,0.3-1.5,0.4-2.4,0.4c-0.6,0-1.1-0.1-1.6-0.2c-0.5-0.1-0.9-0.3-1.3-0.6c-0.4-0.3-0.7-0.6-0.9-1.1c-0.2-0.4-0.3-1-0.3-1.6
			c0-0.7,0.1-1.3,0.4-1.7c0.2-0.4,0.5-0.8,0.9-1.1c0.4-0.3,0.8-0.5,1.3-0.6c0.5-0.1,1-0.3,1.5-0.4c0.6-0.1,1.1-0.2,1.6-0.2
			c0.5-0.1,0.9-0.1,1.3-0.2c0.4-0.1,0.7-0.3,0.9-0.4c0.2-0.2,0.3-0.5,0.3-0.9c0-0.4-0.1-0.8-0.2-1.1c-0.2-0.3-0.4-0.5-0.6-0.6
			c-0.3-0.1-0.6-0.2-0.9-0.3c-0.3,0-0.6-0.1-1-0.1c-0.9,0-1.6,0.2-2.1,0.5c-0.6,0.3-0.9,0.9-0.9,1.8h-2c0-0.8,0.2-1.4,0.5-1.9
			c0.3-0.5,0.7-0.9,1.1-1.3c0.5-0.3,1-0.6,1.6-0.7c0.6-0.1,1.3-0.2,1.9-0.2c0.6,0,1.1,0,1.7,0.1c0.5,0.1,1,0.2,1.5,0.5
			c0.4,0.2,0.8,0.6,1.1,1c0.3,0.4,0.4,1,0.4,1.7v6.3c0,0.5,0,0.8,0.1,1c0.1,0.2,0.2,0.3,0.6,0.3c0.2,0,0.4,0,0.6-0.1v1.6
			C115,104.1,114.6,104.2,113.9,104.2z M111.1,98.1c-0.4,0.1-0.8,0.2-1.3,0.2c-0.5,0.1-0.9,0.1-1.4,0.2c-0.5,0.1-0.9,0.2-1.2,0.3
			c-0.4,0.2-0.7,0.4-0.9,0.7c-0.2,0.3-0.3,0.7-0.3,1.2c0,0.3,0.1,0.6,0.2,0.8c0.1,0.2,0.3,0.4,0.5,0.6c0.2,0.1,0.5,0.2,0.8,0.3
			c0.3,0.1,0.6,0.1,0.9,0.1c0.7,0,1.2-0.1,1.7-0.3c0.5-0.2,0.9-0.4,1.2-0.7c0.3-0.3,0.5-0.6,0.7-0.9c0.1-0.3,0.2-0.6,0.2-0.9v-2.1
			C111.9,97.8,111.5,98,111.1,98.1z"/>
		<path class="st0" d="M119.8,87.1V104h-2V87.1H119.8z"/>
		<path class="st0" d="M137.6,87.1l6.6,16.9h-2.5l-1.9-5.1h-7.2l-1.9,5.1h-2.3l6.6-16.9H137.6z M139.2,97l-2.8-7.9h0l-2.9,7.9H139.2
			z"/>
		<path class="st0" d="M155.2,107.4c-0.9,1-2.4,1.5-4.3,1.5c-0.6,0-1.2-0.1-1.7-0.2c-0.6-0.1-1.1-0.3-1.6-0.6
			c-0.5-0.3-0.9-0.7-1.2-1.1c-0.3-0.5-0.5-1-0.5-1.7h2c0,0.4,0.1,0.7,0.3,0.9c0.2,0.3,0.5,0.5,0.8,0.6c0.3,0.2,0.6,0.3,1,0.3
			c0.4,0.1,0.7,0.1,1,0.1c0.7,0,1.2-0.1,1.7-0.3c0.5-0.2,0.8-0.5,1.1-0.9c0.3-0.4,0.5-0.9,0.7-1.5c0.1-0.6,0.2-1.2,0.2-1.9v-0.8h0
			c-0.3,0.8-0.9,1.3-1.6,1.7c-0.7,0.4-1.5,0.5-2.2,0.5c-0.9,0-1.7-0.2-2.4-0.5c-0.7-0.3-1.3-0.8-1.7-1.3c-0.5-0.6-0.8-1.2-1-2
			c-0.2-0.7-0.3-1.5-0.3-2.4c0-0.7,0.1-1.5,0.3-2.2c0.2-0.8,0.5-1.5,1-2.1c0.4-0.6,1-1.1,1.8-1.5c0.7-0.4,1.6-0.6,2.7-0.6
			c0.8,0,1.5,0.2,2.1,0.5c0.6,0.3,1.2,0.8,1.5,1.5h0v-1.7h1.9v11.2C156.6,104.9,156.1,106.4,155.2,107.4z M152.6,101.9
			c0.5-0.3,0.8-0.6,1.1-1.1c0.3-0.5,0.5-1,0.6-1.5c0.1-0.6,0.2-1.1,0.2-1.7c0-0.5-0.1-1.1-0.2-1.6c-0.1-0.5-0.3-1-0.6-1.4
			c-0.3-0.4-0.6-0.8-1.1-1c-0.4-0.3-1-0.4-1.6-0.4c-0.6,0-1.2,0.1-1.7,0.4c-0.5,0.2-0.8,0.6-1.1,1c-0.3,0.4-0.5,0.9-0.6,1.4
			c-0.1,0.5-0.2,1.1-0.2,1.7c0,0.6,0.1,1.1,0.2,1.7c0.1,0.6,0.3,1,0.6,1.5c0.3,0.4,0.6,0.8,1.1,1.1c0.4,0.3,1,0.4,1.7,0.4
			C151.6,102.3,152.1,102.2,152.6,101.9z"/>
		<path class="st0" d="M168.6,103.2c-0.9,0.7-2.1,1-3.5,1c-1,0-1.8-0.2-2.6-0.5c-0.7-0.3-1.3-0.8-1.8-1.3c-0.5-0.6-0.9-1.2-1.1-2
			c-0.2-0.8-0.4-1.6-0.4-2.6c0-0.9,0.1-1.8,0.4-2.6c0.3-0.8,0.7-1.4,1.2-2c0.5-0.6,1.1-1,1.8-1.3c0.7-0.3,1.5-0.5,2.3-0.5
			c1.1,0,2,0.2,2.7,0.7c0.7,0.4,1.3,1,1.7,1.7c0.4,0.7,0.7,1.5,0.9,2.3c0.2,0.8,0.2,1.6,0.2,2.3h-9.2c0,0.5,0,1,0.2,1.5
			c0.1,0.5,0.4,0.9,0.7,1.3c0.3,0.4,0.7,0.7,1.2,0.9c0.5,0.2,1.1,0.3,1.7,0.3c0.9,0,1.6-0.2,2.1-0.6c0.5-0.4,0.9-1,1.1-1.8h2
			C170.2,101.5,169.6,102.5,168.6,103.2z M168.2,95.3c-0.2-0.4-0.4-0.8-0.7-1.1c-0.3-0.3-0.7-0.5-1.1-0.7c-0.4-0.2-0.9-0.3-1.4-0.3
			c-0.5,0-1,0.1-1.4,0.3c-0.4,0.2-0.8,0.4-1.1,0.7c-0.3,0.3-0.5,0.7-0.7,1.1c-0.2,0.4-0.3,0.9-0.3,1.3h7.1
			C168.4,96.2,168.3,95.8,168.2,95.3z"/>
		<path class="st0" d="M182,104v-1.7h0c-0.3,0.7-0.9,1.2-1.6,1.5c-0.7,0.3-1.5,0.4-2.4,0.4c-1,0-1.8-0.2-2.5-0.5
			c-0.7-0.3-1.3-0.8-1.8-1.4c-0.5-0.6-0.8-1.3-1.1-2c-0.2-0.8-0.4-1.6-0.4-2.5c0-0.9,0.1-1.7,0.3-2.5c0.2-0.8,0.6-1.4,1-2
			c0.5-0.6,1.1-1,1.8-1.4c0.7-0.3,1.5-0.5,2.5-0.5c0.3,0,0.7,0,1,0.1c0.4,0.1,0.7,0.2,1.1,0.3c0.4,0.2,0.7,0.3,1,0.6
			c0.3,0.2,0.6,0.5,0.8,0.9h0v-6.3h2V104H182z M174.8,99.6c0.2,0.5,0.4,1,0.7,1.5c0.3,0.4,0.7,0.8,1.2,1c0.5,0.3,1,0.4,1.7,0.4
			c0.7,0,1.3-0.1,1.7-0.4c0.5-0.3,0.9-0.6,1.2-1.1c0.3-0.4,0.5-0.9,0.7-1.5c0.1-0.6,0.2-1.1,0.2-1.7c0-0.6-0.1-1.2-0.2-1.7
			c-0.1-0.6-0.4-1.1-0.7-1.5c-0.3-0.4-0.7-0.8-1.2-1c-0.5-0.3-1.1-0.4-1.8-0.4c-0.7,0-1.3,0.1-1.7,0.4c-0.5,0.3-0.9,0.6-1.1,1.1
			c-0.3,0.4-0.5,0.9-0.6,1.5c-0.1,0.6-0.2,1.2-0.2,1.7C174.5,98.5,174.6,99.1,174.8,99.6z"/>
		<path class="st0" d="M205,89.5c-0.9-0.6-1.9-0.9-3.1-0.9c-1,0-1.9,0.2-2.6,0.6c-0.7,0.4-1.3,0.9-1.8,1.5c-0.5,0.6-0.8,1.4-1,2.2
			c-0.2,0.8-0.3,1.7-0.3,2.6c0,1,0.1,1.9,0.3,2.7c0.2,0.9,0.6,1.6,1,2.2c0.5,0.6,1.1,1.1,1.8,1.5c0.7,0.4,1.6,0.6,2.6,0.6
			c0.7,0,1.4-0.1,2-0.4c0.6-0.2,1.1-0.6,1.5-1c0.4-0.4,0.7-0.9,1-1.5c0.2-0.6,0.4-1.2,0.4-1.9h2.3c-0.2,2.1-1,3.8-2.2,5
			c-1.3,1.2-3,1.8-5.1,1.8c-1.3,0-2.5-0.2-3.4-0.7c-1-0.5-1.8-1.1-2.4-1.9c-0.6-0.8-1.1-1.7-1.5-2.8c-0.3-1.1-0.5-2.2-0.5-3.5
			c0-1.2,0.2-2.4,0.5-3.5c0.3-1.1,0.9-2,1.5-2.8c0.7-0.8,1.5-1.4,2.5-1.9c1-0.5,2.2-0.7,3.5-0.7c0.9,0,1.7,0.1,2.5,0.4
			c0.8,0.2,1.5,0.6,2.1,1c0.6,0.5,1.1,1,1.5,1.7c0.4,0.7,0.7,1.5,0.8,2.4h-2.3C206.5,91,205.9,90.1,205,89.5z"/>
		<path class="st0" d="M221.4,104.2c-0.5,0-0.9-0.1-1.2-0.4c-0.3-0.3-0.5-0.8-0.5-1.4c-0.6,0.7-1.2,1.1-1.9,1.4
			c-0.7,0.3-1.5,0.4-2.4,0.4c-0.6,0-1.1-0.1-1.6-0.2c-0.5-0.1-0.9-0.3-1.3-0.6c-0.4-0.3-0.7-0.6-0.9-1.1c-0.2-0.4-0.3-1-0.3-1.6
			c0-0.7,0.1-1.3,0.4-1.7c0.2-0.4,0.5-0.8,0.9-1.1c0.4-0.3,0.8-0.5,1.3-0.6c0.5-0.1,1-0.3,1.5-0.4c0.6-0.1,1.1-0.2,1.6-0.2
			c0.5-0.1,0.9-0.1,1.3-0.2c0.4-0.1,0.7-0.3,0.9-0.4c0.2-0.2,0.3-0.5,0.3-0.9c0-0.4-0.1-0.8-0.2-1.1c-0.2-0.3-0.4-0.5-0.6-0.6
			c-0.3-0.1-0.6-0.2-0.9-0.3c-0.3,0-0.6-0.1-1-0.1c-0.9,0-1.6,0.2-2.1,0.5c-0.6,0.3-0.9,0.9-0.9,1.8h-2c0-0.8,0.2-1.4,0.5-1.9
			c0.3-0.5,0.7-0.9,1.1-1.3c0.5-0.3,1-0.6,1.6-0.7c0.6-0.1,1.3-0.2,1.9-0.2c0.6,0,1.1,0,1.7,0.1c0.5,0.1,1,0.2,1.5,0.5
			c0.4,0.2,0.8,0.6,1.1,1c0.3,0.4,0.4,1,0.4,1.7v6.3c0,0.5,0,0.8,0.1,1c0.1,0.2,0.2,0.3,0.6,0.3c0.2,0,0.4,0,0.6-0.1v1.6
			C222.5,104.1,222,104.2,221.4,104.2z M218.6,98.1c-0.4,0.1-0.8,0.2-1.3,0.2c-0.5,0.1-0.9,0.1-1.4,0.2c-0.5,0.1-0.9,0.2-1.2,0.3
			c-0.4,0.2-0.7,0.4-0.9,0.7c-0.2,0.3-0.3,0.7-0.3,1.2c0,0.3,0.1,0.6,0.2,0.8c0.1,0.2,0.3,0.4,0.5,0.6c0.2,0.1,0.5,0.2,0.8,0.3
			c0.3,0.1,0.6,0.1,0.9,0.1c0.7,0,1.2-0.1,1.7-0.3c0.5-0.2,0.9-0.4,1.2-0.7c0.3-0.3,0.5-0.6,0.7-0.9c0.1-0.3,0.2-0.6,0.2-0.9v-2.1
			C219.3,97.8,219,98,218.6,98.1z"/>
		<path class="st0" d="M226.9,91.7v2.6h0c0.5-1,1.1-1.7,1.8-2.2c0.7-0.5,1.6-0.7,2.7-0.7v2.1c-0.8,0-1.5,0.1-2.1,0.3
			c-0.6,0.2-1,0.5-1.4,1c-0.3,0.4-0.6,0.9-0.8,1.5c-0.2,0.6-0.2,1.3-0.2,2.1v5.4h-2V91.7H226.9z"/>
		<path class="st0" d="M241.6,103.2c-0.9,0.7-2.1,1-3.5,1c-1,0-1.8-0.2-2.6-0.5c-0.7-0.3-1.3-0.8-1.8-1.3c-0.5-0.6-0.9-1.2-1.1-2
			c-0.2-0.8-0.4-1.6-0.4-2.6c0-0.9,0.1-1.8,0.4-2.6c0.3-0.8,0.7-1.4,1.2-2c0.5-0.6,1.1-1,1.8-1.3c0.7-0.3,1.5-0.5,2.3-0.5
			c1.1,0,2,0.2,2.7,0.7c0.7,0.4,1.3,1,1.7,1.7c0.4,0.7,0.7,1.5,0.9,2.3c0.2,0.8,0.2,1.6,0.2,2.3h-9.2c0,0.5,0,1,0.2,1.5
			c0.1,0.5,0.4,0.9,0.7,1.3c0.3,0.4,0.7,0.7,1.2,0.9c0.5,0.2,1.1,0.3,1.7,0.3c0.9,0,1.6-0.2,2.1-0.6c0.5-0.4,0.9-1,1.1-1.8h2
			C243.1,101.5,242.5,102.5,241.6,103.2z M241.1,95.3c-0.2-0.4-0.4-0.8-0.7-1.1c-0.3-0.3-0.7-0.5-1.1-0.7c-0.4-0.2-0.9-0.3-1.4-0.3
			c-0.5,0-1,0.1-1.4,0.3c-0.4,0.2-0.8,0.4-1.1,0.7c-0.3,0.3-0.5,0.7-0.7,1.1c-0.2,0.4-0.3,0.9-0.3,1.3h7.1
			C241.4,96.2,241.3,95.8,241.1,95.3z"/>
	</g>
	<g>
		<path d="M11.3,59.2c1.9,0,3.4,0.5,4.4,1.5c1,1,1.5,2.4,1.5,4.2c0,1.8-0.5,3.2-1.5,4.2c-1,1-2.5,1.5-4.4,1.5H5.5v7.8H2.9V59.2H11.3
			z M10.5,68.4c1.5,0,2.5-0.3,3.2-0.9c0.7-0.6,1-1.5,1-2.6c0-1.1-0.3-2-1-2.6c-0.7-0.6-1.7-0.9-3.2-0.9h-5v7H10.5z"/>
		<path d="M20.3,65c0.4-1.2,1-2.3,1.7-3.2c0.8-0.9,1.7-1.7,2.9-2.2c1.1-0.6,2.5-0.8,4-0.8s2.9,0.3,4,0.8c1.1,0.6,2.1,1.3,2.9,2.2
			c0.8,0.9,1.4,2,1.7,3.2c0.4,1.2,0.6,2.5,0.6,3.8c0,1.3-0.2,2.6-0.6,3.8c-0.4,1.2-1,2.3-1.7,3.2c-0.8,0.9-1.7,1.7-2.9,2.2
			c-1.1,0.5-2.5,0.8-4,0.8s-2.9-0.3-4-0.8c-1.1-0.5-2.1-1.3-2.9-2.2c-0.8-0.9-1.4-2-1.7-3.2c-0.4-1.2-0.6-2.5-0.6-3.8
			C19.7,67.5,19.9,66.2,20.3,65z M22.6,71.6c0.3,0.9,0.6,1.8,1.2,2.5c0.5,0.8,1.2,1.4,2.1,1.8c0.8,0.5,1.8,0.7,3,0.7
			c1.2,0,2.2-0.2,3-0.7c0.8-0.5,1.5-1.1,2.1-1.8c0.5-0.8,0.9-1.6,1.2-2.5c0.3-0.9,0.4-1.9,0.4-2.9c0-1-0.1-1.9-0.4-2.9
			c-0.3-0.9-0.6-1.8-1.2-2.5c-0.5-0.8-1.2-1.4-2.1-1.8c-0.8-0.5-1.8-0.7-3-0.7c-1.2,0-2.2,0.2-3,0.7c-0.8,0.5-1.5,1.1-2.1,1.8
			c-0.5,0.7-0.9,1.6-1.2,2.5c-0.3,0.9-0.4,1.9-0.4,2.9C22.2,69.7,22.4,70.7,22.6,71.6z"/>
		<path d="M50.7,59.2c1.8,0,3.3,0.4,4.3,1.3c1,0.9,1.5,2.1,1.5,3.7c0,1.2-0.3,2.2-0.8,3.1c-0.5,0.9-1.4,1.5-2.5,1.8v0.1
			c0.6,0.1,1,0.3,1.4,0.5c0.3,0.2,0.6,0.5,0.8,0.9c0.2,0.3,0.4,0.7,0.5,1.2c0.1,0.4,0.2,0.9,0.2,1.3c0,0.5,0.1,0.9,0.1,1.4
			c0,0.5,0.1,1,0.1,1.4c0.1,0.5,0.2,0.9,0.3,1.3c0.1,0.4,0.3,0.8,0.6,1.1h-2.9c-0.2-0.2-0.3-0.5-0.4-0.8c-0.1-0.3-0.1-0.7-0.1-1.1
			c0-0.4,0-0.9-0.1-1.4c0-0.5-0.1-1-0.2-1.4c-0.1-0.5-0.2-0.9-0.3-1.3c-0.1-0.4-0.3-0.8-0.5-1.1c-0.2-0.3-0.5-0.6-0.9-0.8
			c-0.4-0.2-0.9-0.3-1.5-0.3h-6.2v8.2h-2.6V59.2H50.7z M51.2,67.9c0.5-0.1,1-0.3,1.4-0.5c0.4-0.3,0.7-0.6,1-1c0.2-0.4,0.4-1,0.4-1.7
			c0-1-0.3-1.8-0.8-2.4c-0.5-0.6-1.4-0.9-2.6-0.9h-6.4V68h5.3C50.1,68,50.7,68,51.2,67.9z"/>
		<path d="M57.9,61.4v-2.1h15.4v2.1h-6.4v17h-2.6v-17H57.9z"/>
		<path d="M87.3,59.2l6.1,16.1l6.1-16.1h3.5v19.1h-2.4V62.4h-0.1l-6,15.9h-2.2l-6-15.9h-0.1v15.9h-2.4V59.2H87.3z"/>
		<path d="M115.6,59.2l7.5,19.1h-2.8l-2.1-5.8h-8.1l-2.2,5.8h-2.6l7.5-19.1H115.6z M117.4,70.4l-3.2-8.9h-0.1l-3.3,8.9H117.4z"/>
		<path d="M137,61.9c-1-0.7-2.1-1-3.5-1c-1.1,0-2.1,0.2-2.9,0.6c-0.8,0.4-1.5,1-2,1.7c-0.5,0.7-0.9,1.5-1.2,2.5
			c-0.3,0.9-0.4,1.9-0.4,2.9c0,1.1,0.1,2.1,0.4,3.1c0.3,1,0.6,1.8,1.2,2.5c0.5,0.7,1.2,1.3,2,1.7c0.8,0.4,1.8,0.6,3,0.6
			c0.8,0,1.6-0.1,2.2-0.4c0.7-0.3,1.2-0.7,1.7-1.2c0.5-0.5,0.8-1.1,1.1-1.8c0.3-0.7,0.4-1.4,0.5-2.2h2.6c-0.3,2.4-1.1,4.3-2.5,5.6
			c-1.4,1.3-3.4,2-5.8,2c-1.5,0-2.8-0.3-3.9-0.8c-1.1-0.5-2-1.2-2.8-2.1c-0.7-0.9-1.3-1.9-1.7-3.2c-0.4-1.2-0.6-2.5-0.6-3.9
			c0-1.4,0.2-2.7,0.6-3.9c0.4-1.2,1-2.3,1.7-3.2c0.8-0.9,1.7-1.6,2.9-2.2c1.1-0.5,2.4-0.8,3.9-0.8c1,0,2,0.1,2.9,0.4
			c0.9,0.3,1.7,0.7,2.4,1.2c0.7,0.5,1.3,1.2,1.7,1.9c0.5,0.8,0.8,1.7,0.9,2.7h-2.6C138.6,63.6,138,62.6,137,61.9z"/>
		<path d="M158,77.6c-1.3,0.7-2.8,1.1-4.6,1.1c-1.5,0-2.9-0.3-4-0.8c-1.1-0.5-2.1-1.3-2.9-2.2c-0.8-0.9-1.4-2-1.7-3.2
			c-0.4-1.2-0.6-2.5-0.6-3.8c0-1.3,0.2-2.6,0.6-3.8c0.4-1.2,1-2.3,1.7-3.2c0.8-0.9,1.7-1.7,2.9-2.2c1.1-0.6,2.5-0.8,4-0.8
			c1.5,0,2.9,0.3,4,0.8c1.1,0.6,2.1,1.3,2.9,2.2c0.8,0.9,1.3,2,1.7,3.2c0.4,1.2,0.6,2.5,0.6,3.8c0,1.5-0.2,2.9-0.7,4.2
			c-0.5,1.3-1.2,2.5-2.2,3.4l2.5,2l-1.3,1.6L158,77.6z M157.8,74.9c0.8-0.8,1.3-1.7,1.7-2.7c0.4-1.1,0.5-2.2,0.5-3.4
			c0-1-0.1-1.9-0.4-2.9c-0.3-0.9-0.6-1.8-1.2-2.5c-0.5-0.8-1.2-1.4-2.1-1.8c-0.8-0.5-1.8-0.7-3-0.7c-1.2,0-2.2,0.2-3,0.7
			c-0.8,0.5-1.5,1.1-2.1,1.8c-0.5,0.7-0.9,1.6-1.2,2.5c-0.3,0.9-0.4,1.9-0.4,2.9c0,1,0.1,1.9,0.4,2.9c0.3,0.9,0.6,1.8,1.2,2.5
			c0.5,0.8,1.2,1.4,2.1,1.8c0.8,0.5,1.8,0.7,3,0.7c0.9,0,1.8-0.2,2.7-0.5l-2.1-1.7l1.3-1.6L157.8,74.9z"/>
		<path d="M179.5,76.9c-1.3,1.2-3.2,1.8-5.6,1.8c-2.5,0-4.4-0.6-5.8-1.8c-1.4-1.2-2.1-3-2.1-5.6V59.2h2.6v12.2c0,1.7,0.5,3,1.4,3.9
			c0.9,0.9,2.2,1.3,4,1.3c1.6,0,2.9-0.4,3.7-1.3c0.9-0.9,1.3-2.2,1.3-3.9V59.2h2.6v12.2C181.4,73.9,180.8,75.7,179.5,76.9z"/>
		<path d="M194,59.2l7.5,19.1h-2.8l-2.1-5.8h-8.1l-2.2,5.8h-2.6l7.5-19.1H194z M195.8,70.4l-3.2-8.9h-0.1l-3.3,8.9H195.8z"/>
		<path d="M212.8,59.2c1.8,0,3.3,0.4,4.3,1.3c1,0.9,1.5,2.1,1.5,3.7c0,1.2-0.3,2.2-0.8,3.1c-0.5,0.9-1.4,1.5-2.5,1.8v0.1
			c0.6,0.1,1,0.3,1.4,0.5c0.4,0.2,0.6,0.5,0.8,0.9c0.2,0.3,0.4,0.7,0.5,1.2c0.1,0.4,0.2,0.9,0.2,1.3c0,0.5,0.1,0.9,0.1,1.4
			c0,0.5,0.1,1,0.1,1.4c0.1,0.5,0.2,0.9,0.3,1.3c0.1,0.4,0.3,0.8,0.6,1.1h-2.9c-0.2-0.2-0.3-0.5-0.4-0.8c-0.1-0.3-0.1-0.7-0.1-1.1
			c0-0.4,0-0.9-0.1-1.4c0-0.5-0.1-1-0.2-1.4c-0.1-0.5-0.2-0.9-0.3-1.3c-0.1-0.4-0.3-0.8-0.5-1.1c-0.2-0.3-0.5-0.6-0.9-0.8
			c-0.4-0.2-0.9-0.3-1.5-0.3h-6.2v8.2h-2.6V59.2H212.8z M213.4,67.9c0.5-0.1,1-0.3,1.4-0.5c0.4-0.3,0.7-0.6,1-1
			c0.2-0.4,0.4-1,0.4-1.7c0-1-0.3-1.8-0.8-2.4c-0.5-0.6-1.4-0.9-2.6-0.9h-6.4V68h5.3C212.3,68,212.8,68,213.4,67.9z"/>
		<path d="M225.3,59.2v19.1h-2.6V59.2H225.3z"/>
		<path d="M243.3,59.2v2.1h-10.7v6.1h10v2.1h-10v6.6h10.8v2.1H230V59.2H243.3z"/>
	</g>
	<g>
		<path class="st0" d="M207.3,49.6H1.7v1h205.9C207.5,50.2,207.4,49.9,207.3,49.6z"/>
		<path class="st0" d="M227.5,50.6h16.4v-1h-15.8C227.9,49.9,227.7,50.2,227.5,50.6z"/>
	</g>
	<g>
		<path class="st1" d="M2.6,37.7h4c1.9,0,3.1-1.1,3.1-3.1V7.7c0-2-0.8-3.1-2.7-3.1H2.6V1.5h23.6c7.6,0,13.4,3.1,13.4,9.6
			c0,5.7-4.6,8.1-9.6,8.9v0.1c6,0.8,11.1,3.3,11.1,10.1c0,6.6-5.2,10.4-18.1,10.4H2.6V37.7z M15.5,18.8h7.8c6.6,0,10.6-2.4,10.6-7
			c0-4.5-2.5-7.2-10.6-7.2h-7.8V18.8z M15.5,37.7H24c6,0,10.8-1.4,10.8-7.9c0-6.5-4.7-7.9-10.8-7.9h-8.5V37.7z"/>
		<path class="st1" d="M51.4,27.3c0,6,1.3,11.6,8.3,11.6c4.7,0,7.6-2.5,8.9-7.1h3.4c-1.3,6.4-5.4,9.9-12.4,9.9
			c-8.8,0-13.9-5-13.9-14.7c0-9.7,5.1-14.7,13.9-14.7c9.5,0,12.6,6.7,13.1,15.1H51.4z M67.1,24.5c0-5.1-2.3-9.5-7.7-9.5
			c-5.5,0-8,4.4-8,9.5H67.1z"/>
		<path class="st1" d="M75.6,13.1c5.6-0.8,6.6-6.7,7-11.5h3.1v11.5H94v2.8h-8.4v19.5c0,2.4,0.9,3.5,3,3.5c2.5,0,4.1-2.4,4.1-5.8
			v-3.4h2.8v2.5c0,5.7-1.7,9.5-8,9.5c-5.2,0-6.9-3.4-6.9-6.7V15.9h-5V13.1z"/>
		<path class="st1" d="M109.4,17.8h0.1c2.3-3.4,5.9-5.6,10.4-5.6c6.2,0,9.5,4.1,9.5,10.2v12.8c0,1.8,0.4,2.7,2.4,2.7h3.6v2.8h-16.6
			V38h3.3c2,0,2.4-0.9,2.4-2.7V22c0-4.1-1.5-6.5-6.1-6.5c-5.6,0-8.9,4.5-8.9,9.2v10.5c0,1.8,0.4,2.7,2.4,2.7h3.6v2.8H98.2V38h3.8
			c2,0,2.4-0.9,2.4-2.7V7c0-1.8-0.4-2.7-2.4-2.7h-3.8V1.5h11.2V17.8z"/>
		<path class="st1" d="M161.7,35.7c0,1.8,0.5,3.1,1.5,3.1c2.5,0,2.8-3.3,2.8-5v-2.5h2.8v1.7c0,6.3-2.1,8.6-6.6,8.6
			c-3,0-4.7-1.8-5.2-4.6c-2.9,3.2-6.2,4.6-10.5,4.6c-4.8,0-8.7-2.1-8.7-7.4c0-7.7,10.7-7.6,16.6-10.4c1.8-0.9,2.2-2,2.2-3.8
			c0-3.4-1.5-5.1-6.6-5.1c-2.3,0-5.2,0.4-6.9,2.3c1.8,0.3,2.7,1.2,2.7,3c0,2.3-1.9,3.1-3.6,3.1c-2.1,0-3.1-1.8-3.1-4.2
			c0-5,6.7-7,11.2-7c6.8,0,11.2,2,11.2,9.7V35.7z M156.7,25.7c-2.5,1.5-5.3,2.1-8.8,3.6c-3.2,1.4-4.5,2.7-4.5,4.7
			c0,3.1,1.7,4.9,4.7,4.9c3.9,0,8.6-3.7,8.6-7.8V25.7z"/>
		<path class="st1" d="M181.7,18.1h0.1c2.4-3.7,5.9-5.9,10.5-5.9c6.2,0,9.5,4.1,9.5,10.2v12.8c0,1.8,0.4,2.7,2.4,2.7h3.6v2.8h-16.6
			V38h3.3c2,0,2.4-0.9,2.4-2.7V22c0-4.1-1.5-6.5-6.1-6.5c-5.6,0-8.9,4.5-8.9,9.2v10.5c0,1.8,0.4,2.7,2.4,2.7h3.6v2.8h-17.2V38h3.8
			c2,0,2.4-0.9,2.4-2.7V18.6c0-1.8-0.4-2.7-2.4-2.7h-3.8v-2.8h11.2V18.1z"/>
		<path class="st1" d="M225.3,15.9H224c-2.8,0-3.6,0.2-3.6,1.2c0,0.7,0.7,2.1,1.5,4.3l5.9,13.8l6.9-16c0.2-0.5,0.4-1.1,0.4-1.9
			c0-0.9-1.2-1.4-3.6-1.4h-1.7v-2.8h14.1v2.8h-1.7c-1.7,0-3.1,1.6-4,3.7l-12.4,27.7c-1.5,3.5-5,6-9.2,6c-3.4,0-6.7-2.3-6.7-6
			c0-3.6,2.1-4.7,3.7-4.7c1.7,0,3.2,1.1,3.2,3.1c0,2.2-1.8,2.7-3.6,2.7c0.2,1.1,1.7,2.1,3.5,2.1c2.9,0,4.7-1.7,5.9-3.9l2.8-5.7
			l-10-21.9c-1-2.2-2.1-3.1-4.3-3.1H210v-2.8h15.3V15.9z"/>
	</g>
</g>
<g>
</g>
<g>
</g>
<g>
</g>
<g>
</g>
<g>
</g>
<g>
</g>
</svg>
