<?xml version="1.0" encoding="utf-8"?>
<!-- Generator: Adobe Illustrator 19.1.0, SVG Export Plug-In . SVG Version: 6.00 Build 0)  -->
<!DOCTYPE svg PUBLIC "-//W3C//DTD SVG 1.1//EN" "http://www.w3.org/Graphics/SVG/1.1/DTD/svg11.dtd">
<svg version="1.1" id="Layer_1" xmlns="http://www.w3.org/2000/svg" xmlns:xlink="http://www.w3.org/1999/xlink" x="0px" y="0px"
	 viewBox="0 0 382.7 82.2" style="enable-background:new 0 0 382.7 82.2;" xml:space="preserve">
<style type="text/css">
	.st0{fill:#6D6E71;}
	.st1{fill:#6CB33F;}
</style>
<g>
	<rect x="1.4" y="49.9" class="st0" width="380" height="1"/>
	<g>
		<path class="st1" d="M36.6,16.9h-3c-1.7-6.2-5.2-12.1-12.9-12.1c-10.4,0-13.1,7.9-13.1,18.7c0,9.2,5.3,15.6,12.7,15.6
			c6.6,0,11.7-3.8,11.7-7.1v-4.5c0-1.9-0.8-3-2.7-3h-4.7v-3h19.5v3h-3.9c-1.9,0-2.7,1.1-2.7,3v13.9h-3l-2.1-3.5
			c-3.3,3-8.9,4.4-12.2,4.4C9.6,42.2,1.4,35.5,1.4,22c0-12.3,8-20.3,18.2-20.3c4.6,0,9.3,1.5,12.5,5l1.8-4.1h2.7V16.9z"/>
		<path class="st1" d="M57.2,35.7c0,1.8,0.4,2.7,2.3,2.7h3.7v2.7h-17v-2.7H50c1.9,0,2.3-0.9,2.3-2.7V19.5c0-1.8-0.4-2.7-2.3-2.7
			h-3.7v-2.7h11V35.7z M54,8.6c-1.7,0-3.1-1.4-3.1-3.1c0-1.7,1.4-3.1,3.1-3.1c1.7,0,3.1,1.4,3.1,3.1C57.1,7.2,55.7,8.6,54,8.6z"/>
		<path class="st1" d="M76.5,35.7c0,1.8,0.4,2.7,2.3,2.7h3.7v2.7h-17v-2.7h3.7c1.9,0,2.3-0.9,2.3-2.7V8.2c0-1.8-1.4-2.7-2.3-2.7
			h-3.7V2.8h11V35.7z"/>
		<path class="st1" d="M95.7,35.7c0,1.8,0.4,2.7,2.3,2.7h3.7v2.7h-17v-2.7h3.7c1.9,0,2.3-0.9,2.3-2.7V8.2c0-1.8-1.4-2.7-2.3-2.7
			h-3.7V2.8h11V35.7z"/>
		<path class="st1" d="M130.5,41.4l-9.4-32.1c-0.8-2.7-1.3-3.4-4.2-3.4h-1.3v-3h16.1v3h-2.9c-1.3,0-2.2,0.4-2.2,1.6
			c0,0.7,0.1,1.3,0.4,2.4l6.7,24.6h0.1l8-24.2c0.2-0.6-1.4-4.4-3.5-4.4h-2.8v-3h16.7v3h-2.8c-1.2,0-2.6,0.2-2.6,1.8
			c0,0.9,0.8,3.1,1,4.1l6.6,22.5h0.1l6.9-23c0.3-0.9,0.8-2.5,0.8-3.6c0-1.7-1.2-1.8-2.7-1.8h-3v-3h14.6v3h-1.7
			c-2.2,0-3.2,1.3-3.5,2.4l-10.1,33.1h-4.6l-7.7-25.4h-0.1l-8.4,25.4H130.5z"/>
		<path class="st1" d="M193.7,36.2c0,1.7,0.5,3.1,1.5,3.1c2.5,0,2.7-3.2,2.7-4.9v-2.4h2.7v1.7c0,6.1-2.1,8.4-6.5,8.4
			c-2.9,0-4.6-1.7-5.1-4.5c-2.8,3.1-6.1,4.5-10.2,4.5c-4.7,0-8.5-2.1-8.5-7.2c0-7.5,10.4-7.4,16.2-10.1c1.8-0.9,2.2-2,2.2-3.7
			c0-3.3-1.4-5-6.5-5c-2.2,0-5.1,0.3-6.7,2.2c1.7,0.3,2.7,1.2,2.7,2.9c0,2.2-1.8,3.1-3.5,3.1c-2,0-3-1.8-3-4.1c0-4.9,6.6-6.9,11-6.9
			c6.6,0,11,2,11,9.5V36.2z M188.8,26.4c-2.5,1.4-5.1,2-8.5,3.5c-3.1,1.3-4.4,2.6-4.4,4.6c0,3,1.6,4.8,4.6,4.8
			c3.8,0,8.4-3.6,8.4-7.6V26.4z"/>
		<path class="st1" d="M213.2,19.1h0.1c2.4-3.6,4.7-5.8,9.4-5.8c3.9,0,6.7,2.4,7.7,5.8c2.6-3.7,5.4-5.8,9.7-5.8
			c7.8,0,8.8,5.2,8.8,12.5v10c0,1.8,0.4,2.7,2.3,2.7h3.3v2.7H239v-2.7h2.7c1.9,0,2.3-0.9,2.3-2.7V21.6c0-3.5-2.1-5.2-5.1-5.2
			c-4.3,0-7.8,4.6-7.8,8.3v11c0,1.8,0.4,2.7,2.3,2.7h2.7v2.7h-14.8v-2.7h2.7c1.9,0,2.3-0.9,2.3-2.7V22.3c0-3.5-1.8-5.9-5.2-5.9
			c-4.3,0-7.7,4.8-7.7,8.3v11c0,1.8,0.4,2.7,2.3,2.7h2.6v2.7h-15.9v-2.7h3.7c1.9,0,2.3-0.9,2.3-2.7V19.5c0-1.8-0.4-2.7-2.3-2.7h-3.7
			v-2.7h11V19.1z"/>
		<path class="st1" d="M267.7,35.7c0,1.8,0.4,2.7,2.3,2.7h3.7v2.7h-17v-2.7h3.7c1.9,0,2.3-0.9,2.3-2.7V19.5c0-1.8-0.4-2.7-2.3-2.7
			h-3.7v-2.7h11V35.7z M264.4,8.6c-1.7,0-3.1-1.4-3.1-3.1c0-1.7,1.4-3.1,3.1-3.1c1.7,0,3.1,1.4,3.1,3.1
			C267.6,7.2,266.1,8.6,264.4,8.6z"/>
		<path class="st1" d="M286.8,19h0.1c2.3-3.6,5.8-5.8,10.2-5.8c6.1,0,9.3,4,9.3,10v12.5c0,1.8,0.4,2.7,2.3,2.7h3.5v2.7H296v-2.7h3.2
			c1.9,0,2.3-0.9,2.3-2.7V22.8c0-4-1.5-6.3-5.9-6.3c-5.5,0-8.7,4.4-8.7,9v10.3c0,1.8,0.4,2.7,2.3,2.7h3.5v2.7h-16.8v-2.7h3.7
			c1.9,0,2.3-0.9,2.3-2.7V19.5c0-1.8-0.4-2.7-2.3-2.7h-3.7v-2.7h10.9V19z"/>
		<path class="st1" d="M337.1,35.9H337c-2.1,3.9-4.5,6.1-9.6,6.1c-8.6,0-12.5-7.3-12.5-14.4c0-7,3.8-14.4,12.5-14.4
			c3.7,0,7.6,2.1,9.6,5.7h0.1V8.8c0-1.9-0.7-3.3-2.7-3.3h-3V2.8H342v33.4c0,1.4,0.8,2.1,2.1,2.1h3.3v2.7h-10.4V35.9z M320.4,27.6
			c0,6.6,2.3,11.1,7.6,11.1c6.5,0,8.9-5.4,8.9-11.1s-2.4-11.1-8.2-11.1C322.8,16.5,320.4,21.8,320.4,27.6z"/>
		<path class="st1" d="M373.1,36.2c0,1.7,0.5,3.1,1.5,3.1c2.5,0,2.7-3.2,2.7-4.9v-2.4h2.7v1.7c0,6.1-2.1,8.4-6.5,8.4
			c-2.9,0-4.6-1.7-5.1-4.5c-2.8,3.1-6.1,4.5-10.2,4.5c-4.7,0-8.5-2.1-8.5-7.2c0-7.5,10.4-7.4,16.2-10.1c1.8-0.9,2.2-2,2.2-3.7
			c0-3.3-1.4-5-6.5-5c-2.2,0-5.1,0.3-6.7,2.2c1.7,0.3,2.7,1.2,2.7,2.9c0,2.2-1.8,3.1-3.5,3.1c-2,0-3-1.8-3-4.1c0-4.9,6.6-6.9,11-6.9
			c6.6,0,11,2,11,9.5V36.2z M368.2,26.4c-2.5,1.4-5.1,2-8.5,3.5c-3.1,1.3-4.4,2.6-4.4,4.6c0,3,1.6,4.8,4.6,4.8
			c3.8,0,8.4-3.6,8.4-7.6V26.4z"/>
	</g>
	<g>
		<g>
			<path class="st0" d="M151.5,59.6c1.6,0,2.8,0.4,3.7,1.2c0.9,0.8,1.3,1.8,1.3,3.2c0,1-0.2,1.9-0.7,2.7c-0.5,0.8-1.2,1.3-2.2,1.6v0
				c0.5,0.1,0.9,0.2,1.2,0.5c0.3,0.2,0.5,0.5,0.7,0.8c0.2,0.3,0.3,0.6,0.4,1c0.1,0.4,0.2,0.8,0.2,1.2c0,0.4,0.1,0.8,0.1,1.2
				c0,0.4,0.1,0.8,0.1,1.2c0.1,0.4,0.2,0.8,0.3,1.2c0.1,0.4,0.3,0.7,0.5,1h-2.5c-0.2-0.2-0.3-0.4-0.3-0.7c-0.1-0.3-0.1-0.6-0.1-1
				c0-0.4,0-0.8,0-1.2c0-0.4-0.1-0.8-0.1-1.2c-0.1-0.4-0.1-0.8-0.2-1.2c-0.1-0.4-0.2-0.7-0.4-1c-0.2-0.3-0.5-0.5-0.8-0.7
				c-0.3-0.2-0.8-0.2-1.3-0.2h-5.4v7.1h-2.2V59.6H151.5z M152,67.2c0.5-0.1,0.9-0.2,1.2-0.5c0.4-0.2,0.6-0.5,0.8-0.9
				c0.2-0.4,0.3-0.9,0.3-1.5c0-0.8-0.2-1.5-0.7-2.1c-0.5-0.5-1.2-0.8-2.3-0.8h-5.5v5.8h4.6C151,67.3,151.5,67.3,152,67.2z"/>
			<path class="st0" d="M168.2,75.5c-0.9,0.7-2,1-3.4,1c-1,0-1.8-0.2-2.5-0.5c-0.7-0.3-1.3-0.7-1.8-1.3c-0.5-0.6-0.8-1.2-1.1-2
				c-0.2-0.8-0.4-1.6-0.4-2.5c0-0.9,0.1-1.8,0.4-2.5c0.3-0.8,0.7-1.4,1.2-2c0.5-0.6,1.1-1,1.8-1.3c0.7-0.3,1.5-0.5,2.3-0.5
				c1.1,0,2,0.2,2.7,0.7c0.7,0.4,1.3,1,1.7,1.7c0.4,0.7,0.7,1.4,0.9,2.2c0.2,0.8,0.2,1.6,0.2,2.3h-9c0,0.5,0,1,0.2,1.5
				c0.1,0.5,0.4,0.9,0.7,1.3c0.3,0.4,0.7,0.7,1.2,0.9c0.5,0.2,1.1,0.3,1.7,0.3c0.8,0,1.5-0.2,2.1-0.6c0.5-0.4,0.9-1,1.1-1.8h2
				C169.7,73.8,169.1,74.9,168.2,75.5z M167.8,67.8c-0.2-0.4-0.4-0.8-0.7-1.1c-0.3-0.3-0.7-0.5-1.1-0.7c-0.4-0.2-0.9-0.3-1.4-0.3
				c-0.5,0-1,0.1-1.4,0.3c-0.4,0.2-0.8,0.4-1.1,0.7c-0.3,0.3-0.5,0.7-0.7,1.1c-0.2,0.4-0.3,0.9-0.3,1.3h6.9
				C168,68.6,167.9,68.2,167.8,67.8z"/>
			<path class="st0" d="M174.1,73.6c0.2,0.3,0.4,0.5,0.7,0.7c0.3,0.2,0.6,0.3,1,0.4c0.4,0.1,0.8,0.1,1.2,0.1c0.3,0,0.6,0,1-0.1
				c0.3,0,0.7-0.1,0.9-0.3c0.3-0.1,0.5-0.3,0.7-0.5c0.2-0.2,0.3-0.5,0.3-0.9c0-0.5-0.2-0.9-0.6-1.2c-0.4-0.3-0.9-0.5-1.5-0.6
				c-0.6-0.2-1.2-0.3-1.9-0.4c-0.7-0.1-1.3-0.3-1.9-0.6c-0.6-0.2-1.1-0.6-1.5-1c-0.4-0.4-0.6-1-0.6-1.8c0-0.6,0.1-1.1,0.4-1.6
				c0.3-0.4,0.6-0.8,1.1-1.1c0.4-0.3,0.9-0.5,1.4-0.6c0.5-0.1,1.1-0.2,1.6-0.2c0.7,0,1.3,0.1,1.9,0.2c0.6,0.1,1.1,0.3,1.5,0.6
				c0.4,0.3,0.8,0.7,1.1,1.2c0.3,0.5,0.4,1.1,0.5,1.8h-2c0-0.4-0.1-0.7-0.3-1c-0.2-0.3-0.4-0.5-0.7-0.6c-0.3-0.2-0.6-0.3-0.9-0.3
				c-0.3-0.1-0.6-0.1-1-0.1c-0.3,0-0.6,0-0.9,0.1c-0.3,0-0.6,0.1-0.8,0.2c-0.2,0.1-0.5,0.3-0.6,0.5c-0.2,0.2-0.2,0.4-0.2,0.8
				c0,0.3,0.1,0.6,0.4,0.9c0.2,0.2,0.5,0.4,0.9,0.6c0.4,0.1,0.8,0.3,1.3,0.4c0.5,0.1,0.9,0.2,1.4,0.3c0.5,0.1,1,0.2,1.5,0.4
				c0.5,0.2,0.9,0.4,1.3,0.6c0.4,0.3,0.7,0.6,0.9,1c0.2,0.4,0.3,0.9,0.3,1.5c0,0.7-0.2,1.3-0.5,1.8c-0.3,0.5-0.7,0.9-1.2,1.2
				c-0.5,0.3-1,0.5-1.7,0.6c-0.6,0.1-1.2,0.2-1.8,0.2c-0.7,0-1.3-0.1-1.9-0.2c-0.6-0.1-1.1-0.4-1.6-0.7c-0.5-0.3-0.8-0.7-1.1-1.3
				c-0.3-0.5-0.4-1.2-0.5-1.9h2C173.8,72.9,173.9,73.3,174.1,73.6z"/>
			<path class="st0" d="M184.7,62.1v-2.4h2v2.4H184.7z M186.7,64.2v12.1h-2V64.2H186.7z"/>
			<path class="st0" d="M199,76.3v-1.6h0c-0.3,0.7-0.8,1.2-1.5,1.4c-0.7,0.3-1.5,0.4-2.3,0.4c-0.9,0-1.8-0.2-2.4-0.5
				c-0.7-0.3-1.3-0.8-1.7-1.4c-0.5-0.6-0.8-1.2-1-2c-0.2-0.8-0.4-1.6-0.4-2.4c0-0.9,0.1-1.7,0.3-2.4c0.2-0.8,0.6-1.4,1-2
				c0.5-0.6,1-1,1.7-1.4c0.7-0.3,1.5-0.5,2.4-0.5c0.3,0,0.6,0,1,0.1c0.4,0.1,0.7,0.2,1.1,0.3c0.4,0.1,0.7,0.3,1,0.6
				c0.3,0.2,0.6,0.5,0.8,0.9h0v-6.2h2v16.7H199z M191.8,72c0.1,0.5,0.4,1,0.7,1.4c0.3,0.4,0.7,0.8,1.2,1c0.5,0.2,1,0.4,1.7,0.4
				c0.7,0,1.2-0.1,1.7-0.4c0.5-0.3,0.8-0.6,1.1-1c0.3-0.4,0.5-0.9,0.6-1.5c0.1-0.5,0.2-1.1,0.2-1.7c0-0.6-0.1-1.2-0.2-1.7
				c-0.1-0.6-0.4-1-0.7-1.5c-0.3-0.4-0.7-0.8-1.2-1c-0.5-0.3-1.1-0.4-1.8-0.4c-0.7,0-1.2,0.1-1.7,0.4c-0.5,0.3-0.8,0.6-1.1,1.1
				c-0.3,0.4-0.5,0.9-0.6,1.5c-0.1,0.6-0.2,1.1-0.2,1.7C191.6,70.9,191.7,71.5,191.8,72z"/>
			<path class="st0" d="M212.9,75.5c-0.9,0.7-2,1-3.4,1c-1,0-1.8-0.2-2.5-0.5c-0.7-0.3-1.3-0.7-1.8-1.3c-0.5-0.6-0.8-1.2-1.1-2
				c-0.2-0.8-0.4-1.6-0.4-2.5c0-0.9,0.1-1.8,0.4-2.5c0.3-0.8,0.7-1.4,1.2-2c0.5-0.6,1.1-1,1.8-1.3c0.7-0.3,1.5-0.5,2.3-0.5
				c1.1,0,2,0.2,2.7,0.7c0.7,0.4,1.3,1,1.7,1.7c0.4,0.7,0.7,1.4,0.9,2.2c0.2,0.8,0.2,1.6,0.2,2.3h-9c0,0.5,0,1,0.2,1.5
				c0.1,0.5,0.4,0.9,0.7,1.3c0.3,0.4,0.7,0.7,1.2,0.9c0.5,0.2,1.1,0.3,1.7,0.3c0.8,0,1.5-0.2,2.1-0.6c0.5-0.4,0.9-1,1.1-1.8h2
				C214.4,73.8,213.8,74.9,212.9,75.5z M212.5,67.8c-0.2-0.4-0.4-0.8-0.7-1.1c-0.3-0.3-0.7-0.5-1.1-0.7c-0.4-0.2-0.9-0.3-1.4-0.3
				c-0.5,0-1,0.1-1.4,0.3c-0.4,0.2-0.8,0.4-1.1,0.7c-0.3,0.3-0.5,0.7-0.7,1.1c-0.2,0.4-0.3,0.9-0.3,1.3h6.9
				C212.7,68.6,212.6,68.2,212.5,67.8z"/>
			<path class="st0" d="M219.2,64.2v1.9h0c0.8-1.5,2.1-2.2,3.9-2.2c0.8,0,1.5,0.1,2,0.3c0.5,0.2,1,0.5,1.3,0.9
				c0.3,0.4,0.6,0.9,0.7,1.4c0.1,0.5,0.2,1.1,0.2,1.8v7.9h-2v-8.2c0-0.7-0.2-1.3-0.7-1.8c-0.4-0.4-1-0.7-1.8-0.7
				c-0.6,0-1.1,0.1-1.6,0.3c-0.4,0.2-0.8,0.5-1.1,0.8c-0.3,0.3-0.5,0.7-0.7,1.2c-0.1,0.5-0.2,1-0.2,1.5v6.8h-2V64.2H219.2z"/>
			<path class="st0" d="M235.8,64.2V66h-2.4v7.5c0,0.2,0,0.4,0.1,0.6c0,0.1,0.1,0.2,0.2,0.3c0.1,0.1,0.3,0.1,0.5,0.2
				c0.2,0,0.4,0,0.8,0h0.9v1.8h-1.5c-0.5,0-1,0-1.3-0.1c-0.4-0.1-0.7-0.2-0.9-0.4c-0.2-0.2-0.4-0.5-0.5-0.8
				c-0.1-0.3-0.2-0.8-0.2-1.4V66h-2.1v-1.8h2.1v-3.6h2v3.6H235.8z"/>
			<path class="st0" d="M238.5,62.1v-2.4h2v2.4H238.5z M240.5,64.2v12.1h-2V64.2H240.5z"/>
			<path class="st0" d="M253.2,76.6c-0.5,0-0.9-0.1-1.2-0.4c-0.3-0.3-0.5-0.8-0.5-1.4c-0.5,0.7-1.2,1.1-1.9,1.4
				c-0.7,0.3-1.5,0.4-2.3,0.4c-0.5,0-1.1-0.1-1.5-0.2c-0.5-0.1-0.9-0.3-1.3-0.6c-0.4-0.3-0.7-0.6-0.9-1.1c-0.2-0.4-0.3-0.9-0.3-1.6
				c0-0.7,0.1-1.2,0.4-1.7c0.2-0.4,0.5-0.8,0.9-1.1c0.4-0.3,0.8-0.5,1.3-0.6c0.5-0.1,1-0.3,1.5-0.4c0.5-0.1,1.1-0.2,1.6-0.2
				c0.5-0.1,0.9-0.1,1.3-0.2c0.4-0.1,0.7-0.2,0.9-0.4c0.2-0.2,0.3-0.5,0.3-0.9c0-0.4-0.1-0.8-0.2-1.1c-0.2-0.3-0.4-0.5-0.6-0.6
				c-0.3-0.1-0.5-0.2-0.9-0.3c-0.3,0-0.6-0.1-0.9-0.1c-0.8,0-1.5,0.2-2.1,0.5c-0.6,0.3-0.9,0.9-0.9,1.8h-2c0-0.7,0.2-1.4,0.5-1.9
				c0.3-0.5,0.7-0.9,1.1-1.3c0.5-0.3,1-0.5,1.6-0.7c0.6-0.1,1.2-0.2,1.9-0.2c0.5,0,1.1,0,1.6,0.1c0.5,0.1,1,0.2,1.5,0.5
				c0.4,0.2,0.8,0.6,1.1,1c0.3,0.4,0.4,1,0.4,1.7v6.2c0,0.5,0,0.8,0.1,1c0.1,0.2,0.2,0.3,0.5,0.3c0.2,0,0.4,0,0.6-0.1v1.5
				C254.3,76.5,253.8,76.6,253.2,76.6z M250.4,70.5c-0.4,0.1-0.8,0.2-1.3,0.2c-0.4,0.1-0.9,0.1-1.3,0.2c-0.5,0.1-0.9,0.2-1.2,0.3
				c-0.4,0.2-0.7,0.4-0.9,0.7c-0.2,0.3-0.3,0.7-0.3,1.2c0,0.3,0.1,0.6,0.2,0.8c0.1,0.2,0.3,0.4,0.5,0.5c0.2,0.1,0.5,0.2,0.7,0.3
				c0.3,0.1,0.6,0.1,0.9,0.1c0.7,0,1.2-0.1,1.7-0.3c0.5-0.2,0.8-0.4,1.1-0.7c0.3-0.3,0.5-0.6,0.7-0.9c0.1-0.3,0.2-0.6,0.2-0.9v-2
				C251.1,70.3,250.8,70.4,250.4,70.5z"/>
			<path class="st0" d="M258.9,59.6v16.7h-2V59.6H258.9z"/>
			<path class="st0" d="M276.5,59.6l6.5,16.7h-2.5l-1.8-5h-7.1l-1.9,5h-2.3l6.5-16.7H276.5z M278.1,69.4l-2.8-7.8h0l-2.8,7.8H278.1z
				"/>
			<path class="st0" d="M293.8,79.7c-0.9,1-2.3,1.5-4.3,1.5c-0.6,0-1.1-0.1-1.7-0.2c-0.6-0.1-1.1-0.3-1.6-0.6
				c-0.5-0.3-0.9-0.6-1.2-1.1c-0.3-0.5-0.5-1-0.5-1.7h2c0,0.4,0.1,0.7,0.3,0.9c0.2,0.2,0.5,0.5,0.8,0.6c0.3,0.2,0.6,0.3,1,0.3
				c0.4,0.1,0.7,0.1,1,0.1c0.7,0,1.2-0.1,1.7-0.3c0.5-0.2,0.8-0.5,1.1-0.9c0.3-0.4,0.5-0.9,0.6-1.4c0.1-0.6,0.2-1.2,0.2-1.8v-0.8h0
				c-0.3,0.7-0.9,1.3-1.6,1.6c-0.7,0.4-1.4,0.5-2.2,0.5c-0.9,0-1.7-0.2-2.4-0.5c-0.7-0.3-1.2-0.8-1.7-1.3c-0.5-0.6-0.8-1.2-1-1.9
				c-0.2-0.7-0.3-1.5-0.3-2.3c0-0.7,0.1-1.5,0.3-2.2c0.2-0.8,0.5-1.4,0.9-2.1c0.4-0.6,1-1.1,1.7-1.5c0.7-0.4,1.6-0.6,2.6-0.6
				c0.8,0,1.5,0.2,2.1,0.5c0.6,0.3,1.1,0.8,1.5,1.5h0v-1.7h1.9v11.1C295.1,77.3,294.7,78.7,293.8,79.7z M291.2,74.3
				c0.5-0.3,0.8-0.6,1.1-1.1c0.3-0.4,0.5-0.9,0.6-1.5c0.1-0.6,0.2-1.1,0.2-1.7c0-0.5-0.1-1.1-0.2-1.6c-0.1-0.5-0.3-1-0.6-1.4
				c-0.3-0.4-0.6-0.7-1.1-1c-0.4-0.2-1-0.4-1.6-0.4c-0.6,0-1.2,0.1-1.6,0.4c-0.5,0.2-0.8,0.6-1.1,1c-0.3,0.4-0.5,0.9-0.6,1.4
				c-0.1,0.5-0.2,1.1-0.2,1.7c0,0.5,0.1,1.1,0.2,1.6c0.1,0.5,0.3,1,0.6,1.5c0.3,0.4,0.6,0.8,1.1,1.1c0.4,0.3,1,0.4,1.6,0.4
				C290.2,74.7,290.8,74.6,291.2,74.3z"/>
			<path class="st0" d="M307,75.5c-0.9,0.7-2,1-3.4,1c-1,0-1.8-0.2-2.5-0.5c-0.7-0.3-1.3-0.7-1.8-1.3c-0.5-0.6-0.8-1.2-1.1-2
				c-0.2-0.8-0.4-1.6-0.4-2.5c0-0.9,0.1-1.8,0.4-2.5c0.3-0.8,0.7-1.4,1.2-2c0.5-0.6,1.1-1,1.8-1.3c0.7-0.3,1.5-0.5,2.3-0.5
				c1.1,0,2,0.2,2.7,0.7c0.7,0.4,1.3,1,1.7,1.7c0.4,0.7,0.7,1.4,0.9,2.2c0.2,0.8,0.2,1.6,0.2,2.3h-9c0,0.5,0,1,0.2,1.5
				c0.1,0.5,0.4,0.9,0.7,1.3c0.3,0.4,0.7,0.7,1.2,0.9c0.5,0.2,1.1,0.3,1.7,0.3c0.8,0,1.5-0.2,2.1-0.6c0.5-0.4,0.9-1,1.1-1.8h2
				C308.5,73.8,307.9,74.9,307,75.5z M306.5,67.8c-0.2-0.4-0.4-0.8-0.7-1.1c-0.3-0.3-0.7-0.5-1.1-0.7c-0.4-0.2-0.9-0.3-1.4-0.3
				c-0.5,0-1,0.1-1.4,0.3c-0.4,0.2-0.8,0.4-1.1,0.7c-0.3,0.3-0.5,0.7-0.7,1.1c-0.2,0.4-0.3,0.9-0.3,1.3h6.9
				C306.8,68.6,306.7,68.2,306.5,67.8z"/>
			<path class="st0" d="M320.2,76.3v-1.6h0c-0.3,0.7-0.8,1.2-1.5,1.4c-0.7,0.3-1.5,0.4-2.3,0.4c-0.9,0-1.8-0.2-2.4-0.5
				c-0.7-0.3-1.3-0.8-1.7-1.4c-0.5-0.6-0.8-1.2-1-2c-0.2-0.8-0.4-1.6-0.4-2.4c0-0.9,0.1-1.7,0.3-2.4c0.2-0.8,0.6-1.4,1-2
				c0.5-0.6,1-1,1.7-1.4c0.7-0.3,1.5-0.5,2.4-0.5c0.3,0,0.6,0,1,0.1c0.4,0.1,0.7,0.2,1.1,0.3c0.4,0.1,0.7,0.3,1,0.6
				c0.3,0.2,0.6,0.5,0.8,0.9h0v-6.2h2v16.7H320.2z M313,72c0.1,0.5,0.4,1,0.7,1.4c0.3,0.4,0.7,0.8,1.2,1c0.5,0.2,1,0.4,1.7,0.4
				c0.7,0,1.2-0.1,1.7-0.4c0.5-0.3,0.8-0.6,1.1-1c0.3-0.4,0.5-0.9,0.6-1.5c0.1-0.5,0.2-1.1,0.2-1.7c0-0.6-0.1-1.2-0.2-1.7
				c-0.1-0.6-0.4-1-0.7-1.5c-0.3-0.4-0.7-0.8-1.2-1c-0.5-0.3-1.1-0.4-1.8-0.4c-0.7,0-1.2,0.1-1.7,0.4c-0.5,0.3-0.8,0.6-1.1,1.1
				c-0.3,0.4-0.5,0.9-0.6,1.5c-0.1,0.6-0.2,1.1-0.2,1.7C312.8,70.9,312.9,71.5,313,72z"/>
			<path class="st0" d="M342.9,62c-0.8-0.6-1.9-0.9-3-0.9c-1,0-1.9,0.2-2.6,0.6c-0.7,0.4-1.3,0.9-1.8,1.5c-0.5,0.6-0.8,1.4-1,2.2
				c-0.2,0.8-0.3,1.7-0.3,2.5c0,1,0.1,1.9,0.3,2.7c0.2,0.8,0.6,1.6,1,2.2c0.5,0.6,1,1.1,1.8,1.5s1.6,0.6,2.6,0.6
				c0.7,0,1.4-0.1,2-0.4c0.6-0.2,1.1-0.6,1.5-1c0.4-0.4,0.7-0.9,1-1.5c0.2-0.6,0.4-1.2,0.4-1.9h2.2c-0.2,2.1-0.9,3.7-2.2,4.9
				c-1.2,1.2-2.9,1.8-5,1.8c-1.3,0-2.4-0.2-3.4-0.7c-1-0.4-1.8-1.1-2.4-1.8c-0.6-0.8-1.1-1.7-1.4-2.8c-0.3-1.1-0.5-2.2-0.5-3.4
				c0-1.2,0.2-2.4,0.5-3.4s0.8-2,1.5-2.8c0.7-0.8,1.5-1.4,2.5-1.9c1-0.5,2.1-0.7,3.4-0.7c0.9,0,1.7,0.1,2.5,0.4
				c0.8,0.2,1.5,0.6,2.1,1c0.6,0.5,1.1,1,1.5,1.7c0.4,0.7,0.7,1.5,0.8,2.4h-2.2C344.3,63.5,343.7,62.6,342.9,62z"/>
			<path class="st0" d="M359,76.6c-0.5,0-0.9-0.1-1.2-0.4c-0.3-0.3-0.5-0.8-0.5-1.4c-0.5,0.7-1.2,1.1-1.9,1.4
				c-0.7,0.3-1.5,0.4-2.3,0.4c-0.5,0-1.1-0.1-1.5-0.2c-0.5-0.1-0.9-0.3-1.3-0.6c-0.4-0.3-0.7-0.6-0.9-1.1c-0.2-0.4-0.3-0.9-0.3-1.6
				c0-0.7,0.1-1.2,0.4-1.7s0.5-0.8,0.9-1.1c0.4-0.3,0.8-0.5,1.3-0.6c0.5-0.1,1-0.3,1.5-0.4c0.5-0.1,1.1-0.2,1.6-0.2
				c0.5-0.1,0.9-0.1,1.3-0.2c0.4-0.1,0.7-0.2,0.9-0.4c0.2-0.2,0.3-0.5,0.3-0.9c0-0.4-0.1-0.8-0.2-1.1c-0.2-0.3-0.4-0.5-0.6-0.6
				c-0.3-0.1-0.5-0.2-0.9-0.3c-0.3,0-0.6-0.1-0.9-0.1c-0.8,0-1.5,0.2-2.1,0.5c-0.6,0.3-0.9,0.9-0.9,1.8h-2c0-0.7,0.2-1.4,0.5-1.9
				c0.3-0.5,0.7-0.9,1.1-1.3c0.5-0.3,1-0.5,1.6-0.7c0.6-0.1,1.2-0.2,1.9-0.2c0.5,0,1.1,0,1.6,0.1c0.5,0.1,1,0.2,1.5,0.5
				c0.4,0.2,0.8,0.6,1.1,1c0.3,0.4,0.4,1,0.4,1.7v6.2c0,0.5,0,0.8,0.1,1c0.1,0.2,0.2,0.3,0.5,0.3c0.2,0,0.4,0,0.6-0.1v1.5
				C360,76.5,359.6,76.6,359,76.6z M356.2,70.5c-0.4,0.1-0.8,0.2-1.3,0.2c-0.4,0.1-0.9,0.1-1.3,0.2c-0.5,0.1-0.9,0.2-1.2,0.3
				c-0.4,0.2-0.7,0.4-0.9,0.7c-0.2,0.3-0.3,0.7-0.3,1.2c0,0.3,0.1,0.6,0.2,0.8c0.1,0.2,0.3,0.4,0.5,0.5c0.2,0.1,0.5,0.2,0.7,0.3
				c0.3,0.1,0.6,0.1,0.9,0.1c0.7,0,1.2-0.1,1.7-0.3c0.5-0.2,0.8-0.4,1.1-0.7c0.3-0.3,0.5-0.6,0.7-0.9c0.1-0.3,0.2-0.6,0.2-0.9v-2
				C356.9,70.3,356.6,70.4,356.2,70.5z"/>
			<path class="st0" d="M364.4,64.2v2.5h0c0.5-1,1.1-1.7,1.8-2.2c0.7-0.5,1.6-0.7,2.7-0.7v2.1c-0.8,0-1.5,0.1-2,0.3
				c-0.6,0.2-1,0.5-1.4,1s-0.6,0.9-0.7,1.5c-0.2,0.6-0.2,1.3-0.2,2.1v5.4h-2V64.2H364.4z"/>
			<path class="st0" d="M378.8,75.5c-0.9,0.7-2,1-3.4,1c-1,0-1.8-0.2-2.5-0.5c-0.7-0.3-1.3-0.7-1.8-1.3c-0.5-0.6-0.8-1.2-1.1-2
				c-0.2-0.8-0.4-1.6-0.4-2.5c0-0.9,0.1-1.8,0.4-2.5c0.3-0.8,0.7-1.4,1.2-2c0.5-0.6,1.1-1,1.8-1.3c0.7-0.3,1.5-0.5,2.3-0.5
				c1.1,0,2,0.2,2.7,0.7c0.7,0.4,1.3,1,1.7,1.7c0.4,0.7,0.7,1.4,0.9,2.2c0.2,0.8,0.2,1.6,0.2,2.3h-9c0,0.5,0,1,0.2,1.5
				c0.1,0.5,0.4,0.9,0.7,1.3c0.3,0.4,0.7,0.7,1.2,0.9c0.5,0.2,1.1,0.3,1.7,0.3c0.8,0,1.5-0.2,2.1-0.6c0.5-0.4,0.9-1,1.1-1.8h2
				C380.3,73.8,379.8,74.9,378.8,75.5z M378.4,67.8c-0.2-0.4-0.4-0.8-0.7-1.1c-0.3-0.3-0.7-0.5-1.1-0.7c-0.4-0.2-0.9-0.3-1.4-0.3
				c-0.5,0-1,0.1-1.4,0.3c-0.4,0.2-0.8,0.4-1.1,0.7c-0.3,0.3-0.5,0.7-0.7,1.1c-0.2,0.4-0.3,0.9-0.3,1.3h6.9
				C378.7,68.6,378.5,68.2,378.4,67.8z"/>
		</g>
	</g>
	<g>
		<path d="M12.2,76.1c-1,0.4-1.9,0.6-2.9,0.6c-1.2,0-2.4-0.2-3.3-0.7c-1-0.5-1.8-1.1-2.5-1.9c-0.7-0.8-1.2-1.7-1.6-2.7
			c-0.4-1-0.5-2.1-0.5-3.2c0-1.2,0.2-2.4,0.5-3.5c0.3-1.1,0.8-2.1,1.5-2.9c0.7-0.8,1.5-1.5,2.5-2c1-0.5,2.1-0.7,3.5-0.7
			c0.9,0,1.8,0.1,2.6,0.3c0.8,0.2,1.5,0.5,2.2,1c0.6,0.5,1.2,1,1.6,1.7c0.4,0.7,0.7,1.5,0.9,2.5h-2.2c-0.1-0.6-0.3-1.2-0.6-1.6
			c-0.3-0.5-0.7-0.8-1.1-1.1c-0.4-0.3-0.9-0.5-1.5-0.7c-0.6-0.1-1.1-0.2-1.8-0.2c-1,0-1.9,0.2-2.6,0.6c-0.7,0.4-1.3,0.9-1.8,1.6
			c-0.5,0.7-0.8,1.4-1,2.3c-0.2,0.9-0.3,1.7-0.3,2.6c0,0.9,0.1,1.7,0.4,2.5c0.2,0.8,0.6,1.5,1.1,2.1c0.5,0.6,1.1,1.1,1.8,1.5
			c0.7,0.4,1.5,0.5,2.5,0.5c0.9,0,1.6-0.1,2.3-0.4c0.7-0.3,1.2-0.7,1.7-1.2c0.5-0.5,0.8-1.1,1-1.7c0.2-0.7,0.3-1.4,0.3-2.1H9.3v-1.9
			h7.3v8.8h-1.4l-0.6-2.1C14,75.1,13.2,75.7,12.2,76.1z"/>
		<path d="M19.8,64.7c0.3-1.1,0.8-2,1.5-2.8c0.7-0.8,1.5-1.5,2.5-1.9c1-0.5,2.2-0.7,3.5-0.7c1.3,0,2.5,0.2,3.5,0.7
			c1,0.5,1.8,1.1,2.5,1.9c0.7,0.8,1.2,1.7,1.5,2.8c0.3,1.1,0.5,2.1,0.5,3.3s-0.2,2.2-0.5,3.3c-0.3,1.1-0.8,2-1.5,2.8
			c-0.7,0.8-1.5,1.5-2.5,1.9c-1,0.5-2.2,0.7-3.5,0.7c-1.3,0-2.5-0.2-3.5-0.7c-1-0.5-1.8-1.1-2.5-1.9c-0.7-0.8-1.2-1.7-1.5-2.8
			c-0.3-1.1-0.5-2.1-0.5-3.3S19.5,65.7,19.8,64.7z M21.9,70.5c0.2,0.8,0.6,1.6,1,2.2c0.5,0.7,1.1,1.2,1.8,1.6
			c0.7,0.4,1.6,0.6,2.6,0.6c1,0,1.9-0.2,2.6-0.6c0.7-0.4,1.3-0.9,1.8-1.6c0.5-0.7,0.8-1.4,1-2.2c0.2-0.8,0.3-1.6,0.3-2.5
			c0-0.8-0.1-1.7-0.3-2.5c-0.2-0.8-0.6-1.6-1-2.2c-0.5-0.7-1.1-1.2-1.8-1.6c-0.7-0.4-1.6-0.6-2.6-0.6c-1,0-1.9,0.2-2.6,0.6
			c-0.7,0.4-1.3,0.9-1.8,1.6c-0.5,0.7-0.8,1.4-1,2.2c-0.2,0.8-0.3,1.6-0.3,2.5C21.5,68.8,21.7,69.6,21.9,70.5z"/>
		<path d="M50,75.1c-1.1,1.1-2.8,1.6-4.9,1.6c-2.2,0-3.8-0.5-5-1.5s-1.8-2.6-1.8-4.9V59.6h2.2v10.7c0,1.5,0.4,2.6,1.2,3.4
			c0.8,0.8,1.9,1.2,3.4,1.2c1.4,0,2.5-0.4,3.2-1.2c0.7-0.8,1.1-1.9,1.1-3.4V59.6h2.2v10.7C51.7,72.4,51.1,74,50,75.1z"/>
		<path d="M57.8,59.6v14.8h8.8v1.9H55.6V59.6H57.8z"/>
		<path d="M75,59.6c0.4,0,0.7,0,1.2,0c0.4,0,0.8,0,1.2,0.1c0.4,0,0.8,0.1,1.1,0.2c0.4,0.1,0.7,0.2,0.9,0.4c0.5,0.3,1,0.8,1.4,1.4
			c0.4,0.6,0.6,1.3,0.6,2.1c0,0.9-0.2,1.7-0.6,2.3c-0.4,0.6-1,1.1-1.8,1.4v0c1,0.2,1.8,0.7,2.4,1.4c0.5,0.7,0.8,1.6,0.8,2.6
			c0,0.6-0.1,1.2-0.3,1.8c-0.2,0.6-0.5,1.1-1,1.5c-0.4,0.4-1,0.8-1.6,1.1c-0.6,0.3-1.4,0.4-2.2,0.4H69V59.6H75z M75.6,66.8
			c1.3,0,2.2-0.2,2.7-0.7c0.6-0.4,0.8-1.1,0.8-2c0-0.6-0.1-1.1-0.3-1.4c-0.2-0.3-0.4-0.6-0.8-0.8c-0.3-0.2-0.7-0.3-1.1-0.4
			c-0.4-0.1-0.9-0.1-1.4-0.1h-4.4v5.3H75.6z M76.7,74.4c1,0,1.8-0.3,2.3-0.8c0.6-0.5,0.8-1.3,0.8-2.2c0-0.5-0.1-1-0.3-1.4
			c-0.2-0.4-0.5-0.6-0.8-0.9c-0.3-0.2-0.7-0.4-1.2-0.4c-0.4-0.1-0.9-0.1-1.4-0.1h-5.1v5.8H76.7z"/>
		<path d="M96.9,75.1c-1.1,1.1-2.8,1.6-4.9,1.6c-2.2,0-3.8-0.5-5-1.5s-1.8-2.6-1.8-4.9V59.6h2.2v10.7c0,1.5,0.4,2.6,1.2,3.4
			c0.8,0.8,1.9,1.2,3.4,1.2c1.4,0,2.5-0.4,3.2-1.2c0.7-0.8,1.1-1.9,1.1-3.4V59.6h2.2v10.7C98.7,72.4,98.1,74,96.9,75.1z"/>
		<path d="M110.4,59.6c1.6,0,2.8,0.4,3.7,1.2c0.9,0.8,1.3,1.8,1.3,3.2c0,1-0.2,1.9-0.7,2.7c-0.5,0.8-1.2,1.3-2.2,1.6v0
			c0.5,0.1,0.9,0.2,1.2,0.5c0.3,0.2,0.5,0.5,0.7,0.8c0.2,0.3,0.3,0.6,0.4,1c0.1,0.4,0.2,0.8,0.2,1.2c0,0.4,0.1,0.8,0.1,1.2
			c0,0.4,0.1,0.8,0.1,1.2c0.1,0.4,0.2,0.8,0.3,1.2c0.1,0.4,0.3,0.7,0.5,1h-2.5c-0.2-0.2-0.3-0.4-0.3-0.7s-0.1-0.6-0.1-1
			c0-0.4,0-0.8,0-1.2c0-0.4-0.1-0.8-0.1-1.2c-0.1-0.4-0.1-0.8-0.2-1.2c-0.1-0.4-0.2-0.7-0.4-1c-0.2-0.3-0.5-0.5-0.8-0.7
			c-0.3-0.2-0.8-0.2-1.3-0.2h-5.4v7.1h-2.2V59.6H110.4z M110.9,67.2c0.5-0.1,0.9-0.2,1.2-0.5c0.4-0.2,0.6-0.5,0.8-0.9
			c0.2-0.4,0.3-0.9,0.3-1.5c0-0.8-0.2-1.5-0.7-2.1c-0.5-0.5-1.2-0.8-2.3-0.8h-5.5v5.8h4.6C109.9,67.3,110.4,67.3,110.9,67.2z"/>
		<path d="M121.3,59.6l8.8,13.5h0V59.6h2.1v16.7h-2.4l-8.7-13.4h0v13.4h-2.1V59.6H121.3z"/>
	</g>
</g>
<g>
</g>
<g>
</g>
<g>
</g>
<g>
</g>
<g>
</g>
<g>
</g>
</svg>
