<?xml version="1.0" encoding="utf-8"?>
<!-- Generator: Adobe Illustrator 19.1.0, SVG Export Plug-In . SVG Version: 6.00 Build 0)  -->
<!DOCTYPE svg PUBLIC "-//W3C//DTD SVG 1.1//EN" "http://www.w3.org/Graphics/SVG/1.1/DTD/svg11.dtd">
<svg version="1.1" id="Layer_1" xmlns="http://www.w3.org/2000/svg" xmlns:xlink="http://www.w3.org/1999/xlink" x="0px" y="0px"
	 viewBox="0 0 382.7 73.7" style="enable-background:new 0 0 382.7 73.7;" xml:space="preserve">
<style type="text/css">
	.st0{fill:#6D6E71;}
	.st1{fill:#6CB33F;}
</style>
<g>
	<g>
		<g>
			<path class="st0" d="M149.9,50.6c1.6,0,2.8,0.4,3.7,1.2c0.9,0.8,1.3,1.9,1.3,3.2c0,1-0.2,1.9-0.7,2.7c-0.5,0.8-1.2,1.3-2.2,1.6v0
				c0.5,0.1,0.9,0.3,1.2,0.5c0.3,0.2,0.5,0.5,0.7,0.8c0.2,0.3,0.3,0.6,0.4,1c0.1,0.4,0.2,0.8,0.2,1.2c0,0.4,0.1,0.8,0.1,1.2
				c0,0.4,0.1,0.8,0.1,1.2c0.1,0.4,0.2,0.8,0.3,1.2c0.1,0.4,0.3,0.7,0.5,1h-2.5c-0.2-0.2-0.3-0.4-0.3-0.7c-0.1-0.3-0.1-0.6-0.1-1
				c0-0.4,0-0.8,0-1.2c0-0.4-0.1-0.8-0.1-1.2c-0.1-0.4-0.1-0.8-0.2-1.2c-0.1-0.4-0.2-0.7-0.4-1c-0.2-0.3-0.5-0.5-0.8-0.7
				c-0.3-0.2-0.8-0.2-1.3-0.2h-5.4v7.2H142V50.6H149.9z M150.4,58.2c0.5-0.1,0.9-0.2,1.2-0.5c0.4-0.2,0.6-0.5,0.8-0.9
				c0.2-0.4,0.3-0.9,0.3-1.5c0-0.8-0.2-1.5-0.7-2.1c-0.5-0.5-1.2-0.8-2.3-0.8h-5.5v5.8h4.6C149.4,58.3,149.9,58.3,150.4,58.2z"/>
			<path class="st0" d="M166.7,66.6c-0.9,0.7-2.1,1-3.4,1c-1,0-1.8-0.2-2.5-0.5c-0.7-0.3-1.3-0.8-1.8-1.3c-0.5-0.6-0.8-1.2-1.1-2
				c-0.2-0.8-0.4-1.6-0.4-2.6c0-0.9,0.1-1.8,0.4-2.5c0.3-0.8,0.7-1.4,1.2-2c0.5-0.6,1.1-1,1.8-1.3c0.7-0.3,1.5-0.5,2.3-0.5
				c1.1,0,2,0.2,2.7,0.7c0.7,0.4,1.3,1,1.7,1.7c0.4,0.7,0.7,1.4,0.9,2.3c0.2,0.8,0.2,1.6,0.2,2.3h-9.1c0,0.5,0,1,0.2,1.5
				c0.1,0.5,0.4,0.9,0.7,1.3c0.3,0.4,0.7,0.7,1.2,0.9c0.5,0.2,1.1,0.3,1.7,0.3c0.8,0,1.5-0.2,2.1-0.6c0.5-0.4,0.9-1,1.1-1.8h2
				C168.2,64.9,167.6,65.9,166.7,66.6z M166.3,58.8c-0.2-0.4-0.4-0.8-0.7-1.1c-0.3-0.3-0.7-0.5-1.1-0.7c-0.4-0.2-0.9-0.3-1.4-0.3
				c-0.5,0-1,0.1-1.4,0.3c-0.4,0.2-0.8,0.4-1.1,0.7c-0.3,0.3-0.5,0.7-0.7,1.1c-0.2,0.4-0.3,0.9-0.3,1.3h7
				C166.5,59.7,166.4,59.2,166.3,58.8z"/>
			<path class="st0" d="M172.6,64.7c0.2,0.3,0.4,0.5,0.7,0.7c0.3,0.2,0.6,0.3,1,0.4c0.4,0.1,0.8,0.1,1.2,0.1c0.3,0,0.6,0,1-0.1
				c0.3,0,0.7-0.1,1-0.3c0.3-0.1,0.5-0.3,0.7-0.6c0.2-0.2,0.3-0.6,0.3-0.9c0-0.5-0.2-0.9-0.6-1.2c-0.4-0.3-0.9-0.5-1.5-0.6
				c-0.6-0.2-1.2-0.3-1.9-0.4c-0.7-0.1-1.3-0.3-1.9-0.6c-0.6-0.2-1.1-0.6-1.5-1c-0.4-0.4-0.6-1-0.6-1.8c0-0.6,0.1-1.1,0.4-1.6
				c0.3-0.4,0.6-0.8,1.1-1.1c0.4-0.3,0.9-0.5,1.5-0.6c0.5-0.1,1.1-0.2,1.6-0.2c0.7,0,1.3,0.1,1.9,0.2c0.6,0.1,1.1,0.3,1.5,0.6
				c0.4,0.3,0.8,0.7,1.1,1.2c0.3,0.5,0.4,1.1,0.5,1.8h-2c0-0.4-0.1-0.7-0.3-1c-0.2-0.3-0.4-0.5-0.7-0.6c-0.3-0.2-0.6-0.3-0.9-0.3
				c-0.3-0.1-0.6-0.1-1-0.1c-0.3,0-0.6,0-0.9,0.1c-0.3,0-0.6,0.1-0.8,0.2c-0.3,0.1-0.5,0.3-0.6,0.5c-0.2,0.2-0.2,0.5-0.2,0.8
				c0,0.3,0.1,0.6,0.4,0.9c0.2,0.2,0.6,0.4,0.9,0.6c0.4,0.1,0.8,0.3,1.3,0.4c0.5,0.1,0.9,0.2,1.4,0.3c0.5,0.1,1,0.2,1.5,0.4
				c0.5,0.2,0.9,0.4,1.3,0.6c0.4,0.3,0.7,0.6,0.9,1c0.2,0.4,0.3,0.9,0.3,1.5c0,0.7-0.2,1.3-0.5,1.8c-0.3,0.5-0.7,0.9-1.2,1.2
				c-0.5,0.3-1,0.5-1.7,0.6c-0.6,0.1-1.2,0.2-1.8,0.2c-0.7,0-1.3-0.1-1.9-0.2c-0.6-0.1-1.2-0.4-1.6-0.7c-0.5-0.3-0.8-0.7-1.1-1.3
				c-0.3-0.5-0.4-1.2-0.5-1.9h2C172.3,64,172.4,64.4,172.6,64.7z"/>
			<path class="st0" d="M183.3,53.1v-2.4h2v2.4H183.3z M185.3,55.2v12.1h-2V55.2H185.3z"/>
			<path class="st0" d="M197.6,67.4v-1.6h0c-0.3,0.7-0.8,1.2-1.5,1.5c-0.7,0.3-1.5,0.4-2.3,0.4c-0.9,0-1.8-0.2-2.5-0.5
				c-0.7-0.3-1.3-0.8-1.7-1.4c-0.5-0.6-0.8-1.3-1-2c-0.2-0.8-0.4-1.6-0.4-2.4c0-0.9,0.1-1.7,0.3-2.4c0.2-0.8,0.6-1.4,1-2
				c0.5-0.6,1-1,1.7-1.4c0.7-0.3,1.5-0.5,2.4-0.5c0.3,0,0.6,0,1,0.1c0.4,0.1,0.7,0.2,1.1,0.3c0.4,0.1,0.7,0.3,1,0.6
				c0.3,0.2,0.6,0.5,0.8,0.9h0v-6.2h2v16.8H197.6z M190.4,63.1c0.1,0.5,0.4,1,0.7,1.4c0.3,0.4,0.7,0.8,1.2,1c0.5,0.3,1,0.4,1.7,0.4
				c0.7,0,1.2-0.1,1.7-0.4c0.5-0.3,0.9-0.6,1.2-1c0.3-0.4,0.5-0.9,0.6-1.5c0.1-0.5,0.2-1.1,0.2-1.7c0-0.6-0.1-1.2-0.2-1.7
				c-0.1-0.6-0.4-1-0.7-1.5c-0.3-0.4-0.7-0.8-1.2-1c-0.5-0.3-1.1-0.4-1.8-0.4c-0.7,0-1.2,0.1-1.7,0.4c-0.5,0.3-0.8,0.6-1.1,1.1
				c-0.3,0.4-0.5,0.9-0.6,1.5c-0.1,0.6-0.2,1.1-0.2,1.7C190.2,62,190.3,62.5,190.4,63.1z"/>
			<path class="st0" d="M211.6,66.6c-0.9,0.7-2.1,1-3.4,1c-1,0-1.8-0.2-2.5-0.5c-0.7-0.3-1.3-0.8-1.8-1.3c-0.5-0.6-0.8-1.2-1.1-2
				c-0.2-0.8-0.4-1.6-0.4-2.6c0-0.9,0.1-1.8,0.4-2.5c0.3-0.8,0.7-1.4,1.2-2c0.5-0.6,1.1-1,1.8-1.3c0.7-0.3,1.5-0.5,2.3-0.5
				c1.1,0,2,0.2,2.7,0.7c0.7,0.4,1.3,1,1.7,1.7c0.4,0.7,0.7,1.4,0.9,2.3c0.2,0.8,0.2,1.6,0.2,2.3h-9.1c0,0.5,0,1,0.2,1.5
				c0.1,0.5,0.4,0.9,0.7,1.3c0.3,0.4,0.7,0.7,1.2,0.9c0.5,0.2,1.1,0.3,1.7,0.3c0.8,0,1.5-0.2,2.1-0.6c0.5-0.4,0.9-1,1.1-1.8h2
				C213.1,64.9,212.5,65.9,211.6,66.6z M211.1,58.8c-0.2-0.4-0.4-0.8-0.7-1.1c-0.3-0.3-0.7-0.5-1.1-0.7c-0.4-0.2-0.9-0.3-1.4-0.3
				c-0.5,0-1,0.1-1.4,0.3c-0.4,0.2-0.8,0.4-1.1,0.7c-0.3,0.3-0.5,0.7-0.7,1.1c-0.2,0.4-0.3,0.9-0.3,1.3h7
				C211.4,59.7,211.3,59.2,211.1,58.8z"/>
			<path class="st0" d="M217.9,55.2v1.9h0c0.8-1.5,2.1-2.2,3.9-2.2c0.8,0,1.5,0.1,2,0.3c0.5,0.2,1,0.5,1.3,0.9
				c0.3,0.4,0.6,0.9,0.7,1.4c0.1,0.5,0.2,1.1,0.2,1.8v8h-2v-8.2c0-0.8-0.2-1.3-0.7-1.8c-0.4-0.4-1-0.7-1.8-0.7
				c-0.6,0-1.1,0.1-1.6,0.3c-0.4,0.2-0.8,0.5-1.1,0.8c-0.3,0.3-0.5,0.7-0.7,1.2c-0.1,0.5-0.2,1-0.2,1.5v6.9h-2V55.2H217.9z"/>
			<path class="st0" d="M234.6,55.2V57h-2.4v7.5c0,0.2,0,0.4,0.1,0.6c0,0.1,0.1,0.2,0.2,0.3c0.1,0.1,0.3,0.1,0.5,0.2
				c0.2,0,0.4,0,0.8,0h0.9v1.8h-1.5c-0.5,0-1,0-1.3-0.1c-0.4-0.1-0.7-0.2-0.9-0.4c-0.2-0.2-0.4-0.5-0.5-0.8
				c-0.1-0.3-0.2-0.8-0.2-1.4V57h-2.1v-1.8h2.1v-3.6h2v3.6H234.6z"/>
			<path class="st0" d="M237.3,53.1v-2.4h2v2.4H237.3z M239.3,55.2v12.1h-2V55.2H239.3z"/>
			<path class="st0" d="M252,67.6c-0.5,0-0.9-0.1-1.2-0.4c-0.3-0.3-0.5-0.8-0.5-1.4c-0.5,0.7-1.2,1.1-1.9,1.4
				c-0.7,0.3-1.5,0.4-2.4,0.4c-0.5,0-1.1-0.1-1.5-0.2c-0.5-0.1-0.9-0.3-1.3-0.6c-0.4-0.3-0.7-0.6-0.9-1.1c-0.2-0.4-0.3-1-0.3-1.6
				c0-0.7,0.1-1.3,0.4-1.7c0.2-0.4,0.5-0.8,0.9-1.1c0.4-0.3,0.8-0.5,1.3-0.6c0.5-0.1,1-0.3,1.5-0.4c0.5-0.1,1.1-0.2,1.6-0.2
				c0.5-0.1,0.9-0.1,1.3-0.2c0.4-0.1,0.7-0.2,0.9-0.4c0.2-0.2,0.3-0.5,0.3-0.9c0-0.4-0.1-0.8-0.2-1.1c-0.2-0.3-0.4-0.5-0.6-0.6
				c-0.3-0.1-0.5-0.2-0.9-0.3c-0.3,0-0.6-0.1-1-0.1c-0.8,0-1.5,0.2-2.1,0.5c-0.6,0.3-0.9,0.9-0.9,1.8h-2c0-0.8,0.2-1.4,0.5-1.9
				c0.3-0.5,0.7-0.9,1.1-1.3c0.5-0.3,1-0.6,1.6-0.7c0.6-0.1,1.3-0.2,1.9-0.2c0.5,0,1.1,0,1.6,0.1c0.5,0.1,1,0.2,1.5,0.5
				c0.4,0.2,0.8,0.6,1.1,1c0.3,0.4,0.4,1,0.4,1.7v6.2c0,0.5,0,0.8,0.1,1c0.1,0.2,0.2,0.3,0.6,0.3c0.2,0,0.4,0,0.6-0.1v1.5
				C253.1,67.5,252.6,67.6,252,67.6z M249.2,61.5c-0.4,0.1-0.8,0.2-1.3,0.2c-0.4,0.1-0.9,0.1-1.3,0.2c-0.5,0.1-0.9,0.2-1.2,0.3
				c-0.4,0.2-0.7,0.4-0.9,0.7c-0.2,0.3-0.3,0.7-0.3,1.2c0,0.3,0.1,0.6,0.2,0.8c0.1,0.2,0.3,0.4,0.5,0.6c0.2,0.1,0.5,0.2,0.8,0.3
				c0.3,0.1,0.6,0.1,0.9,0.1c0.7,0,1.2-0.1,1.7-0.3c0.5-0.2,0.9-0.4,1.2-0.7c0.3-0.3,0.5-0.6,0.7-0.9c0.1-0.3,0.2-0.6,0.2-0.9v-2
				C250,61.3,249.6,61.4,249.2,61.5z"/>
			<path class="st0" d="M257.8,50.6v16.8h-2V50.6H257.8z"/>
			<path class="st0" d="M275.5,50.6l6.5,16.8h-2.5l-1.8-5h-7.1l-1.9,5h-2.3l6.5-16.8H275.5z M277,60.4l-2.8-7.8h0l-2.8,7.8H277z"/>
			<path class="st0" d="M292.8,70.8c-0.9,1-2.3,1.5-4.3,1.5c-0.6,0-1.1-0.1-1.7-0.2c-0.6-0.1-1.1-0.3-1.6-0.6
				c-0.5-0.3-0.9-0.6-1.2-1.1c-0.3-0.5-0.5-1-0.5-1.7h2c0,0.4,0.1,0.7,0.3,0.9c0.2,0.2,0.5,0.5,0.8,0.6c0.3,0.2,0.6,0.3,1,0.3
				c0.4,0.1,0.7,0.1,1,0.1c0.7,0,1.2-0.1,1.7-0.3c0.5-0.2,0.8-0.5,1.1-0.9c0.3-0.4,0.5-0.9,0.6-1.4c0.1-0.6,0.2-1.2,0.2-1.9v-0.8h0
				c-0.3,0.8-0.9,1.3-1.6,1.7c-0.7,0.4-1.4,0.5-2.2,0.5c-0.9,0-1.7-0.2-2.4-0.5c-0.7-0.3-1.2-0.8-1.7-1.3c-0.5-0.6-0.8-1.2-1-1.9
				c-0.2-0.7-0.3-1.5-0.3-2.4c0-0.7,0.1-1.5,0.3-2.2c0.2-0.8,0.5-1.4,0.9-2.1c0.4-0.6,1-1.1,1.7-1.5c0.7-0.4,1.6-0.6,2.7-0.6
				c0.8,0,1.5,0.2,2.1,0.5s1.1,0.8,1.5,1.5h0v-1.7h1.9v11.1C294.1,68.3,293.7,69.8,292.8,70.8z M290.2,65.3c0.5-0.3,0.8-0.6,1.1-1.1
				c0.3-0.4,0.5-1,0.6-1.5c0.1-0.6,0.2-1.1,0.2-1.7c0-0.5-0.1-1.1-0.2-1.6c-0.1-0.5-0.3-1-0.6-1.4c-0.3-0.4-0.6-0.7-1.1-1
				c-0.4-0.3-1-0.4-1.6-0.4c-0.6,0-1.2,0.1-1.6,0.4c-0.5,0.2-0.8,0.6-1.1,1c-0.3,0.4-0.5,0.9-0.6,1.4c-0.1,0.5-0.2,1.1-0.2,1.7
				c0,0.5,0.1,1.1,0.2,1.6c0.1,0.5,0.3,1,0.6,1.5c0.3,0.4,0.6,0.8,1.1,1.1c0.4,0.3,1,0.4,1.6,0.4S289.8,65.6,290.2,65.3z"/>
			<path class="st0" d="M306.1,66.6c-0.9,0.7-2.1,1-3.4,1c-1,0-1.8-0.2-2.5-0.5c-0.7-0.3-1.3-0.8-1.8-1.3c-0.5-0.6-0.8-1.2-1.1-2
				c-0.2-0.8-0.4-1.6-0.4-2.6c0-0.9,0.1-1.8,0.4-2.5c0.3-0.8,0.7-1.4,1.2-2c0.5-0.6,1.1-1,1.8-1.3c0.7-0.3,1.5-0.5,2.3-0.5
				c1.1,0,2,0.2,2.7,0.7c0.7,0.4,1.3,1,1.7,1.7c0.4,0.7,0.7,1.4,0.9,2.3c0.2,0.8,0.2,1.6,0.2,2.3H299c0,0.5,0,1,0.2,1.5
				c0.1,0.5,0.4,0.9,0.7,1.3c0.3,0.4,0.7,0.7,1.2,0.9c0.5,0.2,1.1,0.3,1.7,0.3c0.8,0,1.5-0.2,2.1-0.6c0.5-0.4,0.9-1,1.1-1.8h2
				C307.6,64.9,307,65.9,306.1,66.6z M305.6,58.8c-0.2-0.4-0.4-0.8-0.7-1.1c-0.3-0.3-0.7-0.5-1.1-0.7c-0.4-0.2-0.9-0.3-1.4-0.3
				c-0.5,0-1,0.1-1.4,0.3c-0.4,0.2-0.8,0.4-1.1,0.7c-0.3,0.3-0.5,0.7-0.7,1.1c-0.2,0.4-0.3,0.9-0.3,1.3h7
				C305.9,59.7,305.8,59.2,305.6,58.8z"/>
			<path class="st0" d="M319.3,67.4v-1.6h0c-0.3,0.7-0.8,1.2-1.5,1.5c-0.7,0.3-1.5,0.4-2.3,0.4c-0.9,0-1.8-0.2-2.5-0.5
				c-0.7-0.3-1.3-0.8-1.7-1.4c-0.5-0.6-0.8-1.3-1-2c-0.2-0.8-0.4-1.6-0.4-2.4c0-0.9,0.1-1.7,0.3-2.4c0.2-0.8,0.6-1.4,1-2
				c0.5-0.6,1-1,1.7-1.4s1.5-0.5,2.4-0.5c0.3,0,0.6,0,1,0.1c0.4,0.1,0.7,0.2,1.1,0.3c0.4,0.1,0.7,0.3,1,0.6c0.3,0.2,0.6,0.5,0.8,0.9
				h0v-6.2h2v16.8H319.3z M312.1,63.1c0.1,0.5,0.4,1,0.7,1.4c0.3,0.4,0.7,0.8,1.2,1c0.5,0.3,1,0.4,1.7,0.4c0.7,0,1.2-0.1,1.7-0.4
				c0.5-0.3,0.9-0.6,1.2-1c0.3-0.4,0.5-0.9,0.6-1.5c0.1-0.5,0.2-1.1,0.2-1.7c0-0.6-0.1-1.2-0.2-1.7c-0.1-0.6-0.4-1-0.7-1.5
				c-0.3-0.4-0.7-0.8-1.2-1c-0.5-0.3-1.1-0.4-1.8-0.4c-0.7,0-1.2,0.1-1.7,0.4c-0.5,0.3-0.8,0.6-1.1,1.1c-0.3,0.4-0.5,0.9-0.6,1.5
				c-0.1,0.6-0.2,1.1-0.2,1.7C311.9,62,312,62.5,312.1,63.1z"/>
			<path class="st0" d="M342.1,53c-0.9-0.6-1.9-0.9-3-0.9c-1,0-1.9,0.2-2.6,0.6c-0.7,0.4-1.3,0.9-1.8,1.5c-0.5,0.6-0.8,1.4-1,2.2
				c-0.2,0.8-0.3,1.7-0.3,2.5c0,1,0.1,1.9,0.3,2.7c0.2,0.9,0.6,1.6,1,2.2c0.5,0.6,1.1,1.1,1.8,1.5c0.7,0.4,1.6,0.6,2.6,0.6
				c0.7,0,1.4-0.1,2-0.4c0.6-0.2,1.1-0.6,1.5-1c0.4-0.4,0.7-0.9,1-1.5c0.2-0.6,0.4-1.2,0.4-1.9h2.2c-0.2,2.1-0.9,3.8-2.2,4.9
				c-1.2,1.2-2.9,1.8-5.1,1.8c-1.3,0-2.4-0.2-3.4-0.7c-1-0.4-1.8-1.1-2.4-1.8c-0.6-0.8-1.1-1.7-1.4-2.8c-0.3-1.1-0.5-2.2-0.5-3.4
				c0-1.2,0.2-2.4,0.5-3.4c0.3-1.1,0.8-2,1.5-2.8c0.7-0.8,1.5-1.4,2.5-1.9c1-0.5,2.1-0.7,3.4-0.7c0.9,0,1.7,0.1,2.5,0.4
				c0.8,0.2,1.5,0.6,2.1,1c0.6,0.5,1.1,1,1.5,1.7c0.4,0.7,0.7,1.5,0.8,2.4h-2.2C343.5,54.5,342.9,53.6,342.1,53z"/>
			<path class="st0" d="M358.2,67.6c-0.5,0-0.9-0.1-1.2-0.4c-0.3-0.3-0.5-0.8-0.5-1.4c-0.5,0.7-1.2,1.1-1.9,1.4
				c-0.7,0.3-1.5,0.4-2.4,0.4c-0.5,0-1.1-0.1-1.5-0.2c-0.5-0.1-0.9-0.3-1.3-0.6c-0.4-0.3-0.7-0.6-0.9-1.1c-0.2-0.4-0.3-1-0.3-1.6
				c0-0.7,0.1-1.3,0.4-1.7c0.2-0.4,0.5-0.8,0.9-1.1c0.4-0.3,0.8-0.5,1.3-0.6c0.5-0.1,1-0.3,1.5-0.4c0.5-0.1,1.1-0.2,1.6-0.2
				c0.5-0.1,0.9-0.1,1.3-0.2c0.4-0.1,0.7-0.2,0.9-0.4c0.2-0.2,0.3-0.5,0.3-0.9c0-0.4-0.1-0.8-0.2-1.1c-0.2-0.3-0.4-0.5-0.6-0.6
				c-0.3-0.1-0.5-0.2-0.9-0.3c-0.3,0-0.6-0.1-1-0.1c-0.8,0-1.5,0.2-2.1,0.5c-0.6,0.3-0.9,0.9-0.9,1.8h-2c0-0.8,0.2-1.4,0.5-1.9
				c0.3-0.5,0.7-0.9,1.1-1.3c0.5-0.3,1-0.6,1.6-0.7c0.6-0.1,1.3-0.2,1.9-0.2c0.5,0,1.1,0,1.6,0.1c0.5,0.1,1,0.2,1.5,0.5
				c0.4,0.2,0.8,0.6,1.1,1c0.3,0.4,0.4,1,0.4,1.7v6.2c0,0.5,0,0.8,0.1,1c0.1,0.2,0.2,0.3,0.6,0.3c0.2,0,0.4,0,0.6-0.1v1.5
				C359.3,67.5,358.8,67.6,358.2,67.6z M355.4,61.5c-0.4,0.1-0.8,0.2-1.3,0.2c-0.4,0.1-0.9,0.1-1.3,0.2c-0.5,0.1-0.9,0.2-1.2,0.3
				c-0.4,0.2-0.7,0.4-0.9,0.7c-0.2,0.3-0.3,0.7-0.3,1.2c0,0.3,0.1,0.6,0.2,0.8c0.1,0.2,0.3,0.4,0.5,0.6c0.2,0.1,0.5,0.2,0.8,0.3
				c0.3,0.1,0.6,0.1,0.9,0.1c0.7,0,1.2-0.1,1.7-0.3c0.5-0.2,0.9-0.4,1.2-0.7c0.3-0.3,0.5-0.6,0.7-0.9c0.1-0.3,0.2-0.6,0.2-0.9v-2
				C356.2,61.3,355.9,61.4,355.4,61.5z"/>
			<path class="st0" d="M363.7,55.2v2.6h0c0.5-1,1.1-1.7,1.8-2.2s1.6-0.7,2.7-0.7v2.1c-0.8,0-1.5,0.1-2,0.3c-0.6,0.2-1,0.5-1.4,1
				c-0.3,0.4-0.6,0.9-0.8,1.5c-0.2,0.6-0.2,1.3-0.2,2.1v5.4h-2V55.2H363.7z"/>
			<path class="st0" d="M378.2,66.6c-0.9,0.7-2.1,1-3.4,1c-1,0-1.8-0.2-2.5-0.5c-0.7-0.3-1.3-0.8-1.8-1.3c-0.5-0.6-0.8-1.2-1.1-2
				c-0.2-0.8-0.4-1.6-0.4-2.6c0-0.9,0.1-1.8,0.4-2.5c0.3-0.8,0.7-1.4,1.2-2c0.5-0.6,1.1-1,1.8-1.3c0.7-0.3,1.5-0.5,2.3-0.5
				c1.1,0,2,0.2,2.7,0.7c0.7,0.4,1.3,1,1.7,1.7c0.4,0.7,0.7,1.4,0.9,2.3c0.2,0.8,0.2,1.6,0.2,2.3h-9.1c0,0.5,0,1,0.2,1.5
				c0.1,0.5,0.4,0.9,0.7,1.3c0.3,0.4,0.7,0.7,1.2,0.9c0.5,0.2,1.1,0.3,1.7,0.3c0.8,0,1.5-0.2,2.1-0.6c0.5-0.4,0.9-1,1.1-1.8h2
				C379.7,64.9,379.1,65.9,378.2,66.6z M377.7,58.8c-0.2-0.4-0.4-0.8-0.7-1.1c-0.3-0.3-0.7-0.5-1.1-0.7c-0.4-0.2-0.9-0.3-1.4-0.3
				c-0.5,0-1,0.1-1.4,0.3c-0.4,0.2-0.8,0.4-1.1,0.7c-0.3,0.3-0.5,0.7-0.7,1.1c-0.2,0.4-0.3,0.9-0.3,1.3h7
				C378,59.7,377.9,59.2,377.7,58.8z"/>
		</g>
	</g>
	<g>
		<path d="M10.5,50.6l6.5,16.8h-2.5l-1.8-5H5.7l-1.9,5H1.5L8,50.6H10.5z M12.1,60.4l-2.8-7.8h0l-2.8,7.8H12.1z"/>
		<path d="M26.9,50.6c1.6,0,2.8,0.4,3.7,1.2c0.9,0.8,1.3,1.9,1.3,3.2c0,1-0.2,1.9-0.7,2.7c-0.5,0.8-1.2,1.3-2.2,1.6v0
			c0.5,0.1,0.9,0.3,1.2,0.5c0.3,0.2,0.5,0.5,0.7,0.8c0.2,0.3,0.3,0.6,0.4,1c0.1,0.4,0.2,0.8,0.2,1.2c0,0.4,0.1,0.8,0.1,1.2
			c0,0.4,0.1,0.8,0.1,1.2c0.1,0.4,0.2,0.8,0.3,1.2c0.1,0.4,0.3,0.7,0.5,1h-2.5c-0.2-0.2-0.3-0.4-0.3-0.7c-0.1-0.3-0.1-0.6-0.1-1
			c0-0.4,0-0.8,0-1.2c0-0.4-0.1-0.8-0.1-1.2c-0.1-0.4-0.1-0.8-0.2-1.2c-0.1-0.4-0.2-0.7-0.4-1c-0.2-0.3-0.5-0.5-0.8-0.7
			c-0.3-0.2-0.8-0.2-1.3-0.2h-5.4v7.2H19V50.6H26.9z M27.4,58.2c0.5-0.1,0.9-0.2,1.2-0.5c0.4-0.2,0.6-0.5,0.8-0.9
			c0.2-0.4,0.3-0.9,0.3-1.5c0-0.8-0.2-1.5-0.7-2.1c-0.5-0.5-1.2-0.8-2.3-0.8h-5.5v5.8h4.6C26.4,58.3,26.9,58.3,27.4,58.2z"/>
		<path d="M37.8,50.6l8.8,13.6h0V50.6h2.1v16.8h-2.4l-8.8-13.5h0v13.5h-2.1V50.6H37.8z"/>
		<path d="M62.9,53c-0.9-0.6-1.9-0.9-3-0.9c-1,0-1.9,0.2-2.6,0.6c-0.7,0.4-1.3,0.9-1.8,1.5c-0.5,0.6-0.8,1.4-1,2.2
			c-0.2,0.8-0.3,1.7-0.3,2.5c0,1,0.1,1.9,0.3,2.7c0.2,0.9,0.6,1.6,1,2.2c0.5,0.6,1.1,1.1,1.8,1.5c0.7,0.4,1.6,0.6,2.6,0.6
			c0.7,0,1.4-0.1,2-0.4c0.6-0.2,1.1-0.6,1.5-1c0.4-0.4,0.7-0.9,1-1.5c0.2-0.6,0.4-1.2,0.4-1.9H67c-0.2,2.1-0.9,3.8-2.2,4.9
			c-1.2,1.2-2.9,1.8-5.1,1.8c-1.3,0-2.4-0.2-3.4-0.7c-1-0.4-1.8-1.1-2.4-1.8c-0.6-0.8-1.1-1.7-1.4-2.8C52.1,61.4,52,60.3,52,59
			c0-1.2,0.2-2.4,0.5-3.4c0.3-1.1,0.8-2,1.5-2.8c0.7-0.8,1.5-1.4,2.5-1.9c1-0.5,2.1-0.7,3.4-0.7c0.9,0,1.7,0.1,2.5,0.4
			c0.8,0.2,1.5,0.6,2.1,1c0.6,0.5,1.1,1,1.5,1.7c0.4,0.7,0.7,1.5,0.8,2.4h-2.2C64.3,54.5,63.8,53.6,62.9,53z"/>
		<path d="M72.3,50.6v14.9h8.9v1.9H70.1V50.6H72.3z"/>
		<path d="M85.8,50.6v16.8h-2.2V50.6H85.8z"/>
		<path d="M100.9,50.6v1.9h-8.8v5.3h7.7v1.9h-7.7v7.7h-2.2V50.6H100.9z"/>
		<path d="M114.8,50.6v1.9H106v5.3h7.7v1.9H106v7.7h-2.2V50.6H114.8z"/>
		<path d="M129.2,50.6v1.9h-9.3v5.3h8.7v1.9h-8.7v5.8h9.4v1.9h-11.6V50.6H129.2z"/>
	</g>
	<g>
		<rect x="1.6" y="40.7" class="st0" width="102.9" height="1"/>
		<path class="st0" d="M123.1,41.7H331c-0.4-0.3-0.8-0.7-1.1-1H123.1V41.7z"/>
		<path class="st0" d="M354.6,41.9h25.6v-1h-24.5C355.4,41.2,355,41.5,354.6,41.9z"/>
	</g>
	<g>
		<path class="st1" d="M23.7,32.1H21L10.8,4.9h-0.1v21.9c0,2.1,0.6,2.9,2.2,2.9h3.2v2.4H2.4v-2.4h3.2c1.6,0,2.2-0.8,2.2-2.9V6.9
			c0-1.8-0.5-2.6-2.2-2.6H2.5V1.9H14l9.1,23.8l9.6-23.8h11.1v2.4h-1.6c-2.7,0-3.7,0.4-3.7,2.6v19.9c0,2.1,0.6,2.9,2.2,2.9h3.1v2.4
			H28.7v-2.4h3.1c1.6,0,2.2-0.7,2.2-2.2V5.9H34L23.7,32.1z"/>
		<path class="st1" d="M63.9,28.2c0,1.4,0.4,2.4,1.2,2.4c2,0,2.1-2.5,2.1-3.9v-1.9h2.1v1.3c0,4.8-1.6,6.6-5.1,6.6
			c-2.3,0-3.6-1.4-4-3.5c-2.2,2.5-4.8,3.5-8.1,3.5c-3.7,0-6.7-1.6-6.7-5.7c0-5.9,8.2-5.8,12.8-8c1.4-0.7,1.7-1.5,1.7-2.9
			c0-2.6-1.1-3.9-5.1-3.9c-1.8,0-4,0.3-5.3,1.8c1.4,0.2,2.1,1,2.1,2.3c0,1.8-1.5,2.4-2.7,2.4c-1.6,0-2.4-1.4-2.4-3.2
			c0-3.9,5.2-5.4,8.6-5.4c5.2,0,8.6,1.5,8.6,7.5V28.2z M60.1,20.5c-2,1.1-4,1.6-6.7,2.7c-2.5,1-3.5,2-3.5,3.6c0,2.4,1.3,3.8,3.6,3.8
			c3,0,6.6-2.8,6.6-6V20.5z"/>
		<path class="st1" d="M91,24.2c-0.6,6.1-4.4,8.5-10.4,8.5c-5.6,0-10-3.8-10-11.3c0-6.7,4.8-11.3,11.3-11.3c4,0,9.2,2.1,9.2,6.8
			c0,1.9-1.1,3.1-2.9,3.1c-1.1,0-2.2-1-2.2-2.1c0-1.5,0.8-2.4,2.3-2.6c-0.7-2.2-3.7-3.1-5.8-3.1c-5.8,0-7.6,5-7.6,9.2
			c0,4.2,1.9,9.2,6.8,9.2c3.6,0,5.9-2.5,6.6-6.4H91z"/>
		<path class="st1" d="M112,10.8h8.2v2.1h-2.2c-1.5,0-2.1,0.9-2.1,2.4v22c0,1.5,0.6,2.3,2,2.3h2.3v2.1h-12.7v-2.1h2.5
			c1.4,0,2-0.9,2-2.3v-8.8h-0.1c-1.5,2.6-3.7,4.3-7.6,4.3c-6.7,0-9.7-5.4-9.7-11.4c0-5.8,3-11.2,9.7-11.2c3.6,0,6,1.7,7.6,4.7h0.1
			V10.8z M99,21.4c0,4.5,1.9,8.8,6.5,8.8c4.6,0,6.5-4.2,6.5-8.8c0-4.5-1.9-8.8-6.5-8.8C100.8,12.6,99,16.9,99,21.4z"/>
		<path class="st1" d="M141.3,28.2L141.3,28.2c-1.9,2.9-4.6,4.5-8.1,4.5c-4.8,0-7.3-2.1-7.3-7.1V15c0-1.4-0.3-2.1-1.8-2.1h-2.7v-2.1
			h8.4v14.4c0,3.1,1.2,5,4.7,5c4.3,0,6.9-3.5,6.9-7.1V15c0-1.4-0.3-2.1-1.8-2.1h-2.8v-2.1h8.5v17.1c0,1.4,0.3,2.1,1.8,2.1h3v2.1
			h-8.6V28.2z"/>
		<path class="st1" d="M170.1,28.2c0,1.4,0.4,2.4,1.2,2.4c2,0,2.1-2.5,2.1-3.9v-1.9h2.1v1.3c0,4.8-1.6,6.6-5.1,6.6
			c-2.3,0-3.6-1.4-4-3.5c-2.2,2.5-4.8,3.5-8.1,3.5c-3.7,0-6.7-1.6-6.7-5.7c0-5.9,8.2-5.8,12.8-8c1.4-0.7,1.7-1.5,1.7-2.9
			c0-2.6-1.1-3.9-5.1-3.9c-1.8,0-4,0.3-5.3,1.8c1.4,0.2,2.1,1,2.1,2.3c0,1.8-1.5,2.4-2.7,2.4c-1.6,0-2.4-1.4-2.4-3.2
			c0-3.9,5.2-5.4,8.6-5.4c5.2,0,8.6,1.5,8.6,7.5V28.2z M166.2,20.5c-2,1.1-4,1.6-6.7,2.7c-2.5,1-3.5,2-3.5,3.6
			c0,2.4,1.3,3.8,3.6,3.8c3,0,6.6-2.8,6.6-6V20.5z"/>
		<path class="st1" d="M185.9,15.4L185.9,15.4c1.2-3.1,3.9-5.3,6.5-5.3c3.1,0,5.1,1.7,5.1,4.8c0,1.7-0.7,3-2.5,3
			c-1.2,0-2.5-0.8-2.5-2.1c0-1.6,1.1-2.4,2.7-2.4c-0.2-1-1.6-1.3-2.6-1.3c-4.3,0-6.5,5-6.5,9.5v6.1c0,1.4,0.8,2.1,2.3,2.1h2.5v2.1
			h-13.4v-2.1h3c1.5,0,1.8-0.7,1.8-2.1V15c0-1.4-0.3-2.1-1.8-2.1h-3.1v-2.1h8.6V15.4z"/>
		<path class="st1" d="M208.3,27.8c0,1.4,0.3,2.1,1.8,2.1h2.9v2.1h-13.4v-2.1h3c1.5,0,1.8-0.7,1.8-2.1V15c0-1.4-0.3-2.1-1.8-2.1h-3
			v-2.1h8.6V27.8z M205.7,6.4c-1.4,0-2.5-1.1-2.5-2.5c0-1.3,1.1-2.5,2.5-2.5c1.3,0,2.5,1.1,2.5,2.5C208.2,5.3,207.1,6.4,205.7,6.4z"
			/>
		<path class="st1" d="M219.2,21.7c0,4.6,1,8.9,6.4,8.9c3.6,0,5.9-1.9,6.8-5.5h2.6c-1,4.9-4.1,7.6-9.5,7.6
			c-6.7,0-10.6-3.9-10.6-11.3c0-7.5,3.9-11.3,10.6-11.3c7.3,0,9.7,5.1,10.1,11.6H219.2z M231.3,19.6c0-4-1.8-7.3-5.9-7.3
			c-4.2,0-6.2,3.4-6.2,7.3H231.3z"/>
		<path class="st1" d="M246.7,32.1v-2.4h3.5c1.4,0,2-0.9,2-2.3V6.6c0-1.5-0.6-2.4-2.1-2.4h-3.4V1.9h15.5v2.4h-3.5
			c-1.5,0-2.1,0.9-2.1,2.4v23.1h8.6c5.4,0,7.3-1.8,7.3-10.1h2.4v12.4H246.7z"/>
		<path class="st1" d="M300.7,21.4c0,6.5-4.4,11.3-11.7,11.3c-7.3,0-11.7-4.8-11.7-11.3c0-6.6,4.4-11.3,11.7-11.3
			C296.3,10.1,300.7,14.9,300.7,21.4z M281.6,21.4c0,4.9,1.8,9.2,7.4,9.2c5.6,0,7.4-4.3,7.4-9.2c0-4.9-1.8-9.2-7.4-9.2
			C283.3,12.2,281.6,16.5,281.6,21.4z"/>
		<path class="st1" d="M320.4,28L320.4,28c-1.7,3-3.6,4.8-7.6,4.8c-6.8,0-9.8-5.8-9.8-11.3c0-5.5,3-11.3,9.8-11.3
			c2.9,0,6,1.6,7.6,4.5h0.1v-8c0-1.5-0.6-2.6-2.1-2.6H316V1.9h8.3v26.4c0,1.1,0.6,1.6,1.7,1.6h2.6v2.1h-8.2V28z M307.3,21.4
			c0,5.2,1.8,8.8,6,8.8c5.1,0,7-4.2,7-8.8c0-4.5-1.9-8.8-6.5-8.8C309.1,12.6,307.3,16.9,307.3,21.4z"/>
		<path class="st1" d="M345.6,29.5c6.8,0,9.4,2,9.4,5.7c0,4.3-4.3,6.5-12.1,6.5c-7.3,0-11.5-1.6-11.5-5.3c0-2.9,2.5-3.9,4.8-4v-0.1
			c-2.1,0-4-1.5-4-3.7c0-2.2,1.9-4,4-4.4c-2.3-1.3-3.2-3.8-3.2-6.3c0-5.6,5-7.8,9.9-7.8c2.7,0,5.3,1,7.4,2.6
			c1.1-1.4,2.7-2.6,4.6-2.6c2.5,0,4.4,1.5,4.4,4c0,1.8-0.8,2.9-2.7,2.9c-1.3,0-2.1-1-2.1-2.2c0-1.3,0.9-1.9,2.2-1.9
			c-0.4-0.6-1.1-0.7-2-0.7c-1.2,0-2.6,0.9-3.4,1.8c0.7,1.4,1.3,3,1.3,4.9c0,3.6-3.7,7.3-9.6,7.3c-3.7,0-4.3-0.9-5-0.9
			c-1.2,0-2.4,1.1-2.4,2.3c0,1.3,1.2,1.9,2.6,1.9H345.6z M340.1,32.9c-2.7,0-5.4,1.2-5.4,3.2c0,3,4,3.5,8.6,3.5
			c4.5,0,8.3-1.2,8.3-3.4c0-2.4-1.6-3.3-4.5-3.3H340.1z M337.2,18.2c0,3.5,1.6,5.9,5.5,5.9c3.9,0,5.5-2.4,5.5-5.9c0-3.5-1.6-6-5.5-6
			C338.9,12.2,337.2,14.7,337.2,18.2z"/>
		<path class="st1" d="M365.1,21.7c0,4.6,1,8.9,6.4,8.9c3.6,0,5.9-1.9,6.8-5.5h2.6c-1,4.9-4.1,7.6-9.5,7.6
			c-6.7,0-10.6-3.9-10.6-11.3c0-7.5,3.9-11.3,10.6-11.3c7.3,0,9.7,5.1,10.1,11.6H365.1z M377.2,19.6c0-4-1.8-7.3-5.9-7.3
			c-4.2,0-6.2,3.4-6.2,7.3H377.2z"/>
	</g>
</g>
<g>
</g>
<g>
</g>
<g>
</g>
<g>
</g>
<g>
</g>
<g>
</g>
</svg>
