<?xml version="1.0" encoding="utf-8"?>
<!-- Generator: Adobe Illustrator 19.1.0, SVG Export Plug-In . SVG Version: 6.00 Build 0)  -->
<!DOCTYPE svg PUBLIC "-//W3C//DTD SVG 1.1//EN" "http://www.w3.org/Graphics/SVG/1.1/DTD/svg11.dtd">
<svg version="1.1" id="Layer_1" xmlns="http://www.w3.org/2000/svg" xmlns:xlink="http://www.w3.org/1999/xlink" x="0px" y="0px"
	 viewBox="0 0 1600 1200" style="enable-background:new 0 0 1600 1200;" xml:space="preserve">
<style type="text/css">
	.st0{fill:#FFFFFF;}
	.st1{fill:#EF373E;}
	.st2{clip-path:url(#SVGID_6_);fill:#EF3E42;}
	.st3{clip-path:url(#SVGID_8_);fill:#EF3E42;}
	.st4{clip-path:url(#SVGID_10_);fill:#EF3E42;}
	.st5{clip-path:url(#SVGID_12_);fill:#EF3E42;}
	.st6{clip-path:url(#SVGID_14_);fill:#EF3E42;}
	.st7{clip-path:url(#SVGID_18_);fill:#EF3E42;}
	.st8{clip-path:url(#SVGID_20_);fill:#EF3E42;}
	.st9{clip-path:url(#SVGID_22_);fill:#EF3E42;}
	.st10{clip-path:url(#SVGID_24_);fill:#EF3E42;}
	.st11{clip-path:url(#SVGID_28_);fill:#EF3E42;}
	.st12{clip-path:url(#SVGID_30_);fill:#EF3E42;}
	.st13{clip-path:url(#SVGID_32_);fill:#EF3E42;}
	.st14{clip-path:url(#SVGID_34_);fill:#EF3E42;}
	.st15{clip-path:url(#SVGID_36_);fill:#EF3E42;}
	.st16{clip-path:url(#SVGID_38_);fill:#EF3E42;}
	.st17{fill:#F58C79;}
	.st18{font-family:'HelveticaNeue-Bold';}
	.st19{font-size:24.1094px;}
	.st20{fill:none;stroke:#FFFFFF;stroke-width:2.4119;}
</style>
<g>
	<path class="st0" d="M545.8,1156.9c-0.5,0-0.9,0-1.4,0c-0.3,0-0.7,0-1,0c-2.4,0-7.3,0-8.2-4c-0.2-0.9-0.3-1.9-0.3-2.8
		c0-0.1,0-0.2,0-0.3c-0.2-0.2-0.4-0.4-0.5-0.6c-1,0.9-2.3,1.5-3.1,1.7c-0.3,0.1-0.6,0.1-0.9,0.1c-0.1,0-0.2,0-0.3,0
		c-0.1,0-1.4-0.1-2.4-0.1c-0.3,0-0.5,0-0.6,0c-0.5,0.2-1,0.2-1.5,0.2c-0.5,0-0.9,0-1.2-0.1c-0.1,0-0.1,0-0.2,0
		c-1.2,1.2-3,2.9-5.3,2.9c-0.7,0-1.4-0.2-2.1-0.5c-2.5-1.4-2.3-4.4-2.2-7.1c0-0.3,0-0.6,0-1c-0.7-0.8-1.2-1.9-1.5-2.9
		c-0.6-0.1-1.1-0.3-1.6-0.6c-1.3-0.8-2.5-1.6-3.5-2.4c-1.6-1.2-3.7-4-3.3-6.8c0,0,0,0,0-0.1c-3.5-0.1-4.9-1.8-5.4-3.1
		c-0.5-1.3-3-7.9-3.1-10.2c-0.1-0.3-0.6-1.2-1-1.7c-2.1-0.8-2.9-3.8-3.9-8.8l-0.1-0.2c0-0.2-0.2-0.9-0.4-1.4
		c-1.5-5.5-1.6-6.5-1.3-7.5c0-0.2,0.1-0.3,0.2-0.5c-0.3-0.6-0.4-1.3-0.2-1.9l0.5-2.4c-0.8-1.2-1.4-2.1-1.6-2.7
		c-0.2-0.4-1.5-2.2-2.2-3.3c-1.5-2.2-2.5-3.6-2.9-4.5c-0.1-0.3-0.6-1-1.1-1.6c-1.8-2.5-3.1-4.5-3.3-6.6c-0.1-1.1-0.5-1.8-0.7-1.9
		c-1.1-0.7-4.5-4.1-3.8-6.8c0.1-0.2,0.2-0.5,0.3-0.7c-0.8-1.4-1.2-2.9-1.2-4.5c0-1.4-0.7-3.4-0.9-4c-0.2-0.5-0.3-1.1-0.2-1.6
		c0.1-1,0.3-2.2,0.3-3c-1.2-0.9-1.9-2.3-1.9-3.7c0-1.1,0.5-2.5,1.6-4.8c0.1-0.3,0.3-0.6,0.3-0.7c0.1-0.3,0.3-0.7,0.6-1.3
		c0.1-0.3,0.5-0.9,0.7-1.3c-0.2-1.2-0.4-3.8,1-5.6c0.2-0.2,0.3-0.4,0.5-0.6c-0.7-1.1-0.7-2.4-0.6-3.4c0-0.2,0-0.4,0-0.5
		c-0.4-2.1,0.3-4.7,2.5-5.8c1.3-0.6,2.8-0.7,3.3-0.7c1.7,0,3.1,1.4,3.1,3.1c0,0.6-0.1,2.7-1,4.2c-0.2,0.4-0.7,1.5-1,2.4
		c1.1,0.3,1.9,0.8,2.5,1.1c0.2,0.1,0.4,0.2,0.5,0.3c0.5,0.2,1,0.5,1.7,0.8c0.4,0.2,1.4,0.7,1.9,1c0.1,0,0.2-0.1,0.3-0.1
		c0.1,0,0.3-0.1,0.5-0.1c0.9-1.4,2.7-2.8,4.8-2.8c0.7,0,1.3,0.1,1.9,0.4c1.4,0.6,2.2,1.8,2.9,2.7c0.1,0.2,0.3,0.4,0.5,0.6
		c1.6,0.2,2.9,1.1,4,1.9c0.2,0.1,0.6,0.4,0.8,0.6c0.1,0,0.2,0,0.4,0c1.4,0.2,3.5,0.4,5.2,2c0.7,0.6,1.3,1,2.3,1.3
		c2.1,0.7,7,2.5,7.5,5.5c0,0.1,0,0.1,0,0.2c1,0.1,3.5,0.4,5.6,0.4c1,0,1.3,0,1.4-0.1c0.4-0.1,1.4-0.6,2.1-1c1.8-0.8,2.9-1.3,3.9-1.5
		c0.4-0.1,0.8-0.1,1.3-0.1c0.9,0,1.8,0.1,2.6,0.2c0.4-0.2,0.7-0.4,0.8-0.5c1.6-2.3,5.3-3.1,6.1-3.2c0.1,0,0.7-0.2,0.9-0.3
		c1.7-0.6,3.1-1.1,4.4-1.1c0.8,0,1.5,0.2,2.1,0.5c0.1,0.1,0.3,0.2,0.4,0.3c0.8-0.8,2-2,4.2-2c0.2,0,0.4,0,0.6,0h0.2
		c0.2,0,0.4,0,0.7,0c0.7,0,1.2,0,1.5-0.1c0.4-1.1,1.3-2.3,3.5-2.8c0.8-0.2,1.6-0.2,2.1-0.2c0.3,0,0.5,0,0.8,0c0.2,0,0.4,0,0.6,0
		c0.4,0,0.6,0,0.7-0.1c1.5-0.5,3.2-0.8,4.8-0.9c0-0.6,0.2-1.1,0.4-1.7c0.1-0.2,0.2-0.4,0.4-0.5c-0.5-0.4-0.9-1-1.2-1.4l-0.1-0.1
		c-0.7-0.9-0.9-2-0.6-3.2c-0.1-0.1-0.6-0.3-0.8-0.4c-1.8-0.8-2.3-2.2-2.5-3c-0.3-1.4,0.3-2.8,1.6-4.1c0.1-0.1,0.3-0.3,0.5-0.4
		c-0.8-1.3-0.9-3-0.8-3.9c0-0.1,0-0.1,0-0.2c-0.2-0.3-0.4-0.7-0.5-1.1c-0.5-0.4-1-1-1.3-2c-0.2,0-0.4,0-0.5-0.1
		c-1.1-0.1-2.1-0.8-2.6-1.8c-0.4-0.8-0.4-1.6-0.2-2.4c-1.1-0.6-1.7-1.6-2.1-2.1c-0.1-0.1-0.1-0.2-0.2-0.3c-0.9-1-1.9-3.1,1.3-6
		c0.2-0.2,0.5-0.4,0.6-0.5c0.1-0.1,0.1-0.2,0.2-0.3c0-0.2,0.1-0.4,0.1-0.6c0.5-1.5,1.9-2.1,2.7-2.5c0.1,0,0.4-0.2,0.5-0.2
		c0.7-0.6,1.5-0.9,2.4-0.9c2.2,0,3.1,1.9,3.5,2.6c0.1,0.1,0.1,0.2,0.2,0.3c0.4,0.6,2.9,3.5,5,5.8c0,0,0,0,0,0
		c0.9,0.2,2.7,0.5,3.7,2.4c0.8,1.5,1,3.4,0.4,5.1c0.4,1.1,0.5,2.6,0.5,3.9l0,0.5c0,0.5,0,1.1-0.2,1.7c0.3,0.3,0.6,0.6,0.8,0.8
		c0.1,0.1,0.2,0.2,0.3,0.3c0.4,0.3,0.8,0.7,1.1,1c0.1,0.1,0.3,0.3,0.4,0.4c0.6,0.3,1.8,1.2,2,3.2c0.2,1.4-0.1,3.4-1.5,4.6
		c-0.1,0.1-0.1,0.1-0.2,0.2l-0.1,0.1c-1,1-2.3,2.3-4.1,2.3c-0.3,0-0.6,0-0.9-0.1c0,0.1-0.1,0.1-0.1,0.2c0.1,0,0.1,0.1,0.2,0.1
		c0.7,0.4,1.5,0.9,2.3,1.6c0.4,0.3,1.4,1.1,1.8,1.3c2.1,0.3,3.6,2.3,4.2,3.5c1,1.8,1.3,3.5,0.7,4.8c0,0.5,0.1,1.4,0.2,1.9
		c0.3,2.1,0.4,3.6-0.4,4.9c-0.1,0.2-0.3,0.4-0.5,0.7c-0.7,1-1.1,1.5-1.2,1.8c0.8,1.6,1.5,3.7,0.9,5.9l0,0.1c-0.8,2.8-1,3.7-1,4
		c0,0.2,0.2,0.6,0.8,1.9l0,0.1c0.9,0.3,2.3,0.7,3,2.2c0.4,0.9,0.5,1.9,0.2,2.8c-0.2,0.6-0.5,1.1-0.7,1.5c1.4,1.6,2.1,3.1,2.1,4.7
		c0,0.9-0.2,2.1-0.6,3.8c-0.1,0.5-0.3,1.6-0.4,1.9c0,0.2,0.3,0.7,0.4,0.9c2,1.6,1.9,4.6,0.6,6.6c-0.3,0.5-0.5,0.8-0.6,1.1
		c0,0.1,0.1,0.1,0.1,0.2c1,1.3,2.2,2.9,1.4,4.9c-0.4,1.1-1.4,1.8-2.5,2.1c0,0-0.1,0-0.2,0.1c0.4,1.6,0.6,3.2-0.4,4.6
		c-0.6,0.8-1.6,1.3-2.6,1.3c-0.2,0-0.4,0-0.6-0.1c-1.7-0.3-2.7-1.6-3.9-2.9c-0.2-0.2-0.3-0.4-0.5-0.6c0.1,2.6,0,3.3-0.2,4
		c-0.1,0.2-0.2,0.4-0.3,0.7c0,0.1-0.2,0.4-0.3,0.7c0.5,0.8,1.2,2.1,1.2,3.6c0.2,0,0.5,0.1,0.7,0.2c0.7,0.2,2.9,1.2,3.7,3.2
		c0.6,1.4,0.4,2.7,0.3,3.7c0,0.3-0.1,0.6-0.1,0.8c0,2.7-2.3,4.1-4.3,4.5c-0.1,0-0.2,0-0.3,0.1c0.6,0.8,1,1.8,1,3
		c0,0.3,0,0.8,0.1,1.4c0.1,2,0.2,3.5,0,4.5c0.1,0.2,0.1,0.5,0.2,0.7c0.5,1.8,1.1,3.7-0.1,5.4c-0.7,0.9-1.7,1.4-2.8,1.4
		c-0.2,0-1.1,0.1-1.6,0.2c-1.1,0.2-2.4,0.4-3.5,0.4c-0.6,0-1.1-0.1-1.6-0.2c-0.1,0-0.3-0.1-0.4-0.1c-1.2-0.3-4.9-1-4.6-5.5
		c-0.2-0.2-0.5-0.5-0.7-0.8c-0.2,1.3-0.4,3-0.4,3.6c0,2.2-0.2,5.2-1.4,7.1c-0.1,0.3-0.1,1.2-0.1,1.5c-0.1,1.6-0.4,6-4.3,6
		c-0.2,0-0.5,0-0.9,0.1c-0.5,0-1.1,0.1-1.7,0.1c-1.8,0-3.2-0.6-4-1.7c-0.3,0.4-0.6,0.9-0.8,1.2c0.4,1.9-0.4,3.8-2.1,5
		C550.8,1156.6,549.1,1156.9,545.8,1156.9"/>
	<path class="st0" d="M460.2,1001.9c-0.8-2-1.8-4.4-3.4-5.9c-1.3-1.3-2.8-1.9-4.2-1.9c-1.7,0-3.1,1-3.9,2.7
		c-0.1,0.3-0.4,0.7-0.6,1.2c-0.8,1.4-2.1,3.6-1.2,6.2c0.6,1.9,0.9,5.3,0.7,7c0,0.2-0.1,0.5-0.1,0.7c-0.2,1.5-0.5,3.2,0.7,4.5
		c0.4,0.5,1.3,1.1,2.7,1.1h1.8c1.6,0,2.5-1.3,3.3-2.5c0,0,0,0,0,0c0.4,0.1,0.8,0.3,1.4,0.3c1.3,0,2.9-0.6,3.8-3.6
		c1.1-3.7,1-6-0.2-8.1C460.7,1003.2,460.5,1002.6,460.2,1001.9"/>
	<path class="st0" d="M245.3,149.4c0.1-1.1,0.4-2.1,0.6-2.8c0.2-0.7,0.1-1.4-0.3-2c-0.4-0.6-1.1-1-1.8-1c0,0-0.2,0-0.5,0
		c-3.8,0-6.4,1.3-7.2,3.6c-0.2,0.7-0.8,1.4-1.4,2.2c-0.9,1.2-2,2.5-2.1,4.3c-0.2,2,0,7,0,8.1c-0.1,1-0.2,3.4,1.2,5
		c0.7,0.8,1.8,1.3,2.9,1.3c0.8,0,1.9-0.1,3.1-0.3c1.4-0.2,2.9-0.3,4.2-0.3c0.9,0,1.3,0.1,1.4,0.1c1,0.8,2.5,1.3,4.2,1.3
		c3.4,0,4.9-1.8,4.9-3.6c0-0.2,0-0.5,0.1-0.8c0.2-1,0.4-2.4-0.7-3.6c-0.7-0.8-1.7-1.2-3-1.2c-1.4,0-2.8-0.2-3.8-0.4
		c0.5-0.8,1.2-1.7,1.5-1.9c1.6-0.6,5.3-4,5.4-6.6c0-1.2-0.6-2.3-1.6-2.8c-0.7-0.3-1.4-0.5-2.2-0.5
		C248.1,147.4,246.2,148.7,245.3,149.4"/>
	<path class="st0" d="M322.2,241.8c-2,0-3.1,1.6-3.8,2.5c-0.2,0.3-0.4,0.6-0.6,0.8c-1.1,1.1-1.1,2.3-1,2.9c0.3,1.6,1.7,2.4,2.1,2.6
		c0.1,0.1,0.2,0.1,0.3,0.1c0.3,0.1,2.6,0.8,4.3,0.8c0.7,0,1.4-0.1,1.9-0.4c1.1-0.5,1.7-1.5,1.7-2.6c0-2-1.3-6.1-4.3-6.7
		C322.7,241.8,322.4,241.8,322.2,241.8"/>
	<path class="st0" d="M316,240.2L316,240.2c1.3,0,2.4-0.6,3.2-1.6c0.2-0.3,0.4-0.5,0.6-0.8c1.4-1.8,2.6-3.4,2.6-5c0.1,0,0.1,0,0.2,0
		c1.8,0,5.3-0.7,6.1-3.2c0.2-0.5,0.5-2.4-1.7-3.9c-1.2-0.8-2.3-1.1-3.5-1.1c-0.9,0-1.7,0.2-2.5,0.4c-0.5,0.1-1,0.3-1.5,0.3
		c-2.5,0.3-5.5,0.6-7.4,3.6c-2.3,3.8-2.6,7-0.7,8.8C311.9,238.4,313.8,240.2,316,240.2"/>
	<path class="st0" d="M279,849.5c-1.5-1-1.8-2.6-2.1-3.9c-0.2-1.1-0.8-3.5-3.1-3.5c-2.2,0-2.9,2-3.2,2.8c-0.1,0.2-0.1,0.4-0.2,0.5
		c-0.3,0-0.6,0-0.9,0c-0.8,0-1.9,0-3.1,0c-8,0-10.2,0.5-11.3,1c-2.2,1-7.9,2.7-9.7,2.9c-0.4,0-0.9,0.1-1.4,0.1
		c-2.3,0.1-4.6,0.3-5.5,2.2c-0.2,0.5-0.6,1.7,0.4,3.2c0.2,0.4-0.1,1.9-0.3,2.6c-0.3,1.1-0.5,2.2-0.3,3.2c0.4,2.6,3.1,4.4,5.3,4.4
		c0.4,0,0.9-0.1,1.3-0.2c0.5-0.1,3.7-1.2,5.5-2.3c1.1-0.5,6.1-0.9,8.2-0.9c0.4,0,1.5,0.3,2.4,0.5c2.8,0.7,5,1.2,6.5,1.2
		c0.4,0,0.7,0,1.1-0.1c0.3-0.1,0.8-0.1,1.3-0.2c1.8-0.2,4.3-0.4,5.8-2.3c0.5-0.6,2-1,3.7-1c1.4,0,2.7-1,3.2-2.5
		C283.1,855,282.3,851.9,279,849.5"/>
	<path class="st0" d="M722.4,613.3c-0.6-1.9-1.2-3.9-1.2-5.1c0-0.4-0.1-0.9-0.2-1.4c-0.2-1.4-1.3-2.4-2.7-2.6
		c-0.4,0-0.7-0.1-1.1-0.1c0.6-0.1,1.1-0.4,1.5-0.9c0.6-0.7,1-1.6,0.8-2.5c0-0.2,0-0.3,0-0.4c0.4-1.9-0.2-4.2-1.2-7.5
		c-0.3-0.9-0.8-2.8-0.8-3.3c0-2.4-0.3-6.2-0.8-8.7c-0.1-0.6-0.4-1.4-0.8-2.2c0-0.1,0-0.1,0-0.2c0-0.2,0-0.3,0-0.5c0-0.2,0-0.3,0-0.5
		c0-1.4-0.3-2.7-0.9-4c0.4-1.5,0.7-2.8,0.8-3.6c0-0.2,0.1-0.5,0.1-0.7l0-0.1c0.3-1.9,0.7-4.1-0.7-5.7c0-0.1-0.1-0.1-0.1-0.2
		c0.1-0.6,0.2-1.1,0.1-1.7c-0.1-0.9-0.3-1.9-0.5-2.7c-0.1-0.4-0.3-1.2-0.3-1.5c0.2-0.9,0.6-2.8-0.6-4.3c-0.5-0.7-1.3-1.1-2.1-1.3
		c0.2-1.2,0.1-2.4-0.5-3.4c-0.3-0.6-0.7-1.3-1.2-2c-0.3-0.5-1.1-1.8-1.5-2.6c0.6-0.7,1.4-1.9,1.4-3.9c0-2.9-2-4.6-3.5-5.5
		c1.9-1.6,3-4.8,0.5-9.4c-0.7-1.3-0.6-4.1-0.6-5.7c0-1.1,0-1.8-0.1-2.4c0-0.6,0.2-2.9,0.3-4.2c0.1-1.7,0.3-3.3,0.3-4.3
		c0-0.8,1-2.8,2.4-4.5c1.1-1.4,1.9-2,3.2-2.3c2.5-0.5,3.1-2.3,3.3-3c0.5-2-0.7-4.1-3.3-6.3c-0.4-0.3-1.3-2-1.5-3
		c-0.7-2.7-3.7-3.6-6.1-3.6c-1.1,0-2,0.5-2.6,1.4c-1.1,1.5-0.5,3,0.1,4.7c0.1,0.2,0.2,0.5,0.3,0.7c-0.6,0.8-1.4,2.1-2.6,4.3
		c-0.6,1-1.8,3.1-2.2,3.6c-0.2,0.1-0.9,0.5-4.3,1.1c-0.6-0.5-1.6-1.5-2.2-2c-1.1-1.1-1.8-1.7-2.5-2.1c-0.1-0.1-0.3-0.5-0.4-0.7
		c0.5-1.7,0-3.9-0.8-7c-0.2-0.7-0.4-1.4-0.4-1.7c-0.6-3.4-4.1-4-5.7-4.2c-0.1,0-0.2,0-0.3,0c-0.9-0.6-3.1-2.6-4.1-3.5
		c-0.7-0.6-1.3-1.1-1.7-1.5c-0.4-0.6-0.9-2.5-1.7-5.6c-0.2-0.7-0.4-1.4-0.5-1.9c0.1-0.2,0.2-0.4,0.2-0.6c0.4-0.8,0.9-2.1,0.9-3.7
		c0-3.2-3-7.3-4.3-8.9c-1.5-1.9-6.4-4.9-8.9-5.2c-0.7-0.1-1.2-0.2-1.6-0.4c0.2-1.4,0.4-3.6-1.1-5.5c-1.8-2.3-7-4.5-8.5-5.1
		c-0.7-0.3-1.5-0.4-2.3-0.4c-1.4,0-2.7,0.5-4,1.4c-1.3-0.7-1.9-1.2-2.1-1.5c-0.5-0.8-0.8-2.7-0.9-4.1c-0.1-1-0.3-2-0.5-2.8
		c0-0.4,0.6-1.5,0.8-2c0.3-0.6,0.6-1.3,0.9-2c1.2-3.3-0.9-6.9-2.1-8.8l-0.2-0.3c-0.1-0.2-0.3-0.7-0.5-1.1c-0.1-0.2-0.2-0.5-0.3-0.7
		c0.8-0.8,1.4-1.9,1.5-2.9c0.2-1.9-0.8-3.5-2.6-4.1c-0.9-2.1-2.5-2.8-3.1-3c0,0-0.1,0-0.2-0.1l-0.1,0c-0.3-0.1-0.6-0.2-0.9-0.4
		c-0.5-1.3-1.5-2.7-3.1-3.3c-0.4-0.2-0.9-0.2-1.3-0.2c-1.4,0-3.4,0.8-4.3,2.2c-0.6,1-0.7,2.2-0.2,3.3c-0.4-0.1-0.8-0.2-0.9-0.2
		c-1-1-2-4.4-3.1-7.6l0-0.1c-0.6-2-1.5-4.8-4.2-4.8c-1.4,0-2.2,0.8-2.7,1.2c-0.1,0.1-0.2,0.2-0.3,0.2c-2.2,1.1-2.9,4-3.9,9.9
		c0,0-0.1,0.4-0.1,0.5c-0.2,0-0.4,0-0.6,0c-0.9,0-1.6,0.3-2.2,0.6c-0.2-0.3-0.4-0.7-0.6-1.2c-0.3-0.5-0.5-1-0.9-1.6
		c-1.1-1.9-2.9-9.1-2.5-11.4c0.6-3.6,0-10.7-0.3-12.1c-0.3-1.4-1.4-2.4-2.8-3.6c-1.2-1.1-1.9-1.8-2-2c-0.2-0.6-0.5-2-0.8-3.2
		c-0.5-2.4-0.8-3.9-1.5-4.9c-0.1-0.2-0.4-0.6-0.6-1.1l-0.1-0.1c-2.3-4.1-3.7-6.3-4.9-7.4c-1.5-1.2-3.2-3-4-4.1
		c0.2,0,0.5,0.1,0.7,0.1c1.1,0,2.2-0.6,2.8-1.5c1.2-1.8,0.4-3.9-1-7.3c-0.4-1-0.8-2-1.1-2.8c-1.1-3.2-4.2-5.2-7.2-7.2
		c-1.1-0.7-2-1.3-2.8-1.9c-2.8-2.3-4.5-2.4-6.8-2.4H570c-0.6,0-1.2,0-1.9-0.1c-0.9-0.1-2.4-2.1-3.2-3.1c-1.1-1.5-2.1-2.7-3.7-3.1
		c-0.3-0.1-0.5-0.1-0.8-0.1c-0.4,0-0.9,0.1-1.3,0.2c0.1-0.2,0.1-0.5,0.2-0.7c0.2-1.6-0.2-3.2-1.3-4.4c-1.2-1.4-3.1-2.2-5.1-2.2
		c-1.1,0-2.1,0.4-2.8,1.2c-0.5,0.5-0.8,1.1-1,1.7c-0.1-0.1-0.2-0.3-0.4-0.4c0-0.1,0.1-0.1,0.1-0.2c0.4-0.8,1-2,1-3.3
		c0-3.9-4.9-6.4-7.5-6.4c-1.6,0-2.8,0.9-3.6,1.5c-0.2,0.2-0.5,0.4-0.7,0.5c-0.2-0.6-0.6-1.7-0.9-3.7l0-0.2c-0.2-1.1-1.1-3.5-5.4-3.5
		c-0.7,0-1.5,0.1-2,0.1c-0.9-0.8-2.3-2-4.4-2c-1.8,0-3.3,1-4,2.6c-0.1,0.3-0.2,0.7-0.3,1.1c-0.3-0.3-0.6-0.5-1.1-0.7
		c-0.4-0.2-0.9-0.7-1.5-1.2c-1-1-2.3-2.2-4.4-2.9c0-0.5,0.2-1.3,0.3-1.6c0.2-0.7,0.3-1.4,0.3-2.1c0-0.4,0.5-2.3,0.8-3.4
		c0.6-2.5,1.3-5,1.3-6.7c0-0.5,0.1-1.1,0.1-1.7c0.2-1.9,0.6-4.8-1.6-7c-0.6-0.5-1.5-1.9-2.3-3.2c-1.1-1.6-2.4-3.5-3.7-5
		c0,0-1-1.2,1-7.9l0.2-0.5c0.6-2,1-7.3-0.1-10.1c-0.2-0.5-2.2-5-3.6-7.2c-0.7-1.1-1.3-2.4-1.7-3.8c0.2-0.2,0.5-0.4,0.6-0.4
		c0.7-0.4,1.3-0.9,1.8-1.6c0.7-1.1,0.8-2.4,0.2-3.5c-0.7-1.4-2.4-2.2-4.3-2.2c-0.9,0-1.7,0.2-2.5,0.4c0,0,0-0.1-0.1-0.1
		c-0.3-0.7-0.6-1.4-0.9-2c-1.3-2.2-2.7-4.2-7.2-6.6c-1.5-0.8-1.9-1.6-2.4-2.8c-0.3-0.7-0.7-1.6-1.4-2.5c0.1-0.1,0.2-0.2,0.2-0.3
		c0.4-0.5,0.9-1.1,1.2-1.9c2.3-5.8,1.6-7.7,1.2-8.3c-0.2-0.7-0.7-3.5-1-5.1c-0.4-2.2-0.7-4.1-1-5.1c-0.4-1.5-1.7-3.2-3.7-5.5
		c-0.4-0.5-1.1-1.3-1.4-1.8c0.1-0.3,0.1-0.8,0.2-1.1c0.4-1.8,0.9-4.5-0.6-6.3c0.2-0.8,0.8-2,1.6-3.3c1.1-1.7,0.9-3.7-0.4-5.3
		c-0.7-0.9-1.6-1.4-2.4-1.9c-0.1-0.1-0.2-0.1-0.3-0.2c-0.8-1.6-2.6-3.4-5.4-3.4c-0.6,0-1.1,0.1-1.7,0.2c0,0,0,0-0.2,0
		c-1,0-2.3-0.7-2.6-1c-1.3-1.7-4.1-3-6.6-3.2c0.8-1.5,1.9-4.3,0.9-6.7c-0.4-1-1.2-1.8-2.2-2.3c-0.1-0.4-0.1-0.9-0.2-1.2
		c-0.2-1.2-0.3-2.6-1-3.9c-0.7-1.4-1.9-2.2-3.4-2.2c-2.1,0-3.4,1.6-4.7,3.2c-0.3,0.3-0.8,1-1.1,1.3c-0.6-0.1-1.6-0.5-2.2-0.9
		c-0.5-0.4-1.2-0.6-1.8-0.6c-2.7,0-3.3,2.6-3.8,4.4c-0.1,0.4-0.3,1.4-0.5,1.8c-0.6,0.5-1.1,1-1.5,1.5c-0.2,0.2-0.5,0.6-0.9,0.9
		c-0.4-0.9-0.8-2.2-1-3c-0.8-2.5-1.5-4.9-3.1-6.3c-0.6-0.5-1.8-4.1-2.2-5.2c-0.7-1.9-1.1-3.1-1.7-4c-0.1-1.1,0.2-4.1,0.4-5.9
		c0.3-2.9,0.6-5.8,0.4-7.9c-0.4-5.7-1-11.3-3.3-14c-0.2-0.3-0.4-0.5-0.6-0.7c-1.1-1.2-1.1-1.2-0.9-3.5c0.3-4.6-2.8-6.6-4.1-7.4
		c-0.1,0-0.1-0.1-0.2-0.1l0-0.1c-0.4-1.2-1.2-3.8-3.9-4.9c-0.2-0.9-0.2-2.6-0.2-3.2c0-0.4,0-0.8,0-1.2c0.2-0.2,0.5-0.4,0.7-0.5
		c0.9-0.7,1.8-1.3,2.2-2.5c0.3-1,0.2-2.2-0.5-3.1c-1.2-1.6-4.5-3-7.2-3.4c0-0.2-0.1-0.4-0.1-0.5c-0.3-1.7-0.9-4.5-3.3-5.6
		c0.1-0.1,0.1-0.3,0.2-0.4c1.7-2.8,0.7-7.2-0.6-10.1c-0.5-1.1-0.5-2.6-0.5-4.1c0-1.2,0-2.4-0.3-3.5c-0.5-1.7-1.7-3-2.7-4.1
		c-0.2-0.2-0.7-0.8-0.8-0.9l-0.1-0.2c-0.6-1.6-2.1-5.3-5.8-5.3c-1.9,0-3.9,0.9-5.4,2.2l0-0.2c0.1-0.1,0.1-0.2,0.2-0.2l0.1-0.2
		c0.5-0.7,1.6-2.3,0.7-4c-0.6-1.2-1.9-1.8-3.7-1.8c-1.9,0-4.4,0.7-5.9,3.8l0,0.1c-0.4,0.8-0.9,3.2,0.1,4.8c0.5,0.8,1.3,1.3,2.3,1.3
		c-0.8,0.3-1.6,0.6-2.4,1c-3.7,2.2-2.9,7.6-1.8,13.4c0.1,0.6,0.2,1.2,0.3,1.5c0.2,1.5-0.5,6.4-1.4,9.9c-0.4,1.3-1.2,2.5-2,3.8
		c-1,1.5-2.2,3.3-2.9,5.5c-0.6,2-0.7,3.9-0.8,5.4c0,0.6-0.1,1.8-0.2,2.2c-1.3,1.5-1.7,3.5-1.8,4.7c-0.2,1.6-0.1,3.7,1.2,5.1
		c0.4,0.6,1.6,3.4,2.1,5.2c0.2,0.7-0.2,3.1-1.5,4.7c-1.3,1.7-1.8,4-1.3,6.5c0.1,0.8,0.7,3.4,2.4,4.9c0,0,0,0.1,0,0.1
		c-1.7,0.7-2.5,2.5-3.1,4c-0.6,1.3-1.2,2.7-2.3,4c-2.6,3.1-2.2,5.4-1.4,7.5c0.1,0.2,0.1,0.3,0.2,0.4c-0.6,3.1,1.3,6.6,3.3,9.7
		c0,1.2-0.9,5-1.9,7.2c-0.7,1.7-0.4,4.2,0.3,8.4c0.2,1.2,0.6,3.8,0.6,4.5c-0.8,3,1.8,4.9,3.2,5.9c0.2,0.1,0.4,0.3,0.6,0.5
		c-0.2,0.9-0.9,2.4-1.3,3c-1.8,1-2.4,3.3-3.4,7c-0.3,1.2-0.7,2.5-1,3.3c-0.7,1.8-0.7,4.2-0.7,6.4c0,0.9,0,3.2-0.2,3.8
		c-1,1.4-1.2,3-1.3,4.2c0,0.2,0,0.5-0.1,0.7c-1.6,1.1-3.3,4.2-3.3,16.2c0,1.2-1.6,1.3-1.8,1.3c-2.6,0-4.1,1.9-4.2,5.5
		c0,0.3,0,0.7-0.1,1.1c-3.5,2.1-3.9,5.5-3.9,7.8c0,2-3.2,10.3-4.3,12c-0.6,0.5-3.5,1.6-4.7,2c-2.3,0.9-4.5,1.7-6,2.7
		c-1,0.7-2.5,1.1-4,1.1c-1,0-2.5-0.2-3.9-1.1c-2-1.4-4.5-2.9-6.4-4.1c-1.5-1-3.1-2-3.5-2.2c-1-0.8-2.3-1-4.1-1.3
		c-1.1-0.2-3.3-0.6-3.9-1c-3-2.2-3.8-3.4-3.9-3.7c0-2.1-0.5-7.5-1.2-9.6c-0.7-2.4-2.9-4-13.3-6.3l-0.1,0c-3.5-0.8-11.5-3.2-13-4.3
		c-1.5-1.2-3.7-3.3-5.9-5.6c-1-1.1-1.9-2-2.7-3c-0.6-0.7-1.1-1.3-1.4-1.7c-0.5-0.6-0.8-1-1.2-1.4c-0.6-0.5-1.3-0.8-2.1-0.8
		c-0.4,0-0.8,0.1-1.2,0.3c-0.8,0.4-1.5,1.1-1.7,1.9V220c0-1.3-0.8-2.4-1.9-2.9c-1.7-0.7-3.2-1.7-4-2.7c-1.6-2-4.2-3.2-6.6-4
		c0.4-0.4,0.7-1,0.8-1.6c1-4,0.6-6.7-1.1-8.1c-0.1-0.1-0.6-0.7-0.8-1c-1.1-1.5-2.6-3.4-4.8-3.8c-0.2,0-0.5-0.1-0.7-0.1
		c-2.9,0-7.6,3.2-8.2,6.1c0,0.1-0.1,0.3-0.1,0.4c-0.1,0.5-0.2,1.1-0.3,1.8c-1.4-0.6-4.2-3.6-5.9-6.1c-2.2-3.3-5.1-4.6-8.8-5.4
		c-1.6-0.4-3.5-2.3-4.6-3.5c-0.6-0.6-1-1.1-1.5-1.4c-0.5-0.4-1.4-0.9-3.2-1.8c-2.1-1.1-6.1-3.1-7.1-4.2c-1.1-1.1-1.2-1.5-1.2-2.3
		c0.2-0.9,1.7-4.2,2.9-6.4c0.2,0,0.3,0,0.4,0c0.8,0,2.4-0.1,3.5-1.4c0.6-0.8,0.8-1.8,0.6-2.8c0-0.4,0.2-1.5,0.4-2.1
		c0.1,0,0.2-0.1,0.2-0.1c1.4-0.6,5.2-2.1,4.9-6.7c-0.1-1.7,0-2.9,0.1-4.2c0.1-1,0.2-2,0.2-3.3c0-0.6,0-1.2,0.1-1.8
		c0.1-2.2,0.4-6.8-3.8-7.4c-0.3,0-0.7-0.5-0.7-0.8c0-0.3,0.3-1.6,0.5-2.4c0.4-1.8,0.9-3.6,0.9-5.3c1.4-0.3,2.8-1.3,3.5-2
		c1.2,1.2,2.8,2.5,4.9,2.5c3.7,0,9.3-3.4,9.3-8c0-2.4-1.2-5.3-2.2-7.9c0,0-0.1-0.3-0.2-0.4c1.4-0.5,3.8-1.4,4.1-3.9
		c0.4-0.2,1-0.5,1.4-0.6c1.2-0.5,2.5-1,3.6-1.8c1.3-1,2.7-2.5,3.7-4.1c1.7-2.6,2-4.8,0.8-6.4c-1.4-1.9-6.5-4.2-9-4.8
		c-0.9-0.2-2-1.6-2-2.7c0-1.4-0.6-2.5-1.5-3.1c1.4-0.9,2.3-2,2.7-3.1c0.6-1.6,1.7-3.1,2.5-4.4c0.3-0.5,0.6-1,0.9-1.4
		c0.1-0.2,0.2-0.4,0.4-0.7c2.6-4.2,4.2-6.9,2.9-9.2c-0.6-1.1-1.8-1.8-3.1-1.8c-3.4,0-9.2,4.9-10.2,7.4c-0.4,1-2.2,3.5-3.8,5.2
		c-0.9,0.9-2.2,2.4-3.1,3.7c-1.3,1.8-2.6,3.8-1.7,5.8c0.5,1.1,1.4,1.9,2.6,2c-0.3,0.2-0.5,0.3-0.7,0.4c-1.8,1-2.9,2.8-3,4.8
		c-0.3-0.7-0.7-1.4-1.1-2.3c-0.4-0.9-1.2-2.4-1.4-3v0c0.1-2,0.3-8.3-4.6-9.6c-0.5-0.1-1.1-0.2-1.6-0.2c-2.8,0-4.4,1.9-6,3.8
		c-0.9,1-1.9,2.2-3.2,3.2c-2.2,1.8-3,2-3.1,2c-0.1,0-0.2,0-0.3,0l-0.1,0c-0.2,0-0.6-0.1-1-0.1c-2.8,0-4.3,2.5-5.8,5
		c-0.4,0.8-0.9,1.5-1.4,2.2c-0.3,0-0.9-0.1-1.4-0.2c-1.1-0.2-2.5-0.5-4.2-0.5c0-0.3,0-0.8,0-1.5c0-1,0-2-0.2-3c-0.7-3.7-3.1-5-5-5
		c-0.9,0-2.3,0.3-3.6,1.6c-0.9,0.9-2.5,2.1-3.4,2.7c-0.5-0.4-1.2-1-1.6-1.7c-0.8-1.2-2.2-2-3.6-2c-1.4,0-2.9,0.7-4.4,2
		c-0.7-1.4-2.3-2.1-4-2.7c-1.2-0.5-2-0.8-2.2-1c-1.4-1.6-3.6-1.6-4.3-1.6c-1.3,0-2.8,0.2-4,0.4c-0.3,0-0.8,0.1-1.1,0.2
		c-0.8-0.3-3.4-1.6-6.1-3.2l-0.4-0.2c-1.5-0.9-3.7-2.3-6.9-2.3c0,0-0.1,0-0.1,0c-0.2-0.4-0.4-1.1-0.6-1.5c-0.1-0.3-0.2-0.6-0.3-0.8
		c-1.1-3-2.7-4.5-5-4.5c-0.5,0-0.9,0.1-1.4,0.2c-1-1.1-2.3-1.6-3.8-1.6c-2.8,0-4.3,1.7-4.4,4.9c0,0.1,0,0.1,0,0.2
		c-2.1-2.4-6.7-7-9.5-7c-1.9,0-3.2,1.2-4.1,2c-0.3,0.3-0.9,0.8-1.1,0.9c-0.2,0-0.4,0-0.7,0c-0.2,0-0.5,0-0.7,0c-5,0-5.8,2.9-5.8,4.6
		c0,3.1,5.1,10.8,8.4,11.7c0.4,0.1,0.9,0.2,1.4,0.2c1.7,0,3.5-0.8,5-1.6c0.9,2,2.1,4.2,3,5.5c0.7,1.1-0.1,3-0.3,3.6
		c-0.2,0.4-1.4,1.4-2.1,1.4c-0.8,0-2.2-0.6-3.3-1.1c-0.7-0.3-1.3-0.6-1.9-0.8c-0.4-0.1-0.9-0.2-1.4-0.2c-2.7,0-4.6,2.5-5.5,4.3
		c-0.2,0-0.3,0-0.5,0c-2.4,0-6-0.5-7.8-0.8c-2.1-0.4-4.8-1.9-6.5-3.1c-0.1-0.1-0.4-0.6-0.6-0.9c-0.3-0.6-0.7-1.4-1.4-2.1
		c1.2-0.6,2.2-1.5,3.1-2.5c0.5-0.6,1.1-1.3,1.8-2.1c4.5-5,10.7-11.8,6.6-17.1c-1.1-1.6-4.8-6.9-8-6.9c-1.4,0-2.6,0.7-3.2,2
		c-0.3,0.5-0.5,1.1-0.7,1.6c-0.1,0.2-0.2,0.6-0.4,1c0,0,0,0,0,0c-0.5-0.1-1-0.3-1.7-0.3c-0.3,0-2.3,0.1-3.2,1.9
		c-1-0.6-2.1-0.9-3.2-0.9c-0.6,0-1.3,0.1-1.9,0.3c-1,0.3-1.9,0.8-2.7,1.2c-0.1,0-0.2,0.1-0.3,0.2c-1.4-1.3-3.7-2.6-5.3-3.6
		c-0.3-0.2-0.6-0.3-0.8-0.3c-0.2,0-1-0.2-2.1-0.2c-3.6,0-5.3,2.3-5.3,4.5c0,0.6,0.1,1.1,0.3,1.7c-0.7,2-1,4.6-0.6,6.5
		c-2.5,0.8-3.3,2.5-3.5,3.9c0,0.2-0.3,0.8-0.4,1.1c-0.6,1.5-1.4,3.3-0.6,5.2c0.4,1,1.3,1.7,2.3,2.1c0.3,0.1,0.6,0.2,0.8,0.3
		c0.9,0.3,1.9,0.7,3.2,0.7c0.3,0,0.6,0,0.9-0.1c2.4-0.2,4.1-0.8,5.2-1.7c0.3-0.1,0.9-0.2,1.8-0.2c0.4,0,0.6,0,0.6,0
		c0.4,0.1,1.5,0.3,2.7,0.3c0.4,0,0.7,0,1-0.1c0.9,1,2,2,3.2,2.6c-1.7,0.3-4,1.5-4.7,5.2c-0.1,0-0.2,0-0.3,0c-1.6,0-2.6,0.7-3.1,1.3
		c-0.4,0.5-0.8,1.1-1,1.7c-0.6-0.3-1.3-0.5-2-0.5c-2.6,0-4.6,2.1-4.6,4.7c0,0.5-0.3,1.1-0.4,1.3c-0.3-0.1-0.6-0.1-0.9-0.1
		c-4.2,0-7.2,4.4-7.2,8.3c0,0.5-0.9,1.5-1.5,2.1c-0.6,0.6-1.1,1.2-1.5,1.9c-0.6,1.2-1,3,2.6,9.1c0.7,1.5,1.5,3.2,1.9,4.3
		c0,0-0.1,0.1-0.1,0.1c-1,0.9-2.5,2.1-3.9,2.5c-0.1,0-0.2,0-0.2,0c-0.5,0-1.1-0.5-1.8-0.9c-1-0.7-2.3-1.6-3.9-1.6
		c-3.6,0-4.2,4-4.6,6.9c-0.1,0.8-0.3,2.3-0.6,2.9c-1.9,1.5-2.4,4.3-2.9,6.7c0,0,0,0,0,0.1c-0.1,0-0.2,0-0.3,0
		c-1.3,0-2.3,0.4-3.1,1.2c-0.8-0.3-1.5-0.3-1.9-0.3c-1.6,0-3.1,0.6-4.1,1.7c-0.6,0.7-1.4,2-1.2,3.8c0.1,0.9-0.9,2.7-1.3,3.4
		c-0.2,0.3-0.3,0.6-0.5,0.8c-1,1.9-0.7,4.9,6,8.3c1.2,0.6,3.3,3.5,3.6,4.4c0.3,0.8,0.8,1.5,1.5,2.2c-0.7,0.3-1.3,0.8-1.7,1.4
		c-0.2,0.3-0.3,0.7-0.4,1c-0.7-0.2-1.6-0.4-2.6-0.5c-0.1-0.1-0.2-0.2-0.2-0.3c-0.6-0.7-1.8-1.9-3.7-1.9c-1.2,0-2.5,0.5-4,1
		c-0.5,0.2-1,0.4-1.5,0.5c-0.2,0-0.3,0.1-0.4,0.1c-0.2-0.1-0.6-0.3-0.8-0.4c-0.6-0.3-1.3-0.7-2-0.9c-0.3-0.1-0.6-0.1-1-0.1
		c-0.7,0-1.3,0.2-1.8,0.6c-0.6,0.4-0.9,1-1.1,1.6v-1.9c0-1.3-0.8-2.5-2.1-2.9c-0.6-0.2-1.4-0.5-2.4-0.5c-1.7,0-5.8,0.5-8,2.6
		c0.7-3-0.8-5.1-1.6-6.2c-0.2-0.2-0.3-0.4-0.4-0.6c-1-1.8-3.9-4.7-6.7-5.5c0,0-0.1-0.1-0.2-0.1c0.9-2.5-1.5-5.2-3.7-7.7
		c-0.3-0.3-0.6-0.7-0.7-0.8c-0.8-1.1-2-1.6-2.9-2c-0.9-0.4-1.4-0.6-1.6-0.9c-1.6-2.5-4.4-2.5-6.5-2.6c-1.1,0-1.7-0.1-2-0.1
		c-2.1-2-7.5-6-11.8-6c-0.2,0-0.4,0-0.6,0c-2.9,0.2-4.8,1.9-5.9,2.9c-0.1,0.1-0.5,0.4-0.6,0.5c-2.5,0.6-3,3-3.2,4.1
		c-0.2,1.2-0.4,1.5-0.8,1.8c-0.2-0.1-0.4-0.4-0.6-0.5c-0.9-0.8-2.3-2-4.4-2c-4.4,0-5.1,4.4-5.4,7c-0.1,0.8-0.2,1.6-0.4,2.4
		c-0.1,0.3-0.1,0.5-0.1,0.8c-0.6-1.5-1.5-3-2.7-3.9c-1-0.8-2-0.9-2.6-0.9c-0.9,0-2.7,0.3-3.9,2.7c-0.8,1.4-1.6,4.6-1.3,6.9
		c-0.4,0.7-1.2,1.5-1.6,1.8c-1.3,0.1-2.5,0.6-3.8,1.1c-0.6,0.2-1.2,0.5-1.8,0.7c0.1-0.7,0-1.3-0.1-1.6c-0.5-2.1-2.3-4.3-5-4.3
		c-0.8,0-1.5,0.2-2.2,0.5c-0.2,0.1-0.5,0.2-0.8,0.3c-3.7,1.5-3.7,4-3.1,5.7c0.4,1.1,1.8,4.8,4.9,4.8c0,0,0.1,0,0.1,0
		c-0.4,2.6,0,5.6,0.4,7.2c-0.6-0.1-1.1-0.2-1.6-0.2c-2.5,0-4.1,1.3-5.4,2.3c-0.6,0.5-1.2,0.9-1.9,1.3c-1.5,0.8-2.4,1.8-2.7,3.2
		c-0.4,2.1,1,3.7,2,4.8c0.2,0.2,0.5,0.5,0.7,0.8c-1.2-0.1-2.1-0.1-2.5-0.1c-1.6,0-2.8,0.8-3.5,1.4c0,0,0,0-0.1,0
		c-0.6-0.3-1.2-0.4-1.9-0.4c-2.3,0-3.7,1.7-4.8,3c-0.4,0.5-0.8,1-1.1,1.2c-2.8,2-2.5,6.7-2.3,8.1c0.4,3.4,1.8,5.7,4,6.6
		c0.5,0.2,0.6,0.3,1,0.8c0.3,0.3,0.6,0.6,1,1c-0.7,0.7-1.3,1.6-1.9,2.6c-0.2,0.4-0.9,1.4-1.1,1.7c-1.3,1-1.6,2.5-1.7,3.7
		c-0.6-0.7-1.2-1.8-1.8-3.2c-1-2.3-2.8-3.5-5.1-3.5c-1.5,0-3,0.6-4.1,1c-0.1,0-0.2,0.1-0.3,0.1c-0.2-0.4-0.4-0.8-0.5-1.1
		c-0.2-0.6-0.5-1.1-0.8-1.6c-0.7-1.1-1.8-1.7-3-1.7c-4.2,0-7.4,8.1-7.4,8.2c-0.9,2.5,0,4.7,0.7,6c-0.2,0.4-0.4,0.7-0.5,1.1
		c-0.7,2.6,1,6.2,2.1,8.1c0,0.1,0.1,0.1,0.1,0.1c1.1,1.8,2.1,3.6,2.8,5c-0.4-0.1-0.7-0.1-1.1-0.1c-1.7,0-3.7,1-4.3,3.9
		c-0.2,1-0.2,2-0.2,3.1c-0.1-0.1-0.1-0.2-0.2-0.4c-0.7-1.1-1.4-2-2.1-2.7c-1.1-1.3-1.8-2-1.9-3.4c-0.3-4-1.4-7.6-2-9.2
		c-0.5-1.2-1.5-2.2-2.7-3.4c-0.2-0.2-0.5-0.5-0.8-0.7c0,0,0,0,0.1-0.1c0.8-1.1,1.8-2.4,1.4-4.2c-0.2-1-0.9-1.8-1.8-2.3
		c-0.6-0.3-1.2-0.4-1.9-0.4c-1.8,0-3.3,1.1-5.1,2.3c-0.3,0.2-0.6,0.4-1,0.7c-1.7,1.1-2.7,3-2.8,5.1c0,0.8,0.1,1.7,0.3,2.5
		c-1.6,0.2-4.8,1-5.8,3.3c-2.4,0.1-3.9,1.6-5.3,3.1c-0.3,0.4-0.7,0.7-1.1,1.2c-2.5,2.5-3.2,4.7-2.1,7.7c-1.8,0.1-3.2,0.7-4.1,1.9
		c-2.7,3.5-0.4,8.9,1.2,11.3c0.6,0.9,1.5,3.5,1.7,4.9c-0.3,0.2-0.6,0.4-0.8,0.5c-0.6,0.4-1.3,0.8-1.9,1.3c-1.5,1.2-2,3.1-1.4,5.1
		c0.6,2.2,2.5,4.1,4.6,4.7c-0.1,0-0.3,0-0.4,0c-3.1,0-4.7,2.7-6.2,5.1c-1,1.6-2,3.3-3.4,4.3c-2.8,2-4.1,3.9-5.1,5.3
		c-0.5,0.7-0.9,1.2-1.3,1.5c-0.4,0.3-0.7,0.5-1.2,0.7c-1.1,0.5-2.9,1.2-3.8,3.7c-0.2,0.5-0.4,1-0.6,1.5c-0.8,2-1.7,4.4-2.3,6.7
		c-0.2,0.4-1.3,1.1-3.2,2.3c-1.8,1.1-3.5,2.1-4.4,3.6c-1,1.6-3.4,3.5-4,3.7c-0.7,0.3-1.4,0.8-3.6,2.3c-3.5,2.4-10,6.9-13.6,7.9
		c-6.4,1.7-15.1,3.5-16.7,3.5c-3.1,0-7.2,0.3-9.5,1.8c-0.7,0.5-1.4,1.2-2.2,1.8c-0.8,0.8-2,1.9-2.7,2.1c-0.4,0-1.5-0.5-2.2-0.8
		c-1.4-0.6-2.8-1.3-4.4-1.3c-4.2,0-9.1,6.7-10.2,8.2c-0.4,0.3-1.7,0.8-5.8,1.6c-1.8,0.4-2.9,0.6-3.6,0.9c-0.1,0-0.3,0-0.8,0
		c-0.8,0-2-0.1-3.1-0.2c-1.2-0.1-2.4-0.2-3.6-0.2c-0.9,0-1.6,0.1-2.2,0.2c-2.1,0.5-3.9,2.1-6.7,4.5c-1.7,1.5-3.7,3.3-6.1,5.1
		c-2.5,1.8-4.7,2.7-6.7,2.7c-1.2,0-2.2-0.3-3.1-1c-1.7-1.2-3.8-1.4-5.5-1.4c-0.9,0-1.8,0-2.6,0.1c-0.9,0-1.7,0.1-2.6,0.1
		c-1.9,0-3.1-0.2-3.6-0.7c-1.4-1.2-3-1.8-4.7-1.8c-3.4,0-6,2.4-8.9,5c-0.5,0.5-1.1,1-1.6,1.5c-1.3,1.1-2,1.5-2.3,1.7
		c-0.3-0.1-0.6-0.2-1-0.3c-0.3-0.1-0.6-0.1-0.9-0.1c-2.5,0-5.6,2.1-6.6,4.4c-0.3,0.4-1.6,1.9-2.3,2.7c-1.6,1.7-3.3,3.7-4.6,5.6
		c-1.4,2-3.4,3.6-5.7,5.4c-1,0.8-2,1.6-3.1,2.5c-1.3,1.2-4.7,1.6-7.4,2c-2.9,0.4-5.7,0.8-7.7,2.1c-0.9,0.5-1.9,1.1-3.1,1.7
		c-4.5,2.5-7.4,4.1-8.3,6.5c-0.3,0.9-2.3,3.8-3.5,5.7c-1.1,1.6-2.1,3.2-2.7,4.2c-0.1,0.2-0.3,0.5-0.4,0.6c-0.5-0.5-1.1-1.1-1.9-1.5
		c0-0.6,0-1.3,0-1.7c0-0.4,0-0.7,0-1c0.1-0.4,0.6-1.8,0.8-2.4c1.2-3.2,1.9-5.3,0.7-7.1c-0.6-0.9-1.6-1.4-2.7-1.4
		c-3.8,0-10,8.1-10.3,12.4c-0.2,3.2-2,6.8-3.1,7.3c-1.7,0.9-2.6,2.7-2.4,4.6c0.4,3.1,3.6,6.4,7.4,7.5c0,0,1.2,0.5,1.1,6.6v0.3
		c-0.1,0.3-0.6,1-2.3,2.9c-1.3,1.5-2.3,2.5-2.6,3.9c-0.4,2.2,1.1,7.5,2.6,10.2c-3.3,0.1-5.3,3.3-7.2,6.4c-0.6,1-1.2,2-1.8,2.8
		c-3,4-3.2,7.4-2.7,12.3c0.4,3.5,2.8,6.4,5.4,9.4c1.5,1.7,3,3.6,4,5.4c3,5.5,2.5,7.1,1.7,8.4c-2.6,3.9,1.8,8.5,9.8,16.3
		c2.7,2.6,5.4,5.3,6.5,6.8c2.4,3.5,1.6,6.2,1.3,6.6c-1.4,1-2.1,2.6-2.9,4.4c0,0,0,0.1-0.1,0.1c-0.3-0.9-0.4-1.8-0.5-2.4
		c0-0.8-0.4-1.5-0.9-2c-1.8-1.8-3.5-3.7-3.7-4.2c-0.4-1-1.4-2.7-5.6-7.9c-1.4-1.7-3-2.1-4.1-2.1c-1.6,0-2.9,0.8-4,1.4
		c-0.7,0.4-1.5,0.8-2,0.9c-2,0.2-3.5,1.4-4,3.2c-0.8,3.1,1.9,7.1,3.3,8c1.2,0.9,6,5.7,6.6,6.9c0.1,0.3,0.2,0.6,0.3,0.8
		c-1.4-2.1-3.2-4.4-5.8-5.1c-0.8-0.2-1.3-0.4-1.8-0.6c-1.2-0.4-2.2-0.8-3.9-0.8c-1.1,0-2.2,0.3-3.2,0.8c-0.3-1-0.6-1.9-0.8-2.5
		c-0.1-0.2-0.2-0.9-0.4-1.6c-1.7-7.6-3.1-12.5-7-12.5c-1,0-2,0.5-2.7,1.2c-1.6,1.9-1.3,4.8,0,12.8c0.5,3.2,1,6.5,1.1,8.8
		c0.2,5.7,2.9,9.9,4.6,12.8c0.4,0.7,0.9,1.4,1,1.8c0.9,2.1,2.8,3.3,4.7,4.4c0.9,0.6,2.2,1.4,2.5,1.9c1.1,1.7,2.6,2.8,4.3,4
		c1.3,0.9,2.7,1.9,3.7,3.1c3.4,4.1,7.4,10.6,7.6,12.2c0,0.6,0.1,1.4,0.1,2.2c0.1,3.7,0.3,7.8,2.6,10.1c0.5,0.5,1.1,1,1.7,1.5
		c0.7,0.6,1.9,1.6,2.6,2.4c-1,2.1-1.4,5.7-1.3,12c0,0.2,0,0.3,0,0.4c0,1.9,2.3,9.5,3.6,11.5c0.9,1.3,2.3,2,3.5,2.6
		c0.4,0.2,1.3,0.6,1.5,0.8c0.5,2.5,1,4.6,3.7,6.3c0.2,1.4-0.4,5.3-0.6,6.6c-0.1,0.8-0.2,1.5-0.3,2.2c-0.6,4.5,3.1,6.7,5.5,8.2
		c1,0.6,2.1,1.3,2.8,2c1.1,1.2,0.6,9.3-1.1,13.6c-1.4,3.4,0.5,6.2,1.8,8c1.2,1.8,1.3,2.2,1.1,2.5c-1.3,3.1-1.2,6.1,0.3,8.4
		c0.9,1.4,2.2,2.3,3.8,2.7c0,0.2,0,0.4,0.1,0.6c0.1,1.3,0.3,2.9,1.2,4.1c0.2,0.2,0.4,0.8,0.4,1.2c-0.8,1.4-0.5,3.1-0.2,5.1
		c0.2,1.3,0.6,3.2,0.4,4.1c-0.3,1.9,0.2,3.8,1.6,5.4c1.7,2,4.4,3.4,6.6,3.4c0.5,0,1-0.1,1.5-0.2c0.8,2.2,1.1,3.6,1,4.2
		c-0.6,2.7,0.8,5.4,1.9,7.5c0.3,0.7,0.7,1.3,0.8,1.7c0.3,0.7,0.6,1.4,1,2.1c0.6,1.3,1.4,2.8,1.2,3.7c-0.6,3,0.4,8.6,0.8,10.2
		c0,0.1,0,0.2,0.1,0.3c0.4,1.3,0.6,2.7,0.6,3.5c-2.6,1.8-2.8,6.3-2.9,10.2c0,0.7-0.1,1.4-0.1,1.8c0,0.4-0.2,1.2-0.3,2
		c-0.9,4.8-1.4,8.4,0.2,10.7c-0.1,1.1-1,3.8-1.5,5.5c-0.8,2.4-1.6,4.8-1.9,7c-0.6,4-5.1,9.5-7.6,11c-3.8,2.3-5.7,5.5-6.6,7l-0.2,0.2
		c-0.8,1.4-0.6,3-0.3,4.9c0.2,1.7,0.6,4.3-0.2,5.2c-1.1,1.4-1.4,3.1-0.8,4.6c1.8,4.4,11,6.2,13.1,6.5c1.5,0.7,6.8,6.4,8.5,8.3
		c1.6,1.7,2.7,3,3.5,3.6c0.4,0.4,0.8,1,1.4,1.8c1.2,1.9,2.9,4.5,6.6,6.2c2.7,1.3,5.1,1.5,6.9,1.7c1.5,0.1,2.4,0.2,2.9,0.6
		c0.4,0.3,0.7,0.6,1,1.1c1.3,1.7,3,3.4,7.3,3.4c0.5,0,1.1,0,1.7-0.1c2.1-0.2,4.6-0.2,7.1-0.2c5,0,9.8-0.1,12.5-1.4
		c0.3-0.1,0.6-0.2,1-0.2c1,0,1.9,0.5,2.2,0.8c0.7,3.8,6.2,3.8,13.9,3.8c3.6,0,5.5-1.4,6.6-2.6c1.1-1.2,1.7-2.9,1.7-4.6
		c0.5-0.4,1.4-0.8,1.9-1.1c2.2-1.3,4.4-2.5,5.1-4.5c0.1-0.3,1.2-0.8,3.3-0.8c1.7,0,3.1-0.6,4-1.7c1.2-1.4,1-3.1,0.8-4.1
		c0.4-0.4,1-1,1.4-1.4c1.3-1.2,2.1-2.1,2.6-2.9c0.5-0.2,1.3-0.5,1.9-0.5c0.2,0.1,0.4,0.3,0.7,0.4l0,0c1.6,1,3.7,2.2,5.7,2.2
		c1.5,0,2.4-0.6,3-1.2c0.3-0.3,1.4-1.1,2.2-1.7c3.3-2.5,6-4.5,7.1-6.5c1.7-3,0.1-6.3-1.3-8.3c1.2-0.5,2.6-1,3.4-1.3
		c1.7-0.6,2.5-0.9,3.1-1.3c0.3-0.1,1.7-0.3,4.3-0.3c1.3,0,2.7,0.1,3.8,0.1h0c0.7,1.1,1.8,2.2,4.2,2.8c0.5,0.1,0.9,0.2,1.5,0.2
		c2.4,0,5.3-1.2,8.4-2.4c2.5-1,5.4-2.2,7.2-2.3c1.4-0.1,3-0.2,4.8-0.4c3-0.3,6.3-0.5,8.8-0.5c1.9,0,2.4,0.2,2.4,0.2
		c0.6,0.2,1.2,0.5,1.9,0.8c2.4,1.1,5.3,2.5,8.6,2.5c1.9,0,3.5-0.1,4.7-1.4c0.2-0.2,0.4-0.5,0.5-0.8c0.2,0.2,0.5,0.4,0.8,0.7
		c3.4,3.8,8.7,4.4,11.6,4.4c1.8,0,4.2-0.4,6.7-0.9c2.2-0.4,4.6-0.9,6-0.9c1.3,0,2,0.3,3.3,0.8c1.2,0.4,2.6,1,4.8,1.5
		c0.9,0.2,1.9,0.3,2.9,0.3c4,0,7.7-1.6,10.4-2.8l0,0c0.4-0.2,0.8-0.3,1.1-0.5c2.2-0.9,3.7-2.7,4.1-5.1c0.3-1.4,0.2-2.9-0.3-4.1
		c0.4-0.5,1.1-1,1.9-1.3c4.4-1.6,8.5-12.8,9.3-15.2c0.8-1.3,5.6-5.3,7.7-5.3c5.1,0,10.2-6.1,11.2-7.3c0.9-1.1,4.1-4.3,6.9-4.3
		c3.9,0,5.7-1.6,6.9-2.6c0.7-0.7,1-0.9,1.8-1c3.9-0.5,4.9-3.2,5.3-4.5c0.3-0.7,0.3-0.7,0.5-0.8c0.6-0.2,1.3-0.5,2.2-0.9
		c3.9-1.6,10.3-4.3,15.3-4.3c5.7,0,12.9,0.8,14.5,1c2.3,0.8,9.6,3.2,12.8,3.2c4.4,0,11.9-5.4,13.9-7.8c2.2-2.5,5.4-4.6,7-4.6
		c3.3,0,8.4-1.4,12-2.4l0.2-0.1c0.8-0.2,1.9-0.8,3.8-1.6l0.1-0.1c0.5-0.2,1-0.5,1.5-0.7c1.1-0.5,1.8-1.6,1.8-2.8v-1.2
		c0.4,1.3,1.6,2.2,2.9,2.2c0.1,0,0.2,0,0.2,0c1.6,0,3.5-0.6,6.1-1.6c2-0.8,4.4-2,6.9-3.4c2.1-1.2,6.8-1.3,11-1.5
		c2.5-0.1,4.9-0.2,7-0.5c3.1-0.4,9.6-0.4,15.9-0.5c5.3,0,10.3,0,13.7-0.3c3.7-0.3,6.1-1.3,7.4-3.4c0.6,0.7,1.3,1.4,2.2,1.9
		c1.9,1.1,6.5,2.1,8.5,2.6c1.9,1,3.3,2,3.7,2.4c1.5,2.3,7.7,7.6,14.4,9.5c1.3,0.4,2.4,0.6,3.5,0.6c3.6,0,5.2-2.3,6-3.4
		c0-0.1,0.1-0.2,0.2-0.3c0.3,0,0.8-0.1,1.2-0.1c1.8,0,3.2,0.3,3.9,0.5c0,0.1,0,0.2,0,0.4c0.1,1.2,0.4,3.8,3.1,5
		c0.6,0.4,2.3,2.5,3.2,3.5c3.1,3.6,4.4,5,6.2,5.3c0.3,0,0.6,0.1,0.9,0.1c2.5,0,4.9-1.9,5.6-4.3c0.6-0.2,1.3-0.4,1.5-0.4
		c1.7,0,2.7-1.1,3.3-1.8c0.1-0.1,0.2-0.3,0.4-0.4c1,0.7,3.1,3.1,3.4,4.6c0.1,0.4,0.1,0.8,0.2,1.1l0,0.1c0.3,2.3,0.9,6.4,5.9,7
		c0,0.1,0.1,0.3,0.1,0.5c0.1,0.8-0.1,1.5-0.2,1.7c-1.8,0.8-2.3,2.1-2.4,3c-0.3,2.1,1.1,3.5,2.4,4.7c1.2,1.1,2.9,2.7,4,5.2
		c2.4,5.3,6.4,6,9.5,6.6c1.6,0.3,3.3,0.6,5,1.5c4.4,2.4,5.9,7.9,5.9,10.2c0,4.8,4,7.8,7.5,8.9c0.2,0.1,0.9,0.9,2.7,4.3
		c0.7,1.4,1.2,2.5,1.9,3.2c1.2,1.4,2,2.6,2.8,5.2c1.2,3.5,2.4,6.1,4.2,8.9c0.1,0.2,0.2,0.3,0.2,0.4c-0.9,0-2.1-0.2-3.2-0.4
		c-1.4-0.2-2.8-0.5-4.2-0.5c-1.3,0-2.3,0.2-3.3,0.6c-1.3,0.6-2.1,1.8-2.1,3.2c0,1.2-0.1,3,7.1,9c2.9,2.5,7,5.5,9.1,6.6
		c2.4,1.2,5.7,1.3,7.6,1.3c4.2,0,9.5-0.7,10.5-4c0.8-2.9-1.8-5.1-5.8-8.5c-0.7-0.6-1.6-1.4-2.3-2c0.5-0.7,1.3-1.5,2.1-2.3
		c6-3.1,9.5-5.1,10.4-6c0.1-0.1,0.3-0.3,0.5-0.5c1.2-1,3.5-2.9,3.5-6.4c0-1.4,1.4-3.9,2.7-5c0,0,0.1,0,0.2,0c0.6,0,1.5,0.2,2.4,0.4
		c1.2,0.3,2.4,0.5,3.6,0.5c4.6,0,14.8-9.9,16.2-11.9c2.1-3.1,3-7.7,3.1-8.2c0-0.1,0-0.3,0-0.4c0.1-2.8,0.3-5.9,0.5-7
		c0.3-0.4,1-1.1,1.5-1.7c2.5-2.6,5.8-6.2,7.2-9.3c0.3-0.7,0.6-1.6,0.8-2.6c0.5,5.4,0.8,10.9,0.6,12.2c-0.6,2.4-1.9,12.4-1.9,18.5
		c0,2.9-2,6.3-6,10.1c-0.1,0.1-0.3,0.3-0.4,0.4c-2.9,2.9,0,14.5,0.7,15.9c0.2,0.6-0.3,3.9-2.8,8.2c-0.2,0.3-0.6,1.1-2.4,1.1
		c-1.6,0-3.1-0.6-3.6-0.9c-0.7-0.4-1.4-0.6-2.1-0.6c-3.5,0-4.5,3.8-5.5,7.6c-0.3,1.2-0.7,2.5-1,3.2c-0.3,0.6-0.6,1.2-0.9,1.7
		c-1.2,2.3-2.3,4.4-1,6.5c0.4,0.7,1.4,1.8,3.4,1.8c2.1,0,4.7-1.4,7.6-3c0.3-0.2,0.8-0.5,1-0.6c0.4-0.2,0.9-0.4,2-1
		c3.3-1.8,4.5-2.3,5-2.4c0.5,0.1,2.1,0.6,2.8,0.9c1.8,0.6,3.5,1.2,4.9,1.2c3.4,0,4.3-3.3,5-6.2c0.5-1.9,1.1-4.2,2.2-7.1
		c2.4-6,1.7-13.6,1.2-18.6c-0.1-1.4-0.2-2.5-0.2-3.3c0-1.5,1.3-3.6,2.5-4.6c0.4,2.4,0.3,6.7,0.3,8.5c0,1.6,0,2.9,0,3.8
		c0.3,4.3,5.4,6.1,8.4,7.2c0,0,0.2,0.1,0.3,0.1l0,0.1c0.2,2,0.6,4.7,2.1,6.5c0.1,1.1,0.3,2.2,0.7,3.2c-1.8,3.4-3.3,8.7-3.5,11.7
		c-0.6,0.7-3.2,2.3-4.3,2.9c-2.9,1.7-5.6,3.3-6.9,5.5c-1.1,1.8-0.5,3.3-0.2,3.8c0.4,0.7,1.4,1.8,3.5,1.8c1.5,0,3.5-0.5,6.1-1.1
		c3-0.7,6.6-1.6,9.1-1.6c0.6,0,1,0,1.4,0.1c2,0.5,2.8,1.8,4.4,4.3c1.3,2.1,2.7,4.4,5.3,6.5c4.5,3.6,8.7,13.4,8.8,13.5
		c0,0.1,0.1,0.2,0.1,0.3c3.3,6.1,8.1,15.7,8.6,17.8c0.4,1.9-2,6.9-4.7,10.1c-3.5,4-1.6,8.6-0.1,10.5l0.1,0.1
		c0.4,0.5,10.2,12.2,15.2,17.5c3.5,3.7,8.1,6.5,11.8,8.6c0.5,0.3,1,0.4,1.5,0.4c0.6,0,1.1-0.1,1.6-0.4c0.7-0.4,1.2-1,1.4-1.8v2.6
		c0,1,0.5,2,1.3,2.5c1.8,1.2,3.5,2.5,5,3.6c2.8,2.1,4.9,3.8,6.1,5.1c2.9,2.9,8.3,4.4,16.1,4.4c0.6,0,1.7,0.2,2.9,0.6
		c1.1,1.7,2.5,2.6,4,2.6c0.7,0,1.5-0.2,2.1-0.6c0.3-0.2,1.9-0.6,3.4-0.6c0.3,0,0.5,0,0.6,0c1,0.6,3.9,3.4,4.9,5
		c1.5,2.5,4.3,3.3,6.3,3.9c0.5,0.2,1,0.3,1.4,0.4c0.3,0.2,1.7,1.3,2.3,1.8c2.5,2.1,5.6,4.7,8.9,5.6c0.5,0.1,11.8,3.2,14.8,3.2
		c3.2,0,5.3-3.3,6.5-6.1c2-2.3,5.4-6.3,6.3-7.9c0.3-0.4,2.1-1.6,4.1-2.6c0.4-0.2,1.7-0.8,3.1-1.8c1.2-0.9,5.1-4.6,6.6-6.7
		c0.2-0.1,0.8-0.2,2-0.2c0.6,0,1.1,0,1.7,0c0.5,0,1,0,1.5,0c0,0.5,0,1,0.2,1.5c0.2,0.7,0.8,1.7,2.2,2.3c0.3,0.2,1.1,0.6,1.9,1
		c4,2.1,5.8,3.1,7.2,3.3c0.9,0.1,2.3,0.6,3.8,1.2c0.5,0.3,0.9,0.4,1.2,0.6c1.3,0.4,13.7,3.5,16.7,4c0.4,0.2,1.6,1.7,2.5,3.6
		c0.5,3.4,2.3,5.4,4.7,5.4c0.3,0,0.7,0,1-0.1c1.2-0.3,2.2-1.1,2.9-2.4c0.8,0,1.5,0.1,2,0.1c0.4,0.3,0.9,0.9,1,1.1
		c0.2,1.2,0.8,2.1,1.3,2.8c0.3,0.4,0.5,0.7,0.6,1c0.1,0.2,0.1,0.4,0.1,0.6c0.4,1.6,1.2,5.3,4.9,5.3c3.5,0,5-4,5.3-5.2
		c0.1-0.2,0.1-0.4,0.1-0.7c0-0.7,0.3-2.4,0.8-3.4c0.8-1.5,1-3.2,0.4-4.9c-0.2-0.6-0.5-1.2-0.9-1.7c2.6-0.4,4.8-1.2,6.5-2.4
		c3.9-2.7,8.3-7.5,9-11.6c0.4-0.7,3.2-3,6.6-4.9c0.1,0,0.1-0.1,0.2-0.1c5.8-3.8,13-8.6,14-9.8c1-1.2,1.6-2.6,1.7-4
		c0.4,0,0.8,0,1.2,0c0.4,0,0.8-0.1,1.1-0.2c1.4-0.6,4.1-1.6,5-1.8c1.6-0.4,11.4-2.2,14-2.2c2.5,0,5.6-1.6,8.6-3.1
		c1.1-0.5,3-1.5,3.5-1.6c0.7-0.1,2.3-0.4,10-5.1c1-0.6,1.5-1.7,1.5-2.8c-0.1-0.8-0.4-1.6-1-2.1l2,0.9c0.4,0.2,0.8,0.3,1.3,0.3
		c0.8,0,1.6-0.3,2.2-0.9l0.2-0.2c1.5-1.4,2.2-1.9,2.4-2c1.9-1.2,3.1-1.9,3.2-2c0.7-0.5,1.2-1.2,1.3-2l1.1-6c0.3-1.2,1.1-3.9,1.1-5.6
		c0-1.4-0.6-2.7-1.1-3.8c-0.1-0.2-0.3-0.7-0.4-1c0.1-0.1,0.2-0.3,0.2-0.3c0.5-0.7,1.3-1.8,1.3-3.4c0-1.5-0.8-2.7-1.4-3.6
		c-0.1-0.2-0.3-0.4-0.4-0.7c0.9-1,1.2-2.3,1.1-4.2c-0.3-3.6-0.2-7.9,0.1-9.1c1.3-1.5,1.7-3.9,2-8.8c0-0.5,0.1-1.5,0.1-1.6
		c0-0.2,0.1-0.4,0.3-0.8c0.3-0.7,0.7-1.7,0.8-3.2c0.2-0.2,0.7-0.7,2.1-1.5c2.5-1.4,3-4.8,3.5-8.1c0.1-0.7,0.3-2.1,0.4-2.4
		c0.1-0.2,0.4-0.8,0.4-0.8c1.6-3.8,2.4-5.5,2.9-6.2c1.3-0.4,3.3-1.3,4.9-2.9c1.4-1.4,1.5-2.9,1.4-3.7c-0.1-0.6-0.3-1.2-0.6-1.7
		c0,0,0.1,0,0.1,0c1.3-0.3,3-1.4,3.5-3.5c0.3-1.3-0.1-2.8-0.5-4.3c-0.1-0.4-0.3-1-0.4-1.5c0.1-0.1,0.1-0.1,0.2-0.2
		c0.6-0.5,1.4-1.3,2-2.5c0.8-1.6,0.7-3.4-0.1-5.1c0.1-0.5,0.2-0.8,0.2-1c1.1-1.4,1.3-3.4,1.2-7c0.2-0.3,0.6-0.7,0.8-0.9
		c0.7-0.7,1.3-1.4,1.8-2.2c0.2-0.3,0.9-1.1,1.3-1.6c1.7-1.9,2.8-3.2,3.1-4.6c2.1-1.8,3.3-4.4,3.3-7.2c0-0.2,0-0.3,0-0.5
		c0-0.2,0-0.3,0-0.5c0-2.8-1.2-5.4-3.3-7.2c0.3-1.2,0.7-2.2,0.8-2.5c0.2-0.2,0.8-0.7,1.1-0.9c0.9-0.7,1.9-1.4,2.7-2.4
		c0.7-0.9,1.2-2.1,1.5-3.7c0.2,0,0.5,0.1,0.7,0.1c2.4,0,5.4-1.9,5.9-4.7c0.2-0.9,2.5-5.4,4.7-8.6c2.3-3.4,1.9-6.1,1.6-7.6
		c0.3-0.2,0.8-0.4,1.4-0.6c0.3,0,1.1,0.4,1.6,0.6c1,0.4,2.1,0.9,3.2,0.9c0.6,0,1.1-0.1,1.6-0.3c1.5-0.6,2.8-2.2,7.4-8.9
		c0.7-1,1.4-2.1,1.6-2.3c1.9-2.4,0.5-5.1-0.2-6.6c-0.1-0.2-0.4-0.7-0.4-0.9c0.1-0.4,0.7-1.5,1.4-2.1c0.2-0.2,0.4-0.3,0.7-0.5
		c1.6-1.2,4.1-3,4.8-5.8c0.2-0.8,1.8-3.7,2.7-5.3c1.1-2,2-3.6,2.4-4.7c0.9-2.4,0.5-4.4,0.1-5.7c0.9-0.9,2.3-2.5,3.5-5.4
		c1.9-4.7,2.1-9.2,0.4-12.2c-0.1-0.3-0.1-1.2,0.3-4c0.2-1.1,0.3-2.2,0.3-3.1c0-1.2,2.2-9.2,3.5-11.8c1.2-2.5,1.8-5.6,2.4-8.8
		c0.1-0.7,0.3-1.5,0.4-2.3c0.4-1.9,1-4.4,1.6-6.7c0.6-2.4,1.1-4.3,1.3-5.4c0.2-1.4,1.7-6.4,2.4-8c0.2-0.4,0.4-0.9,0.5-1.3
		c0.2-0.5,0.7-1.8,1-2.2c2.8-1.8,1.5-6,1-7.6c0-0.6,0.4-2.4,1.3-4.5C724.8,621.2,723.6,617.4,722.4,613.3"/>
</g>
<g>
	<defs>
		<path id="SVGID_1_" d="M359.9,938.9c1.4,0.9,3.2,2.2,5.1,3.7c2.4,1.8,4.9,3.7,6.5,5.4c3.5,3.5,12,3.5,13.9,3.5c1.9,0,5,1.2,5,1.2
			s1.2,2.7,2.3,1.9c1.2-0.8,5.4-1.5,7-0.8c1.5,0.8,5,4.3,6.2,6.2c1.2,1.9,4.3,2.3,6.2,3.1c1.9,0.8,6.6,6.2,10.8,7.4
			c4.3,1.2,12,3.1,13.9,3.1c1.9,0,3.9-4.6,3.9-4.6s5.4-6.2,6.2-7.7c0.8-1.6,5.4-3.9,5.4-3.9s1.3-0.6,2.7-1.6c1-0.7,4.8-4.5,6-6.1
			c1.2-1.7,5.2-1.2,7.7-1.2c2.5,0,2-1.8,2.9-2.3c0.8-0.5,1.2-3,0.6-3.4c-0.5-0.4-3.2,0.4-5.1,1c-1.9,0.5-1.9-0.7-2-2
			c-0.1-1.3,5-3.6,5.7-3.9c0.3-0.1,1.1-0.5,2-0.8c1.2,1.6,3,2.6,5.1,2.6c1.4,0,2.7-0.5,3.8-1.2c0.5,0.6,1,1.2,1.5,2
			c1.1,1.7-0.5,5.7-1.9,8.3c0,0-2.1,1.5-4.1,2c-1,0.3-2.1-0.1-3-0.4c-1-0.4-1.8-0.7-1.8-0.3c0,0.8-1.6,2.1-0.2,2.8
			c1.4,0.6,6.8,3.8,8.3,4c1.5,0.2,3.3,0.9,4.7,1.5c0.4,0.2,0.7,0.4,0.8,0.4c1.2,0.4,13.6,3.5,16.3,3.9c2.7,0.4,5,5.8,5,5.8
			s0.4,3.5,1.9,3.1c1.5-0.4,1.2-3.9,2.7-3.1c0.2,0.1,0.4,0.3,0.5,0.6l0,0c0,0,2.6,0.1,3.4,0.3c0.8,0.2,2.8,2.2,3,3.4
			c0.2,1.2,1.4,2,1.8,3.6c0.4,1.6,0.6,3.6,2.1,3.6c1.5,0,2.4-3,2.4-3s0.2-2.8,1.2-4.6c1-1.8-0.4-3.8-1.4-4.2c-1-0.4-3.8,2.4-4.4,2.4
			c-0.6,0-1.6-3.8-1.6-3.8c-1.4-1.6-2.8-5.8-1.9-6.7c1.2-1.2,6.2,4.3,6.2,4.3s6.2,0.8,10.1-1.9c3.9-2.7,7.4-7,7.7-9.7
			c0.4-2.7,8.1-7,8.1-7s12.4-8.1,13.4-9.3c1-1.2,1.3-2.7,0.1-3.9c-1.2-1.2,5-1.2,5-1.2s3.9-1.6,5.4-1.9c1.5-0.4,11.6-2.3,14.7-2.3
			c3.1,0,9.3-4.3,11.6-4.6c1.5-0.3,5.9-2.8,8.9-4.7L564,897.1l1.2-2.7c1.2-3,2.2-6.5,2.2-7.7c-0.6-0.7-1.6-1.7-2.5-2.7
			c-2.8-2.9-4.7-4.9-5.5-6.5c-0.3-0.6-3-2.3-8.3-2.3c-2.9,0-5.6,0.9-8.3,1.7c-2.4,0.8-4.8,1.5-7,1.5c-3.7,0-6.9-3-10-6
			c-1.4-1.3-2.9-2.7-3.9-3.3c-1.2-0.7-4.9-0.2-7.5,0.1c-2.9,0.4-5.7,0.7-8,0.3c-2.7-0.5-5.4-2.2-8-3.8c-1.8-1.1-4.2-2.6-5.2-2.6
			c-0.8,0-1.8,1.4-2.7,2.5c-0.8,1.1-1.6,2.2-2.8,2.8c-1.3,0.7-3,0.6-6,0.4c-0.9-0.1-2.2-0.2-3.2-0.2c-0.5,1.6-1.6,3.3-2.9,4.4
			c-1.5,1.3-4.1,2.7-7.8,2.1c-7.1-1.1-6.3-9.7-5.9-13.3c0.1-0.7,0.1-1.3,0.1-1.8c-0.3-0.8-3.4-3-5.8-3c-3.5,0-6.1-1.9-8.4-3.7
			c-1-0.7-1.9-1.4-2.9-2c-1.4-0.8-3.4-0.9-5.3-1c-1.9-0.1-3.9-0.2-5.6-0.9c-0.5-0.2-1.3-0.4-2.1-0.7c-3.4-1-8.7-2.4-11.4-7.5
			c-2.6-4.9-5.9-10.9-1.7-13.9c-0.1-0.4-0.3-1-0.6-1.1c-0.9-0.5-5.1-1.4-7.3-1.9c-1.7-0.4-3.2-0.7-4.3-1c-1.8-0.5-3.1-1.7-4-2.7
			c-1.7,1.3-4,2.8-6.6,2.3c-1.1-0.2-2.7-1-3.8-3.1c-1.9-3.7-5.2-7.7-7-8.9c-0.5-0.3-1.1-0.7-1.7-1.2c-2.1-1.6-5.6-4.2-8.1-3.9
			c-1.4,0.1-3.2,1-4.7,1.7c-2.7,1.3-6.4,3-8.8,0c-0.4-0.5-1-1.2-1.7-2V938.9z"/>
	</defs>
	<clipPath id="SVGID_2_">
		<use xlink:href="#SVGID_1_"  style="overflow:visible;"/>
	</clipPath>
</g>
<g>
	<path class="st1" d="M564,897.1l1.2-2.7c1.2-3,2.2-6.5,2.2-7.7c-0.6-0.7-1.6-1.7-2.5-2.7c-2.8-2.9-4.7-4.9-5.5-6.5
		c-0.3-0.6-3-2.3-8.3-2.3c-2.9,0-5.6,0.9-8.3,1.7c-2.4,0.8-4.8,1.5-7,1.5c-3.7,0-6.9-3-10-6c-1.4-1.3-2.9-2.7-3.9-3.3
		c-1.2-0.7-4.9-0.3-7.5,0.1c-2.9,0.4-5.7,0.7-8,0.3c-2.7-0.5-5.4-2.2-8-3.8c-1.8-1.1-4.2-2.6-5.2-2.6c-0.8,0-1.8,1.4-2.7,2.5
		c-0.8,1.1-1.6,2.2-2.8,2.8c-1.3,0.7-3,0.6-6,0.4c-0.9-0.1-2.2-0.2-3.2-0.2c-0.5,1.6-1.6,3.3-2.9,4.4c-1.5,1.3-4.1,2.7-7.8,2.1
		c-7.1-1.1-6.3-9.7-5.9-13.3c0.1-0.7,0.1-1.3,0.1-1.8c-0.3-0.8-3.4-3-5.8-3c-3.5,0-6.1-1.9-8.4-3.7c-1-0.7-1.9-1.4-2.9-2
		c-1.4-0.8-3.4-0.9-5.3-1c-1.9-0.1-3.9-0.2-5.6-0.9c-0.5-0.2-1.3-0.4-2.1-0.7c-3.5-1-8.7-2.4-11.4-7.5c-2.6-4.9-5.9-10.9-1.7-13.9
		c-0.1-0.4-0.3-1-0.6-1.1c-0.9-0.5-5.1-1.4-7.3-1.9c-1.7-0.4-3.3-0.7-4.3-1c-1.8-0.5-3.1-1.7-4-2.7c-1.7,1.3-4,2.8-6.6,2.3
		c-1.1-0.2-2.7-1-3.8-3.1c-1.9-3.7-5.2-7.7-7-8.9c-0.5-0.3-1.1-0.7-1.7-1.2c-2.1-1.6-5.6-4.2-8.1-3.9c-1.4,0.1-3.2,1-4.7,1.7
		c-2.7,1.3-6.4,3-8.8,0c-0.4-0.5-1-1.2-1.7-2v133.3c1.4,0.9,3.2,2.2,5.1,3.7c2.4,1.8,4.9,3.7,6.5,5.4c3.5,3.5,12,3.5,13.9,3.5
		c1.9,0,5,1.2,5,1.2s1.2,2.7,2.3,1.9c1.2-0.8,5.4-1.5,7-0.8c1.5,0.8,5,4.3,6.2,6.2c1.2,1.9,4.3,2.3,6.2,3.1
		c1.9,0.8,6.6,6.2,10.8,7.4c4.3,1.2,12,3.1,13.9,3.1c1.9,0,3.9-4.6,3.9-4.6s5.4-6.2,6.2-7.7c0.8-1.6,5.4-3.9,5.4-3.9
		s1.3-0.6,2.7-1.6c1-0.7,4.8-4.5,6-6.1c1.2-1.7,5.2-1.2,7.7-1.2c2.5,0,2-1.8,2.9-2.3c0.9-0.5,1.2-3,0.6-3.4c-0.5-0.4-3.2,0.4-5.1,1
		c-1.9,0.5-1.9-0.7-2-2c-0.1-1.3,5-3.6,5.7-3.9c0.3-0.1,1.1-0.5,2-0.8c1.2,1.6,3,2.6,5.1,2.6c1.4,0,2.7-0.5,3.8-1.2
		c0.5,0.6,1,1.2,1.5,2c1.1,1.7-0.5,5.7-1.9,8.3c0,0-2.1,1.5-4.1,2c-2,0.5-4.8-1.5-4.8-0.6c0,0.8-1.6,2.1-0.2,2.8
		c1.4,0.6,6.8,3.8,8.3,4c1.5,0.2,3.3,0.9,4.7,1.5c0.4,0.2,0.7,0.4,0.8,0.4c1.2,0.4,13.6,3.5,16.3,3.9c2.7,0.4,5,5.8,5,5.8
		s0.4,3.5,1.9,3.1c1.5-0.4,1.2-3.9,2.7-3.1c0.2,0.1,0.4,0.3,0.5,0.6l0,0c0,0,2.6,0.1,3.4,0.3c0.8,0.2,2.8,2.2,3,3.4
		c0.2,1.2,1.4,2,1.8,3.6c0.4,1.6,0.6,3.6,2.1,3.6c1.5,0,2.4-3,2.4-3s0.2-2.8,1.2-4.6c1-1.8-0.4-3.8-1.4-4.2c-1-0.4-3.8,2.4-4.4,2.4
		c-0.6,0-1.6-3.8-1.6-3.8c-1.4-1.6-2.8-5.8-1.9-6.7c1.2-1.2,6.2,4.3,6.2,4.3s6.2,0.8,10.1-1.9c3.9-2.7,7.4-7,7.7-9.7
		c0.4-2.7,8.1-7,8.1-7s12.4-8.1,13.4-9.3c1-1.2,1.3-2.7,0.1-3.9c-1.2-1.2,5-1.2,5-1.2s3.9-1.5,5.4-1.9c1.5-0.4,11.6-2.3,14.7-2.3
		c3.1,0,9.3-4.3,11.6-4.6c1.5-0.3,5.9-2.8,8.9-4.7L564,897.1z"/>
</g>
<g>
	<defs>
		<path id="SVGID_3_" d="M587.1,850.8c-0.1-0.3-0.2-0.5-0.2-0.8c-0.6-0.4-1-1.1-1.3-1.7c0,0-0.1-0.1-0.1-0.1c-0.3-0.3-0.7-0.6-1-1.1
			c-0.4-0.5-0.5-1.1-0.4-1.5c-0.7-0.9-0.5-1.9-0.4-2.3c-0.1-0.4-0.1-0.8,0-1.2c-0.1-0.5-0.2-1.2-0.3-2.1c0-0.3,0-0.5-0.1-0.7
			c-0.2-1.1,0.2-2.8,0.7-3.8c0.2-0.3,0.4-0.6,0.5-0.9c-0.1-0.4-0.2-0.8-0.2-1.2c0-0.4,0-1.2,1.4-3c0.1-0.2,0.3-0.3,0.4-0.4l7.9-5.7
			c0.5-0.4,1-0.5,1.6-0.5c0.5,0,1.3,0.2,2.1,0.9c0,0,0.1,0.1,0.1,0.1c0.7,0.3,1.2,0.9,1.4,1.7c0.2,0.2,0.4,0.6,0.6,1
			c0.4,0.3,0.8,0.6,1,1c0.2,0.2,0.4,0.4,0.6,0.6c0.1,0.1,0.2,0.3,0.2,0.4c0.5,0.1,0.9,0.2,1.3,0.4c1.7,0.8,2,2.3,1.9,3.4
			c-0.1,1.9-1.4,2.8-2.7,2.8c-0.5,0-0.8-0.1-0.9-0.2l-0.3-0.1c-0.2-0.1-0.6-0.2-0.8-0.3c-0.1,0-0.3,0-0.4,0c-0.1,0-0.2,0.1-0.4,0.1
			c-0.1,0.1-0.1,0.3-0.2,0.4c0,0-0.2,0.4-0.6,0.8c0,0.5-0.1,0.8-0.2,1.1c0.1,0.3,0.2,0.6,0.2,1c0,0.5-0.1,0.9-0.4,1.6
			c0,0.1-0.1,0.2-0.1,0.4c0.1,0.2,0.2,0.3,0.2,0.3c0.4,0.8,0.3,1.8-0.3,2.5c-0.3,0.3-0.6,0.6-1,0.7c0,0.1,0,0.1,0,0.2
			c0,0,0,0.1,0,0.1c0.7,1.1,0.2,2.7,0.1,3.3c0,0.1,0,0.1,0,0.2c0,0.1,0,0.3,0,0.4c0.1,0.3,0.1,0.6,0.1,0.9c0,0.2,0,0.4,0,0.6
			c0.2,0.7,0.3,1.9-1,3c0,0.9-0.4,1.5-0.7,1.8c-0.5,0.5-1.1,0.8-1.8,0.8c-0.3,0-0.6-0.1-0.7-0.1c-0.5,0-1.2-0.2-1.8-0.6
			c-1.4,0-2.4-1-2.9-1.8c0,0,0,0,0,0C587.6,852.7,587,851.9,587.1,850.8 M702.5,607.7c-2.2,1.2-8.1,3.8-14.6,2.7
			c-3.8-0.6-11.5,3.2-14.9,4.9c-0.7,1.3,0.2,6.8,0.7,9.5c0.4,2.7,0.9,5.2,0.9,7.2c0,2.2-1,3.5-1.8,4.2c-2.2,1.9-5.3,1.5-8.3,1.1
			c-1.3-0.2-3.7-0.5-4.3-0.2c-1.5,1.3-3.1,1.7-4.8,1.7c-3.7,0-7.3-2.4-7.8-2.8l-0.6-0.4l-0.3-0.7c-1.9-3.8-11.3-6.4-17.6-8.2
			c-3-0.8-5.6-1.6-7.4-2.4c-3.8-1.6-13.7,2.9-18,4.8c-1.2,0.5-2.2,1-2.9,1.3c-4.5,1.8-13,3.5-13.4,3.6l-0.6,0.1H359.9V797
			c1.4,1.5,4.2,4.3,5.8,6.1c0.6-0.2,1.5-0.6,2.1-0.9c1.9-0.9,4.3-2,6.8-2.2c4.8-0.4,9.2,2.9,12.2,5.1c0.5,0.4,1,0.8,1.4,1
			c2.9,1.9,6.7,6.6,9,11c0.8-0.4,1.9-1.3,2.3-1.7c0.4-0.4,0.8-0.7,1.1-0.9c1.3-0.9,3.4-1.3,5.8,1.7c0.5,0.6,1,1.3,1.6,1.5
			c0.9,0.2,2.3,0.6,3.9,0.9c4.6,1,7.7,1.7,9.3,2.7c2,1.3,3.5,3.9,3.4,6.5c0,1.8-0.7,3.3-2,4.3c0.2,1,1.2,3.2,2.9,6.5
			c1.5,2.9,4.8,3.8,7.7,4.6c1.1,0.3,2.1,0.6,2.9,0.9c0.7,0.3,2.1,0.4,3.5,0.4c2.4,0.1,5.4,0.2,8,1.7c1.3,0.7,2.4,1.6,3.5,2.4
			c1.8,1.3,3.3,2.5,4.8,2.5c4.7,0,11.9,4.1,11.9,9.1c0,0.7-0.1,1.4-0.2,2.3c-0.2,2-0.6,6.5,0.8,6.8c1.2,0.2,2.1,0,2.9-0.7
			c0.9-0.7,1.2-1.8,1.3-2c0-1,0.4-1.9,1.2-2.6c1.6-1.5,4.1-1.4,8.1-1.1c0.9,0.1,2.2,0.2,2.9,0.1c0.2-0.3,0.5-0.6,0.7-0.9
			c1.4-1.9,3.6-5,7.5-5c2.7,0,5.5,1.7,8.4,3.5c2,1.3,4.3,2.7,5.8,3c1.4,0.3,3.9,0,6.3-0.3c4.1-0.5,8.3-1,11.2,0.6
			c1.7,0.9,3.4,2.5,5.1,4.2c1.7,1.6,4.6,4.3,5.9,4.3c1.3,0,3.2-0.6,5.2-1.2c3-0.9,6.3-2,10.1-2c6.7,0,12.1,2.2,13.8,5.7
			c0.4,0.8,3,3.5,4.4,4.9c1.3,1.4,2.5,2.5,3.2,3.4c1.5,1.9,1.4,5.6-0.5,10.8l42.1,19.1c0.1-0.1,0.2-0.2,0.3-0.3c1-1,2.1-2,2.9-2.5
			c1.9-1.2,3.1-1.9,3.1-1.9l1.2-6.2c0,0,1-3.4,1-4.9c0-1.5-1.6-3.4-1.6-4.9c0-1.5,1.6-2.3,1.6-3.6c0-1.3-2.3-3.1-2.1-4.9
			c0.3-1.8,1.5-0.5,1.3-3.4c-0.3-2.8-0.5-10.3,0.8-11.4c1.3-1,1.3-7.7,1.5-9c0.3-1.3,1-2.1,1-3.6c0-1.5,1.8-2.8,3.6-3.9
			c1.8-1,1.8-7.2,2.6-9c0.8-1.8,3.4-8.3,4.4-8.5c1-0.3,3.1-1,4.4-2.3s-0.3-2.3-1.5-3.1c-1.3-0.8,0.8-3.9,0.8-3.9l3.1,0.8
			c0,0,1-0.3,1.3-1.3c0.3-1-1-3.9-1-5.4c0-1.6,1.8-2.1,2.6-3.6c0.8-1.5-0.5-3.1-0.5-3.1s0.3-2.8,1-3.6c0.8-0.8,0.5-4.6,0.5-5.7
			c0-1,2.3-2.8,3.1-4.1c0.8-1.3,3.9-4.1,4.1-5.4c0.1-0.3,0-0.6,0-0.9c1.9-1.1,3.2-3.2,3.2-5.5c0-0.2,0-0.3,0-0.5c0-0.2,0-0.3,0-0.5
			c0-2.6-1.6-4.8-3.8-5.8c0.4-2,1.3-4.9,1.8-5.7c0.8-1,2.8-2.1,3.9-3.4c1-1.3,1-3.9,1-4.9c0-1,2.3-1.3,2.8-0.3
			c0.5,1,3.3-0.3,3.6-1.8c0.3-1.5,3.1-6.7,5.2-9.8c2.1-3.1,1-5.2,1-6.4c0-1.3,1.8-2.6,3.9-3.1c1-0.3,2.2,0.2,3.3,0.6
			c1.1,0.5,2,0.9,2.7,0.6c1.3-0.5,6.7-9,7.7-10.3c1-1.3-1-3.6-1.3-5.2c-0.3-1.5,1.3-3.9,2.6-4.9c1.3-1,3.9-2.6,4.4-4.7
			c0.5-2.1,4.4-8.3,5.2-10.3c0.8-2.1,0-3.6-0.3-4.9c-0.3-1.3,2.1-1.8,3.9-6.2c1.8-4.4,1.6-7.7,0.5-9.6c-1-1.8,0.3-6.5,0.3-8.5
			c0-2.1,2.6-10.6,3.9-13.2c1.3-2.6,1.8-6.5,2.6-10.3c0.8-3.9,2.6-10.1,2.8-11.9c0.3-1.8,1.8-7,2.6-8.8c0.8-1.8,1.5-4.4,2.6-4.9
			c1-0.5,0-3.6-0.3-4.4c-0.3-0.8,0.3-3.6,1.5-6.5c1.3-2.8-2.3-10.3-2.6-14.2c0-0.4-0.1-0.8-0.1-1.1c-2.3-0.3-4.9-0.4-7.4-0.4
			C706.9,606.9,703.5,607.2,702.5,607.7"/>
	</defs>
	<clipPath id="SVGID_4_">
		<use xlink:href="#SVGID_3_"  style="overflow:visible;"/>
	</clipPath>
</g>
<g>
	<path class="st1" d="M718,607.3c-6-0.7-13.9-0.4-15.5,0.4c-2.2,1.2-8.1,3.8-14.6,2.7c-3.8-0.6-11.5,3.2-14.9,4.9
		c-0.7,1.3,0.2,6.8,0.7,9.5c0.4,2.7,0.9,5.2,0.9,7.2c0,2.2-1,3.5-1.8,4.2c-2.2,1.9-5.3,1.5-8.3,1.1c-1.3-0.2-3.7-0.5-4.3-0.2
		c-1.5,1.3-3.1,1.7-4.8,1.7c-3.7,0-7.3-2.4-7.8-2.8l-0.6-0.4l-0.3-0.7c-1.9-3.8-11.3-6.4-17.6-8.2c-3-0.8-5.6-1.6-7.4-2.4
		c-3.8-1.6-13.7,2.9-18,4.8c-1.2,0.5-2.2,1-2.9,1.3c-4.5,1.8-13,3.5-13.4,3.6l-0.6,0.1H359.9V797c1.4,1.5,4.2,4.3,5.8,6.1
		c0.6-0.2,1.5-0.6,2.1-0.9c1.9-0.9,4.3-2,6.8-2.2c4.8-0.4,9.2,2.9,12.2,5.1c0.5,0.4,1,0.8,1.4,1c2.9,1.9,6.7,6.6,9,11
		c0.8-0.4,1.9-1.3,2.3-1.7c0.4-0.4,0.8-0.7,1.1-0.9c1.3-0.9,3.4-1.3,5.8,1.7c0.5,0.6,1,1.3,1.6,1.5c0.8,0.2,2.3,0.6,3.9,0.9
		c4.6,1,7.7,1.7,9.3,2.7c2,1.3,3.5,3.9,3.4,6.5c0,1.8-0.7,3.3-2,4.3c0.2,1,1.2,3.2,2.9,6.5c1.5,2.9,4.8,3.8,7.7,4.6
		c1.1,0.3,2,0.6,2.9,0.9c0.7,0.3,2.1,0.4,3.5,0.4c2.4,0.1,5.4,0.2,8,1.7c1.3,0.7,2.4,1.6,3.5,2.4c1.8,1.3,3.3,2.5,4.8,2.5
		c4.7,0,11.9,4.1,11.9,9.1c0,0.7-0.1,1.4-0.2,2.3c-0.2,2-0.6,6.5,0.8,6.8c1.2,0.2,2.1,0,2.9-0.7c0.9-0.7,1.2-1.8,1.3-2
		c0-1,0.4-1.9,1.2-2.6c1.6-1.5,4.1-1.4,8.1-1.1c0.9,0.1,2.2,0.2,2.9,0.1c0.2-0.2,0.5-0.6,0.7-0.9c1.4-1.9,3.6-5,7.5-5
		c2.7,0,5.5,1.7,8.4,3.5c2,1.3,4.3,2.7,5.8,3c1.4,0.3,3.9,0,6.3-0.3c4.1-0.5,8.3-1,11.2,0.6c1.7,0.9,3.4,2.5,5.1,4.2
		c1.7,1.6,4.6,4.3,5.9,4.3c1.3,0,3.2-0.6,5.2-1.2c3-0.9,6.3-2,10.1-2c6.7,0,12.1,2.2,13.8,5.7c0.4,0.8,3,3.5,4.4,4.9
		c1.3,1.4,2.5,2.5,3.2,3.4c1.5,1.9,1.4,5.6-0.5,10.8l42.1,19.1c0.1-0.1,0.2-0.2,0.3-0.3c1-1,2.1-2,2.9-2.5c1.9-1.2,3.1-1.9,3.1-1.9
		l1.2-6.2c0,0,1-3.4,1-4.9c0-1.6-1.6-3.4-1.6-4.9c0-1.5,1.6-2.3,1.6-3.6c0-1.3-2.3-3.1-2.1-4.9c0.3-1.8,1.5-0.5,1.3-3.4
		c-0.3-2.8-0.5-10.3,0.8-11.4c1.3-1,1.3-7.7,1.5-9c0.3-1.3,1-2.1,1-3.6c0-1.5,1.8-2.8,3.6-3.9c1.8-1,1.8-7.2,2.6-9
		c0.8-1.8,3.4-8.3,4.4-8.5c1-0.3,3.1-1,4.4-2.3c1.3-1.3-0.3-2.3-1.5-3.1c-1.3-0.8,0.8-3.9,0.8-3.9l3.1,0.8c0,0,1-0.3,1.3-1.3
		c0.3-1-1-3.9-1-5.4c0-1.5,1.8-2.1,2.6-3.6c0.8-1.5-0.5-3.1-0.5-3.1s0.3-2.8,1-3.6c0.8-0.8,0.5-4.6,0.5-5.7c0-1,2.3-2.8,3.1-4.1
		c0.8-1.3,3.9-4.1,4.1-5.4c0.1-0.3,0-0.6,0-0.9c1.9-1.1,3.2-3.2,3.2-5.5c0-0.2,0-0.3,0-0.5c0-0.2,0-0.3,0-0.5c0-2.6-1.5-4.8-3.8-5.8
		c0.4-2,1.3-4.9,1.8-5.7c0.8-1,2.8-2.1,3.9-3.4c1-1.3,1-3.9,1-4.9c0-1,2.3-1.3,2.8-0.3c0.5,1,3.3-0.3,3.6-1.8
		c0.3-1.5,3.1-6.7,5.2-9.8c2.1-3.1,1-5.2,1-6.4c0-1.3,1.8-2.6,3.9-3.1c2.1-0.5,4.6,1.8,5.9,1.3c1.3-0.5,6.7-9,7.8-10.3
		c1-1.3-1-3.6-1.3-5.2c-0.3-1.6,1.3-3.9,2.6-4.9c1.3-1,3.9-2.6,4.4-4.6c0.5-2.1,4.4-8.3,5.2-10.3c0.8-2.1,0-3.6-0.3-4.9
		c-0.3-1.3,2.1-1.8,3.9-6.2c1.8-4.4,1.6-7.7,0.5-9.6c-1-1.8,0.3-6.5,0.3-8.5c0-2.1,2.6-10.6,3.9-13.2c1.3-2.6,1.8-6.5,2.6-10.3
		c0.8-3.9,2.6-10.1,2.8-11.9c0.3-1.8,1.8-7,2.6-8.8c0.8-1.8,1.5-4.4,2.6-4.9c1-0.5,0-3.6-0.3-4.4c-0.3-0.8,0.3-3.6,1.5-6.5
		c1.3-2.8-2.3-10.3-2.6-14.2C718.1,608.1,718.1,607.7,718,607.3z"/>
</g>
<g>
	<defs>
		<path id="SVGID_5_" d="M392.3,55.2c-0.3,0.5-0.7,3.7,1,2.6c0,0,3.4-2.1,3.9-2.8c0.5-0.8,1.8-2.3-1-2.3
			C393.4,52.6,392.6,54.7,392.3,55.2"/>
	</defs>
	<clipPath id="SVGID_6_">
		<use xlink:href="#SVGID_5_"  style="overflow:visible;"/>
	</clipPath>
	<rect x="391.7" y="52.6" class="st2" width="7.4" height="6.3"/>
</g>
<g>
	<path class="st1" d="M393.4,57.8c0,0,3.4-2.1,3.9-2.8c0.5-0.8,1.8-2.3-1-2.3c-2.8,0-3.6,2.1-3.9,2.6
		C392.1,55.7,391.7,58.9,393.4,57.8z"/>
</g>
<g>
	<defs>
		<path id="SVGID_7_" d="M319.5,246.7c-1,1.1,0.5,1.9,0.5,1.9s4.9,1.5,4.9,0c0-1.6-1-4.1-2.5-4.4c-0.1,0-0.2,0-0.3,0
			C321,244.1,320.5,245.7,319.5,246.7"/>
	</defs>
	<clipPath id="SVGID_8_">
		<use xlink:href="#SVGID_7_"  style="overflow:visible;"/>
	</clipPath>
	<rect x="318.5" y="243.9" class="st3" width="6.5" height="6.2"/>
</g>
<g>
	<path class="st1" d="M319.5,246.7c-1,1.1,0.5,1.8,0.5,1.8s4.9,1.5,4.9,0c0-1.6-1-4.1-2.5-4.4C321.1,243.9,320.6,245.6,319.5,246.7z
		"/>
</g>
<g>
	<defs>
		<path id="SVGID_9_" d="M319.7,227.7c-2.3,0.3-4.4,0.5-5.7,2.6c-1.3,2.1-2.3,4.9-1,5.9c0,0,2.8,3.1,4.4,1c1.5-2.1,3.1-3.9,2.6-4.6
			c-0.5-0.8,0.3-2.1,2.6-2.1s5.4-1.3,3.1-2.8c-0.8-0.6-1.5-0.7-2.2-0.7C322.3,226.9,321.2,227.5,319.7,227.7"/>
	</defs>
	<clipPath id="SVGID_10_">
		<use xlink:href="#SVGID_9_"  style="overflow:visible;"/>
	</clipPath>
	<rect x="311.7" y="226.1" class="st4" width="16.2" height="13.2"/>
</g>
<g>
	<path class="st1" d="M317.4,237.2c1.5-2.1,3.1-3.9,2.6-4.6c-0.5-0.8,0.3-2.1,2.6-2.1c2.3,0,5.4-1.3,3.1-2.8c-2.3-1.5-3.6-0.3-5.9,0
		c-2.3,0.3-4.4,0.5-5.7,2.6c-1.3,2.1-2.3,4.9-1,5.9C313,236.2,315.8,239.3,317.4,237.2z"/>
</g>
<g>
	<defs>
		<path id="SVGID_11_" d="M710.7,554.7c-1.4,0.2-1.4,2.2-1.4,3.8c0,1.6,0.7,6,1.4,5.6c0,0,1.8-0.4,1.6-2.2c-0.2-1.8-1-4.2-0.8-5
			c0.2-0.8,0.5-2.2-0.6-2.2C710.8,554.7,710.7,554.7,710.7,554.7"/>
	</defs>
	<clipPath id="SVGID_12_">
		<use xlink:href="#SVGID_11_"  style="overflow:visible;"/>
	</clipPath>
	<rect x="709.3" y="554.5" class="st5" width="3.2" height="10"/>
</g>
<g>
	<path class="st1" d="M710.7,554.7c-1.4,0.2-1.4,2.2-1.4,3.8c0,1.6,0.7,6,1.4,5.6c0,0,1.8-0.4,1.6-2.2c-0.2-1.8-1-4.2-0.8-5
		C711.7,556.1,712.1,554.5,710.7,554.7z"/>
</g>
<g>
	<defs>
		<path id="SVGID_13_" d="M627.5,409.5c0.3,0.6,1.7,0.8,1.4,1.5c-0.4,0.7-0.3,1.4,0.1,1.2c0,0,2-0.9,1.9-1.7
			c-0.1-0.9-0.9-1.9-1.4-2.1c-0.1,0-0.2,0-0.3,0C628.4,408.4,627.2,409,627.5,409.5"/>
	</defs>
	<clipPath id="SVGID_14_">
		<use xlink:href="#SVGID_13_"  style="overflow:visible;"/>
	</clipPath>
	<rect x="627.2" y="408.2" class="st6" width="3.8" height="4.2"/>
</g>
<g>
	<path class="st1" d="M628.8,411c-0.4,0.7-0.3,1.4,0.1,1.2c0,0,2-0.9,1.9-1.7c-0.1-0.9-0.9-1.9-1.4-2.1c-0.6-0.2-2.2,0.5-1.9,1.1
		C627.7,410.1,629.2,410.3,628.8,411z"/>
</g>
<g>
	<defs>
		<path id="SVGID_15_" d="M399.6,60.9c-0.8,1.8-5.2,1.5-7.7,3.1c-2.6,1.5-0.3,9.8,0,11.9c0.3,2.1-0.5,7.5-1.5,11.1
			c-1,3.6-3.9,5.7-4.9,9.3c-1,3.6-0.3,7.5-1.5,8.8c-1.3,1.3-1.6,4.9-0.8,5.7c0.8,0.8,2.3,4.6,2.8,6.5c0.5,1.8-0.3,5.2-2.1,7.5
			c-1.8,2.3-0.3,6.7,1,7.5c1.3,0.8,0.8,4.9-0.8,4.9c-1.6,0-1.8,3.9-4.6,7.2c-2.8,3.4,0,4.1-0.5,6.5c-0.5,2.3,2.1,6.2,3.1,7.7
			c1,1.5-1,8-1.8,9.8c-0.8,1.8,1.5,10.6,1,12.4c-0.5,1.8,3.4,3.1,3.9,4.6c0.5,1.6-1.8,6.5-2.8,6.7c-1,0.3-2.1,5.9-3.1,8.8
			c-1,2.8,0,9-1.3,10.8c-1.3,1.8-0.3,4.9-2.1,5.7c-1.8,0.8-2.1,10.6-2.1,13.7c0,3.1-2.8,4.4-4.9,4.4c-2.1,0-0.3,4.9-2.3,5.9
			c-2.1,1-2.8,2.6-2.8,5.4c0,2.8-3.6,12.1-4.9,13.9c-1.3,1.8-8.8,3.6-11.4,5.4c-2.6,1.8-7.5,2.6-11.4,0c-3.9-2.6-9-5.7-10.1-6.5
			c-1-0.8-5.9-0.8-8-2.3c-2.1-1.5-5.2-4.1-5.2-5.9c0-1.8-0.5-7.2-1-9c-0.5-1.8-8.8-3.6-11.1-4.1c-2.3-0.5-11.9-3.1-14.2-4.9
			c-1.7-1.3-4-3.5-6.3-6c-0.9-1-1.9-2-2.7-3.1c-1.4-1.6-2-2.4-2.4-2.8v309.7h84.9v96.9h226.4c1.5-0.3,8.5-1.8,12-3.2
			c0.7-0.3,1.6-0.7,2.7-1.2c8.4-3.8,17.1-7.3,22.8-4.8c1.5,0.6,4,1.4,6.7,2.1c7.8,2.2,17.4,4.9,20.9,10.5c1.6,1,3.9,1.7,4.7,1
			c2.4-2.1,5.9-1.6,9-1.2c0.9,0.1,2.4,0.4,3.2,0.3c-0.1-1.6-0.4-3.7-0.8-5.8c-1.1-6.6-2.3-13.4,2.5-15.8c4.5-2.3,13-6.5,18.8-5.5
			c4.8,0.8,9.5-1.4,10.8-2.1c2.5-1.3,10.2-1.8,16.9-1.2c-0.1-0.5-0.1-1,0-1.5c0.5-2.1-2.1-8-2.1-10.1c0-2.1-0.3-5.7-0.8-8
			c-0.1-0.6-0.5-1.4-0.9-2.3c0-0.2,0.1-0.5,0.1-0.8c0-0.2,0-0.3,0-0.5c0-0.2,0-0.3,0-0.5c0-1.3-0.4-2.6-1.1-3.6c0.2-0.8,1-3,1.1-4.4
			c0.2-1.6,1-4.8-0.6-4.2c-1.6,0.6-1.2,4.2-1.5,5c-0.2,0.4-0.1,1.6,0.1,2.5c-0.6-0.5-1.2-0.9-1.9-1.2c-0.5-1.7-0.9-4.1-0.4-5.3
			c0.8-1.8-1-10.3-0.8-12.1c0.3-1.8,1.5-3.1,0.8-4.6c-0.8-1.5-3.1-4.6-3.1-6.2c0-1.6,1.5-1.6,1.5-3.6c0-2.1-2.3-3.1-3.6-3.9
			c-1.3-0.8-0.3-3.1,1-3.9c1.3-0.8,1.5-2.8,0-5.7c-1.6-2.8-0.8-8-1-9c-0.3-1,0.5-7,0.5-9c0-2.1,1.8-4.9,3.1-6.5
			c1.3-1.5,2.6-2.8,4.9-3.4c2.3-0.5,0-2.8-1.3-3.9c-1.3-1-2.3-3.6-2.6-4.6c-0.3-1-2.3-1.3-3.1-1.3c-0.8,0,1.8,4.4,0.8,4.9
			c-1,0.5-4.4,7.5-5.7,8.8c-1.3,1.3-5.4,1.8-6.7,2.1c-1.3,0.3-4.9-4.1-5.9-4.6c-1-0.5-2.3-2.8-1.8-4.1c0.5-1.3-1-5.9-1.3-7.5
			c-0.3-1.6-2.8-1.6-3.9-1.8c-1-0.3-5.7-4.6-7-5.7c-1.3-1-2.6-7.5-3.1-9c-0.5-1.6,1-2.8,1-4.9c0-2.1-2.6-5.7-3.6-7
			c-1-1.3-5.2-3.9-7-4.1c-1.8-0.3-4.4-1-4.4-2.3c0-1.3,0.8-3.4-0.3-4.7c-1-1.3-4.6-3.1-7.2-4.1c-2.6-1-4.4,1.8-4.4,1.8
			s-4.1-1.5-5.4-3.6c-1.3-2.1-1.3-5.9-1.8-7.7c-0.5-1.8,1-3.9,1.8-5.9c0.8-2.1-1.3-5.2-2.1-6.5c-0.6-1-1.2-3-2.2-4.4l0,0
			c0,0,0.6-0.7,1.2-0.7c0.6,0,2.2-1.9,0.8-2.3c-0.5-0.1-0.8,0-1,0.1c-0.4,0.2-0.5,0.3-0.6-0.8c-0.2-1.7-1-2.1-1.6-2.3
			c-0.6-0.2-2.2-1.1-2.6-0.5c-0.4,0.6-1.4,1.4-0.9,2.4c0.5,1,0.3,1.8-0.3,1.5c-1-0.4-1.8-0.7-2.3-1c-1-0.8-4.4-0.3-5.9-1.8
			c-1.5-1.6-2.6-4.9-3.9-9c-1.3-4.1-1.3-2.3-2.8-1.6c-1.6,0.8-2.3,9.3-2.8,10.6c-0.5,1.3-2.1,0.8-2.8,0.3c-0.4-0.2-0.9,0.1-1.5,0.4
			c-0.7,0.4-1.4,0.7-2.1,0.3c-1.3-0.8-1.8-2.3-3.1-4.6c-1.3-2.3-3.4-10.3-2.8-13.4c0.5-3.1,0-9.8-0.3-10.8c-0.3-1-3.9-3.4-4.6-5.2
			c-0.8-1.8-1.3-6.5-2.1-7.7c-0.8-1.3-3.6-6.7-4.9-7.7c-1.3-1-4.9-4.4-5.4-6.5c-0.5-2.1-1-3.6-0.3-5.7c0.8-2.1,2.6,2.1,4.1,2.6
			c1.6,0.5-1-4.4-2.1-7.5c-1-3.1-6.2-5.4-9-7.7c-2.1-1.7-3.1-1.7-5-1.7c-0.6,0-1.3,0-2.3-0.1c-3.6-0.3-5.9-5.9-7.2-6.2
			c-0.5-0.1-1.4,0.2-2.4,0.5c-1.4,0.5-3.1,0.9-3.8,0c-1.3-1.5,1.5-2.8,1.8-4.6c0.3-1.8-1.3-3.1-3.4-3.1c-2.1,0,0,4.6-1.8,5.9
			c-1.8,1.3-2.8-2.8-4.9-4.6c-2.1-1.8,0.5-3.6,0.5-5.4c0-1.8-3.1-3.4-4.4-3.4s-2.6,2.3-4.9,2.3c-2.3,0-3.1-5.2-3.4-6.7
			c-0.3-1.6-4.4-0.8-5.2-0.8c-0.8,0-2.1-2.1-3.6-2.1c-1.5,0-1.8,1.8,0.3,3.9c2.1,2.1,0.8,3.6-3.1,3.1c-3.9-0.5-1.8-3.4-3.9-4.4
			c-2.1-1-3.1-3.4-5.9-4.1c-2.8-0.8-1-4.9-1-6.5c0-1.6,2.1-7.7,2.1-10.1c0-2.3,1-4.9-0.5-6.5c-1.6-1.6-3.9-5.7-6.2-8.3
			c-2.3-2.6,0-9.6,0.5-11.4c0.5-1.8,0.8-6.2,0-8c-0.8-1.8-2.3-5.2-3.4-6.7c-1-1.5-1.8-3.4-2.3-5.4c-0.5-2.1,2.6-3.1,3.1-3.9
			c0.5-0.8-2.3-1.6-4.1,0c-1.8,1.5-2.6-2.3-3.6-4.1c-1-1.8-2.1-3.4-5.9-5.4c-3.9-2.1-3.4-4.7-5.2-6.5c-1.8-1.8,0.8-3.6,1.3-4.9
			c0.5-1.3,1.8-4.9,1.3-5.9c-0.5-1-1.5-8.8-2.1-10.6c-0.5-1.8-4.6-5.9-5.2-7.2c-0.5-1.3,1.5-5.7,0-6.5c-1.5-0.8,0.3-4.6,1.5-6.7
			c1.3-2.1-2.8-3.1-3.1-4.1c-0.3-1-1.6-2.3-3.6-1.8c-2.1,0.5-5.2-1-5.9-2.1c-0.8-1-3.1-2.1-4.9-2.1c-1.8,0-3.1-2.6-2.3-3.9
			c0.8-1.3,2.3-4.9,0.3-5.4c-2.1-0.5-1.3-4.4-2.3-6.5c-1-2.1-3.6,3.4-5.4,3.9c-1.8,0.5-4.1-0.8-4.9-1.3c-0.8-0.5-1,4.6-2.3,5.4
			c-1.3,0.8-2.8,4.1-5.4,3.6c-2.6-0.5-3.1-8.5-5.2-10.3c-2.1-1.8-3.6-9-4.6-10.1c-1-1,0.8-10.8,0.5-15c-0.3-4.1-0.8-10.1-2.6-12.1
			c-1.8-2.1-2.6-2.3-2.3-6.5c0.3-4.1-3.4-4.4-3.9-5.7c-0.5-1.3-0.8-3.4-2.8-3.9c-2.1-0.5-1.6-5.9-1.8-7.5c-0.3-1.5,2.8-2.8,3.1-3.6
			c0.3-0.8-3.9-2.6-6.2-2.6c-2.3,0-1-5.7-3.6-6.4c-2.6-0.8-1.5-3.4-0.8-4.7c0.8-1.3,0.5-4.4-0.8-7.2c-1.3-2.8-0.5-6.2-1-8
			c-0.5-1.8-2.8-3.4-3.4-4.6c-0.5-1.3-1.3-3.6-3.1-3.6C402.7,57.6,400.3,59.1,399.6,60.9"/>
	</defs>
	<clipPath id="SVGID_16_">
		<use xlink:href="#SVGID_15_"  style="overflow:visible;"/>
	</clipPath>
</g>
<g>
	<path class="st1" d="M275.1,531.2h84.9v96.9h226.4c1.5-0.3,8.5-1.8,12-3.2c0.7-0.3,1.6-0.7,2.7-1.2c8.4-3.8,17.1-7.3,22.8-4.8
		c1.5,0.6,4,1.4,6.7,2.1c7.8,2.2,17.4,4.9,20.9,10.5c1.6,1,3.9,1.7,4.7,1c2.4-2.1,5.9-1.6,9-1.2c0.9,0.1,2.4,0.4,3.2,0.3
		c-0.1-1.6-0.4-3.7-0.8-5.8c-1.1-6.6-2.3-13.4,2.5-15.8c4.5-2.3,13-6.5,18.8-5.5c4.8,0.8,9.5-1.4,10.8-2.1
		c2.5-1.3,10.1-1.8,16.9-1.2c-0.1-0.5-0.1-1,0-1.5c0.5-2.1-2.1-8-2.1-10.1c0-2.1-0.3-5.7-0.8-8c-0.1-0.6-0.5-1.4-0.9-2.3
		c0-0.3,0.1-0.5,0.1-0.8c0-0.2,0-0.3,0-0.5c0-0.2,0-0.3,0-0.5c0-1.3-0.4-2.6-1.1-3.6c0.2-0.8,1-3,1.1-4.4c0.2-1.6,1-4.8-0.6-4.2
		c-1.6,0.6-1.2,4.2-1.5,5c-0.2,0.4-0.1,1.6,0.1,2.5c-0.6-0.5-1.2-0.9-1.9-1.2c-0.5-1.7-0.9-4.1-0.4-5.3c0.8-1.8-1-10.3-0.8-12.1
		c0.3-1.8,1.6-3.1,0.8-4.6c-0.8-1.5-3.1-4.6-3.1-6.2c0-1.6,1.5-1.6,1.5-3.6c0-2.1-2.3-3.1-3.6-3.9c-1.3-0.8-0.3-3.1,1-3.9
		c1.3-0.8,1.5-2.8,0-5.7c-1.6-2.8-0.8-8-1-9c-0.3-1,0.5-7,0.5-9c0-2.1,1.8-4.9,3.1-6.5c1.3-1.6,2.6-2.8,4.9-3.4
		c2.3-0.5,0-2.8-1.3-3.9c-1.3-1-2.3-3.6-2.6-4.6c-0.3-1-2.3-1.3-3.1-1.3c-0.8,0,1.8,4.4,0.8,4.9c-1,0.5-4.4,7.5-5.7,8.8
		c-1.3,1.3-5.4,1.8-6.7,2.1c-1.3,0.3-4.9-4.1-5.9-4.6c-1-0.5-2.3-2.8-1.8-4.1c0.5-1.3-1-5.9-1.3-7.5c-0.3-1.6-2.8-1.6-3.9-1.8
		c-1-0.3-5.7-4.6-7-5.7c-1.3-1-2.6-7.5-3.1-9c-0.5-1.6,1-2.8,1-4.9c0-2.1-2.6-5.7-3.6-7c-1-1.3-5.2-3.9-7-4.1
		c-1.8-0.3-4.4-1-4.4-2.3c0-1.3,0.8-3.4-0.3-4.6c-1-1.3-4.6-3.1-7.2-4.1c-2.6-1-4.4,1.8-4.4,1.8s-4.1-1.6-5.4-3.6
		c-1.3-2.1-1.3-5.9-1.8-7.7c-0.5-1.8,1-3.9,1.8-5.9c0.8-2.1-1.3-5.2-2.1-6.5c-0.6-1-1.2-3-2.2-4.4c0,0,0.6-0.7,1.2-0.7
		c0.6,0,2.2-1.9,0.8-2.3c-1.4-0.4-1.4,1-1.7-0.7c-0.2-1.7-1-2.1-1.6-2.3c-0.6-0.2-2.2-1.1-2.6-0.5c-0.4,0.6-1.4,1.4-0.9,2.4
		c0.5,1,0.3,1.8-0.3,1.5c-1-0.4-1.8-0.7-2.3-1c-1-0.8-4.4-0.3-5.9-1.8c-1.5-1.6-2.6-4.9-3.9-9c-1.3-4.1-1.3-2.3-2.8-1.5
		c-1.6,0.8-2.3,9.3-2.8,10.6c-0.5,1.3-2.1,0.8-2.8,0.3c-0.8-0.5-2.3,1.6-3.6,0.8c-1.3-0.8-1.8-2.3-3.1-4.6
		c-1.3-2.3-3.4-10.3-2.8-13.4c0.5-3.1,0-9.8-0.3-10.8c-0.3-1-3.9-3.4-4.6-5.2c-0.8-1.8-1.3-6.5-2.1-7.7c-0.8-1.3-3.6-6.7-4.9-7.7
		c-1.3-1-4.9-4.4-5.4-6.4c-0.5-2.1-1-3.6-0.3-5.7c0.8-2.1,2.6,2.1,4.1,2.6c1.6,0.5-1-4.4-2.1-7.5c-1-3.1-6.2-5.4-9-7.7
		c-2.8-2.3-3.6-1.5-7.2-1.8c-3.6-0.3-5.9-5.9-7.2-6.2c-1.3-0.3-4.9,2.1-6.2,0.5c-1.3-1.5,1.5-2.8,1.8-4.6c0.3-1.8-1.3-3.1-3.4-3.1
		c-2.1,0,0,4.6-1.8,5.9c-1.8,1.3-2.8-2.8-4.9-4.6c-2.1-1.8,0.5-3.6,0.5-5.4c0-1.8-3.1-3.4-4.4-3.4s-2.6,2.3-4.9,2.3
		c-2.3,0-3.1-5.2-3.3-6.7c-0.3-1.5-4.4-0.8-5.2-0.8c-0.8,0-2.1-2.1-3.6-2.1c-1.5,0-1.8,1.8,0.3,3.9c2.1,2.1,0.8,3.6-3.1,3.1
		c-3.9-0.5-1.8-3.4-3.9-4.4c-2.1-1-3.1-3.4-5.9-4.1c-2.8-0.8-1-4.9-1-6.5c0-1.6,2.1-7.7,2.1-10.1c0-2.3,1-4.9-0.5-6.5
		c-1.6-1.5-3.9-5.7-6.2-8.3c-2.3-2.6,0-9.6,0.5-11.4c0.5-1.8,0.8-6.2,0-8c-0.8-1.8-2.3-5.2-3.4-6.7c-1-1.5-1.8-3.4-2.3-5.4
		c-0.5-2.1,2.6-3.1,3.1-3.9c0.5-0.8-2.3-1.5-4.1,0c-1.8,1.6-2.6-2.3-3.6-4.1c-1-1.8-2.1-3.4-5.9-5.4c-3.9-2.1-3.4-4.7-5.2-6.5
		c-1.8-1.8,0.8-3.6,1.3-4.9c0.5-1.3,1.8-4.9,1.3-5.9c-0.5-1-1.6-8.8-2.1-10.6c-0.5-1.8-4.6-5.9-5.2-7.2c-0.5-1.3,1.5-5.7,0-6.5
		c-1.5-0.8,0.3-4.6,1.5-6.7c1.3-2.1-2.8-3.1-3.1-4.1c-0.3-1-1.6-2.3-3.6-1.8c-2.1,0.5-5.2-1-5.9-2.1c-0.8-1-3.1-2.1-4.9-2.1
		c-1.8,0-3.1-2.6-2.3-3.9c0.8-1.3,2.3-4.9,0.3-5.4c-2.1-0.5-1.3-4.4-2.3-6.5c-1-2.1-3.6,3.4-5.4,3.9c-1.8,0.5-4.1-0.8-4.9-1.3
		c-0.8-0.5-1,4.6-2.3,5.4c-1.3,0.8-2.8,4.1-5.4,3.6c-2.6-0.5-3.1-8.5-5.2-10.3c-2.1-1.8-3.6-9-4.6-10.1c-1-1,0.8-10.8,0.5-15
		c-0.3-4.1-0.8-10.1-2.6-12.1c-1.8-2.1-2.6-2.3-2.3-6.5c0.3-4.1-3.4-4.4-3.9-5.7c-0.5-1.3-0.8-3.4-2.8-3.9c-2.1-0.5-1.6-5.9-1.8-7.5
		c-0.3-1.5,2.8-2.8,3.1-3.6c0.3-0.8-3.9-2.6-6.2-2.6c-2.3,0-1-5.7-3.6-6.5c-2.6-0.8-1.5-3.4-0.8-4.6c0.8-1.3,0.5-4.4-0.8-7.2
		c-1.3-2.8-0.5-6.2-1-8c-0.5-1.8-2.8-3.4-3.4-4.6c-0.5-1.3-1.3-3.6-3.1-3.6c-1.8,0-4.1,1.5-4.9,3.4c-0.8,1.8-5.2,1.5-7.7,3.1
		c-2.6,1.6-0.3,9.8,0,11.9c0.3,2.1-0.5,7.5-1.5,11.1c-1,3.6-3.9,5.7-4.9,9.3c-1,3.6-0.3,7.5-1.5,8.8c-1.3,1.3-1.6,4.9-0.8,5.7
		c0.8,0.8,2.3,4.6,2.8,6.5c0.5,1.8-0.3,5.2-2.1,7.5c-1.8,2.3-0.3,6.7,1,7.5c1.3,0.8,0.8,4.9-0.8,4.9c-1.6,0-1.8,3.9-4.6,7.2
		c-2.8,3.4,0,4.1-0.5,6.5c-0.5,2.3,2.1,6.2,3.1,7.7c1,1.5-1,8-1.8,9.8c-0.8,1.8,1.5,10.6,1,12.4c-0.5,1.8,3.4,3.1,3.9,4.6
		c0.5,1.6-1.8,6.5-2.8,6.7c-1,0.3-2.1,5.9-3.1,8.8c-1,2.8,0,9-1.3,10.8c-1.3,1.8-0.3,4.9-2.1,5.7c-1.8,0.8-2.1,10.6-2.1,13.7
		c0,3.1-2.8,4.4-4.9,4.4c-2.1,0-0.3,4.9-2.3,5.9c-2.1,1-2.8,2.6-2.8,5.4c0,2.8-3.6,12.1-4.9,13.9c-1.3,1.8-8.8,3.6-11.4,5.4
		c-2.6,1.8-7.5,2.6-11.4,0c-3.9-2.6-9-5.7-10.1-6.5c-1-0.8-5.9-0.8-8-2.3c-2.1-1.5-5.2-4.1-5.2-5.9c0-1.8-0.5-7.2-1-9
		c-0.5-1.8-8.8-3.6-11.1-4.1c-2.3-0.5-11.9-3.1-14.2-4.9c-1.7-1.3-4-3.5-6.3-6c-0.9-1-1.9-2-2.7-3.1c-1.4-1.6-2-2.4-2.4-2.8V531.2z"
		/>
</g>
<g>
	<defs>
		<path id="SVGID_17_" d="M247.8,202.6c-0.3,1.3-1.3,4.9,0.8,4.9c2.1,0,2.8-2.6,4-2.6c1.2,0-0.4,2.8,1.2,3.1c1.6,0.3,3.4,1,3.6,0
			c0,0,1-4.1,0-4.9c-1-0.8-2.6-3.9-4.1-4.1c-0.1,0-0.2,0-0.2,0C251.3,199,248,201.4,247.8,202.6"/>
	</defs>
	<clipPath id="SVGID_18_">
		<use xlink:href="#SVGID_17_"  style="overflow:visible;"/>
	</clipPath>
	<rect x="246.5" y="198.8" class="st7" width="11.9" height="10.3"/>
</g>
<g>
	<path class="st1" d="M247.8,202.6c-0.3,1.3-1.3,4.9,0.8,4.9c2.1,0,2.8-2.6,4-2.6c1.2,0-0.4,2.8,1.2,3.1c1.6,0.3,3.4,1,3.6,0
		c0,0,1-4.1,0-4.9c-1-0.8-2.6-3.9-4.1-4.1C251.6,198.8,248,201.4,247.8,202.6z"/>
</g>
<g>
	<defs>
		<path id="SVGID_19_" d="M238.4,147.9c-0.8,2.3-3.2,3.9-3.4,5.9c-0.2,2.1,0.1,8,0.1,8s-0.5,3.9,1.8,3.9c2.3,0,8.5-1.3,10.1,0
			c1.5,1.3,5.4,1,5.4-0.5c0-1.5,1-3.4-1.3-3.4s-6.7-0.5-6.5-2.1c0.3-1.5,2.1-4.1,3.4-4.6c1.3-0.5,5.2-4.4,3.6-5.2
			c-1.5-0.8-3.6,0.3-4.9,1.3c-1.3,1-3.1,3.6-3.6,1c-0.5-2.6,0.7-6.4,0.7-6.4s-0.2,0-0.4,0C242.2,145.8,239,146,238.4,147.9"/>
	</defs>
	<clipPath id="SVGID_20_">
		<use xlink:href="#SVGID_19_"  style="overflow:visible;"/>
	</clipPath>
	<rect x="234.5" y="145.6" class="st8" width="18.8" height="21.4"/>
</g>
<g>
	<path class="st1" d="M243,152.3c-0.5-2.6,0.7-6.5,0.7-6.5s-4.6-0.3-5.4,2.1c-0.8,2.3-3.2,3.9-3.4,5.9c-0.2,2.1,0.1,8,0.1,8
		s-0.5,3.9,1.8,3.9c2.3,0,8.5-1.3,10.1,0c1.5,1.3,5.4,1,5.4-0.5c0-1.5,1-3.4-1.3-3.4s-6.7-0.5-6.5-2.1c0.3-1.5,2.1-4.1,3.4-4.6
		c1.3-0.5,5.2-4.4,3.6-5.2c-1.5-0.8-3.6,0.3-4.9,1.3C245.4,152.3,243.5,154.9,243,152.3z"/>
</g>
<g>
	<defs>
		<path id="SVGID_21_" d="M237.7,79.7c-0.6,1.5-2.7,4.4-4.5,6.2c-1.8,1.8-5.9,7-3.4,6.2c0,0,7.7-2.1,8.8-4.7c1-2.6,2.8-4.9,3.6-6.2
			c0.8-1.3,4.6-7,2.8-7C243.3,74.3,238.3,78.1,237.7,79.7"/>
	</defs>
	<clipPath id="SVGID_22_">
		<use xlink:href="#SVGID_21_"  style="overflow:visible;"/>
	</clipPath>
	<rect x="227.3" y="74.3" class="st9" width="19.6" height="18.7"/>
</g>
<g>
	<path class="st1" d="M229.9,92.1c0,0,7.7-2.1,8.8-4.7c1-2.6,2.8-4.9,3.6-6.2c0.8-1.3,4.6-7,2.8-7c-1.8,0-6.8,3.9-7.4,5.4
		c-0.6,1.5-2.7,4.4-4.5,6.2C231.4,87.7,227.3,92.9,229.9,92.1z"/>
</g>
<g>
	<path class="st1" d="M17.9,531.2H269V220c-1.9-0.8-3.9-2-5.3-3.6c-2.3-2.8-8.5-3.9-10.3-4.6c-1.8-0.8-8-3.6-10.3-4.7
		c-2.3-1-5.7-4.9-7.2-7.2c-1.5-2.3-3.6-3.4-7-4.1c-3.4-0.8-6.2-4.6-7.2-5.4c-1-0.8-8.5-4.1-10.6-6.2c-2.1-2.1-2.1-3.4-2.1-4.6
		c0-1.3,2.6-6.5,3.6-8.3c1-1.8,4.1-0.5,3.9-1.5c-0.3-1,0.3-3.9,1-4.9c0.8-1,4.6-1,4.4-4.4c-0.3-3.4,0.3-4.9,0.3-7.7
		c0-2.8,0.8-5.9-1-6.2c-1.8-0.3-3.4-2.1-3.4-3.9c0-1.8,1.8-6.5,1.3-8.5c-0.5-2.1,1.3-3.1,1.8-2.3c0.5,0.8,3.1-1,4.1-2.6
		c1-1.6,3.4,3.1,5.7,3.1s6.2-2.3,6.2-4.9c0-2.6-2.1-6.7-2.8-9c-0.8-2.3,4.9-1.8,4.6-3.9c-0.3-2.1,4.1-2.6,6.2-4.1
		c2.1-1.5,4.6-5.2,3.9-6.2c-0.8-1-4.9-3.1-7.2-3.6c-2.3-0.5-4.4-3.1-4.4-5.7c0-2.6-5.2,2.3-7.5,3.6c-2.3,1.3-1.6,4.9,0.3,5.4
		c1.8,0.5-1,5.7-3.6,5.9c-2.6,0.3-2.8-4.1-3.1-5.7c-0.3-1.6-3.6-7.5-3.6-8.5c0-1,0.5-6.2-2.3-7c-2.8-0.8-3.9,2.8-8,6.2
		c-4.1,3.4-4.9,2.6-6.5,2.6c-1.6,0-2.8,3.4-4.6,5.9c-1.8,2.6-4.1,0.5-8.3,0.5c-4.1,0-2.6-4.4-3.1-7c-0.5-2.6-2.1-3.1-3.4-1.8
		c-1.3,1.3-4.6,3.9-5.7,3.9c-1,0-3.1-1.8-4.1-3.4c-1-1.6-3.4,0.3-4.9,2.1c-1.6,1.8-3.4-1.5-3.4-2.3c0-0.8-4.6-1.8-5.7-3.1
		c-1-1.3-5.9,0-7.2,0c-1.3,0-6.2-2.8-7.5-3.6c-1.3-0.8-3.1-2.1-5.7-2.1c-2.6,0-2.8-1.5-3.9-4.4c-1-2.8-2.1-2.8-3.6-1.8
		c-1.5,1-1.3-2.1-3.6-2.1c-2.3,0-0.5,2.3-2.1,5.2c-1,1.8-2.1,1.1-3.4,0.4c-1.1-1.6-7-7.5-8.5-7.5c-1.5,0-2.8,2.8-5.2,2.8
		c-2.3,0-4.1-0.3-4.1,1.5c0,1.8,4.4,8.3,6.2,8.8c1.8,0.5,5.4-2.1,5.4-2.1l2.1-0.2c0.3,1.8,2.1,5.4,3.6,7.5c1.5,2.3,0.5,5.2,0,6.5
		c-0.5,1.3-2.8,3.4-4.9,3.4c-2.1,0-4.6-1.6-6.2-2.1c-1.5-0.5-3.1,2.3-3.6,3.6c-0.5,1.3-8.3,0.3-11.1-0.3c-2.8-0.5-5.9-2.3-7.7-3.6
		c-1.8-1.3-1.5-4.1-4.1-4.4c-2.6-0.3-3.1,2.8-5.2,2.8c-2.1,0-2.8,1.5-3.1,3.6c-0.3,2.1-1,2.1-2.6,1.8c-1.6-0.3-2.1,0.3-1.8,3.1
		c0.1,1.3,0.9,1.8,1.8,2.3c0,0,0,0,0,0c0,0.2,0,0.3,0,0.5c0,0.2,0,0.3,0,0.5c0,0.9,0.2,1.7,0.5,2.5c-0.4-0.1-0.8-0.1-1.3-0.1
		c-2.3,0-3.1-2.8-4.1-4.9c-1-2.1-3.4-1.5-3.4,0.3c0,1.8-1.3,4.9-3.9,4.4c-2.6-0.5-4.6,2.6-4.6,5.2c0,2.6-2.8,4.4-3.4,5.4
		c-0.5,1,2.6,6.2,2.6,6.2s3.4,6.7,2.3,7.2c-1,0.5-3.4,3.4-6.5,4.1c-3.1,0.8-4.9-2.3-6.7-2.3c-1.8,0-1.3,8-3.1,9
		c-1.8,1-1.8,6.5-2.6,7.5c-0.8,1-3.9-1.3-3.9,1.5c0,2.8-1.8,0.3-2.6-0.3c-0.8-0.5-3.6-0.5-3.4,1.8c0.3,2.3-1.5,4.9-2.1,5.9
		c-0.5,1,2.6,3.1,4.6,4.1c2.1,1,4.6,4.6,5.2,6.2c0.5,1.6,5.4,3.9,5.9,5.4c0.5,1.6-4.9,0.6-6.2,0.6s4.9,8.4,4.1,9.2
		c-0.8,0.8-4.6-5.2-5.9-5.7c-1.3-0.5-2.6-1.3-4.4-1.3c-1.8,0-2.3-2.2-3.6-2.2c-0.9,0-3,0.9-4.5,1.4c-0.6,0.2-1.1,0.3-1.4,0.3
		c-1.1,0-2.5-1.2-3.7-1.6V531.2z"/>
</g>
<g>
	<defs>
		<path id="SVGID_23_" d="M270.7,847.8c-2.3,0-12.4-0.3-14.7,0.8c-2.3,1-8.3,2.8-10.3,3.1c-2.1,0.3-6.2,0-4.9,1.8
			c1.3,1.8-0.5,5.2-0.2,6.7c0.2,1.5,2.3,2.8,3.6,2.3c0,0,3.4-1,4.9-2.1c1.5-1,8.5-1.3,9.5-1.3c1,0,7.7,2.1,9.3,1.7
			c1.5-0.4,4.6-0.1,5.9-1.7c1.3-1.6,4.1-1.8,5.4-1.8c1.3,0,2.1-3.4-1.5-5.9c-3.6-2.6-2.6-7-3.9-7
			C272.5,844.4,273.1,847.8,270.7,847.8"/>
	</defs>
	<clipPath id="SVGID_24_">
		<use xlink:href="#SVGID_23_"  style="overflow:visible;"/>
	</clipPath>
	<rect x="239.5" y="844.4" class="st10" width="41.8" height="18.5"/>
</g>
<g>
	<path class="st1" d="M277.7,851.4c-3.6-2.6-2.6-7-3.9-7c-1.3,0-0.8,3.4-3.1,3.4c-2.3,0-12.4-0.3-14.7,0.8c-2.3,1-8.3,2.8-10.3,3.1
		c-2.1,0.3-6.2,0-4.9,1.8c1.3,1.8-0.5,5.2-0.2,6.7c0.2,1.5,2.3,2.8,3.6,2.3c0,0,3.4-1,4.9-2.1c1.5-1,8.5-1.3,9.5-1.3
		c1,0,7.7,2.1,9.3,1.7c1.5-0.4,4.6-0.1,5.9-1.7c1.3-1.5,4.1-1.8,5.4-1.8C280.5,857.3,281.3,854,277.7,851.4z"/>
</g>
<g>
	<path class="st1" d="M353.9,537.3h-81.9h-3H17.9v183c0,0,0.1,0,0.1,0c1.2,0,3-0.5,5-1.4c2.1-0.9,4.5-2.1,6.6-3.3
		c4.1-2.3,13.2-1.5,19.1-2.3c5.9-0.8,22.5-0.3,29.7-0.8c7.2-0.5,4.9-4.4,6.7-4.9c1.8-0.5,2.8,2.8,4.7,3.9c1.8,1,8,2.3,8,2.3
		s4.4,2.3,5.2,3.6c0.8,1.3,6.5,6.5,12.7,8.3c6.2,1.8,5.4-2.6,7.7-3.1c2.3-0.5,8,0,8.8,1.6c0.8,1.6,0,3.6,1.8,4.4
		c1.8,0.8,7,8.3,8.5,8.5c1.6,0.3,3.1-1.3,3.1-2.6s3.6-2.1,4.4-2.1c0.8,0,1.5-2.3,3.6-2.3c2.1,0,5.9,4.4,6.5,7.2
		c0.5,2.8,0.3,5.4,3.6,5.7c3.3,0.3,3.6,6.7,0.8,8c-2.8,1.3,2.6,2.6,5.4,8.8c2.8,6.2,7.5,3.6,13.2,6.7c5.7,3.1,7.5,9.8,7.5,12.9
		c0,3.1,2.8,5.2,5.4,5.9c2.6,0.8,4.6,7,5.9,8.5c1.3,1.6,2.3,3.1,3.4,6.2c1,3.1,2.1,5.4,3.9,8.3c1.8,2.8,0.8,5.2-2.3,5.2
		c-3.1,0-7.2-1.5-9.5-0.5c-2.3,1,10.6,11.4,14.2,13.2c3.6,1.8,13.2,1,13.7-0.8c0.5-1.8-8.8-7.7-8.8-9.3c0-1.5,3.9-5.2,3.9-5.2
		s9-4.6,10.1-5.7c1-1,3.1-2.1,3.1-4.6c0-2.6,2.1-5.9,3.9-7.5c1.8-1.5,5.4,0.3,8,0.3c2.6,0,11.9-8,13.7-10.6c1.8-2.6,2.6-7,2.6-7
		s0.3-7.2,0.8-8.3c0.5-1,7-7,8.8-10.8c1.8-3.9,0.5-14.7,1.8-15.5c1.3-0.8,2.6-0.5,3.4,1.6c0.8,2.1,2.6,23.7,2.1,25.6
		c-0.5,1.8-1.8,11.6-1.8,17.8c0,6.2-6.2,11.6-7.2,12.6c-1,1,0.3,10.3,1.3,12.4c1,2.1-0.5,7-2.8,11.1c-2.3,4.1-8.3,2.6-10.3,1.3
		c-2.1-1.3-2.8,5.9-4.1,8.8c-1.3,2.8-3.4,5.7-1.3,5.7c2.1,0,6.7-3.1,7.5-3.4c0.8-0.3,6.2-3.6,8-3.6c1.8,0,5.9,2.1,7.7,2.1
		c1.8,0,1.5-4.4,4.4-11.4c2.8-7,0.8-17,0.8-20.7c0-3.6,3.6-8.3,6.7-8.3c3.1,0,2.1,12.4,2.3,15.7c0.3,3.4,7.7,4.6,8.3,5.4
		c0.5,0.8,0.3,6.5,2.5,7.2v0c0,0.2,0,0.3,0,0.5c0,0.2,0,0.3,0,0.5c0,1.4,0.5,2.7,1.2,3.8c-2,2.9-3.9,9.4-3.9,12.1
		c0,3.1-9.6,6.2-11.6,9.6c-2.1,3.4,12.4-3.1,18.1-1.5c5.7,1.5,5.7,7.2,10.8,11.4c5.2,4.1,9.7,14.7,9.7,14.7s8.1,15.1,8.9,18.6
		c0.8,3.5-2.7,9.7-5.4,12.8c-2.7,3.1,0,6.6,0,6.6s10.1,12,15.1,17.4c3.2,3.4,7.6,6.1,11,8V537.3z"/>
</g>
<g>
	<defs>
		<path id="SVGID_25_" d="M573.6,1037.5c-0.4,0.7,0.4,3.9-1.3,3.5c-1.7-0.4-4.1,0-5.6,0.6c-0.8,0.3-1.6,0.3-2.4,0.3
			c-0.7,0-1.3-0.1-2,0.1c-1.5,0.4-1.2,0.9-1.7,2c-0.6,1.1-3.9,0.9-5.4,0.9c-1.5,0-1.9,1.1-2.9,2c-1,0.9-2.3-0.2-3.3-0.7
			c-1-0.6-4.2,1.1-5.2,1.3c-1,0.2-3.5,0.9-4.2,2c-0.8,1.1-2.9,1.8-2.9,1.8s-2.7-0.4-3.9-0.2c-1.2,0.2-4.4,2-5.8,2.4
			c-1.3,0.4-7.5,0-8.9-0.4c-1.4-0.4-1.7-1.5-1.9-2.6c-0.2-1.1-4.2-2.8-5.4-3.1c-1.2-0.4-2.3-0.9-3.5-2c-1.2-1.1-2.7-1.1-4-1.3
			c-1.4-0.2-3.1-2.4-4.8-2.4c-1.7,0-2.5-2.9-3.9-3.5c-1.4-0.6-2.7,0.6-3.1,1.5c-0.4,0.9-1.9,1.1-2.9,1.5c-1,0.4-4.1-1.7-5-2
			c-1-0.4-2.5-1.7-4.8-1.7c-2.3,0-1.7,3.5-1.5,4.2c0.2,0.7-1.4,3.1-1.5,3.7c-0.2,0.6-1.7,3.5-1.7,4.4c0,0.9,0.8,1.5,1.5,1.7
			c0.8,0.2,0,5.5,0,5.5s1.2,2.8,1.2,5.2c0,2.4,1.2,3.7,2.1,4.6c1,0.9-0.4,1.3-1.2,1.3c-0.8,0,1.3,2.9,2.3,3.5c1,0.6,1.9,2.2,2.1,4.2
			c0.2,2,3.3,5.5,4.1,7c0.8,1.5,4.8,7,5.2,7.9c0.4,0.9,2.1,3.3,2.1,3.3l-0.8,3.7l1.2,0.6c0,0,0.6-1.5,1.4-1.1
			c0.8,0.4,2.3,3.9,3.7,5.3c1.4,1.5-1.7,0.6-3.5-0.9c-1.7-1.5-2.5-2-2.7-1.3c-0.2,0.7,1.5,6.6,1.7,7.6c0.2,0.9,1.3,6.8,2.1,6.8
			c0.8,0,2.9,2.9,2.9,4.4c0,1.5,2.3,7.7,2.9,9.2c0.6,1.5,3.5,1.2,4.4,1.1c1-0.1,1.4,2.4,1.2,3.7c-0.2,1.3,1.2,3.1,2.1,3.9
			c1,0.7,2.1,1.5,3.3,2.2c0.6,0.4,1.2,0,1.8-0.4c0.5-0.3,0.9-0.7,1.3-0.5c0.8,0.4,0.8,2.4,0,2.4c-0.8,0,0.4,2.8,1.2,3.1
			c0.8,0.4-0.6,6.1,0.8,6.8c1.4,0.7,3.3-1.5,4.2-2.4c0.6-0.5,1.4-0.4,2.2-0.4c0.6,0.1,1.1,0.1,1.5,0c1-0.4,4.2,0,4.2,0
			s2.3-0.7,2.5-1.8c0.2-1.1,2.1-0.7,2.9-0.4c0.8,0.4,1,2,1.7,2s0.4,2.8,0.8,4.4c0.4,1.7,3.3,1.7,5.2,1.7c1.9,0,5.6,0.2,6.6-0.5
			c1-0.7,1.2-1.7,0.8-2.4c-0.4-0.7,1.5-3.5,2.3-4.2c0.8-0.7,1.2-2.2,1.2-4.1c0-1.8,1-3.1,2.3-3.3c1.4-0.2,1.2,0,1.2,1.8
			c0,1.8,0.8,2.6-0.4,5.2c-1.2,2.6,2.3,1.7,4.1,1.7c1.7,0,0.8-4.4,1.7-5.9c1-1.5,1-5.2,1-5.6c0-0.5,0.6-6.7,1.5-7.1
			c0.8-0.3,1.2-2.1,0.7-3.6c0.8-0.8,1.5-1.7,1.8-2.9c0.4,0.6,0.8,1.2,1.1,1.2c0.6-0.1,0.4,5.4,0.6,6.5c0.2,1.1,1.7,0.9,1.6,3.1
			c-0.2,2.2,1.2,2.2,2.7,2.6c1.5,0.4,4.6-0.6,6-0.6c1.3,0-0.8-4.1-0.4-4.8c0.4-0.7,0-4.2,0-5.5c0-1.3-1.5-2.4-2.5-3.9
			c-1-1.5-0.6-5.2-0.6-5.2s-0.2-2.6-0.2-3.5c0-0.9,1.2-1.5,1.9-2c0.8-0.6,0-2.4-0.8-3.3c-0.8-0.9,0.4-2.9,0.6-3.5
			c0.2-0.6,0-4.4,0-5.7c0-1.3,2.9-1.8,4.4-0.4c1.5,1.5,2.7,3.3,3.7,3.5c1,0.2-0.2-3-0.2-3.7c0-0.7,1.9-2,2.9-2.2
			c1-0.2-1.2-2.4-1.6-3.3c-0.4-0.9,0.6-2.6,1.2-3.5c0.6-0.9,0.6-2.2,0-2.6c-0.6-0.4-1.5-2.2-1.5-3.2c0-1,1-4.5,1-5.8
			c0-1.3-1.2-2.6-2.1-3.5c-1-0.9,0.6-2.6,1-3.7c0.4-1.1-2.3-0.9-2.7-1.8c-0.4-0.9-1.5-2.9-1.5-4.1c0-1.1,0.8-3.7,1.2-5
			c0.4-1.3-0.2-2.8-1-4.2c-0.8-1.5,1.7-4.2,2.2-5c0.5-0.7-0.7-5.2-0.1-6.1c0.6-0.9-1.4-4.2-2.5-4.2c-1.2,0-3.9-2.6-5-3.1
			c-0.2-0.1-0.5-0.2-0.9-0.2C575.4,1036.2,573.9,1036.9,573.6,1037.5"/>
	</defs>
	<clipPath id="SVGID_26_">
		<use xlink:href="#SVGID_25_"  style="overflow:visible;"/>
	</clipPath>
</g>
<g>
	<path class="st1" d="M588.7,1088.7c0.6-0.9,0.6-2.2,0-2.6c-0.6-0.4-1.5-2.2-1.5-3.2c0-1,1-4.5,1-5.8c0-1.3-1.2-2.6-2.1-3.5
		c-1-0.9,0.6-2.6,1-3.7c0.4-1.1-2.3-0.9-2.7-1.8c-0.4-0.9-1.5-2.9-1.5-4.1c0-1.1,0.8-3.7,1.2-5c0.4-1.3-0.2-2.8-1-4.2
		c-0.8-1.5,1.7-4.2,2.2-5c0.5-0.7-0.7-5.2-0.1-6.1c0.6-0.9-1.4-4.2-2.5-4.2c-1.2,0-3.9-2.6-5-3.1c-1.2-0.6-3.5,0.4-3.9,1.1
		c-0.4,0.7,0.4,3.9-1.3,3.5c-1.7-0.4-4.1,0-5.6,0.6c-1.5,0.6-2.9,0-4.4,0.4c-1.5,0.4-1.2,0.9-1.7,2c-0.6,1.1-3.9,0.9-5.4,0.9
		c-1.5,0-1.9,1.1-2.9,2c-1,0.9-2.3-0.2-3.3-0.7c-1-0.6-4.2,1.1-5.2,1.3c-1,0.2-3.5,0.9-4.2,2c-0.8,1.1-2.9,1.8-2.9,1.8
		s-2.7-0.4-3.9-0.2c-1.2,0.2-4.4,2-5.8,2.4c-1.3,0.4-7.5,0-8.9-0.4c-1.4-0.4-1.7-1.5-1.9-2.6c-0.2-1.1-4.3-2.8-5.4-3.1
		c-1.2-0.4-2.3-0.9-3.5-2c-1.2-1.1-2.7-1.1-4-1.3c-1.4-0.2-3.1-2.4-4.8-2.4c-1.7,0-2.5-2.9-3.9-3.5c-1.4-0.6-2.7,0.6-3.1,1.5
		c-0.4,0.9-1.9,1.1-2.9,1.5c-1,0.4-4.1-1.7-5-2c-1-0.4-2.5-1.7-4.8-1.7c-2.3,0-1.7,3.5-1.5,4.2c0.2,0.7-1.4,3.1-1.5,3.7
		c-0.2,0.6-1.7,3.5-1.7,4.4c0,0.9,0.8,1.5,1.5,1.7c0.8,0.2,0,5.5,0,5.5s1.2,2.8,1.2,5.2c0,2.4,1.2,3.7,2.1,4.6
		c1,0.9-0.4,1.3-1.2,1.3c-0.8,0,1.3,3,2.3,3.5c1,0.6,1.9,2.2,2.1,4.2c0.2,2,3.3,5.5,4.1,7c0.8,1.5,4.8,7,5.2,7.9
		c0.4,0.9,2.1,3.3,2.1,3.3l-0.8,3.7l1.2,0.6c0,0,0.6-1.5,1.4-1.1c0.8,0.4,2.3,3.9,3.7,5.3c1.4,1.5-1.7,0.6-3.5-0.9
		c-1.7-1.5-2.5-2-2.7-1.3c-0.2,0.7,1.5,6.6,1.7,7.6c0.2,0.9,1.3,6.8,2.1,6.8c0.8,0,2.9,2.9,2.9,4.4s2.3,7.7,2.9,9.2
		c0.6,1.5,3.5,1.2,4.4,1.1c1-0.1,1.4,2.4,1.2,3.7c-0.2,1.3,1.2,3.1,2.1,3.9c1,0.7,2.1,1.5,3.3,2.2c1.2,0.7,2.3-1.3,3.1-0.9
		c0.8,0.4,0.8,2.4,0,2.4c-0.8,0,0.4,2.8,1.2,3.1c0.8,0.4-0.6,6.1,0.8,6.8c1.4,0.7,3.3-1.5,4.2-2.4c1-0.9,2.7,0,3.7-0.4
		c1-0.4,4.2,0,4.2,0s2.3-0.7,2.5-1.8c0.2-1.1,2.1-0.7,2.9-0.4c0.8,0.4,1,2,1.7,2s0.4,2.8,0.8,4.4c0.4,1.7,3.3,1.7,5.2,1.7
		c1.9,0,5.6,0.2,6.6-0.6c1-0.7,1.2-1.7,0.8-2.4c-0.4-0.7,1.5-3.5,2.3-4.2c0.8-0.7,1.2-2.2,1.2-4.1c0-1.8,1-3.1,2.3-3.3
		c1.3-0.2,1.2,0,1.2,1.8c0,1.8,0.8,2.6-0.4,5.2c-1.2,2.6,2.3,1.7,4.1,1.7c1.7,0,0.8-4.4,1.7-5.9c1-1.5,1-5.2,1-5.6s0.6-6.7,1.5-7.1
		c0.8-0.3,1.2-2.1,0.7-3.6c0.8-0.8,1.5-1.7,1.8-2.9c0.4,0.6,0.8,1.2,1.1,1.2c0.6-0.1,0.4,5.4,0.6,6.5c0.2,1.1,1.7,0.9,1.5,3.1
		c-0.2,2.2,1.2,2.2,2.7,2.6c1.5,0.4,4.6-0.6,6-0.6c1.3,0-0.8-4.1-0.4-4.8c0.4-0.7,0-4.2,0-5.5c0-1.3-1.5-2.4-2.5-3.9
		c-1-1.5-0.6-5.2-0.6-5.2s-0.2-2.6-0.2-3.5c0-0.9,1.2-1.5,1.9-2c0.8-0.6,0-2.4-0.8-3.3c-0.8-0.9,0.4-2.9,0.6-3.5
		c0.2-0.6,0-4.4,0-5.7c0-1.3,2.9-1.8,4.4-0.4s2.7,3.3,3.7,3.5c1,0.2-0.2-2.9-0.2-3.7c0-0.7,1.9-2,2.9-2.2c1-0.2-1.2-2.4-1.6-3.3
		C587.1,1091.3,588.1,1089.7,588.7,1088.7z"/>
</g>
<g>
	<defs>
		<path id="SVGID_27_" d="M478.6,1028.6c-0.8,0.4-1,1.7-0.8,2.5c0.2,0.8-0.4,3.6,0.8,2.9c0,0,0.8-2.2,1.4-3.1
			c0.6-0.9,0.6-2.6,0.6-2.6S479.4,1028.2,478.6,1028.6"/>
	</defs>
	<clipPath id="SVGID_28_">
		<use xlink:href="#SVGID_27_"  style="overflow:visible;"/>
	</clipPath>
	<rect x="477.5" y="1028.3" class="st11" width="3.1" height="6.5"/>
</g>
<g>
	<path class="st1" d="M478.6,1034c0,0,0.8-2.2,1.4-3.1c0.6-0.9,0.6-2.6,0.6-2.6s-1.2,0-1.9,0.4c-0.8,0.4-1,1.7-0.8,2.5
		C478,1031.9,477.5,1034.7,478.6,1034z"/>
</g>
<g>
	<defs>
		<path id="SVGID_29_" d="M580.6,1116.2c0.4,0.7,0.2,3.4,1,3.1c0,0,1.9-0.4,1.9-1.5c0-1.1,0.4-2.4,0-3.3c-0.4-0.9-1.9-1.5-1.9-1.5
			S580.2,1115.5,580.6,1116.2"/>
	</defs>
	<clipPath id="SVGID_30_">
		<use xlink:href="#SVGID_29_"  style="overflow:visible;"/>
	</clipPath>
	<rect x="580.2" y="1113.1" class="st12" width="3.7" height="6.5"/>
</g>
<g>
	<path class="st1" d="M581.5,1113.1c0,0-1.3,2.4-1,3.1c0.4,0.7,0.2,3.4,1,3.1c0,0,1.9-0.4,1.9-1.5c0-1.1,0.4-2.4,0-3.3
		C583.1,1113.6,581.5,1113.1,581.5,1113.1z"/>
</g>
<g>
	<defs>
		<path id="SVGID_31_" d="M450.9,997.7c-0.7,1.8-2.5,3.5-1.7,5.8c0.7,2.2,1,6,0.7,8c-0.3,2-0.7,3.7,1,3.7h1.7c0.8,0,2-3,2.8-3
			c0.8,0,2.5,2.3,3.5-1.2c1-3.5,0.7-5,0-6.2c-0.8-1.3-1.8-5.3-3.7-7c-0.9-0.9-1.8-1.3-2.6-1.3C451.9,996.4,451.3,996.8,450.9,997.7"
			/>
	</defs>
	<clipPath id="SVGID_32_">
		<use xlink:href="#SVGID_31_"  style="overflow:visible;"/>
	</clipPath>
	<rect x="448.4" y="995.9" class="st13" width="11.5" height="19.3"/>
</g>
<g>
	<path class="st1" d="M455.2,997.7c-1.8-1.7-3.6-1.8-4.3,0c-0.7,1.8-2.5,3.5-1.7,5.8c0.7,2.2,1,6,0.7,8c-0.3,2-0.7,3.8,1,3.8h1.8
		c0.7,0,2-3,2.7-3c0.8,0,2.5,2.3,3.5-1.2c1-3.5,0.7-5,0-6.2C458.2,1003.4,457.1,999.4,455.2,997.7z"/>
</g>
<g>
	<defs>
		<path id="SVGID_33_" d="M567.4,1001.6c-0.7,0.7-2.6,0.9-2.2,1.5c0.3,0.6-0.2,0.7-0.9,1.6c-0.7,0.9-2.5,1.9-1.9,2.6
			c0.6,0.7,1.1,2.1,2.3,1.6c1.2-0.5,2.1,0.6,1.7,1.6c-0.4,1-1.6,2.2-0.9,2.3c0.7,0.1,2,0.2,2.6,0.3c0.7,0.2-0.2,2.4,1.1,2.4
			s0.2,1.5,1,1.9c0.8,0.4,0.3,2,0.2,2.4c-0.1,0.4,0.2,2.3,1.2,2.1c1.5-0.4,3.7-2.6,3.7-2.6s-1.1-0.2,0.2,0c1.3,0.2,2.6,2.3,2.5-0.1
			c-0.1-2.4-0.1-4.1-0.8-3.5c-0.7,0.6-1.5-0.1-0.5-0.7s1.5-2.7,0.8-3.9c-0.7-1.2-2.2-0.6-3-1.5c-0.8-0.9-5.2-5.8-5.7-6.7
			c-0.4-0.7-0.6-1.4-1-1.4C567.8,1001.4,567.6,1001.4,567.4,1001.6"/>
	</defs>
	<clipPath id="SVGID_34_">
		<use xlink:href="#SVGID_33_"  style="overflow:visible;"/>
	</clipPath>
	<rect x="561.8" y="1000.9" class="st14" width="16.4" height="21.1"/>
</g>
<g>
	<path class="st1" d="M564.3,1004.6c-0.7,0.9-2.5,1.9-1.9,2.6c0.6,0.7,1.1,2.1,2.3,1.6c1.2-0.5,2.1,0.6,1.6,1.6
		c-0.4,1-1.6,2.2-0.9,2.3c0.7,0.1,2,0.2,2.6,0.3c0.7,0.2-0.2,2.4,1.1,2.4s0.2,1.5,1,1.9c0.8,0.4,0.3,2,0.2,2.4
		c-0.1,0.4,0.2,2.3,1.2,2.1c1.5-0.4,3.7-2.6,3.7-2.6s-1.1-0.2,0.3,0c1.3,0.3,2.6,2.3,2.5-0.1c-0.1-2.4-0.1-4.1-0.8-3.5
		c-0.7,0.6-1.5-0.1-0.5-0.7c1.1-0.7,1.5-2.7,0.8-3.9c-0.7-1.2-2.2-0.6-3-1.5c-0.8-0.9-5.2-5.8-5.7-6.7c-0.5-0.9-0.7-1.8-1.4-1.2
		c-0.7,0.7-2.6,0.9-2.2,1.5C565.6,1003.6,565.1,1003.7,564.3,1004.6z"/>
</g>
<g>
	<defs>
		<path id="SVGID_35_" d="M578.1,1023c-0.7,0.7-2.4,0.7-2.6,1.1c-0.2,0.4-1.2,0.4-2.2,0.4c-1,0-3,0.6-3.5,1.1
			c-0.5,0.5-1.4,1.5,0,2.1c1,0.5,2.1,1.1,2.6,0.6c0.5-0.5,1.4,0.6,2.1,0.6c0.7,0,1.7,0.9,2.2,0c0.5-0.9,0.8-0.9,1.3-0.7
			c0.5,0.2,0.7,1.9,1.4,2.2c0.7,0.3,2.1-1.3,2.6-1.8c0.6-0.5,0.7-2.4,0-2.7c-0.7-0.3-1.2-1.2-2-1.7c-0.6-0.4-1.1-1.3-1.6-1.3
			C578.4,1022.8,578.2,1022.8,578.1,1023"/>
	</defs>
	<clipPath id="SVGID_36_">
		<use xlink:href="#SVGID_35_"  style="overflow:visible;"/>
	</clipPath>
	<rect x="568.5" y="1022.3" class="st15" width="14.3" height="8.4"/>
</g>
<g>
	<path class="st1" d="M578.1,1028.1c0.5,0.2,0.7,1.9,1.4,2.2c0.7,0.3,2.1-1.3,2.6-1.8c0.6-0.5,0.7-2.4,0-2.7c-0.7-0.3-1.2-1.2-2-1.7
		c-0.7-0.6-1.4-1.8-2.1-1.1c-0.7,0.7-2.4,0.7-2.6,1.1c-0.2,0.4-1.2,0.4-2.2,0.4c-1,0-3,0.6-3.5,1.1c-0.5,0.5-1.4,1.5,0,2.1
		c1,0.5,2.1,1.1,2.6,0.6c0.5-0.5,1.4,0.6,2.1,0.6c0.7,0,1.7,0.9,2.2,0C577.2,1027.9,577.6,1027.9,578.1,1028.1z"/>
</g>
<g>
	<defs>
		<path id="SVGID_37_" d="M573,1030.7c-0.7,0.2-0.9,1.2-0.7,1.5c0.3,0.3,0.8,1.2,1.2,1.2c0.4,0,1.6-0.1,1.9-0.6
			c0.2-0.5,1.8-2.2,0.8-2.3c-0.2,0-0.4,0-0.6,0C574.7,1030.3,573.6,1030.5,573,1030.7"/>
	</defs>
	<clipPath id="SVGID_38_">
		<use xlink:href="#SVGID_37_"  style="overflow:visible;"/>
	</clipPath>
	<rect x="572.1" y="1030.3" class="st16" width="5.1" height="3.1"/>
</g>
<g>
	<path class="st1" d="M576.3,1030.4c-1-0.1-2.6,0.1-3.2,0.3c-0.7,0.2-0.9,1.2-0.7,1.5c0.3,0.3,0.8,1.2,1.2,1.2
		c0.4,0,1.6-0.1,1.9-0.6C575.7,1032.2,577.2,1030.5,576.3,1030.4z"/>
</g>
<g>
	<text transform="matrix(1 0 0 1 389.8227 683.2051)" class="st17 st18 st19">NEW SOUTH WALES</text>
</g>
<g>
	<text transform="matrix(1 0 0 1 389.8481 916.9727)" class="st17 st18 st19">VICTORIA</text>
</g>
<text transform="matrix(1 0 0 1 385.3383 469.791)"><tspan x="0" y="0" class="st17 st18 st19">Q</tspan><tspan x="19.2" y="0" class="st17 st18 st19">U</tspan><tspan x="37.6" y="0" class="st17 st18 st19">EENSL</tspan><tspan x="118.9" y="0" class="st17 st18 st19">A</tspan><tspan x="135.9" y="0" class="st17 st18 st19">N</tspan><tspan x="154.2" y="0" class="st17 st18 st19">D</tspan></text>
<g>
	<path class="st17" d="M635.5,807.9c3.8,0,6.8-3.1,6.8-6.8c0-3.8-3.1-6.8-6.8-6.8c-3.8,0-6.8,3.1-6.8,6.8
		C628.6,804.9,631.7,807.9,635.5,807.9"/>
	<circle class="st20" cx="635.5" cy="801.1" r="6.8"/>
	<path class="st17" d="M619.6,797.8c3.8,0,6.8-3.1,6.8-6.8c0-3.8-3.1-6.8-6.8-6.8c-3.8,0-6.8,3.1-6.8,6.8
		C612.7,794.8,615.8,797.8,619.6,797.8"/>
	<circle class="st20" cx="619.6" cy="791" r="6.8"/>
	<path class="st17" d="M635,791c3.8,0,6.8-3.1,6.8-6.8c0-3.8-3.1-6.8-6.8-6.8s-6.8,3.1-6.8,6.8C628.1,787.9,631.2,791,635,791"/>
	<circle class="st20" cx="635" cy="784.2" r="6.8"/>
	<path class="st17" d="M613,814.6c3.8,0,6.8-3.1,6.8-6.8c0-3.8-3.1-6.8-6.8-6.8c-3.8,0-6.8,3.1-6.8,6.8
		C606.2,811.6,609.3,814.6,613,814.6"/>
	<circle class="st20" cx="613" cy="807.8" r="6.8"/>
	<path class="st17" d="M591.8,783.5c3.8,0,6.8-3.1,6.8-6.8c0-3.8-3.1-6.8-6.8-6.8c-3.8,0-6.8,3.1-6.8,6.8
		C585,780.4,588.1,783.5,591.8,783.5"/>
	<circle class="st20" cx="591.8" cy="776.6" r="6.8"/>
	<path class="st17" d="M610.3,780.9c3.8,0,6.8-3.1,6.8-6.8c0-3.8-3.1-6.8-6.8-6.8c-3.8,0-6.8,3.1-6.8,6.8
		C603.5,777.8,606.6,780.9,610.3,780.9"/>
	<circle class="st20" cx="610.3" cy="774.1" r="6.8"/>
	<path class="st17" d="M601.8,799.5c3.8,0,6.8-3.1,6.8-6.8s-3.1-6.8-6.8-6.8c-3.8,0-6.8,3.1-6.8,6.8S598,799.5,601.8,799.5"/>
	<circle class="st20" cx="601.8" cy="792.7" r="6.8"/>
	<path class="st17" d="M627.3,823.5c3.8,0,6.8-3.1,6.8-6.8c0-3.8-3.1-6.8-6.8-6.8c-3.8,0-6.8,3.1-6.8,6.8
		C620.4,820.4,623.5,823.5,627.3,823.5"/>
	<circle class="st20" cx="627.3" cy="816.7" r="6.8"/>
	<path class="st17" d="M647.9,775.5c3.8,0,6.8-3.1,6.8-6.8c0-3.8-3.1-6.8-6.8-6.8c-3.8,0-6.8,3.1-6.8,6.8
		C641.1,772.4,644.1,775.5,647.9,775.5"/>
	<circle class="st20" cx="647.9" cy="768.6" r="6.8"/>
	<path class="st17" d="M666.2,747.7c3.8,0,6.8-3.1,6.8-6.8c0-3.8-3.1-6.8-6.8-6.8c-3.8,0-6.8,3.1-6.8,6.8
		C659.4,744.7,662.4,747.7,666.2,747.7"/>
	<circle class="st20" cx="666.2" cy="740.9" r="6.8"/>
	<path class="st17" d="M525.4,776c3.8,0,6.8-3.1,6.8-6.8c0-3.8-3.1-6.8-6.8-6.8c-3.8,0-6.8,3.1-6.8,6.8
		C518.5,772.9,521.6,776,525.4,776"/>
	<path class="st20" d="M525.4,776c3.8,0,6.8-3.1,6.8-6.8c0-3.8-3.1-6.8-6.8-6.8c-3.8,0-6.8,3.1-6.8,6.8
		C518.5,772.9,521.6,776,525.4,776z"/>
	<path class="st17" d="M531.7,809.5c3.8,0,6.8-3.1,6.8-6.8s-3.1-6.8-6.8-6.8c-3.8,0-6.8,3.1-6.8,6.8S527.9,809.5,531.7,809.5"/>
	<circle class="st20" cx="531.7" cy="802.6" r="6.8"/>
	<path class="st17" d="M583.7,801.3c3.8,0,6.8-3.1,6.8-6.8c0-3.8-3.1-6.8-6.8-6.8c-3.8,0-6.8,3.1-6.8,6.8
		C576.9,798.2,579.9,801.3,583.7,801.3"/>
	<circle class="st20" cx="583.7" cy="794.5" r="6.8"/>
	<path class="st17" d="M691.8,706.8c3.8,0,6.8-3.1,6.8-6.8s-3.1-6.8-6.8-6.8c-3.8,0-6.8,3.1-6.8,6.8S688.1,706.8,691.8,706.8"/>
	<circle class="st20" cx="691.8" cy="699.9" r="6.8"/>
</g>
<g>
	<path class="st17" d="M600.7,846.9c3.8,0,6.8-3.1,6.8-6.8c0-3.8-3.1-6.8-6.8-6.8c-3.8,0-6.8,3.1-6.8,6.8
		C593.8,843.8,596.9,846.9,600.7,846.9"/>
	<circle class="st20" cx="600.7" cy="840" r="6.8"/>
	<path class="st17" d="M584.1,849.1c3.8,0,6.8-3.1,6.8-6.8c0-3.8-3.1-6.8-6.8-6.8c-3.8,0-6.8,3.1-6.8,6.8
		C577.3,846,580.3,849.1,584.1,849.1"/>
	<circle class="st20" cx="584.1" cy="842.3" r="6.8"/>
	<path class="st17" d="M594.3,862.4c3.8,0,6.8-3.1,6.8-6.8c0-3.8-3.1-6.8-6.8-6.8c-3.8,0-6.8,3.1-6.8,6.8
		C587.5,859.4,590.6,862.4,594.3,862.4"/>
	<circle class="st20" cx="594.3" cy="855.6" r="6.8"/>
	<path class="st17" d="M698,579c3.8,0,6.8-3.1,6.8-6.8c0-3.8-3.1-6.8-6.8-6.8c-3.8,0-6.8,3.1-6.8,6.8C691.2,575.9,694.2,579,698,579
		"/>
	<circle class="st20" cx="698" cy="572.1" r="6.8"/>
	<path class="st17" d="M703.3,596.9c3.8,0,6.8-3.1,6.8-6.8c0-3.8-3.1-6.8-6.8-6.8c-3.8,0-6.8,3.1-6.8,6.8
		C696.5,593.9,699.5,596.9,703.3,596.9"/>
	<circle class="st20" cx="703.3" cy="590.1" r="6.8"/>
	<path class="st17" d="M656.3,479.5c3.8,0,6.8-3.1,6.8-6.8s-3.1-6.8-6.8-6.8c-3.8,0-6.8,3.1-6.8,6.8S652.5,479.5,656.3,479.5"/>
	<circle class="st20" cx="656.3" cy="472.7" r="6.8"/>
</g>
<g>
	<path class="st1" d="M590.7,1091.4c0.1-0.2,0.3-0.6,0.6-1.1c1.2-2,1.3-5-0.6-6.6c-0.2-0.2-0.4-0.7-0.4-0.9c0-0.4,0.3-1.5,0.4-1.9
		c0.4-1.7,0.6-2.9,0.6-3.8c0-1.6-0.7-3.1-2.1-4.7c0.3-0.4,0.5-1,0.7-1.5c0.3-0.9,0.3-2-0.2-2.8c-0.7-1.4-2.1-1.9-3-2.2l0-0.1
		c-0.6-1.3-0.8-1.8-0.8-1.9c0-0.3,0.2-1.1,1-4l0-0.1c0.7-2.2-0.1-4.3-0.9-5.9c0.2-0.3,0.5-0.8,1.2-1.8c0.2-0.3,0.4-0.5,0.5-0.7
		c0.9-1.3,0.7-2.8,0.4-4.9c-0.1-0.5-0.2-1.4-0.2-1.9c0.5-1.3,0.3-3-0.7-4.8c-0.7-1.2-2.1-3.2-4.2-3.5c-0.4-0.2-1.4-1-1.8-1.3
		c-0.9-0.7-1.6-1.2-2.3-1.6c-0.1,0-0.1-0.1-0.2-0.1c0-0.1,0.1-0.1,0.1-0.2c0.3,0.1,0.6,0.1,0.9,0.1c1.8,0,3.2-1.3,4.1-2.3l0.1-0.1
		c0.1-0.1,0.2-0.2,0.2-0.2c1.4-1.2,1.7-3.2,1.5-4.6c-0.3-2-1.4-2.9-2-3.2c-0.1-0.1-0.3-0.3-0.4-0.4c-0.3-0.3-0.7-0.7-1.1-1
		c-0.1-0.1-0.2-0.2-0.3-0.3c-0.2-0.2-0.4-0.5-0.8-0.8c0.2-0.6,0.2-1.3,0.2-1.7l0-0.5c0-1.4-0.1-2.8-0.5-3.9c0.6-1.7,0.5-3.7-0.4-5.1
		c-1.1-1.8-2.8-2.2-3.7-2.4c0,0,0,0,0,0c-2.1-2.3-4.6-5.1-5-5.8c-0.1-0.1-0.1-0.2-0.2-0.3c-0.3-0.7-1.2-2.6-3.5-2.6
		c-0.9,0-1.7,0.3-2.4,0.9c-0.1,0.1-0.4,0.2-0.5,0.2c-0.8,0.3-2.2,0.9-2.7,2.5c-0.1,0.2-0.1,0.4-0.1,0.6c-0.1,0.1-0.1,0.2-0.2,0.3
		c-0.1,0.1-0.4,0.4-0.6,0.5c-3.2,2.8-2.2,5-1.3,6c0,0,0.1,0.2,0.2,0.3c0.3,0.5,1,1.5,2.1,2.1c-0.2,0.8-0.2,1.6,0.2,2.4
		c0.5,1,1.4,1.7,2.6,1.8c0.1,0,0.3,0,0.5,0.1c0.3,1,0.9,1.6,1.3,2c0.1,0.4,0.3,0.8,0.5,1.1c0,0.1,0,0.2,0,0.2
		c-0.2,0.9,0,2.6,0.8,3.9c-0.2,0.1-0.3,0.3-0.5,0.4c-1.3,1.3-1.8,2.7-1.6,4.1c0.1,0.8,0.6,2.2,2.5,3c0.1,0.1,0.6,0.3,0.8,0.4
		c-0.3,1.1,0,2.3,0.6,3.2l0.1,0.1c0.3,0.4,0.7,0.9,1.2,1.4c-0.1,0.2-0.3,0.4-0.4,0.5c-0.3,0.6-0.4,1.1-0.4,1.7
		c-1.6,0-3.4,0.4-4.8,0.9c-0.1,0-0.3,0.1-0.7,0.1c-0.2,0-0.4,0-0.6,0c-0.3,0-0.5,0-0.8,0c-0.5,0-1.2,0-2.1,0.2
		c-2.2,0.5-3,1.7-3.5,2.8c-0.3,0-0.8,0.1-1.5,0.1c-0.2,0-0.5,0-0.7,0h-0.2c-0.2,0-0.4,0-0.6,0c-2.2,0-3.4,1.1-4.2,2
		c-0.2-0.1-0.3-0.2-0.4-0.3c-0.6-0.3-1.3-0.5-2.1-0.5c-1.3,0-2.7,0.5-4.4,1.1c-0.3,0.1-0.8,0.3-0.9,0.3c-0.8,0.2-4.5,1-6.1,3.2
		c-0.1,0.1-0.4,0.3-0.8,0.5c-0.7-0.1-1.7-0.2-2.6-0.2c-0.5,0-1,0-1.3,0.1c-1,0.2-2.1,0.7-3.9,1.5c-0.7,0.3-1.8,0.8-2.1,1
		c-0.1,0-0.5,0.1-1.4,0.1c-2.1,0-4.6-0.2-5.6-0.4c0-0.1,0-0.1,0-0.2c-0.5-3-5.4-4.9-7.5-5.5c-1-0.3-1.6-0.7-2.3-1.3
		c-1.7-1.7-3.8-1.9-5.2-2c-0.1,0-0.2,0-0.4,0c-0.2-0.1-0.6-0.4-0.8-0.6c-1-0.7-2.3-1.7-4-1.9c-0.2-0.2-0.3-0.5-0.5-0.6
		c-0.7-0.9-1.5-2.1-2.9-2.7c-0.6-0.2-1.3-0.4-1.9-0.4c-2.2,0-3.9,1.4-4.8,2.8c-0.2,0.1-0.3,0.1-0.5,0.1c-0.1,0-0.2,0.1-0.3,0.1
		c-0.6-0.2-1.5-0.7-1.9-1c-0.7-0.4-1.2-0.6-1.7-0.8c-0.1,0-0.4-0.2-0.5-0.3c-0.6-0.3-1.4-0.8-2.5-1.1c0.3-0.9,0.8-2,1-2.4
		c1-1.5,1-3.6,1-4.2c0-1.7-1.4-3.1-3.1-3.1c-0.4,0-2,0.1-3.3,0.7c-2.2,1.1-2.9,3.7-2.5,5.8c0,0.1,0,0.4,0,0.5c0,1.1-0.1,2.4,0.6,3.4
		c-0.2,0.2-0.4,0.4-0.5,0.6c-1.4,1.8-1.2,4.3-1,5.6c-0.2,0.4-0.5,1-0.7,1.3c-0.3,0.6-0.5,0.9-0.6,1.3c0,0.1-0.2,0.4-0.3,0.7
		c-1.1,2.3-1.6,3.7-1.6,4.8c0,1.4,0.7,2.8,1.9,3.7c0,0.9-0.2,2-0.3,3c-0.1,0.5,0,1.1,0.2,1.6c0.2,0.6,0.9,2.5,0.9,4
		c0,1.7,0.4,3.2,1.2,4.5c-0.1,0.2-0.2,0.4-0.3,0.7c-0.7,2.7,2.7,6.1,3.8,6.8c0.1,0.2,0.6,0.8,0.7,1.9c0.2,2,1.6,4.1,3.3,6.6
		c0.4,0.6,0.9,1.3,1.1,1.6c0.4,0.8,1.4,2.2,2.9,4.5c0.7,1.1,2,2.9,2.2,3.3c0.3,0.6,0.8,1.5,1.6,2.7l-0.5,2.4
		c-0.1,0.7-0.1,1.3,0.2,1.9c-0.1,0.2-0.1,0.3-0.2,0.5c-0.3,1.1-0.2,2,1.3,7.5c0.1,0.5,0.3,1.3,0.4,1.4l0.1,0.2c1,5.1,1.8,8,3.9,8.8
		c0.4,0.5,0.9,1.4,1,1.7c0.1,2.3,2.6,8.9,3.1,10.2c0.5,1.4,1.9,3,5.4,3.1c0,0,0,0,0,0.1c-0.4,2.8,1.7,5.6,3.3,6.8
		c1,0.8,2.2,1.5,3.5,2.4c0.5,0.3,1,0.5,1.6,0.6c0.3,1,0.8,2.1,1.5,2.9c0,0.3,0,0.7,0,1c-0.1,2.7-0.3,5.7,2.2,7.1
		c0.6,0.3,1.3,0.5,2.1,0.5c2.3,0,4.1-1.7,5.3-2.9c0.1,0,0.1,0,0.2,0c0.3,0,0.8,0.1,1.2,0.1c0.6,0,1.1-0.1,1.5-0.2c0.1,0,0.3,0,0.6,0
		c1,0,2.2,0.1,2.4,0.1c0.1,0,0.2,0,0.3,0c0.3,0,0.6,0,0.9-0.1c0.8-0.3,2.1-0.8,3.1-1.7c0.2,0.2,0.3,0.4,0.5,0.6c0,0.1,0,0.2,0,0.3
		c0,0.9,0.1,1.9,0.3,2.8c0.9,4,5.9,4,8.2,4c0.3,0,0.6,0,1,0c0.4,0,0.9,0,1.4,0c3.3,0,4.9-0.3,6.1-1.2c1.7-1.3,2.5-3.2,2.1-5
		c0.2-0.4,0.5-0.9,0.8-1.2c0.8,1.2,2.2,1.7,4,1.7c0.6,0,1.2-0.1,1.7-0.1c0.4,0,0.7-0.1,0.9-0.1c3.9,0,4.2-4.3,4.3-6
		c0-0.3,0.1-1.2,0.1-1.5c1.1-1.9,1.4-4.9,1.4-7.1c0-0.6,0.2-2.2,0.4-3.6c0.2,0.3,0.5,0.6,0.7,0.8c-0.3,4.5,3.4,5.3,4.6,5.5
		c0.1,0,0.3,0.1,0.4,0.1c0.5,0.1,1,0.2,1.6,0.2c1.2,0,2.4-0.2,3.5-0.4c0.5-0.1,1.3-0.2,1.6-0.2c1.1,0,2.2-0.5,2.8-1.4
		c1.2-1.7,0.6-3.6,0.1-5.4c-0.1-0.2-0.1-0.5-0.2-0.7c0.2-1.1,0.2-2.5,0-4.5c0-0.6-0.1-1.1-0.1-1.4c0-1.2-0.4-2.2-1-3
		c0.1,0,0.2,0,0.3-0.1c2-0.4,4.3-1.8,4.3-4.5c0-0.2,0-0.5,0.1-0.8c0.1-1,0.3-2.3-0.3-3.7c-0.9-2-3.1-2.9-3.7-3.2
		c-0.2-0.1-0.5-0.1-0.7-0.2c0-1.5-0.7-2.9-1.2-3.6c0.1-0.3,0.2-0.5,0.3-0.7c0.1-0.3,0.2-0.5,0.3-0.7c0.2-0.7,0.3-1.4,0.2-4
		c0.2,0.2,0.3,0.4,0.5,0.6c1.1,1.3,2.2,2.5,3.9,2.9c0.2,0,0.4,0.1,0.6,0.1c1,0,2-0.5,2.6-1.3c1.1-1.4,0.8-3,0.4-4.6
		c0.1-0.1,0.2-0.1,0.2-0.1c1.2-0.2,2.1-1,2.5-2.1c0.8-1.9-0.4-3.6-1.4-4.9C590.8,1091.6,590.7,1091.5,590.7,1091.4z"/>
	<path class="st1" d="M460.2,1001.9c-0.8-2-1.8-4.4-3.4-5.9c-1.3-1.3-2.8-1.9-4.2-1.9c-1.7,0-3.1,1-3.9,2.7
		c-0.1,0.3-0.4,0.7-0.6,1.2c-0.8,1.4-2.1,3.6-1.2,6.2c0.6,1.9,0.9,5.3,0.7,7c0,0.2-0.1,0.5-0.1,0.7c-0.2,1.5-0.5,3.2,0.7,4.5
		c0.4,0.5,1.3,1.1,2.7,1.1h1.8c1.6,0,2.5-1.3,3.3-2.5c0,0,0,0,0,0c0.4,0.1,0.8,0.3,1.4,0.3c1.3,0,2.9-0.6,3.8-3.6
		c1.1-3.7,1-6-0.2-8.1C460.7,1003.2,460.5,1002.6,460.2,1001.9z"/>
	<path class="st1" d="M245.3,149.4c0.1-1.1,0.4-2.1,0.6-2.8c0.2-0.7,0.1-1.4-0.3-2c-0.4-0.6-1.1-1-1.8-1c0,0-0.2,0-0.5,0
		c-3.8,0-6.4,1.3-7.2,3.6c-0.2,0.7-0.8,1.4-1.4,2.2c-0.9,1.2-2,2.5-2.1,4.3c-0.2,2,0,7,0,8.1c-0.1,1-0.2,3.4,1.2,5
		c0.7,0.8,1.8,1.3,2.9,1.3c0.8,0,1.9-0.1,3.1-0.3c1.4-0.2,2.9-0.3,4.2-0.3c0.9,0,1.3,0.1,1.4,0.1c1,0.8,2.5,1.3,4.2,1.3
		c3.4,0,4.9-1.8,4.9-3.6c0-0.2,0-0.5,0.1-0.8c0.2-1,0.4-2.4-0.7-3.6c-0.7-0.8-1.7-1.2-3-1.2c-1.4,0-2.8-0.2-3.8-0.4
		c0.5-0.8,1.2-1.7,1.5-1.9c1.6-0.6,5.3-4,5.4-6.6c0-1.2-0.6-2.3-1.6-2.8c-0.7-0.3-1.4-0.5-2.2-0.5
		C248.1,147.4,246.2,148.7,245.3,149.4z"/>
	<path class="st1" d="M322.2,241.8c-2,0-3.1,1.6-3.8,2.5c-0.2,0.3-0.4,0.6-0.6,0.8c-1.1,1.1-1.1,2.3-1,2.9c0.3,1.6,1.7,2.4,2.1,2.6
		c0.1,0.1,0.2,0.1,0.3,0.1c0.3,0.1,2.6,0.8,4.3,0.8c0.7,0,1.4-0.1,1.9-0.4c1.1-0.5,1.7-1.5,1.7-2.6c0-2-1.3-6.1-4.3-6.7
		C322.7,241.8,322.4,241.8,322.2,241.8z"/>
	<path class="st1" d="M316,240.2c1.3,0,2.4-0.6,3.2-1.6c0.2-0.3,0.4-0.5,0.6-0.8c1.4-1.8,2.6-3.4,2.6-5c0.1,0,0.1,0,0.2,0
		c1.8,0,5.3-0.7,6.1-3.2c0.2-0.5,0.5-2.4-1.7-3.9c-1.2-0.8-2.3-1.1-3.5-1.1c-0.9,0-1.7,0.2-2.5,0.4c-0.5,0.1-1,0.3-1.5,0.3
		c-2.5,0.3-5.5,0.6-7.4,3.6c-2.3,3.8-2.6,7-0.7,8.8c0.2,0.2,0.5,0.5,1,0.9c0.4,0.2,0.7,0.4,0.9,0.6C314.1,239.8,315,240.2,316,240.2
		z"/>
	<path class="st1" d="M279,849.5c-1.5-1-1.8-2.6-2.1-3.9c-0.2-1.1-0.8-3.5-3.1-3.5c-2.2,0-2.9,2-3.2,2.8c-0.1,0.2-0.1,0.4-0.2,0.5
		c-0.3,0-0.6,0-0.9,0c-0.8,0-1.9,0-3.1,0c-8,0-10.2,0.5-11.3,1c-2.2,1-7.9,2.7-9.7,2.9c-0.4,0-0.9,0.1-1.4,0.1
		c-2.3,0.1-4.6,0.3-5.5,2.2c-0.2,0.5-0.6,1.7,0.4,3.2c0.2,0.4-0.1,1.9-0.3,2.6c-0.3,1.1-0.5,2.2-0.3,3.2c0.4,2.6,3.1,4.4,5.3,4.4
		c0.4,0,0.9-0.1,1.3-0.2c0.5-0.1,3.7-1.2,5.5-2.3c1.1-0.5,6.1-0.9,8.2-0.9c0.4,0,1.5,0.3,2.4,0.5c2.8,0.7,5,1.2,6.5,1.2
		c0.4,0,0.7,0,1.1-0.1c0.3-0.1,0.8-0.1,1.3-0.2c1.8-0.2,4.3-0.4,5.8-2.3c0.5-0.6,2-1,3.7-1c1.4,0,2.7-1,3.2-2.5
		C283.1,855,282.3,851.9,279,849.5z"/>
	<g>
		<g>
			<path class="st1" d="M-303.5,828c2.2,0,3.9,1.1,4.3,1.5l1.1,0.8l0.2,1.4c0.7,1,7,1,10.4,1c2.2,0,3.4-0.8,3.9-1.4
				c0.5-0.6,0.8-1.5,0.9-2.4l0-1.8l1.5-1c0.6-0.4,1.5-0.9,2.1-1.3c1.5-0.9,3.2-1.9,3.6-2.7c1-2.7,4.6-3.1,6.6-3.1
				c1,0,1.2-0.3,1.2-0.4c0.1-0.1,0.3-0.3,0.1-1.3l-0.3-1.7l1.2-1.3c0.4-0.4,1-1,1.4-1.4c1.1-1,1.8-1.8,2.1-2.3l0.6-1l1.1-0.5
				c0.7-0.3,1.8-0.7,2.8-0.8l1.2-0.2l1,0.6c0.2,0.1,0.5,0.3,0.7,0.4c1.2,0.7,2.9,1.7,3.9,1.7c0.3,0,0.4-0.1,0.5-0.2
				c0.4-0.4,1-0.9,2.6-2c2.1-1.5,5.3-3.9,6.1-5.4c0.8-1.4-0.2-3.3-1.1-4.6l-2.5-3.6l4.1-1.7c1.2-0.5,2.6-1,3.4-1.3l0.2-0.1
				c1.2-0.4,2.2-0.8,2.6-1l0.7-0.3c1-0.3,2.9-0.5,5.3-0.5c1.3,0,2.7,0.1,3.9,0.1h1.8l1,1.6c0.3,0.4,0.6,0.9,2.1,1.3
				c1.6,0.4,4.9-0.9,7.8-2.1c2.8-1.1,6-2.4,8.4-2.6c1.3-0.1,2.9-0.2,4.7-0.4c4.3-0.4,9.6-0.8,11.8-0.4h0.3l0.6,0.3
				c0.6,0.2,1.2,0.5,1.9,0.8l0.2,0.1c2.1,1,4.7,2.2,7.1,2.2c1.5,0,1.9-0.1,2-0.2l1.9-4.1l3.5,2.9c0.4,0.4,0.8,0.7,1.2,1.1
				c2.5,2.8,6.7,3.2,9,3.2c1.5,0,3.8-0.4,6-0.9c2.4-0.5,4.9-0.9,6.7-0.9c1.1,0,2,0.1,2.7,0.4l0-0.1l1.3,0.5c0.1,0.1,0.3,0.1,0.4,0.2
				l0.1,0c1,0.4,2.3,0.9,4.2,1.3c0.7,0.2,1.4,0.2,2.2,0.2c3.2,0,6.5-1.4,9-2.5c0.5-0.2,0.9-0.4,1.2-0.5c1.2-0.5,1.8-1.3,2.1-2.6
				c0.1-0.7,0.1-1.6-0.1-2.2l-0.7-2l1.5-1.6c0.5-0.6,1.7-1.6,3.3-2.2c1.5-0.5,4.7-5.7,7.2-13l0.3-0.7c1.1-1.8,6.8-6.9,10.7-6.9
				c2.2,0,5.6-2.5,8.4-6c0.2-0.2,4.6-5.6,9.6-5.6c2.5,0,3.5-0.9,4.5-1.8c0.8-0.8,1.8-1.6,3.7-1.9c1.8-0.2,2.1-1.1,2.5-2.2
				c0.3-0.9,0.8-2.2,2.5-2.9c0.6-0.2,1.3-0.5,2-0.8c4.2-1.7,11.1-4.6,16.7-4.6c6.1,0,13.5,0.8,15,1l0.7,0.2c5.2,1.8,9.9,3,11.7,3
				c2.8,0,9.2-4.2,11.3-6.6c2.5-2.8,6.5-5.8,9.6-5.8c3.2,0,9.1-1.7,11-2.2l0.2-0.1c0.6-0.2,1.9-0.8,3.3-1.4l0.1-0.1
				c0.4-0.2,0.8-0.4,1.3-0.6V698l0.1,0.2V204.6l-0.1,0.3l0-25c-0.3-0.1-0.6-0.2-0.9-0.2c-1.6,0-4.5,0.6-5.5,1.6l-8.6,8.4l2.8-11.7
				c0.3-1.3-0.2-2.2-1.1-3.4c-0.2-0.3-0.4-0.6-0.5-0.8c-0.8-1.3-3-3.5-4.7-4l-0.2-0.1c-0.6-0.2-1.1-0.5-1.5-1l-1.5-1.5l0.7-2
				c0.1-0.8-2-3.2-3-4.3l-0.1-0.1c-0.3-0.4-0.7-0.8-0.8-0.9c-0.2-0.3-0.8-0.6-1.4-0.8c-1.1-0.4-2.4-1-3.2-2.3
				c-0.4-0.7-1.3-0.9-3.6-0.9c-1.7,0-2.3-0.1-2.8-0.2l-0.9-0.2l-0.7-0.6c-1.8-1.7-6.4-5-9.4-5c-0.1,0-0.2,0-0.3,0
				c-1.7,0.1-2.9,1.2-3.8,2c-0.2,0.2-0.6,0.5-0.8,0.7l-0.6,0.5l-0.7,0.2c-0.1,0-0.3,0.1-0.6,1.4c-0.3,1.3-0.6,3-2.4,4.1l-2.1,1.3
				l-1.9-1.5c-0.2-0.2-0.6-0.5-0.7-0.6c-0.8-0.7-1.4-1.1-2.1-1.1c-0.7,0-1.4,0-2,4c-0.1,0.7-0.2,1.7-0.4,2.6c0,0.2-0.1,0.3-0.1,0.5
				l-1.6,13.5l-5.2-12.6c-0.6-1.5-1.2-2.1-1.6-2.4c-0.2-0.2-0.4-0.2-0.5-0.2c-0.3,0-0.7,0.4-0.9,0.8c-0.5,0.9-1.1,3.4-0.9,4.8
				l0.2,1.3l-0.7,1.1c-0.6,0.9-1.7,2.2-2.7,2.9l-0.8,0.5l-0.9,0.1c-0.7,0-1.7,0.4-2.7,0.9c-0.7,0.3-1.4,0.6-2.1,0.8l-3.4,1.1
				l-0.2,1.6c-0.3,1.9,0,4.3,0.3,5.8l1.5,5.5l-5.6-1.2c-0.3-0.1-0.6-0.1-0.9-0.1c-1.2,0-2,0.5-3.2,1.5c-0.7,0.6-1.5,1.2-2.5,1.7
				c-0.7,0.4-0.8,0.6-0.8,0.7c-0.1,0.3,0.2,0.8,1.1,1.8l0.1,0.1c0.2,0.2,0.5,0.6,0.7,0.9l5.1,6.4l-8.1-0.7c-1-0.1-1.9-0.1-2.2-0.1
				c-0.5,0-1,0.4-1.5,0.7l-1.8,1.2l-1.8-0.9c-0.7-0.3-1.6,0.6-2.4,1.6c-0.7,0.8-1.2,1.4-1.8,1.8c-0.9,0.6-1.1,3-0.9,4.8
				c0.2,2,0.9,3.4,1.9,3.8c1.2,0.5,1.8,1.2,2.3,1.7c0.2,0.2,0.4,0.4,0.6,0.6l2.9,2.4l-2.6,2.7c-0.4,0.5-0.9,1.3-1.4,2.1l-0.1,0.2
				c-0.7,1.1-1.1,1.7-1.5,2.1l-0.4,0.3c-0.1,0.1-0.3,0.2-0.4,1.3l-1,8.7l-5.3-7c-0.6-0.8-1.4-2.1-2.2-4c-0.6-1.4-1.6-1.4-1.9-1.4
				c-0.9,0-1.8,0.4-2.8,0.8l-3.3,1.3l-1.5-2.8c-0.2-0.4-0.5-1-0.6-1.3c-0.2-0.4-0.4-0.9-0.6-1.2c-0.9,0.1-3,3-4.2,5.9
				c-0.3,0.8-0.2,1.7,0.6,3.1l0.9,1.8l-1,1.7c0,0.1-0.1,0.1-0.1,0.2c-0.2,0.6,0,2.4,1.7,5.4c1.1,1.8,2.2,3.8,3,5.4l3,6.5l-7-1.6
				c-0.1,0-0.2,0-0.3,0c-0.2,0-0.6,0-0.8,1.1c-0.1,0.6-0.2,1.4-0.2,2.4l-0.1,12.9l-6.7-11.5c-0.5-0.8-1.1-1.5-1.7-2.2
				c-1.3-1.4-2.6-2.9-2.7-5.5c-0.3-3.6-1.3-6.9-1.8-8.1c-0.2-0.5-1.1-1.4-1.9-2.1c-0.2-0.2-0.5-0.5-0.8-0.8l-2.1-2.1l1.9-2.5
				c0.2-0.3,0.8-1.1,0.8-1.3c-0.1,0-0.2,0-0.3,0c-0.7,0-1.8,0.8-3.1,1.7l-1,0.7c-0.8,0.5-1.2,1.3-1.2,2.3c0,0.4,0.1,0.9,0.2,1.3
				l1.2,3.9l-4.1,0.6c-1.8,0.3-3,0.9-3.1,1.2l-0.9,2l-2.2,0.1c-0.9,0-1.6,0.7-2.8,2l-0.1,0.1c-0.3,0.3-0.7,0.7-1.1,1.1
				c-1.7,1.7-1.8,2.5-1.3,4.1l1.5,4.5l-4.7,0.2c-1.1,0-1.3,0.4-1.4,0.5c-1.4,1.9,0.3,5.8,1.3,7.3c1.1,1.6,2,4.9,2.3,6.2l0.4,2.2
				l-1.8,1.3c-0.3,0.2-0.7,0.5-0.9,0.6c-0.5,0.3-1,0.7-1.5,1c-0.1,0.1-0.6,0.5-0.3,1.4c0.3,1,1.3,2.1,2.3,2.4l13.6,4.5l-14.2,2.3
				c-0.3,0.1-0.6,0.1-1,0.1c-0.9,0-1.6,0.8-3.2,3.4c-1.1,1.8-2.4,3.9-4.3,5.3c-2.4,1.7-3.5,3.3-4.3,4.5c-0.6,0.8-1.1,1.5-1.8,2.2
				c-0.7,0.6-1.5,1-2.1,1.2c-0.9,0.4-1.5,0.6-1.9,1.7c-0.2,0.5-0.4,1-0.6,1.5c-0.7,1.9-1.6,4.2-2.2,6.4l-0.2,0.6
				c-0.5,1-1.3,1.8-4.6,3.8c-1.4,0.8-2.8,1.7-3.3,2.4c-1.4,2.2-4.3,4.5-5.6,5.1c-0.4,0.1-1.6,1-3,2c-5.3,3.7-10.9,7.4-14.6,8.4
				c-5.9,1.6-15.4,3.6-17.7,3.6c-5.3,0-7.1,0.9-7.5,1.2c-0.5,0.3-1.1,0.9-1.7,1.5c-1.6,1.5-2.9,2.6-4.4,3l-0.8,0.1
				c-1.1,0-2.2-0.5-3.7-1.2c-1.1-0.5-2.1-1-2.9-1c-1.3,0-4.4,2.6-7.4,6.7l-0.3,0.5l-0.4,0.3c-0.7,0.6-1.8,1.1-7.2,2.3
				c-1.3,0.3-2.5,0.5-3,0.7l-0.7,0.2c-1,0.2-3,0.1-4.8-0.1c-1.2-0.1-2.3-0.2-3.3-0.2c-0.6,0-1.1,0-1.4,0.1c-1.2,0.3-2.8,1.7-5.1,3.7
				c-1.7,1.5-3.8,3.3-6.4,5.3c-3.1,2.3-6,3.4-8.8,3.4c-1.9,0-3.6-0.5-5.1-1.6c-0.9-0.6-2.4-0.7-3.4-0.7c-0.8,0-1.6,0-2.4,0.1
				c-0.9,0-1.8,0.1-2.7,0.1c-2.8,0-4.6-0.5-5.9-1.6c-0.8-0.7-1.6-1-2.4-1c-2,0-4.1,1.9-6.5,4.1c-0.5,0.5-1.1,1-1.7,1.5
				c-1.2,1-2.2,1.8-3,2.2l-1.4,0.7l-1.4-0.5c-0.2-0.1-0.3-0.1-0.5-0.2c-0.1,0-0.2,0-0.2,0c-1.1,0-3,1.3-3.4,2.3l-0.3,0.5
				c-0.3,0.5-1,1.3-2.7,3.2c-1.5,1.6-3.2,3.5-4.3,5.2c-1.7,2.5-4,4.3-6.4,6.2c-1,0.8-2,1.6-3,2.4c-2,1.7-5.2,2.3-9.1,2.8
				c-2.6,0.4-5,0.7-6.4,1.6c-0.9,0.6-2,1.2-3.2,1.8l-0.1,0.1c-2.7,1.5-6.1,3.3-6.6,4.7c-0.4,1.1-1.5,2.8-3.9,6.3l-0.1,0.2
				c-1,1.5-2,3-2.5,3.9c-0.2,0.3-0.4,0.6-0.5,0.9l-2.5,3.7l-3-3.3c-0.3-0.3-0.6-0.5-0.9-0.7l-1.9-0.9l-0.1-2.1c0-0.6,0-1.3,0-1.8
				l0-0.1c0-0.4,0-0.7,0-0.9l0.1-0.6c0.1-0.6,0.4-1.4,0.9-2.9c0.5-1.3,1.2-3.3,1.1-3.9c-1.7,0.4-6.5,6.1-6.7,9.1
				c-0.3,3.7-2.3,8.7-4.9,10.1c-0.5,0.3-0.6,0.6-0.6,1.2c0.2,1.5,2.3,3.8,4.9,4.5c3.3,0.8,3.7,5.8,3.7,10v0.9l-0.2,0.6
				c-0.3,0.8-0.9,1.7-3,4c-0.7,0.8-1.6,1.8-1.7,2.2c-0.2,0.9,0.8,5.2,2.2,7.8l2.9,5.1l-5.8,0.2c-1.4,0-2.9,2.4-4.3,4.8
				c-0.6,0.9-1.3,2.1-2,3.1c-2.3,3.1-2.5,5.5-2,9.8c0.3,2.5,2.4,4.9,4.6,7.6c1.6,1.9,3.2,3.8,4.4,6c3.2,5.7,3.6,9,1.5,12.1
				c-1.1,1.7,5.2,7.8,9.3,11.8c2.9,2.8,5.7,5.5,6.9,7.3c3.3,4.8,2.5,9.4,0.9,11l-0.4,0.4c-0.6,0.4-1.1,1.6-1.7,2.9l-0.1,0.2
				l-3.8,8.3l-2.7-8.7c-0.4-1.4-0.6-2.6-0.6-3.1c-1-1-3.5-3.6-4.2-4.8l-0.2-0.4c-0.3-0.7-1.4-2.5-5.1-7.1c-0.5-0.7-1-0.8-1.4-0.8
				c-0.7,0-1.5,0.5-2.3,0.9c-1,0.6-2.2,1.2-3.4,1.3c-0.8,0.1-0.9,0.5-0.9,0.6c-0.3,1.2,1.2,3.7,1.9,4.3c1.2,0.9,6.8,6.2,7.8,8.3
				l0.2,0.5c0,0.1,0.1,0.2,0.1,0.2l0.8,1.7l-5.9,3.3l-1-1.6c-0.5-0.8-2.1-3.2-3.8-3.7c-0.8-0.3-1.5-0.5-2-0.7
				c-1.1-0.4-1.6-0.6-2.8-0.6c-0.5,0-1.1,0.1-1.5,0.4l-3.6,2l-1.3-3.9c-0.3-1-0.7-2-0.8-2.7c-0.1-0.2-0.2-0.8-0.4-1.5l-0.1-0.2
				c-1.5-6.5-2.7-9.8-3.6-9.8c-0.7,0.8,0.1,5.5,0.8,10c0.5,3.3,1.1,6.7,1.2,9.2c0.2,4.7,2.5,8.4,4.1,11.1c0.6,0.9,1,1.6,1.3,2.2
				c0.5,1.1,1.8,2,3.4,2.9c1.7,1.1,2.9,1.9,3.6,3c0.7,1.1,1.8,1.9,3.3,2.9c1.4,0.9,3,2.1,4.4,3.7c2.3,2.8,8.1,10.9,8.4,14.2
				c0.1,0.6,0.1,1.4,0.1,2.3c0.1,2.9,0.3,6.5,1.6,7.8c0.4,0.4,0.9,0.8,1.4,1.2l0.1,0.1c1,0.9,2.2,1.9,2.9,2.8l1.5,1.7l-1,2.1
				c-0.7,1.5-1,4.9-1,10.5l0,0.5c0,1.3,2.1,8.2,3,9.6c0.3,0.5,1.2,0.9,2,1.3c1.2,0.5,1.9,0.9,2.4,1.5l0.8,0.8l0.2,1.1
				c0.5,2.5,0.8,3.2,2.1,4l1.5,0.9l0.2,1.7c0.2,1.4,0,3.6-0.6,7.6c-0.1,0.8-0.2,1.5-0.3,2.1c-0.2,1.7,0.6,2.8,3.9,4.8
				c1.3,0.8,2.6,1.6,3.5,2.6c2.8,3.1,1.1,13.5-0.4,17.2c-0.6,1.6,0.1,2.9,1.4,4.7c1.2,1.7,2.5,3.6,1.4,5.9c-0.9,2-0.9,3.8,0,5.1
				c0.4,0.6,1,1.1,1.7,1.2l2.4,0.6l0.3,2.5c0,0.2,0,0.5,0.1,0.7c0.1,0.8,0.2,1.8,0.5,2.2c0.8,1,1.1,2.3,1.2,2.8l0.2,1.3l-0.7,1.1
				c-0.1,0.3,0.1,1.7,0.3,2.7c0.4,2.1,0.7,3.9,0.4,5.4c-0.1,0.8,0.1,1.7,0.8,2.5c1.1,1.3,2.9,2.2,3.9,2.2c0.1,0,0.2,0,0.4-0.1
				l3.3-1.1l1.1,3.3c1.2,3.6,1.3,5,1.1,6.1c-0.3,1.5,0.7,3.5,1.6,5.1l0.1,0.1c0.4,0.7,0.7,1.4,0.9,2c0.2,0.5,0.5,1.1,0.8,1.8
				c1.1,2.3,1.9,4.1,1.5,5.9c-0.3,1.5,0,5.1,0.8,8.9c0.4,1.4,0.7,3.2,0.7,4.4l0,1.8l-1.5,1.1c-1.2,0.9-1.4,4.9-1.5,7.5
				c0,0.9-0.1,1.6-0.1,2.1c0,0.4-0.2,1.2-0.3,2l-0.1,0.3c-0.5,2.7-1.2,6.9-0.4,8.1l0.7,1l-0.1,1.3c-0.1,1.4-0.8,3.6-1.6,6.1
				c-0.7,2.3-1.5,4.7-1.8,6.5c-0.8,5.3-6,11.5-9.2,13.5c-3.1,1.9-4.6,4.5-5.4,5.8l-0.2,0.3c-0.2,0.3,0,1.7,0.1,2.6
				c0.5,3.2,0.7,6-0.9,8c-0.4,0.5-0.3,0.8-0.2,1.1c0.6,1.4,4.6,3.4,10.5,4.4l0.5,0.1l0.4,0.2c1,0.5,2.7,1.6,9.6,9.1
				c1.3,1.4,2.6,2.8,3.2,3.3c0.8,0.7,1.3,1.5,1.9,2.4c1.2,1.8,2.4,3.7,5.2,5c2.2,1,4.1,1.2,5.8,1.4c1.7,0.2,3.3,0.3,4.6,1.3
				c0.8,0.6,1.3,1.2,1.8,1.8c0.9,1.1,1.6,2.1,4.5,2.1c0.4,0,0.9,0,1.4-0.1c2.3-0.2,5-0.2,7.4-0.2c4.4,0,9-0.1,11.1-1
				C-305.2,828.2-304.3,828-303.5,828z M-80.6,169.5c-0.2,0-0.4,0.1-0.6,0.2c-0.3,0.2-0.7,0.3-1,0.4c-1.4,0.6-1.3,0.8-1.1,1.4
				c0.5,1.3,1.2,2.4,1.6,2.4h2.3l0.5-2.6C-79.1,170.6-79.7,169.5-80.6,169.5z"/>
		</g>
	</g>
	<path class="st1" d="M312.4,238.7c0.3,0.2,0.6,0.4,0.9,0.6C313,239.2,312.7,238.9,312.4,238.7z"/>
</g>
</svg>
