<?xml version="1.0" encoding="utf-8"?>
<!-- Generator: Adobe Illustrator 19.1.0, SVG Export Plug-In . SVG Version: 6.00 Build 0)  -->
<!DOCTYPE svg PUBLIC "-//W3C//DTD SVG 1.1//EN" "http://www.w3.org/Graphics/SVG/1.1/DTD/svg11.dtd">
<svg version="1.1" id="Layer_1" xmlns="http://www.w3.org/2000/svg" xmlns:xlink="http://www.w3.org/1999/xlink" x="0px" y="0px"
	 viewBox="0 0 340.2 85" style="enable-background:new 0 0 340.2 85;" xml:space="preserve">
<style type="text/css">
	.st0{fill:#6D6E71;}
	.st1{fill:#6CB33F;}
</style>
<g>
	<g>
		<path class="st0" d="M150.4,65.3c1.3,0,2.3,0.3,3,1c0.7,0.6,1.1,1.5,1.1,2.6c0,0.8-0.2,1.5-0.6,2.2c-0.4,0.6-1,1-1.8,1.3v0
			c0.4,0.1,0.7,0.2,1,0.4c0.2,0.2,0.4,0.4,0.6,0.6c0.1,0.2,0.3,0.5,0.3,0.8c0.1,0.3,0.1,0.6,0.2,1c0,0.3,0,0.7,0.1,1
			c0,0.3,0,0.7,0.1,1c0,0.3,0.1,0.6,0.2,0.9c0.1,0.3,0.2,0.6,0.4,0.8h-2c-0.1-0.1-0.2-0.3-0.3-0.6c0-0.2-0.1-0.5-0.1-0.8
			c0-0.3,0-0.6,0-1c0-0.3-0.1-0.7-0.1-1c-0.1-0.3-0.1-0.6-0.2-0.9c-0.1-0.3-0.2-0.6-0.4-0.8c-0.2-0.2-0.4-0.4-0.6-0.5
			c-0.3-0.1-0.6-0.2-1.1-0.2h-4.4v5.8H144V65.3H150.4z M150.8,71.4c0.4-0.1,0.7-0.2,1-0.4c0.3-0.2,0.5-0.4,0.7-0.7
			c0.2-0.3,0.3-0.7,0.3-1.2c0-0.7-0.2-1.2-0.6-1.7c-0.4-0.4-1-0.6-1.8-0.6h-4.5v4.7h3.8C150,71.5,150.4,71.5,150.8,71.4z"/>
		<path class="st0" d="M164,78.2c-0.7,0.6-1.7,0.8-2.8,0.8c-0.8,0-1.5-0.1-2-0.4c-0.6-0.3-1.1-0.6-1.5-1.1c-0.4-0.5-0.7-1-0.9-1.6
			c-0.2-0.6-0.3-1.3-0.3-2.1c0-0.7,0.1-1.4,0.3-2.1c0.2-0.6,0.5-1.2,1-1.6c0.4-0.5,0.9-0.8,1.5-1.1c0.6-0.3,1.2-0.4,1.9-0.4
			c0.9,0,1.6,0.2,2.2,0.5c0.6,0.4,1,0.8,1.4,1.4c0.3,0.6,0.6,1.2,0.7,1.8c0.1,0.7,0.2,1.3,0.2,1.9h-7.4c0,0.4,0,0.8,0.2,1.2
			c0.1,0.4,0.3,0.7,0.6,1c0.3,0.3,0.6,0.5,1,0.7c0.4,0.2,0.9,0.3,1.4,0.3c0.7,0,1.2-0.2,1.7-0.5c0.4-0.3,0.7-0.8,0.9-1.4h1.6
			C165.2,76.8,164.8,77.7,164,78.2z M163.6,71.9c-0.1-0.3-0.3-0.6-0.6-0.9c-0.2-0.2-0.5-0.4-0.9-0.6c-0.3-0.1-0.7-0.2-1.1-0.2
			c-0.4,0-0.8,0.1-1.1,0.2c-0.3,0.1-0.6,0.3-0.9,0.6c-0.2,0.3-0.4,0.5-0.6,0.9c-0.1,0.3-0.2,0.7-0.2,1.1h5.6
			C163.9,72.6,163.8,72.2,163.6,71.9z"/>
		<path class="st0" d="M168.8,76.6c0.2,0.2,0.4,0.4,0.6,0.6c0.2,0.1,0.5,0.2,0.8,0.3c0.3,0.1,0.6,0.1,1,0.1c0.3,0,0.5,0,0.8-0.1
			c0.3,0,0.5-0.1,0.8-0.2c0.2-0.1,0.4-0.2,0.6-0.4c0.2-0.2,0.2-0.4,0.2-0.8c0-0.4-0.2-0.7-0.5-1c-0.3-0.2-0.7-0.4-1.2-0.5
			c-0.5-0.1-1-0.3-1.5-0.4c-0.6-0.1-1.1-0.3-1.5-0.5c-0.5-0.2-0.9-0.5-1.2-0.8c-0.3-0.4-0.5-0.8-0.5-1.5c0-0.5,0.1-0.9,0.3-1.3
			c0.2-0.4,0.5-0.6,0.9-0.9c0.3-0.2,0.7-0.4,1.2-0.5c0.4-0.1,0.9-0.2,1.3-0.2c0.6,0,1.1,0,1.5,0.1c0.5,0.1,0.9,0.3,1.2,0.5
			c0.4,0.2,0.6,0.6,0.9,0.9c0.2,0.4,0.3,0.9,0.4,1.5h-1.6c0-0.3-0.1-0.6-0.2-0.8c-0.1-0.2-0.3-0.4-0.5-0.5c-0.2-0.1-0.5-0.2-0.7-0.3
			c-0.3-0.1-0.5-0.1-0.8-0.1c-0.2,0-0.5,0-0.7,0.1c-0.2,0-0.5,0.1-0.7,0.2c-0.2,0.1-0.4,0.2-0.5,0.4c-0.1,0.2-0.2,0.4-0.2,0.6
			c0,0.3,0.1,0.5,0.3,0.7s0.4,0.3,0.8,0.5c0.3,0.1,0.6,0.2,1,0.3c0.4,0.1,0.8,0.2,1.1,0.3c0.4,0.1,0.8,0.2,1.2,0.3
			c0.4,0.1,0.7,0.3,1,0.5c0.3,0.2,0.5,0.5,0.7,0.8c0.2,0.3,0.3,0.7,0.3,1.2c0,0.6-0.1,1.1-0.4,1.5s-0.6,0.7-1,1
			c-0.4,0.2-0.8,0.4-1.3,0.5c-0.5,0.1-1,0.1-1.5,0.1c-0.5,0-1.1-0.1-1.6-0.2c-0.5-0.1-0.9-0.3-1.3-0.6c-0.4-0.3-0.7-0.6-0.9-1
			c-0.2-0.4-0.4-0.9-0.4-1.5h1.6C168.6,76.1,168.6,76.4,168.8,76.6z"/>
		<path class="st0" d="M177.4,67.3v-2h1.6v2H177.4z M179.1,69v9.8h-1.6V69H179.1z"/>
		<path class="st0" d="M189,78.8v-1.3h0c-0.3,0.5-0.7,0.9-1.3,1.2c-0.6,0.2-1.2,0.4-1.9,0.4c-0.8,0-1.4-0.1-2-0.4
			c-0.6-0.3-1-0.7-1.4-1.1c-0.4-0.5-0.7-1-0.8-1.6c-0.2-0.6-0.3-1.3-0.3-2c0-0.7,0.1-1.4,0.3-2c0.2-0.6,0.5-1.2,0.8-1.6
			c0.4-0.5,0.8-0.8,1.4-1.1c0.6-0.3,1.2-0.4,2-0.4c0.3,0,0.5,0,0.8,0.1c0.3,0.1,0.6,0.1,0.9,0.3c0.3,0.1,0.6,0.3,0.8,0.5
			c0.3,0.2,0.5,0.4,0.7,0.7h0v-5.1h1.6v13.6H189z M183.2,75.4c0.1,0.4,0.3,0.8,0.6,1.2c0.2,0.3,0.6,0.6,0.9,0.8
			c0.4,0.2,0.8,0.3,1.4,0.3c0.5,0,1-0.1,1.4-0.3c0.4-0.2,0.7-0.5,0.9-0.8c0.2-0.3,0.4-0.7,0.5-1.2c0.1-0.4,0.2-0.9,0.2-1.3
			c0-0.5-0.1-0.9-0.2-1.4c-0.1-0.4-0.3-0.8-0.5-1.2c-0.2-0.3-0.6-0.6-1-0.8s-0.9-0.3-1.4-0.3c-0.5,0-1,0.1-1.4,0.3
			c-0.4,0.2-0.7,0.5-0.9,0.9c-0.2,0.4-0.4,0.8-0.5,1.2c-0.1,0.5-0.2,0.9-0.2,1.4C183,74.5,183.1,74.9,183.2,75.4z"/>
		<path class="st0" d="M200.3,78.2c-0.7,0.6-1.7,0.8-2.8,0.8c-0.8,0-1.5-0.1-2-0.4c-0.6-0.3-1.1-0.6-1.5-1.1c-0.4-0.5-0.7-1-0.9-1.6
			c-0.2-0.6-0.3-1.3-0.3-2.1c0-0.7,0.1-1.4,0.3-2.1c0.2-0.6,0.5-1.2,1-1.6c0.4-0.5,0.9-0.8,1.5-1.1c0.6-0.3,1.2-0.4,1.9-0.4
			c0.9,0,1.6,0.2,2.2,0.5c0.6,0.4,1,0.8,1.4,1.4c0.3,0.6,0.6,1.2,0.7,1.8c0.1,0.7,0.2,1.3,0.2,1.9h-7.4c0,0.4,0,0.8,0.2,1.2
			c0.1,0.4,0.3,0.7,0.6,1c0.3,0.3,0.6,0.5,1,0.7c0.4,0.2,0.9,0.3,1.4,0.3c0.7,0,1.2-0.2,1.7-0.5c0.4-0.3,0.7-0.8,0.9-1.4h1.6
			C201.6,76.8,201.1,77.7,200.3,78.2z M200,71.9c-0.1-0.3-0.3-0.6-0.6-0.9c-0.2-0.2-0.5-0.4-0.9-0.6c-0.3-0.1-0.7-0.2-1.1-0.2
			c-0.4,0-0.8,0.1-1.1,0.2c-0.3,0.1-0.6,0.3-0.9,0.6c-0.2,0.3-0.4,0.5-0.6,0.9c-0.1,0.3-0.2,0.7-0.2,1.1h5.6
			C200.2,72.6,200.1,72.2,200,71.9z"/>
		<path class="st0" d="M205.4,69v1.6h0c0.7-1.2,1.7-1.8,3.2-1.8c0.6,0,1.2,0.1,1.6,0.3c0.4,0.2,0.8,0.4,1,0.7
			c0.3,0.3,0.5,0.7,0.6,1.1c0.1,0.4,0.2,0.9,0.2,1.5v6.5h-1.6v-6.7c0-0.6-0.2-1.1-0.5-1.4c-0.4-0.4-0.8-0.5-1.5-0.5
			c-0.5,0-0.9,0.1-1.3,0.2c-0.4,0.2-0.7,0.4-0.9,0.6c-0.2,0.3-0.4,0.6-0.5,1c-0.1,0.4-0.2,0.8-0.2,1.2v5.5h-1.6V69H205.4z"/>
		<path class="st0" d="M218.9,69v1.4h-2v6.1c0,0.2,0,0.3,0,0.5c0,0.1,0.1,0.2,0.2,0.3c0.1,0.1,0.2,0.1,0.4,0.1c0.2,0,0.4,0,0.6,0
			h0.7v1.4h-1.2c-0.4,0-0.8,0-1.1-0.1c-0.3-0.1-0.5-0.2-0.7-0.3c-0.2-0.2-0.3-0.4-0.4-0.6c-0.1-0.3-0.1-0.6-0.1-1.1v-6.3h-1.7V69
			h1.7v-2.9h1.6V69H218.9z"/>
		<path class="st0" d="M221.1,67.3v-2h1.6v2H221.1z M222.7,69v9.8h-1.6V69H222.7z"/>
		<path class="st0" d="M233,79.1c-0.4,0-0.8-0.1-1-0.4c-0.2-0.2-0.4-0.6-0.4-1.1c-0.4,0.5-1,0.9-1.5,1.1c-0.6,0.2-1.2,0.4-1.9,0.4
			c-0.4,0-0.9,0-1.3-0.1c-0.4-0.1-0.7-0.3-1-0.5c-0.3-0.2-0.5-0.5-0.7-0.9c-0.2-0.3-0.3-0.8-0.3-1.3c0-0.6,0.1-1,0.3-1.4
			c0.2-0.4,0.4-0.6,0.8-0.9c0.3-0.2,0.7-0.4,1.1-0.5c0.4-0.1,0.8-0.2,1.2-0.3c0.4-0.1,0.9-0.2,1.3-0.2c0.4,0,0.8-0.1,1.1-0.2
			c0.3-0.1,0.5-0.2,0.7-0.4c0.2-0.2,0.3-0.4,0.3-0.7c0-0.4-0.1-0.6-0.2-0.9c-0.1-0.2-0.3-0.4-0.5-0.5c-0.2-0.1-0.4-0.2-0.7-0.2
			c-0.3,0-0.5-0.1-0.8-0.1c-0.7,0-1.3,0.1-1.7,0.4c-0.5,0.3-0.7,0.8-0.7,1.5h-1.6c0-0.6,0.2-1.1,0.4-1.5c0.2-0.4,0.5-0.8,0.9-1
			c0.4-0.3,0.8-0.4,1.3-0.6c0.5-0.1,1-0.2,1.6-0.2c0.4,0,0.9,0,1.3,0.1c0.4,0.1,0.8,0.2,1.2,0.4c0.4,0.2,0.6,0.5,0.9,0.8
			c0.2,0.4,0.3,0.8,0.3,1.4v5.1c0,0.4,0,0.7,0.1,0.8c0,0.2,0.2,0.3,0.4,0.3c0.1,0,0.3,0,0.5-0.1v1.3C233.9,79,233.5,79.1,233,79.1z
			 M230.8,74.1c-0.3,0.1-0.7,0.1-1,0.2c-0.4,0-0.7,0.1-1.1,0.2c-0.4,0.1-0.7,0.1-1,0.3c-0.3,0.1-0.5,0.3-0.7,0.5
			c-0.2,0.2-0.3,0.6-0.3,1c0,0.3,0.1,0.5,0.2,0.7c0.1,0.2,0.2,0.3,0.4,0.4c0.2,0.1,0.4,0.2,0.6,0.2c0.2,0.1,0.5,0.1,0.7,0.1
			c0.5,0,1-0.1,1.4-0.2c0.4-0.1,0.7-0.3,0.9-0.6c0.2-0.2,0.4-0.5,0.5-0.7c0.1-0.3,0.2-0.5,0.2-0.7v-1.7
			C231.4,73.9,231.1,74,230.8,74.1z"/>
		<path class="st0" d="M237.7,65.3v13.6h-1.6V65.3H237.7z"/>
		<path class="st0" d="M252,65.3l5.3,13.6h-2l-1.5-4.1h-5.7l-1.5,4.1h-1.8l5.3-13.6H252z M253.3,73.2l-2.3-6.3h0l-2.3,6.3H253.3z"/>
		<path class="st0" d="M266,81.6c-0.7,0.8-1.9,1.2-3.5,1.2c-0.5,0-0.9-0.1-1.4-0.2c-0.5-0.1-0.9-0.3-1.3-0.5c-0.4-0.2-0.7-0.5-1-0.9
			c-0.3-0.4-0.4-0.8-0.4-1.3h1.6c0,0.3,0.1,0.5,0.3,0.7c0.2,0.2,0.4,0.4,0.6,0.5c0.2,0.1,0.5,0.2,0.8,0.3c0.3,0.1,0.6,0.1,0.8,0.1
			c0.5,0,1-0.1,1.3-0.3c0.4-0.2,0.7-0.4,0.9-0.8c0.2-0.3,0.4-0.7,0.5-1.2c0.1-0.5,0.2-1,0.2-1.5v-0.6h0c-0.3,0.6-0.7,1.1-1.3,1.3
			c-0.6,0.3-1.2,0.4-1.8,0.4c-0.7,0-1.4-0.1-1.9-0.4c-0.5-0.3-1-0.6-1.4-1.1c-0.4-0.4-0.6-1-0.8-1.6c-0.2-0.6-0.3-1.2-0.3-1.9
			c0-0.6,0.1-1.2,0.2-1.8c0.2-0.6,0.4-1.2,0.8-1.7c0.4-0.5,0.8-0.9,1.4-1.2c0.6-0.3,1.3-0.5,2.1-0.5c0.6,0,1.2,0.1,1.7,0.4
			c0.5,0.3,0.9,0.7,1.2,1.2h0V69h1.5v9C267.1,79.6,266.8,80.8,266,81.6z M264,77.2c0.4-0.2,0.7-0.5,0.9-0.9c0.2-0.4,0.4-0.8,0.5-1.2
			c0.1-0.5,0.2-0.9,0.2-1.4c0-0.4-0.1-0.9-0.2-1.3c-0.1-0.4-0.3-0.8-0.5-1.1c-0.2-0.3-0.5-0.6-0.9-0.8c-0.4-0.2-0.8-0.3-1.3-0.3
			c-0.5,0-1,0.1-1.3,0.3c-0.4,0.2-0.7,0.5-0.9,0.8c-0.2,0.3-0.4,0.7-0.5,1.1c-0.1,0.4-0.2,0.9-0.2,1.3c0,0.4,0,0.9,0.1,1.3
			c0.1,0.4,0.2,0.8,0.5,1.2c0.2,0.4,0.5,0.7,0.9,0.9c0.4,0.2,0.8,0.3,1.3,0.3C263.1,77.5,263.6,77.4,264,77.2z"/>
		<path class="st0" d="M276.8,78.2c-0.7,0.6-1.7,0.8-2.8,0.8c-0.8,0-1.5-0.1-2-0.4c-0.6-0.3-1.1-0.6-1.5-1.1c-0.4-0.5-0.7-1-0.9-1.6
			c-0.2-0.6-0.3-1.3-0.3-2.1c0-0.7,0.1-1.4,0.3-2.1c0.2-0.6,0.5-1.2,1-1.6c0.4-0.5,0.9-0.8,1.5-1.1c0.6-0.3,1.2-0.4,1.9-0.4
			c0.9,0,1.6,0.2,2.2,0.5c0.6,0.4,1,0.8,1.4,1.4c0.3,0.6,0.6,1.2,0.7,1.8c0.1,0.7,0.2,1.3,0.2,1.9H271c0,0.4,0,0.8,0.2,1.2
			c0.1,0.4,0.3,0.7,0.6,1c0.3,0.3,0.6,0.5,1,0.7c0.4,0.2,0.9,0.3,1.4,0.3c0.7,0,1.2-0.2,1.7-0.5c0.4-0.3,0.7-0.8,0.9-1.4h1.6
			C278,76.8,277.5,77.7,276.8,78.2z M276.4,71.9c-0.1-0.3-0.3-0.6-0.6-0.9c-0.2-0.2-0.5-0.4-0.9-0.6c-0.3-0.1-0.7-0.2-1.1-0.2
			c-0.4,0-0.8,0.1-1.1,0.2c-0.3,0.1-0.6,0.3-0.9,0.6c-0.2,0.3-0.4,0.5-0.6,0.9c-0.1,0.3-0.2,0.7-0.2,1.1h5.6
			C276.6,72.6,276.6,72.2,276.4,71.9z"/>
		<path class="st0" d="M287.5,78.8v-1.3h0c-0.3,0.5-0.7,0.9-1.3,1.2c-0.6,0.2-1.2,0.4-1.9,0.4c-0.8,0-1.4-0.1-2-0.4
			c-0.6-0.3-1-0.7-1.4-1.1c-0.4-0.5-0.7-1-0.8-1.6c-0.2-0.6-0.3-1.3-0.3-2c0-0.7,0.1-1.4,0.3-2c0.2-0.6,0.5-1.2,0.8-1.6
			c0.4-0.5,0.8-0.8,1.4-1.1c0.6-0.3,1.2-0.4,2-0.4c0.3,0,0.5,0,0.8,0.1c0.3,0.1,0.6,0.1,0.9,0.3c0.3,0.1,0.6,0.3,0.8,0.5
			c0.3,0.2,0.5,0.4,0.7,0.7h0v-5.1h1.6v13.6H287.5z M281.7,75.4c0.1,0.4,0.3,0.8,0.6,1.2c0.2,0.3,0.6,0.6,0.9,0.8
			c0.4,0.2,0.8,0.3,1.4,0.3c0.5,0,1-0.1,1.4-0.3c0.4-0.2,0.7-0.5,0.9-0.8c0.2-0.3,0.4-0.7,0.5-1.2c0.1-0.4,0.2-0.9,0.2-1.3
			c0-0.5-0.1-0.9-0.2-1.4c-0.1-0.4-0.3-0.8-0.5-1.2c-0.2-0.3-0.6-0.6-1-0.8c-0.4-0.2-0.9-0.3-1.4-0.3c-0.5,0-1,0.1-1.4,0.3
			c-0.4,0.2-0.7,0.5-0.9,0.9c-0.2,0.4-0.4,0.8-0.5,1.2c-0.1,0.5-0.2,0.9-0.2,1.4C281.5,74.5,281.6,74.9,281.7,75.4z"/>
		<path class="st0" d="M305.9,67.2c-0.7-0.5-1.5-0.7-2.5-0.7c-0.8,0-1.5,0.2-2.1,0.5c-0.6,0.3-1.1,0.7-1.4,1.2
			c-0.4,0.5-0.6,1.1-0.8,1.8c-0.2,0.7-0.3,1.3-0.3,2.1c0,0.8,0.1,1.5,0.3,2.2c0.2,0.7,0.5,1.3,0.8,1.8c0.4,0.5,0.9,0.9,1.4,1.2
			c0.6,0.3,1.3,0.5,2.1,0.5c0.6,0,1.1-0.1,1.6-0.3c0.5-0.2,0.9-0.5,1.2-0.8c0.3-0.3,0.6-0.8,0.8-1.2c0.2-0.5,0.3-1,0.3-1.6h1.8
			c-0.2,1.7-0.8,3-1.8,4c-1,1-2.4,1.4-4.1,1.4c-1.1,0-2-0.2-2.8-0.5c-0.8-0.4-1.4-0.9-2-1.5c-0.5-0.6-0.9-1.4-1.2-2.2
			c-0.3-0.9-0.4-1.8-0.4-2.8c0-1,0.1-1.9,0.4-2.8c0.3-0.9,0.7-1.6,1.2-2.3c0.5-0.6,1.2-1.2,2-1.5c0.8-0.4,1.7-0.6,2.8-0.6
			c0.7,0,1.4,0.1,2,0.3c0.6,0.2,1.2,0.5,1.7,0.8c0.5,0.4,0.9,0.8,1.2,1.4c0.3,0.6,0.5,1.2,0.6,1.9h-1.8
			C307.1,68.4,306.6,67.7,305.9,67.2z"/>
		<path class="st0" d="M319,79.1c-0.4,0-0.8-0.1-1-0.4c-0.2-0.2-0.4-0.6-0.4-1.1c-0.4,0.5-1,0.9-1.5,1.1c-0.6,0.2-1.2,0.4-1.9,0.4
			c-0.4,0-0.9,0-1.3-0.1c-0.4-0.1-0.7-0.3-1-0.5c-0.3-0.2-0.5-0.5-0.7-0.9c-0.2-0.3-0.3-0.8-0.3-1.3c0-0.6,0.1-1,0.3-1.4
			c0.2-0.4,0.4-0.6,0.8-0.9c0.3-0.2,0.7-0.4,1.1-0.5c0.4-0.1,0.8-0.2,1.2-0.3c0.4-0.1,0.9-0.2,1.3-0.2c0.4,0,0.8-0.1,1.1-0.2
			c0.3-0.1,0.5-0.2,0.7-0.4c0.2-0.2,0.3-0.4,0.3-0.7c0-0.4-0.1-0.6-0.2-0.9c-0.1-0.2-0.3-0.4-0.5-0.5c-0.2-0.1-0.4-0.2-0.7-0.2
			c-0.3,0-0.5-0.1-0.8-0.1c-0.7,0-1.3,0.1-1.7,0.4c-0.5,0.3-0.7,0.8-0.7,1.5h-1.6c0-0.6,0.2-1.1,0.4-1.5c0.2-0.4,0.5-0.8,0.9-1
			c0.4-0.3,0.8-0.4,1.3-0.6c0.5-0.1,1-0.2,1.6-0.2c0.4,0,0.9,0,1.3,0.1c0.4,0.1,0.8,0.2,1.2,0.4c0.4,0.2,0.6,0.5,0.9,0.8
			c0.2,0.4,0.3,0.8,0.3,1.4v5.1c0,0.4,0,0.7,0.1,0.8c0,0.2,0.2,0.3,0.4,0.3c0.1,0,0.3,0,0.5-0.1v1.3C319.9,79,319.5,79.1,319,79.1z
			 M316.7,74.1c-0.3,0.1-0.7,0.1-1,0.2c-0.4,0-0.7,0.1-1.1,0.2c-0.4,0.1-0.7,0.1-1,0.3c-0.3,0.1-0.5,0.3-0.7,0.5
			c-0.2,0.2-0.3,0.6-0.3,1c0,0.3,0.1,0.5,0.2,0.7c0.1,0.2,0.2,0.3,0.4,0.4c0.2,0.1,0.4,0.2,0.6,0.2c0.2,0.1,0.5,0.1,0.7,0.1
			c0.5,0,1-0.1,1.4-0.2c0.4-0.1,0.7-0.3,0.9-0.6c0.2-0.2,0.4-0.5,0.5-0.7c0.1-0.3,0.2-0.5,0.2-0.7v-1.7
			C317.3,73.9,317.1,74,316.7,74.1z"/>
		<path class="st0" d="M323.4,69v2.1h0c0.4-0.8,0.9-1.4,1.4-1.8c0.6-0.4,1.3-0.6,2.2-0.5v1.7c-0.6,0-1.2,0.1-1.7,0.3
			c-0.5,0.2-0.8,0.4-1.1,0.8c-0.3,0.3-0.5,0.8-0.6,1.2c-0.1,0.5-0.2,1-0.2,1.7v4.4h-1.6V69H323.4z"/>
		<path class="st0" d="M335.2,78.2c-0.7,0.6-1.7,0.8-2.8,0.8c-0.8,0-1.5-0.1-2-0.4c-0.6-0.3-1.1-0.6-1.5-1.1c-0.4-0.5-0.7-1-0.9-1.6
			c-0.2-0.6-0.3-1.3-0.3-2.1c0-0.7,0.1-1.4,0.3-2.1c0.2-0.6,0.5-1.2,1-1.6c0.4-0.5,0.9-0.8,1.5-1.1c0.6-0.3,1.2-0.4,1.9-0.4
			c0.9,0,1.6,0.2,2.2,0.5c0.6,0.4,1,0.8,1.4,1.4c0.3,0.6,0.6,1.2,0.7,1.8c0.1,0.7,0.2,1.3,0.2,1.9h-7.4c0,0.4,0,0.8,0.2,1.2
			c0.1,0.4,0.3,0.7,0.6,1c0.3,0.3,0.6,0.5,1,0.7c0.4,0.2,0.9,0.3,1.4,0.3c0.7,0,1.2-0.2,1.7-0.5c0.4-0.3,0.7-0.8,0.9-1.4h1.6
			C336.4,76.8,335.9,77.7,335.2,78.2z M334.8,71.9c-0.1-0.3-0.3-0.6-0.6-0.9c-0.2-0.2-0.5-0.4-0.9-0.6c-0.3-0.1-0.7-0.2-1.1-0.2
			c-0.4,0-0.8,0.1-1.1,0.2c-0.3,0.1-0.6,0.3-0.9,0.6c-0.2,0.3-0.4,0.5-0.6,0.9c-0.1,0.3-0.2,0.7-0.2,1.1h5.6
			C335,72.6,334.9,72.2,334.8,71.9z"/>
	</g>
</g>
<g>
	<g>
		<path d="M6.7,65.3c2.1,0,3.7,0.5,4.8,1.6c1.1,1.1,1.7,2.7,1.7,4.9c0,1.1-0.1,2.2-0.4,3c-0.3,0.9-0.6,1.6-1.2,2.2
			c-0.5,0.6-1.2,1.1-2,1.4c-0.8,0.3-1.8,0.5-2.9,0.5H2.1V65.3H6.7z M6.9,77.3c0.2,0,0.5,0,0.8,0c0.3,0,0.6-0.1,1-0.2
			c0.3-0.1,0.7-0.3,1-0.5c0.3-0.2,0.6-0.5,0.9-0.9c0.3-0.4,0.5-0.9,0.7-1.5c0.2-0.6,0.3-1.3,0.3-2.1c0-0.8-0.1-1.5-0.2-2.2
			c-0.2-0.6-0.4-1.2-0.8-1.6c-0.4-0.4-0.8-0.8-1.4-1c-0.6-0.2-1.3-0.4-2.1-0.4h-3v10.5H6.9z"/>
		<path d="M25.2,77.8c-0.9,0.9-2.2,1.3-4,1.3c-1.7,0-3.1-0.4-4.1-1.2c-1-0.8-1.5-2.2-1.5-4v-8.7h1.8v8.7c0,1.2,0.3,2.1,1,2.8
			c0.6,0.6,1.6,0.9,2.8,0.9c1.2,0,2-0.3,2.6-0.9c0.6-0.6,0.9-1.5,0.9-2.8v-8.7h1.8v8.7C26.6,75.7,26.1,77,25.2,77.8z"/>
		<path d="M31.5,65.3v12h7.2v1.5h-9V65.3H31.5z"/>
		<path d="M49.9,78.8l-3.1-11.4h0l-3.1,11.4h-1.9l-3.5-13.6h1.8l2.7,11.3h0l3-11.3h2l3,11.3h0l2.8-11.3h1.8l-3.6,13.6H49.9z"/>
		<path d="M59.3,65.3v13.6h-1.8V65.3H59.3z"/>
		<path d="M70.8,67.2c-0.7-0.5-1.5-0.7-2.5-0.7c-0.8,0-1.5,0.2-2.1,0.5c-0.6,0.3-1.1,0.7-1.4,1.2c-0.4,0.5-0.6,1.1-0.8,1.8
			c-0.2,0.7-0.3,1.3-0.3,2.1c0,0.8,0.1,1.5,0.3,2.2c0.2,0.7,0.5,1.3,0.8,1.8c0.4,0.5,0.9,0.9,1.4,1.2c0.6,0.3,1.3,0.5,2.1,0.5
			c0.6,0,1.1-0.1,1.6-0.3c0.5-0.2,0.9-0.5,1.2-0.8c0.3-0.3,0.6-0.8,0.8-1.2c0.2-0.5,0.3-1,0.3-1.6h1.8c-0.2,1.7-0.8,3-1.8,4
			c-1,1-2.4,1.4-4.1,1.4c-1.1,0-2-0.2-2.8-0.5c-0.8-0.4-1.4-0.9-2-1.5c-0.5-0.6-0.9-1.4-1.2-2.2C62.1,74,62,73.1,62,72.1
			c0-1,0.1-1.9,0.4-2.8c0.3-0.9,0.7-1.6,1.2-2.3c0.5-0.6,1.2-1.2,2-1.5c0.8-0.4,1.7-0.6,2.8-0.6c0.7,0,1.4,0.1,2,0.3
			c0.6,0.2,1.2,0.5,1.7,0.8c0.5,0.4,0.9,0.8,1.2,1.4c0.3,0.6,0.5,1.2,0.6,1.9h-1.8C72,68.4,71.5,67.7,70.8,67.2z"/>
		<path d="M78.4,65.3v5.8h7.1v-5.8h1.8v13.6h-1.8v-6.2h-7.1v6.2h-1.8V65.3H78.4z"/>
		<path d="M98,65.3v5.8h7.1v-5.8h1.8v13.6h-1.8v-6.2H98v6.2h-1.8V65.3H98z"/>
		<path d="M112.1,65.3v13.6h-1.8V65.3H112.1z"/>
		<path d="M117.2,65.3v12h7.2v1.5h-9V65.3H117.2z"/>
		<path d="M128.1,65.3v12h7.2v1.5h-9V65.3H128.1z"/>
	</g>
</g>
<g>
	<path class="st1" d="M33.9,46.6H30L15,6.7h-0.1v32.2c0,3.1,0.9,4.3,3.2,4.3h4.7v3.5H2.6v-3.5h4.7c2.3,0,3.2-1.2,3.2-4.3V9.6
		c0-2.7-0.8-3.8-3.2-3.8H2.8V2.4h17l13.4,35l14-35h16.3v3.5H61c-3.9,0-5.4,0.5-5.4,3.9v29.2c0,3.1,0.9,4.3,3.2,4.3h4.6v3.5H41.3
		v-3.5h4.6c2.3,0,3.2-1.1,3.2-3.2V8.2h-0.1L33.9,46.6z"/>
	<path class="st1" d="M92.9,41c0,2,0.5,3.5,1.7,3.5c2.9,0,3.1-3.7,3.1-5.7V36h3.1v1.9c0,7.1-2.4,9.7-7.5,9.7c-3.3,0-5.3-2-5.9-5.2
		c-3.3,3.6-7,5.2-11.8,5.2c-5.4,0-9.8-2.4-9.8-8.3c0-8.7,12-8.5,18.8-11.7c2.1-1,2.5-2.3,2.5-4.3c0-3.8-1.7-5.7-7.5-5.7
		c-2.6,0-5.9,0.4-7.8,2.6c2,0.3,3.1,1.4,3.1,3.4c0,2.6-2.1,3.5-4,3.5c-2.3,0-3.5-2.1-3.5-4.7c0-5.7,7.6-7.9,12.7-7.9
		c7.7,0,12.7,2.3,12.7,10.9V41z M87.3,29.6c-2.9,1.7-5.9,2.3-9.9,4c-3.6,1.5-5.1,3-5.1,5.3c0,3.5,1.9,5.5,5.3,5.5
		c4.4,0,9.7-4.1,9.7-8.7V29.6z"/>
	<path class="st1" d="M120.1,18.5h-1.5c-3.2,0-4.1,0.3-4.1,1.3c0,0.8,0.7,2.4,1.7,4.8l6.6,15.6l7.8-18c0.2-0.5,0.5-1.2,0.5-2.1
		c0-1-1.4-1.6-4.1-1.6h-1.9v-3.1h15.9v3.1h-1.9c-1.9,0-3.5,1.8-4.5,4.2l-14,31.2c-1.7,3.9-5.6,6.8-10.3,6.8c-3.9,0-7.6-2.6-7.6-6.8
		c0-4.1,2.3-5.3,4.1-5.3c1.9,0,3.6,1.2,3.6,3.5c0,2.5-2.1,3.1-4,3.1c0.3,1.2,1.9,2.4,3.9,2.4c3.3,0,5.3-1.9,6.6-4.4l3.2-6.5
		L109,22.1c-1.1-2.5-2.3-3.5-4.8-3.5h-1.4v-3.1h17.3V18.5z"/>
	<path class="st1" d="M146.3,8.6c0-2-0.9-3.1-3.1-3.1h-2.5V2.4H152v18.2h0.1c2.1-3.9,5.5-6.1,10.1-6.1c9.3,0,14,7.5,14,16.6
		s-4.7,16.6-14,16.6c-4.8,0-8.4-2.1-10.7-6.3l-2.2,5.7h-2.9V8.6z M160.9,43.9c7.1,0,8.9-6.9,8.9-12.9s-1.9-12.9-8.9-12.9
		c-7.1,0-8.9,6.9-8.9,12.9S153.8,43.9,160.9,43.9z"/>
	<path class="st1" d="M208,41c0,2,0.5,3.5,1.7,3.5c2.9,0,3.1-3.7,3.1-5.7V36h3.1v1.9c0,7.1-2.4,9.7-7.5,9.7c-3.3,0-5.3-2-5.9-5.2
		c-3.3,3.6-7,5.2-11.8,5.2c-5.4,0-9.8-2.4-9.8-8.3c0-8.7,12-8.5,18.8-11.7c2.1-1,2.5-2.3,2.5-4.3c0-3.8-1.7-5.7-7.5-5.7
		c-2.6,0-5.9,0.4-7.8,2.6c2,0.3,3.1,1.4,3.1,3.4c0,2.6-2.1,3.5-4,3.5c-2.3,0-3.5-2.1-3.5-4.7c0-5.7,7.6-7.9,12.7-7.9
		c7.7,0,12.7,2.3,12.7,10.9V41z M202.3,29.6c-2.9,1.7-5.9,2.3-9.9,4c-3.6,1.5-5.1,3-5.1,5.3c0,3.5,1.9,5.5,5.3,5.5
		c4.4,0,9.7-4.1,9.7-8.7V29.6z"/>
	<path class="st1" d="M230.5,21.1h0.1c2.7-4.2,6.7-6.7,11.8-6.7c7,0,10.7,4.6,10.7,11.5v14.5c0,2.1,0.5,3.1,2.7,3.1h4v3.1h-18.7
		v-3.1h3.7c2.2,0,2.7-1,2.7-3.1v-15c0-4.6-1.7-7.3-6.9-7.3c-6.3,0-10.1,5.1-10.1,10.4v11.9c0,2.1,0.5,3.1,2.7,3.1h4.1v3.1h-19.4
		v-3.1h4.3c2.2,0,2.7-1,2.7-3.1V21.6c0-2.1-0.5-3.1-2.7-3.1h-4.3v-3.1h12.6V21.1z"/>
	<path class="st1" d="M275,2.4v29.1l12.2-9.7c1-0.8,1.3-1.3,1.3-2c0-0.9-0.8-1.2-2.5-1.2h-4v-3.1h20.2v3.1h-1.8
		c-1.9,0-4.5,0.9-6.2,2.3l-9.3,7.5L295.9,40c1.8,1.9,3.7,3.5,7,3.5h1.4v3.1h-19.6v-3.1h3.7c1.2,0,1.9-0.3,1.9-1.2
		c0-1-1.5-2.1-1.9-2.6l-7.5-8.3l-5.9,4.5v4.5c0,2.1,0.5,3.1,2.7,3.1h3.5v3.1h-18.6v-3.1h3.4c2.9,0,3.3-1,3.3-3.1V8.6
		c0-2-1.2-3.1-3.6-3.1h-3.1V2.4H275z"/>
	<path class="st1" d="M313.5,31.4c0,6.8,1.5,13.1,9.3,13.1c5.3,0,8.6-2.8,10-8h3.9c-1.5,7.2-6.1,11.1-14,11.1
		c-9.9,0-15.6-5.7-15.6-16.6c0-10.9,5.7-16.6,15.6-16.6c10.7,0,14.2,7.5,14.8,17H313.5z M331.3,28.3c0-5.8-2.6-10.7-8.7-10.7
		c-6.2,0-9.1,4.9-9.1,10.7H331.3z"/>
</g>
<g>
	<path class="st0" d="M99.3,55.3H1.8v1h97.7C99.4,56,99.3,55.7,99.3,55.3z"/>
	<path class="st0" d="M124.1,55.4c-0.1,0.3-0.3,0.6-0.4,0.9h212v-1H124.1L124.1,55.4z"/>
</g>
<g>
</g>
<g>
</g>
<g>
</g>
<g>
</g>
<g>
</g>
<g>
</g>
</svg>
