<?xml version="1.0" encoding="utf-8"?>
<!-- Generator: Adobe Illustrator 19.1.0, SVG Export Plug-In . SVG Version: 6.00 Build 0)  -->
<!DOCTYPE svg PUBLIC "-//W3C//DTD SVG 1.1//EN" "http://www.w3.org/Graphics/SVG/1.1/DTD/svg11.dtd">
<svg version="1.1" id="Layer_1" xmlns="http://www.w3.org/2000/svg" xmlns:xlink="http://www.w3.org/1999/xlink" x="0px" y="0px"
	 viewBox="0 0 212.6 113.4" style="enable-background:new 0 0 212.6 113.4;" xml:space="preserve">
<style type="text/css">
	.st0{fill:#6D6E71;}
	.st1{fill:#6CB33F;}
</style>
<g>
	<g>
		<path class="st0" d="M96.4,53.6H1.4v1h95.2C96.5,54.3,96.4,54,96.4,53.6z"/>
		<path class="st0" d="M118.5,54.6h92.1v-1H119C118.9,54,118.7,54.3,118.5,54.6z"/>
	</g>
	<g>
		<g>
			<path class="st1" d="M32.7,44.8h-3.8L14.5,6.3h-0.1v31c0,3,0.8,4.1,3.1,4.1h4.5v3.3H2.5v-3.3h4.6c2.3,0,3.1-1.2,3.1-4.1V9.2
				c0-2.6-0.8-3.7-3.1-3.7H2.7V2.1H19l12.9,33.7L45.4,2.1h15.7v3.3h-2.3c-3.8,0-5.2,0.5-5.2,3.7v28.1c0,3,0.8,4.1,3.1,4.1h4.4v3.3
				H39.8v-3.3h4.4c2.3,0,3.1-1,3.1-3.1V7.7h-0.1L32.7,44.8z"/>
			<path class="st1" d="M96.8,29.8c0,9.3-6.2,16-16.6,16c-10.4,0-16.6-6.8-16.6-16c0-9.3,6.2-16,16.6-16
				C90.5,13.7,96.8,20.5,96.8,29.8z M69.6,29.8c0,7,2.5,13,10.5,13c8,0,10.5-6.1,10.5-13c0-7-2.5-13-10.5-13
				C72.2,16.8,69.6,22.8,69.6,29.8z"/>
			<path class="st1" d="M115.9,17.7h-1.4c-3.1,0-3.9,0.3-3.9,1.3c0,0.8,0.7,2.3,1.7,4.6l6.4,15.1l7.5-17.4c0.2-0.5,0.5-1.2,0.5-2.1
				c0-1-1.4-1.5-3.9-1.5h-1.8v-3h15.3v3h-1.8c-1.9,0-3.3,1.7-4.4,4.1l-13.5,30.1c-1.7,3.8-5.4,6.6-10,6.6c-3.7,0-7.3-2.5-7.3-6.6
				c0-3.9,2.3-5.1,4-5.1c1.8,0,3.5,1.2,3.5,3.3c0,2.4-2,3-3.9,3c0.3,1.2,1.9,2.3,3.8,2.3c3.2,0,5.2-1.8,6.4-4.3l3.1-6.2l-10.9-23.8
				c-1.1-2.4-2.3-3.4-4.6-3.4h-1.4v-3h16.7V17.7z"/>
			<path class="st1" d="M150.8,20.2h0.1c2.6-4.1,6.4-6.4,11.4-6.4c6.8,0,10.4,4.4,10.4,11.1v14c0,2,0.5,3,2.6,3h3.9v3h-18v-3h3.5
				c2.1,0,2.6-1,2.6-3V24.4c0-4.4-1.7-7.1-6.6-7.1c-6.1,0-9.7,4.9-9.7,10v11.5c0,2,0.5,3,2.6,3h3.9v3h-18.7v-3h4.2
				c2.1,0,2.6-1,2.6-3V20.7c0-2-0.5-3-2.6-3h-4.2v-3h12.2V20.2z"/>
			<path class="st1" d="M187.9,30.2c0,6.6,1.4,12.6,9,12.6c5.2,0,8.3-2.7,9.7-7.7h3.7c-1.4,7-5.9,10.8-13.5,10.8
				c-9.5,0-15.1-5.5-15.1-16c0-10.6,5.5-16,15.1-16c10.4,0,13.7,7.3,14.3,16.4H187.9z M205,27.1c0-5.6-2.5-10.4-8.4-10.4
				c-6,0-8.8,4.8-8.8,10.4H205z"/>
		</g>
	</g>
	<g>
		<path class="st0" d="M9.9,92.3c1.4,0,2.5,0.3,3.3,1c0.8,0.7,1.2,1.6,1.2,2.8c0,0.9-0.2,1.7-0.6,2.3c-0.4,0.7-1,1.1-1.9,1.4v0
			c0.4,0.1,0.8,0.2,1,0.4c0.3,0.2,0.5,0.4,0.6,0.7c0.2,0.3,0.3,0.6,0.3,0.9s0.1,0.7,0.2,1c0,0.4,0,0.7,0.1,1.1c0,0.4,0,0.7,0.1,1.1
			c0.1,0.4,0.1,0.7,0.2,1c0.1,0.3,0.3,0.6,0.5,0.9h-2.2c-0.1-0.2-0.2-0.4-0.3-0.6c0-0.3-0.1-0.5-0.1-0.9c0-0.3,0-0.7,0-1
			c0-0.4-0.1-0.7-0.1-1.1c-0.1-0.4-0.1-0.7-0.2-1c-0.1-0.3-0.2-0.6-0.4-0.8c-0.2-0.2-0.4-0.4-0.7-0.6c-0.3-0.1-0.7-0.2-1.1-0.2H5
			v6.3H3V92.3H9.9z M10.3,99c0.4-0.1,0.8-0.2,1.1-0.4c0.3-0.2,0.6-0.5,0.7-0.8c0.2-0.3,0.3-0.8,0.3-1.3c0-0.7-0.2-1.3-0.6-1.8
			c-0.4-0.5-1.1-0.7-2-0.7H5v5.1h4.1C9.5,99.1,9.9,99,10.3,99z"/>
		<path class="st0" d="M24.6,106.3c-0.8,0.6-1.8,0.9-3,0.9c-0.8,0-1.6-0.1-2.2-0.4c-0.6-0.3-1.1-0.7-1.6-1.1c-0.4-0.5-0.7-1.1-1-1.8
			c-0.2-0.7-0.3-1.4-0.4-2.2c0-0.8,0.1-1.5,0.4-2.2c0.2-0.7,0.6-1.2,1-1.7c0.4-0.5,1-0.9,1.6-1.1c0.6-0.3,1.3-0.4,2-0.4
			c0.9,0,1.7,0.2,2.3,0.6c0.6,0.4,1.1,0.9,1.5,1.5c0.4,0.6,0.6,1.3,0.8,2c0.1,0.7,0.2,1.4,0.2,2h-7.9c0,0.5,0,0.9,0.2,1.3
			c0.1,0.4,0.3,0.8,0.6,1.1c0.3,0.3,0.6,0.6,1,0.8c0.4,0.2,0.9,0.3,1.5,0.3c0.7,0,1.3-0.2,1.8-0.5c0.5-0.3,0.8-0.9,0.9-1.6h1.7
			C25.9,104.8,25.4,105.7,24.6,106.3z M24.2,99.5c-0.2-0.4-0.4-0.7-0.6-1c-0.3-0.3-0.6-0.5-0.9-0.6c-0.4-0.2-0.8-0.2-1.2-0.2
			c-0.5,0-0.9,0.1-1.2,0.2c-0.4,0.2-0.7,0.4-0.9,0.6c-0.3,0.3-0.5,0.6-0.6,1c-0.2,0.4-0.2,0.7-0.3,1.2h6.1
			C24.4,100.2,24.4,99.8,24.2,99.5z"/>
		<path class="st0" d="M29.8,104.6c0.2,0.3,0.4,0.5,0.6,0.6c0.3,0.2,0.6,0.3,0.9,0.3c0.3,0.1,0.7,0.1,1,0.1c0.3,0,0.6,0,0.9-0.1
			c0.3,0,0.6-0.1,0.8-0.2c0.3-0.1,0.5-0.3,0.6-0.5c0.2-0.2,0.2-0.5,0.2-0.8c0-0.5-0.2-0.8-0.5-1c-0.3-0.2-0.8-0.4-1.3-0.6
			c-0.5-0.1-1.1-0.3-1.7-0.4c-0.6-0.1-1.2-0.3-1.7-0.5c-0.5-0.2-0.9-0.5-1.3-0.9c-0.3-0.4-0.5-0.9-0.5-1.6c0-0.5,0.1-1,0.4-1.4
			c0.2-0.4,0.5-0.7,0.9-0.9c0.4-0.2,0.8-0.4,1.3-0.5c0.5-0.1,0.9-0.2,1.4-0.2c0.6,0,1.2,0.1,1.7,0.2c0.5,0.1,1,0.3,1.3,0.5
			c0.4,0.3,0.7,0.6,0.9,1c0.2,0.4,0.4,1,0.4,1.6h-1.7c0-0.3-0.1-0.6-0.3-0.9c-0.2-0.2-0.3-0.4-0.6-0.5c-0.2-0.1-0.5-0.2-0.8-0.3
			c-0.3-0.1-0.6-0.1-0.9-0.1c-0.3,0-0.5,0-0.8,0.1c-0.3,0-0.5,0.1-0.7,0.2c-0.2,0.1-0.4,0.2-0.5,0.4c-0.1,0.2-0.2,0.4-0.2,0.7
			c0,0.3,0.1,0.5,0.3,0.7c0.2,0.2,0.5,0.4,0.8,0.5c0.3,0.1,0.7,0.2,1.1,0.3c0.4,0.1,0.8,0.2,1.2,0.3c0.4,0.1,0.9,0.2,1.3,0.3
			c0.4,0.1,0.8,0.3,1.1,0.5c0.3,0.2,0.6,0.5,0.8,0.9c0.2,0.3,0.3,0.8,0.3,1.3c0,0.6-0.1,1.2-0.4,1.6c-0.3,0.4-0.6,0.8-1,1
			c-0.4,0.3-0.9,0.4-1.5,0.5c-0.5,0.1-1.1,0.2-1.6,0.2c-0.6,0-1.1-0.1-1.7-0.2c-0.5-0.1-1-0.3-1.4-0.6c-0.4-0.3-0.7-0.6-1-1.1
			c-0.2-0.5-0.4-1-0.4-1.7h1.7C29.5,104,29.6,104.3,29.8,104.6z"/>
		<path class="st0" d="M39.1,94.5v-2.1h1.7v2.1H39.1z M40.8,96.4V107h-1.7V96.4H40.8z"/>
		<path class="st0" d="M51.6,107v-1.4h0c-0.3,0.6-0.7,1-1.4,1.3c-0.6,0.3-1.3,0.4-2,0.4c-0.8,0-1.5-0.2-2.1-0.5
			c-0.6-0.3-1.1-0.7-1.5-1.2c-0.4-0.5-0.7-1.1-0.9-1.8c-0.2-0.7-0.3-1.4-0.3-2.1c0-0.8,0.1-1.5,0.3-2.1c0.2-0.7,0.5-1.3,0.9-1.8
			c0.4-0.5,0.9-0.9,1.5-1.2c0.6-0.3,1.3-0.4,2.1-0.4c0.3,0,0.6,0,0.9,0.1c0.3,0.1,0.6,0.1,0.9,0.3c0.3,0.1,0.6,0.3,0.9,0.5
			c0.3,0.2,0.5,0.5,0.7,0.8h0v-5.5h1.7V107H51.6z M45.3,103.2c0.1,0.5,0.3,0.9,0.6,1.3c0.3,0.4,0.6,0.7,1,0.9
			c0.4,0.2,0.9,0.3,1.5,0.3c0.6,0,1.1-0.1,1.5-0.3c0.4-0.2,0.7-0.5,1-0.9c0.3-0.4,0.4-0.8,0.6-1.3c0.1-0.5,0.2-1,0.2-1.5
			c0-0.5-0.1-1-0.2-1.5c-0.1-0.5-0.3-0.9-0.6-1.3c-0.3-0.4-0.6-0.7-1-0.9c-0.4-0.2-0.9-0.3-1.5-0.3c-0.6,0-1.1,0.1-1.5,0.3
			c-0.4,0.2-0.7,0.5-1,0.9c-0.2,0.4-0.4,0.8-0.5,1.3c-0.1,0.5-0.2,1-0.2,1.5C45.1,102.2,45.2,102.7,45.3,103.2z"/>
		<path class="st0" d="M63.8,106.3c-0.8,0.6-1.8,0.9-3,0.9c-0.8,0-1.6-0.1-2.2-0.4c-0.6-0.3-1.1-0.7-1.6-1.1c-0.4-0.5-0.7-1.1-1-1.8
			c-0.2-0.7-0.3-1.4-0.4-2.2c0-0.8,0.1-1.5,0.4-2.2c0.2-0.7,0.6-1.2,1-1.7c0.4-0.5,1-0.9,1.6-1.1c0.6-0.3,1.3-0.4,2-0.4
			c0.9,0,1.7,0.2,2.3,0.6c0.6,0.4,1.1,0.9,1.5,1.5c0.4,0.6,0.6,1.3,0.8,2c0.1,0.7,0.2,1.4,0.2,2h-7.9c0,0.5,0,0.9,0.2,1.3
			c0.1,0.4,0.3,0.8,0.6,1.1c0.3,0.3,0.6,0.6,1,0.8c0.4,0.2,0.9,0.3,1.5,0.3c0.7,0,1.3-0.2,1.8-0.5c0.5-0.3,0.8-0.9,0.9-1.6h1.7
			C65.1,104.8,64.6,105.7,63.8,106.3z M63.4,99.5c-0.2-0.4-0.4-0.7-0.6-1c-0.3-0.3-0.6-0.5-0.9-0.6c-0.4-0.2-0.8-0.2-1.2-0.2
			c-0.5,0-0.9,0.1-1.2,0.2c-0.4,0.2-0.7,0.4-0.9,0.6c-0.3,0.3-0.5,0.6-0.6,1c-0.2,0.4-0.2,0.7-0.3,1.2h6.1
			C63.6,100.2,63.6,99.8,63.4,99.5z"/>
		<path class="st0" d="M69.3,96.4V98h0c0.7-1.3,1.9-1.9,3.4-1.9c0.7,0,1.3,0.1,1.7,0.3c0.5,0.2,0.8,0.5,1.1,0.8
			c0.3,0.3,0.5,0.7,0.6,1.2c0.1,0.5,0.2,1,0.2,1.6v7h-1.7v-7.2c0-0.7-0.2-1.2-0.6-1.6c-0.4-0.4-0.9-0.6-1.6-0.6
			c-0.5,0-1,0.1-1.4,0.2c-0.4,0.2-0.7,0.4-1,0.7c-0.3,0.3-0.5,0.7-0.6,1.1c-0.1,0.4-0.2,0.8-0.2,1.3v6h-1.7V96.4H69.3z"/>
		<path class="st0" d="M83.9,96.4v1.5h-2.1v6.6c0,0.2,0,0.4,0.1,0.5s0.1,0.2,0.2,0.3c0.1,0.1,0.2,0.1,0.4,0.1c0.2,0,0.4,0,0.7,0h0.8
			v1.5h-1.3c-0.5,0-0.8,0-1.2-0.1c-0.3-0.1-0.6-0.2-0.8-0.3c-0.2-0.2-0.3-0.4-0.4-0.7c-0.1-0.3-0.1-0.7-0.1-1.2v-6.7h-1.8v-1.5H80
			v-3.2h1.7v3.2H83.9z"/>
		<path class="st0" d="M86.2,94.5v-2.1H88v2.1H86.2z M88,96.4V107h-1.7V96.4H88z"/>
		<path class="st0" d="M99.1,107.2c-0.5,0-0.8-0.1-1.1-0.4c-0.3-0.3-0.4-0.7-0.4-1.2c-0.5,0.6-1,1-1.7,1.2c-0.6,0.3-1.3,0.4-2.1,0.4
			c-0.5,0-0.9-0.1-1.4-0.2c-0.4-0.1-0.8-0.3-1.1-0.5c-0.3-0.2-0.6-0.5-0.8-0.9c-0.2-0.4-0.3-0.8-0.3-1.4c0-0.6,0.1-1.1,0.3-1.5
			c0.2-0.4,0.5-0.7,0.8-0.9c0.3-0.2,0.7-0.4,1.1-0.5c0.4-0.1,0.9-0.2,1.3-0.3c0.5-0.1,0.9-0.2,1.4-0.2c0.4,0,0.8-0.1,1.1-0.2
			c0.3-0.1,0.6-0.2,0.8-0.4c0.2-0.2,0.3-0.4,0.3-0.7c0-0.4-0.1-0.7-0.2-0.9c-0.1-0.2-0.3-0.4-0.6-0.5c-0.2-0.1-0.5-0.2-0.8-0.2
			c-0.3,0-0.6-0.1-0.8-0.1c-0.7,0-1.4,0.1-1.8,0.4c-0.5,0.3-0.8,0.8-0.8,1.6h-1.7c0-0.7,0.2-1.2,0.4-1.7c0.2-0.5,0.6-0.8,1-1.1
			c0.4-0.3,0.9-0.5,1.4-0.6c0.5-0.1,1.1-0.2,1.7-0.2c0.5,0,1,0,1.4,0.1c0.5,0.1,0.9,0.2,1.3,0.4c0.4,0.2,0.7,0.5,0.9,0.9
			c0.2,0.4,0.3,0.9,0.3,1.5v5.5c0,0.4,0,0.7,0.1,0.9c0,0.2,0.2,0.3,0.5,0.3c0.2,0,0.3,0,0.5-0.1v1.4
			C100.1,107.1,99.6,107.2,99.1,107.2z M96.7,101.8c-0.4,0.1-0.7,0.1-1.1,0.2c-0.4,0-0.8,0.1-1.2,0.2c-0.4,0.1-0.8,0.2-1.1,0.3
			c-0.3,0.1-0.6,0.3-0.8,0.6c-0.2,0.3-0.3,0.6-0.3,1c0,0.3,0.1,0.5,0.2,0.7c0.1,0.2,0.3,0.4,0.5,0.5c0.2,0.1,0.4,0.2,0.7,0.3
			c0.3,0.1,0.5,0.1,0.8,0.1c0.6,0,1.1-0.1,1.5-0.2c0.4-0.2,0.7-0.4,1-0.6c0.3-0.2,0.5-0.5,0.6-0.8c0.1-0.3,0.2-0.5,0.2-0.8v-1.8
			C97.3,101.6,97,101.8,96.7,101.8z"/>
		<path class="st0" d="M104.1,92.3V107h-1.7V92.3H104.1z"/>
		<path class="st0" d="M119.6,92.3l5.7,14.6h-2.2l-1.6-4.4h-6.2l-1.6,4.4h-2l5.7-14.6H119.6z M120.9,100.9l-2.4-6.8h0l-2.5,6.8
			H120.9z"/>
		<path class="st0" d="M134.7,110c-0.8,0.9-2,1.3-3.7,1.3c-0.5,0-1-0.1-1.5-0.2c-0.5-0.1-1-0.3-1.4-0.5c-0.4-0.2-0.8-0.6-1-1
			c-0.3-0.4-0.4-0.9-0.5-1.5h1.7c0,0.3,0.1,0.6,0.3,0.8c0.2,0.2,0.4,0.4,0.7,0.5c0.3,0.1,0.6,0.2,0.9,0.3c0.3,0.1,0.6,0.1,0.9,0.1
			c0.6,0,1.1-0.1,1.5-0.3c0.4-0.2,0.7-0.5,1-0.8c0.3-0.3,0.4-0.8,0.6-1.3c0.1-0.5,0.2-1,0.2-1.6v-0.7h0c-0.3,0.7-0.8,1.1-1.4,1.4
			c-0.6,0.3-1.3,0.5-1.9,0.5c-0.8,0-1.5-0.1-2.1-0.4c-0.6-0.3-1.1-0.7-1.5-1.2c-0.4-0.5-0.7-1.1-0.9-1.7c-0.2-0.6-0.3-1.3-0.3-2.1
			c0-0.6,0.1-1.3,0.2-1.9c0.2-0.7,0.4-1.3,0.8-1.8c0.4-0.5,0.9-1,1.5-1.3c0.6-0.3,1.4-0.5,2.3-0.5c0.7,0,1.3,0.1,1.8,0.4
			c0.6,0.3,1,0.7,1.3,1.3h0v-1.5h1.6v9.7C135.9,107.8,135.5,109.1,134.7,110z M132.5,105.2c0.4-0.2,0.7-0.6,1-0.9
			c0.2-0.4,0.4-0.8,0.5-1.3c0.1-0.5,0.2-1,0.2-1.5c0-0.5-0.1-0.9-0.2-1.4c-0.1-0.5-0.3-0.9-0.5-1.2c-0.2-0.4-0.6-0.7-0.9-0.9
			c-0.4-0.2-0.8-0.3-1.4-0.3c-0.6,0-1,0.1-1.4,0.3c-0.4,0.2-0.7,0.5-1,0.9c-0.3,0.4-0.4,0.8-0.6,1.2c-0.1,0.5-0.2,1-0.2,1.5
			c0,0.5,0,1,0.1,1.4c0.1,0.5,0.3,0.9,0.5,1.3c0.2,0.4,0.5,0.7,0.9,0.9c0.4,0.2,0.9,0.4,1.4,0.4
			C131.6,105.5,132.1,105.4,132.5,105.2z"/>
		<path class="st0" d="M146.3,106.3c-0.8,0.6-1.8,0.9-3,0.9c-0.8,0-1.6-0.1-2.2-0.4c-0.6-0.3-1.1-0.7-1.6-1.1
			c-0.4-0.5-0.7-1.1-1-1.8c-0.2-0.7-0.3-1.4-0.4-2.2c0-0.8,0.1-1.5,0.4-2.2c0.2-0.7,0.6-1.2,1-1.7c0.4-0.5,1-0.9,1.6-1.1
			c0.6-0.3,1.3-0.4,2-0.4c0.9,0,1.7,0.2,2.3,0.6c0.6,0.4,1.1,0.9,1.5,1.5c0.4,0.6,0.6,1.3,0.8,2c0.1,0.7,0.2,1.4,0.2,2h-7.9
			c0,0.5,0,0.9,0.2,1.3c0.1,0.4,0.3,0.8,0.6,1.1c0.3,0.3,0.6,0.6,1,0.8c0.4,0.2,0.9,0.3,1.5,0.3c0.7,0,1.3-0.2,1.8-0.5
			c0.5-0.3,0.8-0.9,0.9-1.6h1.7C147.6,104.8,147.1,105.7,146.3,106.3z M145.9,99.5c-0.2-0.4-0.4-0.7-0.6-1c-0.3-0.3-0.6-0.5-0.9-0.6
			c-0.4-0.2-0.8-0.2-1.2-0.2c-0.5,0-0.9,0.1-1.2,0.2c-0.4,0.2-0.7,0.4-0.9,0.6s-0.5,0.6-0.6,1c-0.2,0.4-0.2,0.7-0.3,1.2h6.1
			C146.2,100.2,146.1,99.8,145.9,99.5z"/>
		<path class="st0" d="M157.9,107v-1.4h0c-0.3,0.6-0.7,1-1.4,1.3c-0.6,0.3-1.3,0.4-2,0.4c-0.8,0-1.5-0.2-2.1-0.5
			c-0.6-0.3-1.1-0.7-1.5-1.2c-0.4-0.5-0.7-1.1-0.9-1.8c-0.2-0.7-0.3-1.4-0.3-2.1c0-0.8,0.1-1.5,0.3-2.1c0.2-0.7,0.5-1.3,0.9-1.8
			c0.4-0.5,0.9-0.9,1.5-1.2c0.6-0.3,1.3-0.4,2.1-0.4c0.3,0,0.6,0,0.9,0.1c0.3,0.1,0.6,0.1,0.9,0.3c0.3,0.1,0.6,0.3,0.9,0.5
			c0.3,0.2,0.5,0.5,0.7,0.8h0v-5.5h1.7V107H157.9z M151.6,103.2c0.1,0.5,0.3,0.9,0.6,1.3c0.3,0.4,0.6,0.7,1,0.9
			c0.4,0.2,0.9,0.3,1.5,0.3c0.6,0,1.1-0.1,1.5-0.3c0.4-0.2,0.7-0.5,1-0.9c0.3-0.4,0.4-0.8,0.6-1.3s0.2-1,0.2-1.5
			c0-0.5-0.1-1-0.2-1.5c-0.1-0.5-0.3-0.9-0.6-1.3c-0.3-0.4-0.6-0.7-1-0.9c-0.4-0.2-0.9-0.3-1.5-0.3c-0.6,0-1.1,0.1-1.5,0.3
			c-0.4,0.2-0.7,0.5-1,0.9c-0.2,0.4-0.4,0.8-0.5,1.3c-0.1,0.5-0.2,1-0.2,1.5C151.4,102.2,151.5,102.7,151.6,103.2z"/>
		<path class="st0" d="M177.7,94.4c-0.7-0.5-1.6-0.8-2.7-0.8c-0.9,0-1.6,0.2-2.2,0.5c-0.6,0.3-1.1,0.8-1.5,1.3
			c-0.4,0.6-0.7,1.2-0.9,1.9c-0.2,0.7-0.3,1.4-0.3,2.2c0,0.8,0.1,1.6,0.3,2.4c0.2,0.7,0.5,1.4,0.9,1.9c0.4,0.6,0.9,1,1.5,1.3
			c0.6,0.3,1.4,0.5,2.3,0.5c0.6,0,1.2-0.1,1.7-0.3c0.5-0.2,0.9-0.5,1.3-0.9c0.4-0.4,0.6-0.8,0.9-1.3c0.2-0.5,0.3-1.1,0.4-1.7h1.9
			c-0.2,1.8-0.8,3.3-1.9,4.3c-1.1,1-2.6,1.5-4.4,1.5c-1.1,0-2.1-0.2-3-0.6c-0.8-0.4-1.6-0.9-2.1-1.6c-0.6-0.7-1-1.5-1.3-2.4
			c-0.3-0.9-0.4-1.9-0.4-3c0-1.1,0.2-2.1,0.5-3c0.3-0.9,0.7-1.8,1.3-2.5c0.6-0.7,1.3-1.2,2.2-1.7c0.9-0.4,1.9-0.6,3-0.6
			c0.8,0,1.5,0.1,2.2,0.3c0.7,0.2,1.3,0.5,1.8,0.9c0.5,0.4,1,0.9,1.3,1.5c0.4,0.6,0.6,1.3,0.7,2.1h-1.9
			C179,95.7,178.5,94.9,177.7,94.4z"/>
		<path class="st0" d="M191.9,107.2c-0.5,0-0.8-0.1-1.1-0.4c-0.3-0.3-0.4-0.7-0.4-1.2c-0.5,0.6-1,1-1.7,1.2
			c-0.6,0.3-1.3,0.4-2.1,0.4c-0.5,0-0.9-0.1-1.4-0.2c-0.4-0.1-0.8-0.3-1.1-0.5c-0.3-0.2-0.6-0.5-0.8-0.9c-0.2-0.4-0.3-0.8-0.3-1.4
			c0-0.6,0.1-1.1,0.3-1.5c0.2-0.4,0.5-0.7,0.8-0.9c0.3-0.2,0.7-0.4,1.1-0.5c0.4-0.1,0.9-0.2,1.3-0.3c0.5-0.1,0.9-0.2,1.4-0.2
			c0.4,0,0.8-0.1,1.1-0.2c0.3-0.1,0.6-0.2,0.8-0.4c0.2-0.2,0.3-0.4,0.3-0.7c0-0.4-0.1-0.7-0.2-0.9c-0.1-0.2-0.3-0.4-0.6-0.5
			c-0.2-0.1-0.5-0.2-0.8-0.2c-0.3,0-0.6-0.1-0.8-0.1c-0.7,0-1.4,0.1-1.8,0.4c-0.5,0.3-0.8,0.8-0.8,1.6h-1.7c0-0.7,0.2-1.2,0.4-1.7
			c0.2-0.5,0.6-0.8,1-1.1c0.4-0.3,0.9-0.5,1.4-0.6c0.5-0.1,1.1-0.2,1.7-0.2c0.5,0,1,0,1.4,0.1c0.5,0.1,0.9,0.2,1.3,0.4
			c0.4,0.2,0.7,0.5,0.9,0.9c0.2,0.4,0.3,0.9,0.3,1.5v5.5c0,0.4,0,0.7,0.1,0.9c0,0.2,0.2,0.3,0.5,0.3c0.2,0,0.3,0,0.5-0.1v1.4
			C192.8,107.1,192.4,107.2,191.9,107.2z M189.4,101.8c-0.4,0.1-0.7,0.1-1.1,0.2c-0.4,0-0.8,0.1-1.2,0.2c-0.4,0.1-0.8,0.2-1.1,0.3
			c-0.3,0.1-0.6,0.3-0.8,0.6c-0.2,0.3-0.3,0.6-0.3,1c0,0.3,0.1,0.5,0.2,0.7c0.1,0.2,0.3,0.4,0.5,0.5c0.2,0.1,0.4,0.2,0.7,0.3
			c0.3,0.1,0.5,0.1,0.8,0.1c0.6,0,1.1-0.1,1.5-0.2c0.4-0.2,0.7-0.4,1-0.6c0.3-0.2,0.5-0.5,0.6-0.8c0.1-0.3,0.2-0.5,0.2-0.8v-1.8
			C190.1,101.6,189.8,101.8,189.4,101.8z"/>
		<path class="st0" d="M196.6,96.4v2.2h0c0.4-0.9,0.9-1.5,1.6-1.9c0.6-0.4,1.4-0.6,2.3-0.6V98c-0.7,0-1.3,0.1-1.8,0.3
			c-0.5,0.2-0.9,0.5-1.2,0.8c-0.3,0.4-0.5,0.8-0.7,1.3c-0.1,0.5-0.2,1.1-0.2,1.8v4.7H195V96.4H196.6z"/>
		<path class="st0" d="M209.3,106.3c-0.8,0.6-1.8,0.9-3,0.9c-0.8,0-1.6-0.1-2.2-0.4c-0.6-0.3-1.1-0.7-1.6-1.1
			c-0.4-0.5-0.7-1.1-1-1.8c-0.2-0.7-0.3-1.4-0.4-2.2c0-0.8,0.1-1.5,0.4-2.2c0.2-0.7,0.6-1.2,1-1.7c0.4-0.5,1-0.9,1.6-1.1
			c0.6-0.3,1.3-0.4,2-0.4c0.9,0,1.7,0.2,2.3,0.6c0.6,0.4,1.1,0.9,1.5,1.5c0.4,0.6,0.6,1.3,0.8,2c0.1,0.7,0.2,1.4,0.2,2h-7.9
			c0,0.5,0,0.9,0.2,1.3c0.1,0.4,0.3,0.8,0.6,1.1c0.3,0.3,0.6,0.6,1,0.8c0.4,0.2,0.9,0.3,1.5,0.3c0.7,0,1.3-0.2,1.8-0.5
			c0.5-0.3,0.8-0.9,0.9-1.6h1.7C210.6,104.8,210.1,105.7,209.3,106.3z M208.9,99.5c-0.2-0.4-0.4-0.7-0.6-1c-0.3-0.3-0.6-0.5-0.9-0.6
			c-0.4-0.2-0.8-0.2-1.2-0.2c-0.5,0-0.9,0.1-1.2,0.2c-0.4,0.2-0.7,0.4-0.9,0.6c-0.3,0.3-0.5,0.6-0.6,1c-0.2,0.4-0.2,0.7-0.3,1.2h6.1
			C209.1,100.2,209.1,99.8,208.9,99.5z"/>
	</g>
	<g>
		<path d="M16,66.5c-1.1-0.8-2.4-1.2-3.9-1.2c-1.3,0-2.4,0.2-3.3,0.7c-0.9,0.5-1.7,1.1-2.3,2c-0.6,0.8-1,1.8-1.3,2.8
			c-0.3,1-0.4,2.1-0.4,3.3c0,1.2,0.1,2.4,0.4,3.5c0.3,1.1,0.7,2.1,1.3,2.9c0.6,0.8,1.4,1.5,2.3,2c0.9,0.5,2,0.7,3.3,0.7
			c0.9,0,1.8-0.2,2.5-0.5c0.7-0.3,1.4-0.7,1.9-1.3c0.5-0.6,1-1.2,1.3-2c0.3-0.8,0.5-1.6,0.5-2.5h2.9c-0.3,2.7-1.2,4.8-2.8,6.4
			c-1.6,1.5-3.8,2.3-6.5,2.3c-1.7,0-3.1-0.3-4.4-0.9c-1.3-0.6-2.3-1.4-3.1-2.4c-0.8-1-1.4-2.2-1.9-3.6c-0.4-1.4-0.6-2.8-0.6-4.4
			c0-1.6,0.2-3.1,0.7-4.4c0.4-1.4,1.1-2.6,2-3.6c0.9-1,1.9-1.8,3.2-2.4C9,63.3,10.4,63,12.1,63c1.1,0,2.2,0.2,3.2,0.5
			s1.9,0.7,2.7,1.3c0.8,0.6,1.4,1.3,2,2.2c0.5,0.9,0.9,1.9,1,3h-2.9C17.8,68.4,17.1,67.3,16,66.5z"/>
		<path d="M34.3,63.5l8.4,21.6h-3.2l-2.4-6.5h-9.1l-2.4,6.5h-2.9l8.4-21.6H34.3z M36.3,76.2l-3.6-10.1h-0.1L29,76.2H36.3z"/>
		<path d="M48.3,63.5L59.7,81h0.1V63.5h2.7v21.6h-3.1L48.1,67.7H48v17.4h-2.7V63.5H48.3z"/>
		<path d="M67.1,70c0.4-1.4,1.1-2.6,2-3.6c0.9-1,1.9-1.9,3.2-2.5c1.3-0.6,2.8-0.9,4.5-0.9c1.7,0,3.2,0.3,4.5,0.9
			c1.3,0.6,2.4,1.5,3.2,2.5c0.9,1,1.5,2.3,2,3.6c0.4,1.4,0.7,2.8,0.7,4.3s-0.2,2.9-0.7,4.3c-0.4,1.4-1.1,2.6-2,3.6
			c-0.9,1-1.9,1.9-3.2,2.5c-1.3,0.6-2.8,0.9-4.5,0.9c-1.7,0-3.2-0.3-4.5-0.9C71,84,69.9,83.2,69,82.2c-0.9-1-1.5-2.3-2-3.6
			c-0.4-1.4-0.7-2.8-0.7-4.3S66.6,71.4,67.1,70z M69.7,77.5c0.3,1.1,0.7,2,1.3,2.9c0.6,0.8,1.4,1.5,2.3,2c0.9,0.5,2.1,0.8,3.4,0.8
			c1.3,0,2.4-0.3,3.4-0.8c0.9-0.5,1.7-1.2,2.3-2c0.6-0.8,1-1.8,1.3-2.9c0.3-1.1,0.4-2.1,0.4-3.2c0-1.1-0.1-2.2-0.4-3.2
			c-0.3-1.1-0.7-2-1.3-2.9c-0.6-0.8-1.4-1.5-2.3-2c-0.9-0.5-2.1-0.8-3.4-0.8c-1.3,0-2.4,0.3-3.4,0.8c-0.9,0.5-1.7,1.2-2.3,2
			c-0.6,0.8-1,1.8-1.3,2.9c-0.3,1.1-0.4,2.1-0.4,3.2C69.3,75.4,69.4,76.4,69.7,77.5z"/>
		<path d="M107.6,85.1l-4.9-18.2h-0.1l-5,18.2h-3l-5.5-21.6H92l4.2,18h0.1l4.8-18h3.1l4.8,18h0.1l4.4-18h2.9l-5.8,21.6H107.6z"/>
		<path d="M122.6,63.5v21.6h-2.9V63.5H122.6z"/>
		<path d="M130.9,63.5L142.3,81h0.1V63.5h2.7v21.6h-3.1l-11.3-17.4h-0.1v17.4h-2.7V63.5H130.9z"/>
		<path d="M157.6,63.5c3.3,0,5.9,0.8,7.7,2.5c1.8,1.7,2.7,4.3,2.7,7.8c0,1.8-0.2,3.4-0.6,4.8c-0.4,1.4-1,2.6-1.9,3.5
			c-0.8,1-1.9,1.7-3.2,2.2c-1.3,0.5-2.9,0.8-4.7,0.8h-7.4V63.5H157.6z M157.9,82.7c0.3,0,0.7,0,1.2-0.1c0.5,0,1-0.2,1.5-0.4
			c0.5-0.2,1.1-0.5,1.6-0.8c0.5-0.4,1-0.9,1.4-1.5c0.4-0.6,0.8-1.4,1-2.3c0.3-0.9,0.4-2.1,0.4-3.4c0-1.3-0.1-2.4-0.4-3.5
			c-0.3-1-0.7-1.9-1.2-2.6c-0.6-0.7-1.3-1.3-2.2-1.6c-0.9-0.4-2-0.6-3.4-0.6h-4.8v16.8H157.9z"/>
		<path d="M182.1,63.5c2.1,0,3.7,0.5,4.8,1.5c1.2,1,1.7,2.4,1.7,4.1c0,1.3-0.3,2.5-0.9,3.5c-0.6,1-1.5,1.7-2.9,2v0.1
			c0.6,0.1,1.1,0.3,1.5,0.6c0.4,0.3,0.7,0.6,0.9,1c0.2,0.4,0.4,0.8,0.5,1.3c0.1,0.5,0.2,1,0.3,1.5c0,0.5,0.1,1.1,0.1,1.6
			c0,0.5,0.1,1.1,0.2,1.6c0.1,0.5,0.2,1,0.3,1.5c0.2,0.5,0.4,0.9,0.7,1.3h-3.2c-0.2-0.2-0.3-0.5-0.4-0.9c-0.1-0.4-0.1-0.8-0.1-1.3
			c0-0.5,0-1-0.1-1.5c0-0.5-0.1-1.1-0.2-1.6c-0.1-0.5-0.2-1-0.3-1.5c-0.1-0.5-0.3-0.9-0.6-1.2c-0.3-0.4-0.6-0.6-1-0.8
			c-0.4-0.2-1-0.3-1.7-0.3h-7v9.2H172V63.5H182.1z M182.8,73.3c0.6-0.1,1.1-0.3,1.6-0.6c0.5-0.3,0.8-0.7,1.1-1.2
			c0.3-0.5,0.4-1.1,0.4-1.9c0-1.1-0.3-2-0.9-2.7c-0.6-0.7-1.6-1-2.9-1h-7.1v7.5h6C181.5,73.4,182.1,73.4,182.8,73.3z"/>
		<path d="M202.2,63.5l8.4,21.6h-3.2l-2.4-6.5H196l-2.4,6.5h-2.9l8.4-21.6H202.2z M204.2,76.2l-3.6-10.1h-0.1l-3.7,10.1H204.2z"/>
	</g>
</g>
<g>
</g>
<g>
</g>
<g>
</g>
<g>
</g>
<g>
</g>
<g>
</g>
</svg>
