<?xml version="1.0" encoding="utf-8"?>
<!-- Generator: Adobe Illustrator 19.1.0, SVG Export Plug-In . SVG Version: 6.00 Build 0)  -->
<!DOCTYPE svg PUBLIC "-//W3C//DTD SVG 1.1//EN" "http://www.w3.org/Graphics/SVG/1.1/DTD/svg11.dtd">
<svg version="1.1" id="Layer_1" xmlns="http://www.w3.org/2000/svg" xmlns:xlink="http://www.w3.org/1999/xlink" x="0px" y="0px"
	 viewBox="0 0 385.5 73.7" style="enable-background:new 0 0 385.5 73.7;" xml:space="preserve">
<style type="text/css">
	.st0{fill:#6D6E71;}
	.st1{fill:#6CB33F;}
</style>
<rect x="2.9" y="39.3" class="st0" width="380.1" height="1"/>
<g>
	<path class="st1" d="M3.4,28.3h3.2c1.3,0,1.9-0.8,1.9-2.1V7.4c0-1.4-0.5-2.1-1.9-2.1H3.4V3.1h17.1c5,0,9.7,1.9,9.7,6.9
		c0,4.5-3.8,6.1-7.6,6.4v0.1c4.9,0.5,6,3.8,6,10.1c0,1.8,0.3,2.1,1.3,2.1c1.3,0,1.4-2.1,1.4-3.1v-2.1h2.1c0,6-1.5,7.6-4.7,7.6
		c-2.9,0-4.3-1.6-4.3-3.9c0-7.2-1.2-10.1-6.8-10.1h-5.4v8.9c0,1.3,0.6,2.1,1.9,2.1h3.2v2.1H3.4V28.3z M12.5,15.1h6.6
		c4.2,0,6.7-1.2,6.7-5c0-3.7-1.7-5-7.5-5h-5.8V15.1z"/>
	<path class="st1" d="M43.2,26.6c0,1.3,0.3,1.9,1.7,1.9h2.6v1.9H35.3v-1.9H38c1.4,0,1.7-0.6,1.7-1.9V15c0-1.3-0.3-1.9-1.7-1.9h-2.7
		v-1.9h7.8V26.6z M40.9,7.2c-1.2,0-2.2-1-2.2-2.2c0-1.2,1-2.2,2.2-2.2c1.2,0,2.2,1,2.2,2.2C43.1,6.2,42.1,7.2,40.9,7.2z"/>
	<path class="st1" d="M48.8,11.1h9.8v1.9h-1.6c-1.3,0-1.8,0.2-1.8,0.7c0,0.5,0.4,1.1,0.9,2.4l4,10.1h0.1l4.3-10.6
		c0.3-0.8,0.5-1.4,0.5-1.9c0-0.5-0.8-0.8-2.3-0.8h-1.1v-1.9h9v1.9h-0.6c-1.4,0-2,0.6-2.4,1.7l-6.9,15.9h-2.3l-6.7-16.1
		c-0.4-0.9-1-1.5-2.4-1.5h-0.6V11.1z"/>
	<path class="st1" d="M76.1,21c0,4.2,0.9,8.1,5.8,8.1c3.3,0,5.3-1.7,6.2-5h2.4c-0.9,4.5-3.8,6.9-8.6,6.9c-6.1,0-9.7-3.5-9.7-10.3
		c0-6.8,3.5-10.3,9.7-10.3c6.6,0,8.8,4.7,9.2,10.5H76.1z M87.1,19.1c0-3.6-1.6-6.6-5.4-6.6c-3.8,0-5.6,3.1-5.6,6.6H87.1z"/>
	<path class="st1" d="M100.8,15.3L100.8,15.3c1.1-2.8,3.5-4.8,5.9-4.8c2.8,0,4.7,1.5,4.7,4.4c0,1.6-0.7,2.8-2.3,2.8
		c-1.1,0-2.3-0.7-2.3-1.9c0-1.5,1-2.1,2.5-2.1c-0.2-0.9-1.5-1.2-2.4-1.2c-3.9,0-5.9,4.5-5.9,8.6v5.6c0,1.3,0.7,1.9,2.1,1.9h2.2v1.9
		H93.1v-1.9h2.7c1.4,0,1.7-0.6,1.7-1.9V15c0-1.3-0.3-1.9-1.7-1.9H93v-1.9h7.8V15.3z"/>
	<path class="st1" d="M113.1,11.1h9.8v1.9h-1.6c-1.3,0-1.8,0.2-1.8,0.7c0,0.5,0.4,1.1,0.9,2.4l4,10.1h0.1l4.3-10.6
		c0.3-0.8,0.5-1.4,0.5-1.9c0-0.5-0.8-0.8-2.3-0.8H126v-1.9h9v1.9h-0.6c-1.4,0-2,0.6-2.4,1.7L125,30.7h-2.3l-6.7-16.1
		c-0.4-0.9-1-1.5-2.4-1.5h-0.6V11.1z"/>
	<path class="st1" d="M144.1,26.6c0,1.3,0.3,1.9,1.7,1.9h2.6v1.9h-12.1v-1.9h2.7c1.4,0,1.7-0.6,1.7-1.9V15c0-1.3-0.3-1.9-1.7-1.9
		h-2.7v-1.9h7.8V26.6z M141.8,7.2c-1.2,0-2.2-1-2.2-2.2c0-1.2,1-2.2,2.2-2.2c1.2,0,2.2,1,2.2,2.2C144,6.2,143,7.2,141.8,7.2z"/>
	<path class="st1" d="M154.1,21c0,4.2,0.9,8.1,5.8,8.1c3.3,0,5.3-1.7,6.2-5h2.4c-0.9,4.5-3.8,6.9-8.6,6.9c-6.1,0-9.7-3.5-9.7-10.3
		c0-6.8,3.5-10.3,9.7-10.3c6.6,0,8.8,4.7,9.2,10.5H154.1z M165,19.1c0-3.6-1.6-6.6-5.4-6.6c-3.8,0-5.6,3.1-5.6,6.6H165z"/>
	<path class="st1" d="M170.5,11.1h9.4v1.9h-1.5c-1,0-1.3,0.2-1.3,0.8c0,0.5,0.2,0.8,0.4,1.3l4.1,11h0.1l4.4-10.8
		c-0.6-1.3-1.4-2.3-2.6-2.3h-1.1v-1.9h9.7v1.9h-1.7c-1.2,0-1.5,0.2-1.5,0.7c0,0.5,0.3,0.9,0.5,1.5l4,11.2h0.1l4.2-11.3
		c0.2-0.5,0.3-0.9,0.3-1.3c0-0.5-1.1-0.8-2.3-0.8H195v-1.9h8.6v1.9H203c-1.4,0-2.1,0.8-2.6,1.9l-6.2,15.6h-2.4l-4.8-12l-4.7,12h-2.3
		l-6.5-16.2c-0.4-0.9-1-1.4-2.4-1.4h-0.5V11.1z"/>
	<path class="st1" d="M238.7,13.2h-2.1c-1.2-4.5-3.8-8.7-9.2-8.7c-7.4,0-9.4,5.7-9.4,13.4c0,6.6,3.8,11.1,9.1,11.1
		c4.7,0,8.4-2.7,8.4-5.1v-3.2c0-1.4-0.5-2.1-1.9-2.1h-3.4v-2.1h14v2.1h-2.8c-1.4,0-1.9,0.8-1.9,2.1v9.9h-2.1l-1.5-2.5
		c-2.4,2.1-6.4,3.1-8.8,3.1c-7.7,0-13.5-4.8-13.5-14.5c0-8.8,5.7-14.5,13-14.5c3.3,0,6.6,1.1,9,3.5l1.3-2.9h1.9V13.2z"/>
	<path class="st1" d="M262.4,26.9c0,1.2,0.3,2.2,1.1,2.2c1.8,0,1.9-2.3,1.9-3.5v-1.7h1.9v1.2c0,4.4-1.5,6-4.6,6
		c-2.1,0-3.3-1.2-3.6-3.2c-2,2.2-4.3,3.2-7.3,3.2c-3.3,0-6.1-1.5-6.1-5.2c0-5.4,7.4-5.3,11.6-7.3c1.3-0.6,1.6-1.4,1.6-2.6
		c0-2.4-1-3.5-4.6-3.5c-1.6,0-3.6,0.2-4.8,1.6c1.2,0.2,1.9,0.9,1.9,2.1c0,1.6-1.3,2.2-2.5,2.2c-1.4,0-2.1-1.3-2.1-2.9
		c0-3.5,4.7-4.9,7.8-4.9c4.7,0,7.8,1.4,7.8,6.8V26.9z M258.9,19.9c-1.8,1-3.7,1.4-6.1,2.5c-2.2,0.9-3.1,1.9-3.1,3.3
		c0,2.1,1.2,3.4,3.3,3.4c2.7,0,6-2.6,6-5.4V19.9z"/>
	<path class="st1" d="M276.7,15.3L276.7,15.3c1.1-2.8,3.5-4.8,5.9-4.8c2.8,0,4.7,1.5,4.7,4.4c0,1.6-0.7,2.8-2.3,2.8
		c-1.1,0-2.3-0.7-2.3-1.9c0-1.5,1-2.1,2.5-2.1c-0.2-0.9-1.5-1.2-2.4-1.2c-3.9,0-5.9,4.5-5.9,8.6v5.6c0,1.3,0.7,1.9,2.1,1.9h2.2v1.9
		H269v-1.9h2.7c1.4,0,1.7-0.6,1.7-1.9V15c0-1.3-0.3-1.9-1.7-1.9h-2.8v-1.9h7.8V15.3z"/>
	<path class="st1" d="M305.5,26.7L305.5,26.7c-1.6,2.8-3.3,4.3-6.9,4.3c-6.2,0-8.9-5.2-8.9-10.3c0-5,2.7-10.3,8.9-10.3
		c2.6,0,5.4,1.5,6.9,4.1h0.1V7.4c0-1.4-0.5-2.4-1.9-2.4h-2.1V3.1h7.6V27c0,1,0.6,1.5,1.5,1.5h2.4v1.9h-7.4V26.7z M293.6,20.8
		c0,4.7,1.7,8,5.4,8c4.7,0,6.4-3.8,6.4-8c0-4.1-1.7-8-5.9-8C295.2,12.8,293.6,16.7,293.6,20.8z"/>
	<path class="st1" d="M318.5,21c0,4.2,0.9,8.1,5.8,8.1c3.3,0,5.3-1.7,6.2-5h2.4c-0.9,4.5-3.8,6.9-8.6,6.9c-6.1,0-9.7-3.5-9.7-10.3
		c0-6.8,3.5-10.3,9.7-10.3c6.6,0,8.8,4.7,9.2,10.5H318.5z M329.5,19.1c0-3.6-1.6-6.6-5.4-6.6c-3.8,0-5.6,3.1-5.6,6.6H329.5z"/>
	<path class="st1" d="M342.9,14.6L342.9,14.6c1.7-2.6,4.2-4.1,7.4-4.1c4.3,0,6.6,2.8,6.6,7.1v9c0,1.3,0.3,1.9,1.7,1.9h2.5v1.9h-11.6
		v-1.9h2.3c1.4,0,1.7-0.6,1.7-1.9v-9.2c0-2.8-1.1-4.5-4.3-4.5c-3.9,0-6.2,3.1-6.2,6.4v7.3c0,1.3,0.3,1.9,1.7,1.9h2.5v1.9h-12v-1.9
		h2.7c1.4,0,1.7-0.6,1.7-1.9V15c0-1.3-0.3-1.9-1.7-1.9h-2.7v-1.9h7.8V14.6z"/>
	<path class="st1" d="M365.5,22.7c0.6,3.9,3.8,6.5,7.7,6.5c2.5,0,4.3-1.2,4.3-3.2c0-5.3-13.9-1.2-13.9-9.7c0-4.1,3.8-5.7,7.3-5.7
		c2.3,0,4.7,0.8,6.4,2.4l0.7-1.9h1.9v7.6H378c-0.5-3.6-3.6-6.1-7-6.1c-1.8,0-3.9,0.6-3.9,3.3c0,4.9,13.9,1.2,13.9,9.3
		c0,4.3-3.9,6-7.7,6c-2.6,0-5.1-0.8-7-2.6l-0.8,2.1h-2.1v-8H365.5z"/>
</g>
<g>
	<g>
		<path class="st0" d="M149.3,49.2c1.6,0,2.9,0.4,3.8,1.2c0.9,0.8,1.4,1.9,1.4,3.3c0,1-0.2,2-0.7,2.7c-0.5,0.8-1.2,1.3-2.2,1.6v0
			c0.5,0.1,0.9,0.3,1.2,0.5c0.3,0.2,0.6,0.5,0.7,0.8c0.2,0.3,0.3,0.7,0.4,1c0.1,0.4,0.2,0.8,0.2,1.2c0,0.4,0.1,0.8,0.1,1.3
			c0,0.4,0.1,0.9,0.1,1.3c0.1,0.4,0.2,0.8,0.3,1.2c0.1,0.4,0.3,0.7,0.5,1h-2.5c-0.2-0.2-0.3-0.4-0.3-0.7c-0.1-0.3-0.1-0.6-0.1-1
			c0-0.4,0-0.8,0-1.2c0-0.4-0.1-0.9-0.1-1.3c-0.1-0.4-0.1-0.8-0.2-1.2c-0.1-0.4-0.2-0.7-0.5-1c-0.2-0.3-0.5-0.5-0.8-0.7
			c-0.3-0.2-0.8-0.3-1.3-0.3h-5.5v7.4h-2.3V49.2H149.3z M149.8,57c0.5-0.1,0.9-0.2,1.2-0.5c0.4-0.2,0.6-0.5,0.9-0.9
			c0.2-0.4,0.3-0.9,0.3-1.5c0-0.9-0.2-1.6-0.7-2.1c-0.5-0.5-1.2-0.8-2.3-0.8h-5.6v6h4.7C148.8,57.1,149.3,57.1,149.8,57z"/>
		<path class="st0" d="M166.3,65.6c-0.9,0.7-2.1,1.1-3.5,1.1c-1,0-1.8-0.2-2.6-0.5c-0.7-0.3-1.3-0.8-1.8-1.4
			c-0.5-0.6-0.9-1.3-1.1-2.1c-0.2-0.8-0.4-1.7-0.4-2.6c0-0.9,0.1-1.8,0.4-2.6c0.3-0.8,0.7-1.5,1.2-2c0.5-0.6,1.1-1,1.8-1.4
			c0.7-0.3,1.5-0.5,2.3-0.5c1.1,0,2,0.2,2.7,0.7c0.7,0.5,1.3,1,1.7,1.7c0.4,0.7,0.7,1.5,0.9,2.3c0.2,0.8,0.2,1.6,0.2,2.4h-9.2
			c0,0.5,0,1.1,0.2,1.6c0.1,0.5,0.4,0.9,0.7,1.3c0.3,0.4,0.7,0.7,1.2,0.9c0.5,0.2,1.1,0.3,1.7,0.3c0.9,0,1.6-0.2,2.1-0.6
			c0.5-0.4,0.9-1,1.1-1.8h2C167.9,63.8,167.3,64.9,166.3,65.6z M165.9,57.6c-0.2-0.4-0.4-0.8-0.7-1.1c-0.3-0.3-0.7-0.6-1.1-0.7
			c-0.4-0.2-0.9-0.3-1.4-0.3c-0.5,0-1,0.1-1.4,0.3c-0.4,0.2-0.8,0.4-1.1,0.8c-0.3,0.3-0.5,0.7-0.7,1.1c-0.2,0.4-0.3,0.9-0.3,1.4h7.1
			C166.2,58.5,166,58,165.9,57.6z"/>
		<path class="st0" d="M172.3,63.6c0.2,0.3,0.4,0.6,0.7,0.7c0.3,0.2,0.7,0.3,1,0.4c0.4,0.1,0.8,0.1,1.2,0.1c0.3,0,0.6,0,1-0.1
			c0.3,0,0.7-0.1,1-0.3c0.3-0.1,0.5-0.3,0.7-0.6c0.2-0.2,0.3-0.6,0.3-1c0-0.5-0.2-0.9-0.6-1.2c-0.4-0.3-0.9-0.5-1.5-0.7
			c-0.6-0.2-1.2-0.3-1.9-0.5c-0.7-0.1-1.3-0.3-1.9-0.6c-0.6-0.2-1.1-0.6-1.5-1c-0.4-0.5-0.6-1.1-0.6-1.9c0-0.6,0.1-1.2,0.4-1.6
			c0.3-0.5,0.6-0.8,1.1-1.1c0.4-0.3,0.9-0.5,1.5-0.6c0.5-0.1,1.1-0.2,1.6-0.2c0.7,0,1.3,0.1,1.9,0.2c0.6,0.1,1.1,0.3,1.6,0.6
			c0.5,0.3,0.8,0.7,1.1,1.2c0.3,0.5,0.4,1.1,0.5,1.9h-2c0-0.4-0.1-0.7-0.3-1c-0.2-0.3-0.4-0.5-0.7-0.6c-0.3-0.2-0.6-0.3-0.9-0.3
			c-0.3-0.1-0.7-0.1-1-0.1c-0.3,0-0.6,0-0.9,0.1c-0.3,0-0.6,0.1-0.8,0.3c-0.3,0.1-0.5,0.3-0.6,0.5c-0.2,0.2-0.2,0.5-0.2,0.8
			c0,0.4,0.1,0.6,0.4,0.9c0.2,0.2,0.6,0.4,0.9,0.6c0.4,0.2,0.8,0.3,1.3,0.4c0.5,0.1,1,0.2,1.4,0.3c0.5,0.1,1,0.2,1.5,0.4
			c0.5,0.2,0.9,0.4,1.3,0.6c0.4,0.3,0.7,0.6,0.9,1c0.2,0.4,0.3,0.9,0.3,1.5c0,0.8-0.2,1.4-0.5,1.9c-0.3,0.5-0.7,0.9-1.2,1.2
			c-0.5,0.3-1.1,0.5-1.7,0.6c-0.6,0.1-1.2,0.2-1.9,0.2c-0.7,0-1.3-0.1-1.9-0.2s-1.2-0.4-1.6-0.7c-0.5-0.3-0.9-0.8-1.1-1.3
			c-0.3-0.5-0.4-1.2-0.5-2h2C172,62.9,172.1,63.3,172.3,63.6z"/>
		<path class="st0" d="M183.1,51.7v-2.5h2v2.5H183.1z M185.1,53.9v12.5h-2V53.9H185.1z"/>
		<path class="st0" d="M197.6,66.4v-1.7h0c-0.3,0.7-0.9,1.2-1.6,1.5c-0.7,0.3-1.5,0.5-2.4,0.5c-1,0-1.8-0.2-2.5-0.5
			c-0.7-0.4-1.3-0.8-1.8-1.4c-0.5-0.6-0.8-1.3-1.1-2.1c-0.2-0.8-0.4-1.6-0.4-2.5c0-0.9,0.1-1.7,0.3-2.5c0.2-0.8,0.6-1.5,1-2.1
			c0.5-0.6,1.1-1.1,1.8-1.4s1.5-0.5,2.5-0.5c0.3,0,0.7,0,1,0.1c0.4,0.1,0.7,0.2,1.1,0.3c0.4,0.2,0.7,0.4,1,0.6
			c0.3,0.2,0.6,0.6,0.8,0.9h0v-6.4h2v17.2H197.6z M190.3,62c0.2,0.6,0.4,1,0.7,1.5c0.3,0.4,0.7,0.8,1.2,1c0.5,0.3,1,0.4,1.7,0.4
			c0.7,0,1.3-0.1,1.7-0.4c0.5-0.3,0.9-0.6,1.2-1.1c0.3-0.4,0.5-0.9,0.7-1.5c0.1-0.6,0.2-1.1,0.2-1.7c0-0.6-0.1-1.2-0.2-1.8
			c-0.1-0.6-0.4-1.1-0.7-1.5c-0.3-0.4-0.7-0.8-1.2-1c-0.5-0.3-1.1-0.4-1.8-0.4c-0.7,0-1.3,0.1-1.7,0.4c-0.5,0.3-0.9,0.6-1.1,1.1
			c-0.3,0.5-0.5,1-0.6,1.5c-0.1,0.6-0.2,1.2-0.2,1.8C190.1,60.9,190.2,61.4,190.3,62z"/>
		<path class="st0" d="M211.8,65.6c-0.9,0.7-2.1,1.1-3.5,1.1c-1,0-1.8-0.2-2.6-0.5c-0.7-0.3-1.3-0.8-1.8-1.4
			c-0.5-0.6-0.9-1.3-1.1-2.1c-0.2-0.8-0.4-1.7-0.4-2.6c0-0.9,0.1-1.8,0.4-2.6c0.3-0.8,0.7-1.5,1.2-2c0.5-0.6,1.1-1,1.8-1.4
			c0.7-0.3,1.5-0.5,2.3-0.5c1.1,0,2,0.2,2.7,0.7c0.7,0.5,1.3,1,1.7,1.7c0.4,0.7,0.7,1.5,0.9,2.3c0.2,0.8,0.2,1.6,0.2,2.4h-9.2
			c0,0.5,0,1.1,0.2,1.6c0.1,0.5,0.4,0.9,0.7,1.3c0.3,0.4,0.7,0.7,1.2,0.9c0.5,0.2,1.1,0.3,1.7,0.3c0.9,0,1.6-0.2,2.1-0.6
			c0.5-0.4,0.9-1,1.1-1.8h2C213.3,63.8,212.7,64.9,211.8,65.6z M211.3,57.6c-0.2-0.4-0.4-0.8-0.7-1.1c-0.3-0.3-0.7-0.6-1.1-0.7
			c-0.4-0.2-0.9-0.3-1.4-0.3c-0.5,0-1,0.1-1.4,0.3c-0.4,0.2-0.8,0.4-1.1,0.8c-0.3,0.3-0.5,0.7-0.7,1.1c-0.2,0.4-0.3,0.9-0.3,1.4h7.1
			C211.6,58.5,211.4,58,211.3,57.6z"/>
		<path class="st0" d="M218.1,53.9v2h0c0.8-1.5,2.2-2.3,4-2.3c0.8,0,1.5,0.1,2,0.3c0.5,0.2,1,0.5,1.3,0.9c0.3,0.4,0.6,0.9,0.7,1.4
			c0.1,0.6,0.2,1.2,0.2,1.8v8.2h-2V58c0-0.8-0.2-1.4-0.7-1.8c-0.4-0.4-1.1-0.7-1.8-0.7c-0.6,0-1.2,0.1-1.6,0.3
			c-0.5,0.2-0.8,0.5-1.1,0.8s-0.5,0.8-0.7,1.2c-0.2,0.5-0.2,1-0.2,1.6v7h-2V53.9H218.1z"/>
		<path class="st0" d="M235,53.9v1.8h-2.4v7.7c0,0.2,0,0.4,0.1,0.6c0,0.1,0.1,0.3,0.2,0.3c0.1,0.1,0.3,0.1,0.5,0.2
			c0.2,0,0.5,0,0.8,0h0.9v1.8h-1.5c-0.5,0-1,0-1.3-0.1c-0.4-0.1-0.7-0.2-0.9-0.4c-0.2-0.2-0.4-0.5-0.5-0.8c-0.1-0.4-0.2-0.8-0.2-1.4
			v-7.9h-2.1v-1.8h2.1v-3.7h2v3.7H235z"/>
		<path class="st0" d="M237.7,51.7v-2.5h2v2.5H237.7z M239.7,53.9v12.5h-2V53.9H239.7z"/>
		<path class="st0" d="M252.6,66.7c-0.5,0-0.9-0.1-1.2-0.4c-0.3-0.3-0.5-0.8-0.5-1.5c-0.6,0.7-1.2,1.2-1.9,1.5
			c-0.7,0.3-1.5,0.4-2.4,0.4c-0.6,0-1.1-0.1-1.6-0.2c-0.5-0.1-0.9-0.3-1.3-0.6c-0.4-0.3-0.7-0.6-0.9-1.1c-0.2-0.4-0.3-1-0.3-1.6
			c0-0.7,0.1-1.3,0.4-1.7c0.2-0.5,0.5-0.8,0.9-1.1c0.4-0.3,0.8-0.5,1.3-0.6c0.5-0.1,1-0.3,1.5-0.4c0.6-0.1,1.1-0.2,1.6-0.3
			c0.5-0.1,0.9-0.1,1.3-0.2c0.4-0.1,0.7-0.3,0.9-0.5c0.2-0.2,0.3-0.5,0.3-0.9c0-0.4-0.1-0.8-0.2-1.1c-0.2-0.3-0.4-0.5-0.6-0.6
			c-0.3-0.1-0.6-0.2-0.9-0.3c-0.3,0-0.6-0.1-1-0.1c-0.9,0-1.6,0.2-2.1,0.5c-0.6,0.3-0.9,1-0.9,1.9h-2c0-0.8,0.2-1.4,0.5-2
			c0.3-0.5,0.7-1,1.1-1.3c0.5-0.3,1-0.6,1.6-0.7c0.6-0.1,1.3-0.2,1.9-0.2c0.6,0,1.1,0,1.7,0.1c0.5,0.1,1,0.2,1.5,0.5
			c0.4,0.2,0.8,0.6,1.1,1c0.3,0.5,0.4,1,0.4,1.8v6.4c0,0.5,0,0.8,0.1,1.1c0.1,0.2,0.2,0.3,0.6,0.3c0.2,0,0.4,0,0.6-0.1v1.6
			C253.7,66.6,253.2,66.7,252.6,66.7z M249.8,60.4c-0.4,0.1-0.8,0.2-1.3,0.2c-0.5,0.1-0.9,0.1-1.4,0.2c-0.5,0.1-0.9,0.2-1.2,0.3
			c-0.4,0.2-0.7,0.4-0.9,0.7c-0.2,0.3-0.3,0.7-0.3,1.2c0,0.3,0.1,0.6,0.2,0.9c0.1,0.2,0.3,0.4,0.5,0.6c0.2,0.1,0.5,0.2,0.8,0.3
			c0.3,0.1,0.6,0.1,0.9,0.1c0.7,0,1.2-0.1,1.7-0.3c0.5-0.2,0.9-0.4,1.2-0.7c0.3-0.3,0.5-0.6,0.7-0.9c0.1-0.3,0.2-0.6,0.2-0.9V60
			C250.5,60.2,250.2,60.3,249.8,60.4z"/>
		<path class="st0" d="M258.4,49.2v17.2h-2V49.2H258.4z"/>
		<path class="st0" d="M276.3,49.2l6.6,17.2h-2.5l-1.9-5.2h-7.2l-1.9,5.2h-2.3l6.6-17.2H276.3z M277.9,59.3l-2.8-8h0l-2.9,8H277.9z"
			/>
		<path class="st0" d="M293.8,69.9c-0.9,1-2.4,1.5-4.3,1.5c-0.6,0-1.2-0.1-1.7-0.2c-0.6-0.1-1.1-0.3-1.6-0.6
			c-0.5-0.3-0.9-0.7-1.2-1.1c-0.3-0.5-0.5-1-0.5-1.7h2c0,0.4,0.1,0.7,0.3,0.9c0.2,0.3,0.5,0.5,0.8,0.6c0.3,0.2,0.6,0.3,1,0.3
			c0.4,0.1,0.7,0.1,1,0.1c0.7,0,1.2-0.1,1.7-0.3c0.5-0.2,0.8-0.6,1.1-1c0.3-0.4,0.5-0.9,0.7-1.5c0.1-0.6,0.2-1.2,0.2-1.9v-0.8h0
			c-0.3,0.8-0.9,1.3-1.6,1.7c-0.7,0.4-1.5,0.5-2.2,0.5c-0.9,0-1.7-0.2-2.4-0.5c-0.7-0.3-1.3-0.8-1.7-1.4c-0.5-0.6-0.8-1.2-1-2
			c-0.2-0.8-0.3-1.6-0.3-2.4c0-0.7,0.1-1.5,0.3-2.3c0.2-0.8,0.5-1.5,1-2.1c0.4-0.6,1-1.2,1.8-1.6c0.7-0.4,1.6-0.6,2.7-0.6
			c0.8,0,1.5,0.2,2.1,0.5c0.6,0.3,1.2,0.9,1.5,1.6h0v-1.8h1.9v11.4C295.2,67.4,294.8,68.9,293.8,69.9z M291.3,64.3
			c0.5-0.3,0.8-0.7,1.1-1.1c0.3-0.5,0.5-1,0.6-1.6c0.1-0.6,0.2-1.2,0.2-1.7c0-0.5-0.1-1.1-0.2-1.6c-0.1-0.5-0.3-1-0.6-1.4
			c-0.3-0.4-0.6-0.8-1.1-1c-0.4-0.3-1-0.4-1.6-0.4c-0.6,0-1.2,0.1-1.7,0.4c-0.5,0.2-0.8,0.6-1.1,1c-0.3,0.4-0.5,0.9-0.6,1.4
			c-0.1,0.5-0.2,1.1-0.2,1.7c0,0.6,0.1,1.1,0.2,1.7c0.1,0.6,0.3,1.1,0.6,1.5c0.3,0.5,0.6,0.8,1.1,1.1c0.4,0.3,1,0.4,1.7,0.4
			S290.8,64.6,291.3,64.3z"/>
		<path class="st0" d="M307.3,65.6c-0.9,0.7-2.1,1.1-3.5,1.1c-1,0-1.8-0.2-2.6-0.5c-0.7-0.3-1.3-0.8-1.8-1.4
			c-0.5-0.6-0.9-1.3-1.1-2.1c-0.2-0.8-0.4-1.7-0.4-2.6c0-0.9,0.1-1.8,0.4-2.6c0.3-0.8,0.7-1.5,1.2-2c0.5-0.6,1.1-1,1.8-1.4
			c0.7-0.3,1.5-0.5,2.3-0.5c1.1,0,2,0.2,2.7,0.7c0.7,0.5,1.3,1,1.7,1.7c0.4,0.7,0.7,1.5,0.9,2.3c0.2,0.8,0.2,1.6,0.2,2.4h-9.2
			c0,0.5,0,1.1,0.2,1.6c0.1,0.5,0.4,0.9,0.7,1.3c0.3,0.4,0.7,0.7,1.2,0.9c0.5,0.2,1.1,0.3,1.7,0.3c0.9,0,1.6-0.2,2.1-0.6
			c0.5-0.4,0.9-1,1.1-1.8h2C308.8,63.8,308.2,64.9,307.3,65.6z M306.8,57.6c-0.2-0.4-0.4-0.8-0.7-1.1c-0.3-0.3-0.7-0.6-1.1-0.7
			c-0.4-0.2-0.9-0.3-1.4-0.3c-0.5,0-1,0.1-1.4,0.3c-0.4,0.2-0.8,0.4-1.1,0.8c-0.3,0.3-0.5,0.7-0.7,1.1c-0.2,0.4-0.3,0.9-0.3,1.4h7.1
			C307.1,58.5,307,58,306.8,57.6z"/>
		<path class="st0" d="M320.7,66.4v-1.7h0c-0.3,0.7-0.9,1.2-1.6,1.5c-0.7,0.3-1.5,0.5-2.4,0.5c-1,0-1.8-0.2-2.5-0.5
			c-0.7-0.4-1.3-0.8-1.8-1.4c-0.5-0.6-0.8-1.3-1.1-2.1c-0.2-0.8-0.4-1.6-0.4-2.5c0-0.9,0.1-1.7,0.3-2.5c0.2-0.8,0.6-1.5,1-2.1
			c0.5-0.6,1.1-1.1,1.8-1.4s1.5-0.5,2.5-0.5c0.3,0,0.7,0,1,0.1c0.4,0.1,0.7,0.2,1.1,0.3c0.4,0.2,0.7,0.4,1,0.6
			c0.3,0.2,0.6,0.6,0.8,0.9h0v-6.4h2v17.2H320.7z M313.4,62c0.2,0.6,0.4,1,0.7,1.5c0.3,0.4,0.7,0.8,1.2,1c0.5,0.3,1,0.4,1.7,0.4
			c0.7,0,1.3-0.1,1.7-0.4c0.5-0.3,0.9-0.6,1.2-1.1c0.3-0.4,0.5-0.9,0.7-1.5c0.1-0.6,0.2-1.1,0.2-1.7c0-0.6-0.1-1.2-0.2-1.8
			c-0.1-0.6-0.4-1.1-0.7-1.5c-0.3-0.4-0.7-0.8-1.2-1c-0.5-0.3-1.1-0.4-1.8-0.4c-0.7,0-1.3,0.1-1.7,0.4c-0.5,0.3-0.9,0.6-1.1,1.1
			c-0.3,0.5-0.5,1-0.6,1.5c-0.1,0.6-0.2,1.2-0.2,1.8C313.2,60.9,313.3,61.4,313.4,62z"/>
		<path class="st0" d="M343.7,51.6c-0.9-0.6-1.9-0.9-3.1-0.9c-1,0-1.9,0.2-2.6,0.6c-0.7,0.4-1.3,0.9-1.8,1.6c-0.5,0.7-0.8,1.4-1,2.2
			c-0.2,0.8-0.3,1.7-0.3,2.6c0,1,0.1,1.9,0.3,2.8c0.2,0.9,0.6,1.6,1,2.3c0.5,0.7,1.1,1.2,1.8,1.6c0.7,0.4,1.6,0.6,2.6,0.6
			c0.7,0,1.4-0.1,2-0.4c0.6-0.2,1.1-0.6,1.5-1c0.4-0.4,0.7-1,1-1.6c0.2-0.6,0.4-1.3,0.4-2h2.3c-0.2,2.2-1,3.9-2.2,5.1
			c-1.2,1.2-3,1.8-5.1,1.8c-1.3,0-2.5-0.2-3.4-0.7c-1-0.5-1.8-1.1-2.4-1.9c-0.6-0.8-1.1-1.8-1.5-2.8c-0.3-1.1-0.5-2.3-0.5-3.5
			c0-1.3,0.2-2.4,0.5-3.5c0.3-1.1,0.9-2.1,1.5-2.9c0.7-0.8,1.5-1.5,2.5-1.9c1-0.5,2.2-0.7,3.5-0.7c0.9,0,1.7,0.1,2.5,0.4
			s1.5,0.6,2.1,1.1c0.6,0.5,1.1,1,1.5,1.7c0.4,0.7,0.7,1.5,0.8,2.4h-2.3C345.1,53.1,344.6,52.2,343.7,51.6z"/>
		<path class="st0" d="M360,66.7c-0.5,0-0.9-0.1-1.2-0.4c-0.3-0.3-0.5-0.8-0.5-1.5c-0.6,0.7-1.2,1.2-1.9,1.5
			c-0.7,0.3-1.5,0.4-2.4,0.4c-0.6,0-1.1-0.1-1.6-0.2c-0.5-0.1-0.9-0.3-1.3-0.6c-0.4-0.3-0.7-0.6-0.9-1.1c-0.2-0.4-0.3-1-0.3-1.6
			c0-0.7,0.1-1.3,0.4-1.7c0.2-0.5,0.5-0.8,0.9-1.1c0.4-0.3,0.8-0.5,1.3-0.6c0.5-0.1,1-0.3,1.5-0.4c0.6-0.1,1.1-0.2,1.6-0.3
			c0.5-0.1,0.9-0.1,1.3-0.2c0.4-0.1,0.7-0.3,0.9-0.5c0.2-0.2,0.3-0.5,0.3-0.9c0-0.4-0.1-0.8-0.2-1.1c-0.2-0.3-0.4-0.5-0.6-0.6
			c-0.3-0.1-0.6-0.2-0.9-0.3c-0.3,0-0.6-0.1-1-0.1c-0.9,0-1.6,0.2-2.1,0.5c-0.6,0.3-0.9,1-0.9,1.9h-2c0-0.8,0.2-1.4,0.5-2
			c0.3-0.5,0.7-1,1.1-1.3c0.5-0.3,1-0.6,1.6-0.7c0.6-0.1,1.3-0.2,1.9-0.2c0.6,0,1.1,0,1.7,0.1c0.5,0.1,1,0.2,1.5,0.5
			c0.4,0.2,0.8,0.6,1.1,1c0.3,0.5,0.4,1,0.4,1.8v6.4c0,0.5,0,0.8,0.1,1.1c0.1,0.2,0.2,0.3,0.6,0.3c0.2,0,0.4,0,0.6-0.1v1.6
			C361.1,66.6,360.7,66.7,360,66.7z M357.2,60.4c-0.4,0.1-0.8,0.2-1.3,0.2c-0.5,0.1-0.9,0.1-1.4,0.2c-0.5,0.1-0.9,0.2-1.2,0.3
			c-0.4,0.2-0.7,0.4-0.9,0.7c-0.2,0.3-0.3,0.7-0.3,1.2c0,0.3,0.1,0.6,0.2,0.9c0.1,0.2,0.3,0.4,0.5,0.6c0.2,0.1,0.5,0.2,0.8,0.3
			c0.3,0.1,0.6,0.1,0.9,0.1c0.7,0,1.2-0.1,1.7-0.3c0.5-0.2,0.9-0.4,1.2-0.7c0.3-0.3,0.5-0.6,0.7-0.9c0.1-0.3,0.2-0.6,0.2-0.9V60
			C358,60.2,357.6,60.3,357.2,60.4z"/>
		<path class="st0" d="M365.6,53.9v2.6h0c0.5-1,1.1-1.8,1.8-2.2c0.7-0.5,1.6-0.7,2.7-0.7v2.2c-0.8,0-1.5,0.1-2.1,0.3
			c-0.6,0.2-1,0.6-1.4,1c-0.3,0.4-0.6,1-0.8,1.6c-0.2,0.6-0.2,1.3-0.2,2.1v5.5h-2V53.9H365.6z"/>
		<path class="st0" d="M380.3,65.6c-0.9,0.7-2.1,1.1-3.5,1.1c-1,0-1.8-0.2-2.6-0.5c-0.7-0.3-1.3-0.8-1.8-1.4
			c-0.5-0.6-0.9-1.3-1.1-2.1c-0.2-0.8-0.4-1.7-0.4-2.6c0-0.9,0.1-1.8,0.4-2.6c0.3-0.8,0.7-1.5,1.2-2c0.5-0.6,1.1-1,1.8-1.4
			c0.7-0.3,1.5-0.5,2.3-0.5c1.1,0,2,0.2,2.7,0.7c0.7,0.5,1.3,1,1.7,1.7c0.4,0.7,0.7,1.5,0.9,2.3c0.2,0.8,0.2,1.6,0.2,2.4H373
			c0,0.5,0,1.1,0.2,1.6c0.1,0.5,0.4,0.9,0.7,1.3c0.3,0.4,0.7,0.7,1.2,0.9c0.5,0.2,1.1,0.3,1.7,0.3c0.9,0,1.6-0.2,2.1-0.6
			c0.5-0.4,0.9-1,1.1-1.8h2C381.8,63.8,381.2,64.9,380.3,65.6z M379.8,57.6c-0.2-0.4-0.4-0.8-0.7-1.1c-0.3-0.3-0.7-0.6-1.1-0.7
			c-0.4-0.2-0.9-0.3-1.4-0.3c-0.5,0-1,0.1-1.4,0.3c-0.4,0.2-0.8,0.4-1.1,0.8c-0.3,0.3-0.5,0.7-0.7,1.1c-0.2,0.4-0.3,0.9-0.3,1.4h7.1
			C380.1,58.5,380,58,379.8,57.6z"/>
	</g>
</g>
<g>
	<path d="M12.7,49.2c1.6,0,2.9,0.4,3.8,1.2c0.9,0.8,1.4,1.9,1.4,3.3c0,1-0.2,2-0.7,2.7c-0.5,0.8-1.2,1.3-2.2,1.6v0
		c0.5,0.1,0.9,0.3,1.2,0.5c0.3,0.2,0.6,0.5,0.7,0.8c0.2,0.3,0.3,0.7,0.4,1c0.1,0.4,0.2,0.8,0.2,1.2c0,0.4,0.1,0.8,0.1,1.3
		c0,0.4,0.1,0.9,0.1,1.3c0.1,0.4,0.2,0.8,0.3,1.2c0.1,0.4,0.3,0.7,0.5,1h-2.5c-0.2-0.2-0.3-0.4-0.3-0.7c-0.1-0.3-0.1-0.6-0.1-1
		c0-0.4,0-0.8,0-1.2c0-0.4-0.1-0.9-0.1-1.3c-0.1-0.4-0.1-0.8-0.2-1.2c-0.1-0.4-0.2-0.7-0.5-1c-0.2-0.3-0.5-0.5-0.8-0.7
		C13.5,59.1,13,59,12.5,59H7v7.4H4.7V49.2H12.7z M13.2,57c0.5-0.1,0.9-0.2,1.2-0.5c0.4-0.2,0.6-0.5,0.9-0.9c0.2-0.4,0.3-0.9,0.3-1.5
		c0-0.9-0.2-1.6-0.7-2.1c-0.5-0.5-1.2-0.8-2.3-0.8H7v6h4.7C12.2,57.1,12.7,57.1,13.2,57z"/>
	<path d="M23.7,49.2v17.2h-2.3V49.2H23.7z"/>
	<path d="M31.9,66.4l-6-17.2h2.4l4.8,14.9h0l4.9-14.9h2.4l-6,17.2H31.9z"/>
	<path d="M54.4,49.2v1.9h-9.5v5.5h8.8v1.9h-8.8v6h9.5v1.9H42.7V49.2H54.4z"/>
	<path d="M65.5,49.2c1.6,0,2.9,0.4,3.8,1.2c0.9,0.8,1.4,1.9,1.4,3.3c0,1-0.2,2-0.7,2.7c-0.5,0.8-1.2,1.3-2.2,1.6v0
		c0.5,0.1,0.9,0.3,1.2,0.5c0.3,0.2,0.6,0.5,0.7,0.8c0.2,0.3,0.3,0.7,0.4,1c0.1,0.4,0.2,0.8,0.2,1.2c0,0.4,0.1,0.8,0.1,1.3
		c0,0.4,0.1,0.9,0.1,1.3c0.1,0.4,0.2,0.8,0.3,1.2c0.1,0.4,0.3,0.7,0.5,1h-2.5c-0.2-0.2-0.3-0.4-0.3-0.7c-0.1-0.3-0.1-0.6-0.1-1
		c0-0.4,0-0.8,0-1.2c0-0.4-0.1-0.9-0.1-1.3c-0.1-0.4-0.1-0.8-0.2-1.2c-0.1-0.4-0.2-0.7-0.5-1c-0.2-0.3-0.5-0.5-0.8-0.7
		c-0.3-0.2-0.8-0.3-1.3-0.3h-5.5v7.4h-2.3V49.2H65.5z M66,57c0.5-0.1,0.9-0.2,1.2-0.5c0.4-0.2,0.6-0.5,0.9-0.9
		c0.2-0.4,0.3-0.9,0.3-1.5c0-0.9-0.2-1.6-0.7-2.1c-0.5-0.5-1.2-0.8-2.3-0.8h-5.6v6h4.7C65,57.1,65.5,57.1,66,57z"/>
	<path d="M77.9,66.4l-6-17.2h2.4l4.8,14.9h0l4.9-14.9h2.4l-6,17.2H77.9z"/>
	<path d="M91,49.2v17.2h-2.3V49.2H91z"/>
	<path d="M106.8,49.2v1.9h-9.5v5.5h8.8v1.9h-8.8v6h9.5v1.9H95.1V49.2H106.8z"/>
	<path d="M123,66.4l-3.9-14.5h0l-3.9,14.5h-2.4l-4.3-17.2h2.3l3.3,14.3h0l3.8-14.3h2.4l3.8,14.3h0l3.4-14.3h2.3l-4.5,17.2H123z"/>
</g>
<g>
</g>
<g>
</g>
<g>
</g>
<g>
</g>
<g>
</g>
<g>
</g>
</svg>
