<?xml version="1.0" encoding="utf-8"?>
<!-- Generator: Adobe Illustrator 19.1.0, SVG Export Plug-In . SVG Version: 6.00 Build 0)  -->
<!DOCTYPE svg PUBLIC "-//W3C//DTD SVG 1.1//EN" "http://www.w3.org/Graphics/SVG/1.1/DTD/svg11.dtd">
<svg version="1.1" id="Layer_1" xmlns="http://www.w3.org/2000/svg" xmlns:xlink="http://www.w3.org/1999/xlink" x="0px" y="0px"
	 viewBox="0 0 382.7 99.2" style="enable-background:new 0 0 382.7 99.2;" xml:space="preserve">
<style type="text/css">
	.st0{fill:#6D6E71;}
	.st1{fill:#6CB33F;}
</style>
<path class="st0" d="M381.1,64.6H1.5v1h379.6C381.1,65.2,381.1,65.1,381.1,64.6z"/>
<path class="st1" d="M22.5,55.7l-13-44.5C8.3,7.6,7.7,6.6,3.7,6.6H1.9V2.4h22.3v4.1h-4c-1.8,0-3.1,0.6-3.1,2.2c0,1,0.2,1.8,0.6,3.3
	l9.3,34h0.2l11-33.4c0.2-0.8-1.9-6.1-4.8-6.1h-3.9V2.4h23.1v4.1h-3.9C47,6.6,45,6.8,45,9c0,1.3,1,4.2,1.4,5.7l9.2,31.2h0.2l9.5-31.8
	c0.4-1.3,1-3.5,1-4.9c0-2.4-1.7-2.6-3.7-2.6h-4.1V2.4h20.3v4.1h-2.3c-3,0-4.4,1.8-4.9,3.4l-14,45.8h-6.4L40.6,20.5h-0.2L28.8,55.7
	H22.5z"/>
<path class="st1" d="M85.3,37.1c0,8.1,1.8,15.6,11.2,15.6c6.4,0,10.3-3.4,12-9.6h4.6c-1.8,8.6-7.3,13.3-16.7,13.3
	c-11.8,0-18.7-6.8-18.7-19.9c0-13.1,6.9-19.9,18.7-19.9c12.8,0,17,9,17.7,20.4H85.3z M106.5,33.4c0-6.9-3.1-12.8-10.4-12.8
	c-7.4,0-10.9,5.9-10.9,12.8H106.5z"/>
<path class="st1" d="M125.2,37.1c0,8.1,1.8,15.6,11.2,15.6c6.4,0,10.3-3.4,12-9.6h4.6c-1.8,8.6-7.3,13.3-16.7,13.3
	c-11.8,0-18.7-6.8-18.7-19.9c0-13.1,6.9-19.9,18.7-19.9c12.8,0,17,9,17.7,20.4H125.2z M146.4,33.4c0-6.9-3.1-12.8-10.4-12.8
	c-7.4,0-10.9,5.9-10.9,12.8H146.4z"/>
<path class="st1" d="M173,26h0.2c2-5.5,6.7-9.3,11.3-9.3c5.4,0,9,3,9,8.5c0,3-1.3,5.3-4.5,5.3c-2.2,0-4.5-1.4-4.5-3.7
	c0-2.9,1.9-4.1,4.8-4.1c-0.4-1.8-2.9-2.2-4.6-2.2c-7.5,0-11.4,8.7-11.4,16.6v10.8c0,2.5,1.4,3.7,4,3.7h4.3v3.8h-23.5v-3.8h5.2
	c2.6,0,3.2-1.2,3.2-3.7V25.4c0-2.5-0.6-3.7-3.2-3.7h-5.5V18H173V26z"/>
<path class="st1" d="M238.4,36.6c0,11.5-7.7,19.9-20.6,19.9c-12.8,0-20.6-8.4-20.6-19.9c0-11.5,7.7-19.9,20.6-19.9
	C230.7,16.8,238.4,25.1,238.4,36.6z M204.8,36.6c0,8.6,3.1,16.1,13,16.1c9.9,0,13-7.5,13-16.1c0-8.6-3.1-16.1-13-16.1
	C207.9,20.5,204.8,28,204.8,36.6z"/>
<path class="st1" d="M282.8,36.6c0,11.5-7.7,19.9-20.6,19.9c-12.8,0-20.6-8.4-20.6-19.9c0-11.5,7.7-19.9,20.6-19.9
	C275,16.8,282.8,25.1,282.8,36.6z M249.2,36.6c0,8.6,3.1,16.1,13,16.1c9.9,0,13-7.5,13-16.1c0-8.6-3.1-16.1-13-16.1
	C252.3,20.5,249.2,28,249.2,36.6z"/>
<path class="st1" d="M301,24.8h0.2c3.2-5,8-8,14.1-8c8.4,0,12.8,5.5,12.8,13.8v17.3c0,2.5,0.6,3.7,3.2,3.7h4.8v3.8h-22.3v-3.8h4.4
	c2.6,0,3.2-1.2,3.2-3.7V30c0-5.5-2.1-8.8-8.2-8.8c-7.6,0-12.1,6.1-12.1,12.4v14.2c0,2.5,0.6,3.7,3.2,3.7h4.9v3.8h-23.2v-3.8h5.2
	c2.6,0,3.2-1.2,3.2-3.7V25.4c0-2.5-0.6-3.7-3.2-3.7h-5.2V18H301V24.8z"/>
<path class="st1" d="M371.6,48.5c0,2.4,0.6,4.2,2.1,4.2c3.4,0,3.7-4.5,3.7-6.8v-3.4h3.8v2.3c0,8.5-2.9,11.6-8.9,11.6
	c-4,0-6.4-2.4-7-6.2c-3.9,4.3-8.4,6.2-14.1,6.2c-6.5,0-11.7-2.9-11.7-10c0-10.4,14.4-10.2,22.4-14c2.5-1.2,3-2.7,3-5.1
	c0-4.5-2-6.9-8.9-6.9c-3.1,0-7,0.5-9.3,3.1c2.4,0.4,3.7,1.7,3.7,4.1c0,3.1-2.6,4.2-4.8,4.2c-2.8,0-4.1-2.5-4.1-5.7
	c0-6.8,9.1-9.5,15.2-9.5c9.2,0,15.2,2.7,15.2,13.1V48.5z M364.8,35c-3.4,2-7.1,2.8-11.8,4.8c-4.3,1.8-6.1,3.6-6.1,6.4
	c0,4.1,2.2,6.6,6.3,6.6c5.3,0,11.6-4.9,11.6-10.5V35z"/>
<g>
	<g>
		<path class="st0" d="M143.9,74.6c1.6,0,2.9,0.4,3.8,1.2c0.9,0.8,1.4,1.9,1.4,3.3c0,1-0.2,2-0.7,2.7c-0.5,0.8-1.2,1.3-2.3,1.6v0
			c0.5,0.1,0.9,0.3,1.2,0.5c0.3,0.2,0.6,0.5,0.7,0.8c0.2,0.3,0.3,0.7,0.4,1c0.1,0.4,0.2,0.8,0.2,1.2c0,0.4,0.1,0.8,0.1,1.3
			c0,0.4,0.1,0.9,0.1,1.3c0.1,0.4,0.2,0.8,0.3,1.2c0.1,0.4,0.3,0.7,0.5,1h-2.6c-0.2-0.2-0.3-0.4-0.3-0.7c-0.1-0.3-0.1-0.6-0.1-1
			c0-0.4,0-0.8,0-1.2c0-0.4-0.1-0.9-0.1-1.3c-0.1-0.4-0.1-0.8-0.2-1.2c-0.1-0.4-0.2-0.7-0.5-1c-0.2-0.3-0.5-0.5-0.8-0.7
			c-0.3-0.2-0.8-0.3-1.4-0.3h-5.6v7.4h-2.3V74.6H143.9z M144.4,82.4c0.5-0.1,0.9-0.2,1.3-0.5c0.4-0.2,0.7-0.5,0.9-0.9
			c0.2-0.4,0.3-0.9,0.3-1.5c0-0.9-0.2-1.6-0.7-2.1c-0.5-0.5-1.3-0.8-2.3-0.8h-5.7v6h4.8C143.4,82.5,143.9,82.4,144.4,82.4z"/>
		<path class="st0" d="M161.1,91c-0.9,0.7-2.1,1.1-3.5,1.1c-1,0-1.9-0.2-2.6-0.5c-0.7-0.3-1.3-0.8-1.8-1.4c-0.5-0.6-0.9-1.3-1.1-2.1
			c-0.2-0.8-0.4-1.7-0.4-2.6c0-0.9,0.1-1.8,0.4-2.6c0.3-0.8,0.7-1.5,1.2-2c0.5-0.6,1.1-1,1.9-1.4c0.7-0.3,1.5-0.5,2.4-0.5
			c1.1,0,2,0.2,2.8,0.7s1.3,1,1.8,1.7c0.4,0.7,0.7,1.5,0.9,2.3c0.2,0.8,0.2,1.6,0.2,2.4h-9.3c0,0.5,0,1.1,0.2,1.6
			c0.1,0.5,0.4,0.9,0.7,1.3c0.3,0.4,0.7,0.7,1.2,0.9c0.5,0.2,1.1,0.3,1.8,0.3c0.9,0,1.6-0.2,2.1-0.6c0.6-0.4,0.9-1,1.1-1.8h2
			C162.7,89.2,162.1,90.3,161.1,91z M160.7,83c-0.2-0.4-0.4-0.8-0.7-1.1c-0.3-0.3-0.7-0.6-1.1-0.7c-0.4-0.2-0.9-0.3-1.4-0.3
			c-0.5,0-1,0.1-1.4,0.3c-0.4,0.2-0.8,0.4-1.1,0.8c-0.3,0.3-0.5,0.7-0.7,1.1c-0.2,0.4-0.3,0.9-0.3,1.4h7.2
			C160.9,83.9,160.8,83.4,160.7,83z"/>
		<path class="st0" d="M167.2,89c0.2,0.3,0.4,0.6,0.8,0.7c0.3,0.2,0.7,0.3,1.1,0.4c0.4,0.1,0.8,0.1,1.2,0.1c0.3,0,0.7,0,1-0.1
			c0.4,0,0.7-0.1,1-0.3c0.3-0.1,0.5-0.3,0.7-0.6c0.2-0.2,0.3-0.6,0.3-1c0-0.5-0.2-0.9-0.6-1.2c-0.4-0.3-0.9-0.5-1.5-0.7
			c-0.6-0.2-1.3-0.3-2-0.5c-0.7-0.1-1.4-0.3-2-0.6c-0.6-0.2-1.1-0.6-1.5-1c-0.4-0.5-0.6-1.1-0.6-1.9c0-0.6,0.1-1.2,0.4-1.6
			c0.3-0.5,0.6-0.8,1.1-1.1c0.4-0.3,0.9-0.5,1.5-0.6c0.6-0.1,1.1-0.2,1.7-0.2c0.7,0,1.4,0.1,2,0.2c0.6,0.1,1.1,0.3,1.6,0.6
			c0.5,0.3,0.8,0.7,1.1,1.2c0.3,0.5,0.4,1.1,0.5,1.9h-2c0-0.4-0.1-0.7-0.3-1c-0.2-0.3-0.4-0.5-0.7-0.6c-0.3-0.2-0.6-0.3-0.9-0.3
			c-0.3-0.1-0.7-0.1-1-0.1c-0.3,0-0.6,0-0.9,0.1c-0.3,0-0.6,0.1-0.9,0.3c-0.3,0.1-0.5,0.3-0.6,0.5c-0.2,0.2-0.2,0.5-0.2,0.8
			c0,0.4,0.1,0.6,0.4,0.9c0.2,0.2,0.6,0.4,1,0.6c0.4,0.2,0.8,0.3,1.3,0.4c0.5,0.1,1,0.2,1.4,0.3c0.5,0.1,1,0.2,1.5,0.4
			c0.5,0.2,0.9,0.4,1.3,0.6c0.4,0.3,0.7,0.6,0.9,1c0.2,0.4,0.3,0.9,0.3,1.5c0,0.8-0.2,1.4-0.5,1.9c-0.3,0.5-0.7,0.9-1.2,1.2
			c-0.5,0.3-1.1,0.5-1.7,0.6c-0.6,0.1-1.3,0.2-1.9,0.2c-0.7,0-1.3-0.1-2-0.2c-0.6-0.1-1.2-0.4-1.7-0.7c-0.5-0.3-0.9-0.8-1.2-1.3
			c-0.3-0.5-0.5-1.2-0.5-2h2C166.9,88.3,167,88.7,167.2,89z"/>
		<path class="st0" d="M178.2,77.1v-2.5h2v2.5H178.2z M180.2,79.3v12.5h-2V79.3H180.2z"/>
		<path class="st0" d="M192.8,91.8v-1.7h0c-0.3,0.7-0.9,1.2-1.6,1.5c-0.7,0.3-1.5,0.5-2.4,0.5c-1,0-1.8-0.2-2.5-0.5
			c-0.7-0.4-1.3-0.8-1.8-1.4c-0.5-0.6-0.8-1.3-1.1-2.1c-0.2-0.8-0.4-1.6-0.4-2.5c0-0.9,0.1-1.7,0.3-2.5c0.2-0.8,0.6-1.5,1.1-2.1
			c0.5-0.6,1.1-1.1,1.8-1.4c0.7-0.3,1.5-0.5,2.5-0.5c0.3,0,0.7,0,1,0.1c0.4,0.1,0.7,0.2,1.1,0.3c0.4,0.2,0.7,0.4,1,0.6
			c0.3,0.2,0.6,0.6,0.8,0.9h0v-6.4h2v17.2H192.8z M185.5,87.3c0.2,0.6,0.4,1,0.7,1.5c0.3,0.4,0.7,0.8,1.2,1c0.5,0.3,1.1,0.4,1.7,0.4
			c0.7,0,1.3-0.1,1.8-0.4c0.5-0.3,0.9-0.6,1.2-1.1c0.3-0.4,0.5-0.9,0.7-1.5c0.1-0.6,0.2-1.1,0.2-1.7c0-0.6-0.1-1.2-0.2-1.8
			c-0.1-0.6-0.4-1.1-0.7-1.5c-0.3-0.4-0.7-0.8-1.2-1c-0.5-0.3-1.1-0.4-1.8-0.4c-0.7,0-1.3,0.1-1.8,0.4c-0.5,0.3-0.9,0.6-1.2,1.1
			c-0.3,0.5-0.5,1-0.6,1.5c-0.1,0.6-0.2,1.2-0.2,1.8C185.3,86.2,185.3,86.8,185.5,87.3z"/>
		<path class="st0" d="M207.2,91c-0.9,0.7-2.1,1.1-3.5,1.1c-1,0-1.9-0.2-2.6-0.5c-0.7-0.3-1.3-0.8-1.8-1.4c-0.5-0.6-0.9-1.3-1.1-2.1
			c-0.2-0.8-0.4-1.7-0.4-2.6c0-0.9,0.1-1.8,0.4-2.6c0.3-0.8,0.7-1.5,1.2-2c0.5-0.6,1.1-1,1.9-1.4c0.7-0.3,1.5-0.5,2.4-0.5
			c1.1,0,2,0.2,2.8,0.7c0.7,0.5,1.3,1,1.8,1.7c0.4,0.7,0.7,1.5,0.9,2.3c0.2,0.8,0.2,1.6,0.2,2.4h-9.3c0,0.5,0,1.1,0.2,1.6
			c0.1,0.5,0.4,0.9,0.7,1.3c0.3,0.4,0.7,0.7,1.2,0.9c0.5,0.2,1.1,0.3,1.8,0.3c0.9,0,1.6-0.2,2.1-0.6c0.6-0.4,0.9-1,1.1-1.8h2
			C208.8,89.2,208.2,90.3,207.2,91z M206.7,83c-0.2-0.4-0.4-0.8-0.7-1.1c-0.3-0.3-0.7-0.6-1.1-0.7c-0.4-0.2-0.9-0.3-1.4-0.3
			c-0.5,0-1,0.1-1.4,0.3c-0.4,0.2-0.8,0.4-1.1,0.8c-0.3,0.3-0.5,0.7-0.7,1.1c-0.2,0.4-0.3,0.9-0.3,1.4h7.2
			C207,83.9,206.9,83.4,206.7,83z"/>
		<path class="st0" d="M213.7,79.3v2h0c0.9-1.5,2.2-2.3,4-2.3c0.8,0,1.5,0.1,2,0.3c0.5,0.2,1,0.5,1.3,0.9c0.3,0.4,0.6,0.9,0.7,1.4
			c0.1,0.6,0.2,1.2,0.2,1.8v8.2h-2v-8.4c0-0.8-0.2-1.4-0.7-1.8c-0.4-0.4-1.1-0.7-1.9-0.7c-0.6,0-1.2,0.1-1.6,0.3
			c-0.5,0.2-0.8,0.5-1.1,0.8c-0.3,0.4-0.5,0.8-0.7,1.2c-0.2,0.5-0.2,1-0.2,1.6v7h-2V79.3H213.7z"/>
		<path class="st0" d="M230.8,79.3v1.8h-2.5v7.7c0,0.2,0,0.4,0.1,0.6c0,0.1,0.1,0.3,0.2,0.3c0.1,0.1,0.3,0.1,0.5,0.2
			c0.2,0,0.5,0,0.8,0h0.9v1.8h-1.6c-0.5,0-1,0-1.4-0.1c-0.4-0.1-0.7-0.2-0.9-0.4c-0.2-0.2-0.4-0.5-0.5-0.8c-0.1-0.4-0.2-0.8-0.2-1.4
			v-7.9h-2.1v-1.8h2.1v-3.7h2v3.7H230.8z"/>
		<path class="st0" d="M233.6,77.1v-2.5h2v2.5H233.6z M235.6,79.3v12.5h-2V79.3H235.6z"/>
		<path class="st0" d="M248.7,92c-0.5,0-1-0.1-1.3-0.4c-0.3-0.3-0.5-0.8-0.5-1.5c-0.6,0.7-1.2,1.2-2,1.5c-0.7,0.3-1.6,0.4-2.4,0.4
			c-0.6,0-1.1-0.1-1.6-0.2c-0.5-0.1-0.9-0.3-1.3-0.6c-0.4-0.3-0.7-0.6-0.9-1.1c-0.2-0.4-0.3-1-0.3-1.6c0-0.7,0.1-1.3,0.4-1.7
			c0.2-0.5,0.6-0.8,1-1.1c0.4-0.3,0.8-0.5,1.3-0.6c0.5-0.1,1-0.3,1.6-0.4c0.6-0.1,1.1-0.2,1.6-0.3c0.5-0.1,1-0.1,1.3-0.2
			c0.4-0.1,0.7-0.3,0.9-0.5c0.2-0.2,0.3-0.5,0.3-0.9c0-0.4-0.1-0.8-0.3-1.1c-0.2-0.3-0.4-0.5-0.7-0.6c-0.3-0.1-0.6-0.2-0.9-0.3
			c-0.3,0-0.7-0.1-1-0.1c-0.9,0-1.6,0.2-2.2,0.5c-0.6,0.3-0.9,1-0.9,1.9h-2c0-0.8,0.2-1.4,0.5-2c0.3-0.5,0.7-1,1.2-1.3
			c0.5-0.3,1-0.6,1.7-0.7c0.6-0.1,1.3-0.2,2-0.2c0.6,0,1.1,0,1.7,0.1c0.6,0.1,1.1,0.2,1.5,0.5c0.4,0.2,0.8,0.6,1.1,1
			c0.3,0.5,0.4,1,0.4,1.8v6.4c0,0.5,0,0.8,0.1,1.1c0.1,0.2,0.2,0.3,0.6,0.3c0.2,0,0.4,0,0.6-0.1v1.6C249.8,91.9,249.4,92,248.7,92z
			 M245.9,85.8c-0.4,0.1-0.9,0.2-1.3,0.2c-0.5,0.1-0.9,0.1-1.4,0.2c-0.5,0.1-0.9,0.2-1.3,0.3c-0.4,0.2-0.7,0.4-0.9,0.7
			c-0.2,0.3-0.3,0.7-0.3,1.2c0,0.3,0.1,0.6,0.2,0.9c0.1,0.2,0.3,0.4,0.5,0.6c0.2,0.1,0.5,0.2,0.8,0.3c0.3,0.1,0.6,0.1,0.9,0.1
			c0.7,0,1.3-0.1,1.7-0.3c0.5-0.2,0.9-0.4,1.2-0.7c0.3-0.3,0.5-0.6,0.7-0.9c0.1-0.3,0.2-0.6,0.2-0.9v-2.1
			C246.6,85.5,246.3,85.7,245.9,85.8z"/>
		<path class="st0" d="M254.6,74.6v17.2h-2V74.6H254.6z"/>
		<path class="st0" d="M272.8,74.6l6.7,17.2H277l-1.9-5.2h-7.3l-1.9,5.2h-2.3l6.7-17.2H272.8z M274.4,84.7l-2.9-8h0l-2.9,8H274.4z"
			/>
		<path class="st0" d="M290.6,95.3c-0.9,1-2.4,1.5-4.4,1.5c-0.6,0-1.2-0.1-1.8-0.2c-0.6-0.1-1.1-0.3-1.6-0.6
			c-0.5-0.3-0.9-0.7-1.2-1.1c-0.3-0.5-0.5-1-0.5-1.7h2c0,0.4,0.1,0.7,0.3,0.9c0.2,0.3,0.5,0.5,0.8,0.6c0.3,0.2,0.7,0.3,1,0.3
			c0.4,0.1,0.7,0.1,1.1,0.1c0.7,0,1.2-0.1,1.7-0.3c0.5-0.2,0.9-0.6,1.2-1c0.3-0.4,0.5-0.9,0.7-1.5c0.1-0.6,0.2-1.2,0.2-1.9v-0.8h0
			c-0.4,0.8-0.9,1.3-1.6,1.7c-0.7,0.4-1.5,0.5-2.3,0.5c-0.9,0-1.7-0.2-2.4-0.5c-0.7-0.3-1.3-0.8-1.7-1.4c-0.5-0.6-0.8-1.2-1-2
			c-0.2-0.8-0.3-1.6-0.3-2.4c0-0.7,0.1-1.5,0.3-2.3c0.2-0.8,0.5-1.5,1-2.1c0.5-0.6,1-1.2,1.8-1.6c0.7-0.4,1.6-0.6,2.7-0.6
			c0.8,0,1.5,0.2,2.2,0.5c0.7,0.3,1.2,0.9,1.5,1.6h0v-1.8h1.9v11.4C292,92.7,291.5,94.3,290.6,95.3z M288,89.7
			c0.5-0.3,0.9-0.7,1.1-1.1c0.3-0.5,0.5-1,0.6-1.6c0.1-0.6,0.2-1.2,0.2-1.7c0-0.5-0.1-1.1-0.2-1.6c-0.1-0.5-0.3-1-0.6-1.4
			c-0.3-0.4-0.6-0.8-1.1-1c-0.5-0.3-1-0.4-1.6-0.4c-0.7,0-1.2,0.1-1.7,0.4c-0.5,0.2-0.8,0.6-1.1,1c-0.3,0.4-0.5,0.9-0.7,1.4
			c-0.1,0.5-0.2,1.1-0.2,1.7c0,0.6,0.1,1.1,0.2,1.7c0.1,0.6,0.3,1.1,0.6,1.5c0.3,0.5,0.6,0.8,1.1,1.1c0.5,0.3,1,0.4,1.7,0.4
			S287.5,90,288,89.7z"/>
		<path class="st0" d="M304.2,91c-0.9,0.7-2.1,1.1-3.5,1.1c-1,0-1.9-0.2-2.6-0.5c-0.7-0.3-1.3-0.8-1.8-1.4c-0.5-0.6-0.9-1.3-1.1-2.1
			c-0.2-0.8-0.4-1.7-0.4-2.6c0-0.9,0.1-1.8,0.4-2.6c0.3-0.8,0.7-1.5,1.2-2c0.5-0.6,1.1-1,1.9-1.4c0.7-0.3,1.5-0.5,2.4-0.5
			c1.1,0,2,0.2,2.8,0.7c0.7,0.5,1.3,1,1.8,1.7c0.4,0.7,0.7,1.5,0.9,2.3c0.2,0.8,0.2,1.6,0.2,2.4h-9.3c0,0.5,0,1.1,0.2,1.6
			c0.1,0.5,0.4,0.9,0.7,1.3c0.3,0.4,0.7,0.7,1.2,0.9c0.5,0.2,1.1,0.3,1.8,0.3c0.9,0,1.6-0.2,2.1-0.6c0.6-0.4,0.9-1,1.1-1.8h2
			C305.8,89.2,305.2,90.3,304.2,91z M303.7,83c-0.2-0.4-0.4-0.8-0.7-1.1s-0.7-0.6-1.1-0.7c-0.4-0.2-0.9-0.3-1.4-0.3
			c-0.5,0-1,0.1-1.4,0.3c-0.4,0.2-0.8,0.4-1.1,0.8c-0.3,0.3-0.5,0.7-0.7,1.1c-0.2,0.4-0.3,0.9-0.3,1.4h7.2
			C304,83.9,303.9,83.4,303.7,83z"/>
		<path class="st0" d="M317.8,91.8v-1.7h0c-0.3,0.7-0.9,1.2-1.6,1.5c-0.7,0.3-1.5,0.5-2.4,0.5c-1,0-1.8-0.2-2.5-0.5
			c-0.7-0.4-1.3-0.8-1.8-1.4c-0.5-0.6-0.8-1.3-1.1-2.1c-0.2-0.8-0.4-1.6-0.4-2.5c0-0.9,0.1-1.7,0.3-2.5c0.2-0.8,0.6-1.5,1.1-2.1
			c0.5-0.6,1.1-1.1,1.8-1.4c0.7-0.3,1.5-0.5,2.5-0.5c0.3,0,0.7,0,1,0.1c0.4,0.1,0.7,0.2,1.1,0.3c0.4,0.2,0.7,0.4,1,0.6
			c0.3,0.2,0.6,0.6,0.8,0.9h0v-6.4h2v17.2H317.8z M310.4,87.3c0.2,0.6,0.4,1,0.7,1.5c0.3,0.4,0.7,0.8,1.2,1c0.5,0.3,1.1,0.4,1.7,0.4
			c0.7,0,1.3-0.1,1.8-0.4c0.5-0.3,0.9-0.6,1.2-1.1c0.3-0.4,0.5-0.9,0.7-1.5c0.1-0.6,0.2-1.1,0.2-1.7c0-0.6-0.1-1.2-0.2-1.8
			c-0.1-0.6-0.4-1.1-0.7-1.5c-0.3-0.4-0.7-0.8-1.2-1c-0.5-0.3-1.1-0.4-1.8-0.4c-0.7,0-1.3,0.1-1.8,0.4c-0.5,0.3-0.9,0.6-1.2,1.1
			c-0.3,0.5-0.5,1-0.6,1.5c-0.1,0.6-0.2,1.2-0.2,1.8C310.2,86.2,310.3,86.8,310.4,87.3z"/>
		<path class="st0" d="M341.2,77c-0.9-0.6-1.9-0.9-3.1-0.9c-1,0-1.9,0.2-2.6,0.6c-0.7,0.4-1.3,0.9-1.8,1.6c-0.5,0.7-0.8,1.4-1,2.2
			c-0.2,0.8-0.3,1.7-0.3,2.6c0,1,0.1,1.9,0.3,2.8c0.2,0.9,0.6,1.6,1,2.3c0.5,0.7,1.1,1.2,1.8,1.6c0.7,0.4,1.6,0.6,2.7,0.6
			c0.8,0,1.4-0.1,2-0.4c0.6-0.2,1.1-0.6,1.5-1c0.4-0.4,0.8-1,1-1.6c0.2-0.6,0.4-1.3,0.4-2h2.3c-0.2,2.2-1,3.9-2.2,5.1
			c-1.3,1.2-3,1.8-5.2,1.8c-1.3,0-2.5-0.2-3.5-0.7c-1-0.5-1.8-1.1-2.5-1.9c-0.7-0.8-1.2-1.8-1.5-2.8c-0.3-1.1-0.5-2.3-0.5-3.5
			c0-1.3,0.2-2.4,0.5-3.5c0.4-1.1,0.9-2.1,1.6-2.9c0.7-0.8,1.5-1.5,2.6-1.9c1-0.5,2.2-0.7,3.5-0.7c0.9,0,1.8,0.1,2.6,0.4
			c0.8,0.2,1.5,0.6,2.1,1.1c0.6,0.5,1.1,1,1.6,1.7c0.4,0.7,0.7,1.5,0.8,2.4h-2.3C342.6,78.5,342.1,77.6,341.2,77z"/>
		<path class="st0" d="M357.8,92c-0.5,0-1-0.1-1.3-0.4c-0.3-0.3-0.5-0.8-0.5-1.5c-0.6,0.7-1.2,1.2-2,1.5c-0.7,0.3-1.6,0.4-2.4,0.4
			c-0.6,0-1.1-0.1-1.6-0.2c-0.5-0.1-0.9-0.3-1.3-0.6c-0.4-0.3-0.7-0.6-0.9-1.1c-0.2-0.4-0.3-1-0.3-1.6c0-0.7,0.1-1.3,0.4-1.7
			c0.2-0.5,0.6-0.8,1-1.1c0.4-0.3,0.8-0.5,1.3-0.6c0.5-0.1,1-0.3,1.6-0.4c0.6-0.1,1.1-0.2,1.6-0.3c0.5-0.1,1-0.1,1.3-0.2
			s0.7-0.3,0.9-0.5c0.2-0.2,0.3-0.5,0.3-0.9c0-0.4-0.1-0.8-0.3-1.1c-0.2-0.3-0.4-0.5-0.7-0.6c-0.3-0.1-0.6-0.2-0.9-0.3
			c-0.3,0-0.7-0.1-1-0.1c-0.9,0-1.6,0.2-2.2,0.5c-0.6,0.3-0.9,1-0.9,1.9h-2c0-0.8,0.2-1.4,0.5-2c0.3-0.5,0.7-1,1.2-1.3
			c0.5-0.3,1-0.6,1.7-0.7c0.6-0.1,1.3-0.2,2-0.2c0.6,0,1.1,0,1.7,0.1c0.6,0.1,1.1,0.2,1.5,0.5c0.4,0.2,0.8,0.6,1.1,1
			c0.3,0.5,0.4,1,0.4,1.8v6.4c0,0.5,0,0.8,0.1,1.1c0.1,0.2,0.2,0.3,0.6,0.3c0.2,0,0.4,0,0.6-0.1v1.6C358.9,91.9,358.4,92,357.8,92z
			 M354.9,85.8c-0.4,0.1-0.9,0.2-1.3,0.2c-0.5,0.1-0.9,0.1-1.4,0.2c-0.5,0.1-0.9,0.2-1.3,0.3c-0.4,0.2-0.7,0.4-0.9,0.7
			c-0.2,0.3-0.3,0.7-0.3,1.2c0,0.3,0.1,0.6,0.2,0.9c0.1,0.2,0.3,0.4,0.5,0.6s0.5,0.2,0.8,0.3c0.3,0.1,0.6,0.1,0.9,0.1
			c0.7,0,1.3-0.1,1.7-0.3c0.5-0.2,0.9-0.4,1.2-0.7c0.3-0.3,0.5-0.6,0.7-0.9c0.1-0.3,0.2-0.6,0.2-0.9v-2.1
			C355.7,85.5,355.3,85.7,354.9,85.8z"/>
		<path class="st0" d="M363.4,79.3v2.6h0c0.5-1,1.1-1.8,1.8-2.2c0.7-0.5,1.6-0.7,2.7-0.7v2.2c-0.8,0-1.5,0.1-2.1,0.3
			c-0.6,0.2-1,0.6-1.4,1c-0.4,0.4-0.6,1-0.8,1.6c-0.2,0.6-0.2,1.3-0.2,2.1v5.5h-2V79.3H363.4z"/>
		<path class="st0" d="M378.3,91c-0.9,0.7-2.1,1.1-3.5,1.1c-1,0-1.9-0.2-2.6-0.5c-0.7-0.3-1.3-0.8-1.8-1.4c-0.5-0.6-0.9-1.3-1.1-2.1
			c-0.2-0.8-0.4-1.7-0.4-2.6c0-0.9,0.1-1.8,0.4-2.6c0.3-0.8,0.7-1.5,1.2-2c0.5-0.6,1.1-1,1.9-1.4c0.7-0.3,1.5-0.5,2.4-0.5
			c1.1,0,2,0.2,2.8,0.7c0.7,0.5,1.3,1,1.8,1.7c0.4,0.7,0.7,1.5,0.9,2.3c0.2,0.8,0.2,1.6,0.2,2.4H371c0,0.5,0,1.1,0.2,1.6
			c0.1,0.5,0.4,0.9,0.7,1.3c0.3,0.4,0.7,0.7,1.2,0.9c0.5,0.2,1.1,0.3,1.8,0.3c0.9,0,1.6-0.2,2.1-0.6c0.6-0.4,0.9-1,1.1-1.8h2
			C379.8,89.2,379.2,90.3,378.3,91z M377.8,83c-0.2-0.4-0.4-0.8-0.7-1.1c-0.3-0.3-0.7-0.6-1.1-0.7c-0.4-0.2-0.9-0.3-1.4-0.3
			c-0.5,0-1,0.1-1.4,0.3c-0.4,0.2-0.8,0.4-1.1,0.8c-0.3,0.3-0.5,0.7-0.7,1.1c-0.2,0.4-0.3,0.9-0.3,1.4h7.2
			C378.1,83.9,378,83.4,377.8,83z"/>
	</g>
</g>
<g>
	<path d="M9.7,74.6c0.4,0,0.8,0,1.2,0c0.4,0,0.8,0,1.3,0.1c0.4,0,0.8,0.1,1.2,0.2c0.4,0.1,0.7,0.2,0.9,0.4c0.6,0.3,1,0.8,1.4,1.4
		c0.4,0.6,0.6,1.3,0.6,2.2c0,0.9-0.2,1.7-0.7,2.4c-0.4,0.7-1.1,1.2-1.9,1.5v0c1.1,0.2,1.9,0.7,2.4,1.4c0.6,0.7,0.8,1.6,0.8,2.7
		c0,0.6-0.1,1.2-0.3,1.8c-0.2,0.6-0.6,1.1-1,1.6c-0.4,0.5-1,0.8-1.6,1.1c-0.7,0.3-1.4,0.4-2.3,0.4H3.4V74.6H9.7z M10.3,82
		c1.3,0,2.2-0.2,2.8-0.7s0.9-1.1,0.9-2.1c0-0.6-0.1-1.1-0.3-1.4c-0.2-0.4-0.5-0.6-0.8-0.8c-0.3-0.2-0.7-0.3-1.2-0.4
		c-0.4-0.1-0.9-0.1-1.4-0.1H5.7V82H10.3z M11.4,89.8c1,0,1.8-0.3,2.4-0.8c0.6-0.5,0.9-1.3,0.9-2.3c0-0.6-0.1-1-0.3-1.4
		c-0.2-0.4-0.5-0.7-0.8-0.9c-0.3-0.2-0.7-0.4-1.2-0.5c-0.5-0.1-0.9-0.1-1.4-0.1H5.7v6H11.4z"/>
	<path d="M27.5,74.6l6.7,17.2h-2.5l-1.9-5.2h-7.3l-1.9,5.2h-2.3L25,74.6H27.5z M29.1,84.7l-2.9-8h0l-2.9,8H29.1z"/>
	<path d="M44.9,76.9c-0.8-0.6-1.7-0.8-2.9-0.8c-0.5,0-1,0-1.4,0.1c-0.5,0.1-0.9,0.3-1.2,0.5c-0.4,0.2-0.7,0.5-0.9,0.9
		c-0.2,0.4-0.3,0.8-0.3,1.4c0,0.5,0.2,1,0.5,1.3c0.3,0.3,0.7,0.6,1.3,0.8c0.5,0.2,1.1,0.4,1.8,0.5c0.7,0.1,1.3,0.3,2,0.4
		c0.7,0.2,1.4,0.3,2,0.6c0.7,0.2,1.2,0.5,1.8,0.9c0.5,0.4,0.9,0.8,1.3,1.4c0.3,0.6,0.5,1.3,0.5,2.1c0,0.9-0.2,1.7-0.6,2.4
		c-0.4,0.7-0.9,1.2-1.6,1.6c-0.6,0.4-1.4,0.7-2.2,0.9c-0.8,0.2-1.6,0.3-2.4,0.3c-1,0-1.9-0.1-2.7-0.4c-0.9-0.2-1.6-0.6-2.3-1.1
		c-0.7-0.5-1.2-1.1-1.5-1.9c-0.4-0.8-0.6-1.7-0.6-2.7h2.2c0,0.7,0.1,1.3,0.4,1.9c0.3,0.5,0.7,1,1.1,1.3c0.5,0.3,1,0.6,1.6,0.7
		c0.6,0.2,1.2,0.2,1.9,0.2c0.5,0,1,0,1.6-0.1c0.5-0.1,1-0.3,1.4-0.5c0.4-0.2,0.8-0.6,1-1c0.3-0.4,0.4-0.9,0.4-1.5
		c0-0.6-0.2-1.1-0.5-1.4c-0.3-0.4-0.7-0.7-1.3-0.9c-0.5-0.2-1.1-0.4-1.8-0.6c-0.7-0.1-1.3-0.3-2-0.4c-0.7-0.2-1.4-0.3-2-0.5
		c-0.7-0.2-1.2-0.5-1.8-0.8c-0.5-0.3-0.9-0.8-1.3-1.3c-0.3-0.5-0.5-1.2-0.5-2c0-0.9,0.2-1.6,0.5-2.3c0.4-0.6,0.8-1.2,1.4-1.6
		c0.6-0.4,1.3-0.7,2-0.9c0.7-0.2,1.5-0.3,2.3-0.3c0.9,0,1.7,0.1,2.5,0.3c0.8,0.2,1.4,0.5,2,1c0.6,0.5,1,1,1.3,1.7
		c0.3,0.7,0.5,1.5,0.5,2.4h-2.2C46.1,78.4,45.6,77.5,44.9,76.9z"/>
	<path d="M60.9,76.9c-0.8-0.6-1.7-0.8-2.9-0.8c-0.5,0-1,0-1.4,0.1c-0.5,0.1-0.9,0.3-1.2,0.5c-0.4,0.2-0.7,0.5-0.9,0.9
		c-0.2,0.4-0.3,0.8-0.3,1.4c0,0.5,0.2,1,0.5,1.3c0.3,0.3,0.7,0.6,1.3,0.8c0.5,0.2,1.1,0.4,1.8,0.5c0.7,0.1,1.3,0.3,2,0.4
		c0.7,0.2,1.4,0.3,2,0.6c0.7,0.2,1.2,0.5,1.8,0.9c0.5,0.4,0.9,0.8,1.3,1.4c0.3,0.6,0.5,1.3,0.5,2.1c0,0.9-0.2,1.7-0.6,2.4
		c-0.4,0.7-0.9,1.2-1.6,1.6c-0.6,0.4-1.4,0.7-2.2,0.9c-0.8,0.2-1.6,0.3-2.4,0.3c-1,0-1.9-0.1-2.7-0.4c-0.9-0.2-1.6-0.6-2.3-1.1
		c-0.7-0.5-1.2-1.1-1.5-1.9c-0.4-0.8-0.6-1.7-0.6-2.7h2.2c0,0.7,0.1,1.3,0.4,1.9c0.3,0.5,0.7,1,1.1,1.3c0.5,0.3,1,0.6,1.6,0.7
		c0.6,0.2,1.2,0.2,1.9,0.2c0.5,0,1,0,1.6-0.1c0.5-0.1,1-0.3,1.4-0.5c0.4-0.2,0.8-0.6,1-1c0.3-0.4,0.4-0.9,0.4-1.5
		c0-0.6-0.2-1.1-0.5-1.4c-0.3-0.4-0.7-0.7-1.3-0.9c-0.5-0.2-1.1-0.4-1.8-0.6c-0.7-0.1-1.3-0.3-2-0.4c-0.7-0.2-1.4-0.3-2-0.5
		c-0.7-0.2-1.2-0.5-1.8-0.8c-0.5-0.3-0.9-0.8-1.3-1.3c-0.3-0.5-0.5-1.2-0.5-2c0-0.9,0.2-1.6,0.5-2.3c0.4-0.6,0.8-1.2,1.4-1.6
		c0.6-0.4,1.3-0.7,2-0.9c0.7-0.2,1.5-0.3,2.3-0.3c0.9,0,1.7,0.1,2.5,0.3c0.8,0.2,1.4,0.5,2,1c0.6,0.5,1,1,1.3,1.7
		c0.3,0.7,0.5,1.5,0.5,2.4h-2.2C62.1,78.4,61.6,77.5,60.9,76.9z"/>
	<path d="M77.6,74.6V82h9.1v-7.4h2.3v17.2h-2.3v-7.9h-9.1v7.9h-2.3V74.6H77.6z"/>
	<path d="M95.4,74.6v17.2h-2.3V74.6H95.4z"/>
	<path d="M102,74.6v15.3h9.1v1.9H99.7V74.6H102z"/>
	<path d="M115.7,74.6v15.3h9.1v1.9h-11.4V74.6H115.7z"/>
</g>
<g>
</g>
<g>
</g>
<g>
</g>
<g>
</g>
<g>
</g>
<g>
</g>
</svg>
