<?xml version="1.0" encoding="utf-8"?>
<!-- Generator: Adobe Illustrator 19.1.0, SVG Export Plug-In . SVG Version: 6.00 Build 0)  -->
<!DOCTYPE svg PUBLIC "-//W3C//DTD SVG 1.1//EN" "http://www.w3.org/Graphics/SVG/1.1/DTD/svg11.dtd">
<svg version="1.1" id="Layer_1" xmlns="http://www.w3.org/2000/svg" xmlns:xlink="http://www.w3.org/1999/xlink" x="0px" y="0px"
	 viewBox="0 0 306.1 87.9" style="enable-background:new 0 0 306.1 87.9;" xml:space="preserve">
<style type="text/css">
	.st0{fill:#6D6E71;}
	.st1{fill:#6CB33F;}
</style>
<g>
	<g>
		<g>
			<path class="st0" d="M87.1,65.4c1.5,0,2.7,0.4,3.5,1.1c0.8,0.7,1.3,1.7,1.3,3c0,1-0.2,1.8-0.7,2.5c-0.4,0.7-1.1,1.2-2.1,1.5v0
				c0.5,0.1,0.8,0.2,1.1,0.4c0.3,0.2,0.5,0.5,0.7,0.7c0.2,0.3,0.3,0.6,0.4,1c0.1,0.4,0.1,0.7,0.2,1.1c0,0.4,0.1,0.8,0.1,1.2
				c0,0.4,0.1,0.8,0.1,1.2c0.1,0.4,0.1,0.7,0.3,1.1c0.1,0.3,0.3,0.7,0.5,0.9H90c-0.1-0.2-0.2-0.4-0.3-0.7c-0.1-0.3-0.1-0.6-0.1-0.9
				c0-0.3,0-0.7,0-1.1c0-0.4-0.1-0.8-0.1-1.2c-0.1-0.4-0.1-0.7-0.2-1.1c-0.1-0.3-0.2-0.6-0.4-0.9c-0.2-0.3-0.4-0.5-0.7-0.6
				c-0.3-0.2-0.7-0.2-1.2-0.2h-5.1v6.7h-2.1V65.4H87.1z M87.5,72.6c0.4-0.1,0.8-0.2,1.2-0.4c0.3-0.2,0.6-0.5,0.8-0.9
				c0.2-0.4,0.3-0.8,0.3-1.4c0-0.8-0.2-1.4-0.7-1.9c-0.4-0.5-1.2-0.8-2.1-0.8h-5.2v5.5h4.4C86.6,72.7,87.1,72.6,87.5,72.6z"/>
			<path class="st0" d="M102.8,80.4c-0.9,0.6-1.9,1-3.2,1c-0.9,0-1.7-0.1-2.4-0.4c-0.7-0.3-1.2-0.7-1.7-1.2c-0.5-0.5-0.8-1.2-1-1.9
				c-0.2-0.7-0.4-1.5-0.4-2.4c0-0.9,0.1-1.7,0.4-2.4c0.3-0.7,0.6-1.3,1.1-1.9c0.5-0.5,1-0.9,1.7-1.2c0.7-0.3,1.4-0.4,2.1-0.4
				c1,0,1.9,0.2,2.5,0.6c0.7,0.4,1.2,1,1.6,1.6c0.4,0.6,0.7,1.4,0.8,2.1c0.2,0.8,0.2,1.5,0.2,2.2h-8.5c0,0.5,0,1,0.2,1.4
				c0.1,0.4,0.3,0.8,0.6,1.2c0.3,0.3,0.7,0.6,1.1,0.8c0.5,0.2,1,0.3,1.6,0.3c0.8,0,1.4-0.2,2-0.6c0.5-0.4,0.8-0.9,1-1.7h1.9
				C104.2,78.8,103.7,79.8,102.8,80.4z M102.4,73.1c-0.2-0.4-0.4-0.7-0.7-1c-0.3-0.3-0.6-0.5-1-0.7c-0.4-0.2-0.8-0.3-1.3-0.3
				c-0.5,0-0.9,0.1-1.3,0.3c-0.4,0.2-0.7,0.4-1,0.7c-0.3,0.3-0.5,0.6-0.7,1c-0.2,0.4-0.3,0.8-0.3,1.2h6.5
				C102.6,73.9,102.5,73.5,102.4,73.1z"/>
			<path class="st0" d="M108.4,78.6c0.2,0.3,0.4,0.5,0.7,0.7c0.3,0.2,0.6,0.3,1,0.4c0.4,0.1,0.7,0.1,1.1,0.1c0.3,0,0.6,0,0.9-0.1
				c0.3,0,0.6-0.1,0.9-0.2c0.3-0.1,0.5-0.3,0.7-0.5c0.2-0.2,0.3-0.5,0.3-0.9c0-0.5-0.2-0.9-0.6-1.1c-0.4-0.2-0.8-0.5-1.4-0.6
				c-0.6-0.2-1.2-0.3-1.8-0.4c-0.6-0.1-1.2-0.3-1.8-0.5c-0.6-0.2-1-0.5-1.4-1c-0.4-0.4-0.6-1-0.6-1.7c0-0.6,0.1-1.1,0.4-1.5
				c0.3-0.4,0.6-0.7,1-1c0.4-0.3,0.9-0.4,1.4-0.6c0.5-0.1,1-0.2,1.5-0.2c0.6,0,1.2,0.1,1.8,0.2c0.5,0.1,1,0.3,1.4,0.6
				c0.4,0.3,0.8,0.6,1,1.1c0.2,0.5,0.4,1,0.4,1.7h-1.9c0-0.4-0.1-0.7-0.3-0.9c-0.2-0.2-0.4-0.4-0.6-0.6c-0.2-0.1-0.5-0.3-0.8-0.3
				c-0.3-0.1-0.6-0.1-0.9-0.1c-0.3,0-0.6,0-0.8,0.1c-0.3,0-0.5,0.1-0.8,0.2c-0.2,0.1-0.4,0.3-0.6,0.4c-0.1,0.2-0.2,0.4-0.2,0.7
				c0,0.3,0.1,0.6,0.3,0.8c0.2,0.2,0.5,0.4,0.9,0.5c0.4,0.1,0.7,0.3,1.2,0.4c0.4,0.1,0.9,0.2,1.3,0.3c0.5,0.1,0.9,0.2,1.4,0.4
				c0.4,0.1,0.8,0.3,1.2,0.6c0.3,0.2,0.6,0.5,0.8,0.9c0.2,0.4,0.3,0.8,0.3,1.4c0,0.7-0.1,1.3-0.4,1.7c-0.3,0.5-0.7,0.8-1.1,1.1
				c-0.5,0.3-1,0.5-1.6,0.6c-0.6,0.1-1.2,0.2-1.7,0.2c-0.6,0-1.2-0.1-1.8-0.2c-0.6-0.1-1.1-0.3-1.5-0.7c-0.4-0.3-0.8-0.7-1.1-1.2
				c-0.3-0.5-0.4-1.1-0.4-1.8h1.9C108.1,78,108.2,78.3,108.4,78.6z"/>
			<path class="st0" d="M118.4,67.7v-2.3h1.9v2.3H118.4z M120.3,69.8v11.4h-1.9V69.8H120.3z"/>
			<path class="st0" d="M131.8,81.2v-1.5h0c-0.3,0.6-0.8,1.1-1.5,1.4c-0.7,0.3-1.4,0.4-2.2,0.4c-0.9,0-1.6-0.2-2.3-0.5
				c-0.7-0.3-1.2-0.8-1.6-1.3c-0.4-0.5-0.8-1.2-1-1.9c-0.2-0.7-0.3-1.5-0.3-2.3c0-0.8,0.1-1.6,0.3-2.3c0.2-0.7,0.5-1.3,1-1.9
				c0.4-0.5,1-1,1.6-1.3c0.7-0.3,1.4-0.5,2.3-0.5c0.3,0,0.6,0,0.9,0.1c0.3,0.1,0.7,0.2,1,0.3c0.3,0.1,0.7,0.3,1,0.6
				c0.3,0.2,0.6,0.5,0.8,0.8h0v-5.9h1.9v15.7H131.8z M125.1,77.1c0.1,0.5,0.4,1,0.6,1.4c0.3,0.4,0.7,0.7,1.1,0.9
				c0.4,0.2,1,0.4,1.6,0.4c0.6,0,1.2-0.1,1.6-0.4c0.4-0.2,0.8-0.6,1.1-1c0.3-0.4,0.5-0.9,0.6-1.4c0.1-0.5,0.2-1,0.2-1.6
				c0-0.6-0.1-1.1-0.2-1.6c-0.1-0.5-0.3-1-0.6-1.4c-0.3-0.4-0.7-0.7-1.1-1c-0.5-0.2-1-0.4-1.7-0.4c-0.6,0-1.2,0.1-1.6,0.4
				c-0.4,0.2-0.8,0.6-1.1,1c-0.3,0.4-0.5,0.9-0.6,1.4c-0.1,0.5-0.2,1.1-0.2,1.6C124.9,76.1,124.9,76.6,125.1,77.1z"/>
			<path class="st0" d="M145,80.4c-0.9,0.6-1.9,1-3.2,1c-0.9,0-1.7-0.1-2.4-0.4c-0.7-0.3-1.2-0.7-1.7-1.2c-0.5-0.5-0.8-1.2-1-1.9
				c-0.2-0.7-0.4-1.5-0.4-2.4c0-0.9,0.1-1.7,0.4-2.4c0.3-0.7,0.6-1.3,1.1-1.9c0.5-0.5,1-0.9,1.7-1.2c0.7-0.3,1.4-0.4,2.1-0.4
				c1,0,1.9,0.2,2.5,0.6c0.7,0.4,1.2,1,1.6,1.6c0.4,0.6,0.7,1.4,0.8,2.1c0.2,0.8,0.2,1.5,0.2,2.2h-8.5c0,0.5,0,1,0.2,1.4
				c0.1,0.4,0.3,0.8,0.6,1.2c0.3,0.3,0.7,0.6,1.1,0.8c0.5,0.2,1,0.3,1.6,0.3c0.8,0,1.4-0.2,2-0.6c0.5-0.4,0.8-0.9,1-1.7h1.9
				C146.4,78.8,145.8,79.8,145,80.4z M144.5,73.1c-0.2-0.4-0.4-0.7-0.7-1c-0.3-0.3-0.6-0.5-1-0.7c-0.4-0.2-0.8-0.3-1.3-0.3
				c-0.5,0-0.9,0.1-1.3,0.3c-0.4,0.2-0.7,0.4-1,0.7c-0.3,0.3-0.5,0.6-0.7,1c-0.2,0.4-0.3,0.8-0.3,1.2h6.5
				C144.8,73.9,144.7,73.5,144.5,73.1z"/>
			<path class="st0" d="M150.8,69.8v1.8h0c0.8-1.4,2-2.1,3.7-2.1c0.7,0,1.4,0.1,1.9,0.3c0.5,0.2,0.9,0.5,1.2,0.9
				c0.3,0.4,0.5,0.8,0.6,1.3c0.1,0.5,0.2,1.1,0.2,1.7v7.5h-1.9v-7.7c0-0.7-0.2-1.3-0.6-1.7c-0.4-0.4-1-0.6-1.7-0.6
				c-0.6,0-1.1,0.1-1.5,0.3c-0.4,0.2-0.8,0.4-1,0.7c-0.3,0.3-0.5,0.7-0.6,1.1c-0.1,0.4-0.2,0.9-0.2,1.4v6.4h-1.9V69.8H150.8z"/>
			<path class="st0" d="M166.5,69.8v1.7h-2.3v7.1c0,0.2,0,0.4,0.1,0.5c0,0.1,0.1,0.2,0.2,0.3c0.1,0.1,0.2,0.1,0.4,0.1
				c0.2,0,0.4,0,0.7,0h0.9v1.7h-1.4c-0.5,0-0.9,0-1.2-0.1c-0.3-0.1-0.6-0.2-0.8-0.4c-0.2-0.2-0.4-0.4-0.5-0.8
				c-0.1-0.3-0.2-0.8-0.2-1.3v-7.2h-1.9v-1.7h1.9v-3.4h1.9v3.4H166.5z"/>
			<path class="st0" d="M169,67.7v-2.3h1.9v2.3H169z M170.9,69.8v11.4H169V69.8H170.9z"/>
			<path class="st0" d="M182.9,81.4c-0.5,0-0.9-0.1-1.2-0.4c-0.3-0.3-0.4-0.7-0.4-1.3c-0.5,0.6-1.1,1.1-1.8,1.3
				c-0.7,0.3-1.4,0.4-2.2,0.4c-0.5,0-1-0.1-1.5-0.2c-0.5-0.1-0.9-0.3-1.2-0.6c-0.3-0.3-0.6-0.6-0.8-1c-0.2-0.4-0.3-0.9-0.3-1.5
				c0-0.6,0.1-1.2,0.3-1.6c0.2-0.4,0.5-0.7,0.9-1c0.4-0.3,0.8-0.5,1.2-0.6c0.5-0.1,0.9-0.2,1.4-0.3c0.5-0.1,1-0.2,1.5-0.2
				c0.5-0.1,0.9-0.1,1.2-0.2c0.4-0.1,0.6-0.2,0.8-0.4c0.2-0.2,0.3-0.5,0.3-0.8c0-0.4-0.1-0.7-0.2-1c-0.2-0.2-0.4-0.4-0.6-0.6
				c-0.2-0.1-0.5-0.2-0.8-0.3c-0.3,0-0.6-0.1-0.9-0.1c-0.8,0-1.5,0.2-2,0.5c-0.5,0.3-0.8,0.9-0.9,1.7H174c0-0.7,0.2-1.3,0.4-1.8
				c0.3-0.5,0.6-0.9,1.1-1.2c0.4-0.3,0.9-0.5,1.5-0.7c0.6-0.1,1.2-0.2,1.8-0.2c0.5,0,1,0,1.5,0.1c0.5,0.1,1,0.2,1.4,0.5
				c0.4,0.2,0.7,0.5,1,1c0.2,0.4,0.4,0.9,0.4,1.6v5.9c0,0.4,0,0.8,0.1,1c0.1,0.2,0.2,0.3,0.5,0.3c0.2,0,0.4,0,0.6-0.1v1.5
				C183.9,81.3,183.5,81.4,182.9,81.4z M180.3,75.7c-0.4,0.1-0.8,0.1-1.2,0.2c-0.4,0.1-0.8,0.1-1.3,0.2c-0.4,0.1-0.8,0.2-1.1,0.3
				c-0.3,0.1-0.6,0.4-0.8,0.6c-0.2,0.3-0.3,0.6-0.3,1.1c0,0.3,0.1,0.6,0.2,0.8c0.1,0.2,0.3,0.4,0.5,0.5c0.2,0.1,0.4,0.2,0.7,0.3
				c0.3,0.1,0.5,0.1,0.8,0.1c0.6,0,1.1-0.1,1.6-0.3c0.4-0.2,0.8-0.4,1.1-0.6c0.3-0.3,0.5-0.5,0.6-0.8c0.1-0.3,0.2-0.6,0.2-0.8v-1.9
				C181,75.5,180.7,75.6,180.3,75.7z"/>
			<path class="st0" d="M188.3,65.4v15.7h-1.9V65.4H188.3z"/>
			<path class="st0" d="M204.9,65.4l6.1,15.7h-2.3l-1.7-4.7h-6.7l-1.8,4.7h-2.1l6.1-15.7H204.9z M206.4,74.7l-2.6-7.3h0l-2.7,7.3
				H206.4z"/>
			<path class="st0" d="M221.2,84.4c-0.9,0.9-2.2,1.4-4,1.4c-0.5,0-1.1-0.1-1.6-0.2c-0.5-0.1-1-0.3-1.5-0.6c-0.4-0.3-0.8-0.6-1.1-1
				c-0.3-0.4-0.5-0.9-0.5-1.6h1.9c0,0.3,0.1,0.6,0.3,0.9c0.2,0.2,0.4,0.4,0.7,0.6c0.3,0.1,0.6,0.3,0.9,0.3c0.3,0.1,0.7,0.1,1,0.1
				c0.6,0,1.1-0.1,1.6-0.3c0.4-0.2,0.8-0.5,1.1-0.9c0.3-0.4,0.5-0.8,0.6-1.4c0.1-0.5,0.2-1.1,0.2-1.7v-0.8h0
				c-0.3,0.7-0.8,1.2-1.5,1.6c-0.7,0.3-1.3,0.5-2.1,0.5c-0.9,0-1.6-0.2-2.2-0.5c-0.6-0.3-1.2-0.7-1.6-1.2c-0.4-0.5-0.7-1.1-1-1.8
				c-0.2-0.7-0.3-1.4-0.3-2.2c0-0.7,0.1-1.4,0.3-2.1c0.2-0.7,0.5-1.4,0.9-1.9c0.4-0.6,1-1.1,1.6-1.4s1.5-0.6,2.5-0.6
				c0.7,0,1.4,0.2,2,0.5c0.6,0.3,1.1,0.8,1.4,1.4h0v-1.6h1.8v10.4C222.4,82.1,222,83.5,221.2,84.4z M218.8,79.3c0.4-0.3,0.8-0.6,1-1
				c0.3-0.4,0.5-0.9,0.6-1.4c0.1-0.5,0.2-1.1,0.2-1.6c0-0.5-0.1-1-0.2-1.5c-0.1-0.5-0.3-0.9-0.6-1.3c-0.3-0.4-0.6-0.7-1-0.9
				c-0.4-0.2-0.9-0.4-1.5-0.4c-0.6,0-1.1,0.1-1.5,0.3c-0.4,0.2-0.8,0.5-1,0.9c-0.3,0.4-0.5,0.8-0.6,1.3c-0.1,0.5-0.2,1-0.2,1.6
				c0,0.5,0.1,1,0.2,1.5c0.1,0.5,0.3,1,0.5,1.4c0.2,0.4,0.6,0.8,1,1c0.4,0.3,0.9,0.4,1.5,0.4C217.8,79.6,218.3,79.5,218.8,79.3z"/>
			<path class="st0" d="M233.7,80.4c-0.9,0.6-1.9,1-3.2,1c-0.9,0-1.7-0.1-2.4-0.4c-0.7-0.3-1.2-0.7-1.7-1.2c-0.5-0.5-0.8-1.2-1-1.9
				c-0.2-0.7-0.4-1.5-0.4-2.4c0-0.9,0.1-1.7,0.4-2.4c0.3-0.7,0.6-1.3,1.1-1.9c0.5-0.5,1-0.9,1.7-1.2c0.7-0.3,1.4-0.4,2.1-0.4
				c1,0,1.9,0.2,2.5,0.6c0.7,0.4,1.2,1,1.6,1.6c0.4,0.6,0.7,1.4,0.8,2.1c0.2,0.8,0.2,1.5,0.2,2.2H227c0,0.5,0,1,0.2,1.4
				c0.1,0.4,0.3,0.8,0.6,1.2c0.3,0.3,0.7,0.6,1.1,0.8c0.5,0.2,1,0.3,1.6,0.3c0.8,0,1.4-0.2,2-0.6c0.5-0.4,0.8-0.9,1-1.7h1.9
				C235.1,78.8,234.5,79.8,233.7,80.4z M233.2,73.1c-0.2-0.4-0.4-0.7-0.7-1c-0.3-0.3-0.6-0.5-1-0.7c-0.4-0.2-0.8-0.3-1.3-0.3
				c-0.5,0-0.9,0.1-1.3,0.3c-0.4,0.2-0.7,0.4-1,0.7c-0.3,0.3-0.5,0.6-0.7,1c-0.2,0.4-0.3,0.8-0.3,1.2h6.5
				C233.5,73.9,233.4,73.5,233.2,73.1z"/>
			<path class="st0" d="M246.1,81.2v-1.5h0c-0.3,0.6-0.8,1.1-1.5,1.4c-0.7,0.3-1.4,0.4-2.2,0.4c-0.9,0-1.6-0.2-2.3-0.5
				c-0.7-0.3-1.2-0.8-1.6-1.3c-0.4-0.5-0.8-1.2-1-1.9c-0.2-0.7-0.3-1.5-0.3-2.3c0-0.8,0.1-1.6,0.3-2.3c0.2-0.7,0.5-1.3,1-1.9
				c0.4-0.5,1-1,1.6-1.3c0.7-0.3,1.4-0.5,2.3-0.5c0.3,0,0.6,0,0.9,0.1c0.3,0.1,0.7,0.2,1,0.3c0.3,0.1,0.7,0.3,1,0.6
				c0.3,0.2,0.6,0.5,0.8,0.8h0v-5.9h1.9v15.7H246.1z M239.3,77.1c0.1,0.5,0.4,1,0.6,1.4c0.3,0.4,0.7,0.7,1.1,0.9
				c0.4,0.2,1,0.4,1.6,0.4c0.6,0,1.2-0.1,1.6-0.4c0.4-0.2,0.8-0.6,1.1-1c0.3-0.4,0.5-0.9,0.6-1.4c0.1-0.5,0.2-1,0.2-1.6
				c0-0.6-0.1-1.1-0.2-1.6c-0.1-0.5-0.3-1-0.6-1.4c-0.3-0.4-0.7-0.7-1.1-1c-0.5-0.2-1-0.4-1.7-0.4c-0.6,0-1.2,0.1-1.6,0.4
				c-0.4,0.2-0.8,0.6-1.1,1c-0.3,0.4-0.5,0.9-0.6,1.4c-0.1,0.5-0.2,1.1-0.2,1.6C239.1,76.1,239.2,76.6,239.3,77.1z"/>
			<path class="st0" d="M267.4,67.7c-0.8-0.6-1.8-0.8-2.9-0.8c-0.9,0-1.7,0.2-2.4,0.5c-0.7,0.4-1.2,0.8-1.7,1.4
				c-0.4,0.6-0.8,1.3-1,2c-0.2,0.8-0.3,1.6-0.3,2.4c0,0.9,0.1,1.7,0.3,2.5c0.2,0.8,0.5,1.5,1,2.1c0.4,0.6,1,1.1,1.7,1.4
				c0.7,0.4,1.5,0.5,2.4,0.5c0.7,0,1.3-0.1,1.8-0.3c0.5-0.2,1-0.5,1.4-0.9c0.4-0.4,0.7-0.9,0.9-1.4c0.2-0.6,0.4-1.2,0.4-1.8h2.1
				c-0.2,2-0.9,3.5-2,4.6c-1.2,1.1-2.7,1.7-4.8,1.7c-1.2,0-2.3-0.2-3.2-0.6c-0.9-0.4-1.7-1-2.3-1.7c-0.6-0.7-1.1-1.6-1.4-2.6
				c-0.3-1-0.5-2.1-0.5-3.2c0-1.1,0.2-2.2,0.5-3.2c0.3-1,0.8-1.9,1.4-2.6s1.4-1.3,2.3-1.8c0.9-0.4,2-0.7,3.2-0.7
				c0.8,0,1.6,0.1,2.3,0.3c0.7,0.2,1.4,0.5,2,1c0.6,0.4,1,1,1.4,1.6c0.4,0.6,0.6,1.4,0.7,2.2H269C268.8,69,268.2,68.2,267.4,67.7z"
				/>
			<path class="st0" d="M282.6,81.4c-0.5,0-0.9-0.1-1.2-0.4c-0.3-0.3-0.4-0.7-0.4-1.3c-0.5,0.6-1.1,1.1-1.8,1.3
				c-0.7,0.3-1.4,0.4-2.2,0.4c-0.5,0-1-0.1-1.5-0.2c-0.5-0.1-0.9-0.3-1.2-0.6c-0.3-0.3-0.6-0.6-0.8-1c-0.2-0.4-0.3-0.9-0.3-1.5
				c0-0.6,0.1-1.2,0.3-1.6c0.2-0.4,0.5-0.7,0.9-1c0.4-0.3,0.8-0.5,1.2-0.6c0.5-0.1,0.9-0.2,1.4-0.3c0.5-0.1,1-0.2,1.5-0.2
				c0.5-0.1,0.9-0.1,1.2-0.2c0.4-0.1,0.6-0.2,0.8-0.4c0.2-0.2,0.3-0.5,0.3-0.8c0-0.4-0.1-0.7-0.2-1c-0.2-0.2-0.4-0.4-0.6-0.6
				c-0.2-0.1-0.5-0.2-0.8-0.3c-0.3,0-0.6-0.1-0.9-0.1c-0.8,0-1.5,0.2-2,0.5c-0.5,0.3-0.8,0.9-0.9,1.7h-1.9c0-0.7,0.2-1.3,0.4-1.8
				c0.3-0.5,0.6-0.9,1.1-1.2c0.4-0.3,0.9-0.5,1.5-0.7c0.6-0.1,1.2-0.2,1.8-0.2c0.5,0,1,0,1.5,0.1c0.5,0.1,1,0.2,1.4,0.5
				c0.4,0.2,0.7,0.5,1,1c0.2,0.4,0.4,0.9,0.4,1.6v5.9c0,0.4,0,0.8,0.1,1c0.1,0.2,0.2,0.3,0.5,0.3c0.2,0,0.4,0,0.6-0.1v1.5
				C283.6,81.3,283.2,81.4,282.6,81.4z M280,75.7c-0.4,0.1-0.8,0.1-1.2,0.2c-0.4,0.1-0.8,0.1-1.3,0.2c-0.4,0.1-0.8,0.2-1.1,0.3
				c-0.3,0.1-0.6,0.4-0.8,0.6c-0.2,0.3-0.3,0.6-0.3,1.1c0,0.3,0.1,0.6,0.2,0.8c0.1,0.2,0.3,0.4,0.5,0.5c0.2,0.1,0.4,0.2,0.7,0.3
				c0.3,0.1,0.5,0.1,0.8,0.1c0.6,0,1.1-0.1,1.6-0.3c0.4-0.2,0.8-0.4,1.1-0.6c0.3-0.3,0.5-0.5,0.6-0.8c0.1-0.3,0.2-0.6,0.2-0.8v-1.9
				C280.7,75.5,280.4,75.6,280,75.7z"/>
			<path class="st0" d="M287.7,69.8v2.4h0c0.5-0.9,1-1.6,1.7-2c0.7-0.4,1.5-0.6,2.5-0.6v2c-0.7,0-1.4,0.1-1.9,0.3
				c-0.5,0.2-1,0.5-1.3,0.9c-0.3,0.4-0.6,0.9-0.7,1.4c-0.1,0.6-0.2,1.2-0.2,2v5.1H286V69.8H287.7z"/>
			<path class="st0" d="M301.4,80.4c-0.9,0.6-1.9,1-3.2,1c-0.9,0-1.7-0.1-2.4-0.4c-0.7-0.3-1.2-0.7-1.7-1.2c-0.5-0.5-0.8-1.2-1-1.9
				c-0.2-0.7-0.4-1.5-0.4-2.4c0-0.9,0.1-1.7,0.4-2.4c0.3-0.7,0.6-1.3,1.1-1.9c0.5-0.5,1-0.9,1.7-1.2c0.7-0.3,1.4-0.4,2.1-0.4
				c1,0,1.9,0.2,2.5,0.6c0.7,0.4,1.2,1,1.6,1.6c0.4,0.6,0.7,1.4,0.8,2.1c0.2,0.8,0.2,1.5,0.2,2.2h-8.5c0,0.5,0,1,0.2,1.4
				c0.1,0.4,0.3,0.8,0.6,1.2c0.3,0.3,0.7,0.6,1.1,0.8c0.5,0.2,1,0.3,1.6,0.3c0.8,0,1.4-0.2,2-0.6c0.5-0.4,0.8-0.9,1-1.7h1.9
				C302.8,78.8,302.2,79.8,301.4,80.4z M300.9,73.1c-0.2-0.4-0.4-0.7-0.7-1c-0.3-0.3-0.6-0.5-1-0.7c-0.4-0.2-0.8-0.3-1.3-0.3
				c-0.5,0-0.9,0.1-1.3,0.3c-0.4,0.2-0.7,0.4-1,0.7c-0.3,0.3-0.5,0.6-0.7,1c-0.2,0.4-0.3,0.8-0.3,1.2h6.5
				C301.2,73.9,301.1,73.5,300.9,73.1z"/>
		</g>
	</g>
	<g>
		<path d="M15.2,65.4v1.8H6.5v5h8.2V74H6.5v5.4h8.8v1.8H4.4V65.4H15.2z"/>
		<path d="M25.6,65.4c1.5,0,2.7,0.4,3.5,1.1c0.8,0.7,1.3,1.7,1.3,3c0,1-0.2,1.8-0.7,2.5c-0.4,0.7-1.1,1.2-2.1,1.5v0
			c0.5,0.1,0.8,0.2,1.1,0.4c0.3,0.2,0.5,0.5,0.7,0.7c0.2,0.3,0.3,0.6,0.4,1c0.1,0.4,0.1,0.7,0.2,1.1c0,0.4,0.1,0.8,0.1,1.2
			c0,0.4,0.1,0.8,0.1,1.2c0.1,0.4,0.1,0.7,0.3,1.1c0.1,0.3,0.3,0.6,0.5,0.9h-2.3c-0.1-0.2-0.2-0.4-0.3-0.7c-0.1-0.3-0.1-0.6-0.1-0.9
			c0-0.3,0-0.7,0-1.1c0-0.4-0.1-0.8-0.1-1.2c-0.1-0.4-0.1-0.7-0.2-1.1c-0.1-0.3-0.2-0.6-0.4-0.9c-0.2-0.3-0.4-0.5-0.7-0.6
			c-0.3-0.2-0.7-0.2-1.2-0.2h-5.1v6.7h-2.1V65.4H25.6z M26,72.6c0.4-0.1,0.8-0.2,1.2-0.4c0.3-0.2,0.6-0.5,0.8-0.9
			c0.2-0.4,0.3-0.8,0.3-1.4c0-0.8-0.2-1.4-0.7-1.9c-0.4-0.5-1.2-0.8-2.1-0.8h-5.2v5.5h4.4C25.1,72.7,25.6,72.6,26,72.6z"/>
		<path d="M35.8,65.4v15.7h-2.1V65.4H35.8z"/>
		<path d="M41.8,65.4l8.3,12.8h0V65.4h2v15.7h-2.3l-8.2-12.6h0v12.6h-2V65.4H41.8z"/>
		<path d="M62.5,65.4l6.1,15.7h-2.3l-1.7-4.7h-6.7l-1.8,4.7H54l6.1-15.7H62.5z M63.9,74.7l-2.6-7.3h0l-2.7,7.3H63.9z"/>
	</g>
</g>
<g>
	<rect x="4.4" y="57.7" class="st0" width="164.3" height="1"/>
	<rect x="193.7" y="57.7" class="st0" width="109.6" height="1"/>
</g>
<g>
	<path class="st1" d="M18.3,45.3L7.8,9.5c-0.9-3-1.4-3.8-4.6-3.8H1.8V2.3h18v3.3h-3.2c-1.5,0-2.5,0.5-2.5,1.8c0,0.8,0.1,1.4,0.5,2.6
		L22,37.5h0.1l8.9-27c0.2-0.6-1.5-4.9-3.9-4.9H24V2.3h18.6v3.3h-3.2c-1.4,0-2.9,0.2-2.9,2c0,1,0.8,3.4,1.2,4.6l7.4,25.2h0.1
		l7.7-25.7c0.3-1,0.8-2.8,0.8-4c0-1.9-1.4-2.1-3-2.1h-3.3V2.3h16.4v3.3h-1.9c-2.4,0-3.5,1.4-3.9,2.7l-11.3,37h-5.2l-8.6-28.4h-0.1
		l-9.3,28.4H18.3z"/>
	<path class="st1" d="M96,29.9c0,9.3-6.2,16-16.6,16c-10.4,0-16.6-6.8-16.6-16c0-9.3,6.2-16,16.6-16C89.8,13.9,96,20.7,96,29.9z
		 M68.9,29.9c0,7,2.5,13,10.5,13s10.5-6.1,10.5-13c0-7-2.5-13-10.5-13S68.9,23,68.9,29.9z"/>
	<path class="st1" d="M131.8,29.9c0,9.3-6.2,16-16.6,16c-10.4,0-16.6-6.8-16.6-16c0-9.3,6.2-16,16.6-16
		C125.6,13.9,131.8,20.7,131.8,29.9z M104.7,29.9c0,7,2.5,13,10.5,13c8,0,10.5-6.1,10.5-13c0-7-2.5-13-10.5-13
		C107.2,16.9,104.7,23,104.7,29.9z"/>
	<path class="st1" d="M159.7,39.2h-0.1c-2.3,4.3-5,6.8-10.7,6.8c-9.7,0-13.9-8.2-13.9-16s4.3-16,13.9-16c4.1,0,8.5,2.3,10.7,6.4h0.1
		V9c0-2.1-0.8-3.7-3-3.7h-3.3v-3h11.8v37.4c0,1.5,0.9,2.3,2.4,2.3h3.7v3h-11.6V39.2z M141.1,29.9c0,7.3,2.6,12.4,8.5,12.4
		c7.3,0,9.9-6,9.9-12.4c0-6.4-2.6-12.4-9.2-12.4C143.7,17.5,141.1,23.5,141.1,29.9z"/>
	<path class="st1" d="M183.8,20.5h0.1c2.3-4.3,5.6-6.6,10.7-6.6c9.5,0,13.7,7.7,13.7,15.9c0,8.5-4.3,16.2-13.7,16.2
		c-5.5,0-8.6-2.4-10.7-6.1h-0.1v12.4c0,2.1,0.9,3.3,2.9,3.3h3.5v3h-18v-3h3.2c2,0,2.9-1.2,2.9-3.3V21.3c0-2.1-0.8-3.3-3-3.3h-3.2v-3
		h11.6V20.5z M202.2,29.9c0-7.9-2.9-12.4-8.6-12.4c-6.8,0-9.9,6-9.9,12.4c0,6.4,2.6,12.4,9.2,12.4C199.6,42.4,202.2,36.4,202.2,29.9
		z"/>
	<path class="st1" d="M246.3,29.9c0,9.3-6.2,16-16.6,16c-10.4,0-16.6-6.8-16.6-16c0-9.3,6.2-16,16.6-16
		C240.1,13.9,246.3,20.7,246.3,29.9z M219.2,29.9c0,7,2.5,13,10.5,13s10.5-6.1,10.5-13c0-7-2.5-13-10.5-13S219.2,23,219.2,29.9z"/>
	<path class="st1" d="M261.5,21.4h0.1c1.6-4.4,5.4-7.5,9.1-7.5c4.4,0,7.3,2.4,7.3,6.8c0,2.4-1,4.3-3.6,4.3c-1.7,0-3.6-1.1-3.6-3
		c0-2.3,1.5-3.3,3.9-3.3c-0.3-1.5-2.3-1.8-3.7-1.8c-6.1,0-9.2,7-9.2,13.4V39c0,2,1.2,3,3.2,3h3.5v3h-18.9v-3h4.2c2.1,0,2.6-1,2.6-3
		V20.9c0-2-0.5-3-2.6-3h-4.4v-3h12.2V21.4z"/>
	<path class="st1" d="M281.5,14.9c6.1-0.8,7.2-7.3,7.6-12.6h3.3v12.6h9.1v3h-9.1v21.3c0,2.6,1,3.8,3.2,3.8c2.7,0,4.5-2.6,4.5-6.3
		v-3.7h3v2.8c0,6.2-1.9,10.3-8.8,10.3c-5.7,0-7.5-3.7-7.5-7.3V17.9h-5.5V14.9z"/>
</g>
<g>
</g>
<g>
</g>
<g>
</g>
<g>
</g>
<g>
</g>
<g>
</g>
</svg>
