<?xml version="1.0" encoding="utf-8"?>
<!-- Generator: Adobe Illustrator 19.1.0, SVG Export Plug-In . SVG Version: 6.00 Build 0)  -->
<!DOCTYPE svg PUBLIC "-//W3C//DTD SVG 1.1//EN" "http://www.w3.org/Graphics/SVG/1.1/DTD/svg11.dtd">
<svg version="1.1" id="Layer_1" xmlns="http://www.w3.org/2000/svg" xmlns:xlink="http://www.w3.org/1999/xlink" x="0px" y="0px"
	 viewBox="0 0 226.8 53.9" style="enable-background:new 0 0 226.8 53.9;" xml:space="preserve">
<style type="text/css">
	.st0{fill:#FFFFFF;}
	.st1{fill:#EF3E42;}
	.st2{fill:#828385;}
</style>
<g>
	<path class="st0" d="M215.8,40c-2.1,1.3-3.9,2-5.4,2.6c-0.6,0.2-1.1,0.4-1.6,0.7c-2.6,1.2-4.4,2.3-5.3,3.4
		c-0.2,0.2-0.4,0.3-0.5,0.3c-0.2,0-0.4-0.1-0.5-0.2c-0.2-0.3-2.6-2.5-5.1-3.4c-1-0.4-6.2-2.4-7.6-3.7c-0.2-0.2-0.5-0.4-0.7-0.6
		c-1.6-1.3-3-2.6-2.9-7.7c0.1-2.6,0.8-6.8,1.2-8.9c0.5-2.3,1-5.6,0.8-7.9c-0.1-0.9-0.2-2.5-0.4-3.1c-0.2-0.6-0.3-1.1-0.4-1.4
		c-0.1-0.2-0.1-0.3-0.1-0.4c0-0.1,0-0.5,0.1-0.7c0.1-0.1,0.2-0.2,0.4-0.2c0.1,0,0.1,0,0.2,0c0.1,0,0.3,0.1,0.5,0.2
		c1.2,0.4,3.9,1.4,6.5,1.4c0.6,0,1.2-0.1,1.7-0.2c3.2-0.6,4.4-1.3,5.9-2.8c0.3-0.2,0.4-0.3,0.6-0.3c0.2,0,0.4,0.1,0.6,0.3
		c1.9,1.7,3.7,2.7,7.3,3c0.2,0,0.5,0,0.7,0c2.4,0,4.9-0.8,6.2-1.5c0.2-0.1,0.3-0.1,0.5-0.1c0.2,0,0.3,0.1,0.4,0.2
		c0.1,0.1,0.1,0.3,0.1,0.5c-0.1,0.3-0.1,0.5-0.2,0.9c-0.1,0.4-0.3,0.9-0.4,1.6c-0.5,1.9-0.4,5-0.3,6.6c0.1,0.7,0.3,2,0.5,3.5
		c0.5,3.2,1.1,7.5,1.1,9.5C219.8,35.7,218.6,38.2,215.8,40z M218.7,27c-0.4-2-1.1-7.8-1.3-10.2c-0.3-3.2,0.6-6.6,0.8-7
		c0.2-0.4,0-0.6-0.8-0.1c-0.5,0.3-4.1,1.3-6.1,1.2c-1.6-0.1-3.9-0.7-4.7-1c-0.8-0.3-2.1-1.2-2.7-1.8c-0.6-0.6-0.9-0.5-1.5,0
		c-0.3,0.2-1,0.9-2.7,1.7c-1.7,0.9-4.3,1-5.9,1c-1.4,0-5.2-1.2-5.5-1.3c-0.3-0.1-0.7-0.3-0.3,0.6c1.4,3.1,0.6,8.2,0.2,10.5
		c-0.3,2-1.3,7.3-1.4,9.9c-0.2,3.9,0.8,6.4,2.6,7.9c2.4,2,4.6,3,6.4,3.6c2.2,0.8,5,2.2,6.5,3.6c0.4,0.4,0.5,0.5,1.2-0.2
		c1.9-1.9,7.5-3.9,9.3-4.7c1.9-0.8,3.8-2.2,4.8-3.8C219.2,34.9,219.5,31.3,218.7,27z"/>
</g>
<g>
	<path class="st1" d="M218.9,21.8L218.9,21.8c-0.2-1.5-0.4-2.8-0.5-3.5c-0.2-1.6-0.2-4.6,0.3-6.5c0.1-0.6,0.3-1.1,0.4-1.5
		c0.1-0.3,0.2-0.6,0.2-0.9c0.1-0.3,0-0.5-0.1-0.7c-0.2-0.2-0.4-0.3-0.7-0.3c-0.2,0-0.4,0.1-0.6,0.2c-1.3,0.7-3.8,1.4-6.1,1.4
		c-0.2,0-0.5,0-0.7,0c-3.4-0.2-5.3-1.3-7.1-2.9c-0.3-0.3-0.5-0.4-0.8-0.4c-0.3,0-0.6,0.2-0.8,0.4c-1.5,1.4-2.7,2.1-5.8,2.7
		c-0.5,0.1-1.1,0.1-1.6,0.1c-2.6,0-5.2-1-6.4-1.4c-0.2-0.1-0.4-0.1-0.5-0.2c-0.1,0-0.2,0-0.3,0c-0.3,0-0.5,0.1-0.6,0.3
		c-0.2,0.3-0.3,0.7-0.2,0.9c0,0.1,0.1,0.2,0.1,0.4l0,0c0.1,0.3,0.3,0.8,0.4,1.4c0.1,0.4,0.3,1.5,0.4,3c0.2,2.3-0.3,5.5-0.8,7.9
		c-0.4,2.1-1.1,6.3-1.2,9c-0.2,5.2,1.3,6.5,3,7.9c0.2,0.2,0.5,0.4,0.7,0.6c1.4,1.3,6.2,3.2,7.6,3.8c2.4,0.9,4.8,3.1,5,3.4
		c0.2,0.2,0.4,0.3,0.7,0.3c0.3,0,0.6-0.1,0.8-0.4c0.8-1.1,2.6-2.2,5.2-3.4c0.5-0.2,1.1-0.4,1.6-0.7c1.5-0.6,3.3-1.3,5.4-2.6
		c2.9-1.8,4.1-4.4,4.1-8.8C220.1,29.4,219.4,25,218.9,21.8z M215.8,40c-2.1,1.3-3.9,2-5.4,2.6c-0.6,0.2-1.1,0.4-1.6,0.7
		c-2.6,1.2-4.4,2.3-5.3,3.4c-0.2,0.2-0.4,0.3-0.5,0.3c-0.2,0-0.4-0.1-0.5-0.2c-0.2-0.3-2.6-2.5-5.1-3.4c-1-0.4-6.2-2.4-7.6-3.7
		c-0.2-0.2-0.5-0.4-0.7-0.6c-1.6-1.3-3-2.6-2.9-7.7c0.1-2.6,0.8-6.8,1.2-8.9c0.5-2.3,1-5.6,0.8-7.9c-0.1-0.9-0.2-2.5-0.4-3.1
		c-0.2-0.6-0.3-1.1-0.4-1.4c-0.1-0.2-0.1-0.3-0.1-0.4c0-0.1,0-0.5,0.1-0.7c0.1-0.1,0.2-0.2,0.4-0.2c0.1,0,0.1,0,0.2,0
		c0.1,0,0.3,0.1,0.5,0.2c1.2,0.4,3.9,1.4,6.5,1.4c0.6,0,1.2-0.1,1.7-0.2c3.2-0.6,4.4-1.3,5.9-2.8c0.3-0.2,0.4-0.3,0.6-0.3
		c0.2,0,0.4,0.1,0.6,0.3c1.9,1.7,3.7,2.7,7.3,3c0.2,0,0.5,0,0.7,0c2.4,0,4.9-0.8,6.2-1.5c0.2-0.1,0.3-0.1,0.5-0.1
		c0.2,0,0.3,0.1,0.4,0.2c0.1,0.1,0.1,0.3,0.1,0.5c-0.1,0.3-0.1,0.5-0.2,0.9c-0.1,0.4-0.3,0.9-0.4,1.6c-0.5,1.9-0.4,5-0.3,6.6
		c0.1,0.7,0.3,2,0.5,3.5c0.5,3.2,1.1,7.5,1.1,9.5C219.8,35.7,218.6,38.2,215.8,40z M218.7,27c-0.4-2-1.1-7.8-1.3-10.2
		c-0.3-3.2,0.6-6.6,0.8-7c0.2-0.4,0-0.6-0.8-0.1c-0.5,0.3-4.1,1.3-6.1,1.2c-1.6-0.1-3.9-0.7-4.7-1c-0.8-0.3-2.1-1.2-2.7-1.8
		c-0.6-0.6-0.9-0.5-1.5,0c-0.3,0.2-1,0.9-2.7,1.7c-1.7,0.9-4.3,1-5.9,1c-1.4,0-5.2-1.2-5.5-1.3c-0.3-0.1-0.7-0.3-0.3,0.6
		c1.4,3.1,0.6,8.2,0.2,10.5c-0.3,2-1.3,7.3-1.4,9.9c-0.2,3.9,0.8,6.4,2.6,7.9c2.4,2,4.6,3,6.4,3.6c2.2,0.8,5,2.2,6.5,3.6
		c0.4,0.4,0.5,0.5,1.2-0.2c1.9-1.9,7.5-3.9,9.3-4.7c1.9-0.8,3.8-2.2,4.8-3.8C219.2,34.9,219.5,31.3,218.7,27z"/>
	<g>
		<g>
			<path class="st0" d="M193.3,16.2l2.6-1.6c0,0,0.3-0.2,0.3,0.1c0,0.3,0,1.9,0,1.9s-0.1,0.4-0.2,0c-0.1-0.4-0.2-0.7-0.5-0.8
				c-0.2-0.1-0.3,0-0.3,0.2c0,0.2,0,5,0,5.2c0,0.2,0,0.5,0.2,0.7c0.1,0.2,0.4,0.3,0.1,0.4c-0.3,0.2-1.1,0.7-1.1,0.7
				s-0.4,0.2-0.3-0.1c0.1-0.2,0.2-0.3,0.2-0.6c0-0.3,0-5.3,0-5.5c0-0.3-0.1-0.5-0.3-0.3c-0.2,0.1-0.4,1-0.6,2
				c-0.1,0.2-0.3,0.5-0.3,0.1c0-0.3,0-1.4,0-1.8C193.1,16.3,193.1,16.2,193.3,16.2z"/>
			<path class="st0" d="M197.2,14.8c0,0,0.8-0.5,1-0.6c0.2-0.1,0.2-0.1,0.2,0.2c-0.1,0.2-0.1,0.5-0.1,0.6c0,0.2,0,1.7,0,1.7l1.3-0.8
				c0,0,0-1.2,0-1.4c0-0.2-0.1-0.5-0.2-0.6c-0.1-0.1-0.1-0.2,0.1-0.3c0.2-0.1,0.7-0.4,0.9-0.6c0.1-0.1,0.2-0.1,0.1,0.2
				c-0.1,0.2,0,0.5-0.1,0.7c0,0.2,0,4.5,0,4.6c0,0.2,0,0.3,0.2,0.5c0.1,0.1,0.2,0.3-0.1,0.4c-0.2,0.1-0.6,0.4-0.8,0.5
				c-0.1,0.1-0.3,0.1-0.2-0.2c0.1-0.3,0.1-0.6,0.1-0.9c0-0.4,0-1.6,0-1.8c0-0.3,0.1-0.3-0.2-0.2c-0.1,0.1-0.8,0.5-1,0.6
				c-0.1,0.1-0.1,0.1-0.1,0.2c0,0.2,0,2.3,0,2.4c0,0.2,0.1,0.3,0.2,0.3c0.1,0.1,0.2,0.2-0.1,0.3c-0.2,0.1-0.8,0.5-0.9,0.6
				c-0.1,0.1-0.2-0.1-0.2-0.2c0.1-0.2,0.1-0.3,0.1-0.7c0-0.4,0-4.4,0-4.6c0-0.2-0.2-0.4-0.3-0.5C197,15.1,197,15,197.2,14.8z"/>
			<path class="st0" d="M201.5,12.2c0.6-0.4,2.2-1.4,2.6-1.6c0.2-0.1,0.3-0.2,0.3,0.1c0,0.3,0,0.7,0,0.8c0,0.1-0.2,0.2-0.2,0.1
				c-0.1-0.1-0.4-0.1-0.6-0.1c-0.2,0.1-0.6,0.3-0.7,0.3c0,0.2,0,1.9,0,2c0.3-0.1,0.6-0.3,1-0.3c0.4-0.1,1.1-0.5,1.2-0.6
				c0.1-0.2,0.3-0.2,0.2,0.2c-0.1,0.4-0.4,1.1-1.3,1.1c-0.8,0-0.9,0.1-1,0.3c-0.1,0.1-0.2,0.2-0.2,0.3c0,0.1,0,2.3,0,2.4
				c0,0.1,0.1,0.1,0.2,0c0.1-0.1,1.2-0.8,1.7-1.8c0.2-0.4,0.3-0.3,0.3-0.1c0,0.2-0.1,0.9-0.1,1c0,0.2,0,0.3-0.5,0.6
				c-0.3,0.2-2.2,1.3-2.4,1.4c-0.2,0.1-0.3,0-0.2-0.2c0.1-0.2,0.1-0.2,0.1-0.3c0-0.2,0-4.7,0-4.9c0-0.2-0.1-0.4-0.3-0.5
				C201.4,12.4,201.3,12.3,201.5,12.2z"/>
			<path class="st0" d="M188.9,29.3c0-0.7,0.6-1.4,1.4-1.6c0.6-0.1,0.8,0.1,1.1,0.2c0.3,0.1,0.7,0.1,0.9,0c0.2-0.1,0.4-0.3,0.3,0.1
				c-0.1,0.4-0.3,1.3-0.2,1.7c0.1,0.4,0.2,0.5,0.2,0.7c0,0.2-0.2,0-0.3-0.1c-0.1-0.1-0.3-0.3-0.5-0.4c-0.1-0.1-0.3-0.3-0.2-0.4
				c0.1-0.1,0-0.8-0.3-1c-0.5-0.3-1.4-0.1-1.5,0.7c-0.1,0.8,1,1.8,1.2,1.9c1,0.5,1.7,1.8,1.5,3.2c-0.1,1-0.9,2.1-2.1,2.1
				c-1.2,0-1.9-0.6-1.9-1.7c0.1-1.1,1-1.1,1.2-1.1c0.2,0.1,0.9,0.4,0.7,0.8c-0.1,0.2-0.3-0.1-0.3-0.1s-0.6,0-0.5,0.5
				c0.1,0.4,0.6,0.6,0.9,0.7c0.5,0.1,1.2-0.5,1.1-1.4c-0.1-0.9-1-1.6-1.7-2.2C189.3,31.3,188.8,30.3,188.9,29.3z"/>
			<path class="st0" d="M192.9,34.7c0.1-0.1,0.2-0.4,0.3-0.7c0.1-0.3,1.4-7.8,1.5-8.2c0.1-0.4,0.2-0.5,0.3-0.1
				c0.1,0.4,1.5,6.5,1.7,6.7c0.1,0.2,0,0.4-0.1,0.5c-0.2,0.1-0.5,0.3-0.8,0.5c-0.3,0.2-0.2-0.3-0.2-0.4c0-0.1,0.1-0.2,0.1-0.4
				c0-0.1-0.1-0.5-0.2-0.7c-0.1-0.2-0.2-0.2-0.2-0.2s-0.7,0.4-0.8,0.5c-0.1,0.1-0.1,0.1-0.2,0.2c0,0.1-0.1,0.9-0.1,1.1
				c0,0.1,0.2,0.3,0.4,0.4c0.1,0.1,0.2,0.2,0,0.3c-0.1,0.1-1.2,0.7-1.4,0.8C192.8,35.1,192.8,34.8,192.9,34.7z M194.5,31.2
				c0.1,0,0.3-0.2,0.5-0.3c0.1-0.1,0.1-0.3,0.1-0.3s-0.3-1.2-0.3-1.4c-0.1-0.3-0.2-0.1-0.2,0.1c0,0.2-0.2,1.5-0.3,1.6
				C194.3,31.2,194.4,31.3,194.5,31.2z"/>
			<path class="st0" d="M196.8,25.2c0.2-0.1,1-0.6,1.2-0.7c0.2-0.1,0.4-0.1,0.2,0.2c-0.1,0.3-0.2,0.7-0.2,0.8c0,0.2-0.1,5.5-0.1,5.5
				s0,0.4,0.3,0.1c0.6-0.5,0.9-1.5,0.9-1.8c0.1-0.3,0.3-0.6,0.3-0.2c0,0.4,0,1.6,0,1.8c0,0.1-0.1,0.2-0.2,0.3
				c-0.5,0.3-1.5,0.9-2.1,1.3c-0.1,0.1-0.2,0-0.2-0.2c0-0.2,0.1-6.1,0.1-6.3c0-0.2-0.2-0.4-0.2-0.5
				C196.7,25.5,196.6,25.3,196.8,25.2z"/>
			<path class="st0" d="M199,23.8c0.1-0.1,0.8-0.5,1-0.6c0.1-0.1,0.3-0.1,0.2,0.2c-0.1,0.3-0.1,0.6-0.1,0.7c0,0.2,0.6,2.4,0.6,2.6
				c0.1,0.1,0.1,0.1,0.2-0.1c0.1-0.2,0.5-3.1,0.5-3.3c0-0.2-0.1-0.5-0.1-0.6c-0.1-0.1-0.2-0.2,0-0.3c0.2-0.1,0.9-0.5,1-0.6
				c0.1-0.1,0.3,0,0.2,0.2c-0.1,0.2-0.3,1-0.3,1.2c-0.1,0.2-1.3,6.7-1.3,6.9c-0.1,0.2-0.2,0.4-0.3,0c-0.1-0.4-1.3-5.3-1.4-5.6
				c-0.1-0.3-0.2-0.3-0.3-0.4C198.8,24.1,198.7,24,199,23.8z"/>
			<path class="st0" d="M203.3,25.7c0-0.2,0.2-1.3,0.3-1.4c0-0.2,0.1-0.3,0.2-0.1c0,0.2,0.2,1.3,0.2,1.3s0,0.2-0.1,0.3
				c-0.1,0.1-0.4,0.2-0.5,0.3C203.3,26.1,203.3,26,203.3,25.7z M201.9,29.6c0.2-0.1,1-0.7,1.2-0.7c0.1,0,0.1-0.2,0-0.3
				c-0.1-0.1-0.2-0.3-0.2-0.4c0-0.1,0.1-0.8,0.1-1c0-0.1,0.1-0.2,0.2-0.3c0.1-0.1,0.8-0.5,0.8-0.5s0.1-0.1,0.2,0.1
				c0.1,0.2,0.1,0.6,0.1,0.7c0,0.1,0,0.3,0,0.4c0,0.1-0.1,0.6,0.1,0.4c0.3-0.2,0.8-0.5,0.9-0.6c0.1-0.1,0.2-0.1,0-0.3
				c-0.1-0.1-0.2-0.3-0.2-0.5c-0.1-0.2-1.3-5.6-1.3-5.9c-0.1-0.4-0.2-0.3-0.3,0.1c-0.1,0.4-1.4,7.4-1.5,7.8
				c-0.1,0.3-0.3,0.7-0.4,0.8C201.7,29.5,201.7,29.7,201.9,29.6z"/>
			<path class="st0" d="M200.5,37.7c0-0.2,0.4-2,0.4-2.2c0-0.2,0.1-0.3,0.2,0c0,0.2,0.4,1.8,0.4,1.8s0,0.2-0.2,0.3
				c-0.1,0.1-0.6,0.4-0.7,0.4C200.4,38.1,200.5,38,200.5,37.7z M198.8,42.1c0.2-0.1,1.3-0.8,1.5-0.9c0.2-0.1,0.1-0.2,0-0.3
				c-0.1-0.1-0.3-0.2-0.3-0.4c0-0.2,0.2-1.1,0.2-1.2c0-0.1,0.1-0.1,0.2-0.2c0.1-0.1,1.2-0.7,1.2-0.7s0.1,0,0.2,0.2
				c0.1,0.3,0.1,0.5,0.1,0.7c0,0.1,0,0.4,0,0.5c0,0.1-0.1,0.6,0.2,0.4c0.3-0.2,0.7-0.4,0.8-0.5c0.1-0.1,0.3-0.3,0.1-0.4
				c-0.1-0.1-0.3-0.5-0.5-1.1c-0.4-2-1.4-5.8-1.4-6.1c-0.1-0.4-0.3-0.3-0.3,0.1c-0.1,0.4-1.7,8.6-1.8,8.9c-0.1,0.3-0.4,0.8-0.4,0.9
				C198.6,42,198.6,42.2,198.8,42.1z"/>
			<path class="st0" d="M205.1,20.1c0.2-0.1,2.2-1.4,2.4-1.5c0.2-0.1,0.3,0,0.3,0.2c0,0.2,0.1,1.4,0.1,1.5c0,0.1-0.2,0.3-0.2,0.1
				c-0.1-0.2-0.2-0.5-0.3-0.6c-0.1-0.1-0.3-0.1-0.4,0c-0.1,0.1-0.1,0.1-0.1,0.2c0,0.2,0,5,0,5.2c0,0.3,0.1,0.6,0.2,0.7
				c0.1,0.1,0.2,0.2,0,0.4c-0.2,0.2-0.8,0.5-0.9,0.5c-0.1,0.1-0.2,0.1-0.2-0.2c0.1-0.2,0.1-0.4,0.1-0.7c0-0.2,0-5.2,0-5.4
				c0-0.2-0.1-0.4-0.2-0.3c-0.2,0.1-0.5,0.7-0.6,1.2c0,0.2-0.2,0.3-0.3,0.1c0-0.3,0-1,0-1.3C204.9,20.2,204.9,20.2,205.1,20.1z"/>
			<path class="st0" d="M208.3,18.2c0.1-0.1,0.8-0.5,1-0.6c0.2-0.1,0.2-0.1,0.2,0.2c-0.1,0.2-0.1,0.5-0.1,0.6c0,0.1,0,5.6,0,5.8
				c0,0.2,0.1,0.4,0.1,0.5c0,0.1,0.1,0.3,0,0.4c-0.1,0.1-1,0.6-1.1,0.7c-0.1,0.1-0.2,0-0.1-0.2c0.1-0.2,0.2-0.5,0.2-0.7
				c0-0.2,0-5.2,0-5.5c0-0.3-0.2-0.6-0.3-0.8C208.1,18.3,208.2,18.3,208.3,18.2z"/>
			<path class="st0" d="M209.8,20.4c0-0.6,0-3.8,1.7-4.3c0.8-0.2,1.3,0.9,1.4,1.4c0.2,1.3,0.4,3.8-0.6,5.6c-0.6,1.1-1.9,0.5-2.2-0.5
				C209.8,21.7,209.8,21.2,209.8,20.4z M211,22.7c0.2,0.5,0.5,0.4,0.8,0c0.1-0.2,0.3-0.9,0.5-2c0.2-1.7,0-3-0.2-3.4
				c-0.2-0.6-0.7-0.4-0.9,0c-0.5,0.8-0.5,1.7-0.5,3C210.6,20.6,210.7,22,211,22.7z"/>
			<path class="st0" d="M213.3,15.2c0.2-0.1,0.3-0.2,0.5-0.3c0.2-0.1,0.3-0.2,0.6,0.3c0.2,0.5,0.7,1.6,0.8,1.8
				c0.1,0.3,0.2,0.2,0.2,0c0-0.5,0-2.6,0-2.9c0-0.3-0.1-0.5-0.2-0.6c-0.1-0.2-0.3-0.3-0.1-0.5c0.2-0.1,1.3-0.6,1.1,1.5
				c-0.1,0.8,0,6.5,0,6.6c0,0.2,0.1,0.3-0.1,0.3c-0.2,0-0.3-0.1-0.4-0.3c-0.1-0.2-1.4-3.3-1.4-3.3s-0.2-0.3-0.2,0.2
				c0,0.5,0,2.9,0,3.2c0,0.3,0.1,0.4,0.2,0.5c0.1,0.1,0.2,0.3,0,0.4c-0.2,0.1-0.6,0.4-0.8,0.5c-0.2,0.1-0.3,0-0.2-0.3
				c0.1-0.3,0.2-0.6,0.2-0.9c0-0.3,0-4.7,0-5c0-0.3-0.1-0.6-0.2-0.6C213.2,15.5,213.1,15.4,213.3,15.2z"/>
			<path class="st0" d="M203.2,31.9c0.4-0.2,0.9-0.6,1.2-0.7c0.9-0.6,2.2,0,2.3,1.2c0.1,1.6-0.6,2.1-1,2.5c-0.2,0.2-0.3,0.4-0.2,0.5
				c0.1,0.2,1,2,1.3,2.4c0.3,0.3,0.8,0.4,1.1,0.2c0.3-0.1,0.5,0,0.3,0.3c-0.2,0.3-0.9,0.9-1.5,0.6c-0.6-0.4-0.9-0.8-1.1-1.2
				c-0.2-0.5-0.7-1.6-0.8-1.8c-0.1-0.2-0.3-0.4-0.3,0c0,0.4,0,1.9,0,2.1c0,0.2,0,0.1,0.1,0.2c0.1,0.1,0.2,0.2-0.1,0.4
				c-0.3,0.2-0.6,0.4-0.8,0.5c-0.2,0.1-0.3,0-0.2-0.2c0.1-0.2,0-0.4,0-0.6c0-0.3,0-5.4,0-5.6c0-0.2,0-0.4-0.1-0.4
				C203.3,32.2,202.8,32.1,203.2,31.9z M204.8,34.9c0.6-0.4,0.9-1.1,0.9-1.8c0.1-1.5-0.9-1.3-1.1-1.3c-0.2,0.1-0.3,0.1-0.3,0.3
				c0,0.3,0,2.5,0,2.5C204.4,34.9,204.6,35,204.8,34.9z"/>
			<path class="st0" d="M206.8,29.8c0.2-0.1,0.7-0.4,0.8-0.5c0.2-0.1,0.2,0,0.3,0.1c0.1,0.2,0.9,1.5,0.9,1.6
				c0.1,0.1,0.2,0.2,0.3-0.1c0.1-0.3,0.7-2.8,0.8-2.9c0.1-0.2,0.2-0.2,0.3-0.3c0.1-0.1,0.4-0.2,0.5-0.3c0.2-0.1,0.2,0,0.2,0.1
				c0,0.2-0.1,0.7-0.1,0.9c0,0.2,0,5.5,0,5.7c0,0.2,0.1,0.4,0.1,0.4c0.1,0.1,0.1,0.2-0.1,0.3c-0.2,0.1-0.7,0.4-0.9,0.5
				c-0.2,0.1-0.3,0-0.2-0.3c0.1-0.2,0.1-0.2,0.2-0.5c0-0.3,0-3.4,0-3.6c0-0.2,0-0.4-0.1,0c-0.1,0.4-0.6,2.2-0.6,2.3
				c0,0.1-0.1,0.2-0.2,0c-0.1-0.2-0.7-1.2-0.7-1.3c0-0.1-0.1,0-0.1,0.1c0,0.1,0,3.3,0,3.4c0,0.2,0.1,0.4,0.1,0.4
				c0.1,0.1,0.3,0.2,0,0.4c-0.3,0.2-1,0.6-1.1,0.6c-0.1,0.1-0.3,0-0.2-0.2c0.2-0.3,0.2-0.5,0.2-0.8c0-0.7,0-4.4,0-5.2
				c0-0.3-0.1-0.5-0.2-0.5C206.8,30,206.5,29.9,206.8,29.8z"/>
			<path class="st0" d="M211.6,26.7c0.2-0.1,0.9-0.5,1-0.6c0.2-0.1,0.2,0,0.2,0.2c-0.1,0.2,0,0.7,0.1,0.9c0.1,0.2,0.4,0.9,0.5,1
				c0.1,0.1,0.1,0.3,0.3,0c0.2-0.3,0.9-2.4,0.9-2.7c0.1-0.3,0-0.7-0.2-0.8c-0.1-0.1-0.4-0.3-0.1-0.5c0.3-0.2,0.4-0.3,0.7-0.1
				c0.5,0.4,0.5,1.1,0.2,1.7c-0.2,0.5-1.1,2.8-1.2,3.2c-0.1,0.4-0.1,0.5-0.1,0.8c0,0.3,0,1.5,0,1.9c0,0.4,0.1,0.5,0.2,0.6
				c0.1,0.2,0.1,0.3,0,0.4c-0.2,0.2-0.8,0.5-0.9,0.6c-0.2,0.1-0.4,0.1-0.2-0.3c0.2-0.4,0.2-0.4,0.2-0.7c0-0.3,0-2.2,0-2.5
				c0-0.3-0.2-0.9-0.4-1.2c-0.1-0.3-0.5-1.1-0.6-1.3c-0.1-0.2-0.3-0.3-0.4-0.4C211.5,26.9,211.5,26.9,211.6,26.7z"/>
		</g>
	</g>
	<path class="st0" d="M193.3,16.2l2.6-1.6c0,0,0.3-0.2,0.3,0.1c0,0.3,0,1.9,0,1.9s-0.1,0.4-0.2,0c-0.1-0.4-0.2-0.7-0.5-0.8
		c-0.2-0.1-0.3,0-0.3,0.2c0,0.2,0,5,0,5.2c0,0.2,0,0.5,0.2,0.7c0.1,0.2,0.4,0.3,0.1,0.4c-0.3,0.2-1.1,0.7-1.1,0.7s-0.4,0.2-0.3-0.1
		c0.1-0.2,0.2-0.3,0.2-0.6c0-0.3,0-5.3,0-5.5c0-0.3-0.1-0.5-0.3-0.3c-0.2,0.1-0.4,1-0.6,2c-0.1,0.2-0.3,0.5-0.3,0.1
		c0-0.3,0-1.4,0-1.8C193.1,16.3,193.1,16.2,193.3,16.2z"/>
	<path class="st0" d="M197.2,14.8c0,0,0.8-0.5,1-0.6c0.2-0.1,0.2-0.1,0.2,0.2c-0.1,0.2-0.1,0.5-0.1,0.6c0,0.2,0,1.7,0,1.7l1.3-0.8
		c0,0,0-1.2,0-1.4c0-0.2-0.1-0.5-0.2-0.6c-0.1-0.1-0.1-0.2,0.1-0.3c0.2-0.1,0.7-0.4,0.9-0.6c0.1-0.1,0.2-0.1,0.1,0.2
		c-0.1,0.2,0,0.5-0.1,0.7c0,0.2,0,4.5,0,4.6c0,0.2,0,0.3,0.2,0.5c0.1,0.1,0.2,0.3-0.1,0.4c-0.2,0.1-0.6,0.4-0.8,0.5
		c-0.1,0.1-0.3,0.1-0.2-0.2c0.1-0.3,0.1-0.6,0.1-0.9c0-0.4,0-1.6,0-1.8c0-0.3,0.1-0.3-0.2-0.2c-0.1,0.1-0.8,0.5-1,0.6
		c-0.1,0.1-0.1,0.1-0.1,0.2c0,0.2,0,2.3,0,2.4c0,0.2,0.1,0.3,0.2,0.3c0.1,0.1,0.2,0.2-0.1,0.3c-0.2,0.1-0.8,0.5-0.9,0.6
		c-0.1,0.1-0.2-0.1-0.2-0.2c0.1-0.2,0.1-0.3,0.1-0.7c0-0.4,0-4.4,0-4.6c0-0.2-0.2-0.4-0.3-0.5C197,15.1,197,15,197.2,14.8z"/>
	<path class="st0" d="M201.5,12.2c0.6-0.4,2.2-1.4,2.6-1.6c0.2-0.1,0.3-0.2,0.3,0.1c0,0.3,0,0.7,0,0.8c0,0.1-0.2,0.2-0.2,0.1
		c-0.1-0.1-0.4-0.1-0.6-0.1c-0.2,0.1-0.6,0.3-0.7,0.3c0,0.2,0,1.9,0,2c0.3-0.1,0.6-0.3,1-0.3c0.4-0.1,1.1-0.5,1.2-0.6
		c0.1-0.2,0.3-0.2,0.2,0.2c-0.1,0.4-0.4,1.1-1.3,1.1c-0.8,0-0.9,0.1-1,0.3c-0.1,0.1-0.2,0.2-0.2,0.3c0,0.1,0,2.3,0,2.4
		c0,0.1,0.1,0.1,0.2,0c0.1-0.1,1.2-0.8,1.7-1.8c0.2-0.4,0.3-0.3,0.3-0.1c0,0.2-0.1,0.9-0.1,1c0,0.2,0,0.3-0.5,0.6
		c-0.3,0.2-2.2,1.3-2.4,1.4c-0.2,0.1-0.3,0-0.2-0.2c0.1-0.2,0.1-0.2,0.1-0.3c0-0.2,0-4.7,0-4.9c0-0.2-0.1-0.4-0.3-0.5
		C201.4,12.4,201.3,12.3,201.5,12.2z"/>
	<path class="st0" d="M188.9,29.3c0-0.7,0.6-1.4,1.4-1.6c0.6-0.1,0.8,0.1,1.1,0.2c0.3,0.1,0.7,0.1,0.9,0c0.2-0.1,0.4-0.3,0.3,0.1
		c-0.1,0.4-0.3,1.3-0.2,1.7c0.1,0.4,0.2,0.5,0.2,0.7c0,0.2-0.2,0-0.3-0.1c-0.1-0.1-0.3-0.3-0.5-0.4c-0.1-0.1-0.3-0.3-0.2-0.4
		c0.1-0.1,0-0.8-0.3-1c-0.5-0.3-1.4-0.1-1.5,0.7c-0.1,0.8,1,1.8,1.2,1.9c1,0.5,1.7,1.8,1.5,3.2c-0.1,1-0.9,2.1-2.1,2.1
		c-1.2,0-1.9-0.6-1.9-1.7c0.1-1.1,1-1.1,1.2-1.1c0.2,0.1,0.9,0.4,0.7,0.8c-0.1,0.2-0.3-0.1-0.3-0.1s-0.6,0-0.5,0.5
		c0.1,0.4,0.6,0.6,0.9,0.7c0.5,0.1,1.2-0.5,1.1-1.4c-0.1-0.9-1-1.6-1.7-2.2C189.3,31.3,188.8,30.3,188.9,29.3z"/>
	<path class="st0" d="M192.9,34.7c0.1-0.1,0.2-0.4,0.3-0.7c0.1-0.3,1.4-7.8,1.5-8.2c0.1-0.4,0.2-0.5,0.3-0.1
		c0.1,0.4,1.5,6.5,1.7,6.7c0.1,0.2,0,0.4-0.1,0.5c-0.2,0.1-0.5,0.3-0.8,0.5c-0.3,0.2-0.2-0.3-0.2-0.4c0-0.1,0.1-0.2,0.1-0.4
		c0-0.1-0.1-0.5-0.2-0.7c-0.1-0.2-0.2-0.2-0.2-0.2s-0.7,0.4-0.8,0.5c-0.1,0.1-0.1,0.1-0.2,0.2c0,0.1-0.1,0.9-0.1,1.1
		c0,0.1,0.2,0.3,0.4,0.4c0.1,0.1,0.2,0.2,0,0.3c-0.1,0.1-1.2,0.7-1.4,0.8C192.8,35.1,192.8,34.8,192.9,34.7z M194.5,31.2
		c0.1,0,0.3-0.2,0.5-0.3c0.1-0.1,0.1-0.3,0.1-0.3s-0.3-1.2-0.3-1.4c-0.1-0.3-0.2-0.1-0.2,0.1c0,0.2-0.2,1.5-0.3,1.6
		C194.3,31.2,194.4,31.3,194.5,31.2z"/>
	<path class="st0" d="M196.8,25.2c0.2-0.1,1-0.6,1.2-0.7c0.2-0.1,0.4-0.1,0.2,0.2c-0.1,0.3-0.2,0.7-0.2,0.8c0,0.2-0.1,5.5-0.1,5.5
		s0,0.4,0.3,0.1c0.6-0.5,0.9-1.5,0.9-1.8c0.1-0.3,0.3-0.6,0.3-0.2c0,0.4,0,1.6,0,1.8c0,0.1-0.1,0.2-0.2,0.3
		c-0.5,0.3-1.5,0.9-2.1,1.3c-0.1,0.1-0.2,0-0.2-0.2c0-0.2,0.1-6.1,0.1-6.3c0-0.2-0.2-0.4-0.2-0.5C196.7,25.5,196.6,25.3,196.8,25.2z
		"/>
	<path class="st0" d="M199,23.8c0.1-0.1,0.8-0.5,1-0.6c0.1-0.1,0.3-0.1,0.2,0.2c-0.1,0.3-0.1,0.6-0.1,0.7c0,0.2,0.6,2.4,0.6,2.6
		c0.1,0.1,0.1,0.1,0.2-0.1c0.1-0.2,0.5-3.1,0.5-3.3c0-0.2-0.1-0.5-0.1-0.6c-0.1-0.1-0.2-0.2,0-0.3c0.2-0.1,0.9-0.5,1-0.6
		c0.1-0.1,0.3,0,0.2,0.2c-0.1,0.2-0.3,1-0.3,1.2c-0.1,0.2-1.3,6.7-1.3,6.9c-0.1,0.2-0.2,0.4-0.3,0c-0.1-0.4-1.3-5.3-1.4-5.6
		c-0.1-0.3-0.2-0.3-0.3-0.4C198.8,24.1,198.7,24,199,23.8z"/>
	<path class="st0" d="M203.3,25.7c0-0.2,0.2-1.3,0.3-1.4c0-0.2,0.1-0.3,0.2-0.1c0,0.2,0.2,1.3,0.2,1.3s0,0.2-0.1,0.3
		c-0.1,0.1-0.4,0.2-0.5,0.3C203.3,26.1,203.3,26,203.3,25.7z M201.9,29.6c0.2-0.1,1-0.7,1.2-0.7c0.1,0,0.1-0.2,0-0.3
		c-0.1-0.1-0.2-0.3-0.2-0.4c0-0.1,0.1-0.8,0.1-1c0-0.1,0.1-0.2,0.2-0.3c0.1-0.1,0.8-0.5,0.8-0.5s0.1-0.1,0.2,0.1
		c0.1,0.2,0.1,0.6,0.1,0.7c0,0.1,0,0.3,0,0.4c0,0.1-0.1,0.6,0.1,0.4c0.3-0.2,0.8-0.5,0.9-0.6c0.1-0.1,0.2-0.1,0-0.3
		c-0.1-0.1-0.2-0.3-0.2-0.5c-0.1-0.2-1.3-5.6-1.3-5.9c-0.1-0.4-0.2-0.3-0.3,0.1c-0.1,0.4-1.4,7.4-1.5,7.8c-0.1,0.3-0.3,0.7-0.4,0.8
		C201.7,29.5,201.7,29.7,201.9,29.6z"/>
	<path class="st0" d="M200.5,37.7c0-0.2,0.4-2,0.4-2.2c0-0.2,0.1-0.3,0.2,0c0,0.2,0.4,1.8,0.4,1.8s0,0.2-0.2,0.3
		c-0.1,0.1-0.6,0.4-0.7,0.4C200.4,38.1,200.5,38,200.5,37.7z M198.8,42.1c0.2-0.1,1.3-0.8,1.5-0.9c0.2-0.1,0.1-0.2,0-0.3
		c-0.1-0.1-0.3-0.2-0.3-0.4c0-0.2,0.2-1.1,0.2-1.2c0-0.1,0.1-0.1,0.2-0.2c0.1-0.1,1.2-0.7,1.2-0.7s0.1,0,0.2,0.2
		c0.1,0.3,0.1,0.5,0.1,0.7c0,0.1,0,0.4,0,0.5c0,0.1-0.1,0.6,0.2,0.4c0.3-0.2,0.7-0.4,0.8-0.5c0.1-0.1,0.3-0.3,0.1-0.4
		c-0.1-0.1-0.3-0.5-0.5-1.1c-0.4-2-1.4-5.8-1.4-6.1c-0.1-0.4-0.3-0.3-0.3,0.1c-0.1,0.4-1.7,8.6-1.8,8.9c-0.1,0.3-0.4,0.8-0.4,0.9
		C198.6,42,198.6,42.2,198.8,42.1z"/>
	<path class="st0" d="M205.1,20.1c0.2-0.1,2.2-1.4,2.4-1.5c0.2-0.1,0.3,0,0.3,0.2c0,0.2,0.1,1.4,0.1,1.5c0,0.1-0.2,0.3-0.2,0.1
		c-0.1-0.2-0.2-0.5-0.3-0.6c-0.1-0.1-0.3-0.1-0.4,0c-0.1,0.1-0.1,0.1-0.1,0.2c0,0.2,0,5,0,5.2c0,0.3,0.1,0.6,0.2,0.7
		c0.1,0.1,0.2,0.2,0,0.4c-0.2,0.2-0.8,0.5-0.9,0.5c-0.1,0.1-0.2,0.1-0.2-0.2c0.1-0.2,0.1-0.4,0.1-0.7c0-0.2,0-5.2,0-5.4
		c0-0.2-0.1-0.4-0.2-0.3c-0.2,0.1-0.5,0.7-0.6,1.2c0,0.2-0.2,0.3-0.3,0.1c0-0.3,0-1,0-1.3C204.9,20.2,204.9,20.2,205.1,20.1z"/>
	<path class="st0" d="M208.3,18.2c0.1-0.1,0.8-0.5,1-0.6c0.2-0.1,0.2-0.1,0.2,0.2c-0.1,0.2-0.1,0.5-0.1,0.6c0,0.1,0,5.6,0,5.8
		c0,0.2,0.1,0.4,0.1,0.5c0,0.1,0.1,0.3,0,0.4c-0.1,0.1-1,0.6-1.1,0.7c-0.1,0.1-0.2,0-0.1-0.2c0.1-0.2,0.2-0.5,0.2-0.7
		c0-0.2,0-5.2,0-5.5c0-0.3-0.2-0.6-0.3-0.8C208.1,18.3,208.2,18.3,208.3,18.2z"/>
	<path class="st0" d="M209.8,20.4c0-0.6,0-3.8,1.7-4.3c0.8-0.2,1.3,0.9,1.4,1.4c0.2,1.3,0.4,3.8-0.6,5.6c-0.6,1.1-1.9,0.5-2.2-0.5
		C209.8,21.7,209.8,21.2,209.8,20.4z M211,22.7c0.2,0.5,0.5,0.4,0.8,0c0.1-0.2,0.3-0.9,0.5-2c0.2-1.7,0-3-0.2-3.4
		c-0.2-0.6-0.7-0.4-0.9,0c-0.5,0.8-0.5,1.7-0.5,3C210.6,20.6,210.7,22,211,22.7z"/>
	<path class="st0" d="M213.3,15.2c0.2-0.1,0.3-0.2,0.5-0.3c0.2-0.1,0.3-0.2,0.6,0.3c0.2,0.5,0.7,1.6,0.8,1.8c0.1,0.3,0.2,0.2,0.2,0
		c0-0.5,0-2.6,0-2.9c0-0.3-0.1-0.5-0.2-0.6c-0.1-0.2-0.3-0.3-0.1-0.5c0.2-0.1,1.3-0.6,1.1,1.5c-0.1,0.8,0,6.5,0,6.6
		c0,0.2,0.1,0.3-0.1,0.3c-0.2,0-0.3-0.1-0.4-0.3c-0.1-0.2-1.4-3.3-1.4-3.3s-0.2-0.3-0.2,0.2c0,0.5,0,2.9,0,3.2
		c0,0.3,0.1,0.4,0.2,0.5c0.1,0.1,0.2,0.3,0,0.4c-0.2,0.1-0.6,0.4-0.8,0.5c-0.2,0.1-0.3,0-0.2-0.3c0.1-0.3,0.2-0.6,0.2-0.9
		c0-0.3,0-4.7,0-5c0-0.3-0.1-0.6-0.2-0.6C213.2,15.5,213.1,15.4,213.3,15.2z"/>
	<path class="st0" d="M203.2,31.9c0.4-0.2,0.9-0.6,1.2-0.7c0.9-0.6,2.2,0,2.3,1.2c0.1,1.6-0.6,2.1-1,2.5c-0.2,0.2-0.3,0.4-0.2,0.5
		c0.1,0.2,1,2,1.3,2.4c0.3,0.3,0.8,0.4,1.1,0.2c0.3-0.1,0.5,0,0.3,0.3c-0.2,0.3-0.9,0.9-1.5,0.6c-0.6-0.4-0.9-0.8-1.1-1.2
		c-0.2-0.5-0.7-1.6-0.8-1.8c-0.1-0.2-0.3-0.4-0.3,0c0,0.4,0,1.9,0,2.1c0,0.2,0,0.1,0.1,0.2c0.1,0.1,0.2,0.2-0.1,0.4
		c-0.3,0.2-0.6,0.4-0.8,0.5c-0.2,0.1-0.3,0-0.2-0.2c0.1-0.2,0-0.4,0-0.6c0-0.3,0-5.4,0-5.6c0-0.2,0-0.4-0.1-0.4
		C203.3,32.2,202.8,32.1,203.2,31.9z M204.8,34.9c0.6-0.4,0.9-1.1,0.9-1.8c0.1-1.5-0.9-1.3-1.1-1.3c-0.2,0.1-0.3,0.1-0.3,0.3
		c0,0.3,0,2.5,0,2.5C204.4,34.9,204.6,35,204.8,34.9z"/>
	<path class="st0" d="M206.8,29.8c0.2-0.1,0.7-0.4,0.8-0.5c0.2-0.1,0.2,0,0.3,0.1c0.1,0.2,0.9,1.5,0.9,1.6c0.1,0.1,0.2,0.2,0.3-0.1
		c0.1-0.3,0.7-2.8,0.8-2.9c0.1-0.2,0.2-0.2,0.3-0.3c0.1-0.1,0.4-0.2,0.5-0.3c0.2-0.1,0.2,0,0.2,0.1c0,0.2-0.1,0.7-0.1,0.9
		c0,0.2,0,5.5,0,5.7c0,0.2,0.1,0.4,0.1,0.4c0.1,0.1,0.1,0.2-0.1,0.3c-0.2,0.1-0.7,0.4-0.9,0.5c-0.2,0.1-0.3,0-0.2-0.3
		c0.1-0.2,0.1-0.2,0.2-0.5c0-0.3,0-3.4,0-3.6c0-0.2,0-0.4-0.1,0c-0.1,0.4-0.6,2.2-0.6,2.3c0,0.1-0.1,0.2-0.2,0
		c-0.1-0.2-0.7-1.2-0.7-1.3c0-0.1-0.1,0-0.1,0.1c0,0.1,0,3.3,0,3.4c0,0.2,0.1,0.4,0.1,0.4c0.1,0.1,0.3,0.2,0,0.4
		c-0.3,0.2-1,0.6-1.1,0.6c-0.1,0.1-0.3,0-0.2-0.2c0.2-0.3,0.2-0.5,0.2-0.8c0-0.7,0-4.4,0-5.2c0-0.3-0.1-0.5-0.2-0.5
		C206.8,30,206.5,29.9,206.8,29.8z"/>
	<path class="st0" d="M211.6,26.7c0.2-0.1,0.9-0.5,1-0.6c0.2-0.1,0.2,0,0.2,0.2c-0.1,0.2,0,0.7,0.1,0.9c0.1,0.2,0.4,0.9,0.5,1
		c0.1,0.1,0.1,0.3,0.3,0c0.2-0.3,0.9-2.4,0.9-2.7c0.1-0.3,0-0.7-0.2-0.8c-0.1-0.1-0.4-0.3-0.1-0.5c0.3-0.2,0.4-0.3,0.7-0.1
		c0.5,0.4,0.5,1.1,0.2,1.7c-0.2,0.5-1.1,2.8-1.2,3.2c-0.1,0.4-0.1,0.5-0.1,0.8c0,0.3,0,1.5,0,1.9c0,0.4,0.1,0.5,0.2,0.6
		c0.1,0.2,0.1,0.3,0,0.4c-0.2,0.2-0.8,0.5-0.9,0.6c-0.2,0.1-0.4,0.1-0.2-0.3c0.2-0.4,0.2-0.4,0.2-0.7c0-0.3,0-2.2,0-2.5
		c0-0.3-0.2-0.9-0.4-1.2c-0.1-0.3-0.5-1.1-0.6-1.3c-0.1-0.2-0.3-0.3-0.4-0.4C211.5,26.9,211.5,26.9,211.6,26.7z"/>
</g>
<g>
	<g>
		<path class="st2" d="M13.3,17.9h2.5l6.5,16.7h-2.5l-1.8-5h-7.1l-1.9,5H6.7L13.3,17.9z M11.6,27.7h5.7l-2.8-7.8h0L11.6,27.7z"/>
		<path class="st2" d="M33.6,33.6c0,3.9-1.8,6-5.6,6c-2.3,0-4.9-0.9-5-3.6h2c0.1,1.5,1.8,2,3.1,2c2.6,0,3.6-1.9,3.6-4.6v-0.8h0
			c-0.7,1.5-2.2,2.2-3.8,2.2c-3.6,0-5.4-2.8-5.4-6.1c0-2.9,1.4-6.4,5.6-6.4c1.5,0,2.9,0.7,3.6,2h0v-1.7h1.9V33.6z M31.7,28.3
			c0-2.1-0.9-4.3-3.4-4.3c-2.6,0-3.6,2.1-3.6,4.4c0,2.2,0.8,4.6,3.4,4.6C30.7,33,31.7,30.6,31.7,28.3z"/>
		<path class="st2" d="M46.2,30.8c-0.5,2.7-2.5,4.1-5.2,4.1c-3.9,0-5.7-2.7-5.8-6.4c0-3.6,2.4-6.3,5.7-6.3c4.3,0,5.6,4,5.5,6.9h-9.1
			c-0.1,2.1,1.1,4,3.8,4c1.6,0,2.8-0.8,3.1-2.4H46.2z M44.3,27.4c-0.1-1.9-1.5-3.4-3.5-3.4c-2.1,0-3.3,1.6-3.5,3.4H44.3z"/>
		<path class="st2" d="M59.3,34.6h-2V33h0c-0.7,1.3-2.2,1.9-3.9,1.9c-3.7,0-5.6-3-5.6-6.4c0-3.4,1.8-6.3,5.5-6.3
			c1.2,0,3,0.5,3.9,1.9h0v-6.2h2V34.6z M53.6,33.1c2.7,0,3.7-2.3,3.7-4.6c0-2.4-1.1-4.6-3.8-4.6c-2.7,0-3.6,2.3-3.6,4.7
			C49.9,30.9,51.1,33.1,53.6,33.1z"/>
		<path class="st2" d="M80.9,22.9c-0.5-2.4-2.4-3.6-4.7-3.6c-4,0-5.7,3.3-5.7,6.8c0,3.8,1.7,7,5.7,7c2.9,0,4.6-2.1,4.8-4.8h2.2
			c-0.4,4.2-3,6.7-7.2,6.7c-5.2,0-7.7-3.8-7.7-8.7c0-4.9,2.8-8.8,7.9-8.8c3.5,0,6.4,1.9,6.9,5.4H80.9z"/>
		<path class="st2" d="M95.8,34.6c-0.4,0.2-0.8,0.3-1.4,0.3c-1,0-1.7-0.6-1.7-1.9c-1.1,1.3-2.6,1.9-4.3,1.9c-2.2,0-4-1-4-3.4
			c0-2.7,2-3.3,4.1-3.7c2.2-0.4,4.1-0.3,4.1-1.8c0-1.7-1.4-2-2.7-2c-1.7,0-2.9,0.5-3,2.3h-2c0.1-3,2.4-4.1,5.1-4.1
			c2.2,0,4.5,0.5,4.5,3.3v6.2c0,0.9,0,1.4,0.6,1.4c0.2,0,0.4,0,0.6-0.1V34.6z M92.6,28.4c-0.8,0.6-2.3,0.6-3.6,0.8
			c-1.3,0.2-2.4,0.7-2.4,2.2c0,1.3,1.1,1.8,2.3,1.8c2.6,0,3.7-1.6,3.7-2.7V28.4z"/>
		<path class="st2" d="M97.3,22.5h1.9v2.6h0c1-1.9,2.3-2.9,4.5-2.8v2.1c-3.2,0-4.4,1.8-4.4,4.9v5.4h-2V22.5z"/>
		<path class="st2" d="M115.2,30.8c-0.5,2.7-2.5,4.1-5.2,4.1c-3.9,0-5.7-2.7-5.8-6.4c0-3.6,2.4-6.3,5.7-6.3c4.3,0,5.6,4,5.5,6.9
			h-9.1c-0.1,2.1,1.1,4,3.8,4c1.6,0,2.8-0.8,3.1-2.4H115.2z M113.3,27.4c-0.1-1.9-1.5-3.4-3.5-3.4c-2.1,0-3.3,1.6-3.5,3.4H113.3z"/>
	</g>
	<g>
		<path class="st1" d="M129.1,30.6c0,0.5,0,1,0,1.5c0,0.4,0,0.8,0,1.2c0,0.2,0.1,0.3,0.4,0.4l1.9,0.6l0,0.6c-1.3,0-2.5,0-3.6,0
			c-1.1,0-2.2,0-3.4,0l-0.1-0.6l1.7-0.5c0.2-0.1,0.4-0.2,0.4-0.4c0-0.4,0-0.8,0-1.2c0-0.4,0-0.9,0-1.5v-11c0-0.5,0-0.9,0-1.2
			c0-0.4,0-0.7,0-1c0-0.2-0.1-0.4-0.3-0.5l-1.7-0.5l0-0.6c1.2,0,2.3,0.1,3.4,0.1c0.7,0,1.5,0,2.2-0.1c0.7,0,1.3-0.1,1.9-0.1
			c2.1,0,3.8,0.4,4.9,1.3c1.1,0.8,1.6,2.1,1.6,3.7c0,1.9-0.6,3.4-1.9,4.5c-1.3,1.1-3,1.6-5.3,1.6c-0.6,0-1.3,0-2-0.1V30.6z
			 M129.1,25.6c0.6,0.1,1.3,0.2,1.9,0.2c1.4,0,2.5-0.4,3.3-1.1c0.8-0.7,1.1-1.9,1.1-3.4c0-1.5-0.4-2.6-1.1-3.3
			c-0.7-0.7-1.8-1.1-3.4-1.1c-0.6,0-1.2,0-1.8,0.1V25.6z"/>
		<path class="st1" d="M140,15.7l-0.1-0.4c1.6-0.3,3.1-0.6,4.4-1l0.1,0.1c-0.1,1.5-0.1,3.5-0.1,6.1v8.8c0,1.6,0,2.9,0,3.9
			c0,0.3,0.2,0.4,0.4,0.5l1.5,0.4l0,0.6c-1.2,0-2.3,0-3.2,0c-0.9,0-1.9,0-3.2,0l-0.1-0.6l1.5-0.4c0.2-0.1,0.3-0.2,0.4-0.4
			c0-1,0-2.2,0-3.4v-5.6c0-3.4,0-6.1-0.1-8.1L140,15.7z"/>
		<path class="st1" d="M157.8,33.5c-1.4,1-2.8,1.6-4.2,1.6c-1.4,0-2.5-0.4-3.2-1.1c-0.7-0.7-1.1-1.7-1.1-3v-2.9c0-1.9,0-3.4-0.1-4.3
			l-1.8-0.5l-0.1-0.5c1.6-0.3,3-0.6,4.4-0.9l0.1,0.1c-0.1,1.1-0.1,2.4-0.1,4.1v4.3c0,1.1,0.3,1.9,0.8,2.4c0.5,0.5,1.2,0.7,2.2,0.7
			c0.9,0,1.9-0.2,2.9-0.7v-5.8c0-1.3,0-2.3-0.1-3.2l-1.8-0.5l-0.1-0.5c1.6-0.3,3-0.6,4.4-0.9l0.1,0.1c-0.1,1.1-0.1,2.5-0.1,4.2
			c0,3.3,0,5.3,0,6c0,0.4,0,0.7,0.1,0.9c0,0.2,0.1,0.4,0.3,0.5c0.1,0.1,0.3,0.2,0.6,0.3c0.2,0,0.6,0.1,1,0.1l0.1,0.5
			c-0.4,0.2-0.9,0.3-1.4,0.5c-0.5,0.1-0.9,0.2-1.1,0.2C158.7,35.1,158.1,34.6,157.8,33.5z"/>
		<path class="st1" d="M170.5,23.2c-0.5-0.1-1.1-0.2-1.7-0.2c-0.8,0-1.5,0.2-2.1,0.5c-0.5,0.3-0.8,0.8-0.8,1.3c0,0.6,0.2,1,0.5,1.3
			c0.3,0.3,1,0.6,1.9,0.9l1.1,0.4c1.2,0.4,2.2,0.9,2.7,1.5c0.6,0.5,0.9,1.3,0.9,2.1c0,1.3-0.5,2.2-1.5,3c-1,0.7-2.2,1.1-3.7,1.1
			c-1.4,0-2.8-0.3-4.2-0.8c0.3-1.2,0.6-2.3,0.7-3.4l0.5-0.1l1,2.9c0.5,0.2,1.2,0.3,2,0.3c0.8,0,1.5-0.2,2-0.5
			c0.5-0.3,0.8-0.8,0.8-1.4c0-0.6-0.2-1-0.5-1.4c-0.3-0.3-0.9-0.6-1.6-0.9l-1.4-0.5c-1.2-0.4-2.1-0.9-2.5-1.5
			c-0.5-0.6-0.7-1.3-0.7-2.1c0-1.2,0.4-2.1,1.3-2.8c0.9-0.7,2.1-1,3.6-1c1.4,0,2.6,0.2,3.7,0.6c-0.3,1-0.5,2.1-0.7,3.3l-0.5,0.1
			L170.5,23.2z"/>
	</g>
</g>
<g>
</g>
<g>
</g>
<g>
</g>
<g>
</g>
<g>
</g>
<g>
</g>
</svg>
