<?xml version="1.0" encoding="utf-8"?>
<!-- Generator: Adobe Illustrator 19.1.0, SVG Export Plug-In . SVG Version: 6.00 Build 0)  -->
<!DOCTYPE svg PUBLIC "-//W3C//DTD SVG 1.1//EN" "http://www.w3.org/Graphics/SVG/1.1/DTD/svg11.dtd">
<svg version="1.1" id="Layer_1" xmlns="http://www.w3.org/2000/svg" xmlns:xlink="http://www.w3.org/1999/xlink" x="0px" y="0px"
	 viewBox="0 0 385.5 102" style="enable-background:new 0 0 385.5 102;" xml:space="preserve">
<style type="text/css">
	.st0{fill:#6D6E71;}
	.st1{fill:#6CB33F;}
	.st2{fill:#4D4D4D;}
</style>
<g>
	<path d="M3.7,67.2h12.2c4.8,0,7.9,2.6,7.9,6.8c0,3.1-1.4,5.7-4.5,6.6v0.1c3,0.6,3.6,2.8,3.9,5.3c0.2,2.5,0.1,5.4,1.5,7.1h-3.8
		c-1-1-0.4-3.8-0.9-6.4c-0.4-2.5-1-4.7-4.3-4.7H7.2v11H3.7V67.2z M14.3,79.1c3.2,0,6-0.8,6-4.6c0-2.5-1.4-4.4-4.6-4.4H7.2v9H14.3z"
		/>
	<path d="M29.2,67.2h3.4V93h-3.4V67.2z"/>
	<path d="M49.2,93h-3.9l-9.1-25.8h3.7l7.4,22.4h0.1l7.5-22.4h3.6L49.2,93z"/>
	<path d="M61.6,67.2h17.8v2.9H65.1v8.2h13.4v2.9H65.1v8.9h14.5V93h-18V67.2z"/>
	<path d="M90.2,70.1h-8.6v-2.9h20.7v2.9h-8.6V93h-3.4V70.1z"/>
	<path d="M111.5,70.1h-8.6v-2.9h20.7v2.9h-8.6V93h-3.4V70.1z"/>
	<path class="st0" d="M137.6,67.2h12.2c4.8,0,7.9,2.6,7.9,6.8c0,3.1-1.4,5.7-4.5,6.6v0.1c3,0.6,3.6,2.8,3.9,5.3
		c0.2,2.5,0.1,5.4,1.5,7.1h-3.8c-1-1-0.4-3.8-0.9-6.4c-0.4-2.5-1-4.7-4.3-4.7H141v11h-3.4V67.2z M148.2,79.1c3.2,0,6-0.8,6-4.6
		c0-2.5-1.4-4.4-4.6-4.4H141v9H148.2z"/>
	<path class="st0" d="M178.4,87.1c-0.8,4.1-3.8,6.4-8,6.4c-6,0-8.8-4.1-9-9.8c0-5.6,3.7-9.7,8.8-9.7c6.6,0,8.7,6.2,8.5,10.7h-14
		c-0.1,3.3,1.7,6.2,5.8,6.2c2.5,0,4.3-1.2,4.9-3.7H178.4z M175.4,81.9c-0.1-2.9-2.4-5.3-5.4-5.3c-3.2,0-5.1,2.4-5.4,5.3H175.4z"/>
	<path class="st0" d="M184.3,87.2c0.1,2.8,2.5,3.6,5,3.6c1.9,0,4.5-0.4,4.5-2.8c0-2.4-3-2.8-6.1-3.5c-3-0.7-6.1-1.7-6.1-5.3
		c0-3.8,3.7-5.3,7-5.3c4.1,0,7.4,1.3,7.7,5.9h-3.1c-0.2-2.4-2.3-3.1-4.3-3.1c-1.8,0-4,0.5-4,2.4c0,2.2,3.3,2.6,6.1,3.3
		c3.1,0.7,6.1,1.7,6.1,5.3c0,4.5-4.2,5.9-8,5.9c-4.2,0-7.7-1.7-7.9-6.3H184.3z"/>
	<path class="st0" d="M201.1,74.3h3.1v2.5h0.1c1-2.1,3.4-3,6-3c5.8,0,8.6,4.6,8.6,9.8c0,5.3-2.8,9.7-8.5,9.7c-1.9,0-4.7-0.7-6-2.9
		h-0.1v9.7h-3.1V74.3z M209.8,76.6c-4.1,0-5.7,3.5-5.7,7.1c0,3.7,1.7,7.1,5.9,7.1c4.2,0,5.6-3.6,5.6-7.2
		C215.6,80,213.8,76.6,209.8,76.6z"/>
	<path class="st0" d="M226.3,71h-3.1v-3.8h3.1V71z M223.2,74.3h3.1V93h-3.1V74.3z"/>
	<path class="st0" d="M235.9,74.3h3.7v2.7h-3.7v11.6c0,1.4,0.4,1.7,2.3,1.7h1.4V93h-2.4c-3.2,0-4.5-0.7-4.5-4.1V77.1h-3.2v-2.7h3.2
		v-5.6h3.1V74.3z"/>
	<path class="st0" d="M259.5,87.1c-0.8,4.1-3.8,6.4-8,6.4c-6,0-8.8-4.1-9-9.8c0-5.6,3.7-9.7,8.8-9.7c6.6,0,8.7,6.2,8.5,10.7h-14
		c-0.1,3.3,1.7,6.2,5.8,6.2c2.5,0,4.3-1.2,4.8-3.7H259.5z M256.5,81.9c-0.1-2.9-2.4-5.3-5.4-5.3c-3.2,0-5.1,2.4-5.4,5.3H256.5z"/>
	<path class="st0" d="M292.8,75c-0.7-3.7-3.7-5.5-7.2-5.5c-6.2,0-8.8,5.1-8.8,10.5c0,5.9,2.6,10.8,8.8,10.8c4.5,0,7.1-3.2,7.5-7.5
		h3.4c-0.7,6.4-4.7,10.4-11.2,10.4c-8,0-11.9-5.9-11.9-13.5c0-7.5,4.3-13.6,12.2-13.6c5.4,0,9.8,2.9,10.6,8.4H292.8z"/>
	<path class="st0" d="M316.8,87.1c-0.8,4.1-3.8,6.4-8,6.4c-6,0-8.8-4.1-9-9.8c0-5.6,3.7-9.7,8.8-9.7c6.6,0,8.7,6.2,8.5,10.7h-14
		c-0.1,3.3,1.7,6.2,5.8,6.2c2.5,0,4.3-1.2,4.8-3.7H316.8z M313.8,81.9c-0.1-2.9-2.4-5.3-5.4-5.3c-3.2,0-5.1,2.4-5.4,5.3H313.8z"/>
	<path class="st0" d="M320.8,74.3h2.9v3h0.1c1.3-2.3,3.4-3.4,6.1-3.4c4.9,0,6.4,2.8,6.4,6.8V93h-3.1V80.4c0-2.3-1.4-3.8-3.8-3.8
		c-3.7,0-5.5,2.5-5.5,5.9V93h-3.1V74.3z"/>
	<path class="st0" d="M345.7,74.3h3.7v2.7h-3.7v11.6c0,1.4,0.4,1.7,2.3,1.7h1.4V93h-2.4c-3.2,0-4.5-0.7-4.5-4.1V77.1h-3.2v-2.7h3.2
		v-5.6h3.1V74.3z"/>
	<path class="st0" d="M353.3,74.3h2.9v3.9h0.1c1.5-3,3.5-4.5,6.9-4.4v3.3c-5,0-6.8,2.8-6.8,7.6V93h-3.1V74.3z"/>
	<path class="st0" d="M381.3,87.1c-0.8,4.1-3.8,6.4-8,6.4c-6,0-8.8-4.1-9-9.8c0-5.6,3.7-9.7,8.8-9.7c6.6,0,8.7,6.2,8.5,10.7h-14
		c-0.1,3.3,1.7,6.2,5.8,6.2c2.5,0,4.3-1.2,4.8-3.7H381.3z M378.4,81.9c-0.1-2.9-2.4-5.3-5.4-5.3c-3.2,0-5.1,2.4-5.4,5.3H378.4z"/>
</g>
<g>
	<path class="st1" d="M3.3,45.1H8c2.2,0,3.6-1.3,3.6-3.6V9.6c0-2.3-0.9-3.6-3.2-3.6H3.3V2.3h27.9C40.1,2.3,47,6,47,13.7
		c0,6.8-5.5,9.6-11.4,10.6v0.1c7.1,0.9,13.1,3.9,13.1,12c0,7.8-6.2,12.3-21.4,12.3h-24V45.1z M18.5,22.7h9.2
		c7.8,0,12.5-2.9,12.5-8.3c0-5.3-2.9-8.5-12.5-8.5h-9.2V22.7z M18.5,45.1h10c7.1,0,12.7-1.7,12.7-9.3c0-7.6-5.6-9.4-12.7-9.4h-10
		V45.1z"/>
	<path class="st1" d="M84.8,42.7h-0.1c-2.8,4.4-7,7-12.4,7c-7.4,0-11.3-3.3-11.3-11V22.4c0-2.2-0.5-3.2-2.8-3.2H54v-3.3h13v22.2
		c0,4.8,1.8,7.7,7.2,7.7c6.7,0,10.6-5.3,10.6-10.9V22.4c0-2.2-0.5-3.2-2.8-3.2h-4.3v-3.3h13v26.3c0,2.2,0.5,3.2,2.8,3.2h4.6v3.3
		H84.8V42.7z"/>
	<path class="st1" d="M114.5,23h0.1c1.8-4.8,5.9-8.1,9.9-8.1c4.8,0,7.9,2.6,7.9,7.4c0,2.7-1.1,4.7-3.9,4.7c-1.9,0-3.9-1.2-3.9-3.2
		c0-2.5,1.7-3.6,4.2-3.6c-0.4-1.6-2.5-2-4.1-2c-6.6,0-10,7.6-10,14.6v9.5c0,2.2,1.3,3.2,3.5,3.2h3.8v3.3h-20.6v-3.3h4.6
		c2.3,0,2.8-1,2.8-3.2V22.4c0-2.2-0.5-3.2-2.8-3.2h-4.8v-3.3h13.3V23z"/>
	<path class="st1" d="M149.5,23h0.1c1.8-4.8,5.9-8.1,9.9-8.1c4.8,0,7.9,2.6,7.9,7.4c0,2.7-1.1,4.7-3.9,4.7c-1.9,0-3.9-1.2-3.9-3.2
		c0-2.5,1.7-3.6,4.2-3.6c-0.4-1.6-2.5-2-4.1-2c-6.6,0-10,7.6-10,14.6v9.5c0,2.2,1.3,3.2,3.5,3.2h3.8v3.3h-20.6v-3.3h4.6
		c2.3,0,2.8-1,2.8-3.2V22.4c0-2.2-0.5-3.2-2.8-3.2h-4.8v-3.3h13.3V23z"/>
	<path class="st1" d="M199.2,42.7c0,2.1,0.6,3.7,1.8,3.7c3,0,3.3-3.9,3.3-6v-2.9h3.3v2c0,7.4-2.5,10.2-7.8,10.2
		c-3.5,0-5.6-2.1-6.2-5.5c-3.4,3.8-7.4,5.5-12.4,5.5c-5.7,0-10.3-2.5-10.3-8.8c0-9.1,12.6-9,19.7-12.3c2.2-1.1,2.7-2.4,2.7-4.5
		c0-4-1.8-6-7.8-6c-2.7,0-6.2,0.4-8.2,2.7c2.1,0.4,3.2,1.5,3.2,3.6c0,2.7-2.2,3.7-4.2,3.7c-2.5,0-3.6-2.2-3.6-5c0-6,8-8.3,13.3-8.3
		c8.1,0,13.3,2.4,13.3,11.5V42.7z M193.3,30.8c-3,1.8-6.2,2.5-10.4,4.2c-3.8,1.6-5.3,3.2-5.3,5.6c0,3.6,2,5.8,5.5,5.8
		c4.6,0,10.2-4.3,10.2-9.2V30.8z"/>
	<path class="st1" d="M222.9,21.9h0.1c2.8-4.4,7-7,12.4-7c7.4,0,11.3,4.8,11.3,12.1v15.2c0,2.2,0.5,3.2,2.8,3.2h4.2v3.3h-19.6v-3.3
		h3.9c2.3,0,2.8-1,2.8-3.2V26.5c0-4.8-1.8-7.7-7.2-7.7c-6.7,0-10.6,5.3-10.6,10.9v12.5c0,2.2,0.5,3.2,2.8,3.2h4.3v3.3h-20.4v-3.3
		h4.6c2.3,0,2.8-1,2.8-3.2V22.4c0-2.2-0.5-3.2-2.8-3.2h-4.6v-3.3h13.2V21.9z"/>
	<path class="st1" d="M279.9,44.8c10.4,0,14.4,3,14.4,8.8c0,6.6-6.6,10-18.7,10c-11.2,0-17.7-2.5-17.7-8.1c0-4.4,3.9-6,7.4-6.2v-0.1
		c-3.2,0-6.1-2.2-6.1-5.7c0-3.4,2.9-6.2,6.2-6.8c-3.6-2-5-5.9-5-9.7c0-8.6,7.8-12,15.3-12c4.1,0,8.1,1.5,11.3,4c1.8-2.2,4.2-4,7.1-4
		c3.9,0,6.7,2.2,6.7,6.2c0,2.7-1.3,4.5-4.1,4.5c-2,0-3.2-1.5-3.2-3.4c0-2,1.4-2.9,3.4-2.9c-0.6-0.9-1.8-1.1-3-1.1
		c-1.9,0-4.1,1.4-5.2,2.8c1.1,2.1,2,4.6,2,7.5c0,5.5-5.7,11.3-14.8,11.3c-5.7,0-6.6-1.3-7.8-1.3c-1.9,0-3.6,1.7-3.6,3.5
		c0,2,1.9,2.9,4,2.9H279.9z M271.4,50c-4.1,0-8.3,1.8-8.3,4.9c0,4.6,6.2,5.4,13.3,5.4c6.9,0,12.7-1.8,12.7-5.2c0-3.6-2.5-5.1-7-5.1
		H271.4z M267,27.3c0,5.4,2.5,9.1,8.5,9.1c6,0,8.5-3.7,8.5-9.1c0-5.4-2.5-9.2-8.5-9.2C269.6,18.2,267,22,267,27.3z"/>
	<path class="st1" d="M316.3,42.2c0,2.2,0.5,3.2,2.8,3.2h4.5v3.3H303v-3.3h4.6c2.3,0,2.8-1,2.8-3.2V22.4c0-2.2-0.5-3.2-2.8-3.2H303
		v-3.3h13.3V42.2z M312.4,9.2c-2.1,0-3.8-1.7-3.8-3.8c0-2,1.7-3.8,3.8-3.8c2,0,3.8,1.8,3.8,3.8C316.2,7.5,314.4,9.2,312.4,9.2z"/>
	<path class="st1" d="M340.1,23h0.1c1.8-4.8,5.9-8.1,9.9-8.1c4.8,0,7.9,2.6,7.9,7.4c0,2.7-1.1,4.7-3.9,4.7c-1.9,0-3.9-1.2-3.9-3.2
		c0-2.5,1.7-3.6,4.2-3.6c-0.3-1.6-2.5-2-4.1-2c-6.6,0-10,7.6-10,14.6v9.5c0,2.2,1.3,3.2,3.5,3.2h3.8v3.3h-20.6v-3.3h4.5
		c2.3,0,2.8-1,2.8-3.2V22.4c0-2.2-0.5-3.2-2.8-3.2h-4.8v-3.3h13.3V23z"/>
	<path class="st1" d="M374.6,42.2c0,2.2,0.5,3.2,2.8,3.2h4.5v3.3h-20.6v-3.3h4.6c2.3,0,2.8-1,2.8-3.2V22.4c0-2.2-0.5-3.2-2.8-3.2
		h-4.6v-3.3h13.3V42.2z M370.7,9.2c-2.1,0-3.8-1.7-3.8-3.8c0-2,1.7-3.8,3.8-3.8c2,0,3.8,1.8,3.8,3.8C374.5,7.5,372.7,9.2,370.7,9.2z
		"/>
</g>
<g>
	<path class="st2" d="M2.8,57.5v1h252.9c-0.2-0.3-0.4-0.6-0.5-1H2.8z"/>
	<path class="st2" d="M382.8,57.5h-86.5c-0.2,0.3-0.4,0.7-0.7,1h87.2V57.5z"/>
</g>
<g>
</g>
<g>
</g>
<g>
</g>
<g>
</g>
<g>
</g>
<g>
</g>
</svg>
