<?xml version="1.0" encoding="utf-8"?>
<!-- Generator: Adobe Illustrator 19.1.0, SVG Export Plug-In . SVG Version: 6.00 Build 0)  -->
<!DOCTYPE svg PUBLIC "-//W3C//DTD SVG 1.1//EN" "http://www.w3.org/Graphics/SVG/1.1/DTD/svg11.dtd">
<svg version="1.1" id="Layer_1" xmlns="http://www.w3.org/2000/svg" xmlns:xlink="http://www.w3.org/1999/xlink" x="0px" y="0px"
	 viewBox="0 0 385.5 76.5" style="enable-background:new 0 0 385.5 76.5;" xml:space="preserve">
<style type="text/css">
	.st0{fill:#6D6E71;}
	.st1{fill:#6CB33F;}
</style>
<g>
	<rect x="2.9" y="44.7" class="st0" width="77.9" height="1"/>
	<rect x="103.8" y="44.7" class="st0" width="279.2" height="1"/>
</g>
<g>
	<path class="st1" d="M32.9,15.8h-2.5C29.6,9,25.5,5,20.2,5C12,5,9.1,11.2,9.1,19.4c0,7.4,2.9,14.3,11.1,14.3c6.2,0,9.5-4.2,10-10
		h3.1c-0.5,8.8-6,12.6-14.1,12.6c-10.7,0-15.3-7.8-15.3-17c0-9.7,5.1-17,15.7-17c3.6,0,7,1.5,9.7,3.8l1.3-3.1h2.3V15.8z"/>
	<path class="st1" d="M55.3,31.3c0,1.4,0.4,2.6,1.3,2.6c2.1,0,2.3-2.7,2.3-4.1v-2h2.3v1.4c0,5.1-1.7,7-5.4,7c-2.4,0-3.9-1.4-4.3-3.8
		c-2.4,2.6-5.1,3.8-8.6,3.8c-3.9,0-7.1-1.7-7.1-6c0-6.3,8.7-6.2,13.6-8.5c1.5-0.7,1.8-1.6,1.8-3.1c0-2.8-1.2-4.2-5.4-4.2
		c-1.9,0-4.3,0.3-5.7,1.9c1.4,0.2,2.2,1,2.2,2.5c0,1.9-1.5,2.6-2.9,2.6c-1.7,0-2.5-1.5-2.5-3.4c0-4.1,5.5-5.7,9.2-5.7
		c5.6,0,9.2,1.6,9.2,7.9V31.3z M51.2,23.1c-2.1,1.2-4.3,1.7-7.2,2.9c-2.6,1.1-3.7,2.2-3.7,3.9c0,2.5,1.4,4,3.8,4c3.2,0,7-3,7-6.3
		V23.1z"/>
	<path class="st1" d="M72,17.7L72,17.7c1.3-3.3,4.2-5.6,7-5.6c3.3,0,5.5,1.8,5.5,5.1c0,1.8-0.8,3.2-2.7,3.2c-1.3,0-2.7-0.8-2.7-2.2
		c0-1.7,1.2-2.5,2.9-2.5c-0.2-1.1-1.7-1.4-2.8-1.4c-4.5,0-6.9,5.3-6.9,10v6.5c0,1.5,0.9,2.2,2.4,2.2h2.6v2.3H63v-2.3h3.1
		c1.6,0,1.9-0.7,1.9-2.2V17.3c0-1.5-0.3-2.2-1.9-2.2h-3.3v-2.3H72V17.7z"/>
	<path class="st1" d="M94.2,17L94.2,17c1.8-3.2,4.3-5,8.1-5c7.1,0,10.3,5.7,10.3,11.9c0,6.4-3.2,12.1-10.3,12.1
		c-4.1,0-6.4-1.8-8-4.5h-0.1v9.3c0,1.5,0.7,2.5,2.2,2.5H99v2.3H85.5v-2.3h2.4c1.5,0,2.2-0.9,2.2-2.5V17.6c0-1.6-0.6-2.5-2.2-2.5
		h-2.4v-2.3h8.7V17z M108,24.1c0-5.9-2.2-9.3-6.4-9.3c-5.1,0-7.4,4.5-7.4,9.3c0,4.8,2,9.3,6.9,9.3C106,33.4,108,28.9,108,24.1z"/>
	<path class="st1" d="M120.9,24.4c0,4.9,1.1,9.5,6.8,9.5c3.9,0,6.2-2,7.2-5.8h2.8c-1.1,5.2-4.4,8.1-10.1,8.1
		c-7.1,0-11.3-4.1-11.3-12c0-7.9,4.2-12,11.3-12c7.8,0,10.3,5.5,10.7,12.3H120.9z M133.7,22.1c0-4.2-1.9-7.8-6.3-7.8
		c-4.5,0-6.6,3.6-6.6,7.8H133.7z"/>
	<path class="st1" d="M149.4,16.9L149.4,16.9c2-3,4.9-4.8,8.6-4.8c5.1,0,7.8,3.3,7.8,8.4v10.5c0,1.5,0.3,2.2,1.9,2.2h2.9v2.3h-13.5
		v-2.3h2.7c1.6,0,1.9-0.7,1.9-2.2V20.1c0-3.3-1.3-5.3-5-5.3c-4.6,0-7.3,3.7-7.3,7.5v8.6c0,1.5,0.3,2.2,1.9,2.2h2.9v2.3h-14.1v-2.3
		h3.1c1.6,0,1.9-0.7,1.9-2.2V17.3c0-1.5-0.3-2.2-1.9-2.2h-3.1v-2.3h9.1V16.9z"/>
	<path class="st1" d="M172.9,12.8c4.5-0.6,5.4-5.5,5.7-9.4h2.5v9.4h6.9v2.3h-6.9V31c0,2,0.8,2.9,2.4,2.9c2,0,3.4-1.9,3.4-4.7v-2.8
		h2.3v2.1c0,4.7-1.4,7.7-6.6,7.7c-4.3,0-5.6-2.8-5.6-5.5V15.1h-4.1V12.8z"/>
	<path class="st1" d="M196,24.4c0,4.9,1.1,9.5,6.8,9.5c3.9,0,6.2-2,7.2-5.8h2.8c-1.1,5.2-4.4,8.1-10.1,8.1c-7.1,0-11.3-4.1-11.3-12
		c0-7.9,4.2-12,11.3-12c7.8,0,10.3,5.5,10.7,12.3H196z M208.9,22.1c0-4.2-1.9-7.8-6.3-7.8c-4.5,0-6.6,3.6-6.6,7.8H208.9z"/>
	<path class="st1" d="M225,17.7L225,17.7c1.3-3.3,4.2-5.6,7-5.6c3.3,0,5.5,1.8,5.5,5.1c0,1.8-0.8,3.2-2.7,3.2
		c-1.3,0-2.7-0.8-2.7-2.2c0-1.7,1.2-2.5,2.9-2.5c-0.2-1.1-1.7-1.4-2.8-1.4c-4.5,0-6.9,5.3-6.9,10v6.5c0,1.5,0.9,2.2,2.4,2.2h2.6v2.3
		H216v-2.3h3.1c1.6,0,1.9-0.7,1.9-2.2V17.3c0-1.5-0.3-2.2-1.9-2.2h-3.3v-2.3h9.2V17.7z"/>
	<path class="st1" d="M279,15.8h-2.5C275.7,9,271.6,5,266.3,5c-8.1,0-11.1,6.1-11.1,14.4c0,7.4,2.9,14.3,11.1,14.3
		c6.2,0,9.5-4.2,10-10h3.1c-0.5,8.8-6,12.6-14.1,12.6c-10.7,0-15.3-7.8-15.3-17c0-9.7,5.1-17,15.7-17c3.6,0,7,1.5,9.7,3.8l1.3-3.1
		h2.3V15.8z"/>
	<path class="st1" d="M306.7,24.1c0,7-4.7,12-12.5,12c-7.8,0-12.5-5.1-12.5-12c0-7,4.7-12,12.5-12C302,12.1,306.7,17.1,306.7,24.1z
		 M286.4,24.1c0,5.2,1.9,9.8,7.9,9.8c6,0,7.9-4.5,7.9-9.8c0-5.2-1.9-9.8-7.9-9.8C288.3,14.3,286.4,18.9,286.4,24.1z"/>
	<path class="st1" d="M329.8,31.3L329.8,31.3c-2,3-4.9,4.8-8.6,4.8c-5.1,0-7.8-2.3-7.8-7.6V17.3c0-1.5-0.3-2.2-1.9-2.2h-2.9v-2.3
		h8.9v15.3c0,3.3,1.3,5.3,5,5.3c4.6,0,7.3-3.7,7.3-7.5v-8.6c0-1.5-0.3-2.2-1.9-2.2h-2.9v-2.3h9v18.1c0,1.5,0.3,2.2,1.9,2.2h3.1v2.3
		h-9.1V31.3z"/>
	<path class="st1" d="M350.3,17.7L350.3,17.7c1.3-3.3,4.2-5.6,7-5.6c3.3,0,5.5,1.8,5.5,5.1c0,1.8-0.8,3.2-2.7,3.2
		c-1.3,0-2.7-0.8-2.7-2.2c0-1.7,1.2-2.5,2.9-2.5c-0.2-1.1-1.7-1.4-2.8-1.4c-4.5,0-6.9,5.3-6.9,10v6.5c0,1.5,0.9,2.2,2.4,2.2h2.6v2.3
		h-14.2v-2.3h3.1c1.6,0,1.9-0.7,1.9-2.2V17.3c0-1.5-0.3-2.2-1.9-2.2h-3.3v-2.3h9.2V17.7z"/>
	<path class="st1" d="M365.3,12.8c4.5-0.6,5.4-5.5,5.7-9.4h2.5v9.4h6.9v2.3h-6.9V31c0,2,0.8,2.9,2.4,2.9c2,0,3.4-1.9,3.4-4.7v-2.8
		h2.3v2.1c0,4.7-1.4,7.7-6.6,7.7c-4.3,0-5.6-2.8-5.6-5.5V15.1h-4.1V12.8z"/>
</g>
<g>
	<g>
		<path class="st0" d="M170.7,54c1.5,0,2.6,0.4,3.4,1.1c0.8,0.7,1.2,1.7,1.2,3c0,0.9-0.2,1.8-0.6,2.5c-0.4,0.7-1.1,1.2-2,1.4v0
			c0.4,0.1,0.8,0.2,1.1,0.4c0.3,0.2,0.5,0.4,0.7,0.7c0.2,0.3,0.3,0.6,0.4,0.9c0.1,0.3,0.1,0.7,0.2,1.1c0,0.4,0.1,0.8,0.1,1.1
			c0,0.4,0,0.8,0.1,1.1c0.1,0.4,0.1,0.7,0.2,1.1c0.1,0.3,0.3,0.6,0.5,0.9h-2.3c-0.1-0.2-0.2-0.4-0.3-0.6c-0.1-0.3-0.1-0.6-0.1-0.9
			c0-0.3,0-0.7,0-1.1c0-0.4-0.1-0.8-0.1-1.1c-0.1-0.4-0.1-0.7-0.2-1.1c-0.1-0.3-0.2-0.6-0.4-0.9c-0.2-0.3-0.4-0.5-0.7-0.6
			c-0.3-0.2-0.7-0.2-1.2-0.2h-5v6.6h-2.1V54H170.7z M171.1,61c0.4-0.1,0.8-0.2,1.1-0.4c0.3-0.2,0.6-0.5,0.8-0.8
			c0.2-0.4,0.3-0.8,0.3-1.4c0-0.8-0.2-1.4-0.6-1.9c-0.4-0.5-1.1-0.7-2.1-0.7h-5.1v5.4h4.3C170.2,61.1,170.7,61,171.1,61z"/>
		<path class="st0" d="M186.1,68.7c-0.8,0.6-1.9,1-3.2,1c-0.9,0-1.7-0.1-2.3-0.4c-0.7-0.3-1.2-0.7-1.7-1.2c-0.4-0.5-0.8-1.1-1-1.9
			c-0.2-0.7-0.3-1.5-0.4-2.4c0-0.8,0.1-1.6,0.4-2.3c0.3-0.7,0.6-1.3,1.1-1.8c0.5-0.5,1-0.9,1.7-1.2c0.6-0.3,1.3-0.4,2.1-0.4
			c1,0,1.8,0.2,2.5,0.6c0.7,0.4,1.2,0.9,1.6,1.6c0.4,0.6,0.7,1.3,0.8,2.1c0.2,0.7,0.2,1.5,0.2,2.1h-8.4c0,0.5,0,1,0.2,1.4
			c0.1,0.4,0.3,0.8,0.6,1.2c0.3,0.3,0.7,0.6,1.1,0.8c0.4,0.2,1,0.3,1.6,0.3c0.8,0,1.4-0.2,1.9-0.5c0.5-0.4,0.8-0.9,1-1.6h1.8
			C187.5,67.1,187,68,186.1,68.7z M185.7,61.5c-0.2-0.4-0.4-0.7-0.7-1c-0.3-0.3-0.6-0.5-1-0.7c-0.4-0.2-0.8-0.2-1.3-0.2
			c-0.5,0-0.9,0.1-1.3,0.2c-0.4,0.2-0.7,0.4-1,0.7c-0.3,0.3-0.5,0.6-0.6,1c-0.2,0.4-0.3,0.8-0.3,1.2h6.4
			C185.9,62.3,185.8,61.9,185.7,61.5z"/>
		<path class="st0" d="M191.5,66.9c0.2,0.3,0.4,0.5,0.7,0.7c0.3,0.2,0.6,0.3,1,0.4c0.4,0.1,0.7,0.1,1.1,0.1c0.3,0,0.6,0,0.9-0.1
			c0.3,0,0.6-0.1,0.9-0.2c0.3-0.1,0.5-0.3,0.7-0.5c0.2-0.2,0.3-0.5,0.3-0.9c0-0.5-0.2-0.8-0.5-1.1c-0.4-0.2-0.8-0.4-1.3-0.6
			c-0.5-0.2-1.1-0.3-1.8-0.4c-0.6-0.1-1.2-0.3-1.8-0.5c-0.5-0.2-1-0.5-1.3-0.9c-0.4-0.4-0.5-1-0.5-1.7c0-0.6,0.1-1,0.4-1.4
			c0.3-0.4,0.6-0.7,1-1c0.4-0.3,0.8-0.4,1.3-0.6c0.5-0.1,1-0.2,1.5-0.2c0.6,0,1.2,0.1,1.7,0.2c0.5,0.1,1,0.3,1.4,0.6
			c0.4,0.3,0.7,0.6,1,1.1c0.2,0.5,0.4,1,0.4,1.7h-1.8c0-0.4-0.1-0.7-0.3-0.9c-0.2-0.2-0.4-0.4-0.6-0.6c-0.2-0.1-0.5-0.2-0.8-0.3
			c-0.3-0.1-0.6-0.1-0.9-0.1c-0.3,0-0.6,0-0.8,0.1c-0.3,0-0.5,0.1-0.8,0.2c-0.2,0.1-0.4,0.3-0.6,0.4c-0.1,0.2-0.2,0.4-0.2,0.7
			c0,0.3,0.1,0.6,0.3,0.8c0.2,0.2,0.5,0.4,0.9,0.5c0.3,0.1,0.7,0.3,1.2,0.3c0.4,0.1,0.9,0.2,1.3,0.3c0.5,0.1,0.9,0.2,1.3,0.4
			c0.4,0.1,0.8,0.3,1.2,0.6c0.3,0.2,0.6,0.5,0.8,0.9c0.2,0.4,0.3,0.8,0.3,1.3c0,0.7-0.1,1.2-0.4,1.7c-0.3,0.4-0.6,0.8-1.1,1.1
			c-0.5,0.3-1,0.5-1.5,0.6c-0.6,0.1-1.1,0.2-1.7,0.2c-0.6,0-1.2-0.1-1.8-0.2c-0.6-0.1-1.1-0.3-1.5-0.6c-0.4-0.3-0.8-0.7-1-1.2
			c-0.3-0.5-0.4-1.1-0.4-1.8h1.8C191.3,66.3,191.4,66.6,191.5,66.9z"/>
		<path class="st0" d="M201.4,56.2V54h1.8v2.2H201.4z M203.2,58.2v11.2h-1.8V58.2H203.2z"/>
		<path class="st0" d="M214.5,69.4v-1.5h0c-0.3,0.6-0.8,1.1-1.4,1.3c-0.6,0.3-1.4,0.4-2.1,0.4c-0.9,0-1.6-0.2-2.3-0.5
			c-0.6-0.3-1.2-0.7-1.6-1.3c-0.4-0.5-0.7-1.2-1-1.9c-0.2-0.7-0.3-1.5-0.3-2.2c0-0.8,0.1-1.5,0.3-2.2c0.2-0.7,0.5-1.3,1-1.8
			c0.4-0.5,1-0.9,1.6-1.3c0.6-0.3,1.4-0.5,2.2-0.5c0.3,0,0.6,0,0.9,0.1c0.3,0.1,0.7,0.2,1,0.3c0.3,0.1,0.6,0.3,0.9,0.5
			c0.3,0.2,0.5,0.5,0.7,0.8h0V54h1.8v15.4H214.5z M207.9,65.4c0.1,0.5,0.3,0.9,0.6,1.3c0.3,0.4,0.6,0.7,1.1,0.9
			c0.4,0.2,1,0.3,1.5,0.3c0.6,0,1.1-0.1,1.6-0.4c0.4-0.2,0.8-0.6,1.1-1c0.3-0.4,0.5-0.8,0.6-1.3c0.1-0.5,0.2-1,0.2-1.5
			c0-0.5-0.1-1.1-0.2-1.6c-0.1-0.5-0.3-1-0.6-1.3c-0.3-0.4-0.6-0.7-1.1-0.9c-0.4-0.2-1-0.4-1.6-0.4c-0.6,0-1.1,0.1-1.6,0.4
			c-0.4,0.2-0.8,0.6-1,1c-0.3,0.4-0.4,0.9-0.6,1.4c-0.1,0.5-0.2,1.1-0.2,1.6C207.7,64.4,207.8,64.9,207.9,65.4z"/>
		<path class="st0" d="M227.4,68.7c-0.8,0.6-1.9,1-3.2,1c-0.9,0-1.7-0.1-2.3-0.4c-0.7-0.3-1.2-0.7-1.7-1.2c-0.4-0.5-0.8-1.1-1-1.9
			c-0.2-0.7-0.3-1.5-0.4-2.4c0-0.8,0.1-1.6,0.4-2.3c0.3-0.7,0.6-1.3,1.1-1.8c0.5-0.5,1-0.9,1.7-1.2c0.6-0.3,1.3-0.4,2.1-0.4
			c1,0,1.8,0.2,2.5,0.6c0.7,0.4,1.2,0.9,1.6,1.6c0.4,0.6,0.7,1.3,0.8,2.1c0.2,0.7,0.2,1.5,0.2,2.1h-8.4c0,0.5,0,1,0.2,1.4
			c0.1,0.4,0.3,0.8,0.6,1.2c0.3,0.3,0.7,0.6,1.1,0.8c0.4,0.2,1,0.3,1.6,0.3c0.8,0,1.4-0.2,1.9-0.5c0.5-0.4,0.8-0.9,1-1.6h1.8
			C228.8,67.1,228.2,68,227.4,68.7z M227,61.5c-0.2-0.4-0.4-0.7-0.7-1c-0.3-0.3-0.6-0.5-1-0.7c-0.4-0.2-0.8-0.2-1.3-0.2
			c-0.5,0-0.9,0.1-1.3,0.2c-0.4,0.2-0.7,0.4-1,0.7c-0.3,0.3-0.5,0.6-0.6,1c-0.2,0.4-0.3,0.8-0.3,1.2h6.4
			C227.2,62.3,227.1,61.9,227,61.5z"/>
		<path class="st0" d="M233.1,58.2V60h0c0.8-1.4,2-2,3.6-2c0.7,0,1.3,0.1,1.8,0.3c0.5,0.2,0.9,0.5,1.2,0.8c0.3,0.4,0.5,0.8,0.6,1.3
			c0.1,0.5,0.2,1,0.2,1.7v7.3h-1.8v-7.6c0-0.7-0.2-1.2-0.6-1.6c-0.4-0.4-1-0.6-1.7-0.6c-0.6,0-1,0.1-1.5,0.3c-0.4,0.2-0.8,0.4-1,0.7
			c-0.3,0.3-0.5,0.7-0.6,1.1c-0.1,0.4-0.2,0.9-0.2,1.4v6.3h-1.8V58.2H233.1z"/>
		<path class="st0" d="M248.5,58.2v1.6h-2.2v6.9c0,0.2,0,0.4,0.1,0.5c0,0.1,0.1,0.2,0.2,0.3c0.1,0.1,0.2,0.1,0.4,0.1
			c0.2,0,0.4,0,0.7,0h0.8v1.6h-1.4c-0.5,0-0.9,0-1.2-0.1c-0.3-0.1-0.6-0.2-0.8-0.4c-0.2-0.2-0.4-0.4-0.5-0.7
			c-0.1-0.3-0.2-0.7-0.2-1.3v-7.1h-1.9v-1.6h1.9v-3.3h1.8v3.3H248.5z"/>
		<path class="st0" d="M251,56.2V54h1.8v2.2H251z M252.8,58.2v11.2H251V58.2H252.8z"/>
		<path class="st0" d="M264.5,69.6c-0.5,0-0.9-0.1-1.1-0.4c-0.3-0.3-0.4-0.7-0.4-1.3c-0.5,0.6-1.1,1-1.8,1.3
			c-0.7,0.3-1.4,0.4-2.2,0.4c-0.5,0-1-0.1-1.4-0.2c-0.4-0.1-0.8-0.3-1.2-0.5c-0.3-0.3-0.6-0.6-0.8-1c-0.2-0.4-0.3-0.9-0.3-1.4
			c0-0.6,0.1-1.2,0.3-1.6c0.2-0.4,0.5-0.7,0.9-1c0.4-0.3,0.8-0.4,1.2-0.6c0.5-0.1,0.9-0.2,1.4-0.3c0.5-0.1,1-0.2,1.4-0.2
			c0.5-0.1,0.9-0.1,1.2-0.2c0.3-0.1,0.6-0.2,0.8-0.4c0.2-0.2,0.3-0.4,0.3-0.8c0-0.4-0.1-0.7-0.2-1c-0.2-0.2-0.3-0.4-0.6-0.6
			c-0.2-0.1-0.5-0.2-0.8-0.3c-0.3,0-0.6-0.1-0.9-0.1c-0.8,0-1.4,0.1-1.9,0.4c-0.5,0.3-0.8,0.9-0.8,1.7h-1.8c0-0.7,0.2-1.3,0.4-1.7
			c0.3-0.5,0.6-0.9,1-1.2c0.4-0.3,0.9-0.5,1.5-0.6c0.6-0.1,1.2-0.2,1.8-0.2c0.5,0,1,0,1.5,0.1c0.5,0.1,0.9,0.2,1.3,0.4
			c0.4,0.2,0.7,0.5,1,0.9c0.2,0.4,0.4,0.9,0.4,1.6v5.7c0,0.4,0,0.7,0.1,0.9c0.1,0.2,0.2,0.3,0.5,0.3c0.2,0,0.3,0,0.6-0.1v1.4
			C265.5,69.5,265.1,69.6,264.5,69.6z M262,64c-0.4,0.1-0.8,0.1-1.2,0.2c-0.4,0.1-0.8,0.1-1.2,0.2c-0.4,0.1-0.8,0.2-1.1,0.3
			c-0.3,0.1-0.6,0.3-0.8,0.6c-0.2,0.3-0.3,0.6-0.3,1.1c0,0.3,0.1,0.6,0.2,0.8c0.1,0.2,0.3,0.4,0.5,0.5s0.4,0.2,0.7,0.3
			c0.3,0.1,0.5,0.1,0.8,0.1c0.6,0,1.1-0.1,1.6-0.2c0.4-0.2,0.8-0.4,1.1-0.6c0.3-0.3,0.5-0.5,0.6-0.8c0.1-0.3,0.2-0.6,0.2-0.8v-1.9
			C262.7,63.8,262.4,63.9,262,64z"/>
		<path class="st0" d="M269.8,54v15.4H268V54H269.8z"/>
		<path class="st0" d="M286.1,54l6,15.4h-2.3l-1.7-4.6h-6.5l-1.7,4.6h-2.1l6-15.4H286.1z M287.5,63l-2.6-7.2h0l-2.6,7.2H287.5z"/>
		<path class="st0" d="M302,72.5c-0.8,0.9-2.1,1.4-3.9,1.4c-0.5,0-1-0.1-1.6-0.2c-0.5-0.1-1-0.3-1.5-0.6c-0.4-0.3-0.8-0.6-1.1-1
			c-0.3-0.4-0.4-0.9-0.5-1.5h1.8c0,0.3,0.1,0.6,0.3,0.8c0.2,0.2,0.4,0.4,0.7,0.6c0.3,0.1,0.6,0.2,0.9,0.3c0.3,0.1,0.6,0.1,0.9,0.1
			c0.6,0,1.1-0.1,1.5-0.3c0.4-0.2,0.8-0.5,1-0.9c0.3-0.4,0.5-0.8,0.6-1.3c0.1-0.5,0.2-1.1,0.2-1.7v-0.7h0c-0.3,0.7-0.8,1.2-1.4,1.5
			c-0.6,0.3-1.3,0.5-2,0.5c-0.8,0-1.6-0.2-2.2-0.5c-0.6-0.3-1.1-0.7-1.6-1.2c-0.4-0.5-0.7-1.1-0.9-1.8c-0.2-0.7-0.3-1.4-0.3-2.2
			c0-0.7,0.1-1.3,0.3-2c0.2-0.7,0.5-1.3,0.9-1.9c0.4-0.6,0.9-1,1.6-1.4c0.7-0.4,1.5-0.6,2.4-0.6c0.7,0,1.4,0.2,1.9,0.5
			c0.6,0.3,1.1,0.8,1.4,1.4h0v-1.6h1.7v10.2C303.3,70.3,302.9,71.6,302,72.5z M299.7,67.5c0.4-0.3,0.8-0.6,1-1
			c0.3-0.4,0.4-0.9,0.6-1.4c0.1-0.5,0.2-1,0.2-1.6c0-0.5-0.1-1-0.2-1.4c-0.1-0.5-0.3-0.9-0.6-1.3c-0.3-0.4-0.6-0.7-1-0.9
			c-0.4-0.2-0.9-0.3-1.5-0.3c-0.6,0-1.1,0.1-1.5,0.3c-0.4,0.2-0.8,0.5-1,0.9c-0.3,0.4-0.5,0.8-0.6,1.3c-0.1,0.5-0.2,1-0.2,1.5
			c0,0.5,0.1,1,0.2,1.5c0.1,0.5,0.3,1,0.5,1.4c0.2,0.4,0.6,0.7,1,1c0.4,0.3,0.9,0.4,1.5,0.4C298.7,67.9,299.3,67.8,299.7,67.5z"/>
		<path class="st0" d="M314.3,68.7c-0.8,0.6-1.9,1-3.2,1c-0.9,0-1.7-0.1-2.3-0.4c-0.7-0.3-1.2-0.7-1.7-1.2c-0.4-0.5-0.8-1.1-1-1.9
			c-0.2-0.7-0.3-1.5-0.4-2.4c0-0.8,0.1-1.6,0.4-2.3c0.3-0.7,0.6-1.3,1.1-1.8c0.5-0.5,1-0.9,1.7-1.2c0.6-0.3,1.3-0.4,2.1-0.4
			c1,0,1.8,0.2,2.5,0.6c0.7,0.4,1.2,0.9,1.6,1.6c0.4,0.6,0.7,1.3,0.8,2.1c0.2,0.7,0.2,1.5,0.2,2.1h-8.4c0,0.5,0,1,0.2,1.4
			c0.1,0.4,0.3,0.8,0.6,1.2c0.3,0.3,0.7,0.6,1.1,0.8c0.4,0.2,1,0.3,1.6,0.3c0.8,0,1.4-0.2,1.9-0.5c0.5-0.4,0.8-0.9,1-1.6h1.8
			C315.6,67.1,315.1,68,314.3,68.7z M313.8,61.5c-0.2-0.4-0.4-0.7-0.7-1c-0.3-0.3-0.6-0.5-1-0.7c-0.4-0.2-0.8-0.2-1.3-0.2
			c-0.5,0-0.9,0.1-1.3,0.2c-0.4,0.2-0.7,0.4-1,0.7c-0.3,0.3-0.5,0.6-0.6,1c-0.2,0.4-0.3,0.8-0.3,1.2h6.4
			C314.1,62.3,314,61.9,313.8,61.5z"/>
		<path class="st0" d="M326.4,69.4v-1.5h0c-0.3,0.6-0.8,1.1-1.4,1.3c-0.6,0.3-1.4,0.4-2.1,0.4c-0.9,0-1.6-0.2-2.3-0.5
			c-0.6-0.3-1.2-0.7-1.6-1.3c-0.4-0.5-0.7-1.2-1-1.9c-0.2-0.7-0.3-1.5-0.3-2.2c0-0.8,0.1-1.5,0.3-2.2c0.2-0.7,0.5-1.3,1-1.8
			c0.4-0.5,1-0.9,1.6-1.3c0.6-0.3,1.4-0.5,2.2-0.5c0.3,0,0.6,0,0.9,0.1c0.3,0.1,0.7,0.2,1,0.3c0.3,0.1,0.6,0.3,0.9,0.5
			c0.3,0.2,0.5,0.5,0.7,0.8h0V54h1.8v15.4H326.4z M319.8,65.4c0.1,0.5,0.3,0.9,0.6,1.3c0.3,0.4,0.6,0.7,1.1,0.9
			c0.4,0.2,1,0.3,1.5,0.3c0.6,0,1.1-0.1,1.6-0.4c0.4-0.2,0.8-0.6,1.1-1c0.3-0.4,0.5-0.8,0.6-1.3c0.1-0.5,0.2-1,0.2-1.5
			c0-0.5-0.1-1.1-0.2-1.6c-0.1-0.5-0.3-1-0.6-1.3c-0.3-0.4-0.6-0.7-1.1-0.9c-0.4-0.2-1-0.4-1.6-0.4c-0.6,0-1.1,0.1-1.6,0.4
			c-0.4,0.2-0.8,0.6-1,1c-0.3,0.4-0.4,0.9-0.6,1.4c-0.1,0.5-0.2,1.1-0.2,1.6C319.6,64.4,319.7,64.9,319.8,65.4z"/>
		<path class="st0" d="M347.3,56.2c-0.8-0.5-1.7-0.8-2.8-0.8c-0.9,0-1.7,0.2-2.4,0.5c-0.7,0.3-1.2,0.8-1.6,1.4
			c-0.4,0.6-0.7,1.2-0.9,2c-0.2,0.7-0.3,1.5-0.3,2.3c0,0.9,0.1,1.7,0.3,2.5c0.2,0.8,0.5,1.5,0.9,2.1c0.4,0.6,1,1,1.6,1.4
			c0.7,0.3,1.5,0.5,2.4,0.5c0.7,0,1.3-0.1,1.8-0.3c0.5-0.2,1-0.5,1.4-0.9c0.4-0.4,0.7-0.9,0.9-1.4c0.2-0.5,0.3-1.1,0.4-1.8h2.1
			c-0.2,1.9-0.9,3.5-2,4.5c-1.1,1.1-2.7,1.6-4.7,1.6c-1.2,0-2.2-0.2-3.1-0.6c-0.9-0.4-1.6-1-2.2-1.7c-0.6-0.7-1-1.6-1.3-2.5
			c-0.3-1-0.4-2-0.4-3.2c0-1.1,0.2-2.2,0.5-3.2c0.3-1,0.8-1.8,1.4-2.6c0.6-0.7,1.4-1.3,2.3-1.7c0.9-0.4,2-0.6,3.1-0.6
			c0.8,0,1.6,0.1,2.3,0.3c0.7,0.2,1.4,0.5,1.9,1c0.6,0.4,1,0.9,1.4,1.6c0.4,0.6,0.6,1.3,0.7,2.2h-2.1
			C348.6,57.5,348.1,56.7,347.3,56.2z"/>
		<path class="st0" d="M362.2,69.6c-0.5,0-0.9-0.1-1.1-0.4c-0.3-0.3-0.4-0.7-0.4-1.3c-0.5,0.6-1.1,1-1.8,1.3
			c-0.7,0.3-1.4,0.4-2.2,0.4c-0.5,0-1-0.1-1.4-0.2c-0.4-0.1-0.8-0.3-1.2-0.5c-0.3-0.3-0.6-0.6-0.8-1c-0.2-0.4-0.3-0.9-0.3-1.4
			c0-0.6,0.1-1.2,0.3-1.6c0.2-0.4,0.5-0.7,0.9-1c0.4-0.3,0.8-0.4,1.2-0.6c0.5-0.1,0.9-0.2,1.4-0.3c0.5-0.1,1-0.2,1.4-0.2
			c0.5-0.1,0.9-0.1,1.2-0.2c0.3-0.1,0.6-0.2,0.8-0.4c0.2-0.2,0.3-0.4,0.3-0.8c0-0.4-0.1-0.7-0.2-1c-0.2-0.2-0.3-0.4-0.6-0.6
			c-0.2-0.1-0.5-0.2-0.8-0.3c-0.3,0-0.6-0.1-0.9-0.1c-0.8,0-1.4,0.1-1.9,0.4c-0.5,0.3-0.8,0.9-0.8,1.7h-1.8c0-0.7,0.2-1.3,0.4-1.7
			c0.3-0.5,0.6-0.9,1-1.2c0.4-0.3,0.9-0.5,1.5-0.6c0.6-0.1,1.2-0.2,1.8-0.2c0.5,0,1,0,1.5,0.1c0.5,0.1,0.9,0.2,1.3,0.4
			c0.4,0.2,0.7,0.5,1,0.9c0.2,0.4,0.4,0.9,0.4,1.6v5.7c0,0.4,0,0.7,0.1,0.9c0.1,0.2,0.2,0.3,0.5,0.3c0.2,0,0.3,0,0.6-0.1v1.4
			C363.2,69.5,362.8,69.6,362.2,69.6z M359.6,64c-0.4,0.1-0.8,0.1-1.2,0.2c-0.4,0.1-0.8,0.1-1.2,0.2c-0.4,0.1-0.8,0.2-1.1,0.3
			c-0.3,0.1-0.6,0.3-0.8,0.6c-0.2,0.3-0.3,0.6-0.3,1.1c0,0.3,0.1,0.6,0.2,0.8c0.1,0.2,0.3,0.4,0.5,0.5c0.2,0.1,0.4,0.2,0.7,0.3
			c0.3,0.1,0.5,0.1,0.8,0.1c0.6,0,1.1-0.1,1.6-0.2c0.4-0.2,0.8-0.4,1.1-0.6c0.3-0.3,0.5-0.5,0.6-0.8c0.1-0.3,0.2-0.6,0.2-0.8v-1.9
			C360.3,63.8,360,63.9,359.6,64z"/>
		<path class="st0" d="M367.2,58.2v2.4h0c0.4-0.9,1-1.6,1.6-2c0.6-0.4,1.5-0.6,2.5-0.6v1.9c-0.7,0-1.4,0.1-1.9,0.3
			c-0.5,0.2-0.9,0.5-1.3,0.9c-0.3,0.4-0.5,0.9-0.7,1.4c-0.1,0.6-0.2,1.2-0.2,1.9v5h-1.8V58.2H367.2z"/>
		<path class="st0" d="M380.6,68.7c-0.8,0.6-1.9,1-3.2,1c-0.9,0-1.7-0.1-2.3-0.4c-0.7-0.3-1.2-0.7-1.7-1.2c-0.4-0.5-0.8-1.1-1-1.9
			c-0.2-0.7-0.3-1.5-0.4-2.4c0-0.8,0.1-1.6,0.4-2.3c0.3-0.7,0.6-1.3,1.1-1.8c0.5-0.5,1-0.9,1.7-1.2c0.6-0.3,1.3-0.4,2.1-0.4
			c1,0,1.8,0.2,2.5,0.6c0.7,0.4,1.2,0.9,1.6,1.6c0.4,0.6,0.7,1.3,0.8,2.1c0.2,0.7,0.2,1.5,0.2,2.1H374c0,0.5,0,1,0.2,1.4
			c0.1,0.4,0.3,0.8,0.6,1.2c0.3,0.3,0.7,0.6,1.1,0.8c0.4,0.2,1,0.3,1.6,0.3c0.8,0,1.4-0.2,1.9-0.5c0.5-0.4,0.8-0.9,1-1.6h1.8
			C382,67.1,381.4,68,380.6,68.7z M380.1,61.5c-0.2-0.4-0.4-0.7-0.7-1c-0.3-0.3-0.6-0.5-1-0.7c-0.4-0.2-0.8-0.2-1.3-0.2
			c-0.5,0-0.9,0.1-1.3,0.2c-0.4,0.2-0.7,0.4-1,0.7c-0.3,0.3-0.5,0.6-0.6,1c-0.2,0.4-0.3,0.8-0.3,1.2h6.4
			C380.4,62.3,380.3,61.9,380.1,61.5z"/>
	</g>
</g>
<g>
	<path d="M7.4,54l4.9,13l4.9-13h2.8v15.4H18V56.6h0l-4.8,12.8h-1.7L6.6,56.6h0v12.8H4.6V54H7.4z"/>
	<path d="M34.3,54v1.7h-8.6v4.9h8v1.7h-8v5.3h8.7v1.7H23.6V54H34.3z"/>
	<path d="M44.4,54c1.5,0,2.6,0.4,3.4,1.1c0.8,0.7,1.2,1.7,1.2,3c0,0.9-0.2,1.8-0.6,2.5c-0.4,0.7-1.1,1.2-2,1.4v0
		c0.4,0.1,0.8,0.2,1.1,0.4c0.3,0.2,0.5,0.4,0.7,0.7c0.2,0.3,0.3,0.6,0.4,0.9c0.1,0.3,0.1,0.7,0.2,1.1c0,0.4,0.1,0.8,0.1,1.1
		c0,0.4,0,0.8,0.1,1.1c0.1,0.4,0.1,0.7,0.2,1.1c0.1,0.3,0.3,0.6,0.5,0.9h-2.3c-0.1-0.2-0.2-0.4-0.3-0.6C47,68.5,47,68.2,47,67.8
		c0-0.3,0-0.7,0-1.1c0-0.4-0.1-0.8-0.1-1.1c-0.1-0.4-0.1-0.7-0.2-1.1c-0.1-0.3-0.2-0.6-0.4-0.9c-0.2-0.3-0.4-0.5-0.7-0.6
		c-0.3-0.2-0.7-0.2-1.2-0.2h-5v6.6h-2.1V54H44.4z M44.8,61c0.4-0.1,0.8-0.2,1.1-0.4c0.3-0.2,0.6-0.5,0.8-0.8
		c0.2-0.4,0.3-0.8,0.3-1.4c0-0.8-0.2-1.4-0.6-1.9c-0.4-0.5-1.1-0.7-2.1-0.7h-5.1v5.4h4.3C44,61.1,44.4,61,44.8,61z"/>
	<path d="M62.9,54v1.7h-8.6v4.9h8v1.7h-8v5.3H63v1.7H52.3V54H62.9z"/>
	<path d="M77.6,69.4l-3.5-13h0l-3.6,13h-2.1l-4-15.4h2.1l3,12.8h0L73,54h2.2l3.4,12.8h0L81.8,54h2.1l-4.1,15.4H77.6z"/>
	<path d="M96.7,54v1.7h-8.6v4.9h8v1.7h-8v5.3h8.7v1.7H86.1V54H96.7z"/>
	<path d="M98,55.7V54h12.3v1.7h-5.1v13.7h-2.1V55.7H98z"/>
	<path d="M114.4,54v6.6h8.1V54h2.1v15.4h-2.1v-7.1h-8.1v7.1h-2.1V54H114.4z"/>
	<path d="M138.9,54v1.7h-8.6v4.9h8v1.7h-8v5.3h8.7v1.7h-10.7V54H138.9z"/>
	<path d="M149,54c1.5,0,2.6,0.4,3.4,1.1c0.8,0.7,1.2,1.7,1.2,3c0,0.9-0.2,1.8-0.6,2.5c-0.4,0.7-1.1,1.2-2,1.4v0
		c0.4,0.1,0.8,0.2,1.1,0.4c0.3,0.2,0.5,0.4,0.7,0.7c0.2,0.3,0.3,0.6,0.4,0.9c0.1,0.3,0.1,0.7,0.2,1.1c0,0.4,0.1,0.8,0.1,1.1
		c0,0.4,0,0.8,0.1,1.1c0.1,0.4,0.1,0.7,0.2,1.1c0.1,0.3,0.3,0.6,0.5,0.9h-2.3c-0.1-0.2-0.2-0.4-0.3-0.6c-0.1-0.3-0.1-0.6-0.1-0.9
		c0-0.3,0-0.7,0-1.1c0-0.4-0.1-0.8-0.1-1.1c-0.1-0.4-0.1-0.7-0.2-1.1c-0.1-0.3-0.2-0.6-0.4-0.9c-0.2-0.3-0.4-0.5-0.7-0.6
		c-0.3-0.2-0.7-0.2-1.2-0.2h-5v6.6h-2.1V54H149z M149.4,61c0.4-0.1,0.8-0.2,1.1-0.4c0.3-0.2,0.6-0.5,0.8-0.8
		c0.2-0.4,0.3-0.8,0.3-1.4c0-0.8-0.2-1.4-0.6-1.9c-0.4-0.5-1.1-0.7-2.1-0.7h-5.1v5.4h4.3C148.6,61.1,149,61,149.4,61z"/>
</g>
<g>
</g>
<g>
</g>
<g>
</g>
<g>
</g>
<g>
</g>
<g>
</g>
</svg>
