<?xml version="1.0" encoding="utf-8"?>
<!-- Generator: Adobe Illustrator 19.1.0, SVG Export Plug-In . SVG Version: 6.00 Build 0)  -->
<!DOCTYPE svg PUBLIC "-//W3C//DTD SVG 1.1//EN" "http://www.w3.org/Graphics/SVG/1.1/DTD/svg11.dtd">
<svg version="1.1" id="Layer_1" xmlns="http://www.w3.org/2000/svg" xmlns:xlink="http://www.w3.org/1999/xlink" x="0px" y="0px"
	 viewBox="0 0 385.5 65.2" style="enable-background:new 0 0 385.5 65.2;" xml:space="preserve">
<style type="text/css">
	.st0{fill:#6CB33F;}
	.st1{fill:#6D6E71;}
</style>
<g>
	<path class="st0" d="M3.1,23.7V22h2.4c1,0,1.5-0.6,1.5-1.7v-15c0-1.1-0.4-1.7-1.5-1.7H3.2V1.9h20.9v8.2h-1.7
		c-0.2-4.1-0.5-6.5-5.3-6.5h-6.9v7.9h2.7c2.6,0,2.9-0.8,3.1-4.3h1.7v10.7H16c-0.1-3.9-0.5-4.7-3.1-4.7h-2.7V22h6.9
		c4.8,0,5.2-2.4,5.3-7.1h1.7v8.8H3.1z"/>
	<path class="st0" d="M33.1,20.7c0,1,0.2,1.5,1.3,1.5h2.1v1.5h-9.7v-1.5H29c1.1,0,1.3-0.5,1.3-1.5V5c0-1-0.8-1.5-1.3-1.5h-2.1V1.9
		h6.2V20.7z"/>
	<path class="st0" d="M44.1,20.7c0,1,0.2,1.5,1.3,1.5h2.1v1.5h-9.7v-1.5h2.1c1.1,0,1.3-0.5,1.3-1.5v-9.3c0-1-0.2-1.5-1.3-1.5h-2.1
		V8.3h6.2V20.7z M42.2,5.2c-1,0-1.8-0.8-1.8-1.8c0-1,0.8-1.8,1.8-1.8c1,0,1.8,0.8,1.8,1.8C44,4.4,43.2,5.2,42.2,5.2z"/>
	<path class="st0" d="M49.2,23.7v-1.5L59.8,9.9h-5.4c-2.4,0-3,1.5-3.2,4.9h-1.5V8.3h13.5v1.5L52.5,22.2h5.6c3.2,0,3.7-1.1,3.9-5.4
		h1.5v6.9H49.2z"/>
	<path class="st0" d="M78.5,20.9c0,1,0.3,1.7,0.9,1.7c1.4,0,1.5-1.8,1.5-2.8v-1.4h1.5v1c0,3.5-1.2,4.8-3.7,4.8c-1.6,0-2.6-1-2.9-2.6
		c-1.6,1.8-3.4,2.6-5.8,2.6c-2.7,0-4.8-1.2-4.8-4.1c0-4.3,5.9-4.2,9.2-5.8c1-0.5,1.2-1.1,1.2-2.1c0-1.9-0.8-2.8-3.7-2.8
		c-1.3,0-2.9,0.2-3.8,1.3c1,0.2,1.5,0.7,1.5,1.7c0,1.3-1.1,1.7-2,1.7c-1.1,0-1.7-1-1.7-2.3c0-2.8,3.7-3.9,6.2-3.9
		c3.8,0,6.2,1.1,6.2,5.4V20.9z M75.7,15.3c-1.4,0.8-2.9,1.1-4.9,2c-1.8,0.8-2.5,1.5-2.5,2.6c0,1.7,0.9,2.7,2.6,2.7
		c2.2,0,4.8-2,4.8-4.3V15.3z"/>
	<path class="st0" d="M84.7,5c0-1-0.4-1.5-1.5-1.5H82V1.9h5.5v8.9h0.1c1-1.9,2.7-3,5-3c4.6,0,6.9,3.7,6.9,8.2c0,4.5-2.3,8.2-6.9,8.2
		c-2.4,0-4.1-1-5.3-3.1l-1.1,2.8h-1.4V5z M91.9,22.4c3.5,0,4.4-3.4,4.4-6.3c0-2.9-0.9-6.3-4.4-6.3c-3.5,0-4.4,3.4-4.4,6.3
		C87.5,19,88.4,22.4,91.9,22.4z"/>
	<path class="st0" d="M104.9,16.2c0,3.3,0.7,6.4,4.6,6.4c2.6,0,4.2-1.4,4.9-3.9h1.9c-0.7,3.5-3,5.5-6.9,5.5c-4.9,0-7.7-2.8-7.7-8.2
		s2.8-8.2,7.7-8.2c5.3,0,7,3.7,7.3,8.4H104.9z M113.6,14.7c0-2.9-1.3-5.3-4.3-5.3c-3.1,0-4.5,2.4-4.5,5.3H113.6z"/>
	<path class="st0" d="M118.3,8.3c3.1-0.4,3.7-3.7,3.9-6.4h1.7v6.4h4.7v1.5h-4.7v10.8c0,1.3,0.5,1.9,1.6,1.9c1.4,0,2.3-1.3,2.3-3.2
		v-1.9h1.5V19c0,3.2-1,5.3-4.5,5.3c-2.9,0-3.8-1.9-3.8-3.7V9.9h-2.8V8.3z"/>
	<path class="st0" d="M137.1,11L137.1,11c1.3-1.9,3.3-3.1,5.8-3.1c3.4,0,5.3,2.3,5.3,5.7v7.1c0,1,0.2,1.5,1.3,1.5h2v1.5h-9.2v-1.5
		h1.8c1.1,0,1.3-0.5,1.3-1.5v-7.4c0-2.3-0.9-3.6-3.4-3.6c-3.1,0-5,2.5-5,5.1v5.8c0,1,0.2,1.5,1.3,1.5h2v1.5h-9.6v-1.5h2.1
		c1.1,0,1.3-0.5,1.3-1.5V5c0-1-0.2-1.5-1.3-1.5h-2.1V1.9h6.2V11z"/>
	<path class="st0" d="M179.7,1.9v1.7h-2.4c-1.1,0-1.5,0.6-1.5,1.7v12.1c0,5-2.5,6.9-6.9,6.9c-4.1,0-6.3-2.6-6.3-4.7
		c0-1.5,0.8-2.8,2.4-2.8c1.4,0,2.2,0.8,2.2,2.2c0,1.3-1,1.9-2.2,1.9c0.6,1.3,2.5,1.7,3.4,1.7c2,0,4.2-0.8,4.2-4V5.4
		c0-1.1-0.4-1.7-1.5-1.7h-2.7V1.9H179.7z"/>
	<path class="st0" d="M184.2,16.2c0,3.3,0.7,6.4,4.6,6.4c2.6,0,4.2-1.4,4.9-3.9h1.9c-0.7,3.5-3,5.5-6.9,5.5c-4.9,0-7.7-2.8-7.7-8.2
		s2.8-8.2,7.7-8.2c5.3,0,7,3.7,7.3,8.4H184.2z M193,14.7c0-2.9-1.3-5.3-4.3-5.3c-3.1,0-4.5,2.4-4.5,5.3H193z"/>
	<path class="st0" d="M203.6,11.1L203.6,11.1c1.4-2.1,3.3-3.3,5.9-3.3c3.4,0,5.3,2.3,5.3,5.7v7.1c0,1,0.2,1.5,1.3,1.5h2v1.5h-9.2
		v-1.5h1.8c1.1,0,1.3-0.5,1.3-1.5v-7.4c0-2.3-0.9-3.6-3.4-3.6c-3.1,0-5,2.5-5,5.1v5.8c0,1,0.2,1.5,1.3,1.5h2v1.5h-9.6v-1.5h2.1
		c1.1,0,1.3-0.5,1.3-1.5v-9.3c0-1-0.2-1.5-1.3-1.5h-2.1V8.3h6.2V11.1z"/>
	<path class="st0" d="M225.5,1.9v14.3l6-4.8c0.5-0.4,0.7-0.7,0.7-1c0-0.4-0.4-0.6-1.2-0.6h-2V8.3h9.9v1.5H238c-1,0-2.2,0.5-3.1,1.1
		l-4.6,3.7l5.4,5.7c0.9,1,1.8,1.7,3.4,1.7h0.7v1.5h-9.7v-1.5h1.8c0.6,0,1-0.1,1-0.6c0-0.5-0.7-1-0.9-1.3l-3.7-4.1l-2.9,2.2v2.2
		c0,1,0.2,1.5,1.3,1.5h1.7v1.5h-9.1v-1.5h1.7c1.4,0,1.6-0.5,1.6-1.5V5c0-1-0.6-1.5-1.8-1.5h-1.5V1.9H225.5z"/>
	<path class="st0" d="M247.5,20.7c0,1,0.2,1.5,1.3,1.5h2.1v1.5h-9.7v-1.5h2.1c1.1,0,1.3-0.5,1.3-1.5v-9.3c0-1-0.2-1.5-1.3-1.5h-2.1
		V8.3h6.2V20.7z M245.6,5.2c-1,0-1.8-0.8-1.8-1.8c0-1,0.8-1.8,1.8-1.8c1,0,1.8,0.8,1.8,1.8C247.4,4.4,246.6,5.2,245.6,5.2z"/>
	<path class="st0" d="M258.4,11.1L258.4,11.1c1.4-2.1,3.3-3.3,5.9-3.3c3.4,0,5.3,2.3,5.3,5.7v7.1c0,1,0.2,1.5,1.3,1.5h2v1.5h-9.2
		v-1.5h1.8c1.1,0,1.3-0.5,1.3-1.5v-7.4c0-2.3-0.9-3.6-3.4-3.6c-3.1,0-5,2.5-5,5.1v5.8c0,1,0.2,1.5,1.3,1.5h2v1.5h-9.6v-1.5h2.1
		c1.1,0,1.3-0.5,1.3-1.5v-9.3c0-1-0.2-1.5-1.3-1.5h-2.1V8.3h6.2V11.1z"/>
	<path class="st0" d="M276.3,17.5c0.5,3.1,3,5.2,6.1,5.2c2,0,3.4-1,3.4-2.6c0-4.2-11-1-11-7.7c0-3.3,3-4.5,5.8-4.5
		c1.8,0,3.7,0.7,5.1,1.9l0.6-1.5h1.5v6h-1.5c-0.4-2.9-2.9-4.8-5.5-4.8c-1.4,0-3.1,0.5-3.1,2.6c0,3.9,11,1,11,7.4
		c0,3.4-3.1,4.8-6.1,4.8c-2,0-4.1-0.6-5.6-2l-0.6,1.7h-1.7v-6.4H276.3z"/>
	<path class="st0" d="M300.4,23.7V22h2.6c1,0,1.5-0.6,1.5-1.7v-15c0-1.1-0.4-1.7-1.5-1.7h-2.5V1.9h11.7c5.1,0,9,1.3,9,6
		c0,4.3-3.5,6-7.6,6h-5.8V20c0,1.2,0.5,2,2.1,2h1.9v1.7H300.4z M307.7,12.2h4.8c3,0,5.2-1,5.2-4.3c0-3.3-2.2-4.3-5.2-4.3h-4.8V12.2z
		"/>
	<path class="st0" d="M328.6,20.7c0,1,0.2,1.5,1.3,1.5h2.1v1.5h-9.7v-1.5h2.1c1.1,0,1.3-0.5,1.3-1.5V5c0-1-0.8-1.5-1.3-1.5h-2.1V1.9
		h6.2V20.7z"/>
	<path class="st0" d="M346.7,20.9c0,1,0.3,1.7,0.9,1.7c1.4,0,1.5-1.8,1.5-2.8v-1.4h1.5v1c0,3.5-1.2,4.8-3.7,4.8
		c-1.6,0-2.6-1-2.9-2.6c-1.6,1.8-3.4,2.6-5.8,2.6c-2.7,0-4.8-1.2-4.8-4.1c0-4.3,5.9-4.2,9.2-5.8c1-0.5,1.2-1.1,1.2-2.1
		c0-1.9-0.8-2.8-3.7-2.8c-1.3,0-2.9,0.2-3.8,1.3c1,0.2,1.5,0.7,1.5,1.7c0,1.3-1,1.7-2,1.7c-1.1,0-1.7-1-1.7-2.3
		c0-2.8,3.7-3.9,6.2-3.9c3.8,0,6.2,1.1,6.2,5.4V20.9z M343.9,15.3c-1.4,0.8-2.9,1.1-4.9,2c-1.8,0.8-2.5,1.5-2.5,2.6
		c0,1.7,0.9,2.7,2.6,2.7c2.2,0,4.8-2,4.8-4.3V15.3z"/>
	<path class="st0" d="M366.2,18.1c-0.5,4.4-3.2,6.1-7.5,6.1c-4.1,0-7.2-2.7-7.2-8.2c0-4.9,3.5-8.2,8.1-8.2c2.9,0,6.7,1.5,6.7,4.9
		c0,1.3-0.8,2.3-2.1,2.3c-0.8,0-1.6-0.7-1.6-1.5c0-1.1,0.6-1.7,1.7-1.9c-0.5-1.6-2.7-2.2-4.2-2.2c-4.2,0-5.5,3.6-5.5,6.6
		s1.3,6.6,4.9,6.6c2.6,0,4.3-1.8,4.8-4.6H366.2z"/>
	<path class="st0" d="M371.2,16.2c0,3.3,0.7,6.4,4.6,6.4c2.6,0,4.2-1.4,4.9-3.9h1.9c-0.7,3.5-3,5.5-6.9,5.5c-4.9,0-7.7-2.8-7.7-8.2
		s2.8-8.2,7.7-8.2c5.3,0,7,3.7,7.3,8.4H371.2z M379.9,14.7c0-2.9-1.3-5.3-4.3-5.3c-3.1,0-4.5,2.4-4.5,5.3H379.9z"/>
</g>
<g>
	<rect x="2.9" y="32.3" class="st1" width="380.1" height="1"/>
	<g>
		<g>
			<g>
				<path class="st1" d="M149.1,41.5c1.6,0,2.9,0.4,3.8,1.2c0.9,0.8,1.4,1.9,1.4,3.3c0,1-0.2,1.9-0.7,2.7c-0.5,0.8-1.2,1.3-2.3,1.6
					v0c0.5,0.1,0.9,0.3,1.2,0.5c0.3,0.2,0.6,0.5,0.7,0.8c0.2,0.3,0.3,0.7,0.4,1c0.1,0.4,0.2,0.8,0.2,1.2c0,0.4,0.1,0.8,0.1,1.3
					c0,0.4,0.1,0.9,0.1,1.3c0.1,0.4,0.2,0.8,0.3,1.2c0.1,0.4,0.3,0.7,0.5,1h-2.5c-0.2-0.2-0.3-0.4-0.3-0.7c-0.1-0.3-0.1-0.6-0.1-1
					c0-0.4,0-0.8,0-1.2c0-0.4-0.1-0.8-0.1-1.3c-0.1-0.4-0.1-0.8-0.2-1.2c-0.1-0.4-0.2-0.7-0.5-1c-0.2-0.3-0.5-0.5-0.8-0.7
					c-0.3-0.2-0.8-0.3-1.3-0.3h-5.5v7.3h-2.3v-17H149.1z M149.6,49.3c0.5-0.1,0.9-0.2,1.3-0.5c0.4-0.2,0.6-0.5,0.9-0.9
					c0.2-0.4,0.3-0.9,0.3-1.5c0-0.9-0.2-1.6-0.7-2.1c-0.5-0.5-1.2-0.8-2.3-0.8h-5.6v5.9h4.7C148.6,49.4,149.1,49.3,149.6,49.3z"/>
				<path class="st1" d="M166.2,57.8c-0.9,0.7-2.1,1-3.5,1c-1,0-1.8-0.2-2.6-0.5c-0.7-0.3-1.3-0.8-1.8-1.3c-0.5-0.6-0.9-1.3-1.1-2.1
					c-0.2-0.8-0.4-1.7-0.4-2.6c0-0.9,0.1-1.8,0.4-2.6c0.3-0.8,0.7-1.5,1.2-2c0.5-0.6,1.1-1,1.8-1.3c0.7-0.3,1.5-0.5,2.3-0.5
					c1.1,0,2,0.2,2.7,0.7c0.7,0.5,1.3,1,1.7,1.7c0.4,0.7,0.7,1.5,0.9,2.3c0.2,0.8,0.2,1.6,0.2,2.4H159c0,0.5,0,1.1,0.2,1.5
					c0.1,0.5,0.4,0.9,0.7,1.3c0.3,0.4,0.7,0.7,1.2,0.9c0.5,0.2,1.1,0.3,1.7,0.3c0.9,0,1.6-0.2,2.1-0.6c0.5-0.4,0.9-1,1.1-1.8h2
					C167.7,56,167.1,57.1,166.2,57.8z M165.7,49.9c-0.2-0.4-0.4-0.8-0.7-1.1c-0.3-0.3-0.7-0.6-1.1-0.7c-0.4-0.2-0.9-0.3-1.4-0.3
					c-0.5,0-1,0.1-1.4,0.3c-0.4,0.2-0.8,0.4-1.1,0.8c-0.3,0.3-0.5,0.7-0.7,1.1c-0.2,0.4-0.3,0.9-0.3,1.3h7.1
					C166,50.7,165.9,50.3,165.7,49.9z"/>
				<path class="st1" d="M172.2,55.8c0.2,0.3,0.4,0.6,0.8,0.7c0.3,0.2,0.7,0.3,1,0.4c0.4,0.1,0.8,0.1,1.2,0.1c0.3,0,0.7,0,1-0.1
					c0.4,0,0.7-0.1,1-0.3c0.3-0.1,0.5-0.3,0.7-0.6c0.2-0.2,0.3-0.6,0.3-0.9c0-0.5-0.2-0.9-0.6-1.2c-0.4-0.3-0.9-0.5-1.5-0.7
					c-0.6-0.2-1.2-0.3-1.9-0.5c-0.7-0.1-1.3-0.3-1.9-0.6c-0.6-0.2-1.1-0.6-1.5-1c-0.4-0.4-0.6-1.1-0.6-1.9c0-0.6,0.1-1.2,0.4-1.6
					c0.3-0.4,0.6-0.8,1.1-1.1c0.4-0.3,0.9-0.5,1.5-0.6c0.5-0.1,1.1-0.2,1.6-0.2c0.7,0,1.3,0.1,1.9,0.2c0.6,0.1,1.1,0.3,1.6,0.6
					c0.5,0.3,0.8,0.7,1.1,1.2c0.3,0.5,0.4,1.1,0.5,1.9h-2c0-0.4-0.1-0.7-0.3-1c-0.2-0.3-0.4-0.5-0.7-0.6c-0.3-0.2-0.6-0.3-0.9-0.3
					c-0.3-0.1-0.7-0.1-1-0.1c-0.3,0-0.6,0-0.9,0.1c-0.3,0-0.6,0.1-0.8,0.2c-0.3,0.1-0.5,0.3-0.6,0.5c-0.2,0.2-0.2,0.5-0.2,0.8
					c0,0.3,0.1,0.6,0.4,0.9c0.2,0.2,0.6,0.4,0.9,0.6c0.4,0.2,0.8,0.3,1.3,0.4c0.5,0.1,1,0.2,1.4,0.3c0.5,0.1,1,0.2,1.5,0.4
					c0.5,0.2,0.9,0.4,1.3,0.6c0.4,0.3,0.7,0.6,0.9,1c0.2,0.4,0.3,0.9,0.3,1.5c0,0.7-0.2,1.4-0.5,1.9c-0.3,0.5-0.7,0.9-1.2,1.2
					c-0.5,0.3-1.1,0.5-1.7,0.6c-0.6,0.1-1.3,0.2-1.9,0.2c-0.7,0-1.3-0.1-2-0.2c-0.6-0.1-1.2-0.4-1.6-0.7c-0.5-0.3-0.9-0.8-1.1-1.3
					c-0.3-0.5-0.4-1.2-0.5-1.9h2C171.9,55.1,172,55.5,172.2,55.8z"/>
				<path class="st1" d="M183,44v-2.5h2V44H183z M185.1,46.2v12.3h-2V46.2H185.1z"/>
				<path class="st1" d="M197.6,58.6v-1.7h0c-0.3,0.7-0.9,1.2-1.6,1.5c-0.7,0.3-1.5,0.5-2.4,0.5c-1,0-1.8-0.2-2.5-0.5
					c-0.7-0.3-1.3-0.8-1.8-1.4c-0.5-0.6-0.8-1.3-1.1-2c-0.2-0.8-0.4-1.6-0.4-2.5c0-0.9,0.1-1.7,0.3-2.5c0.2-0.8,0.6-1.5,1-2
					c0.5-0.6,1.1-1,1.8-1.4c0.7-0.3,1.5-0.5,2.5-0.5c0.3,0,0.7,0,1,0.1c0.4,0.1,0.7,0.2,1.1,0.3c0.4,0.2,0.7,0.3,1,0.6
					c0.3,0.2,0.6,0.6,0.8,0.9h0v-6.3h2v17H197.6z M190.3,54.2c0.2,0.5,0.4,1,0.7,1.5c0.3,0.4,0.7,0.8,1.2,1c0.5,0.3,1.1,0.4,1.7,0.4
					c0.7,0,1.3-0.1,1.7-0.4c0.5-0.3,0.9-0.6,1.2-1.1c0.3-0.4,0.5-0.9,0.7-1.5c0.1-0.6,0.2-1.1,0.2-1.7c0-0.6-0.1-1.2-0.2-1.8
					c-0.1-0.6-0.4-1.1-0.7-1.5c-0.3-0.4-0.7-0.8-1.2-1c-0.5-0.3-1.1-0.4-1.8-0.4c-0.7,0-1.3,0.1-1.7,0.4c-0.5,0.3-0.9,0.6-1.1,1.1
					c-0.3,0.4-0.5,1-0.6,1.5c-0.1,0.6-0.2,1.2-0.2,1.8C190,53.1,190.1,53.6,190.3,54.2z"/>
				<path class="st1" d="M211.8,57.8c-0.9,0.7-2.1,1-3.5,1c-1,0-1.8-0.2-2.6-0.5c-0.7-0.3-1.3-0.8-1.8-1.3c-0.5-0.6-0.9-1.3-1.1-2.1
					c-0.2-0.8-0.4-1.7-0.4-2.6c0-0.9,0.1-1.8,0.4-2.6c0.3-0.8,0.7-1.5,1.2-2c0.5-0.6,1.1-1,1.8-1.3c0.7-0.3,1.5-0.5,2.3-0.5
					c1.1,0,2,0.2,2.7,0.7c0.7,0.5,1.3,1,1.7,1.7c0.4,0.7,0.7,1.5,0.9,2.3c0.2,0.8,0.2,1.6,0.2,2.4h-9.2c0,0.5,0,1.1,0.2,1.5
					c0.1,0.5,0.4,0.9,0.7,1.3c0.3,0.4,0.7,0.7,1.2,0.9c0.5,0.2,1.1,0.3,1.7,0.3c0.9,0,1.6-0.2,2.1-0.6c0.5-0.4,0.9-1,1.1-1.8h2
					C213.3,56,212.7,57.1,211.8,57.8z M211.3,49.9c-0.2-0.4-0.4-0.8-0.7-1.1c-0.3-0.3-0.7-0.6-1.1-0.7c-0.4-0.2-0.9-0.3-1.4-0.3
					c-0.5,0-1,0.1-1.4,0.3c-0.4,0.2-0.8,0.4-1.1,0.8c-0.3,0.3-0.5,0.7-0.7,1.1c-0.2,0.4-0.3,0.9-0.3,1.3h7.1
					C211.6,50.7,211.5,50.3,211.3,49.9z"/>
				<path class="st1" d="M218.1,46.2v2h0c0.8-1.5,2.2-2.2,4-2.2c0.8,0,1.5,0.1,2,0.3c0.5,0.2,1,0.5,1.3,0.9c0.3,0.4,0.6,0.9,0.7,1.4
					c0.1,0.5,0.2,1.2,0.2,1.8v8.1h-2v-8.3c0-0.8-0.2-1.4-0.7-1.8c-0.4-0.4-1.1-0.7-1.8-0.7c-0.6,0-1.2,0.1-1.6,0.3
					c-0.5,0.2-0.8,0.5-1.1,0.8c-0.3,0.3-0.5,0.8-0.7,1.2c-0.2,0.5-0.2,1-0.2,1.5v7h-2V46.2H218.1z"/>
				<path class="st1" d="M235.1,46.2V48h-2.5v7.7c0,0.2,0,0.4,0.1,0.6c0,0.1,0.1,0.3,0.2,0.3c0.1,0.1,0.3,0.1,0.5,0.2
					c0.2,0,0.5,0,0.8,0h0.9v1.8h-1.5c-0.5,0-1,0-1.3-0.1c-0.4-0.1-0.7-0.2-0.9-0.4c-0.2-0.2-0.4-0.5-0.5-0.8
					c-0.1-0.4-0.2-0.8-0.2-1.4V48h-2.1v-1.8h2.1v-3.7h2v3.7H235.1z"/>
				<path class="st1" d="M237.8,44v-2.5h2V44H237.8z M239.9,46.2v12.3h-2V46.2H239.9z"/>
				<path class="st1" d="M252.8,58.8c-0.5,0-0.9-0.1-1.3-0.4c-0.3-0.3-0.5-0.8-0.5-1.4c-0.6,0.7-1.2,1.1-1.9,1.4
					c-0.7,0.3-1.5,0.4-2.4,0.4c-0.6,0-1.1-0.1-1.6-0.2c-0.5-0.1-0.9-0.3-1.3-0.6c-0.4-0.3-0.7-0.6-0.9-1.1c-0.2-0.4-0.3-1-0.3-1.6
					c0-0.7,0.1-1.3,0.4-1.7c0.2-0.4,0.6-0.8,0.9-1.1c0.4-0.3,0.8-0.5,1.3-0.6c0.5-0.1,1-0.3,1.5-0.4c0.6-0.1,1.1-0.2,1.6-0.2
					c0.5-0.1,0.9-0.1,1.3-0.2c0.4-0.1,0.7-0.3,0.9-0.5c0.2-0.2,0.3-0.5,0.3-0.9c0-0.4-0.1-0.8-0.2-1.1c-0.2-0.3-0.4-0.5-0.6-0.6
					c-0.3-0.1-0.6-0.2-0.9-0.3c-0.3,0-0.6-0.1-1-0.1c-0.9,0-1.6,0.2-2.1,0.5c-0.6,0.3-0.9,0.9-0.9,1.8h-2c0-0.8,0.2-1.4,0.5-1.9
					c0.3-0.5,0.7-1,1.1-1.3c0.5-0.3,1-0.6,1.6-0.7c0.6-0.1,1.3-0.2,2-0.2c0.6,0,1.1,0,1.7,0.1c0.5,0.1,1,0.2,1.5,0.5
					c0.4,0.2,0.8,0.6,1.1,1c0.3,0.4,0.4,1,0.4,1.7v6.3c0,0.5,0,0.8,0.1,1c0.1,0.2,0.2,0.3,0.6,0.3c0.2,0,0.4,0,0.6-0.1v1.6
					C253.9,58.7,253.5,58.8,252.8,58.8z M250,52.6c-0.4,0.1-0.8,0.2-1.3,0.2c-0.5,0.1-0.9,0.1-1.4,0.2c-0.5,0.1-0.9,0.2-1.2,0.3
					c-0.4,0.2-0.7,0.4-0.9,0.7c-0.2,0.3-0.3,0.7-0.3,1.2c0,0.3,0.1,0.6,0.2,0.8c0.1,0.2,0.3,0.4,0.5,0.6c0.2,0.1,0.5,0.2,0.8,0.3
					c0.3,0.1,0.6,0.1,0.9,0.1c0.7,0,1.2-0.1,1.7-0.3c0.5-0.2,0.9-0.4,1.2-0.7c0.3-0.3,0.5-0.6,0.7-0.9c0.1-0.3,0.2-0.6,0.2-0.9v-2.1
					C250.7,52.4,250.4,52.5,250,52.6z"/>
				<path class="st1" d="M258.7,41.5v17h-2v-17H258.7z"/>
				<path class="st1" d="M276.6,41.5l6.7,17h-2.5l-1.9-5.1h-7.2l-1.9,5.1h-2.3l6.6-17H276.6z M278.2,51.5l-2.8-7.9h0l-2.9,7.9H278.2
					z"/>
				<path class="st1" d="M294.2,62c-0.9,1-2.4,1.5-4.3,1.5c-0.6,0-1.2-0.1-1.8-0.2c-0.6-0.1-1.1-0.3-1.6-0.6
					c-0.5-0.3-0.9-0.7-1.2-1.1c-0.3-0.5-0.5-1-0.5-1.7h2c0,0.4,0.1,0.7,0.3,0.9c0.2,0.3,0.5,0.5,0.8,0.6c0.3,0.2,0.6,0.3,1,0.3
					c0.4,0.1,0.7,0.1,1,0.1c0.7,0,1.2-0.1,1.7-0.3c0.5-0.2,0.8-0.5,1.1-1c0.3-0.4,0.5-0.9,0.7-1.5c0.1-0.6,0.2-1.2,0.2-1.9v-0.8h0
					c-0.3,0.8-0.9,1.3-1.6,1.7c-0.7,0.4-1.5,0.5-2.3,0.5c-0.9,0-1.7-0.2-2.4-0.5c-0.7-0.3-1.3-0.8-1.7-1.3c-0.5-0.6-0.8-1.2-1-2
					c-0.2-0.8-0.3-1.6-0.3-2.4c0-0.7,0.1-1.5,0.3-2.3c0.2-0.8,0.5-1.5,1-2.1c0.4-0.6,1-1.1,1.8-1.5c0.7-0.4,1.6-0.6,2.7-0.6
					c0.8,0,1.5,0.2,2.1,0.5c0.7,0.3,1.2,0.9,1.5,1.5h0v-1.8h1.9v11.3C295.6,59.5,295.1,61,294.2,62z M291.6,56.5
					c0.5-0.3,0.8-0.6,1.1-1.1c0.3-0.5,0.5-1,0.6-1.5c0.1-0.6,0.2-1.1,0.2-1.7c0-0.5-0.1-1.1-0.2-1.6c-0.1-0.5-0.3-1-0.6-1.4
					c-0.3-0.4-0.6-0.8-1.1-1c-0.4-0.3-1-0.4-1.6-0.4c-0.7,0-1.2,0.1-1.7,0.4c-0.5,0.2-0.8,0.6-1.1,1c-0.3,0.4-0.5,0.9-0.6,1.4
					c-0.1,0.5-0.2,1.1-0.2,1.7c0,0.6,0.1,1.1,0.2,1.7c0.1,0.6,0.3,1.1,0.6,1.5c0.3,0.5,0.6,0.8,1.1,1.1c0.4,0.3,1,0.4,1.7,0.4
					S291.2,56.8,291.6,56.5z"/>
				<path class="st1" d="M307.7,57.8c-0.9,0.7-2.1,1-3.5,1c-1,0-1.8-0.2-2.6-0.5c-0.7-0.3-1.3-0.8-1.8-1.3c-0.5-0.6-0.9-1.3-1.1-2.1
					c-0.2-0.8-0.4-1.7-0.4-2.6c0-0.9,0.1-1.8,0.4-2.6c0.3-0.8,0.7-1.5,1.2-2c0.5-0.6,1.1-1,1.8-1.3c0.7-0.3,1.5-0.5,2.3-0.5
					c1.1,0,2,0.2,2.7,0.7c0.7,0.5,1.3,1,1.7,1.7c0.4,0.7,0.7,1.5,0.9,2.3c0.2,0.8,0.2,1.6,0.2,2.4h-9.2c0,0.5,0,1.1,0.2,1.5
					c0.1,0.5,0.4,0.9,0.7,1.3c0.3,0.4,0.7,0.7,1.2,0.9c0.5,0.2,1.1,0.3,1.7,0.3c0.9,0,1.6-0.2,2.1-0.6c0.5-0.4,0.9-1,1.1-1.8h2
					C309.3,56,308.7,57.1,307.7,57.8z M307.3,49.9c-0.2-0.4-0.4-0.8-0.7-1.1c-0.3-0.3-0.7-0.6-1.1-0.7c-0.4-0.2-0.9-0.3-1.4-0.3
					c-0.5,0-1,0.1-1.4,0.3c-0.4,0.2-0.8,0.4-1.1,0.8c-0.3,0.3-0.5,0.7-0.7,1.1c-0.2,0.4-0.3,0.9-0.3,1.3h7.1
					C307.6,50.7,307.4,50.3,307.3,49.9z"/>
				<path class="st1" d="M321.2,58.6v-1.7h0c-0.3,0.7-0.9,1.2-1.6,1.5c-0.7,0.3-1.5,0.5-2.4,0.5c-1,0-1.8-0.2-2.5-0.5
					c-0.7-0.3-1.3-0.8-1.8-1.4c-0.5-0.6-0.8-1.3-1.1-2c-0.2-0.8-0.4-1.6-0.4-2.5c0-0.9,0.1-1.7,0.3-2.5c0.2-0.8,0.6-1.5,1-2
					c0.5-0.6,1.1-1,1.8-1.4c0.7-0.3,1.5-0.5,2.5-0.5c0.3,0,0.7,0,1,0.1c0.4,0.1,0.7,0.2,1.1,0.3c0.4,0.2,0.7,0.3,1,0.6
					c0.3,0.2,0.6,0.6,0.8,0.9h0v-6.3h2v17H321.2z M313.9,54.2c0.2,0.5,0.4,1,0.7,1.5c0.3,0.4,0.7,0.8,1.2,1c0.5,0.3,1.1,0.4,1.7,0.4
					c0.7,0,1.3-0.1,1.7-0.4c0.5-0.3,0.9-0.6,1.2-1.1c0.3-0.4,0.5-0.9,0.7-1.5c0.1-0.6,0.2-1.1,0.2-1.7c0-0.6-0.1-1.2-0.2-1.8
					c-0.1-0.6-0.4-1.1-0.7-1.5c-0.3-0.4-0.7-0.8-1.2-1c-0.5-0.3-1.1-0.4-1.8-0.4c-0.7,0-1.3,0.1-1.7,0.4c-0.5,0.3-0.9,0.6-1.1,1.1
					c-0.3,0.4-0.5,1-0.6,1.5c-0.1,0.6-0.2,1.2-0.2,1.8C313.7,53.1,313.7,53.6,313.9,54.2z"/>
				<path class="st1" d="M344.3,43.9c-0.9-0.6-1.9-0.9-3.1-0.9c-1,0-1.9,0.2-2.6,0.6c-0.7,0.4-1.3,0.9-1.8,1.5
					c-0.5,0.6-0.8,1.4-1,2.2c-0.2,0.8-0.3,1.7-0.3,2.6c0,1,0.1,1.9,0.3,2.8c0.2,0.9,0.6,1.6,1,2.3c0.5,0.6,1.1,1.2,1.8,1.5
					c0.7,0.4,1.6,0.6,2.6,0.6c0.7,0,1.4-0.1,2-0.4c0.6-0.2,1.1-0.6,1.5-1c0.4-0.4,0.8-1,1-1.6c0.2-0.6,0.4-1.3,0.4-2h2.3
					c-0.2,2.1-1,3.8-2.2,5c-1.3,1.2-3,1.8-5.2,1.8c-1.3,0-2.5-0.2-3.5-0.7c-1-0.5-1.8-1.1-2.5-1.9c-0.7-0.8-1.1-1.7-1.5-2.8
					c-0.3-1.1-0.5-2.2-0.5-3.5c0-1.2,0.2-2.4,0.5-3.5c0.3-1.1,0.9-2,1.5-2.8c0.7-0.8,1.5-1.5,2.5-1.9c1-0.5,2.2-0.7,3.5-0.7
					c0.9,0,1.7,0.1,2.5,0.4c0.8,0.2,1.5,0.6,2.1,1c0.6,0.5,1.1,1,1.5,1.7c0.4,0.7,0.7,1.5,0.8,2.4H346
					C345.7,45.5,345.2,44.5,344.3,43.9z"/>
				<path class="st1" d="M360.7,58.8c-0.5,0-0.9-0.1-1.3-0.4c-0.3-0.3-0.5-0.8-0.5-1.4c-0.6,0.7-1.2,1.1-1.9,1.4
					c-0.7,0.3-1.5,0.4-2.4,0.4c-0.6,0-1.1-0.1-1.6-0.2c-0.5-0.1-0.9-0.3-1.3-0.6c-0.4-0.3-0.7-0.6-0.9-1.1c-0.2-0.4-0.3-1-0.3-1.6
					c0-0.7,0.1-1.3,0.4-1.7c0.2-0.4,0.6-0.8,0.9-1.1c0.4-0.3,0.8-0.5,1.3-0.6c0.5-0.1,1-0.3,1.5-0.4c0.6-0.1,1.1-0.2,1.6-0.2
					c0.5-0.1,0.9-0.1,1.3-0.2c0.4-0.1,0.7-0.3,0.9-0.5c0.2-0.2,0.3-0.5,0.3-0.9c0-0.4-0.1-0.8-0.2-1.1c-0.2-0.3-0.4-0.5-0.6-0.6
					c-0.3-0.1-0.6-0.2-0.9-0.3c-0.3,0-0.6-0.1-1-0.1c-0.9,0-1.6,0.2-2.1,0.5c-0.6,0.3-0.9,0.9-0.9,1.8h-2c0-0.8,0.2-1.4,0.5-1.9
					c0.3-0.5,0.7-1,1.1-1.3c0.5-0.3,1-0.6,1.6-0.7c0.6-0.1,1.3-0.2,2-0.2c0.6,0,1.1,0,1.7,0.1c0.5,0.1,1,0.2,1.5,0.5
					c0.4,0.2,0.8,0.6,1.1,1c0.3,0.4,0.4,1,0.4,1.7v6.3c0,0.5,0,0.8,0.1,1c0.1,0.2,0.2,0.3,0.6,0.3c0.2,0,0.4,0,0.6-0.1v1.6
					C361.8,58.7,361.3,58.8,360.7,58.8z M357.9,52.6c-0.4,0.1-0.8,0.2-1.3,0.2c-0.5,0.1-0.9,0.1-1.4,0.2c-0.5,0.1-0.9,0.2-1.2,0.3
					c-0.4,0.2-0.7,0.4-0.9,0.7c-0.2,0.3-0.3,0.7-0.3,1.2c0,0.3,0.1,0.6,0.2,0.8c0.1,0.2,0.3,0.4,0.5,0.6c0.2,0.1,0.5,0.2,0.8,0.3
					c0.3,0.1,0.6,0.1,0.9,0.1c0.7,0,1.2-0.1,1.7-0.3c0.5-0.2,0.9-0.4,1.2-0.7c0.3-0.3,0.5-0.6,0.7-0.9c0.1-0.3,0.2-0.6,0.2-0.9v-2.1
					C358.6,52.4,358.3,52.5,357.9,52.6z"/>
				<path class="st1" d="M366.2,46.2v2.6h0c0.5-1,1.1-1.7,1.8-2.2c0.7-0.5,1.6-0.7,2.7-0.7v2.1c-0.8,0-1.5,0.1-2.1,0.3
					c-0.6,0.2-1,0.5-1.4,1c-0.3,0.4-0.6,1-0.8,1.6c-0.2,0.6-0.2,1.3-0.2,2.1v5.5h-2V46.2H366.2z"/>
				<path class="st1" d="M381,57.8c-0.9,0.7-2.1,1-3.5,1c-1,0-1.8-0.2-2.6-0.5c-0.7-0.3-1.3-0.8-1.8-1.3c-0.5-0.6-0.9-1.3-1.1-2.1
					c-0.2-0.8-0.4-1.7-0.4-2.6c0-0.9,0.1-1.8,0.4-2.6c0.3-0.8,0.7-1.5,1.2-2c0.5-0.6,1.1-1,1.8-1.3c0.7-0.3,1.5-0.5,2.3-0.5
					c1.1,0,2,0.2,2.7,0.7c0.7,0.5,1.3,1,1.7,1.7c0.4,0.7,0.7,1.5,0.9,2.3c0.2,0.8,0.2,1.6,0.2,2.4h-9.2c0,0.5,0,1.1,0.2,1.5
					c0.1,0.5,0.4,0.9,0.7,1.3c0.3,0.4,0.7,0.7,1.2,0.9c0.5,0.2,1.1,0.3,1.7,0.3c0.9,0,1.6-0.2,2.1-0.6c0.5-0.4,0.9-1,1.1-1.8h2
					C382.5,56,381.9,57.1,381,57.8z M380.5,49.9c-0.2-0.4-0.4-0.8-0.7-1.1c-0.3-0.3-0.7-0.6-1.1-0.7c-0.4-0.2-0.9-0.3-1.4-0.3
					c-0.5,0-1,0.1-1.4,0.3c-0.4,0.2-0.8,0.4-1.1,0.8c-0.3,0.3-0.5,0.7-0.7,1.1c-0.2,0.4-0.3,0.9-0.3,1.3h7.1
					C380.8,50.7,380.7,50.3,380.5,49.9z"/>
			</g>
		</g>
		<g>
			<path d="M42.4,41.7v14.9h8.9v1.9H40.2V41.7H42.4z"/>
			<path d="M55.8,41.7v14.9h8.9v1.9H53.6V41.7H55.8z"/>
		</g>
	</g>
</g>
<g>
	<g>
		<path d="M21.6,46.8c0.3-1.1,0.8-2,1.5-2.8c0.7-0.8,1.5-1.5,2.5-1.9c1-0.5,2.2-0.7,3.5-0.7c1.3,0,2.5,0.2,3.5,0.7
			c1,0.5,1.8,1.1,2.5,1.9c0.7,0.8,1.2,1.7,1.5,2.8c0.3,1.1,0.5,2.1,0.5,3.3c0,1.1-0.2,2.2-0.5,3.3c-0.3,1.1-0.8,2-1.5,2.8
			c-0.7,0.8-1.5,1.5-2.5,1.9c-1,0.5-2.2,0.7-3.5,0.7c-1.3,0-2.5-0.2-3.5-0.7c-1-0.5-1.8-1.1-2.5-1.9c-0.7-0.8-1.2-1.7-1.5-2.8
			c-0.3-1.1-0.5-2.1-0.5-3.3C21.1,49,21.3,47.9,21.6,46.8z M23.7,52.6c0.2,0.8,0.6,1.6,1,2.2c0.5,0.7,1.1,1.2,1.8,1.6
			c0.7,0.4,1.6,0.6,2.6,0.6c1,0,1.9-0.2,2.6-0.6c0.7-0.4,1.3-0.9,1.8-1.6c0.5-0.7,0.8-1.4,1-2.2c0.2-0.8,0.3-1.6,0.3-2.5
			c0-0.8-0.1-1.7-0.3-2.5c-0.2-0.8-0.6-1.6-1-2.2c-0.5-0.7-1.1-1.2-1.8-1.6c-0.7-0.4-1.6-0.6-2.6-0.6c-1,0-1.9,0.2-2.6,0.6
			c-0.7,0.4-1.3,0.9-1.8,1.6c-0.5,0.7-0.8,1.4-1,2.2c-0.2,0.8-0.3,1.6-0.3,2.5C23.3,50.9,23.4,51.8,23.7,52.6z"/>
		<path d="M14.9,44.1c-0.9-0.6-1.9-0.9-3-0.9c-1,0-1.9,0.2-2.6,0.6c-0.7,0.4-1.3,0.9-1.8,1.5c-0.5,0.6-0.8,1.4-1,2.2
			c-0.2,0.8-0.3,1.7-0.3,2.5c0,0.9,0.1,1.9,0.3,2.7c0.2,0.9,0.6,1.6,1,2.2C8,55.5,8.5,56,9.3,56.4c0.7,0.4,1.6,0.6,2.6,0.6
			c0.7,0,1.4-0.1,2-0.4c0.6-0.2,1.1-0.6,1.5-1c0.4-0.4,0.7-0.9,1-1.5c0.2-0.6,0.4-1.2,0.4-1.9h2.2c-0.2,2.1-0.9,3.7-2.2,4.9
			c-1.2,1.2-2.9,1.8-5.1,1.8c-1.3,0-2.4-0.2-3.4-0.7c-1-0.4-1.8-1.1-2.4-1.8c-0.6-0.8-1.1-1.7-1.4-2.8c-0.3-1.1-0.5-2.2-0.5-3.4
			c0-1.2,0.2-2.4,0.5-3.4c0.3-1.1,0.8-2,1.5-2.8c0.7-0.8,1.5-1.4,2.5-1.9c1-0.5,2.1-0.7,3.4-0.7c0.9,0,1.7,0.1,2.5,0.3
			c0.8,0.2,1.5,0.6,2.1,1c0.6,0.5,1.1,1,1.5,1.7c0.4,0.7,0.7,1.5,0.8,2.3h-2.2C16.3,45.6,15.7,44.7,14.9,44.1z"/>
		<path d="M76,41.7l6.6,16.7h-2.5l-1.8-5h-7.1l-1.9,5H67l6.5-16.7H76z M77.6,51.5l-2.8-7.8h0l-2.8,7.8H77.6z"/>
	</g>
</g>
<path d="M92.5,41.7c1.6,0,2.9,0.4,3.8,1.2c0.9,0.8,1.4,1.9,1.4,3.2c0,1-0.2,1.9-0.7,2.7c-0.5,0.8-1.2,1.3-2.2,1.6v0
	c0.5,0.1,0.9,0.2,1.2,0.5c0.3,0.2,0.6,0.5,0.7,0.8c0.2,0.3,0.3,0.6,0.4,1c0.1,0.4,0.2,0.8,0.2,1.2c0,0.4,0.1,0.8,0.1,1.2
	c0,0.4,0.1,0.8,0.1,1.2c0.1,0.4,0.2,0.8,0.3,1.2c0.1,0.4,0.3,0.7,0.5,1h-2.5c-0.2-0.2-0.3-0.4-0.3-0.7c-0.1-0.3-0.1-0.6-0.1-1
	c0-0.4,0-0.8,0-1.2c0-0.4-0.1-0.8-0.1-1.2c-0.1-0.4-0.1-0.8-0.2-1.2c-0.1-0.4-0.2-0.7-0.4-1c-0.2-0.3-0.5-0.5-0.8-0.7
	c-0.3-0.2-0.8-0.2-1.3-0.2h-5.5v7.2h-2.2V41.7H92.5z M93,49.3c0.5-0.1,0.9-0.2,1.2-0.5c0.4-0.2,0.6-0.5,0.8-0.9
	c0.2-0.4,0.3-0.9,0.3-1.5c0-0.8-0.2-1.5-0.7-2.1c-0.5-0.5-1.2-0.8-2.3-0.8h-5.6v5.9h4.7C92,49.4,92.5,49.4,93,49.3z"/>
<path d="M100.7,46.8c0.3-1.1,0.8-2,1.5-2.8c0.7-0.8,1.5-1.5,2.5-2c1-0.5,2.2-0.7,3.5-0.7c1.3,0,2.5,0.2,3.5,0.7c1,0.5,1.9,1.1,2.5,2
	c0.7,0.8,1.2,1.8,1.5,2.8c0.3,1.1,0.5,2.2,0.5,3.3c0,1.1-0.2,2.2-0.5,3.3c-0.3,1.1-0.8,2-1.5,2.8c-0.7,0.8-1.5,1.5-2.5,1.9
	c-1,0.5-2.2,0.7-3.5,0.7c-1.3,0-2.5-0.2-3.5-0.7c-1-0.5-1.8-1.1-2.5-1.9c-0.7-0.8-1.2-1.8-1.5-2.8c-0.3-1.1-0.5-2.2-0.5-3.3
	C100.1,48.9,100.3,47.8,100.7,46.8z M102.7,52.6c0.2,0.8,0.6,1.6,1,2.2c0.5,0.7,1.1,1.2,1.8,1.6c0.7,0.4,1.6,0.6,2.6,0.6
	c1,0,1.9-0.2,2.6-0.6c0.7-0.4,1.3-0.9,1.8-1.6c0.5-0.7,0.8-1.4,1-2.2c0.2-0.8,0.3-1.7,0.3-2.5c0-0.8-0.1-1.7-0.3-2.5
	c-0.2-0.8-0.6-1.6-1-2.2c-0.5-0.7-1.1-1.2-1.8-1.6c-0.7-0.4-1.6-0.6-2.6-0.6c-1,0-1.9,0.2-2.6,0.6c-0.7,0.4-1.3,0.9-1.8,1.6
	c-0.5,0.7-0.8,1.4-1,2.2c-0.2,0.8-0.3,1.7-0.3,2.5C102.4,50.9,102.5,51.8,102.7,52.6z"/>
<path d="M124.7,58.5h-2.3v-6.9l-6.6-10h2.7l5.1,8.1l5-8.1h2.6l-6.5,10V58.5z"/>
<path d="M55.8,41.7v14.9h8.9v1.9H53.6V41.7H55.8z"/>
<g>
</g>
<g>
</g>
<g>
</g>
<g>
</g>
<g>
</g>
<g>
</g>
</svg>
