<?xml version="1.0" encoding="utf-8"?>
<!-- Generator: Adobe Illustrator 19.1.0, SVG Export Plug-In . SVG Version: 6.00 Build 0)  -->
<!DOCTYPE svg PUBLIC "-//W3C//DTD SVG 1.1//EN" "http://www.w3.org/Graphics/SVG/1.1/DTD/svg11.dtd">
<svg version="1.1" id="Layer_1" xmlns="http://www.w3.org/2000/svg" xmlns:xlink="http://www.w3.org/1999/xlink" x="0px" y="0px"
	 viewBox="0 0 334.5 90.7" style="enable-background:new 0 0 334.5 90.7;" xml:space="preserve">
<style type="text/css">
	.st0{fill:#6D6E71;}
	.st1{fill:#6CB33F;}
</style>
<g>
	<g>
		<g>
			<g>
				<path class="st0" d="M116.8,68.4c1.5,0,2.7,0.4,3.5,1.1c0.8,0.7,1.3,1.7,1.3,3c0,1-0.2,1.8-0.6,2.5c-0.4,0.7-1.1,1.2-2.1,1.5v0
					c0.5,0.1,0.8,0.2,1.1,0.4c0.3,0.2,0.5,0.4,0.7,0.7c0.2,0.3,0.3,0.6,0.4,1c0.1,0.4,0.1,0.7,0.2,1.1c0,0.4,0.1,0.8,0.1,1.2
					c0,0.4,0.1,0.8,0.1,1.2c0.1,0.4,0.1,0.7,0.3,1.1c0.1,0.3,0.3,0.6,0.5,0.9h-2.3c-0.1-0.2-0.2-0.4-0.3-0.7
					c-0.1-0.3-0.1-0.6-0.1-0.9c0-0.3,0-0.7,0-1.1c0-0.4-0.1-0.8-0.1-1.2c-0.1-0.4-0.1-0.7-0.2-1.1c-0.1-0.3-0.2-0.6-0.4-0.9
					c-0.2-0.3-0.4-0.5-0.7-0.6c-0.3-0.2-0.7-0.2-1.2-0.2h-5.1v6.7h-2.1V68.4H116.8z M117.2,75.6c0.4-0.1,0.8-0.2,1.2-0.4
					c0.3-0.2,0.6-0.5,0.8-0.9c0.2-0.4,0.3-0.8,0.3-1.4c0-0.8-0.2-1.4-0.7-1.9c-0.4-0.5-1.1-0.7-2.1-0.7h-5.2v5.5h4.3
					C116.3,75.7,116.8,75.6,117.2,75.6z"/>
				<path class="st0" d="M132.5,83.4c-0.8,0.6-1.9,1-3.2,1c-0.9,0-1.7-0.1-2.4-0.4c-0.7-0.3-1.2-0.7-1.7-1.2c-0.5-0.5-0.8-1.2-1-1.9
					c-0.2-0.7-0.4-1.5-0.4-2.4c0-0.9,0.1-1.7,0.4-2.4c0.3-0.7,0.6-1.3,1.1-1.9c0.5-0.5,1-0.9,1.7-1.2c0.7-0.3,1.4-0.4,2.1-0.4
					c1,0,1.8,0.2,2.5,0.6s1.2,0.9,1.6,1.6c0.4,0.6,0.7,1.3,0.8,2.1c0.2,0.8,0.2,1.5,0.2,2.2h-8.5c0,0.5,0,1,0.2,1.4
					c0.1,0.4,0.3,0.8,0.6,1.2c0.3,0.3,0.7,0.6,1.1,0.8c0.5,0.2,1,0.3,1.6,0.3c0.8,0,1.4-0.2,1.9-0.5c0.5-0.4,0.8-0.9,1-1.7h1.8
					C133.9,81.8,133.3,82.7,132.5,83.4z M132,76.1c-0.2-0.4-0.4-0.7-0.7-1c-0.3-0.3-0.6-0.5-1-0.7c-0.4-0.2-0.8-0.3-1.3-0.3
					c-0.5,0-0.9,0.1-1.3,0.3c-0.4,0.2-0.7,0.4-1,0.7c-0.3,0.3-0.5,0.6-0.7,1c-0.2,0.4-0.3,0.8-0.3,1.2h6.5
					C132.3,76.9,132.2,76.5,132,76.1z"/>
				<path class="st0" d="M138,81.6c0.2,0.3,0.4,0.5,0.7,0.7c0.3,0.2,0.6,0.3,1,0.4c0.4,0.1,0.7,0.1,1.1,0.1c0.3,0,0.6,0,0.9-0.1
					c0.3,0,0.6-0.1,0.9-0.2c0.3-0.1,0.5-0.3,0.7-0.5c0.2-0.2,0.3-0.5,0.3-0.9c0-0.5-0.2-0.8-0.5-1.1c-0.4-0.2-0.8-0.5-1.4-0.6
					c-0.5-0.2-1.1-0.3-1.8-0.4c-0.6-0.1-1.2-0.3-1.8-0.5c-0.5-0.2-1-0.5-1.4-1c-0.4-0.4-0.5-1-0.5-1.7c0-0.6,0.1-1.1,0.4-1.5
					c0.3-0.4,0.6-0.7,1-1c0.4-0.3,0.9-0.4,1.4-0.6c0.5-0.1,1-0.2,1.5-0.2c0.6,0,1.2,0.1,1.8,0.2c0.5,0.1,1,0.3,1.4,0.6
					c0.4,0.3,0.8,0.6,1,1.1c0.2,0.5,0.4,1,0.4,1.7h-1.9c0-0.4-0.1-0.7-0.3-0.9c-0.2-0.2-0.4-0.4-0.6-0.6c-0.2-0.1-0.5-0.3-0.8-0.3
					c-0.3-0.1-0.6-0.1-0.9-0.1c-0.3,0-0.6,0-0.8,0.1c-0.3,0-0.5,0.1-0.8,0.2c-0.2,0.1-0.4,0.3-0.6,0.4c-0.1,0.2-0.2,0.4-0.2,0.7
					c0,0.3,0.1,0.6,0.3,0.8c0.2,0.2,0.5,0.4,0.9,0.5c0.4,0.1,0.7,0.3,1.2,0.4c0.4,0.1,0.9,0.2,1.3,0.3c0.5,0.1,0.9,0.2,1.4,0.4
					c0.4,0.1,0.8,0.3,1.2,0.6c0.3,0.2,0.6,0.5,0.8,0.9c0.2,0.4,0.3,0.8,0.3,1.4c0,0.7-0.1,1.3-0.4,1.7c-0.3,0.5-0.7,0.8-1.1,1.1
					c-0.5,0.3-1,0.5-1.6,0.6c-0.6,0.1-1.2,0.2-1.7,0.2c-0.6,0-1.2-0.1-1.8-0.2c-0.6-0.1-1.1-0.3-1.5-0.6c-0.4-0.3-0.8-0.7-1.1-1.2
					c-0.3-0.5-0.4-1.1-0.4-1.8h1.9C137.7,80.9,137.8,81.3,138,81.6z"/>
				<path class="st0" d="M148,70.7v-2.3h1.9v2.3H148z M149.9,72.8v11.3H148V72.8H149.9z"/>
				<path class="st0" d="M161.4,84.1v-1.5h0c-0.3,0.6-0.8,1.1-1.4,1.4c-0.7,0.3-1.4,0.4-2.2,0.4c-0.9,0-1.6-0.2-2.3-0.5
					c-0.7-0.3-1.2-0.8-1.6-1.3c-0.4-0.5-0.8-1.2-1-1.9c-0.2-0.7-0.3-1.5-0.3-2.3c0-0.8,0.1-1.6,0.3-2.3c0.2-0.7,0.5-1.3,1-1.9
					c0.4-0.5,1-1,1.6-1.3c0.7-0.3,1.4-0.5,2.3-0.5c0.3,0,0.6,0,0.9,0.1s0.7,0.2,1,0.3c0.3,0.1,0.7,0.3,1,0.5
					c0.3,0.2,0.6,0.5,0.8,0.8h0v-5.8h1.9v15.7H161.4z M154.6,80.1c0.1,0.5,0.4,1,0.6,1.3c0.3,0.4,0.7,0.7,1.1,0.9
					c0.4,0.2,1,0.4,1.6,0.4c0.6,0,1.2-0.1,1.6-0.4c0.4-0.2,0.8-0.6,1.1-1c0.3-0.4,0.5-0.9,0.6-1.4c0.1-0.5,0.2-1,0.2-1.6
					c0-0.6-0.1-1.1-0.2-1.6c-0.1-0.5-0.3-1-0.6-1.4c-0.3-0.4-0.7-0.7-1.1-1c-0.5-0.2-1-0.4-1.6-0.4c-0.6,0-1.2,0.1-1.6,0.4
					c-0.4,0.2-0.8,0.6-1.1,1c-0.3,0.4-0.5,0.9-0.6,1.4c-0.1,0.5-0.2,1.1-0.2,1.6C154.4,79.1,154.5,79.6,154.6,80.1z"/>
				<path class="st0" d="M174.5,83.4c-0.8,0.6-1.9,1-3.2,1c-0.9,0-1.7-0.1-2.4-0.4c-0.7-0.3-1.2-0.7-1.7-1.2c-0.5-0.5-0.8-1.2-1-1.9
					c-0.2-0.7-0.4-1.5-0.4-2.4c0-0.9,0.1-1.7,0.4-2.4c0.3-0.7,0.6-1.3,1.1-1.9c0.5-0.5,1-0.9,1.7-1.2c0.7-0.3,1.4-0.4,2.1-0.4
					c1,0,1.8,0.2,2.5,0.6s1.2,0.9,1.6,1.6c0.4,0.6,0.7,1.3,0.8,2.1c0.2,0.8,0.2,1.5,0.2,2.2h-8.5c0,0.5,0,1,0.2,1.4
					c0.1,0.4,0.3,0.8,0.6,1.2c0.3,0.3,0.7,0.6,1.1,0.8c0.5,0.2,1,0.3,1.6,0.3c0.8,0,1.4-0.2,1.9-0.5c0.5-0.4,0.8-0.9,1-1.7h1.8
					C175.9,81.8,175.3,82.7,174.5,83.4z M174,76.1c-0.2-0.4-0.4-0.7-0.7-1c-0.3-0.3-0.6-0.5-1-0.7c-0.4-0.2-0.8-0.3-1.3-0.3
					c-0.5,0-0.9,0.1-1.3,0.3c-0.4,0.2-0.7,0.4-1,0.7c-0.3,0.3-0.5,0.6-0.7,1c-0.2,0.4-0.3,0.8-0.3,1.2h6.5
					C174.3,76.9,174.2,76.5,174,76.1z"/>
				<path class="st0" d="M180.3,72.8v1.8h0c0.8-1.4,2-2.1,3.7-2.1c0.7,0,1.4,0.1,1.9,0.3c0.5,0.2,0.9,0.5,1.2,0.9
					c0.3,0.4,0.5,0.8,0.6,1.3c0.1,0.5,0.2,1.1,0.2,1.7v7.5h-1.9v-7.7c0-0.7-0.2-1.3-0.6-1.7c-0.4-0.4-1-0.6-1.7-0.6
					c-0.6,0-1.1,0.1-1.5,0.3c-0.4,0.2-0.8,0.4-1,0.7c-0.3,0.3-0.5,0.7-0.6,1.1c-0.1,0.4-0.2,0.9-0.2,1.4v6.4h-1.9V72.8H180.3z"/>
				<path class="st0" d="M195.9,72.8v1.6h-2.3v7c0,0.2,0,0.4,0.1,0.5c0,0.1,0.1,0.2,0.2,0.3c0.1,0.1,0.2,0.1,0.4,0.1
					c0.2,0,0.4,0,0.7,0h0.9v1.6h-1.4c-0.5,0-0.9,0-1.2-0.1c-0.3-0.1-0.6-0.2-0.8-0.4c-0.2-0.2-0.4-0.4-0.5-0.7
					c-0.1-0.3-0.2-0.7-0.2-1.3v-7.2h-1.9v-1.6h1.9v-3.4h1.9v3.4H195.9z"/>
				<path class="st0" d="M198.4,70.7v-2.3h1.9v2.3H198.4z M200.3,72.8v11.3h-1.9V72.8H200.3z"/>
				<path class="st0" d="M212.2,84.3c-0.5,0-0.9-0.1-1.2-0.4c-0.3-0.3-0.4-0.7-0.4-1.3c-0.5,0.6-1.1,1.1-1.8,1.3
					c-0.7,0.3-1.4,0.4-2.2,0.4c-0.5,0-1-0.1-1.4-0.2c-0.5-0.1-0.9-0.3-1.2-0.5c-0.3-0.3-0.6-0.6-0.8-1c-0.2-0.4-0.3-0.9-0.3-1.5
					c0-0.6,0.1-1.2,0.3-1.6c0.2-0.4,0.5-0.7,0.9-1c0.4-0.3,0.8-0.4,1.2-0.6c0.5-0.1,0.9-0.2,1.4-0.3c0.5-0.1,1-0.2,1.5-0.2
					c0.5-0.1,0.9-0.1,1.2-0.2c0.4-0.1,0.6-0.2,0.8-0.4c0.2-0.2,0.3-0.5,0.3-0.8c0-0.4-0.1-0.7-0.2-1c-0.2-0.2-0.4-0.4-0.6-0.6
					c-0.2-0.1-0.5-0.2-0.8-0.3c-0.3,0-0.6-0.1-0.9-0.1c-0.8,0-1.4,0.2-2,0.5c-0.5,0.3-0.8,0.9-0.9,1.7h-1.9c0-0.7,0.2-1.3,0.4-1.8
					c0.3-0.5,0.6-0.9,1.1-1.2c0.4-0.3,0.9-0.5,1.5-0.6c0.6-0.1,1.2-0.2,1.8-0.2c0.5,0,1,0,1.5,0.1c0.5,0.1,1,0.2,1.4,0.4
					c0.4,0.2,0.7,0.5,1,1c0.2,0.4,0.4,0.9,0.4,1.6v5.8c0,0.4,0,0.8,0.1,1c0.1,0.2,0.2,0.3,0.5,0.3c0.2,0,0.4,0,0.6-0.1v1.4
					C213.2,84.3,212.8,84.3,212.2,84.3z M209.6,78.6c-0.4,0.1-0.8,0.1-1.2,0.2c-0.4,0.1-0.8,0.1-1.3,0.2c-0.4,0.1-0.8,0.2-1.1,0.3
					c-0.3,0.1-0.6,0.4-0.8,0.6c-0.2,0.3-0.3,0.6-0.3,1.1c0,0.3,0.1,0.6,0.2,0.8c0.1,0.2,0.3,0.4,0.5,0.5c0.2,0.1,0.4,0.2,0.7,0.3
					c0.3,0.1,0.5,0.1,0.8,0.1c0.6,0,1.1-0.1,1.6-0.3c0.4-0.2,0.8-0.4,1.1-0.6c0.3-0.3,0.5-0.5,0.6-0.8c0.1-0.3,0.2-0.6,0.2-0.8v-1.9
					C210.3,78.4,210,78.6,209.6,78.6z"/>
				<path class="st0" d="M217.6,68.4v15.7h-1.9V68.4H217.6z"/>
				<path class="st0" d="M234.1,68.4l6.1,15.7h-2.3l-1.7-4.7h-6.6l-1.8,4.7h-2.1l6.1-15.7H234.1z M235.6,77.6l-2.6-7.3h0l-2.7,7.3
					H235.6z"/>
				<path class="st0" d="M250.3,87.3c-0.8,0.9-2.2,1.4-4,1.4c-0.5,0-1.1-0.1-1.6-0.2c-0.5-0.1-1-0.3-1.5-0.6c-0.4-0.3-0.8-0.6-1.1-1
					c-0.3-0.4-0.5-0.9-0.5-1.6h1.9c0,0.3,0.1,0.6,0.3,0.9c0.2,0.2,0.4,0.4,0.7,0.6c0.3,0.1,0.6,0.3,0.9,0.3c0.3,0.1,0.7,0.1,1,0.1
					c0.6,0,1.1-0.1,1.6-0.3c0.4-0.2,0.8-0.5,1.1-0.9c0.3-0.4,0.5-0.8,0.6-1.3c0.1-0.5,0.2-1.1,0.2-1.7v-0.7h0
					c-0.3,0.7-0.8,1.2-1.5,1.5c-0.7,0.3-1.3,0.5-2.1,0.5c-0.8,0-1.6-0.2-2.2-0.5c-0.6-0.3-1.2-0.7-1.6-1.2c-0.4-0.5-0.7-1.1-1-1.8
					c-0.2-0.7-0.3-1.4-0.3-2.2c0-0.7,0.1-1.4,0.3-2.1c0.2-0.7,0.5-1.4,0.9-1.9c0.4-0.6,1-1.1,1.6-1.4c0.7-0.4,1.5-0.6,2.5-0.6
					c0.7,0,1.4,0.2,2,0.5c0.6,0.3,1.1,0.8,1.4,1.4h0v-1.6h1.8v10.4C251.6,85,251.2,86.4,250.3,87.3z M247.9,82.2
					c0.4-0.3,0.8-0.6,1-1c0.3-0.4,0.5-0.9,0.6-1.4c0.1-0.5,0.2-1.1,0.2-1.6c0-0.5-0.1-1-0.2-1.5c-0.1-0.5-0.3-0.9-0.6-1.3
					c-0.3-0.4-0.6-0.7-1-0.9c-0.4-0.2-0.9-0.4-1.5-0.4c-0.6,0-1.1,0.1-1.5,0.3c-0.4,0.2-0.8,0.5-1,0.9c-0.3,0.4-0.5,0.8-0.6,1.3
					c-0.1,0.5-0.2,1-0.2,1.6c0,0.5,0.1,1,0.2,1.5c0.1,0.5,0.3,1,0.5,1.4c0.2,0.4,0.6,0.8,1,1c0.4,0.3,0.9,0.4,1.5,0.4
					C247,82.6,247.5,82.5,247.9,82.2z"/>
				<path class="st0" d="M262.8,83.4c-0.8,0.6-1.9,1-3.2,1c-0.9,0-1.7-0.1-2.4-0.4c-0.7-0.3-1.2-0.7-1.7-1.2c-0.5-0.5-0.8-1.2-1-1.9
					c-0.2-0.7-0.4-1.5-0.4-2.4c0-0.9,0.1-1.7,0.4-2.4c0.3-0.7,0.6-1.3,1.1-1.9c0.5-0.5,1-0.9,1.7-1.2c0.7-0.3,1.4-0.4,2.1-0.4
					c1,0,1.8,0.2,2.5,0.6c0.7,0.4,1.2,0.9,1.6,1.6c0.4,0.6,0.7,1.3,0.8,2.1c0.2,0.8,0.2,1.5,0.2,2.2h-8.5c0,0.5,0,1,0.2,1.4
					c0.1,0.4,0.3,0.8,0.6,1.2c0.3,0.3,0.7,0.6,1.1,0.8c0.5,0.2,1,0.3,1.6,0.3c0.8,0,1.4-0.2,1.9-0.5c0.5-0.4,0.8-0.9,1-1.7h1.8
					C264.1,81.8,263.6,82.7,262.8,83.4z M262.3,76.1c-0.2-0.4-0.4-0.7-0.7-1c-0.3-0.3-0.6-0.5-1-0.7c-0.4-0.2-0.8-0.3-1.3-0.3
					c-0.5,0-0.9,0.1-1.3,0.3c-0.4,0.2-0.7,0.4-1,0.7c-0.3,0.3-0.5,0.6-0.7,1c-0.2,0.4-0.3,0.8-0.3,1.2h6.5
					C262.6,76.9,262.5,76.5,262.3,76.1z"/>
				<path class="st0" d="M275.1,84.1v-1.5h0c-0.3,0.6-0.8,1.1-1.4,1.4c-0.7,0.3-1.4,0.4-2.2,0.4c-0.9,0-1.6-0.2-2.3-0.5
					c-0.7-0.3-1.2-0.8-1.6-1.3c-0.4-0.5-0.8-1.2-1-1.9c-0.2-0.7-0.3-1.5-0.3-2.3c0-0.8,0.1-1.6,0.3-2.3c0.2-0.7,0.5-1.3,1-1.9
					c0.4-0.5,1-1,1.6-1.3c0.7-0.3,1.4-0.5,2.3-0.5c0.3,0,0.6,0,0.9,0.1c0.3,0.1,0.7,0.2,1,0.3c0.3,0.1,0.7,0.3,1,0.5
					c0.3,0.2,0.6,0.5,0.8,0.8h0v-5.8h1.9v15.7H275.1z M268.4,80.1c0.1,0.5,0.4,1,0.6,1.3c0.3,0.4,0.7,0.7,1.1,0.9s1,0.4,1.6,0.4
					c0.6,0,1.2-0.1,1.6-0.4c0.4-0.2,0.8-0.6,1.1-1c0.3-0.4,0.5-0.9,0.6-1.4c0.1-0.5,0.2-1,0.2-1.6c0-0.6-0.1-1.1-0.2-1.6
					c-0.1-0.5-0.3-1-0.6-1.4c-0.3-0.4-0.7-0.7-1.1-1c-0.5-0.2-1-0.4-1.6-0.4c-0.6,0-1.2,0.1-1.6,0.4c-0.4,0.2-0.8,0.6-1.1,1
					c-0.3,0.4-0.5,0.9-0.6,1.4c-0.1,0.5-0.2,1.1-0.2,1.6C268.2,79.1,268.3,79.6,268.4,80.1z"/>
				<path class="st0" d="M296.4,70.7c-0.8-0.6-1.7-0.8-2.8-0.8c-0.9,0-1.7,0.2-2.4,0.5c-0.7,0.4-1.2,0.8-1.6,1.4
					c-0.4,0.6-0.8,1.3-1,2c-0.2,0.8-0.3,1.6-0.3,2.4c0,0.9,0.1,1.7,0.3,2.5c0.2,0.8,0.5,1.5,1,2.1c0.4,0.6,1,1.1,1.7,1.4
					c0.7,0.4,1.5,0.5,2.4,0.5c0.7,0,1.3-0.1,1.8-0.3c0.5-0.2,1-0.5,1.4-0.9c0.4-0.4,0.7-0.9,0.9-1.4c0.2-0.6,0.4-1.2,0.4-1.8h2.1
					c-0.2,2-0.9,3.5-2,4.6c-1.2,1.1-2.7,1.6-4.7,1.6c-1.2,0-2.3-0.2-3.2-0.6s-1.7-1-2.3-1.7c-0.6-0.7-1-1.6-1.3-2.6
					c-0.3-1-0.5-2.1-0.5-3.2c0-1.1,0.2-2.2,0.5-3.2c0.3-1,0.8-1.9,1.4-2.6c0.6-0.7,1.4-1.3,2.3-1.8c0.9-0.4,2-0.6,3.2-0.6
					c0.8,0,1.6,0.1,2.3,0.3c0.7,0.2,1.4,0.5,2,1c0.6,0.4,1,1,1.4,1.6c0.4,0.6,0.6,1.4,0.7,2.2h-2.1C297.7,72,297.2,71.2,296.4,70.7z
					"/>
				<path class="st0" d="M311.5,84.3c-0.5,0-0.9-0.1-1.2-0.4c-0.3-0.3-0.4-0.7-0.4-1.3c-0.5,0.6-1.1,1.1-1.8,1.3
					c-0.7,0.3-1.4,0.4-2.2,0.4c-0.5,0-1-0.1-1.4-0.2c-0.5-0.1-0.9-0.3-1.2-0.5c-0.3-0.3-0.6-0.6-0.8-1c-0.2-0.4-0.3-0.9-0.3-1.5
					c0-0.6,0.1-1.2,0.3-1.6c0.2-0.4,0.5-0.7,0.9-1c0.4-0.3,0.8-0.4,1.2-0.6c0.5-0.1,0.9-0.2,1.4-0.3c0.5-0.1,1-0.2,1.5-0.2
					c0.5-0.1,0.9-0.1,1.2-0.2c0.4-0.1,0.6-0.2,0.8-0.4c0.2-0.2,0.3-0.5,0.3-0.8c0-0.4-0.1-0.7-0.2-1c-0.2-0.2-0.4-0.4-0.6-0.6
					c-0.2-0.1-0.5-0.2-0.8-0.3c-0.3,0-0.6-0.1-0.9-0.1c-0.8,0-1.4,0.2-2,0.5c-0.5,0.3-0.8,0.9-0.9,1.7h-1.9c0-0.7,0.2-1.3,0.4-1.8
					c0.3-0.5,0.6-0.9,1.1-1.2c0.4-0.3,0.9-0.5,1.5-0.6c0.6-0.1,1.2-0.2,1.8-0.2c0.5,0,1,0,1.5,0.1c0.5,0.1,1,0.2,1.4,0.4
					c0.4,0.2,0.7,0.5,1,1c0.2,0.4,0.4,0.9,0.4,1.6v5.8c0,0.4,0,0.8,0.1,1c0.1,0.2,0.2,0.3,0.5,0.3c0.2,0,0.4,0,0.6-0.1v1.4
					C312.5,84.3,312.1,84.3,311.5,84.3z M308.9,78.6c-0.4,0.1-0.8,0.1-1.2,0.2c-0.4,0.1-0.8,0.1-1.3,0.2c-0.4,0.1-0.8,0.2-1.1,0.3
					c-0.3,0.1-0.6,0.4-0.8,0.6c-0.2,0.3-0.3,0.6-0.3,1.1c0,0.3,0.1,0.6,0.2,0.8c0.1,0.2,0.3,0.4,0.5,0.5c0.2,0.1,0.4,0.2,0.7,0.3
					c0.3,0.1,0.5,0.1,0.8,0.1c0.6,0,1.1-0.1,1.6-0.3c0.4-0.2,0.8-0.4,1.1-0.6c0.3-0.3,0.5-0.5,0.6-0.8c0.1-0.3,0.2-0.6,0.2-0.8v-1.9
					C309.6,78.4,309.3,78.6,308.9,78.6z"/>
				<path class="st0" d="M316.6,72.8v2.4h0c0.5-0.9,1-1.6,1.7-2c0.7-0.4,1.5-0.6,2.5-0.6v2c-0.7,0-1.4,0.1-1.9,0.3
					c-0.5,0.2-1,0.5-1.3,0.9c-0.3,0.4-0.6,0.9-0.7,1.4c-0.1,0.6-0.2,1.2-0.2,1.9v5h-1.9V72.8H316.6z"/>
				<path class="st0" d="M330.2,83.4c-0.8,0.6-1.9,1-3.2,1c-0.9,0-1.7-0.1-2.4-0.4c-0.7-0.3-1.2-0.7-1.7-1.2c-0.5-0.5-0.8-1.2-1-1.9
					c-0.2-0.7-0.4-1.5-0.4-2.4c0-0.9,0.1-1.7,0.4-2.4c0.3-0.7,0.6-1.3,1.1-1.9c0.5-0.5,1-0.9,1.7-1.2c0.7-0.3,1.4-0.4,2.1-0.4
					c1,0,1.8,0.2,2.5,0.6c0.7,0.4,1.2,0.9,1.6,1.6c0.4,0.6,0.7,1.3,0.8,2.1c0.2,0.8,0.2,1.5,0.2,2.2h-8.5c0,0.5,0,1,0.2,1.4
					c0.1,0.4,0.3,0.8,0.6,1.2c0.3,0.3,0.7,0.6,1.1,0.8c0.5,0.2,1,0.3,1.6,0.3c0.8,0,1.4-0.2,1.9-0.5c0.5-0.4,0.8-0.9,1-1.7h1.8
					C331.6,81.8,331,82.7,330.2,83.4z M329.7,76.1c-0.2-0.4-0.4-0.7-0.7-1c-0.3-0.3-0.6-0.5-1-0.7c-0.4-0.2-0.8-0.3-1.3-0.3
					c-0.5,0-0.9,0.1-1.3,0.3c-0.4,0.2-0.7,0.4-1,0.7c-0.3,0.3-0.5,0.6-0.7,1c-0.2,0.4-0.3,0.8-0.3,1.2h6.5
					C330,76.9,329.9,76.5,329.7,76.1z"/>
			</g>
		</g>
		<g>
			<path d="M8.3,68.4c0.3,0,0.7,0,1.1,0c0.4,0,0.8,0,1.2,0.1c0.4,0,0.7,0.1,1.1,0.2c0.3,0.1,0.6,0.2,0.8,0.3
				c0.5,0.3,0.9,0.7,1.3,1.3c0.4,0.5,0.5,1.2,0.5,2c0,0.8-0.2,1.6-0.6,2.2c-0.4,0.6-1,1.1-1.7,1.3v0c1,0.2,1.7,0.6,2.2,1.3
				c0.5,0.7,0.8,1.5,0.8,2.5c0,0.6-0.1,1.1-0.3,1.7c-0.2,0.5-0.5,1-0.9,1.4c-0.4,0.4-0.9,0.8-1.5,1c-0.6,0.3-1.3,0.4-2.1,0.4H2.7
				V68.4H8.3z M8.9,75.2c1.2,0,2-0.2,2.6-0.6c0.5-0.4,0.8-1,0.8-1.9c0-0.6-0.1-1-0.3-1.3c-0.2-0.3-0.4-0.6-0.7-0.7
				c-0.3-0.2-0.7-0.3-1.1-0.3c-0.4-0.1-0.8-0.1-1.3-0.1H4.7v5H8.9z M10,82.4c0.9,0,1.6-0.2,2.2-0.7c0.5-0.5,0.8-1.2,0.8-2.1
				c0-0.5-0.1-0.9-0.3-1.3c-0.2-0.3-0.4-0.6-0.8-0.8c-0.3-0.2-0.7-0.3-1.1-0.4c-0.4-0.1-0.8-0.1-1.3-0.1H4.7v5.4H10z"/>
			<path d="M24.6,68.4l6.1,15.7h-2.3l-1.7-4.7h-6.6l-1.8,4.7h-2.1l6.1-15.7H24.6z M26,77.6l-2.6-7.3h0l-2.7,7.3H26z"/>
			<path d="M34.6,68.4v13.9h8.3v1.8H32.6V68.4H34.6z"/>
			<path d="M48,68.4l4.9,13.2l5-13.2h2.9v15.7h-2v-13h0l-4.9,13H52l-4.9-13h0v13h-2V68.4H48z"/>
			<path d="M71.1,68.4l6.1,15.7h-2.3l-1.7-4.7h-6.6l-1.8,4.7h-2.1l6.1-15.7H71.1z M72.5,77.6l-2.6-7.3h0l-2.7,7.3H72.5z"/>
			<path d="M81.3,68.4v15.7h-2.1V68.4H81.3z"/>
			<path d="M87.3,68.4l8.3,12.7h0V68.4h2v15.7h-2.3l-8.2-12.6h0v12.6h-2V68.4H87.3z"/>
		</g>
	</g>
	<rect x="2.1" y="58.7" class="st0" width="329" height="1"/>
	<g>
		<path class="st1" d="M36.1,49.9h-4.3L15.6,6.7h-0.1v34.8c0,3.3,0.9,4.6,3.5,4.6H24v3.8H2.3v-3.8h5.1c2.5,0,3.5-1.3,3.5-4.6V9.9
			c0-2.9-0.9-4.1-3.5-4.1h-5V2h18.3l14.4,37.8L50.3,2h17.6v3.8h-2.6c-4.3,0-5.8,0.6-5.8,4.2v31.5c0,3.3,0.9,4.6,3.5,4.6h5v3.8H44
			v-3.8h5c2.5,0,3.5-1.2,3.5-3.5V8.3h-0.1L36.1,49.9z"/>
		<path class="st1" d="M107.9,33c0,10.4-7,18-18.6,18c-11.6,0-18.6-7.6-18.6-18c0-10.4,7-18,18.6-18C100.9,15,107.9,22.6,107.9,33z
			 M77.5,33c0,7.8,2.8,14.6,11.8,14.6c9,0,11.8-6.8,11.8-14.6c0-7.8-2.8-14.6-11.8-14.6C80.3,18.4,77.5,25.2,77.5,33z"/>
		<path class="st1" d="M124.3,22.2h0.1c2.9-4.5,7.2-7.2,12.8-7.2c7.6,0,11.6,5,11.6,12.5v15.7c0,2.2,0.5,3.3,2.9,3.3h4.3v3.4h-20.2
			v-3.4h4c2.4,0,2.9-1.1,2.9-3.3V27c0-5-1.9-7.9-7.4-7.9c-6.9,0-10.9,5.5-10.9,11.3v12.8c0,2.2,0.5,3.3,2.9,3.3h4.4v3.4h-21v-3.4
			h4.7c2.4,0,2.9-1.1,2.9-3.3V22.8c0-2.2-0.5-3.3-2.9-3.3h-4.7v-3.4h13.6V22.2z"/>
		<path class="st1" d="M159.3,16.1c6.8-0.9,8.1-8.2,8.5-14.1h3.8v14.1h10.3v3.4h-10.3v23.8c0,3,1.2,4.3,3.6,4.3c3,0,5.1-2.9,5.1-7.1
			v-4.2h3.4v3.1c0,7-2.1,11.6-9.8,11.6c-6.4,0-8.4-4.2-8.4-8.2V19.5h-6.1V16.1z"/>
		<path class="st1" d="M201.1,23.4h0.1c1.8-5,6.1-8.4,10.3-8.4c4.9,0,8.2,2.7,8.2,7.7c0,2.7-1.2,4.8-4,4.8c-1.9,0-4-1.2-4-3.3
			c0-2.6,1.7-3.8,4.3-3.8c-0.4-1.7-2.6-2-4.2-2c-6.8,0-10.3,7.9-10.3,15v9.7c0,2.2,1.3,3.3,3.6,3.3h3.9v3.4h-21.2v-3.4h4.7
			c2.4,0,2.9-1.1,2.9-3.3V22.8c0-2.2-0.5-3.3-2.9-3.3h-5v-3.4h13.7V23.4z"/>
		<path class="st1" d="M260.3,33c0,10.4-7,18-18.6,18c-11.6,0-18.6-7.6-18.6-18c0-10.4,7-18,18.6-18C253.3,15,260.3,22.6,260.3,33z
			 M229.9,33c0,7.8,2.8,14.6,11.8,14.6c9,0,11.8-6.8,11.8-14.6c0-7.8-2.8-14.6-11.8-14.6C232.7,18.4,229.9,25.2,229.9,33z"/>
		<path class="st1" d="M268.1,36.2c1.1,6.9,6.6,11.3,13.4,11.3c4.3,0,7.5-2.2,7.5-5.6c0-9.3-24.3-2.2-24.3-17c0-7.2,6.6-10,12.8-10
			c4,0,8.2,1.4,11.2,4.1l1.3-3.4h3.2V29H290c-0.8-6.4-6.3-10.6-12.2-10.6c-3.2,0-6.9,1.1-6.9,5.8c0,8.6,24.3,2.2,24.3,16.3
			c0,7.6-6.8,10.5-13.4,10.5c-4.5,0-9-1.4-12.3-4.5l-1.4,3.8h-3.8v-14H268.1z"/>
		<path class="st1" d="M306.3,33.4c0,7.4,1.6,14.1,10.1,14.1c5.8,0,9.3-3,10.8-8.7h4.2c-1.6,7.8-6.6,12.1-15.1,12.1
			c-10.7,0-16.9-6.1-16.9-18c0-11.8,6.2-18,16.9-18c11.6,0,15.4,8.2,16,18.4H306.3z M325.5,30c0-6.3-2.8-11.6-9.4-11.6
			c-6.7,0-9.8,5.3-9.8,11.6H325.5z"/>
	</g>
</g>
<g>
</g>
<g>
</g>
<g>
</g>
<g>
</g>
<g>
</g>
<g>
</g>
</svg>
