<?xml version="1.0" encoding="utf-8"?>
<!-- Generator: Adobe Illustrator 19.1.0, SVG Export Plug-In . SVG Version: 6.00 Build 0)  -->
<!DOCTYPE svg PUBLIC "-//W3C//DTD SVG 1.1//EN" "http://www.w3.org/Graphics/SVG/1.1/DTD/svg11.dtd">
<svg version="1.1" id="Layer_1" xmlns="http://www.w3.org/2000/svg" xmlns:xlink="http://www.w3.org/1999/xlink" x="0px" y="0px"
	 viewBox="0 0 382.7 76.5" style="enable-background:new 0 0 382.7 76.5;" xml:space="preserve">
<style type="text/css">
	.st0{fill:#6D6E71;}
	.st1{fill:#6CB33F;}
</style>
<g>
	<rect x="1.3" y="45.8" class="st0" width="380.1" height="1"/>
	<g>
		<path class="st1" d="M26.3,37h-3.1L11.5,5.7h-0.1v25.2c0,2.4,0.7,3.3,2.5,3.3h3.7V37H1.8v-2.7h3.7c1.8,0,2.5-0.9,2.5-3.3V8
			c0-2.1-0.6-3-2.5-3H1.9V2.3h13.3l10.5,27.4l11-27.4h12.8V5h-1.9c-3.1,0-4.2,0.4-4.2,3v22.9c0,2.4,0.7,3.3,2.5,3.3h3.6V37H32.1
			v-2.7h3.6c1.8,0,2.5-0.8,2.5-2.5V6.9h-0.1L26.3,37z"/>
		<path class="st1" d="M78.3,24.8c0,7.5-5.1,13-13.5,13c-8.4,0-13.5-5.5-13.5-13c0-7.5,5.1-13,13.5-13
			C73.3,11.7,78.3,17.2,78.3,24.8z M56.3,24.8c0,5.7,2,10.6,8.5,10.6c6.5,0,8.5-4.9,8.5-10.6c0-5.7-2-10.6-8.5-10.6
			C58.3,14.2,56.3,19.1,56.3,24.8z"/>
		<path class="st1" d="M103.4,32.6h-0.1c-2.1,3.3-5.2,5.2-9.3,5.2c-5.5,0-8.4-2.5-8.4-8.2V17.4c0-1.6-0.4-2.4-2.1-2.4h-3.1v-2.5H90
			v16.6c0,3.6,1.4,5.8,5.4,5.8c5,0,7.9-4,7.9-8.2v-9.3c0-1.6-0.4-2.4-2.1-2.4h-3.2v-2.5h9.7v19.6c0,1.6,0.4,2.4,2.1,2.4h3.4V37h-9.9
			V32.6z"/>
		<path class="st1" d="M125.2,17h0.1c2.1-3.3,5.2-5.2,9.3-5.2c5.5,0,8.4,3.6,8.4,9.1v11.4c0,1.6,0.4,2.4,2.1,2.4h3.1V37h-14.7v-2.5
			h2.9c1.7,0,2.1-0.8,2.1-2.4V20.4c0-3.6-1.4-5.8-5.4-5.8c-5,0-7.9,4-7.9,8.2v9.3c0,1.6,0.4,2.4,2.1,2.4h3.2V37h-15.2v-2.5h3.4
			c1.7,0,2.1-0.8,2.1-2.4V17.4c0-1.6-0.4-2.4-2.1-2.4h-3.4v-2.5h9.9V17z"/>
		<path class="st1" d="M150.5,12.5c4.9-0.7,5.9-5.9,6.2-10.2h2.7v10.2h7.4V15h-7.4v17.3c0,2.1,0.8,3.1,2.6,3.1
			c2.2,0,3.7-2.1,3.7-5.1v-3h2.5v2.2c0,5.1-1.5,8.4-7.1,8.4c-4.6,0-6.1-3-6.1-6V15h-4.4V12.5z"/>
		<path class="st1" d="M191.8,32.6c0,1.6,0.4,2.8,1.4,2.8c2.2,0,2.5-2.9,2.5-4.4v-2.2h2.5v1.5c0,5.5-1.9,7.6-5.9,7.6
			c-2.6,0-4.2-1.6-4.6-4.1c-2.6,2.8-5.5,4.1-9.3,4.1c-4.2,0-7.7-1.9-7.7-6.5c0-6.8,9.4-6.7,14.7-9.2c1.6-0.8,2-1.8,2-3.3
			c0-3-1.3-4.5-5.9-4.5c-2,0-4.6,0.3-6.1,2c1.6,0.3,2.4,1.1,2.4,2.7c0,2-1.7,2.8-3.1,2.8c-1.8,0-2.7-1.6-2.7-3.7
			c0-4.4,6-6.2,9.9-6.2c6,0,9.9,1.8,9.9,8.6V32.6z M187.4,23.7c-2.2,1.3-4.7,1.8-7.7,3.1c-2.8,1.2-4,2.4-4,4.2
			c0,2.7,1.5,4.3,4.1,4.3c3.5,0,7.6-3.2,7.6-6.9V23.7z"/>
		<path class="st1" d="M209.6,32.1c0,1.6,0.4,2.4,2.1,2.4h3.3V37h-15.4v-2.5h3.4c1.7,0,2.1-0.8,2.1-2.4V17.4c0-1.6-0.4-2.4-2.1-2.4
			h-3.4v-2.5h9.9V32.1z M206.6,7.5c-1.6,0-2.8-1.3-2.8-2.8c0-1.5,1.3-2.8,2.8-2.8c1.5,0,2.8,1.3,2.8,2.8
			C209.5,6.2,208.1,7.5,206.6,7.5z"/>
		<path class="st1" d="M226.9,17h0.1c2.1-3.3,5.2-5.2,9.3-5.2c5.5,0,8.4,3.6,8.4,9.1v11.4c0,1.6,0.4,2.4,2.1,2.4h3.1V37h-14.7v-2.5
			h2.9c1.7,0,2.1-0.8,2.1-2.4V20.4c0-3.6-1.4-5.8-5.4-5.8c-5,0-7.9,4-7.9,8.2v9.3c0,1.6,0.4,2.4,2.1,2.4h3.2V37H217v-2.5h3.4
			c1.7,0,2.1-0.8,2.1-2.4V17.4c0-1.6-0.4-2.4-2.1-2.4H217v-2.5h9.9V17z"/>
		<path class="st1" d="M257.7,2.3h17V5H271c-0.9,0-2.1,0.3-2.1,1.4c0,0.7,0.4,1.4,0.6,2.1l8,22.7h0.1L286,8.1
			c0.2-0.4,0.4-1.3,0.4-1.6c0-1-1.4-1.5-2.2-1.5h-3.6V2.3h15.2V5h-2.7c-1.6,0-2.8,0.7-3.4,2.3l-11.2,29.9h-4.1L263.7,8
			C263,6.1,262.1,5,260,5h-2.3V2.3z"/>
		<path class="st1" d="M305.2,32.1c0,1.6,0.4,2.4,2.1,2.4h3.3V37h-15.4v-2.5h3.4c1.7,0,2.1-0.8,2.1-2.4V17.4c0-1.6-0.4-2.4-2.1-2.4
			h-3.4v-2.5h9.9V32.1z M302.3,7.5c-1.6,0-2.8-1.3-2.8-2.8c0-1.5,1.3-2.8,2.8-2.8c1.5,0,2.8,1.3,2.8,2.8
			C305.1,6.2,303.8,7.5,302.3,7.5z"/>
		<path class="st1" d="M317.8,25.1c0,5.3,1.2,10.3,7.3,10.3c4.2,0,6.7-2.2,7.8-6.3h3c-1.2,5.7-4.8,8.7-10.9,8.7
			c-7.7,0-12.2-4.4-12.2-13c0-8.6,4.5-13,12.2-13c8.4,0,11.1,5.9,11.6,13.3H317.8z M331.7,22.6c0-4.6-2-8.4-6.8-8.4
			c-4.9,0-7.1,3.9-7.1,8.4H331.7z"/>
		<path class="st1" d="M338.7,12.5h11.9V15h-1.9c-1.3,0-1.7,0.3-1.7,1c0,0.6,0.2,1,0.5,1.7l5.2,14h0.1l5.6-13.7
			c-0.7-1.6-1.8-2.9-3.2-2.9h-1.4v-2.5h12.3V15h-2.1c-1.5,0-1.9,0.3-1.9,0.9c0,0.6,0.4,1.1,0.6,1.9l5.1,14.2h0.1l5.3-14.3
			c0.3-0.7,0.4-1.1,0.4-1.7c0-0.7-1.4-1-2.9-1h-1v-2.5h10.9V15h-0.8c-1.7,0-2.7,1-3.2,2.5l-7.9,19.8h-3L359.5,22l-6,15.2h-2.9
			l-8.3-20.6c-0.5-1.2-1.3-1.7-3-1.7h-0.6V12.5z"/>
	</g>
	<g>
		<g>
			<g>
				<path class="st0" d="M177.4,55.6c1.4,0,2.5,0.3,3.3,1c0.8,0.7,1.2,1.6,1.2,2.8c0,0.9-0.2,1.7-0.6,2.4c-0.4,0.7-1.1,1.1-2,1.4v0
					c0.4,0.1,0.8,0.2,1,0.4c0.3,0.2,0.5,0.4,0.6,0.7c0.2,0.3,0.3,0.6,0.4,0.9c0.1,0.3,0.1,0.7,0.2,1c0,0.4,0,0.7,0.1,1.1
					c0,0.4,0,0.7,0.1,1.1c0.1,0.4,0.1,0.7,0.2,1c0.1,0.3,0.3,0.6,0.5,0.9h-2.2c-0.1-0.2-0.2-0.4-0.3-0.6c0-0.3-0.1-0.6-0.1-0.9
					c0-0.3,0-0.7,0-1c0-0.4-0.1-0.7-0.1-1.1c-0.1-0.4-0.1-0.7-0.2-1c-0.1-0.3-0.2-0.6-0.4-0.8c-0.2-0.2-0.4-0.4-0.7-0.6
					c-0.3-0.1-0.7-0.2-1.2-0.2h-4.8v6.3h-2V55.6H177.4z M177.8,62.3c0.4-0.1,0.8-0.2,1.1-0.4c0.3-0.2,0.6-0.5,0.7-0.8
					c0.2-0.3,0.3-0.8,0.3-1.3c0-0.7-0.2-1.4-0.6-1.8c-0.4-0.5-1.1-0.7-2-0.7h-4.9v5.2h4.1C177,62.4,177.4,62.4,177.8,62.3z"/>
				<path class="st0" d="M192.3,69.7c-0.8,0.6-1.8,0.9-3,0.9c-0.9,0-1.6-0.1-2.2-0.4c-0.6-0.3-1.2-0.7-1.6-1.2
					c-0.4-0.5-0.7-1.1-1-1.8c-0.2-0.7-0.3-1.4-0.4-2.3c0-0.8,0.1-1.6,0.4-2.2c0.2-0.7,0.6-1.3,1-1.8c0.4-0.5,1-0.9,1.6-1.2
					c0.6-0.3,1.3-0.4,2-0.4c1,0,1.7,0.2,2.4,0.6c0.6,0.4,1.1,0.9,1.5,1.5c0.4,0.6,0.6,1.3,0.8,2c0.1,0.7,0.2,1.4,0.2,2h-8
					c0,0.5,0,0.9,0.2,1.3c0.1,0.4,0.3,0.8,0.6,1.1c0.3,0.3,0.6,0.6,1.1,0.8c0.4,0.2,0.9,0.3,1.5,0.3c0.7,0,1.4-0.2,1.8-0.5
					c0.5-0.3,0.8-0.9,0.9-1.6h1.7C193.6,68.2,193.1,69.1,192.3,69.7z M191.8,62.8c-0.2-0.4-0.4-0.7-0.6-1c-0.3-0.3-0.6-0.5-1-0.6
					c-0.4-0.2-0.8-0.2-1.2-0.2c-0.5,0-0.9,0.1-1.2,0.2c-0.4,0.2-0.7,0.4-0.9,0.7c-0.3,0.3-0.5,0.6-0.6,1c-0.2,0.4-0.2,0.8-0.3,1.2
					h6.1C192.1,63.6,192,63.2,191.8,62.8z"/>
				<path class="st0" d="M197.4,68c0.2,0.3,0.4,0.5,0.7,0.6c0.3,0.2,0.6,0.3,0.9,0.3c0.3,0.1,0.7,0.1,1,0.1c0.3,0,0.6,0,0.9-0.1
					c0.3,0,0.6-0.1,0.8-0.2c0.3-0.1,0.5-0.3,0.6-0.5c0.2-0.2,0.2-0.5,0.2-0.8c0-0.5-0.2-0.8-0.5-1c-0.3-0.2-0.8-0.4-1.3-0.6
					c-0.5-0.1-1.1-0.3-1.7-0.4c-0.6-0.1-1.2-0.3-1.7-0.5c-0.5-0.2-0.9-0.5-1.3-0.9c-0.3-0.4-0.5-0.9-0.5-1.6c0-0.5,0.1-1,0.4-1.4
					c0.2-0.4,0.6-0.7,0.9-0.9c0.4-0.2,0.8-0.4,1.3-0.5c0.5-0.1,0.9-0.2,1.4-0.2c0.6,0,1.2,0.1,1.7,0.2c0.5,0.1,1,0.3,1.4,0.5
					c0.4,0.3,0.7,0.6,0.9,1c0.2,0.4,0.4,1,0.4,1.6h-1.8c0-0.3-0.1-0.6-0.3-0.9c-0.2-0.2-0.3-0.4-0.6-0.5c-0.2-0.1-0.5-0.2-0.8-0.3
					c-0.3-0.1-0.6-0.1-0.9-0.1c-0.3,0-0.5,0-0.8,0.1c-0.3,0-0.5,0.1-0.7,0.2s-0.4,0.2-0.5,0.4c-0.1,0.2-0.2,0.4-0.2,0.7
					c0,0.3,0.1,0.6,0.3,0.8c0.2,0.2,0.5,0.4,0.8,0.5c0.3,0.1,0.7,0.2,1.1,0.3c0.4,0.1,0.8,0.2,1.2,0.3c0.4,0.1,0.9,0.2,1.3,0.4
					c0.4,0.1,0.8,0.3,1.1,0.5c0.3,0.2,0.6,0.5,0.8,0.9c0.2,0.3,0.3,0.8,0.3,1.3c0,0.6-0.1,1.2-0.4,1.6c-0.3,0.4-0.6,0.8-1.1,1
					c-0.4,0.3-0.9,0.4-1.5,0.5c-0.5,0.1-1.1,0.2-1.6,0.2c-0.6,0-1.2-0.1-1.7-0.2c-0.5-0.1-1-0.3-1.4-0.6c-0.4-0.3-0.7-0.7-1-1.1
					c-0.2-0.5-0.4-1-0.4-1.7h1.8C197.2,67.4,197.3,67.7,197.4,68z"/>
				<path class="st0" d="M206.9,57.7v-2.2h1.8v2.2H206.9z M208.6,59.7v10.7h-1.8V59.7H208.6z"/>
				<path class="st0" d="M219.5,70.4v-1.4h0c-0.3,0.6-0.7,1-1.4,1.3c-0.6,0.3-1.3,0.4-2,0.4c-0.8,0-1.5-0.2-2.2-0.5
					c-0.6-0.3-1.1-0.7-1.5-1.2c-0.4-0.5-0.7-1.1-0.9-1.8c-0.2-0.7-0.3-1.4-0.3-2.2c0-0.8,0.1-1.5,0.3-2.2c0.2-0.7,0.5-1.3,0.9-1.8
					c0.4-0.5,0.9-0.9,1.5-1.2c0.6-0.3,1.3-0.4,2.1-0.4c0.3,0,0.6,0,0.9,0.1c0.3,0.1,0.6,0.1,1,0.3c0.3,0.1,0.6,0.3,0.9,0.5
					c0.3,0.2,0.5,0.5,0.7,0.8h0v-5.5h1.8v14.8H219.5z M213.2,66.6c0.1,0.5,0.3,0.9,0.6,1.3c0.3,0.4,0.6,0.7,1,0.9
					c0.4,0.2,0.9,0.3,1.5,0.3c0.6,0,1.1-0.1,1.5-0.4c0.4-0.2,0.8-0.5,1-0.9c0.3-0.4,0.5-0.8,0.6-1.3c0.1-0.5,0.2-1,0.2-1.5
					c0-0.5-0.1-1-0.2-1.5c-0.1-0.5-0.3-0.9-0.6-1.3c-0.3-0.4-0.6-0.7-1-0.9c-0.4-0.2-0.9-0.3-1.6-0.3c-0.6,0-1.1,0.1-1.5,0.4
					c-0.4,0.2-0.7,0.5-1,0.9c-0.2,0.4-0.4,0.8-0.5,1.3c-0.1,0.5-0.2,1-0.2,1.5C213,65.6,213,66.1,213.2,66.6z"/>
				<path class="st0" d="M231.8,69.7c-0.8,0.6-1.8,0.9-3,0.9c-0.9,0-1.6-0.1-2.2-0.4c-0.6-0.3-1.2-0.7-1.6-1.2
					c-0.4-0.5-0.7-1.1-1-1.8c-0.2-0.7-0.3-1.4-0.4-2.3c0-0.8,0.1-1.6,0.4-2.2c0.2-0.7,0.6-1.3,1-1.8c0.4-0.5,1-0.9,1.6-1.2
					c0.6-0.3,1.3-0.4,2-0.4c1,0,1.7,0.2,2.4,0.6c0.6,0.4,1.1,0.9,1.5,1.5c0.4,0.6,0.6,1.3,0.8,2c0.1,0.7,0.2,1.4,0.2,2h-8
					c0,0.5,0,0.9,0.2,1.3c0.1,0.4,0.3,0.8,0.6,1.1c0.3,0.3,0.6,0.6,1.1,0.8c0.4,0.2,0.9,0.3,1.5,0.3c0.7,0,1.4-0.2,1.8-0.5
					c0.5-0.3,0.8-0.9,0.9-1.6h1.7C233.2,68.2,232.6,69.1,231.8,69.7z M231.4,62.8c-0.2-0.4-0.4-0.7-0.6-1c-0.3-0.3-0.6-0.5-1-0.6
					c-0.4-0.2-0.8-0.2-1.2-0.2c-0.5,0-0.9,0.1-1.2,0.2c-0.4,0.2-0.7,0.4-0.9,0.7c-0.3,0.3-0.5,0.6-0.6,1c-0.2,0.4-0.2,0.8-0.3,1.2
					h6.1C231.7,63.6,231.6,63.2,231.4,62.8z"/>
				<path class="st0" d="M237.3,59.7v1.7h0c0.7-1.3,1.9-1.9,3.5-1.9c0.7,0,1.3,0.1,1.8,0.3c0.5,0.2,0.8,0.5,1.1,0.8
					c0.3,0.3,0.5,0.8,0.6,1.2c0.1,0.5,0.2,1,0.2,1.6v7h-1.8v-7.2c0-0.7-0.2-1.2-0.6-1.6c-0.4-0.4-0.9-0.6-1.6-0.6
					c-0.5,0-1,0.1-1.4,0.2c-0.4,0.2-0.7,0.4-1,0.7c-0.3,0.3-0.5,0.7-0.6,1.1c-0.1,0.4-0.2,0.9-0.2,1.3v6h-1.8V59.7H237.3z"/>
				<path class="st0" d="M252.1,59.7v1.6H250v6.6c0,0.2,0,0.4,0.1,0.5c0,0.1,0.1,0.2,0.2,0.3c0.1,0.1,0.2,0.1,0.4,0.1
					c0.2,0,0.4,0,0.7,0h0.8v1.6h-1.3c-0.5,0-0.8,0-1.2-0.1c-0.3-0.1-0.6-0.2-0.8-0.3c-0.2-0.2-0.3-0.4-0.4-0.7
					c-0.1-0.3-0.1-0.7-0.1-1.2v-6.8h-1.8v-1.6h1.8v-3.2h1.8v3.2H252.1z"/>
				<path class="st0" d="M254.4,57.7v-2.2h1.8v2.2H254.4z M256.2,59.7v10.7h-1.8V59.7H256.2z"/>
				<path class="st0" d="M267.5,70.6c-0.5,0-0.8-0.1-1.1-0.4c-0.3-0.3-0.4-0.7-0.4-1.3c-0.5,0.6-1,1-1.7,1.3
					c-0.6,0.3-1.3,0.4-2.1,0.4c-0.5,0-0.9-0.1-1.4-0.2c-0.4-0.1-0.8-0.3-1.1-0.5c-0.3-0.2-0.6-0.6-0.8-0.9c-0.2-0.4-0.3-0.8-0.3-1.4
					c0-0.6,0.1-1.1,0.3-1.5c0.2-0.4,0.5-0.7,0.8-0.9c0.3-0.2,0.7-0.4,1.2-0.5c0.4-0.1,0.9-0.2,1.3-0.3c0.5-0.1,0.9-0.2,1.4-0.2
					c0.4,0,0.8-0.1,1.1-0.2c0.3-0.1,0.6-0.2,0.8-0.4c0.2-0.2,0.3-0.4,0.3-0.8c0-0.4-0.1-0.7-0.2-0.9c-0.1-0.2-0.3-0.4-0.6-0.5
					c-0.2-0.1-0.5-0.2-0.8-0.2c-0.3,0-0.6-0.1-0.8-0.1c-0.7,0-1.4,0.1-1.9,0.4c-0.5,0.3-0.8,0.8-0.8,1.6h-1.8c0-0.7,0.2-1.2,0.4-1.7
					c0.2-0.5,0.6-0.8,1-1.1c0.4-0.3,0.9-0.5,1.4-0.6c0.5-0.1,1.1-0.2,1.7-0.2c0.5,0,1,0,1.4,0.1c0.5,0.1,0.9,0.2,1.3,0.4
					c0.4,0.2,0.7,0.5,0.9,0.9c0.2,0.4,0.4,0.9,0.4,1.5v5.5c0,0.4,0,0.7,0.1,0.9c0,0.2,0.2,0.3,0.5,0.3c0.2,0,0.3,0,0.5-0.1v1.4
					C268.4,70.5,268,70.6,267.5,70.6z M265,65.2c-0.4,0.1-0.7,0.1-1.1,0.2c-0.4,0-0.8,0.1-1.2,0.2c-0.4,0.1-0.8,0.2-1.1,0.3
					c-0.3,0.1-0.6,0.3-0.8,0.6c-0.2,0.3-0.3,0.6-0.3,1c0,0.3,0.1,0.5,0.2,0.7c0.1,0.2,0.3,0.4,0.5,0.5c0.2,0.1,0.4,0.2,0.7,0.3
					c0.3,0.1,0.5,0.1,0.8,0.1c0.6,0,1.1-0.1,1.5-0.2c0.4-0.2,0.8-0.4,1-0.6c0.3-0.2,0.5-0.5,0.6-0.8c0.1-0.3,0.2-0.5,0.2-0.8v-1.8
					C265.7,65,265.4,65.1,265,65.2z"/>
				<path class="st0" d="M272.5,55.6v14.8h-1.8V55.6H272.5z"/>
				<path class="st0" d="M288.1,55.6l5.8,14.8h-2.2l-1.6-4.5h-6.3l-1.7,4.5h-2l5.8-14.8H288.1z M289.5,64.2l-2.5-6.9h0l-2.5,6.9
					H289.5z"/>
				<path class="st0" d="M303.4,73.4c-0.8,0.9-2.1,1.3-3.8,1.3c-0.5,0-1-0.1-1.5-0.2c-0.5-0.1-1-0.3-1.4-0.5c-0.4-0.2-0.8-0.6-1-1
					c-0.3-0.4-0.4-0.9-0.5-1.5h1.8c0,0.3,0.1,0.6,0.3,0.8c0.2,0.2,0.4,0.4,0.7,0.5c0.3,0.1,0.6,0.2,0.9,0.3c0.3,0.1,0.6,0.1,0.9,0.1
					c0.6,0,1.1-0.1,1.5-0.3c0.4-0.2,0.7-0.5,1-0.8c0.3-0.4,0.5-0.8,0.6-1.3c0.1-0.5,0.2-1,0.2-1.6v-0.7h0c-0.3,0.7-0.8,1.1-1.4,1.5
					c-0.6,0.3-1.3,0.5-2,0.5c-0.8,0-1.5-0.1-2.1-0.4c-0.6-0.3-1.1-0.7-1.5-1.2c-0.4-0.5-0.7-1.1-0.9-1.7c-0.2-0.7-0.3-1.3-0.3-2.1
					c0-0.6,0.1-1.3,0.2-2c0.2-0.7,0.4-1.3,0.8-1.8c0.4-0.5,0.9-1,1.5-1.3c0.6-0.4,1.4-0.5,2.3-0.5c0.7,0,1.3,0.1,1.9,0.4
					c0.6,0.3,1,0.7,1.3,1.3h0v-1.5h1.7v9.8C304.6,71.2,304.2,72.5,303.4,73.4z M301.2,68.6c0.4-0.2,0.7-0.6,1-1
					c0.2-0.4,0.4-0.8,0.5-1.3c0.1-0.5,0.2-1,0.2-1.5c0-0.5-0.1-0.9-0.2-1.4c-0.1-0.5-0.3-0.9-0.5-1.2c-0.2-0.4-0.6-0.7-0.9-0.9
					c-0.4-0.2-0.9-0.3-1.4-0.3c-0.6,0-1,0.1-1.4,0.3c-0.4,0.2-0.7,0.5-1,0.9c-0.3,0.4-0.4,0.8-0.6,1.2c-0.1,0.5-0.2,1-0.2,1.5
					c0,0.5,0,1,0.1,1.5c0.1,0.5,0.3,0.9,0.5,1.3c0.2,0.4,0.5,0.7,0.9,1c0.4,0.2,0.9,0.4,1.4,0.4C300.3,68.9,300.8,68.8,301.2,68.6z"
					/>
				<path class="st0" d="M315.2,69.7c-0.8,0.6-1.8,0.9-3,0.9c-0.9,0-1.6-0.1-2.2-0.4c-0.6-0.3-1.2-0.7-1.6-1.2s-0.7-1.1-1-1.8
					c-0.2-0.7-0.3-1.4-0.4-2.3c0-0.8,0.1-1.6,0.4-2.2c0.2-0.7,0.6-1.3,1-1.8c0.4-0.5,1-0.9,1.6-1.2c0.6-0.3,1.3-0.4,2-0.4
					c1,0,1.7,0.2,2.4,0.6c0.6,0.4,1.1,0.9,1.5,1.5c0.4,0.6,0.6,1.3,0.8,2c0.1,0.7,0.2,1.4,0.2,2h-8c0,0.5,0,0.9,0.2,1.3
					c0.1,0.4,0.3,0.8,0.6,1.1c0.3,0.3,0.6,0.6,1.1,0.8c0.4,0.2,0.9,0.3,1.5,0.3c0.7,0,1.4-0.2,1.8-0.5c0.5-0.3,0.8-0.9,0.9-1.6h1.7
					C316.5,68.2,316,69.1,315.2,69.7z M314.7,62.8c-0.2-0.4-0.4-0.7-0.6-1c-0.3-0.3-0.6-0.5-1-0.6c-0.4-0.2-0.8-0.2-1.2-0.2
					c-0.5,0-0.9,0.1-1.2,0.2c-0.4,0.2-0.7,0.4-0.9,0.7c-0.3,0.3-0.5,0.6-0.6,1c-0.2,0.4-0.2,0.8-0.3,1.2h6.1
					C315,63.6,314.9,63.2,314.7,62.8z"/>
				<path class="st0" d="M326.8,70.4v-1.4h0c-0.3,0.6-0.7,1-1.4,1.3c-0.6,0.3-1.3,0.4-2,0.4c-0.8,0-1.5-0.2-2.2-0.5
					c-0.6-0.3-1.1-0.7-1.5-1.2c-0.4-0.5-0.7-1.1-0.9-1.8c-0.2-0.7-0.3-1.4-0.3-2.2c0-0.8,0.1-1.5,0.3-2.2c0.2-0.7,0.5-1.3,0.9-1.8
					c0.4-0.5,0.9-0.9,1.5-1.2c0.6-0.3,1.3-0.4,2.1-0.4c0.3,0,0.6,0,0.9,0.1c0.3,0.1,0.6,0.1,1,0.3c0.3,0.1,0.6,0.3,0.9,0.5
					c0.3,0.2,0.5,0.5,0.7,0.8h0v-5.5h1.8v14.8H326.8z M320.5,66.6c0.1,0.5,0.3,0.9,0.6,1.3c0.3,0.4,0.6,0.7,1,0.9
					c0.4,0.2,0.9,0.3,1.5,0.3c0.6,0,1.1-0.1,1.5-0.4c0.4-0.2,0.8-0.5,1-0.9c0.3-0.4,0.5-0.8,0.6-1.3c0.1-0.5,0.2-1,0.2-1.5
					c0-0.5-0.1-1-0.2-1.5c-0.1-0.5-0.3-0.9-0.6-1.3c-0.3-0.4-0.6-0.7-1-0.9c-0.4-0.2-0.9-0.3-1.6-0.3c-0.6,0-1.1,0.1-1.5,0.4
					c-0.4,0.2-0.7,0.5-1,0.9c-0.2,0.4-0.4,0.8-0.5,1.3c-0.1,0.5-0.2,1-0.2,1.5C320.3,65.6,320.4,66.1,320.5,66.6z"/>
				<path class="st0" d="M346.9,57.7c-0.8-0.5-1.6-0.8-2.7-0.8c-0.9,0-1.6,0.2-2.3,0.5c-0.6,0.3-1.1,0.8-1.6,1.3
					c-0.4,0.6-0.7,1.2-0.9,1.9c-0.2,0.7-0.3,1.5-0.3,2.2c0,0.8,0.1,1.6,0.3,2.4c0.2,0.8,0.5,1.4,0.9,2c0.4,0.6,0.9,1,1.6,1.3
					c0.6,0.3,1.4,0.5,2.3,0.5c0.6,0,1.2-0.1,1.7-0.3c0.5-0.2,0.9-0.5,1.3-0.9c0.4-0.4,0.7-0.8,0.9-1.4c0.2-0.5,0.3-1.1,0.4-1.7h2
					c-0.2,1.9-0.8,3.3-1.9,4.3c-1.1,1-2.6,1.6-4.5,1.6c-1.1,0-2.1-0.2-3-0.6c-0.9-0.4-1.6-0.9-2.1-1.6c-0.6-0.7-1-1.5-1.3-2.4
					c-0.3-0.9-0.4-1.9-0.4-3c0-1.1,0.2-2.1,0.5-3s0.7-1.8,1.3-2.5c0.6-0.7,1.3-1.3,2.2-1.7c0.9-0.4,1.9-0.6,3-0.6
					c0.8,0,1.5,0.1,2.2,0.3c0.7,0.2,1.3,0.5,1.8,0.9c0.5,0.4,1,0.9,1.3,1.5c0.4,0.6,0.6,1.3,0.7,2.1h-2
					C348.1,59,347.6,58.2,346.9,57.7z"/>
				<path class="st0" d="M361.1,70.6c-0.5,0-0.8-0.1-1.1-0.4c-0.3-0.3-0.4-0.7-0.4-1.3c-0.5,0.6-1,1-1.7,1.3
					c-0.6,0.3-1.3,0.4-2.1,0.4c-0.5,0-0.9-0.1-1.4-0.2c-0.4-0.1-0.8-0.3-1.1-0.5c-0.3-0.2-0.6-0.6-0.8-0.9c-0.2-0.4-0.3-0.8-0.3-1.4
					c0-0.6,0.1-1.1,0.3-1.5c0.2-0.4,0.5-0.7,0.8-0.9c0.3-0.2,0.7-0.4,1.2-0.5c0.4-0.1,0.9-0.2,1.3-0.3c0.5-0.1,0.9-0.2,1.4-0.2
					c0.4,0,0.8-0.1,1.1-0.2c0.3-0.1,0.6-0.2,0.8-0.4c0.2-0.2,0.3-0.4,0.3-0.8c0-0.4-0.1-0.7-0.2-0.9c-0.1-0.2-0.3-0.4-0.6-0.5
					c-0.2-0.1-0.5-0.2-0.8-0.2c-0.3,0-0.6-0.1-0.8-0.1c-0.7,0-1.4,0.1-1.9,0.4c-0.5,0.3-0.8,0.8-0.8,1.6h-1.8c0-0.7,0.2-1.2,0.4-1.7
					c0.2-0.5,0.6-0.8,1-1.1c0.4-0.3,0.9-0.5,1.4-0.6c0.5-0.1,1.1-0.2,1.7-0.2c0.5,0,1,0,1.4,0.1c0.5,0.1,0.9,0.2,1.3,0.4
					c0.4,0.2,0.7,0.5,0.9,0.9c0.2,0.4,0.4,0.9,0.4,1.5v5.5c0,0.4,0,0.7,0.1,0.9c0,0.2,0.2,0.3,0.5,0.3c0.2,0,0.3,0,0.5-0.1v1.4
					C362.1,70.5,361.7,70.6,361.1,70.6z M358.7,65.2c-0.4,0.1-0.7,0.1-1.1,0.2c-0.4,0-0.8,0.1-1.2,0.2c-0.4,0.1-0.8,0.2-1.1,0.3
					c-0.3,0.1-0.6,0.3-0.8,0.6c-0.2,0.3-0.3,0.6-0.3,1c0,0.3,0.1,0.5,0.2,0.7c0.1,0.2,0.3,0.4,0.5,0.5c0.2,0.1,0.4,0.2,0.7,0.3
					c0.3,0.1,0.5,0.1,0.8,0.1c0.6,0,1.1-0.1,1.5-0.2c0.4-0.2,0.8-0.4,1-0.6c0.3-0.2,0.5-0.5,0.6-0.8c0.1-0.3,0.2-0.5,0.2-0.8v-1.8
					C359.3,65,359,65.1,358.7,65.2z"/>
				<path class="st0" d="M365.9,59.7v2.3h0c0.4-0.9,1-1.5,1.6-1.9c0.6-0.4,1.4-0.6,2.4-0.6v1.9c-0.7,0-1.3,0.1-1.8,0.3
					c-0.5,0.2-0.9,0.5-1.2,0.8c-0.3,0.4-0.5,0.8-0.7,1.4c-0.1,0.5-0.2,1.1-0.2,1.8v4.8h-1.8V59.7H365.9z"/>
				<path class="st0" d="M378.8,69.7c-0.8,0.6-1.8,0.9-3,0.9c-0.9,0-1.6-0.1-2.2-0.4c-0.6-0.3-1.2-0.7-1.6-1.2
					c-0.4-0.5-0.7-1.1-1-1.8c-0.2-0.7-0.3-1.4-0.4-2.3c0-0.8,0.1-1.6,0.4-2.2c0.2-0.7,0.6-1.3,1-1.8c0.4-0.5,1-0.9,1.6-1.2
					c0.6-0.3,1.3-0.4,2-0.4c1,0,1.7,0.2,2.4,0.6c0.6,0.4,1.1,0.9,1.5,1.5c0.4,0.6,0.6,1.3,0.8,2c0.1,0.7,0.2,1.4,0.2,2h-8
					c0,0.5,0,0.9,0.2,1.3c0.1,0.4,0.3,0.8,0.6,1.1c0.3,0.3,0.6,0.6,1.1,0.8c0.4,0.2,0.9,0.3,1.5,0.3c0.7,0,1.4-0.2,1.8-0.5
					c0.5-0.3,0.8-0.9,0.9-1.6h1.7C380.1,68.2,379.6,69.1,378.8,69.7z M378.3,62.8c-0.2-0.4-0.4-0.7-0.6-1c-0.3-0.3-0.6-0.5-1-0.6
					c-0.4-0.2-0.8-0.2-1.2-0.2c-0.5,0-0.9,0.1-1.2,0.2c-0.4,0.2-0.7,0.4-0.9,0.7c-0.3,0.3-0.5,0.6-0.6,1c-0.2,0.4-0.2,0.8-0.3,1.2
					h6.1C378.6,63.6,378.5,63.2,378.3,62.8z"/>
			</g>
		</g>
		<g>
			<path d="M5.2,55.6l7.8,12h0v-12h1.9v14.8h-2.2L5,58.5h0v11.9H3.1V55.6H5.2z"/>
			<path d="M24.5,55.6l5.8,14.8h-2.2l-1.6-4.5h-6.3l-1.7,4.5h-2l5.8-14.8H24.5z M25.9,64.2l-2.5-6.9h0l-2.5,6.9H25.9z"/>
			<path d="M39,55.6c1.4,0,2.5,0.3,3.3,1c0.8,0.7,1.2,1.6,1.2,2.8c0,0.9-0.2,1.7-0.6,2.4c-0.4,0.7-1.1,1.1-2,1.4v0
				c0.4,0.1,0.8,0.2,1,0.4c0.3,0.2,0.5,0.4,0.6,0.7c0.2,0.3,0.3,0.6,0.4,0.9c0.1,0.3,0.1,0.7,0.2,1c0,0.4,0,0.7,0.1,1.1
				c0,0.4,0,0.7,0.1,1.1c0.1,0.4,0.1,0.7,0.2,1c0.1,0.3,0.3,0.6,0.5,0.9h-2.2c-0.1-0.2-0.2-0.4-0.3-0.6c0-0.3-0.1-0.6-0.1-0.9
				c0-0.3,0-0.7,0-1c0-0.4-0.1-0.7-0.1-1.1c-0.1-0.4-0.1-0.7-0.2-1c-0.1-0.3-0.2-0.6-0.4-0.8c-0.2-0.2-0.4-0.4-0.7-0.6
				c-0.3-0.1-0.7-0.2-1.2-0.2H34v6.3h-2V55.6H39z M39.5,62.3c0.4-0.1,0.8-0.2,1.1-0.4c0.3-0.2,0.6-0.5,0.7-0.8
				c0.2-0.3,0.3-0.8,0.3-1.3c0-0.7-0.2-1.4-0.6-1.8c-0.4-0.5-1.1-0.7-2-0.7H34v5.2h4.1C38.6,62.4,39,62.4,39.5,62.3z"/>
			<path d="M53.5,55.6c1.4,0,2.5,0.3,3.3,1c0.8,0.7,1.2,1.6,1.2,2.8c0,0.9-0.2,1.7-0.6,2.4c-0.4,0.7-1.1,1.1-2,1.4v0
				c0.4,0.1,0.8,0.2,1,0.4c0.3,0.2,0.5,0.4,0.6,0.7c0.2,0.3,0.3,0.6,0.4,0.9c0.1,0.3,0.1,0.7,0.2,1c0,0.4,0,0.7,0.1,1.1
				c0,0.4,0,0.7,0.1,1.1c0.1,0.4,0.1,0.7,0.2,1c0.1,0.3,0.3,0.6,0.5,0.9h-2.2c-0.1-0.2-0.2-0.4-0.3-0.6c0-0.3-0.1-0.6-0.1-0.9
				c0-0.3,0-0.7,0-1c0-0.4-0.1-0.7-0.1-1.1c-0.1-0.4-0.1-0.7-0.2-1c-0.1-0.3-0.2-0.6-0.4-0.8c-0.2-0.2-0.4-0.4-0.7-0.6
				c-0.3-0.1-0.7-0.2-1.2-0.2h-4.8v6.3h-2V55.6H53.5z M53.9,62.3c0.4-0.1,0.8-0.2,1.1-0.4c0.3-0.2,0.6-0.5,0.7-0.8
				c0.2-0.3,0.3-0.8,0.3-1.3c0-0.7-0.2-1.4-0.6-1.8c-0.4-0.5-1.1-0.7-2-0.7h-4.9v5.2h4.1C53.1,62.4,53.5,62.4,53.9,62.3z"/>
			<path d="M67.3,55.6L73,70.4h-2.2l-1.6-4.5H63l-1.7,4.5h-2l5.8-14.8H67.3z M68.6,64.2l-2.5-6.9h0l-2.5,6.9H68.6z"/>
			<path d="M80.2,55.6c0.3,0,0.7,0,1,0c0.4,0,0.7,0,1.1,0.1c0.4,0,0.7,0.1,1,0.2c0.3,0.1,0.6,0.2,0.8,0.3c0.5,0.3,0.9,0.7,1.2,1.2
				c0.3,0.5,0.5,1.1,0.5,1.9c0,0.8-0.2,1.5-0.6,2c-0.4,0.6-0.9,1-1.6,1.3v0c0.9,0.2,1.6,0.6,2.1,1.2c0.5,0.6,0.7,1.4,0.7,2.3
				c0,0.5-0.1,1.1-0.3,1.6c-0.2,0.5-0.5,1-0.9,1.4c-0.4,0.4-0.8,0.7-1.4,1c-0.6,0.2-1.2,0.4-1.9,0.4h-7.1V55.6H80.2z M80.7,61.9
				c1.1,0,1.9-0.2,2.4-0.6c0.5-0.4,0.7-1,0.7-1.8c0-0.5-0.1-0.9-0.2-1.2c-0.2-0.3-0.4-0.5-0.7-0.7c-0.3-0.2-0.6-0.3-1-0.3
				c-0.4,0-0.8-0.1-1.2-0.1h-3.9v4.7H80.7z M81.7,68.7c0.9,0,1.5-0.2,2-0.7c0.5-0.5,0.7-1.1,0.7-1.9c0-0.5-0.1-0.9-0.3-1.2
				c-0.2-0.3-0.4-0.6-0.7-0.8c-0.3-0.2-0.6-0.3-1-0.4c-0.4-0.1-0.8-0.1-1.2-0.1h-4.5v5.1H81.7z"/>
			<path d="M99.6,69.3c-1,0.9-2.4,1.4-4.3,1.4c-1.9,0-3.4-0.5-4.5-1.4c-1.1-0.9-1.6-2.3-1.6-4.3v-9.4h2V65c0,1.3,0.4,2.3,1.1,3
				c0.7,0.7,1.7,1,3,1c1.3,0,2.2-0.3,2.9-1c0.7-0.7,1-1.7,1-3v-9.4h2V65C101.1,66.9,100.6,68.3,99.6,69.3z"/>
			<path d="M106.6,55.6l7.8,12h0v-12h1.9v14.8h-2.2l-7.7-11.9h0v11.9h-1.9V55.6H106.6z"/>
			<path d="M124.9,55.6c2.3,0,4,0.6,5.3,1.7c1.2,1.2,1.8,2.9,1.8,5.3c0,1.2-0.1,2.3-0.4,3.3c-0.3,1-0.7,1.8-1.3,2.4
				c-0.6,0.7-1.3,1.2-2.2,1.5c-0.9,0.3-2,0.5-3.2,0.5h-5.1V55.6H124.9z M125,68.7c0.2,0,0.5,0,0.8-0.1c0.3,0,0.7-0.1,1.1-0.2
				c0.4-0.1,0.7-0.3,1.1-0.6c0.4-0.2,0.7-0.6,1-1c0.3-0.4,0.5-1,0.7-1.6c0.2-0.6,0.3-1.4,0.3-2.3c0-0.9-0.1-1.7-0.3-2.4
				c-0.2-0.7-0.5-1.3-0.8-1.8c-0.4-0.5-0.9-0.9-1.5-1.1c-0.6-0.3-1.4-0.4-2.3-0.4h-3.3v11.5H125z"/>
			<path d="M140.9,55.6l5.8,14.8h-2.2l-1.6-4.5h-6.3l-1.7,4.5h-2l5.8-14.8H140.9z M142.2,64.2l-2.5-6.9h0l-2.5,6.9H142.2z"/>
			<path d="M150.4,55.6v6.4h7.8v-6.4h2v14.8h-2v-6.8h-7.8v6.8h-2V55.6H150.4z"/>
		</g>
	</g>
</g>
<g>
</g>
<g>
</g>
<g>
</g>
<g>
</g>
<g>
</g>
<g>
</g>
</svg>
