<?xml version="1.0" encoding="utf-8"?>
<!-- Generator: Adobe Illustrator 19.1.0, SVG Export Plug-In . SVG Version: 6.00 Build 0)  -->
<!DOCTYPE svg PUBLIC "-//W3C//DTD SVG 1.1//EN" "http://www.w3.org/Graphics/SVG/1.1/DTD/svg11.dtd">
<svg version="1.1" id="Layer_1" xmlns="http://www.w3.org/2000/svg" xmlns:xlink="http://www.w3.org/1999/xlink" x="0px" y="0px"
	 viewBox="0 0 385.5 87.9" style="enable-background:new 0 0 385.5 87.9;" xml:space="preserve">
<style type="text/css">
	.st0{fill:#6D6E71;}
	.st1{fill:#6CB33F;}
</style>
<g>
	<g>
		<path class="st0" d="M312.4,52.2H2.7v1h310C312.6,52.8,312.5,52.5,312.4,52.2z"/>
		<path class="st0" d="M352.7,53.2h30.1v-1h-29.6C353.1,52.5,352.9,52.8,352.7,53.2z"/>
	</g>
	<g>
		<path class="st1" d="M3.4,43.4v-3.1H8c1.8,0,2.6-1.1,2.6-3V10.5c0-1.9-0.8-3.1-2.7-3.1H3.4V4.3h21c9.1,0,16.1,2.3,16.1,10.7
			c0,7.7-6.4,10.7-13.7,10.7H16.3v10.9c0,2.1,0.9,3.6,3.8,3.6h3.5v3.1H3.4z M16.3,22.7h8.5c5.3,0,9.3-1.8,9.3-7.7
			c0-5.9-4-7.7-9.3-7.7h-8.5V22.7z"/>
		<path class="st1" d="M66.6,38.4c0,1.8,0.5,3.1,1.5,3.1c2.5,0,2.8-3.3,2.8-5V34h2.8v1.7c0,6.2-2.1,8.5-6.6,8.5
			c-2.9,0-4.7-1.8-5.2-4.6c-2.9,3.2-6.2,4.6-10.4,4.6c-4.8,0-8.7-2.1-8.7-7.4c0-7.7,10.6-7.5,16.5-10.4c1.8-0.9,2.2-2,2.2-3.8
			c0-3.4-1.5-5.1-6.6-5.1c-2.3,0-5.2,0.4-6.9,2.3c1.8,0.3,2.7,1.2,2.7,3c0,2.3-1.9,3.1-3.5,3.1c-2.1,0-3.1-1.8-3.1-4.2
			c0-5,6.7-7,11.2-7c6.8,0,11.2,2,11.2,9.7V38.4z M61.6,28.3c-2.5,1.5-5.2,2.1-8.7,3.5c-3.2,1.4-4.5,2.6-4.5,4.7
			c0,3.1,1.6,4.9,4.6,4.9c3.9,0,8.5-3.6,8.5-7.7V28.3z"/>
		<path class="st1" d="M101.7,33.2c-0.8,7.9-5.7,11-13.4,11c-7.3,0-12.9-4.9-12.9-14.7c0-8.7,6.2-14.7,14.6-14.7
			c5.2,0,11.9,2.7,11.9,8.8c0,2.4-1.4,4.1-3.7,4.1c-1.5,0-2.9-1.2-2.9-2.8c0-2,1-3.1,3-3.4c-0.9-2.9-4.8-4-7.5-4
			c-7.5,0-9.9,6.5-9.9,11.9c0,5.4,2.4,11.9,8.8,11.9c4.7,0,7.7-3.2,8.6-8.2H101.7z"/>
		<path class="st1" d="M116,37.9c0,1.8,0.4,2.7,2.4,2.7h3.8v2.8h-17.3v-2.8h3.8c1.9,0,2.4-0.9,2.4-2.7V21.3c0-1.8-0.4-2.7-2.4-2.7
			h-3.8v-2.8H116V37.9z M112.7,10.2c-1.8,0-3.2-1.4-3.2-3.2c0-1.7,1.4-3.2,3.2-3.2c1.7,0,3.2,1.5,3.2,3.2
			C115.9,8.8,114.4,10.2,112.7,10.2z"/>
		<path class="st1" d="M135.7,18.6v19.3c0,1.8,1.5,2.7,3.4,2.7h2.9v2.8h-17.6v-2.8h3.9c1.9,0,2.4-0.9,2.4-2.7V18.6h-6.3v-2.8h6.3v-4
			c0-6.3,4.6-8.7,9.1-8.7c3.4,0,8.7,1.2,8.7,6.2c0,2.2-1.5,3.4-3.5,3.4c-2.4,0-3.1-1.4-3.1-2.9c0-1.4,1.1-2.2,2.4-2.3
			c-0.9-1.2-2.9-1.6-4.2-1.6c-2.4,0-4.3,2.1-4.3,5.2v4.7h6.5v2.8H135.7z"/>
		<path class="st1" d="M158.5,37.9c0,1.8,0.4,2.7,2.4,2.7h3.8v2.8h-17.3v-2.8h3.8c1.9,0,2.4-0.9,2.4-2.7V21.3c0-1.8-0.4-2.7-2.4-2.7
			h-3.8v-2.8h11.2V37.9z M155.2,10.2c-1.8,0-3.2-1.4-3.2-3.2c0-1.7,1.4-3.2,3.2-3.2c1.7,0,3.2,1.5,3.2,3.2
			C158.4,8.8,156.9,10.2,155.2,10.2z"/>
		<path class="st1" d="M193.2,33.2c-0.8,7.9-5.7,11-13.4,11c-7.3,0-12.9-4.9-12.9-14.7c0-8.7,6.2-14.7,14.6-14.7
			c5.2,0,11.9,2.7,11.9,8.8c0,2.4-1.4,4.1-3.7,4.1c-1.5,0-2.9-1.2-2.9-2.8c0-2,1-3.1,3-3.4c-0.9-2.9-4.8-4-7.5-4
			c-7.5,0-9.9,6.5-9.9,11.9c0,5.4,2.4,11.9,8.8,11.9c4.7,0,7.7-3.2,8.6-8.2H193.2z"/>
		<path class="st1" d="M208.3,43.4v-3.1h4.6c1.8,0,2.6-1.1,2.6-3V10.5c0-1.9-0.8-3.1-2.7-3.1h-4.4V4.3h20v3.1h-4.5
			c-1.9,0-2.7,1.1-2.7,3.1v29.8h11.1c6.9,0,9.4-2.4,9.4-13h3.1v16.1H208.3z"/>
		<path class="st1" d="M278.1,29.6c0,8.5-5.7,14.7-15.2,14.7c-9.5,0-15.2-6.2-15.2-14.7s5.7-14.7,15.2-14.7
			C272.4,14.9,278.1,21.1,278.1,29.6z M253.3,29.6c0,6.4,2.3,11.9,9.6,11.9c7.3,0,9.6-5.5,9.6-11.9c0-6.4-2.3-11.9-9.6-11.9
			C255.6,17.7,253.3,23.2,253.3,29.6z"/>
		<path class="st1" d="M303.6,38.1h-0.1c-2.1,3.9-4.6,6.2-9.8,6.2c-8.8,0-12.7-7.5-12.7-14.7c0-7.2,3.9-14.7,12.7-14.7
			c3.8,0,7.8,2.1,9.8,5.8h0.1V10.5c0-1.9-0.8-3.4-2.7-3.4h-3.1V4.3h10.8v34.1c0,1.4,0.8,2.1,2.2,2.1h3.4v2.8h-10.6V38.1z
			 M286.6,29.6c0,6.7,2.4,11.4,7.8,11.4c6.7,0,9.1-5.5,9.1-11.4c0-5.9-2.4-11.4-8.4-11.4C289,18.2,286.6,23.7,286.6,29.6z"/>
		<path class="st1" d="M336.2,40.1c8.8,0,12.1,2.5,12.1,7.4c0,5.5-5.5,8.4-15.7,8.4c-9.4,0-14.9-2.1-14.9-6.8c0-3.7,3.2-5.1,6.2-5.2
			v-0.1c-2.7,0-5.1-1.9-5.1-4.8c0-2.9,2.5-5.2,5.2-5.7c-3-1.7-4.2-4.9-4.2-8.2c0-7.2,6.5-10.1,12.8-10.1c3.5,0,6.8,1.2,9.5,3.4
			c1.5-1.8,3.5-3.4,6-3.4c3.2,0,5.7,1.9,5.7,5.2c0,2.3-1.1,3.8-3.5,3.8c-1.7,0-2.7-1.2-2.7-2.8c0-1.7,1.2-2.5,2.8-2.5
			c-0.5-0.8-1.5-0.9-2.5-0.9c-1.6,0-3.4,1.2-4.4,2.4c0.9,1.8,1.6,3.8,1.6,6.3c0,4.6-4.8,9.5-12.5,9.5c-4.8,0-5.5-1.1-6.5-1.1
			c-1.6,0-3.1,1.4-3.1,2.9c0,1.7,1.6,2.4,3.4,2.4H336.2z M329.1,44.4c-3.5,0-7,1.5-7,4.1c0,3.9,5.2,4.5,11.2,4.5
			c5.8,0,10.7-1.5,10.7-4.4c0-3.1-2.1-4.3-5.9-4.3H329.1z M325.4,25.4c0,4.5,2.1,7.7,7.1,7.7c5,0,7.1-3.1,7.1-7.7
			c0-4.5-2.1-7.7-7.1-7.7C327.5,17.7,325.4,20.9,325.4,25.4z"/>
		<path class="st1" d="M361.4,29.9c0,6,1.3,11.5,8.2,11.5c4.7,0,7.6-2.5,8.8-7.1h3.4c-1.3,6.4-5.4,9.8-12.3,9.8
			c-8.7,0-13.8-5-13.8-14.7c0-9.7,5.1-14.7,13.8-14.7c9.5,0,12.5,6.7,13.1,15H361.4z M377.1,27.2c0-5.1-2.3-9.5-7.7-9.5
			c-5.5,0-8,4.4-8,9.5H377.1z"/>
	</g>
	<g>
		<g>
			<g>
				<path class="st0" d="M135.6,61.9c1.7,0,3,0.4,4,1.3c1,0.8,1.4,2,1.4,3.4c0,1.1-0.2,2-0.7,2.9c-0.5,0.8-1.3,1.4-2.4,1.7v0.1
					c0.5,0.1,0.9,0.3,1.3,0.5c0.3,0.2,0.6,0.5,0.8,0.8c0.2,0.3,0.3,0.7,0.4,1.1c0.1,0.4,0.2,0.8,0.2,1.3c0,0.4,0.1,0.9,0.1,1.3
					c0,0.5,0.1,0.9,0.1,1.3c0.1,0.4,0.2,0.9,0.3,1.2c0.1,0.4,0.3,0.7,0.6,1H139c-0.2-0.2-0.3-0.4-0.3-0.8c-0.1-0.3-0.1-0.7-0.1-1.1
					c0-0.4,0-0.8-0.1-1.3s-0.1-0.9-0.2-1.3c-0.1-0.4-0.2-0.9-0.3-1.2s-0.3-0.7-0.5-1c-0.2-0.3-0.5-0.5-0.9-0.7
					c-0.4-0.2-0.8-0.3-1.4-0.3h-5.8v7.7h-2.4v-18H135.6z M136.1,70c0.5-0.1,0.9-0.2,1.3-0.5c0.4-0.2,0.7-0.6,0.9-1
					c0.2-0.4,0.3-0.9,0.3-1.6c0-0.9-0.3-1.6-0.8-2.2c-0.5-0.6-1.3-0.9-2.4-0.9h-5.9v6.3h5C135.1,70.2,135.6,70.1,136.1,70z"/>
				<path class="st0" d="M153.6,79c-1,0.7-2.2,1.1-3.7,1.1c-1,0-1.9-0.2-2.7-0.5c-0.8-0.3-1.4-0.8-1.9-1.4c-0.5-0.6-0.9-1.3-1.2-2.2
					c-0.3-0.8-0.4-1.8-0.4-2.7c0-1,0.2-1.9,0.5-2.7c0.3-0.8,0.7-1.5,1.3-2.1c0.5-0.6,1.2-1.1,1.9-1.4c0.7-0.3,1.6-0.5,2.5-0.5
					c1.2,0,2.1,0.2,2.9,0.7c0.8,0.5,1.4,1.1,1.8,1.8c0.5,0.7,0.8,1.5,1,2.4c0.2,0.9,0.2,1.7,0.2,2.5H146c0,0.6,0,1.1,0.2,1.6
					c0.2,0.5,0.4,1,0.7,1.4c0.3,0.4,0.8,0.7,1.3,0.9c0.5,0.2,1.1,0.4,1.8,0.4c0.9,0,1.6-0.2,2.2-0.6c0.6-0.4,1-1.1,1.1-1.9h2.1
					C155.2,77.2,154.6,78.3,153.6,79z M153.1,70.7c-0.2-0.5-0.5-0.8-0.8-1.2c-0.3-0.3-0.7-0.6-1.2-0.8c-0.4-0.2-0.9-0.3-1.5-0.3
					c-0.6,0-1.1,0.1-1.5,0.3c-0.4,0.2-0.8,0.5-1.1,0.8c-0.3,0.3-0.6,0.7-0.8,1.2c-0.2,0.4-0.3,0.9-0.3,1.4h7.5
					C153.4,71.6,153.3,71.1,153.1,70.7z"/>
				<path class="st0" d="M160,76.9c0.2,0.3,0.5,0.6,0.8,0.8c0.3,0.2,0.7,0.3,1.1,0.4c0.4,0.1,0.8,0.1,1.3,0.1c0.3,0,0.7,0,1.1-0.1
					c0.4-0.1,0.7-0.1,1-0.3c0.3-0.1,0.6-0.3,0.8-0.6c0.2-0.3,0.3-0.6,0.3-1c0-0.6-0.2-1-0.6-1.3c-0.4-0.3-0.9-0.5-1.6-0.7
					c-0.6-0.2-1.3-0.3-2.1-0.5c-0.7-0.1-1.4-0.3-2.1-0.6c-0.6-0.3-1.2-0.6-1.6-1.1c-0.4-0.5-0.6-1.1-0.6-2c0-0.7,0.1-1.2,0.4-1.7
					c0.3-0.5,0.7-0.9,1.1-1.1c0.5-0.3,1-0.5,1.6-0.7c0.6-0.1,1.2-0.2,1.7-0.2c0.7,0,1.4,0.1,2,0.2c0.6,0.1,1.2,0.3,1.6,0.7
					c0.5,0.3,0.9,0.7,1.1,1.3c0.3,0.5,0.5,1.2,0.5,2h-2.1c0-0.4-0.1-0.8-0.3-1c-0.2-0.3-0.4-0.5-0.7-0.7c-0.3-0.2-0.6-0.3-0.9-0.4
					c-0.3-0.1-0.7-0.1-1-0.1c-0.3,0-0.6,0-1,0.1c-0.3,0-0.6,0.1-0.9,0.3c-0.3,0.1-0.5,0.3-0.7,0.5s-0.3,0.5-0.3,0.8
					c0,0.4,0.1,0.7,0.4,0.9c0.3,0.2,0.6,0.4,1,0.6c0.4,0.2,0.9,0.3,1.4,0.4c0.5,0.1,1,0.2,1.5,0.3c0.5,0.1,1.1,0.3,1.6,0.4
					c0.5,0.2,1,0.4,1.4,0.7c0.4,0.3,0.7,0.6,1,1c0.2,0.4,0.4,0.9,0.4,1.6c0,0.8-0.2,1.4-0.5,2c-0.3,0.5-0.8,0.9-1.3,1.3
					c-0.5,0.3-1.1,0.5-1.8,0.7c-0.7,0.1-1.3,0.2-2,0.2c-0.7,0-1.4-0.1-2.1-0.2c-0.7-0.2-1.2-0.4-1.7-0.7c-0.5-0.3-0.9-0.8-1.2-1.4
					c-0.3-0.6-0.5-1.2-0.5-2.1h2.1C159.6,76.2,159.8,76.6,160,76.9z"/>
				<path class="st0" d="M171.4,64.5v-2.6h2.1v2.6H171.4z M173.6,66.8v13h-2.1v-13H173.6z"/>
				<path class="st0" d="M186.7,79.9v-1.8h0c-0.4,0.7-0.9,1.2-1.7,1.6c-0.8,0.3-1.6,0.5-2.5,0.5c-1,0-1.9-0.2-2.6-0.6
					c-0.7-0.4-1.4-0.9-1.9-1.5c-0.5-0.6-0.9-1.3-1.1-2.2c-0.3-0.8-0.4-1.7-0.4-2.6c0-0.9,0.1-1.8,0.4-2.6c0.2-0.8,0.6-1.5,1.1-2.2
					c0.5-0.6,1.1-1.1,1.9-1.5c0.7-0.4,1.6-0.5,2.6-0.5c0.3,0,0.7,0,1.1,0.1c0.4,0.1,0.8,0.2,1.2,0.3c0.4,0.2,0.8,0.4,1.1,0.6
					c0.3,0.3,0.6,0.6,0.9,1h0v-6.7h2.1v18H186.7z M179,75.2c0.2,0.6,0.4,1.1,0.7,1.5c0.3,0.5,0.7,0.8,1.3,1.1
					c0.5,0.3,1.1,0.4,1.8,0.4c0.7,0,1.3-0.1,1.8-0.4c0.5-0.3,0.9-0.7,1.2-1.1c0.3-0.5,0.5-1,0.7-1.6c0.1-0.6,0.2-1.2,0.2-1.8
					c0-0.6-0.1-1.3-0.2-1.8c-0.2-0.6-0.4-1.1-0.7-1.6c-0.3-0.5-0.8-0.8-1.3-1.1c-0.5-0.3-1.2-0.4-1.9-0.4c-0.7,0-1.3,0.1-1.8,0.4
					c-0.5,0.3-0.9,0.7-1.2,1.1c-0.3,0.5-0.5,1-0.7,1.6c-0.1,0.6-0.2,1.2-0.2,1.9C178.8,74.1,178.9,74.7,179,75.2z"/>
				<path class="st0" d="M201.8,79c-1,0.7-2.2,1.1-3.7,1.1c-1,0-1.9-0.2-2.7-0.5c-0.8-0.3-1.4-0.8-1.9-1.4c-0.5-0.6-0.9-1.3-1.2-2.2
					c-0.3-0.8-0.4-1.8-0.4-2.7c0-1,0.2-1.9,0.5-2.7c0.3-0.8,0.7-1.5,1.3-2.1c0.5-0.6,1.2-1.1,1.9-1.4c0.7-0.3,1.6-0.5,2.5-0.5
					c1.2,0,2.1,0.2,2.9,0.7c0.8,0.5,1.4,1.1,1.8,1.8c0.5,0.7,0.8,1.5,1,2.4c0.2,0.9,0.2,1.7,0.2,2.5h-9.7c0,0.6,0,1.1,0.2,1.6
					c0.2,0.5,0.4,1,0.7,1.4c0.3,0.4,0.8,0.7,1.3,0.9c0.5,0.2,1.1,0.4,1.8,0.4c0.9,0,1.6-0.2,2.2-0.6c0.6-0.4,1-1.1,1.1-1.9h2.1
					C203.4,77.2,202.7,78.3,201.8,79z M201.2,70.7c-0.2-0.5-0.5-0.8-0.8-1.2c-0.3-0.3-0.7-0.6-1.2-0.8c-0.4-0.2-0.9-0.3-1.5-0.3
					c-0.6,0-1.1,0.1-1.5,0.3c-0.4,0.2-0.8,0.5-1.1,0.8c-0.3,0.3-0.6,0.7-0.8,1.2c-0.2,0.4-0.3,0.9-0.3,1.4h7.5
					C201.6,71.6,201.4,71.1,201.2,70.7z"/>
				<path class="st0" d="M208.5,66.8v2.1h0.1c0.9-1.6,2.3-2.4,4.2-2.4c0.9,0,1.6,0.1,2.1,0.4c0.6,0.2,1,0.6,1.4,1
					c0.4,0.4,0.6,0.9,0.7,1.5c0.1,0.6,0.2,1.2,0.2,1.9v8.6h-2.1V71c0-0.8-0.2-1.4-0.7-1.9c-0.5-0.5-1.1-0.7-1.9-0.7
					c-0.7,0-1.2,0.1-1.7,0.3c-0.5,0.2-0.9,0.5-1.2,0.9c-0.3,0.4-0.6,0.8-0.7,1.3c-0.2,0.5-0.2,1-0.2,1.6v7.3h-2.1v-13H208.5z"/>
				<path class="st0" d="M226.4,66.8v1.9h-2.6v8.1c0,0.3,0,0.5,0.1,0.6c0,0.2,0.1,0.3,0.2,0.4c0.1,0.1,0.3,0.1,0.5,0.2s0.5,0,0.8,0
					h1v1.9h-1.6c-0.6,0-1,0-1.4-0.1c-0.4-0.1-0.7-0.2-1-0.4c-0.2-0.2-0.4-0.5-0.5-0.9c-0.1-0.4-0.2-0.9-0.2-1.5v-8.3h-2.2v-1.9h2.2
					v-3.9h2.1v3.9H226.4z"/>
				<path class="st0" d="M229.3,64.5v-2.6h2.1v2.6H229.3z M231.4,66.8v13h-2.1v-13H231.4z"/>
				<path class="st0" d="M245.1,80.1c-0.6,0-1-0.2-1.3-0.5c-0.3-0.3-0.5-0.8-0.5-1.5c-0.6,0.7-1.3,1.2-2.1,1.5
					c-0.8,0.3-1.6,0.5-2.5,0.5c-0.6,0-1.1-0.1-1.7-0.2c-0.5-0.1-1-0.3-1.4-0.6c-0.4-0.3-0.7-0.7-0.9-1.1c-0.2-0.5-0.3-1-0.3-1.7
					c0-0.7,0.1-1.3,0.4-1.8c0.3-0.5,0.6-0.9,1-1.1c0.4-0.3,0.9-0.5,1.4-0.7c0.5-0.2,1.1-0.3,1.6-0.4c0.6-0.1,1.1-0.2,1.7-0.3
					c0.5-0.1,1-0.1,1.4-0.3c0.4-0.1,0.7-0.3,1-0.5c0.2-0.2,0.4-0.5,0.4-0.9c0-0.5-0.1-0.8-0.3-1.1c-0.2-0.3-0.4-0.5-0.7-0.7
					c-0.3-0.2-0.6-0.3-0.9-0.3c-0.3-0.1-0.7-0.1-1-0.1c-0.9,0-1.7,0.2-2.3,0.5c-0.6,0.3-0.9,1-1,2h-2.1c0-0.8,0.2-1.5,0.5-2
					c0.3-0.6,0.7-1,1.2-1.3c0.5-0.3,1.1-0.6,1.7-0.7c0.7-0.2,1.3-0.2,2.1-0.2c0.6,0,1.2,0,1.7,0.1c0.6,0.1,1.1,0.3,1.6,0.5
					c0.5,0.3,0.8,0.6,1.1,1.1c0.3,0.5,0.4,1.1,0.4,1.8v6.7c0,0.5,0,0.9,0.1,1.1c0.1,0.2,0.3,0.4,0.6,0.4c0.2,0,0.4,0,0.7-0.1v1.7
					C246.2,80,245.7,80.1,245.1,80.1z M242.1,73.6c-0.4,0.1-0.9,0.2-1.4,0.2c-0.5,0.1-1,0.1-1.4,0.2c-0.5,0.1-0.9,0.2-1.3,0.4
					c-0.4,0.2-0.7,0.4-0.9,0.7c-0.2,0.3-0.4,0.7-0.4,1.3c0,0.4,0.1,0.7,0.2,0.9c0.1,0.2,0.3,0.4,0.6,0.6c0.2,0.2,0.5,0.3,0.8,0.3
					c0.3,0.1,0.6,0.1,0.9,0.1c0.7,0,1.3-0.1,1.8-0.3c0.5-0.2,0.9-0.4,1.2-0.7c0.3-0.3,0.6-0.6,0.7-1c0.2-0.3,0.2-0.7,0.2-1v-2.2
					C242.9,73.3,242.5,73.5,242.1,73.6z"/>
				<path class="st0" d="M251.2,61.9v18h-2.1v-18H251.2z"/>
				<path class="st0" d="M270.2,61.9l7,18h-2.6l-2-5.4H265l-2,5.4h-2.4l7-18H270.2z M271.9,72.4l-3-8.4h-0.1l-3,8.4H271.9z"/>
				<path class="st0" d="M288.8,83.5c-1,1.1-2.5,1.6-4.6,1.6c-0.6,0-1.2-0.1-1.8-0.2c-0.6-0.1-1.2-0.4-1.7-0.7
					c-0.5-0.3-0.9-0.7-1.3-1.2c-0.3-0.5-0.5-1.1-0.6-1.8h2.1c0,0.4,0.1,0.7,0.4,1c0.2,0.3,0.5,0.5,0.8,0.7c0.3,0.2,0.7,0.3,1.1,0.4
					c0.4,0.1,0.8,0.1,1.1,0.1c0.7,0,1.3-0.1,1.8-0.4c0.5-0.2,0.9-0.6,1.2-1c0.3-0.4,0.5-0.9,0.7-1.5c0.1-0.6,0.2-1.3,0.2-2v-0.9
					h-0.1c-0.4,0.8-0.9,1.4-1.7,1.8c-0.7,0.4-1.5,0.6-2.4,0.6c-1,0-1.8-0.2-2.5-0.5c-0.7-0.4-1.3-0.8-1.8-1.4
					c-0.5-0.6-0.9-1.3-1.1-2.1c-0.2-0.8-0.4-1.6-0.4-2.5c0-0.8,0.1-1.6,0.3-2.4c0.2-0.8,0.5-1.6,1-2.2c0.5-0.7,1.1-1.2,1.9-1.6
					c0.8-0.4,1.7-0.6,2.8-0.6c0.8,0,1.6,0.2,2.3,0.5c0.7,0.4,1.2,0.9,1.6,1.6h0v-1.9h2v11.9C290.2,80.9,289.7,82.5,288.8,83.5z
					 M286,77.7c0.5-0.3,0.9-0.7,1.2-1.2c0.3-0.5,0.5-1,0.7-1.6c0.1-0.6,0.2-1.2,0.2-1.8c0-0.6-0.1-1.1-0.2-1.7
					c-0.1-0.6-0.3-1.1-0.6-1.5c-0.3-0.4-0.7-0.8-1.1-1.1c-0.5-0.3-1-0.4-1.7-0.4c-0.7,0-1.3,0.1-1.8,0.4c-0.5,0.3-0.9,0.6-1.2,1
					c-0.3,0.4-0.5,0.9-0.7,1.5c-0.1,0.6-0.2,1.2-0.2,1.8c0,0.6,0.1,1.2,0.2,1.8c0.1,0.6,0.3,1.1,0.6,1.6c0.3,0.5,0.7,0.9,1.1,1.2
					c0.5,0.3,1.1,0.4,1.8,0.4C285,78.1,285.5,78,286,77.7z"/>
				<path class="st0" d="M303,79c-1,0.7-2.2,1.1-3.7,1.1c-1,0-1.9-0.2-2.7-0.5c-0.8-0.3-1.4-0.8-1.9-1.4c-0.5-0.6-0.9-1.3-1.2-2.2
					c-0.3-0.8-0.4-1.8-0.4-2.7c0-1,0.2-1.9,0.5-2.7c0.3-0.8,0.7-1.5,1.3-2.1c0.5-0.6,1.2-1.1,1.9-1.4c0.7-0.3,1.6-0.5,2.5-0.5
					c1.2,0,2.1,0.2,2.9,0.7c0.8,0.5,1.4,1.1,1.8,1.8c0.5,0.7,0.8,1.5,1,2.4c0.2,0.9,0.2,1.7,0.2,2.5h-9.7c0,0.6,0,1.1,0.2,1.6
					c0.2,0.5,0.4,1,0.7,1.4c0.3,0.4,0.8,0.7,1.3,0.9c0.5,0.2,1.1,0.4,1.8,0.4c0.9,0,1.6-0.2,2.2-0.6c0.6-0.4,1-1.1,1.1-1.9h2.1
					C304.7,77.2,304,78.3,303,79z M302.5,70.7c-0.2-0.5-0.5-0.8-0.8-1.2c-0.3-0.3-0.7-0.6-1.2-0.8c-0.4-0.2-0.9-0.3-1.5-0.3
					c-0.6,0-1.1,0.1-1.5,0.3c-0.4,0.2-0.8,0.5-1.1,0.8c-0.3,0.3-0.6,0.7-0.8,1.2c-0.2,0.4-0.3,0.9-0.3,1.4h7.5
					C302.8,71.6,302.7,71.1,302.5,70.7z"/>
				<path class="st0" d="M317.2,79.9v-1.8h0c-0.4,0.7-0.9,1.2-1.7,1.6c-0.8,0.3-1.6,0.5-2.5,0.5c-1,0-1.9-0.2-2.6-0.6
					c-0.7-0.4-1.4-0.9-1.9-1.5c-0.5-0.6-0.9-1.3-1.1-2.2c-0.2-0.8-0.4-1.7-0.4-2.6c0-0.9,0.1-1.8,0.4-2.6c0.2-0.8,0.6-1.5,1.1-2.2
					c0.5-0.6,1.1-1.1,1.9-1.5c0.7-0.4,1.6-0.5,2.6-0.5c0.3,0,0.7,0,1.1,0.1c0.4,0.1,0.8,0.2,1.2,0.3c0.4,0.2,0.8,0.4,1.1,0.6
					c0.3,0.3,0.6,0.6,0.9,1h0v-6.7h2.1v18H317.2z M309.5,75.2c0.2,0.6,0.4,1.1,0.7,1.5c0.3,0.5,0.7,0.8,1.3,1.1
					c0.5,0.3,1.1,0.4,1.8,0.4c0.7,0,1.3-0.1,1.8-0.4c0.5-0.3,0.9-0.7,1.2-1.1c0.3-0.5,0.6-1,0.7-1.6c0.1-0.6,0.2-1.2,0.2-1.8
					c0-0.6-0.1-1.3-0.2-1.8c-0.2-0.6-0.4-1.1-0.7-1.6c-0.3-0.5-0.8-0.8-1.3-1.1c-0.5-0.3-1.2-0.4-1.9-0.4c-0.7,0-1.3,0.1-1.8,0.4
					c-0.5,0.3-0.9,0.7-1.2,1.1c-0.3,0.5-0.5,1-0.7,1.6c-0.1,0.6-0.2,1.2-0.2,1.9C309.3,74.1,309.4,74.7,309.5,75.2z"/>
				<path class="st0" d="M341.6,64.4c-0.9-0.6-2-1-3.3-1c-1.1,0-2,0.2-2.8,0.6c-0.8,0.4-1.4,0.9-1.9,1.6c-0.5,0.7-0.9,1.5-1.1,2.3
					c-0.2,0.9-0.4,1.8-0.4,2.7c0,1,0.1,2,0.4,2.9c0.2,0.9,0.6,1.7,1.1,2.4c0.5,0.7,1.1,1.2,1.9,1.6c0.8,0.4,1.7,0.6,2.8,0.6
					c0.8,0,1.5-0.1,2.1-0.4c0.6-0.3,1.1-0.6,1.6-1.1c0.4-0.5,0.8-1,1-1.6c0.3-0.6,0.4-1.3,0.5-2.1h2.4c-0.2,2.3-1,4-2.3,5.3
					c-1.3,1.3-3.1,1.9-5.4,1.9c-1.4,0-2.6-0.2-3.6-0.7c-1-0.5-1.9-1.1-2.6-2c-0.7-0.8-1.2-1.8-1.5-3c-0.3-1.1-0.5-2.4-0.5-3.7
					c0-1.3,0.2-2.5,0.6-3.7c0.4-1.1,0.9-2.2,1.6-3c0.7-0.9,1.6-1.5,2.7-2c1.1-0.5,2.3-0.7,3.7-0.7c0.9,0,1.8,0.1,2.7,0.4
					c0.8,0.3,1.6,0.6,2.2,1.1c0.7,0.5,1.2,1.1,1.6,1.8c0.4,0.7,0.7,1.6,0.9,2.5h-2.4C343.1,66,342.5,65.1,341.6,64.4z"/>
				<path class="st0" d="M359,80.1c-0.6,0-1-0.2-1.3-0.5c-0.3-0.3-0.5-0.8-0.5-1.5c-0.6,0.7-1.3,1.2-2.1,1.5
					c-0.8,0.3-1.6,0.5-2.5,0.5c-0.6,0-1.1-0.1-1.7-0.2c-0.5-0.1-1-0.3-1.4-0.6c-0.4-0.3-0.7-0.7-0.9-1.1c-0.2-0.5-0.3-1-0.3-1.7
					c0-0.7,0.1-1.3,0.4-1.8c0.3-0.5,0.6-0.9,1-1.1c0.4-0.3,0.9-0.5,1.4-0.7c0.5-0.2,1.1-0.3,1.6-0.4c0.6-0.1,1.1-0.2,1.7-0.3
					c0.5-0.1,1-0.1,1.4-0.3c0.4-0.1,0.7-0.3,1-0.5c0.2-0.2,0.4-0.5,0.4-0.9c0-0.5-0.1-0.8-0.3-1.1c-0.2-0.3-0.4-0.5-0.7-0.7
					c-0.3-0.2-0.6-0.3-0.9-0.3c-0.3-0.1-0.7-0.1-1-0.1c-0.9,0-1.7,0.2-2.3,0.5c-0.6,0.3-0.9,1-1,2h-2.1c0-0.8,0.2-1.5,0.5-2
					c0.3-0.6,0.7-1,1.2-1.3c0.5-0.3,1.1-0.6,1.7-0.7c0.7-0.2,1.3-0.2,2.1-0.2c0.6,0,1.2,0,1.7,0.1c0.6,0.1,1.1,0.3,1.6,0.5
					c0.5,0.3,0.8,0.6,1.1,1.1c0.3,0.5,0.4,1.1,0.4,1.8v6.7c0,0.5,0,0.9,0.1,1.1c0.1,0.2,0.3,0.4,0.6,0.4c0.2,0,0.4,0,0.7-0.1v1.7
					C360.1,80,359.6,80.1,359,80.1z M356,73.6c-0.4,0.1-0.9,0.2-1.4,0.2c-0.5,0.1-1,0.1-1.4,0.2c-0.5,0.1-0.9,0.2-1.3,0.4
					c-0.4,0.2-0.7,0.4-0.9,0.7c-0.2,0.3-0.4,0.7-0.4,1.3c0,0.4,0.1,0.7,0.2,0.9c0.1,0.2,0.3,0.4,0.6,0.6c0.2,0.2,0.5,0.3,0.8,0.3
					c0.3,0.1,0.6,0.1,0.9,0.1c0.7,0,1.3-0.1,1.8-0.3c0.5-0.2,0.9-0.4,1.2-0.7c0.3-0.3,0.6-0.6,0.7-1c0.2-0.3,0.2-0.7,0.2-1v-2.2
					C356.7,73.3,356.4,73.5,356,73.6z"/>
				<path class="st0" d="M364.8,66.8v2.7h0.1c0.5-1.1,1.2-1.8,1.9-2.3c0.8-0.5,1.7-0.7,2.9-0.7v2.3c-0.9,0-1.6,0.1-2.2,0.4
					c-0.6,0.2-1.1,0.6-1.5,1c-0.4,0.5-0.6,1-0.8,1.6c-0.2,0.6-0.3,1.4-0.3,2.2v5.8h-2.1v-13H364.8z"/>
				<path class="st0" d="M380.4,79c-1,0.7-2.2,1.1-3.7,1.1c-1,0-1.9-0.2-2.7-0.5c-0.8-0.3-1.4-0.8-1.9-1.4c-0.5-0.6-0.9-1.3-1.2-2.2
					c-0.3-0.8-0.4-1.8-0.4-2.7c0-1,0.2-1.9,0.5-2.7c0.3-0.8,0.7-1.5,1.3-2.1c0.5-0.6,1.2-1.1,1.9-1.4c0.7-0.3,1.6-0.5,2.5-0.5
					c1.2,0,2.1,0.2,2.9,0.7c0.8,0.5,1.4,1.1,1.8,1.8c0.5,0.7,0.8,1.5,1,2.4c0.2,0.9,0.2,1.7,0.2,2.5h-9.7c0,0.6,0.1,1.1,0.2,1.6
					c0.2,0.5,0.4,1,0.7,1.4c0.3,0.4,0.8,0.7,1.3,0.9c0.5,0.2,1.1,0.4,1.8,0.4c0.9,0,1.6-0.2,2.2-0.6c0.6-0.4,1-1.1,1.1-1.9h2.1
					C382,77.2,381.3,78.3,380.4,79z M379.9,70.7c-0.2-0.5-0.5-0.8-0.8-1.2c-0.3-0.3-0.7-0.6-1.2-0.8c-0.4-0.2-0.9-0.3-1.5-0.3
					c-0.6,0-1.1,0.1-1.5,0.3c-0.4,0.2-0.8,0.5-1.1,0.8c-0.3,0.3-0.6,0.7-0.8,1.2c-0.2,0.4-0.3,0.9-0.3,1.4h7.5
					C380.2,71.6,380,71.1,379.9,70.7z"/>
			</g>
		</g>
		<g>
			<path d="M10.5,61.9c2.8,0,4.9,0.7,6.4,2.1c1.5,1.4,2.2,3.6,2.2,6.4c0,1.5-0.2,2.8-0.5,4c-0.3,1.2-0.9,2.1-1.6,2.9
				c-0.7,0.8-1.6,1.4-2.7,1.8c-1.1,0.4-2.4,0.6-3.9,0.6H4.3v-18H10.5z M10.7,77.8c0.3,0,0.6,0,1-0.1c0.4,0,0.8-0.1,1.3-0.3
				c0.5-0.2,0.9-0.4,1.3-0.7c0.4-0.3,0.8-0.7,1.2-1.2c0.4-0.5,0.6-1.2,0.9-2c0.2-0.8,0.3-1.7,0.3-2.8c0-1.1-0.1-2-0.3-2.9
				c-0.2-0.8-0.6-1.6-1-2.2c-0.5-0.6-1.1-1-1.8-1.4c-0.8-0.3-1.7-0.5-2.8-0.5h-4v13.9H10.7z"/>
			<path d="M34.8,61.9v2h-10v5.7h9.3v2h-9.3v6.2h10.1v2H22.4v-18H34.8z"/>
			<path d="M50.6,61.9v2h-10v5.7h9.3v2h-9.3v6.2h10.1v2H38.2v-18H50.6z"/>
			<path d="M75.1,79.9L71,64.8h-0.1l-4.2,15.1h-2.5l-4.6-18h2.4l3.5,15h0l4-15h2.6l4,15h0.1l3.6-15h2.4l-4.8,18H75.1z"/>
			<path d="M87.4,61.9v7.7h9.5v-7.7h2.4v18h-2.4v-8.2h-9.5v8.2H85v-18H87.4z"/>
			<path d="M111,79.9h-2.4v-7.3l-6.9-10.6h2.8l5.4,8.6l5.3-8.6h2.7L111,72.5V79.9z"/>
		</g>
	</g>
</g>
<g>
</g>
<g>
</g>
<g>
</g>
<g>
</g>
<g>
</g>
<g>
</g>
</svg>
