<?xml version="1.0" encoding="utf-8"?>
<!-- Generator: Adobe Illustrator 19.1.0, SVG Export Plug-In . SVG Version: 6.00 Build 0)  -->
<!DOCTYPE svg PUBLIC "-//W3C//DTD SVG 1.1//EN" "http://www.w3.org/Graphics/SVG/1.1/DTD/svg11.dtd">
<svg version="1.1" id="Layer_1" xmlns="http://www.w3.org/2000/svg" xmlns:xlink="http://www.w3.org/1999/xlink" x="0px" y="0px"
	 viewBox="0 0 385.5 87.9" style="enable-background:new 0 0 385.5 87.9;" xml:space="preserve">
<style type="text/css">
	.st0{fill:#6D6E71;}
	.st1{fill:#6CB33F;}
</style>
<rect x="2.8" y="51.4" class="st0" width="380" height="1"/>
<g>
	<path class="st1" d="M3.2,39.4h4.8c1.9,0,2.8-1.2,2.8-3.1V8.4c0-2-0.8-3.2-2.8-3.2H3.2V2h25.4C36,2,42.9,4.9,42.9,12.3
		c0,6.6-5.6,9-11.3,9.5V22c7.3,0.7,8.9,5.7,8.9,15c0,2.7,0.4,3.2,2,3.2c1.9,0,2.1-3.1,2.1-4.5v-3.1h3.2c0,8.9-2.3,11.3-6.9,11.3
		c-4.3,0-6.3-2.4-6.3-5.8c0-10.6-1.8-15-10.1-15h-8v13.2c0,2,0.9,3.1,2.8,3.1h4.8v3.2h-21V39.4z M16.6,19.9h9.9
		c6.2,0,9.9-1.8,9.9-7.3c0-5.4-2.4-7.3-11.1-7.3h-8.6V19.9z"/>
	<path class="st1" d="M82.2,28.3c0,8.8-5.9,15.2-15.8,15.2s-15.8-6.4-15.8-15.2c0-8.8,5.9-15.2,15.8-15.2S82.2,19.5,82.2,28.3z
		 M56.4,28.3c0,6.6,2.4,12.4,10,12.4c7.6,0,10-5.8,10-12.4c0-6.6-2.4-12.4-10-12.4C58.8,15.9,56.4,21.7,56.4,28.3z"/>
	<path class="st1" d="M88.8,31c0.9,5.8,5.6,9.6,11.4,9.6c3.7,0,6.4-1.8,6.4-4.8C106.5,28,86,34,86,21.5c0-6.1,5.6-8.4,10.9-8.4
		c3.4,0,6.9,1.2,9.5,3.5l1.1-2.9h2.8v11.3h-2.9c-0.7-5.4-5.3-9-10.3-9c-2.7,0-5.8,0.9-5.8,4.9c0,7.3,20.6,1.8,20.6,13.8
		c0,6.4-5.8,8.9-11.4,8.9c-3.8,0-7.6-1.2-10.4-3.8l-1.2,3.2h-3.2V31H88.8z"/>
	<path class="st1" d="M121.2,28.7c0,6.2,1.3,12,8.6,12c4.9,0,7.9-2.6,9.2-7.3h3.5c-1.3,6.6-5.6,10.2-12.8,10.2
		c-9.1,0-14.3-5.2-14.3-15.2S120.6,13,129.7,13c9.9,0,13,6.9,13.6,15.6H121.2z M137.4,25.8c0-5.3-2.4-9.9-8-9.9
		c-5.7,0-8.3,4.5-8.3,9.9H137.4z"/>
	<path class="st1" d="M169.9,37.1h-0.1c-2.2,4.1-4.8,6.4-10.2,6.4c-9.2,0-13.2-7.8-13.2-15.2s4-15.2,13.2-15.2
		c3.9,0,8.1,2.2,10.2,6.1h0.1V8.4c0-2-0.8-3.5-2.8-3.5h-3.2V2h11.2v35.5c0,1.5,0.9,2.2,2.3,2.2h3.5v2.9h-11V37.1z M152.2,28.3
		c0,7,2.4,11.8,8.1,11.8c6.9,0,9.4-5.7,9.4-11.8c0-6.1-2.5-11.8-8.8-11.8C154.7,16.5,152.2,22.2,152.2,28.3z"/>
	<path class="st1" d="M210.1,37.4H210c-2.4,3.9-6.1,6.1-10.8,6.1c-6.4,0-9.9-2.9-9.9-9.6V19.7c0-1.9-0.4-2.8-2.4-2.8h-3.7V14h11.3
		v19.4c0,4.2,1.6,6.7,6.3,6.7c5.8,0,9.2-4.7,9.2-9.5V19.7c0-1.9-0.4-2.8-2.4-2.8h-3.7V14h11.4v23c0,1.9,0.4,2.8,2.4,2.8h4v2.9h-11.6
		V37.4z"/>
	<path class="st1" d="M236,20.1h0.1c1.5-4.2,5.1-7.1,8.7-7.1c4.2,0,6.9,2.3,6.9,6.5c0,2.3-1,4.1-3.4,4.1c-1.7,0-3.4-1-3.4-2.8
		c0-2.2,1.5-3.2,3.7-3.2c-0.3-1.4-2.2-1.7-3.5-1.7c-5.8,0-8.8,6.7-8.8,12.7v8.3c0,1.9,1.1,2.8,3.1,2.8h3.3v2.9h-18v-2.9h4
		c2,0,2.4-0.9,2.4-2.8V19.7c0-1.9-0.4-2.8-2.4-2.8h-4.2V14H236V20.1z"/>
	<path class="st1" d="M266.2,19.2h0.1c2.4-3.9,6.1-6.1,10.8-6.1c6.4,0,9.9,4.2,9.9,10.6v13.3c0,1.9,0.4,2.8,2.4,2.8h3.7v2.9H276
		v-2.9h3.4c2,0,2.4-0.9,2.4-2.8V23.2c0-4.2-1.6-6.7-6.3-6.7c-5.8,0-9.2,4.7-9.2,9.5v10.9c0,1.9,0.4,2.8,2.4,2.8h3.7v2.9h-17.8v-2.9
		h4c2,0,2.4-0.9,2.4-2.8V19.7c0-1.9-0.4-2.8-2.4-2.8h-4V14h11.6V19.2z"/>
	<path class="st1" d="M320.3,37.4c0,1.8,0.5,3.2,1.6,3.2c2.6,0,2.9-3.4,2.9-5.2v-2.6h2.9v1.8c0,6.5-2.2,8.9-6.9,8.9
		c-3.1,0-4.9-1.8-5.4-4.8c-3,3.3-6.4,4.8-10.8,4.8c-5,0-9-2.2-9-7.7c0-8,11-7.8,17.2-10.8c1.9-0.9,2.3-2.1,2.3-3.9
		c0-3.5-1.5-5.3-6.9-5.3c-2.4,0-5.4,0.4-7.2,2.4c1.8,0.3,2.8,1.3,2.8,3.1c0,2.4-2,3.2-3.7,3.2c-2.1,0-3.2-1.9-3.2-4.3
		c0-5.2,7-7.3,11.6-7.3c7,0,11.6,2.1,11.6,10V37.4z M315.1,27c-2.6,1.5-5.4,2.1-9.1,3.7c-3.3,1.4-4.7,2.8-4.7,4.9
		c0,3.2,1.7,5.1,4.8,5.1c4,0,8.9-3.8,8.9-8V27z"/>
	<path class="st1" d="M329.9,14c5.8-0.8,6.9-6.9,7.2-11.9h3.2V14h8.7v2.9h-8.7V37c0,2.5,1,3.6,3.1,3.6c2.6,0,4.3-2.4,4.3-6v-3.5h2.9
		v2.6c0,5.9-1.8,9.8-8.3,9.8c-5.4,0-7.1-3.5-7.1-7V16.8h-5.2V14z"/>
	<path class="st1" d="M359.3,28.7c0,6.2,1.3,12,8.6,12c4.9,0,7.9-2.6,9.2-7.3h3.5c-1.3,6.6-5.6,10.2-12.8,10.2
		c-9.1,0-14.3-5.2-14.3-15.2S358.7,13,367.8,13c9.9,0,13,6.9,13.6,15.6H359.3z M375.5,25.8c0-5.3-2.4-9.9-8-9.9
		c-5.7,0-8.3,4.5-8.3,9.9H375.5z"/>
</g>
<g>
	<g>
		<g>
			<path class="st0" d="M124.7,61.1c1.8,0,3.2,0.4,4.2,1.3c1,0.9,1.5,2.1,1.5,3.6c0,1.1-0.3,2.1-0.8,3c-0.5,0.9-1.3,1.4-2.5,1.8v0.1
				c0.5,0.1,1,0.3,1.3,0.5c0.3,0.2,0.6,0.5,0.8,0.9c0.2,0.3,0.3,0.7,0.4,1.1c0.1,0.4,0.2,0.9,0.2,1.3c0,0.5,0.1,0.9,0.1,1.4
				c0,0.5,0.1,0.9,0.1,1.4c0.1,0.5,0.2,0.9,0.3,1.3c0.1,0.4,0.3,0.8,0.6,1.1h-2.8c-0.2-0.2-0.3-0.5-0.4-0.8
				c-0.1-0.3-0.1-0.7-0.1-1.1c0-0.4,0-0.9-0.1-1.3c0-0.5-0.1-0.9-0.2-1.4c-0.1-0.5-0.2-0.9-0.3-1.3c-0.1-0.4-0.3-0.8-0.5-1.1
				c-0.2-0.3-0.5-0.5-0.9-0.7c-0.4-0.2-0.9-0.3-1.5-0.3h-6.1v8h-2.5V61.1H124.7z M125.2,69.6c0.5-0.1,1-0.3,1.4-0.5
				c0.4-0.3,0.7-0.6,0.9-1c0.2-0.4,0.4-1,0.4-1.7c0-0.9-0.3-1.7-0.8-2.3c-0.5-0.6-1.4-0.9-2.5-0.9h-6.2v6.5h5.2
				C124.2,69.8,124.7,69.7,125.2,69.6z"/>
			<path class="st0" d="M143.5,79c-1,0.8-2.3,1.2-3.8,1.2c-1.1,0-2-0.2-2.8-0.5c-0.8-0.3-1.5-0.8-2-1.5c-0.5-0.6-0.9-1.4-1.2-2.3
				c-0.3-0.9-0.4-1.8-0.5-2.9c0-1,0.2-2,0.5-2.8c0.3-0.9,0.8-1.6,1.3-2.2c0.6-0.6,1.2-1.1,2-1.5c0.8-0.3,1.6-0.5,2.6-0.5
				c1.2,0,2.2,0.2,3,0.7c0.8,0.5,1.4,1.1,1.9,1.9c0.5,0.8,0.8,1.6,1,2.5c0.2,0.9,0.3,1.8,0.2,2.6h-10.1c0,0.6,0.1,1.2,0.2,1.7
				c0.2,0.5,0.4,1,0.8,1.4c0.3,0.4,0.8,0.7,1.3,1c0.5,0.2,1.2,0.4,1.9,0.4c0.9,0,1.7-0.2,2.3-0.7c0.6-0.4,1-1.1,1.2-2h2.2
				C145.1,77.1,144.5,78.2,143.5,79z M142.9,70.3c-0.2-0.5-0.5-0.9-0.8-1.2c-0.3-0.3-0.7-0.6-1.2-0.8c-0.5-0.2-1-0.3-1.5-0.3
				c-0.6,0-1.1,0.1-1.6,0.3c-0.5,0.2-0.9,0.5-1.2,0.8c-0.3,0.3-0.6,0.8-0.8,1.2c-0.2,0.5-0.3,1-0.3,1.5h7.8
				C143.2,71.3,143.1,70.8,142.9,70.3z"/>
			<path class="st0" d="M150,76.8c0.2,0.3,0.5,0.6,0.8,0.8c0.3,0.2,0.7,0.3,1.2,0.4c0.4,0.1,0.9,0.1,1.3,0.1c0.3,0,0.7,0,1.1-0.1
				c0.4-0.1,0.7-0.1,1.1-0.3c0.3-0.1,0.6-0.3,0.8-0.6c0.2-0.3,0.3-0.6,0.3-1c0-0.6-0.2-1-0.7-1.3c-0.4-0.3-1-0.5-1.6-0.7
				c-0.7-0.2-1.4-0.3-2.1-0.5c-0.8-0.1-1.5-0.4-2.1-0.6c-0.7-0.3-1.2-0.7-1.6-1.1c-0.4-0.5-0.7-1.2-0.7-2c0-0.7,0.2-1.3,0.5-1.8
				c0.3-0.5,0.7-0.9,1.2-1.2c0.5-0.3,1-0.5,1.6-0.7c0.6-0.1,1.2-0.2,1.8-0.2c0.8,0,1.5,0.1,2.1,0.2c0.6,0.1,1.2,0.4,1.7,0.7
				c0.5,0.3,0.9,0.8,1.2,1.3c0.3,0.5,0.5,1.2,0.5,2.1h-2.2c0-0.4-0.1-0.8-0.3-1.1c-0.2-0.3-0.4-0.5-0.7-0.7c-0.3-0.2-0.6-0.3-1-0.4
				c-0.4-0.1-0.7-0.1-1.1-0.1c-0.3,0-0.7,0-1,0.1c-0.3,0.1-0.7,0.1-0.9,0.3c-0.3,0.1-0.5,0.3-0.7,0.5c-0.2,0.2-0.3,0.5-0.3,0.9
				c0,0.4,0.1,0.7,0.4,1c0.3,0.3,0.6,0.5,1,0.6c0.4,0.2,0.9,0.3,1.4,0.4c0.5,0.1,1,0.2,1.6,0.4c0.6,0.1,1.1,0.3,1.6,0.4
				c0.5,0.2,1,0.4,1.4,0.7c0.4,0.3,0.7,0.7,1,1.1c0.3,0.4,0.4,1,0.4,1.6c0,0.8-0.2,1.5-0.5,2c-0.3,0.5-0.8,1-1.3,1.3
				c-0.6,0.3-1.2,0.6-1.9,0.7c-0.7,0.1-1.4,0.2-2.1,0.2c-0.8,0-1.5-0.1-2.1-0.2c-0.7-0.2-1.3-0.4-1.8-0.8c-0.5-0.4-0.9-0.8-1.3-1.4
				c-0.3-0.6-0.5-1.3-0.5-2.1h2.2C149.7,76.1,149.8,76.5,150,76.8z"/>
			<path class="st0" d="M162,63.9v-2.7h2.2v2.7H162z M164.2,66.3v13.5H162V66.3H164.2z"/>
			<path class="st0" d="M177.9,79.8V78h-0.1c-0.4,0.8-0.9,1.3-1.7,1.6c-0.8,0.3-1.7,0.5-2.6,0.5c-1,0-2-0.2-2.7-0.6
				c-0.8-0.4-1.4-0.9-1.9-1.5c-0.5-0.6-0.9-1.4-1.2-2.3c-0.3-0.9-0.4-1.8-0.4-2.7c0-1,0.1-1.9,0.4-2.7c0.3-0.9,0.6-1.6,1.2-2.2
				c0.5-0.6,1.2-1.1,1.9-1.5c0.8-0.4,1.7-0.6,2.7-0.6c0.3,0,0.7,0,1.1,0.1c0.4,0.1,0.8,0.2,1.2,0.4c0.4,0.2,0.8,0.4,1.1,0.7
				c0.4,0.3,0.7,0.6,0.9,1h0.1v-7h2.2v18.7H177.9z M169.9,75c0.2,0.6,0.4,1.1,0.8,1.6c0.3,0.5,0.8,0.8,1.3,1.1
				c0.5,0.3,1.2,0.4,1.9,0.4c0.8,0,1.4-0.1,1.9-0.4c0.5-0.3,1-0.7,1.3-1.2c0.3-0.5,0.6-1,0.7-1.6c0.1-0.6,0.2-1.2,0.2-1.9
				c0-0.7-0.1-1.3-0.2-1.9c-0.2-0.6-0.4-1.2-0.7-1.6c-0.3-0.5-0.8-0.9-1.3-1.1s-1.2-0.4-2-0.4c-0.8,0-1.4,0.1-1.9,0.4
				c-0.5,0.3-0.9,0.7-1.3,1.2c-0.3,0.5-0.5,1-0.7,1.7c-0.1,0.6-0.2,1.3-0.2,1.9C169.7,73.8,169.7,74.4,169.9,75z"/>
			<path class="st0" d="M193.5,79c-1,0.8-2.3,1.2-3.8,1.2c-1.1,0-2-0.2-2.8-0.5c-0.8-0.3-1.5-0.8-2-1.5c-0.5-0.6-0.9-1.4-1.2-2.3
				c-0.3-0.9-0.4-1.8-0.5-2.9c0-1,0.2-2,0.5-2.8c0.3-0.9,0.8-1.6,1.3-2.2c0.6-0.6,1.2-1.1,2-1.5c0.8-0.3,1.6-0.5,2.6-0.5
				c1.2,0,2.2,0.2,3,0.7c0.8,0.5,1.4,1.1,1.9,1.9c0.5,0.8,0.8,1.6,1,2.5c0.2,0.9,0.3,1.8,0.2,2.6h-10.1c0,0.6,0.1,1.2,0.2,1.7
				c0.2,0.5,0.4,1,0.8,1.4c0.3,0.4,0.8,0.7,1.3,1c0.5,0.2,1.2,0.4,1.9,0.4c0.9,0,1.7-0.2,2.3-0.7c0.6-0.4,1-1.1,1.2-2h2.2
				C195.2,77.1,194.6,78.2,193.5,79z M193,70.3c-0.2-0.5-0.5-0.9-0.8-1.2c-0.3-0.3-0.7-0.6-1.2-0.8c-0.5-0.2-1-0.3-1.5-0.3
				c-0.6,0-1.1,0.1-1.6,0.3c-0.5,0.2-0.9,0.5-1.2,0.8c-0.3,0.3-0.6,0.8-0.8,1.2c-0.2,0.5-0.3,1-0.3,1.5h7.8
				C193.3,71.3,193.2,70.8,193,70.3z"/>
			<path class="st0" d="M200.5,66.3v2.1h0.1c0.9-1.6,2.4-2.5,4.4-2.5c0.9,0,1.6,0.1,2.2,0.4c0.6,0.2,1.1,0.6,1.4,1
				c0.4,0.4,0.6,1,0.8,1.6c0.1,0.6,0.2,1.3,0.2,2v8.9h-2.2v-9.2c0-0.8-0.2-1.5-0.7-2c-0.5-0.5-1.2-0.7-2-0.7c-0.7,0-1.3,0.1-1.8,0.3
				c-0.5,0.2-0.9,0.5-1.2,0.9c-0.3,0.4-0.6,0.8-0.7,1.3c-0.2,0.5-0.2,1.1-0.2,1.7v7.6h-2.2V66.3H200.5z"/>
			<path class="st0" d="M219.2,66.3v2h-2.7v8.4c0,0.3,0,0.5,0.1,0.6c0,0.2,0.1,0.3,0.2,0.4c0.1,0.1,0.3,0.1,0.5,0.2
				c0.2,0,0.5,0,0.9,0h1v2h-1.7c-0.6,0-1.1,0-1.5-0.1c-0.4-0.1-0.7-0.2-1-0.4c-0.3-0.2-0.4-0.5-0.6-0.9c-0.1-0.4-0.2-0.9-0.2-1.5
				v-8.6h-2.3v-2h2.3v-4.1h2.2v4.1H219.2z"/>
			<path class="st0" d="M222.1,63.9v-2.7h2.2v2.7H222.1z M224.4,66.3v13.5h-2.2V66.3H224.4z"/>
			<path class="st0" d="M238.6,80.1c-0.6,0-1-0.2-1.4-0.5c-0.3-0.3-0.5-0.9-0.5-1.6c-0.6,0.7-1.3,1.3-2.1,1.6
				c-0.8,0.3-1.7,0.5-2.6,0.5c-0.6,0-1.2-0.1-1.7-0.2c-0.5-0.1-1-0.3-1.4-0.7c-0.4-0.3-0.7-0.7-1-1.2c-0.2-0.5-0.4-1.1-0.4-1.7
				c0-0.8,0.1-1.4,0.4-1.9c0.3-0.5,0.6-0.9,1-1.2c0.4-0.3,0.9-0.5,1.5-0.7c0.5-0.2,1.1-0.3,1.7-0.4c0.6-0.1,1.2-0.2,1.7-0.3
				s1-0.1,1.5-0.3c0.4-0.1,0.8-0.3,1-0.5c0.2-0.2,0.4-0.5,0.4-1c0-0.5-0.1-0.9-0.3-1.2c-0.2-0.3-0.4-0.5-0.7-0.7
				c-0.3-0.2-0.6-0.3-1-0.3c-0.4-0.1-0.7-0.1-1.1-0.1c-0.9,0-1.7,0.2-2.4,0.5c-0.6,0.4-1,1-1,2H228c0-0.8,0.2-1.5,0.5-2.1
				c0.3-0.6,0.7-1,1.3-1.4c0.5-0.4,1.1-0.6,1.8-0.8c0.7-0.2,1.4-0.2,2.1-0.2c0.6,0,1.2,0,1.8,0.1c0.6,0.1,1.1,0.3,1.6,0.5
				c0.5,0.3,0.9,0.7,1.2,1.1c0.3,0.5,0.4,1.1,0.4,1.9v7c0,0.5,0,0.9,0.1,1.2c0.1,0.2,0.3,0.4,0.6,0.4c0.2,0,0.4,0,0.7-0.1v1.7
				C239.8,80,239.3,80.1,238.6,80.1z M235.5,73.3c-0.5,0.1-0.9,0.2-1.4,0.2c-0.5,0.1-1,0.1-1.5,0.2c-0.5,0.1-1,0.2-1.4,0.4
				c-0.4,0.2-0.7,0.4-1,0.7c-0.3,0.3-0.4,0.8-0.4,1.3c0,0.4,0.1,0.7,0.2,0.9c0.1,0.3,0.3,0.5,0.6,0.6c0.2,0.2,0.5,0.3,0.8,0.3
				c0.3,0.1,0.7,0.1,1,0.1c0.7,0,1.4-0.1,1.9-0.3c0.5-0.2,1-0.5,1.3-0.8c0.3-0.3,0.6-0.6,0.7-1c0.2-0.4,0.2-0.7,0.2-1v-2.3
				C236.3,73.1,235.9,73.2,235.5,73.3z"/>
			<path class="st0" d="M245,61.1v18.7h-2.2V61.1H245z"/>
			<path class="st0" d="M264.7,61.1l7.3,18.7h-2.8l-2-5.6h-7.9l-2.1,5.6h-2.5l7.3-18.7H264.7z M266.5,72.1l-3.1-8.7h-0.1l-3.2,8.7
				H266.5z"/>
			<path class="st0" d="M284.1,83.7c-1,1.1-2.6,1.7-4.8,1.7c-0.6,0-1.3-0.1-1.9-0.2c-0.7-0.1-1.2-0.4-1.8-0.7
				c-0.5-0.3-1-0.7-1.3-1.2c-0.3-0.5-0.5-1.1-0.6-1.9h2.2c0,0.4,0.1,0.7,0.4,1c0.2,0.3,0.5,0.5,0.9,0.7c0.3,0.2,0.7,0.3,1.1,0.4
				c0.4,0.1,0.8,0.1,1.2,0.1c0.7,0,1.4-0.1,1.9-0.4c0.5-0.3,0.9-0.6,1.3-1c0.3-0.4,0.6-1,0.7-1.6c0.1-0.6,0.2-1.3,0.2-2.1v-0.9h-0.1
				c-0.4,0.8-1,1.5-1.7,1.8c-0.8,0.4-1.6,0.6-2.5,0.6c-1,0-1.9-0.2-2.6-0.5c-0.8-0.4-1.4-0.9-1.9-1.5c-0.5-0.6-0.9-1.3-1.1-2.2
				c-0.3-0.8-0.4-1.7-0.4-2.6c0-0.8,0.1-1.6,0.3-2.5c0.2-0.8,0.6-1.6,1-2.3c0.5-0.7,1.1-1.3,1.9-1.7c0.8-0.4,1.8-0.7,3-0.7
				c0.9,0,1.6,0.2,2.4,0.6c0.7,0.4,1.3,0.9,1.7,1.7h0v-1.9h2.1v12.4C285.6,80.9,285.1,82.6,284.1,83.7z M281.2,77.6
				c0.5-0.3,0.9-0.7,1.2-1.2c0.3-0.5,0.5-1.1,0.7-1.7c0.1-0.6,0.2-1.3,0.2-1.9c0-0.6-0.1-1.2-0.2-1.8c-0.1-0.6-0.4-1.1-0.7-1.6
				c-0.3-0.5-0.7-0.8-1.2-1.1c-0.5-0.3-1.1-0.4-1.8-0.4c-0.7,0-1.3,0.1-1.8,0.4c-0.5,0.3-0.9,0.6-1.2,1.1c-0.3,0.5-0.6,1-0.7,1.6
				c-0.1,0.6-0.2,1.2-0.2,1.9c0,0.6,0.1,1.2,0.2,1.8c0.1,0.6,0.3,1.2,0.6,1.7c0.3,0.5,0.7,0.9,1.2,1.2c0.5,0.3,1.1,0.5,1.8,0.5
				C280.1,78,280.7,77.9,281.2,77.6z"/>
			<path class="st0" d="M298.9,79c-1,0.8-2.3,1.2-3.8,1.2c-1.1,0-2-0.2-2.8-0.5c-0.8-0.3-1.5-0.8-2-1.5c-0.5-0.6-0.9-1.4-1.2-2.3
				c-0.3-0.9-0.4-1.8-0.5-2.9c0-1,0.2-2,0.5-2.8c0.3-0.9,0.8-1.6,1.3-2.2c0.6-0.6,1.2-1.1,2-1.5c0.8-0.3,1.6-0.5,2.6-0.5
				c1.2,0,2.2,0.2,3,0.7c0.8,0.5,1.4,1.1,1.9,1.9c0.5,0.8,0.8,1.6,1,2.5c0.2,0.9,0.3,1.8,0.2,2.6H291c0,0.6,0.1,1.2,0.2,1.7
				c0.2,0.5,0.4,1,0.8,1.4c0.3,0.4,0.8,0.7,1.3,1c0.5,0.2,1.2,0.4,1.9,0.4c0.9,0,1.7-0.2,2.3-0.7c0.6-0.4,1-1.1,1.2-2h2.2
				C300.6,77.1,299.9,78.2,298.9,79z M298.4,70.3c-0.2-0.5-0.5-0.9-0.8-1.2c-0.3-0.3-0.7-0.6-1.2-0.8c-0.5-0.2-1-0.3-1.5-0.3
				c-0.6,0-1.1,0.1-1.6,0.3c-0.5,0.2-0.9,0.5-1.2,0.8c-0.3,0.3-0.6,0.8-0.8,1.2c-0.2,0.5-0.3,1-0.3,1.5h7.8
				C298.7,71.3,298.6,70.8,298.4,70.3z"/>
			<path class="st0" d="M313.7,79.8V78h-0.1c-0.4,0.8-0.9,1.3-1.7,1.6c-0.8,0.3-1.7,0.5-2.6,0.5c-1,0-2-0.2-2.7-0.6
				c-0.8-0.4-1.4-0.9-1.9-1.5c-0.5-0.6-0.9-1.4-1.2-2.3c-0.3-0.9-0.4-1.8-0.4-2.7c0-1,0.1-1.9,0.4-2.7c0.3-0.9,0.6-1.6,1.2-2.2
				c0.5-0.6,1.2-1.1,1.9-1.5c0.8-0.4,1.7-0.6,2.7-0.6c0.3,0,0.7,0,1.1,0.1c0.4,0.1,0.8,0.2,1.2,0.4c0.4,0.2,0.8,0.4,1.1,0.7
				c0.4,0.3,0.7,0.6,0.9,1h0.1v-7h2.2v18.7H313.7z M305.7,75c0.2,0.6,0.4,1.1,0.8,1.6c0.3,0.5,0.8,0.8,1.3,1.1
				c0.5,0.3,1.2,0.4,1.9,0.4c0.8,0,1.4-0.1,1.9-0.4c0.5-0.3,1-0.7,1.3-1.2c0.3-0.5,0.6-1,0.7-1.6c0.1-0.6,0.2-1.2,0.2-1.9
				c0-0.7-0.1-1.3-0.2-1.9c-0.2-0.6-0.4-1.2-0.7-1.6c-0.3-0.5-0.8-0.9-1.3-1.1c-0.5-0.3-1.2-0.4-2-0.4c-0.8,0-1.4,0.1-1.9,0.4
				c-0.5,0.3-0.9,0.7-1.3,1.2c-0.3,0.5-0.5,1-0.7,1.7c-0.1,0.6-0.2,1.3-0.2,1.9C305.4,73.8,305.5,74.4,305.7,75z"/>
			<path class="st0" d="M339.1,63.8c-1-0.7-2.1-1-3.4-1c-1.1,0-2.1,0.2-2.9,0.6c-0.8,0.4-1.4,1-2,1.7c-0.5,0.7-0.9,1.5-1.1,2.4
				c-0.2,0.9-0.4,1.9-0.4,2.8c0,1.1,0.1,2.1,0.4,3c0.2,1,0.6,1.8,1.1,2.5c0.5,0.7,1.2,1.3,2,1.7c0.8,0.4,1.8,0.6,2.9,0.6
				c0.8,0,1.5-0.1,2.2-0.4c0.6-0.3,1.2-0.6,1.6-1.1c0.5-0.5,0.8-1.1,1.1-1.7c0.3-0.7,0.4-1.4,0.5-2.1h2.5c-0.2,2.4-1.1,4.2-2.4,5.5
				c-1.4,1.3-3.3,2-5.7,2c-1.4,0-2.7-0.2-3.8-0.7c-1.1-0.5-2-1.2-2.7-2.1c-0.7-0.9-1.3-1.9-1.6-3.1c-0.4-1.2-0.5-2.5-0.5-3.8
				c0-1.4,0.2-2.6,0.6-3.8c0.4-1.2,0.9-2.2,1.7-3.1c0.7-0.9,1.7-1.6,2.8-2.1c1.1-0.5,2.4-0.8,3.8-0.8c1,0,1.9,0.1,2.8,0.4
				c0.9,0.3,1.7,0.6,2.3,1.2c0.7,0.5,1.2,1.1,1.7,1.9c0.5,0.8,0.8,1.6,0.9,2.6h-2.5C340.6,65.4,340,64.5,339.1,63.8z"/>
			<path class="st0" d="M357.1,80.1c-0.6,0-1-0.2-1.4-0.5c-0.3-0.3-0.5-0.9-0.5-1.6c-0.6,0.7-1.3,1.3-2.1,1.6
				c-0.8,0.3-1.7,0.5-2.6,0.5c-0.6,0-1.2-0.1-1.7-0.2c-0.5-0.1-1-0.3-1.4-0.7c-0.4-0.3-0.7-0.7-1-1.2c-0.2-0.5-0.4-1.1-0.4-1.7
				c0-0.8,0.1-1.4,0.4-1.9c0.3-0.5,0.6-0.9,1-1.2c0.4-0.3,0.9-0.5,1.5-0.7c0.5-0.2,1.1-0.3,1.7-0.4c0.6-0.1,1.2-0.2,1.7-0.3
				c0.5-0.1,1-0.1,1.5-0.3c0.4-0.1,0.8-0.3,1-0.5c0.2-0.2,0.4-0.5,0.4-1c0-0.5-0.1-0.9-0.3-1.2c-0.2-0.3-0.4-0.5-0.7-0.7
				c-0.3-0.2-0.6-0.3-1-0.3c-0.4-0.1-0.7-0.1-1.1-0.1c-0.9,0-1.7,0.2-2.4,0.5c-0.6,0.4-1,1-1,2h-2.2c0-0.8,0.2-1.5,0.5-2.1
				c0.3-0.6,0.7-1,1.3-1.4c0.5-0.4,1.1-0.6,1.8-0.8c0.7-0.2,1.4-0.2,2.1-0.2c0.6,0,1.2,0,1.8,0.1c0.6,0.1,1.1,0.3,1.6,0.5
				c0.5,0.3,0.9,0.7,1.2,1.1c0.3,0.5,0.4,1.1,0.4,1.9v7c0,0.5,0,0.9,0.1,1.2c0.1,0.2,0.3,0.4,0.6,0.4c0.2,0,0.4,0,0.7-0.1v1.7
				C358.3,80,357.8,80.1,357.1,80.1z M354,73.3c-0.5,0.1-0.9,0.2-1.4,0.2c-0.5,0.1-1,0.1-1.5,0.2c-0.5,0.1-1,0.2-1.4,0.4
				c-0.4,0.2-0.7,0.4-1,0.7c-0.3,0.3-0.4,0.8-0.4,1.3c0,0.4,0.1,0.7,0.2,0.9c0.1,0.3,0.3,0.5,0.6,0.6c0.2,0.2,0.5,0.3,0.8,0.3
				c0.3,0.1,0.7,0.1,1,0.1c0.7,0,1.4-0.1,1.9-0.3c0.5-0.2,1-0.5,1.3-0.8c0.3-0.3,0.6-0.6,0.7-1c0.2-0.4,0.2-0.7,0.2-1v-2.3
				C354.8,73.1,354.4,73.2,354,73.3z"/>
			<path class="st0" d="M363.2,66.3v2.9h0.1c0.5-1.1,1.2-1.9,2-2.4c0.8-0.5,1.8-0.8,3-0.7v2.4c-0.9,0-1.6,0.1-2.3,0.4
				c-0.6,0.2-1.1,0.6-1.5,1.1c-0.4,0.5-0.7,1-0.8,1.7c-0.2,0.7-0.3,1.4-0.3,2.3v6h-2.2V66.3H363.2z"/>
			<path class="st0" d="M379.4,79c-1,0.8-2.3,1.2-3.8,1.2c-1.1,0-2-0.2-2.8-0.5c-0.8-0.3-1.5-0.8-2-1.5c-0.5-0.6-0.9-1.4-1.2-2.3
				c-0.3-0.9-0.4-1.8-0.5-2.9c0-1,0.2-2,0.5-2.8c0.3-0.9,0.8-1.6,1.3-2.2c0.6-0.6,1.2-1.1,2-1.5c0.8-0.3,1.6-0.5,2.6-0.5
				c1.2,0,2.2,0.2,3,0.7c0.8,0.5,1.4,1.1,1.9,1.9c0.5,0.8,0.8,1.6,1,2.5c0.2,0.9,0.3,1.8,0.2,2.6h-10.1c0,0.6,0.1,1.2,0.2,1.7
				c0.2,0.5,0.4,1,0.8,1.4c0.3,0.4,0.8,0.7,1.3,1c0.5,0.2,1.2,0.4,1.9,0.4c0.9,0,1.7-0.2,2.3-0.7c0.6-0.4,1-1.1,1.2-2h2.2
				C381,77.1,380.4,78.2,379.4,79z M378.8,70.3c-0.2-0.5-0.5-0.9-0.8-1.2c-0.3-0.3-0.7-0.6-1.2-0.8c-0.5-0.2-1-0.3-1.5-0.3
				c-0.6,0-1.1,0.1-1.6,0.3c-0.5,0.2-0.9,0.5-1.2,0.8c-0.3,0.3-0.6,0.8-0.8,1.2c-0.2,0.5-0.3,1-0.3,1.5h7.8
				C379.2,71.3,379,70.8,378.8,70.3z"/>
		</g>
	</g>
	<g>
		<path d="M12,61.1c1.9,0,3.3,0.5,4.3,1.5c1,1,1.5,2.3,1.5,4.1c0,1.7-0.5,3.1-1.5,4.1c-1,1-2.4,1.5-4.3,1.4H6.3v7.6H3.8V61.1H12z
			 M11.2,70.1c1.4,0,2.4-0.3,3.1-0.9c0.7-0.6,1-1.4,1-2.6c0-1.1-0.3-2-1-2.6c-0.7-0.6-1.7-0.9-3.1-0.9H6.3v6.9H11.2z"/>
		<path d="M27.1,61.1l7.3,18.7h-2.7l-2-5.6h-7.9l-2.1,5.6H17l7.3-18.7H27.1z M28.8,72.1l-3.1-8.7h-0.1l-3.2,8.7H28.8z"/>
		<path d="M45.4,61.1c1.8,0,3.2,0.4,4.2,1.3c1,0.9,1.5,2.1,1.5,3.6c0,1.1-0.3,2.1-0.8,3c-0.5,0.9-1.3,1.4-2.5,1.8v0.1
			c0.5,0.1,1,0.3,1.3,0.5c0.3,0.2,0.6,0.5,0.8,0.9c0.2,0.3,0.3,0.7,0.4,1.1c0.1,0.4,0.2,0.9,0.2,1.3c0,0.5,0.1,0.9,0.1,1.4
			c0,0.5,0.1,0.9,0.1,1.4c0.1,0.5,0.2,0.9,0.3,1.3c0.1,0.4,0.3,0.8,0.6,1.1h-2.8c-0.2-0.2-0.3-0.5-0.4-0.8c-0.1-0.3-0.1-0.7-0.1-1.1
			c0-0.4,0-0.9-0.1-1.3c0-0.5-0.1-0.9-0.2-1.4c-0.1-0.5-0.2-0.9-0.3-1.3c-0.1-0.4-0.3-0.8-0.5-1.1c-0.2-0.3-0.5-0.5-0.9-0.7
			c-0.4-0.2-0.9-0.3-1.5-0.3h-6.1v8h-2.5V61.1H45.4z M45.9,69.6c0.5-0.1,1-0.3,1.4-0.5c0.4-0.3,0.7-0.6,0.9-1c0.2-0.4,0.4-1,0.4-1.7
			c0-0.9-0.3-1.7-0.8-2.3c-0.5-0.6-1.4-0.9-2.5-0.9h-6.2v6.5h5.2C44.8,69.8,45.4,69.7,45.9,69.6z"/>
		<path d="M57.4,61.1v9.3l9.5-9.3h3.2l-7.9,7.5l8.2,11.2h-3.1l-6.8-9.5l-3.1,2.9v6.5h-2.5V61.1H57.4z"/>
		<path d="M85.7,61.1v2.1H75.3v5.9H85v2.1h-9.7v6.5h10.5v2.1h-13V61.1H85.7z"/>
		<path d="M98.5,63.7c-0.8-0.6-1.9-0.9-3.2-0.9c-0.5,0-1,0.1-1.5,0.2c-0.5,0.1-1,0.3-1.3,0.5c-0.4,0.2-0.7,0.6-0.9,1
			c-0.2,0.4-0.4,0.9-0.4,1.5c0,0.6,0.2,1,0.5,1.4c0.3,0.4,0.8,0.7,1.4,0.9c0.6,0.2,1.2,0.4,1.9,0.6c0.7,0.1,1.4,0.3,2.2,0.5
			c0.7,0.2,1.5,0.4,2.2,0.6c0.7,0.2,1.4,0.6,1.9,1c0.6,0.4,1,0.9,1.4,1.5c0.3,0.6,0.5,1.4,0.5,2.3c0,1-0.2,1.8-0.7,2.6
			c-0.4,0.7-1,1.3-1.7,1.7c-0.7,0.4-1.5,0.8-2.3,1c-0.9,0.2-1.7,0.3-2.6,0.3c-1,0-2-0.1-3-0.4c-0.9-0.3-1.8-0.7-2.5-1.2
			c-0.7-0.5-1.3-1.2-1.7-2c-0.4-0.8-0.6-1.8-0.6-2.9h2.4c0,0.8,0.2,1.5,0.5,2c0.3,0.6,0.7,1,1.2,1.4c0.5,0.4,1.1,0.6,1.7,0.8
			c0.7,0.2,1.3,0.3,2,0.3c0.6,0,1.1-0.1,1.7-0.2c0.6-0.1,1.1-0.3,1.5-0.5c0.5-0.3,0.8-0.6,1.1-1c0.3-0.4,0.4-1,0.4-1.7
			c0-0.6-0.2-1.2-0.5-1.6c-0.3-0.4-0.8-0.7-1.4-1c-0.6-0.3-1.2-0.5-1.9-0.6c-0.7-0.2-1.4-0.3-2.2-0.5c-0.7-0.2-1.5-0.4-2.2-0.6
			c-0.7-0.2-1.4-0.5-1.9-0.9c-0.6-0.4-1-0.8-1.4-1.4c-0.3-0.6-0.5-1.3-0.5-2.1c0-0.9,0.2-1.8,0.6-2.4c0.4-0.7,0.9-1.3,1.5-1.7
			c0.6-0.4,1.4-0.8,2.2-1c0.8-0.2,1.6-0.3,2.5-0.3c1,0,1.9,0.1,2.7,0.3c0.8,0.2,1.5,0.6,2.2,1.1c0.6,0.5,1.1,1.1,1.5,1.8
			c0.4,0.7,0.6,1.6,0.6,2.7H100C99.8,65.3,99.4,64.3,98.5,63.7z"/>
	</g>
</g>
<g>
</g>
<g>
</g>
<g>
</g>
<g>
</g>
<g>
</g>
<g>
</g>
</svg>
