<?xml version="1.0" encoding="utf-8"?>
<!-- Generator: Adobe Illustrator 19.1.0, SVG Export Plug-In . SVG Version: 6.00 Build 0)  -->
<!DOCTYPE svg PUBLIC "-//W3C//DTD SVG 1.1//EN" "http://www.w3.org/Graphics/SVG/1.1/DTD/svg11.dtd">
<svg version="1.1" id="Layer_1" xmlns="http://www.w3.org/2000/svg" xmlns:xlink="http://www.w3.org/1999/xlink" x="0px" y="0px"
	 viewBox="0 0 385.5 73.7" style="enable-background:new 0 0 385.5 73.7;" xml:space="preserve">
<style type="text/css">
	.st0{fill:#6D6E71;}
	.st1{fill:#6CB33F;}
</style>
<g>
	<rect x="2.7" y="41.2" class="st0" width="380.1" height="1"/>
	<g>
		<g>
			<g>
				<path class="st0" d="M163,50.5c1.5,0,2.7,0.4,3.5,1.1c0.9,0.7,1.3,1.8,1.3,3c0,1-0.2,1.8-0.7,2.5c-0.4,0.7-1.1,1.2-2.1,1.5v0
					c0.5,0.1,0.8,0.2,1.1,0.4c0.3,0.2,0.5,0.5,0.7,0.7c0.2,0.3,0.3,0.6,0.4,1c0.1,0.4,0.1,0.7,0.2,1.1c0,0.4,0.1,0.8,0.1,1.2
					c0,0.4,0.1,0.8,0.1,1.2c0.1,0.4,0.1,0.8,0.3,1.1c0.1,0.3,0.3,0.7,0.5,0.9H166c-0.1-0.2-0.2-0.4-0.3-0.7
					c-0.1-0.3-0.1-0.6-0.1-0.9c0-0.3,0-0.7,0-1.1c0-0.4-0.1-0.8-0.1-1.2c-0.1-0.4-0.1-0.8-0.2-1.1c-0.1-0.3-0.2-0.7-0.4-0.9
					c-0.2-0.3-0.4-0.5-0.8-0.6c-0.3-0.2-0.7-0.2-1.2-0.2h-5.2v6.8h-2.1V50.5H163z M163.4,57.7c0.4-0.1,0.8-0.2,1.2-0.4
					c0.3-0.2,0.6-0.5,0.8-0.9c0.2-0.4,0.3-0.8,0.3-1.4c0-0.8-0.2-1.5-0.7-2c-0.4-0.5-1.2-0.8-2.2-0.8h-5.2v5.5h4.4
					C162.5,57.8,163,57.7,163.4,57.7z"/>
				<path class="st0" d="M178.9,65.6c-0.9,0.7-1.9,1-3.2,1c-0.9,0-1.7-0.1-2.4-0.4c-0.7-0.3-1.2-0.7-1.7-1.2c-0.5-0.5-0.8-1.2-1-1.9
					c-0.2-0.7-0.4-1.5-0.4-2.4c0-0.9,0.1-1.7,0.4-2.4c0.3-0.7,0.6-1.4,1.1-1.9c0.5-0.5,1.1-0.9,1.7-1.2c0.7-0.3,1.4-0.4,2.2-0.4
					c1,0,1.9,0.2,2.5,0.6c0.7,0.4,1.2,1,1.6,1.6c0.4,0.7,0.7,1.4,0.8,2.1c0.2,0.8,0.2,1.5,0.2,2.2h-8.6c0,0.5,0,1,0.2,1.4
					c0.1,0.5,0.3,0.9,0.6,1.2c0.3,0.3,0.7,0.6,1.1,0.8c0.5,0.2,1,0.3,1.6,0.3c0.8,0,1.5-0.2,2-0.6c0.5-0.4,0.8-0.9,1-1.7h1.9
					C180.3,64,179.8,64.9,178.9,65.6z M178.5,58.2c-0.2-0.4-0.4-0.7-0.7-1c-0.3-0.3-0.6-0.5-1-0.7c-0.4-0.2-0.8-0.3-1.3-0.3
					c-0.5,0-0.9,0.1-1.3,0.3c-0.4,0.2-0.7,0.4-1,0.7c-0.3,0.3-0.5,0.6-0.7,1c-0.2,0.4-0.3,0.8-0.3,1.3h6.6
					C178.7,59,178.6,58.6,178.5,58.2z"/>
				<path class="st0" d="M184.5,63.8c0.2,0.3,0.4,0.5,0.7,0.7c0.3,0.2,0.6,0.3,1,0.4c0.4,0.1,0.7,0.1,1.1,0.1c0.3,0,0.6,0,0.9-0.1
					c0.3,0,0.6-0.1,0.9-0.2c0.3-0.1,0.5-0.3,0.7-0.5c0.2-0.2,0.3-0.5,0.3-0.9c0-0.5-0.2-0.9-0.6-1.1c-0.4-0.3-0.8-0.5-1.4-0.6
					c-0.6-0.2-1.2-0.3-1.8-0.4c-0.7-0.1-1.3-0.3-1.8-0.5c-0.6-0.2-1-0.6-1.4-1c-0.4-0.4-0.6-1-0.6-1.7c0-0.6,0.1-1.1,0.4-1.5
					c0.3-0.4,0.6-0.8,1-1c0.4-0.3,0.9-0.5,1.4-0.6c0.5-0.1,1-0.2,1.5-0.2c0.7,0,1.3,0.1,1.8,0.2c0.5,0.1,1,0.3,1.5,0.6
					c0.4,0.3,0.8,0.6,1,1.1c0.3,0.5,0.4,1,0.4,1.7h-1.9c0-0.4-0.1-0.7-0.3-0.9c-0.2-0.2-0.4-0.4-0.6-0.6c-0.3-0.1-0.5-0.3-0.8-0.3
					c-0.3-0.1-0.6-0.1-0.9-0.1c-0.3,0-0.6,0-0.9,0.1c-0.3,0-0.6,0.1-0.8,0.2c-0.2,0.1-0.4,0.3-0.6,0.4c-0.1,0.2-0.2,0.4-0.2,0.7
					c0,0.3,0.1,0.6,0.3,0.8c0.2,0.2,0.5,0.4,0.9,0.5c0.4,0.1,0.8,0.3,1.2,0.4c0.4,0.1,0.9,0.2,1.3,0.3c0.5,0.1,0.9,0.2,1.4,0.4
					c0.5,0.1,0.9,0.3,1.2,0.6c0.3,0.2,0.6,0.6,0.8,0.9c0.2,0.4,0.3,0.8,0.3,1.4c0,0.7-0.1,1.3-0.4,1.7c-0.3,0.5-0.7,0.8-1.1,1.1
					c-0.5,0.3-1,0.5-1.6,0.6c-0.6,0.1-1.2,0.2-1.7,0.2c-0.6,0-1.2-0.1-1.8-0.2c-0.6-0.1-1.1-0.4-1.5-0.7c-0.4-0.3-0.8-0.7-1.1-1.2
					c-0.3-0.5-0.4-1.1-0.4-1.8h1.9C184.2,63.1,184.3,63.5,184.5,63.8z"/>
				<path class="st0" d="M194.6,52.8v-2.3h1.9v2.3H194.6z M196.5,54.8v11.5h-1.9V54.8H196.5z"/>
				<path class="st0" d="M208.2,66.3v-1.6h0c-0.3,0.6-0.8,1.1-1.5,1.4c-0.7,0.3-1.4,0.4-2.2,0.4c-0.9,0-1.7-0.2-2.3-0.5
					c-0.7-0.3-1.2-0.8-1.6-1.3c-0.4-0.5-0.8-1.2-1-1.9c-0.2-0.7-0.3-1.5-0.3-2.3c0-0.8,0.1-1.6,0.3-2.3c0.2-0.7,0.5-1.4,1-1.9
					c0.4-0.5,1-1,1.6-1.3c0.7-0.3,1.4-0.5,2.3-0.5c0.3,0,0.6,0,1,0.1c0.3,0.1,0.7,0.2,1,0.3c0.3,0.1,0.7,0.3,1,0.6
					c0.3,0.2,0.6,0.5,0.8,0.9h0v-5.9h1.9v15.9H208.2z M201.4,62.3c0.1,0.5,0.4,1,0.6,1.4c0.3,0.4,0.7,0.7,1.1,1
					c0.5,0.2,1,0.4,1.6,0.4c0.6,0,1.2-0.1,1.6-0.4c0.4-0.3,0.8-0.6,1.1-1c0.3-0.4,0.5-0.9,0.6-1.4c0.1-0.5,0.2-1,0.2-1.6
					c0-0.6-0.1-1.1-0.2-1.6c-0.1-0.5-0.3-1-0.6-1.4c-0.3-0.4-0.7-0.7-1.1-1c-0.5-0.2-1-0.4-1.7-0.4c-0.6,0-1.2,0.1-1.6,0.4
					c-0.4,0.3-0.8,0.6-1.1,1c-0.3,0.4-0.5,0.9-0.6,1.4c-0.1,0.5-0.2,1.1-0.2,1.6C201.2,61.2,201.2,61.7,201.4,62.3z"/>
				<path class="st0" d="M221.5,65.6c-0.9,0.7-1.9,1-3.2,1c-0.9,0-1.7-0.1-2.4-0.4c-0.7-0.3-1.2-0.7-1.7-1.2c-0.5-0.5-0.8-1.2-1-1.9
					c-0.2-0.7-0.4-1.5-0.4-2.4c0-0.9,0.1-1.7,0.4-2.4c0.3-0.7,0.6-1.4,1.1-1.9c0.5-0.5,1.1-0.9,1.7-1.2c0.7-0.3,1.4-0.4,2.2-0.4
					c1,0,1.9,0.2,2.5,0.6c0.7,0.4,1.2,1,1.6,1.6c0.4,0.7,0.7,1.4,0.8,2.1c0.2,0.8,0.2,1.5,0.2,2.2h-8.6c0,0.5,0,1,0.2,1.4
					c0.1,0.5,0.3,0.9,0.6,1.2c0.3,0.3,0.7,0.6,1.1,0.8c0.5,0.2,1,0.3,1.6,0.3c0.8,0,1.5-0.2,2-0.6c0.5-0.4,0.8-0.9,1-1.7h1.9
					C222.9,64,222.3,64.9,221.5,65.6z M221,58.2c-0.2-0.4-0.4-0.7-0.7-1c-0.3-0.3-0.6-0.5-1-0.7c-0.4-0.2-0.8-0.3-1.3-0.3
					c-0.5,0-0.9,0.1-1.3,0.3c-0.4,0.2-0.7,0.4-1,0.7c-0.3,0.3-0.5,0.6-0.7,1c-0.2,0.4-0.3,0.8-0.3,1.3h6.6
					C221.3,59,221.2,58.6,221,58.2z"/>
				<path class="st0" d="M227.4,54.8v1.8h0c0.8-1.4,2-2.1,3.7-2.1c0.8,0,1.4,0.1,1.9,0.3c0.5,0.2,0.9,0.5,1.2,0.9
					c0.3,0.4,0.5,0.8,0.7,1.3c0.1,0.5,0.2,1.1,0.2,1.7v7.6h-1.9v-7.8c0-0.7-0.2-1.3-0.6-1.7c-0.4-0.4-1-0.6-1.7-0.6
					c-0.6,0-1.1,0.1-1.5,0.3c-0.4,0.2-0.8,0.4-1.1,0.8c-0.3,0.3-0.5,0.7-0.6,1.1c-0.1,0.4-0.2,0.9-0.2,1.4v6.5h-1.9V54.8H227.4z"/>
				<path class="st0" d="M243.2,54.8v1.7h-2.3v7.1c0,0.2,0,0.4,0.1,0.5c0,0.1,0.1,0.2,0.2,0.3c0.1,0.1,0.2,0.1,0.4,0.1
					c0.2,0,0.4,0,0.7,0h0.9v1.7h-1.4c-0.5,0-0.9,0-1.3-0.1c-0.3-0.1-0.6-0.2-0.8-0.4c-0.2-0.2-0.4-0.4-0.5-0.8
					c-0.1-0.3-0.2-0.8-0.2-1.3v-7.3h-2v-1.7h2v-3.4h1.9v3.4H243.2z"/>
				<path class="st0" d="M245.7,52.8v-2.3h1.9v2.3H245.7z M247.6,54.8v11.5h-1.9V54.8H247.6z"/>
				<path class="st0" d="M259.7,66.6c-0.5,0-0.9-0.1-1.2-0.4c-0.3-0.3-0.4-0.7-0.4-1.3c-0.5,0.6-1.1,1.1-1.8,1.3
					c-0.7,0.3-1.4,0.4-2.2,0.4c-0.5,0-1-0.1-1.5-0.2c-0.5-0.1-0.9-0.3-1.2-0.6c-0.3-0.3-0.6-0.6-0.8-1c-0.2-0.4-0.3-0.9-0.3-1.5
					c0-0.7,0.1-1.2,0.3-1.6c0.2-0.4,0.5-0.8,0.9-1c0.4-0.3,0.8-0.5,1.2-0.6c0.5-0.1,0.9-0.2,1.4-0.3c0.5-0.1,1-0.2,1.5-0.2
					c0.5-0.1,0.9-0.1,1.2-0.2c0.4-0.1,0.6-0.2,0.8-0.4c0.2-0.2,0.3-0.5,0.3-0.8c0-0.4-0.1-0.7-0.2-1c-0.2-0.3-0.4-0.4-0.6-0.6
					c-0.2-0.1-0.5-0.2-0.8-0.3c-0.3,0-0.6-0.1-0.9-0.1c-0.8,0-1.5,0.2-2,0.5c-0.5,0.3-0.8,0.9-0.9,1.7h-1.9c0-0.7,0.2-1.3,0.4-1.8
					c0.3-0.5,0.6-0.9,1.1-1.2c0.4-0.3,1-0.5,1.5-0.7c0.6-0.1,1.2-0.2,1.8-0.2c0.5,0,1,0,1.5,0.1c0.5,0.1,1,0.2,1.4,0.5
					c0.4,0.2,0.7,0.6,1,1c0.3,0.4,0.4,1,0.4,1.6v5.9c0,0.4,0,0.8,0.1,1c0.1,0.2,0.2,0.3,0.5,0.3c0.2,0,0.4,0,0.6-0.1v1.5
					C260.8,66.5,260.3,66.6,259.7,66.6z M257.1,60.8c-0.4,0.1-0.8,0.1-1.2,0.2c-0.4,0.1-0.8,0.1-1.3,0.2c-0.4,0.1-0.8,0.2-1.2,0.3
					c-0.3,0.1-0.6,0.4-0.8,0.6c-0.2,0.3-0.3,0.6-0.3,1.1c0,0.3,0.1,0.6,0.2,0.8c0.1,0.2,0.3,0.4,0.5,0.5c0.2,0.1,0.4,0.2,0.7,0.3
					c0.3,0.1,0.6,0.1,0.8,0.1c0.6,0,1.2-0.1,1.6-0.3c0.4-0.2,0.8-0.4,1.1-0.6c0.3-0.3,0.5-0.5,0.6-0.8c0.1-0.3,0.2-0.6,0.2-0.9v-1.9
					C257.8,60.6,257.5,60.7,257.1,60.8z"/>
				<path class="st0" d="M265.2,50.5v15.9h-1.9V50.5H265.2z"/>
				<path class="st0" d="M281.9,50.5l6.2,15.9h-2.3l-1.7-4.8h-6.7l-1.8,4.8h-2.2l6.2-15.9H281.9z M283.4,59.8l-2.6-7.4h0l-2.7,7.4
					H283.4z"/>
				<path class="st0" d="M298.3,69.6c-0.9,0.9-2.2,1.4-4,1.4c-0.5,0-1.1-0.1-1.6-0.2c-0.6-0.1-1.1-0.3-1.5-0.6
					c-0.5-0.3-0.8-0.6-1.1-1c-0.3-0.4-0.5-1-0.5-1.6h1.9c0,0.3,0.1,0.6,0.3,0.9c0.2,0.2,0.4,0.4,0.7,0.6c0.3,0.1,0.6,0.3,0.9,0.3
					c0.3,0.1,0.7,0.1,1,0.1c0.6,0,1.1-0.1,1.6-0.3c0.4-0.2,0.8-0.5,1.1-0.9c0.3-0.4,0.5-0.8,0.6-1.4c0.1-0.5,0.2-1.1,0.2-1.8v-0.8h0
					c-0.3,0.7-0.8,1.2-1.5,1.6c-0.7,0.3-1.4,0.5-2.1,0.5c-0.9,0-1.6-0.2-2.2-0.5c-0.6-0.3-1.2-0.7-1.6-1.3c-0.4-0.5-0.8-1.1-1-1.8
					c-0.2-0.7-0.3-1.4-0.3-2.2c0-0.7,0.1-1.4,0.3-2.1c0.2-0.7,0.5-1.4,0.9-2c0.4-0.6,1-1.1,1.6-1.4c0.7-0.4,1.5-0.6,2.5-0.6
					c0.7,0,1.4,0.2,2,0.5c0.6,0.3,1.1,0.8,1.4,1.4h0v-1.6h1.8v10.5C299.6,67.2,299.2,68.6,298.3,69.6z M295.9,64.4
					c0.4-0.3,0.8-0.6,1.1-1c0.3-0.4,0.5-0.9,0.6-1.4c0.1-0.5,0.2-1.1,0.2-1.6c0-0.5-0.1-1-0.2-1.5c-0.1-0.5-0.3-0.9-0.6-1.3
					c-0.3-0.4-0.6-0.7-1-0.9c-0.4-0.2-0.9-0.4-1.5-0.4c-0.6,0-1.1,0.1-1.6,0.3c-0.4,0.2-0.8,0.5-1.1,0.9c-0.3,0.4-0.5,0.8-0.6,1.3
					c-0.1,0.5-0.2,1-0.2,1.6c0,0.5,0.1,1,0.2,1.6c0.1,0.5,0.3,1,0.5,1.4c0.3,0.4,0.6,0.8,1,1c0.4,0.3,0.9,0.4,1.6,0.4
					C295,64.8,295.5,64.7,295.9,64.4z"/>
				<path class="st0" d="M311,65.6c-0.9,0.7-1.9,1-3.2,1c-0.9,0-1.7-0.1-2.4-0.4c-0.7-0.3-1.2-0.7-1.7-1.2c-0.5-0.5-0.8-1.2-1-1.9
					c-0.2-0.7-0.4-1.5-0.4-2.4c0-0.9,0.1-1.7,0.4-2.4c0.3-0.7,0.6-1.4,1.1-1.9c0.5-0.5,1.1-0.9,1.7-1.2c0.7-0.3,1.4-0.4,2.2-0.4
					c1,0,1.9,0.2,2.5,0.6c0.7,0.4,1.2,1,1.6,1.6c0.4,0.7,0.7,1.4,0.8,2.1c0.2,0.8,0.2,1.5,0.2,2.2h-8.6c0,0.5,0,1,0.2,1.4
					c0.1,0.5,0.3,0.9,0.6,1.2c0.3,0.3,0.7,0.6,1.1,0.8c0.5,0.2,1,0.3,1.6,0.3c0.8,0,1.5-0.2,2-0.6c0.5-0.4,0.8-0.9,1-1.7h1.9
					C312.4,64,311.8,64.9,311,65.6z M310.5,58.2c-0.2-0.4-0.4-0.7-0.7-1c-0.3-0.3-0.6-0.5-1-0.7c-0.4-0.2-0.8-0.3-1.3-0.3
					c-0.5,0-0.9,0.1-1.3,0.3c-0.4,0.2-0.7,0.4-1,0.7c-0.3,0.3-0.5,0.6-0.7,1c-0.2,0.4-0.3,0.8-0.3,1.3h6.6
					C310.8,59,310.7,58.6,310.5,58.2z"/>
				<path class="st0" d="M323.5,66.3v-1.6h0c-0.3,0.6-0.8,1.1-1.5,1.4c-0.7,0.3-1.4,0.4-2.2,0.4c-0.9,0-1.7-0.2-2.3-0.5
					c-0.7-0.3-1.2-0.8-1.6-1.3c-0.4-0.5-0.8-1.2-1-1.9c-0.2-0.7-0.3-1.5-0.3-2.3c0-0.8,0.1-1.6,0.3-2.3c0.2-0.7,0.5-1.4,1-1.9
					c0.4-0.5,1-1,1.6-1.3c0.7-0.3,1.4-0.5,2.3-0.5c0.3,0,0.6,0,1,0.1c0.3,0.1,0.7,0.2,1,0.3c0.3,0.1,0.7,0.3,1,0.6
					c0.3,0.2,0.6,0.5,0.8,0.9h0v-5.9h1.9v15.9H323.5z M316.7,62.3c0.1,0.5,0.4,1,0.6,1.4c0.3,0.4,0.7,0.7,1.1,1
					c0.5,0.2,1,0.4,1.6,0.4c0.6,0,1.2-0.1,1.6-0.4c0.4-0.3,0.8-0.6,1.1-1c0.3-0.4,0.5-0.9,0.6-1.4c0.1-0.5,0.2-1,0.2-1.6
					c0-0.6-0.1-1.1-0.2-1.6c-0.1-0.5-0.3-1-0.6-1.4c-0.3-0.4-0.7-0.7-1.1-1c-0.5-0.2-1-0.4-1.7-0.4c-0.6,0-1.2,0.1-1.6,0.4
					c-0.4,0.3-0.8,0.6-1.1,1c-0.3,0.4-0.5,0.9-0.6,1.4c-0.1,0.5-0.2,1.1-0.2,1.6C316.5,61.2,316.5,61.7,316.7,62.3z"/>
				<path class="st0" d="M345,52.7c-0.8-0.6-1.8-0.8-2.9-0.8c-0.9,0-1.8,0.2-2.4,0.5c-0.7,0.4-1.2,0.8-1.7,1.4
					c-0.4,0.6-0.8,1.3-1,2.1c-0.2,0.8-0.3,1.6-0.3,2.4c0,0.9,0.1,1.8,0.3,2.6c0.2,0.8,0.5,1.5,1,2.1c0.4,0.6,1,1.1,1.7,1.4
					c0.7,0.4,1.5,0.5,2.4,0.5c0.7,0,1.3-0.1,1.9-0.3c0.5-0.2,1-0.5,1.4-1c0.4-0.4,0.7-0.9,0.9-1.5c0.2-0.6,0.4-1.2,0.4-1.8h2.1
					c-0.2,2-0.9,3.6-2.1,4.7c-1.2,1.1-2.8,1.7-4.8,1.7c-1.2,0-2.3-0.2-3.2-0.6c-0.9-0.4-1.7-1-2.3-1.7c-0.6-0.7-1.1-1.6-1.4-2.6
					c-0.3-1-0.5-2.1-0.5-3.2c0-1.2,0.2-2.2,0.5-3.3c0.3-1,0.8-1.9,1.4-2.7c0.6-0.8,1.4-1.4,2.4-1.8c0.9-0.4,2-0.7,3.2-0.7
					c0.8,0,1.6,0.1,2.4,0.3c0.7,0.2,1.4,0.5,2,1s1.1,1,1.4,1.6s0.6,1.4,0.8,2.2h-2.1C346.4,54.1,345.8,53.3,345,52.7z"/>
				<path class="st0" d="M360.4,66.6c-0.5,0-0.9-0.1-1.2-0.4c-0.3-0.3-0.4-0.7-0.4-1.3c-0.5,0.6-1.1,1.1-1.8,1.3
					c-0.7,0.3-1.4,0.4-2.2,0.4c-0.5,0-1-0.1-1.5-0.2c-0.5-0.1-0.9-0.3-1.2-0.6c-0.3-0.3-0.6-0.6-0.8-1c-0.2-0.4-0.3-0.9-0.3-1.5
					c0-0.7,0.1-1.2,0.3-1.6c0.2-0.4,0.5-0.8,0.9-1c0.4-0.3,0.8-0.5,1.2-0.6c0.5-0.1,0.9-0.2,1.4-0.3c0.5-0.1,1-0.2,1.5-0.2
					c0.5-0.1,0.9-0.1,1.2-0.2c0.4-0.1,0.6-0.2,0.8-0.4c0.2-0.2,0.3-0.5,0.3-0.8c0-0.4-0.1-0.7-0.2-1c-0.2-0.3-0.4-0.4-0.6-0.6
					c-0.2-0.1-0.5-0.2-0.8-0.3c-0.3,0-0.6-0.1-0.9-0.1c-0.8,0-1.5,0.2-2,0.5c-0.5,0.3-0.8,0.9-0.9,1.7h-1.9c0-0.7,0.2-1.3,0.4-1.8
					c0.3-0.5,0.6-0.9,1.1-1.2c0.4-0.3,1-0.5,1.5-0.7c0.6-0.1,1.2-0.2,1.8-0.2c0.5,0,1,0,1.5,0.1c0.5,0.1,1,0.2,1.4,0.5
					c0.4,0.2,0.7,0.6,1,1c0.3,0.4,0.4,1,0.4,1.6v5.9c0,0.4,0,0.8,0.1,1c0.1,0.2,0.2,0.3,0.5,0.3c0.2,0,0.4,0,0.6-0.1v1.5
					C361.4,66.5,360.9,66.6,360.4,66.6z M357.7,60.8c-0.4,0.1-0.8,0.1-1.2,0.2c-0.4,0.1-0.8,0.1-1.3,0.2c-0.4,0.1-0.8,0.2-1.2,0.3
					c-0.3,0.1-0.6,0.4-0.8,0.6c-0.2,0.3-0.3,0.6-0.3,1.1c0,0.3,0.1,0.6,0.2,0.8c0.1,0.2,0.3,0.4,0.5,0.5c0.2,0.1,0.4,0.2,0.7,0.3
					c0.3,0.1,0.6,0.1,0.8,0.1c0.6,0,1.2-0.1,1.6-0.3c0.4-0.2,0.8-0.4,1.1-0.6c0.3-0.3,0.5-0.5,0.6-0.8c0.1-0.3,0.2-0.6,0.2-0.9v-1.9
					C358.4,60.6,358.1,60.7,357.7,60.8z"/>
				<path class="st0" d="M365.5,54.8v2.4h0c0.5-0.9,1-1.6,1.7-2.1c0.7-0.4,1.5-0.7,2.5-0.6v2c-0.8,0-1.4,0.1-1.9,0.3
					c-0.5,0.2-1,0.5-1.3,0.9c-0.3,0.4-0.6,0.9-0.7,1.5c-0.1,0.6-0.2,1.2-0.2,2v5.1h-1.9V54.8H365.5z"/>
				<path class="st0" d="M379.3,65.6c-0.9,0.7-1.9,1-3.2,1c-0.9,0-1.7-0.1-2.4-0.4c-0.7-0.3-1.2-0.7-1.7-1.2c-0.5-0.5-0.8-1.2-1-1.9
					c-0.2-0.7-0.4-1.5-0.4-2.4c0-0.9,0.1-1.7,0.4-2.4c0.3-0.7,0.6-1.4,1.1-1.9c0.5-0.5,1.1-0.9,1.7-1.2c0.7-0.3,1.4-0.4,2.2-0.4
					c1,0,1.9,0.2,2.5,0.6c0.7,0.4,1.2,1,1.6,1.6c0.4,0.7,0.7,1.4,0.8,2.1c0.2,0.8,0.2,1.5,0.2,2.2h-8.6c0,0.5,0,1,0.2,1.4
					c0.1,0.5,0.3,0.9,0.6,1.2c0.3,0.3,0.7,0.6,1.1,0.8c0.5,0.2,1,0.3,1.6,0.3c0.8,0,1.5-0.2,2-0.6c0.5-0.4,0.8-0.9,1-1.7h1.9
					C380.7,64,380.1,64.9,379.3,65.6z M378.8,58.2c-0.2-0.4-0.4-0.7-0.7-1c-0.3-0.3-0.6-0.5-1-0.7c-0.4-0.2-0.8-0.3-1.3-0.3
					c-0.5,0-0.9,0.1-1.3,0.3c-0.4,0.2-0.7,0.4-1,0.7c-0.3,0.3-0.5,0.6-0.7,1c-0.2,0.4-0.3,0.8-0.3,1.3h6.6
					C379.1,59,379,58.6,378.8,58.2z"/>
			</g>
		</g>
		<g>
			<path d="M14,52.7c-0.8-0.6-1.8-0.8-2.9-0.8c-0.9,0-1.8,0.2-2.4,0.5C8,52.7,7.5,53.2,7,53.8c-0.4,0.6-0.8,1.3-1,2.1
				c-0.2,0.8-0.3,1.6-0.3,2.4c0,0.9,0.1,1.8,0.3,2.6c0.2,0.8,0.5,1.5,1,2.1c0.4,0.6,1,1.1,1.7,1.4c0.7,0.4,1.5,0.5,2.4,0.5
				c0.7,0,1.3-0.1,1.9-0.3c0.5-0.2,1-0.5,1.4-1c0.4-0.4,0.7-0.9,0.9-1.5c0.2-0.6,0.4-1.2,0.4-1.8h2.1c-0.2,2-0.9,3.6-2.1,4.7
				c-1.2,1.1-2.8,1.7-4.8,1.7c-1.2,0-2.3-0.2-3.2-0.6c-0.9-0.4-1.7-1-2.3-1.7c-0.6-0.7-1.1-1.6-1.4-2.6c-0.3-1-0.5-2.1-0.5-3.2
				c0-1.2,0.2-2.2,0.5-3.3c0.3-1,0.8-1.9,1.4-2.7c0.6-0.8,1.4-1.4,2.4-1.8c0.9-0.4,2-0.7,3.2-0.7c0.8,0,1.6,0.1,2.4,0.3
				c0.7,0.2,1.4,0.5,2,1c0.6,0.4,1.1,1,1.4,1.6c0.4,0.6,0.6,1.4,0.8,2.2h-2.1C15.3,54.1,14.8,53.3,14,52.7z"/>
			<path d="M22.9,50.5v6.8h8.4v-6.8h2.1v15.9h-2.1v-7.3h-8.4v7.3h-2.1V50.5H22.9z"/>
			<path d="M43.8,50.5l6.2,15.9h-2.3L46,61.6h-6.7l-1.8,4.8h-2.2l6.2-15.9H43.8z M45.3,59.8l-2.6-7.4h0l-2.7,7.4H45.3z"/>
			<path d="M58.9,50.5c1.6,0,2.8,0.4,3.6,1.2c0.8,0.8,1.2,2,1.2,3.5s-0.4,2.6-1.2,3.5c-0.8,0.8-2,1.2-3.6,1.2h-4.8v6.5h-2.1V50.5
				H58.9z M58.2,58.1c1.2,0,2.1-0.2,2.6-0.7c0.6-0.5,0.8-1.2,0.8-2.2s-0.3-1.7-0.8-2.2c-0.6-0.5-1.4-0.7-2.6-0.7h-4.1v5.8H58.2z"/>
			<path d="M77.7,50.5v1.8h-8.9v5h8.3v1.8h-8.3v5.5h8.9v1.8h-11V50.5H77.7z"/>
			<path d="M82.7,50.5v14.1h8.4v1.8H80.6V50.5H82.7z"/>
			<path d="M101.9,50.5v6.8h8.4v-6.8h2.1v15.9h-2.1v-7.3h-8.4v7.3h-2.1V50.5H101.9z"/>
			<path d="M118.4,50.5v15.9h-2.1V50.5H118.4z"/>
			<path d="M124.4,50.5v14.1h8.4v1.8h-10.5V50.5H124.4z"/>
			<path d="M137.1,50.5v14.1h8.4v1.8H135V50.5H137.1z"/>
		</g>
	</g>
</g>
<g>
	<path class="st1" d="M3.8,14.9V3.6h26.8v11.4h-2.3c0-6.4-1.1-9.1-7.4-9.1h-1.6V28c0,1.4,0.6,2.2,2,2.2H25v2.3H9.4v-2.3h3.8
		c1.3,0,2-0.8,2-2.2V5.9h-1.9c-6,0-7.1,3.1-7.1,9.1H3.8z"/>
	<path class="st1" d="M40.8,15.6L40.8,15.6c1.8-2.5,4.4-4.1,7.7-4.1c4.6,0,7,3,7,7.5v9.4c0,1.3,0.3,2,1.7,2h2.6v2H47.7v-2h2.4
		c1.4,0,1.7-0.7,1.7-2v-9.7c0-3-1.1-4.8-4.5-4.8c-4.1,0-6.6,3.3-6.6,6.8v7.7c0,1.3,0.3,2,1.7,2h2.7v2H32.5v-2h2.8
		c1.4,0,1.7-0.7,1.7-2V7.6c0-1.3-0.3-2-1.7-2h-2.8v-2h8.3V15.6z"/>
	<path class="st1" d="M65.8,22.5c0,4.4,1,8.5,6.1,8.5c3.5,0,5.6-1.8,6.5-5.2H81c-1,4.7-4,7.3-9.1,7.3c-6.4,0-10.2-3.7-10.2-10.8
		s3.7-10.8,10.2-10.8c7,0,9.3,4.9,9.7,11.1H65.8z M77.4,20.5c0-3.8-1.7-7-5.7-7c-4,0-5.9,3.2-5.9,7H77.4z"/>
	<path class="st1" d="M118.8,14.8h-2.3c-0.7-6.1-4.4-9.7-9.2-9.7c-7.3,0-10,5.5-10,13c0,6.7,2.7,12.9,10,12.9c5.6,0,8.5-3.7,9-9h2.8
		c-0.5,7.9-5.4,11.3-12.7,11.3c-9.7,0-13.7-7-13.7-15.3c0-8.7,4.6-15.3,14.2-15.3c3.2,0,6.3,1.3,8.7,3.4l1.1-2.8h2V14.8z"/>
	<path class="st1" d="M138.9,28.7c0,1.3,0.3,2.3,1.1,2.3c1.9,0,2-2.4,2-3.7v-1.8h2v1.3c0,4.6-1.6,6.3-4.9,6.3
		c-2.2,0-3.5-1.3-3.8-3.4c-2.1,2.3-4.6,3.4-7.7,3.4c-3.5,0-6.4-1.6-6.4-5.4c0-5.7,7.8-5.6,12.2-7.7c1.3-0.7,1.7-1.5,1.7-2.8
		c0-2.5-1.1-3.7-4.9-3.7c-1.7,0-3.8,0.3-5.1,1.7c1.3,0.2,2,0.9,2,2.2c0,1.7-1.4,2.3-2.6,2.3c-1.5,0-2.3-1.3-2.3-3.1
		c0-3.7,5-5.2,8.3-5.2c5,0,8.3,1.5,8.3,7.1V28.7z M135.3,21.3c-1.9,1.1-3.9,1.5-6.4,2.6c-2.3,1-3.3,2-3.3,3.5c0,2.3,1.2,3.6,3.4,3.6
		c2.9,0,6.3-2.7,6.3-5.7V21.3z"/>
	<path class="st1" d="M153.7,28.4c0,1.3,0.3,2,1.7,2h2.8v2h-12.8v-2h2.8c1.4,0,1.7-0.7,1.7-2V16.1c0-1.3-0.3-2-1.7-2h-2.8v-2h8.3
		V28.4z M151.3,7.9c-1.3,0-2.3-1-2.3-2.3c0-1.3,1-2.3,2.3-2.3c1.3,0,2.3,1.1,2.3,2.3C153.6,6.9,152.5,7.9,151.3,7.9z"/>
	<path class="st1" d="M168.5,16.5L168.5,16.5c1.2-3,3.7-5,6.3-5c3,0,4.9,1.6,4.9,4.6c0,1.7-0.7,2.9-2.4,2.9c-1.2,0-2.4-0.7-2.4-2
		c0-1.6,1-2.3,2.6-2.3c-0.2-1-1.6-1.2-2.5-1.2c-4.1,0-6.2,4.7-6.2,9v5.9c0,1.3,0.8,2,2.2,2h2.3v2h-12.8v-2h2.8c1.4,0,1.7-0.7,1.7-2
		V16.1c0-1.3-0.3-2-1.7-2h-3v-2h8.3V16.5z"/>
	<path class="st1" d="M189.9,15.8L189.9,15.8c1.8-2.7,4.4-4.4,7.8-4.4c4.6,0,7,3,7,7.5v9.4c0,1.3,0.3,2,1.7,2h2.6v2h-12.2v-2h2.4
		c1.4,0,1.7-0.7,1.7-2v-9.7c0-3-1.1-4.8-4.5-4.8c-4.1,0-6.6,3.3-6.6,6.8v7.7c0,1.3,0.3,2,1.7,2h2.7v2h-12.7v-2h2.8
		c1.4,0,1.7-0.7,1.7-2V16.1c0-1.3-0.3-2-1.7-2h-2.8v-2h8.2V15.8z"/>
	<path class="st1" d="M213.7,24.2c0.7,4.1,4,6.8,8.1,6.8c2.6,0,4.5-1.3,4.5-3.4c0-5.6-14.6-1.3-14.6-10.2c0-4.4,4-6,7.7-6
		c2.4,0,4.9,0.9,6.7,2.5l0.8-2h2v8h-2c-0.5-3.8-3.8-6.4-7.4-6.4c-1.9,0-4.1,0.7-4.1,3.5c0,5.2,14.6,1.3,14.6,9.8
		c0,4.6-4.1,6.3-8.1,6.3c-2.7,0-5.4-0.8-7.4-2.7l-0.8,2.3h-2.3v-8.4H213.7z"/>
	<path class="st1" d="M272.2,14.8H270c-0.7-6.1-4.4-9.7-9.2-9.7c-7.3,0-10,5.5-10,13c0,6.7,2.7,12.9,10,12.9c5.6,0,8.5-3.7,9-9h2.8
		c-0.5,7.9-5.4,11.3-12.7,11.3c-9.7,0-13.7-7-13.7-15.3c0-8.7,4.6-15.3,14.2-15.3c3.2,0,6.3,1.3,8.7,3.4l1.1-2.8h2V14.8z"/>
	<path class="st1" d="M279,22.5c0,4.4,1,8.5,6.1,8.5c3.5,0,5.6-1.8,6.5-5.2h2.5c-1,4.7-4,7.3-9.1,7.3c-6.4,0-10.2-3.7-10.2-10.8
		s3.7-10.8,10.2-10.8c7,0,9.3,4.9,9.7,11.1H279z M290.5,20.5c0-3.8-1.7-7-5.7-7c-4,0-5.9,3.2-5.9,7H290.5z"/>
	<path class="st1" d="M304.7,15.8L304.7,15.8c1.8-2.7,4.4-4.4,7.8-4.4c4.6,0,7,3,7,7.5v9.4c0,1.3,0.3,2,1.7,2h2.6v2h-12.2v-2h2.4
		c1.4,0,1.7-0.7,1.7-2v-9.7c0-3-1.1-4.8-4.5-4.8c-4.1,0-6.6,3.3-6.6,6.8v7.7c0,1.3,0.3,2,1.7,2h2.7v2h-12.7v-2h2.8
		c1.4,0,1.7-0.7,1.7-2V16.1c0-1.3-0.3-2-1.7-2h-2.8v-2h8.2V15.8z"/>
	<path class="st1" d="M323.6,12.1c4.1-0.6,4.9-4.9,5.1-8.5h2.3v8.5h6.2v2H331v14.4c0,1.8,0.7,2.6,2.2,2.6c1.8,0,3-1.7,3-4.3v-2.5h2
		v1.9c0,4.2-1.3,7-5.9,7c-3.8,0-5-2.5-5-5v-14h-3.7V12.1z"/>
	<path class="st1" d="M348.8,16.5L348.8,16.5c1.2-3,3.7-5,6.3-5c3,0,4.9,1.6,4.9,4.6c0,1.7-0.7,2.9-2.4,2.9c-1.2,0-2.4-0.7-2.4-2
		c0-1.6,1-2.3,2.6-2.3c-0.2-1-1.6-1.2-2.5-1.2c-4.1,0-6.2,4.7-6.2,9v5.9c0,1.3,0.8,2,2.2,2h2.3v2h-12.8v-2h2.8c1.4,0,1.7-0.7,1.7-2
		V16.1c0-1.3-0.3-2-1.7-2h-3v-2h8.3V16.5z"/>
	<path class="st1" d="M366.2,22.5c0,4.4,1,8.5,6.1,8.5c3.5,0,5.6-1.8,6.5-5.2h2.5c-1,4.7-4,7.3-9.1,7.3c-6.4,0-10.2-3.7-10.2-10.8
		s3.7-10.8,10.2-10.8c7,0,9.3,4.9,9.7,11.1H366.2z M377.8,20.5c0-3.8-1.7-7-5.7-7c-4,0-5.9,3.2-5.9,7H377.8z"/>
</g>
<g>
</g>
<g>
</g>
<g>
</g>
<g>
</g>
<g>
</g>
<g>
</g>
</svg>
